G04*
G04 #@! TF.GenerationSoftware,Altium Limited,Altium Designer,18.1.11 (251)*
G04*
G04 Layer_Color=16711935*
%FSLAX25Y25*%
%MOIN*%
G70*
G01*
G75*
%ADD10C,0.00394*%
%ADD12C,0.00984*%
%ADD13C,0.00787*%
%ADD15C,0.01575*%
%ADD47C,0.06299*%
%ADD48P,0.08908X4X82.0*%
%ADD49P,0.08908X4X127.0*%
%ADD50C,0.02953*%
G04:AMPARAMS|DCode=51|XSize=43.31mil|YSize=66.93mil|CornerRadius=0mil|HoleSize=0mil|Usage=FLASHONLY|Rotation=80.000|XOffset=0mil|YOffset=0mil|HoleType=Round|Shape=Round|*
%AMOVALD51*
21,1,0.02362,0.04331,0.00000,0.00000,170.0*
1,1,0.04331,0.01163,-0.00205*
1,1,0.04331,-0.01163,0.00205*
%
%ADD51OVALD51*%

G04:AMPARAMS|DCode=52|XSize=43.31mil|YSize=86.61mil|CornerRadius=0mil|HoleSize=0mil|Usage=FLASHONLY|Rotation=80.000|XOffset=0mil|YOffset=0mil|HoleType=Round|Shape=Round|*
%AMOVALD52*
21,1,0.04331,0.04331,0.00000,0.00000,170.0*
1,1,0.04331,0.02133,-0.00376*
1,1,0.04331,-0.02133,0.00376*
%
%ADD52OVALD52*%

G04:AMPARAMS|DCode=85|XSize=43.31mil|YSize=47.24mil|CornerRadius=0mil|HoleSize=0mil|Usage=FLASHONLY|Rotation=225.000|XOffset=0mil|YOffset=0mil|HoleType=Round|Shape=Rectangle|*
%AMROTATEDRECTD85*
4,1,4,-0.00139,0.03202,0.03202,-0.00139,0.00139,-0.03202,-0.03202,0.00139,-0.00139,0.03202,0.0*
%
%ADD85ROTATEDRECTD85*%

G04:AMPARAMS|DCode=86|XSize=51.18mil|YSize=82.68mil|CornerRadius=0mil|HoleSize=0mil|Usage=FLASHONLY|Rotation=337.500|XOffset=0mil|YOffset=0mil|HoleType=Round|Shape=Rectangle|*
%AMROTATEDRECTD86*
4,1,4,-0.03946,-0.02840,-0.00782,0.04799,0.03946,0.02840,0.00782,-0.04799,-0.03946,-0.02840,0.0*
%
%ADD86ROTATEDRECTD86*%

G04:AMPARAMS|DCode=87|XSize=27.56mil|YSize=64.96mil|CornerRadius=0mil|HoleSize=0mil|Usage=FLASHONLY|Rotation=157.500|XOffset=0mil|YOffset=0mil|HoleType=Round|Shape=Rectangle|*
%AMROTATEDRECTD87*
4,1,4,0.02516,0.02474,0.00030,-0.03528,-0.02516,-0.02474,-0.00030,0.03528,0.02516,0.02474,0.0*
%
%ADD87ROTATEDRECTD87*%

%ADD88R,0.04331X0.04724*%
G04:AMPARAMS|DCode=89|XSize=43.31mil|YSize=47.24mil|CornerRadius=0mil|HoleSize=0mil|Usage=FLASHONLY|Rotation=315.000|XOffset=0mil|YOffset=0mil|HoleType=Round|Shape=Rectangle|*
%AMROTATEDRECTD89*
4,1,4,-0.03202,-0.00139,0.00139,0.03202,0.03202,0.00139,-0.00139,-0.03202,-0.03202,-0.00139,0.0*
%
%ADD89ROTATEDRECTD89*%

G04:AMPARAMS|DCode=90|XSize=33.47mil|YSize=86.61mil|CornerRadius=0mil|HoleSize=0mil|Usage=FLASHONLY|Rotation=337.500|XOffset=0mil|YOffset=0mil|HoleType=Round|Shape=Rectangle|*
%AMROTATEDRECTD90*
4,1,4,-0.03203,-0.03361,0.00111,0.04641,0.03203,0.03361,-0.00111,-0.04641,-0.03203,-0.03361,0.0*
%
%ADD90ROTATEDRECTD90*%

G04:AMPARAMS|DCode=91|XSize=82.68mil|YSize=59.06mil|CornerRadius=0mil|HoleSize=0mil|Usage=FLASHONLY|Rotation=315.000|XOffset=0mil|YOffset=0mil|HoleType=Round|Shape=Rectangle|*
%AMROTATEDRECTD91*
4,1,4,-0.05011,0.00835,-0.00835,0.05011,0.05011,-0.00835,0.00835,-0.05011,-0.05011,0.00835,0.0*
%
%ADD91ROTATEDRECTD91*%

G04:AMPARAMS|DCode=92|XSize=82.68mil|YSize=59.06mil|CornerRadius=0mil|HoleSize=0mil|Usage=FLASHONLY|Rotation=45.000|XOffset=0mil|YOffset=0mil|HoleType=Round|Shape=Rectangle|*
%AMROTATEDRECTD92*
4,1,4,-0.00835,-0.05011,-0.05011,-0.00835,0.00835,0.05011,0.05011,0.00835,-0.00835,-0.05011,0.0*
%
%ADD92ROTATEDRECTD92*%

%ADD93R,0.12598X0.05906*%
%ADD94R,0.13780X0.06299*%
%ADD95R,0.05315X0.05197*%
%ADD96R,0.04921X0.02756*%
%ADD97R,0.04724X0.04331*%
%ADD98R,0.05512X0.04331*%
%ADD99R,0.05906X0.12598*%
%ADD100R,0.06299X0.13780*%
%ADD101R,0.06693X0.07480*%
%ADD102R,0.08268X0.05906*%
%ADD103R,0.06693X0.06693*%
%ADD104P,0.09465X4X180.0*%
%ADD105P,0.09465X4X270.0*%
%ADD106C,0.01772*%
G36*
X-13526Y290593D02*
X-15948Y289664D01*
X-19721Y288416D01*
X-24556Y287198D01*
X-28378Y286533D01*
X-32235Y286119D01*
X-35279Y285971D01*
X-38033Y285978D01*
X-40100Y286053D01*
X-42748Y286254D01*
X-45753Y286609D01*
X-49213Y296929D01*
X-44173Y291783D01*
X-45911Y293584D01*
X-45104Y296107D01*
X-42847Y294532D01*
X-44173Y291783D01*
X-41906Y296378D01*
X-37176Y291531D01*
X-34577Y296651D01*
X-30223Y292103D01*
X-27349Y297783D01*
X-23387Y293491D01*
X-20299Y299760D01*
X-16743Y295684D01*
X-18268Y297491D01*
X-16666Y301346D01*
X-15087Y299200D01*
X-13500Y302572D01*
X-13526Y290593D01*
D02*
G37*
G36*
X-29327Y297303D02*
X-30004Y297250D01*
X-30620Y297180D01*
X-31130Y297107D01*
X-31710Y297003D01*
X-32177Y296900D01*
X-32660Y296777D01*
X-31416Y299489D01*
X-29327Y297303D01*
D02*
G37*
G36*
X-21204Y297929D02*
X-22234Y295841D01*
X-23007Y296202D01*
X-23752Y296493D01*
X-24546Y296752D01*
X-25415Y296977D01*
X-26056Y297102D01*
X-24406Y300301D01*
X-21204Y297929D01*
D02*
G37*
G36*
X-35745Y295523D02*
X-36430Y295122D01*
X-37017Y294734D01*
X-37572Y294322D01*
X-37998Y293981D01*
X-38436Y293594D01*
X-38812Y293240D01*
X-39963Y294421D01*
X-38068Y297357D01*
X-35745Y295523D01*
D02*
G37*
G36*
X18843Y21151D02*
X18880Y21140D01*
X18914Y21122D01*
X18944Y21097D01*
X18969Y21067D01*
X18973Y21058D01*
X18982Y21054D01*
X19012Y21029D01*
X19012Y21029D01*
X19012Y21029D01*
X19037Y20999D01*
X19048Y20979D01*
X19055Y20965D01*
X19055Y20965D01*
D01*
X19066Y20928D01*
X19069Y20901D01*
X19070Y20889D01*
X19070Y20822D01*
Y20822D01*
Y20822D01*
X19070Y20754D01*
X19070Y20686D01*
Y20686D01*
Y20686D01*
X19070Y20619D01*
Y20564D01*
X19080Y20556D01*
X19080Y20556D01*
X19080Y20556D01*
X19104Y20526D01*
X19115Y20505D01*
X19123Y20492D01*
X19123Y20492D01*
Y20492D01*
X19134Y20454D01*
X19137Y20427D01*
X19138Y20416D01*
X19138Y20348D01*
Y20348D01*
Y20348D01*
Y20281D01*
Y20213D01*
Y20213D01*
Y20213D01*
X19138Y20158D01*
X19147Y20150D01*
X19172Y20120D01*
X19190Y20086D01*
X19201Y20049D01*
X19205Y20010D01*
Y19942D01*
Y19942D01*
Y19942D01*
X19205Y19875D01*
Y19807D01*
X19205Y19739D01*
Y19739D01*
Y19739D01*
X19205Y19684D01*
X19215Y19676D01*
X19215Y19676D01*
X19215Y19676D01*
X19240Y19646D01*
X19251Y19626D01*
X19258Y19612D01*
X19258Y19612D01*
D01*
X19269Y19575D01*
X19272Y19548D01*
X19273Y19536D01*
X19273Y19469D01*
Y19469D01*
Y19469D01*
X19273Y19401D01*
Y19346D01*
X19283Y19338D01*
X19307Y19308D01*
X19326Y19274D01*
X19337Y19237D01*
X19341Y19198D01*
Y19130D01*
Y19063D01*
Y18995D01*
Y18927D01*
Y18872D01*
X19350Y18865D01*
X19375Y18835D01*
X19393Y18800D01*
X19404Y18763D01*
X19408Y18725D01*
Y18657D01*
Y18589D01*
Y18522D01*
Y18467D01*
X19418Y18459D01*
X19418Y18459D01*
X19418Y18459D01*
X19433Y18441D01*
X19443Y18429D01*
X19443Y18429D01*
X19443Y18428D01*
X19452Y18412D01*
X19461Y18394D01*
X19461Y18394D01*
X19461Y18394D01*
X19466Y18378D01*
X19472Y18357D01*
Y18357D01*
X19472Y18357D01*
X19474Y18336D01*
X19476Y18319D01*
Y18319D01*
Y18319D01*
X19476Y18251D01*
Y18183D01*
Y18183D01*
Y18183D01*
X19476Y18116D01*
X19476Y18061D01*
X19486Y18053D01*
X19486Y18053D01*
X19486Y18053D01*
X19495Y18041D01*
X19510Y18023D01*
X19510Y18023D01*
X19510Y18023D01*
X19516Y18011D01*
X19528Y17989D01*
X19528Y17988D01*
X19528Y17988D01*
X19533Y17975D01*
X19540Y17952D01*
Y17951D01*
X19540Y17951D01*
X19541Y17936D01*
X19544Y17913D01*
Y17913D01*
Y17913D01*
Y17845D01*
Y17845D01*
Y17845D01*
X19544Y17777D01*
X19544Y17710D01*
Y17710D01*
Y17710D01*
Y17642D01*
Y17587D01*
X19553Y17579D01*
X19578Y17549D01*
X19596Y17515D01*
X19607Y17478D01*
X19611Y17439D01*
Y17372D01*
Y17304D01*
Y17236D01*
Y17181D01*
X19621Y17173D01*
X19646Y17143D01*
X19664Y17109D01*
X19675Y17072D01*
X19679Y17033D01*
Y16966D01*
Y16898D01*
Y16898D01*
Y16898D01*
X19679Y16830D01*
X19679Y16775D01*
X19689Y16767D01*
X19689Y16767D01*
X19689Y16767D01*
X19713Y16737D01*
X19724Y16717D01*
X19731Y16703D01*
X19731Y16703D01*
Y16703D01*
X19743Y16666D01*
X19745Y16639D01*
X19746Y16627D01*
X19746Y16560D01*
Y16560D01*
Y16560D01*
Y16492D01*
Y16424D01*
Y16424D01*
Y16424D01*
X19746Y16357D01*
X19746Y16302D01*
X19752Y16297D01*
X19756Y16294D01*
X19781Y16264D01*
X19799Y16230D01*
X19810Y16193D01*
X19814Y16154D01*
X19814Y16086D01*
X19814Y16019D01*
Y16019D01*
Y16019D01*
X19814Y15951D01*
X19814Y15896D01*
X19824Y15888D01*
X19824Y15888D01*
X19824Y15888D01*
X19848Y15858D01*
X19860Y15837D01*
X19867Y15824D01*
X19867Y15824D01*
Y15824D01*
X19878Y15787D01*
X19881Y15759D01*
X19882Y15748D01*
X19882Y15680D01*
Y15680D01*
Y15680D01*
Y15613D01*
Y15613D01*
Y15613D01*
X19882Y15545D01*
Y15490D01*
X19892Y15482D01*
X19916Y15452D01*
X19934Y15418D01*
X19946Y15381D01*
X19949Y15342D01*
Y15274D01*
Y15207D01*
Y15139D01*
Y15084D01*
X19959Y15076D01*
X19984Y15046D01*
X20002Y15012D01*
X20013Y14975D01*
X20017Y14936D01*
Y14868D01*
Y14868D01*
Y14868D01*
X20017Y14801D01*
X20017Y14733D01*
Y14733D01*
Y14733D01*
Y14666D01*
Y14611D01*
X20027Y14603D01*
X20051Y14572D01*
X20070Y14538D01*
X20081Y14501D01*
X20085Y14463D01*
Y14395D01*
Y14327D01*
Y14327D01*
Y14327D01*
X20085Y14260D01*
Y14205D01*
X20094Y14197D01*
X20094Y14197D01*
X20094Y14197D01*
X20119Y14167D01*
X20130Y14146D01*
X20137Y14132D01*
X20137Y14132D01*
Y14132D01*
X20149Y14095D01*
X20151Y14068D01*
X20152Y14057D01*
Y14057D01*
Y14057D01*
X20152Y13989D01*
X20152Y13922D01*
Y13921D01*
Y13921D01*
X20152Y13854D01*
Y13799D01*
X20162Y13791D01*
X20187Y13761D01*
X20205Y13726D01*
X20216Y13689D01*
X20220Y13651D01*
Y13583D01*
Y13516D01*
Y13448D01*
Y13380D01*
Y13325D01*
X20230Y13317D01*
X20254Y13287D01*
X20273Y13253D01*
X20284Y13216D01*
X20288Y13177D01*
Y13110D01*
Y13042D01*
Y12974D01*
Y12919D01*
X20297Y12911D01*
X20322Y12881D01*
X20340Y12847D01*
X20351Y12810D01*
X20355Y12771D01*
Y12704D01*
Y12636D01*
Y12568D01*
Y12513D01*
X20365Y12505D01*
X20365Y12505D01*
X20365Y12505D01*
X20375Y12494D01*
X20390Y12475D01*
X20390Y12475D01*
X20390Y12475D01*
X20396Y12464D01*
X20408Y12441D01*
X20408Y12441D01*
X20408Y12441D01*
X20412Y12427D01*
X20419Y12404D01*
X20419Y12404D01*
X20419Y12404D01*
X20421Y12388D01*
X20423Y12366D01*
X20423Y12365D01*
X20423Y12365D01*
X20423Y12298D01*
Y12230D01*
Y12162D01*
Y12095D01*
Y12040D01*
X20433Y12032D01*
X20457Y12002D01*
X20475Y11968D01*
X20487Y11930D01*
X20491Y11892D01*
Y11824D01*
Y11757D01*
Y11689D01*
Y11634D01*
X20500Y11626D01*
X20500Y11626D01*
X20500Y11626D01*
X20525Y11596D01*
X20536Y11575D01*
X20543Y11562D01*
X20543Y11562D01*
D01*
X20554Y11525D01*
X20557Y11497D01*
X20558Y11486D01*
Y11418D01*
Y11351D01*
Y11283D01*
Y11228D01*
X20568Y11220D01*
X20593Y11190D01*
X20611Y11156D01*
X20622Y11119D01*
X20626Y11080D01*
Y11012D01*
X20626Y10945D01*
Y10945D01*
Y10945D01*
X20626Y10877D01*
X20626Y10810D01*
X20626Y10754D01*
X20636Y10746D01*
X20636Y10746D01*
X20636Y10746D01*
X20660Y10717D01*
X20671Y10696D01*
X20678Y10682D01*
X20678Y10682D01*
D01*
X20690Y10645D01*
X20692Y10618D01*
X20694Y10607D01*
Y10539D01*
Y10471D01*
Y10404D01*
Y10349D01*
X20703Y10341D01*
X20703Y10341D01*
X20703Y10340D01*
X20728Y10311D01*
X20739Y10290D01*
X20746Y10276D01*
X20746Y10276D01*
D01*
X20757Y10239D01*
X20760Y10212D01*
X20761Y10201D01*
Y10133D01*
Y10065D01*
Y9998D01*
Y9943D01*
X20771Y9935D01*
X20796Y9905D01*
X20814Y9870D01*
X20825Y9833D01*
X20829Y9795D01*
X20829Y9727D01*
X20829Y9659D01*
Y9659D01*
Y9659D01*
Y9592D01*
Y9592D01*
Y9592D01*
X20829Y9524D01*
Y9469D01*
X20839Y9461D01*
X20863Y9431D01*
X20881Y9397D01*
X20893Y9360D01*
X20897Y9321D01*
Y9254D01*
Y9186D01*
Y9118D01*
Y9063D01*
X20906Y9055D01*
X20906Y9055D01*
X20906Y9055D01*
X20916Y9043D01*
X20931Y9025D01*
X20931Y9025D01*
X20931Y9025D01*
X20937Y9014D01*
X20949Y8991D01*
X20949Y8991D01*
X20949Y8991D01*
X20953Y8977D01*
X20960Y8954D01*
Y8954D01*
X20960Y8954D01*
X20962Y8938D01*
X20964Y8915D01*
Y8915D01*
Y8915D01*
X20964Y8848D01*
X20964Y8780D01*
Y8780D01*
Y8780D01*
Y8712D01*
Y8712D01*
Y8712D01*
X20964Y8657D01*
X20974Y8649D01*
X20998Y8619D01*
X21017Y8585D01*
X21028Y8548D01*
X21032Y8510D01*
X21032Y8442D01*
Y8442D01*
Y8442D01*
Y8374D01*
Y8307D01*
Y8307D01*
Y8307D01*
X21032Y8239D01*
Y8184D01*
X21042Y8176D01*
X21042Y8176D01*
X21042Y8176D01*
X21066Y8146D01*
X21077Y8125D01*
X21084Y8112D01*
X21084Y8111D01*
D01*
X21096Y8074D01*
X21098Y8047D01*
X21099Y8036D01*
Y8036D01*
Y8036D01*
X21099Y7968D01*
X21099Y7901D01*
Y7901D01*
Y7901D01*
Y7833D01*
Y7833D01*
Y7833D01*
X21099Y7765D01*
X21099Y7698D01*
Y7698D01*
Y7698D01*
X21098Y7686D01*
X21096Y7659D01*
X21084Y7622D01*
D01*
X21084Y7622D01*
X21077Y7609D01*
X21066Y7588D01*
X21042Y7558D01*
X21042Y7558D01*
X21042Y7558D01*
X21012Y7533D01*
X20991Y7522D01*
X20977Y7515D01*
X20977Y7515D01*
D01*
X20940Y7504D01*
X20913Y7501D01*
X20902Y7500D01*
X20902D01*
X20902D01*
X17451Y7500D01*
X17413Y7504D01*
X17376Y7515D01*
X17342Y7533D01*
X17312Y7558D01*
X17287Y7588D01*
X17269Y7622D01*
X17257Y7659D01*
X17254Y7698D01*
Y7765D01*
Y7833D01*
Y7888D01*
X17244Y7896D01*
X17219Y7926D01*
X17201Y7960D01*
X17190Y7997D01*
X17186Y8036D01*
Y8104D01*
Y8171D01*
Y8239D01*
Y8294D01*
X17176Y8302D01*
X17176Y8302D01*
X17176Y8302D01*
X17152Y8332D01*
X17141Y8353D01*
X17133Y8366D01*
X17133Y8366D01*
D01*
X17122Y8403D01*
X17120Y8430D01*
X17118Y8442D01*
Y8442D01*
Y8442D01*
Y8509D01*
Y8577D01*
Y8645D01*
Y8712D01*
Y8767D01*
X17109Y8776D01*
X17084Y8805D01*
X17066Y8840D01*
X17054Y8877D01*
X17051Y8915D01*
Y8983D01*
Y9051D01*
Y9118D01*
Y9173D01*
X17041Y9181D01*
X17016Y9211D01*
X16998Y9246D01*
X16987Y9283D01*
X16983Y9321D01*
Y9389D01*
Y9389D01*
Y9389D01*
X16983Y9456D01*
X16983Y9524D01*
Y9524D01*
Y9524D01*
Y9592D01*
Y9647D01*
X16973Y9655D01*
X16949Y9685D01*
X16930Y9719D01*
X16919Y9756D01*
X16915Y9795D01*
Y9862D01*
Y9930D01*
Y9998D01*
Y10053D01*
X16906Y10061D01*
X16906Y10061D01*
X16906Y10061D01*
X16881Y10091D01*
X16870Y10112D01*
X16863Y10125D01*
X16863Y10125D01*
D01*
X16852Y10162D01*
X16849Y10189D01*
X16848Y10201D01*
Y10201D01*
Y10201D01*
Y10268D01*
Y10336D01*
Y10404D01*
Y10459D01*
X16838Y10467D01*
X16838Y10467D01*
X16838Y10467D01*
X16814Y10497D01*
X16802Y10517D01*
X16795Y10531D01*
X16795Y10531D01*
D01*
X16784Y10568D01*
X16781Y10595D01*
X16780Y10607D01*
Y10607D01*
Y10607D01*
Y10674D01*
Y10674D01*
Y10674D01*
X16780Y10742D01*
X16780Y10809D01*
X16780Y10809D01*
X16780Y10810D01*
X16780Y10877D01*
Y10932D01*
X16770Y10940D01*
X16746Y10970D01*
X16728Y11004D01*
X16716Y11041D01*
X16713Y11080D01*
X16713Y11148D01*
Y11148D01*
Y11148D01*
Y11215D01*
Y11283D01*
Y11283D01*
Y11283D01*
X16713Y11338D01*
X16703Y11346D01*
X16678Y11376D01*
X16660Y11410D01*
X16649Y11447D01*
X16645Y11486D01*
Y11554D01*
Y11621D01*
Y11689D01*
Y11744D01*
X16635Y11752D01*
X16635Y11752D01*
X16635Y11752D01*
X16611Y11782D01*
X16599Y11803D01*
X16592Y11816D01*
X16592Y11816D01*
D01*
X16581Y11853D01*
X16578Y11881D01*
X16577Y11892D01*
Y11892D01*
Y11892D01*
X16577Y11960D01*
X16577Y12027D01*
Y12027D01*
Y12027D01*
X16577Y12095D01*
Y12162D01*
X16577Y12218D01*
X16567Y12226D01*
X16567Y12226D01*
X16567Y12226D01*
X16553Y12243D01*
X16543Y12256D01*
X16543Y12256D01*
X16543Y12256D01*
X16534Y12273D01*
X16525Y12290D01*
X16525Y12290D01*
X16525Y12290D01*
X16521Y12303D01*
X16517D01*
X16509Y12293D01*
X16479Y12269D01*
X16445Y12250D01*
X16408Y12239D01*
X16369Y12235D01*
X16179D01*
X16178Y12235D01*
X16171Y12226D01*
X16171Y12226D01*
X16171Y12226D01*
X16162Y12218D01*
X16141Y12201D01*
X16107Y12183D01*
X16107D01*
X16106Y12183D01*
X16084Y12176D01*
X16070Y12172D01*
X16070D01*
X16070Y12172D01*
X16050Y12170D01*
X16031Y12168D01*
X16031D01*
X16031D01*
X15840Y12168D01*
X15833Y12158D01*
X15802Y12133D01*
X15768Y12115D01*
X15731Y12104D01*
X15693Y12100D01*
X15435D01*
X15427Y12090D01*
X15397Y12066D01*
X15362Y12048D01*
X15325Y12036D01*
X15287Y12032D01*
X14826D01*
X14818Y12023D01*
X14818Y12023D01*
X14788Y11998D01*
X14753Y11980D01*
X14716Y11969D01*
X14678Y11965D01*
X12987D01*
X12987D01*
X12987D01*
X12975Y11966D01*
X12948Y11969D01*
X12911Y11980D01*
D01*
X12911Y11980D01*
X12897Y11987D01*
X12877Y11998D01*
X12847Y12023D01*
X12847Y12023D01*
X12847Y12023D01*
X12839Y12032D01*
X12581D01*
X12581D01*
X12581D01*
X12569Y12033D01*
X12542Y12036D01*
X12505Y12048D01*
D01*
X12505Y12048D01*
X12491Y12055D01*
X12471Y12066D01*
X12441Y12090D01*
X12441Y12090D01*
X12441Y12090D01*
X12433Y12100D01*
X12378D01*
X12339Y12104D01*
X12302Y12115D01*
X12268Y12133D01*
X12238Y12158D01*
X12230Y12168D01*
X12175Y12168D01*
D01*
D01*
X12175D01*
X12171Y12168D01*
X12136Y12172D01*
X12110Y12179D01*
X12099Y12183D01*
X12087Y12189D01*
X12065Y12201D01*
X12035Y12226D01*
Y12226D01*
X12035D01*
X12027Y12235D01*
X11972D01*
X11933Y12239D01*
X11896Y12250D01*
X11862Y12269D01*
X11832Y12293D01*
X11823Y12304D01*
X11798Y12307D01*
X11787Y12310D01*
X11761Y12318D01*
X11727Y12336D01*
X11697Y12361D01*
Y12361D01*
X11697D01*
X11672Y12391D01*
X11667Y12399D01*
X11659Y12404D01*
X11629Y12428D01*
X11629Y12428D01*
X11629Y12429D01*
X11620Y12440D01*
X11595Y12442D01*
X11558Y12453D01*
D01*
X11558Y12453D01*
X11545Y12461D01*
X11524Y12472D01*
X11494Y12496D01*
X11494Y12496D01*
X11494Y12496D01*
X11469Y12526D01*
X11465Y12535D01*
X11456Y12539D01*
X11426Y12564D01*
X11426Y12564D01*
X11426Y12564D01*
X11417Y12575D01*
X11408Y12576D01*
X11392Y12577D01*
X11392Y12577D01*
X11392D01*
X11369Y12585D01*
X11355Y12589D01*
X11355Y12589D01*
X11355Y12589D01*
X11332Y12601D01*
X11321Y12607D01*
X11321Y12607D01*
X11321Y12607D01*
X11303Y12622D01*
X11291Y12631D01*
X11291Y12631D01*
X11291Y12631D01*
X11281Y12643D01*
X11266Y12662D01*
X11266Y12662D01*
X11266Y12662D01*
X11262Y12670D01*
X11253Y12675D01*
X11253Y12675D01*
X11253Y12675D01*
X11235Y12689D01*
X11223Y12699D01*
X11223Y12699D01*
X11223Y12699D01*
X11213Y12711D01*
X11199Y12729D01*
X11198Y12729D01*
X11198Y12729D01*
X11194Y12738D01*
X11186Y12742D01*
X11156Y12767D01*
X11131Y12797D01*
X11126Y12805D01*
X11118Y12810D01*
X11088Y12834D01*
X11063Y12865D01*
X11059Y12873D01*
X11050Y12878D01*
X11020Y12902D01*
X10996Y12932D01*
X10991Y12941D01*
X10983Y12945D01*
X10953Y12970D01*
X10928Y13000D01*
X10923Y13008D01*
X10915Y13013D01*
X10885Y13037D01*
X10860Y13067D01*
X10856Y13076D01*
X10847Y13081D01*
X10817Y13105D01*
X10793Y13135D01*
X10788Y13144D01*
X10780Y13148D01*
X10750Y13173D01*
X10725Y13203D01*
X10707Y13237D01*
X10695Y13274D01*
X10693Y13299D01*
X10682Y13308D01*
X10657Y13338D01*
X10653Y13347D01*
X10644Y13351D01*
X10614Y13376D01*
X10590Y13406D01*
X10571Y13440D01*
X10560Y13477D01*
X10558Y13502D01*
X10547Y13511D01*
X10547Y13511D01*
X10547Y13511D01*
X10522Y13541D01*
X10517Y13550D01*
X10509Y13554D01*
X10479Y13579D01*
X10454Y13609D01*
X10436Y13643D01*
X10425Y13680D01*
X10422Y13705D01*
X10411Y13714D01*
X10411Y13714D01*
X10411Y13714D01*
X10387Y13744D01*
X10376Y13765D01*
X10368Y13778D01*
X10368Y13778D01*
Y13778D01*
X10357Y13815D01*
X10355Y13840D01*
X10344Y13849D01*
X10344Y13849D01*
X10344Y13849D01*
X10334Y13861D01*
X10319Y13879D01*
X10319Y13879D01*
X10319Y13879D01*
X10313Y13890D01*
X10301Y13913D01*
X10301Y13913D01*
X10301Y13913D01*
X10297Y13927D01*
X10289Y13950D01*
Y13950D01*
X10289Y13950D01*
X10288Y13966D01*
X10287Y13975D01*
X10276Y13984D01*
X10276Y13984D01*
X10276Y13984D01*
X10251Y14015D01*
X10240Y14035D01*
X10233Y14049D01*
X10233Y14049D01*
D01*
X10222Y14086D01*
X10219Y14111D01*
X10208Y14120D01*
X10184Y14150D01*
X10165Y14184D01*
X10154Y14221D01*
X10150Y14260D01*
Y14315D01*
X10141Y14323D01*
X10141Y14323D01*
X10141Y14323D01*
X10116Y14353D01*
X10105Y14374D01*
X10098Y14387D01*
X10098Y14387D01*
D01*
X10087Y14424D01*
X10084Y14451D01*
X10083Y14463D01*
X10083Y14518D01*
X10073Y14526D01*
X10073Y14526D01*
X10073Y14526D01*
X10048Y14556D01*
X10037Y14577D01*
X10030Y14590D01*
X10030Y14590D01*
D01*
X10019Y14627D01*
X10016Y14654D01*
X10015Y14666D01*
Y14666D01*
Y14666D01*
X10015Y14721D01*
X10005Y14729D01*
X9981Y14759D01*
X9962Y14793D01*
X9951Y14830D01*
X9947Y14868D01*
Y14924D01*
X9938Y14932D01*
X9913Y14962D01*
X9895Y14996D01*
X9884Y15033D01*
X9880Y15071D01*
Y15139D01*
Y15194D01*
X9870Y15202D01*
X9870Y15202D01*
X9870Y15202D01*
X9860Y15214D01*
X9845Y15232D01*
X9845Y15232D01*
X9845Y15232D01*
X9839Y15244D01*
X9827Y15266D01*
X9827Y15266D01*
X9827Y15267D01*
X9823Y15280D01*
X9816Y15303D01*
Y15304D01*
X9816Y15304D01*
X9814Y15319D01*
X9812Y15342D01*
Y15342D01*
Y15342D01*
X9812Y15410D01*
Y15465D01*
X9803Y15473D01*
X9803Y15473D01*
X9802Y15473D01*
X9793Y15485D01*
X9778Y15503D01*
X9778Y15503D01*
X9778Y15503D01*
X9772Y15514D01*
X9760Y15537D01*
X9760Y15537D01*
X9760Y15537D01*
X9755Y15551D01*
X9748Y15574D01*
X9748Y15574D01*
X9748Y15574D01*
X9747Y15590D01*
X9745Y15613D01*
X9745Y15613D01*
X9745Y15613D01*
X9745Y15680D01*
X9745Y15748D01*
Y15748D01*
Y15748D01*
Y15803D01*
X9735Y15811D01*
X9735Y15811D01*
X9735Y15811D01*
X9710Y15841D01*
X9699Y15862D01*
X9692Y15875D01*
X9692Y15875D01*
D01*
X9681Y15912D01*
X9678Y15939D01*
X9677Y15951D01*
X9677Y16019D01*
Y16019D01*
Y16019D01*
Y16086D01*
Y16086D01*
Y16086D01*
X9677Y16154D01*
X9677Y16221D01*
Y16221D01*
Y16221D01*
Y16289D01*
Y16344D01*
X9667Y16352D01*
X9643Y16382D01*
X9624Y16416D01*
X9613Y16454D01*
X9609Y16492D01*
Y16560D01*
Y16627D01*
Y16695D01*
Y16763D01*
Y16830D01*
Y16898D01*
X9609Y16966D01*
Y16966D01*
Y16966D01*
Y17033D01*
Y17033D01*
Y17033D01*
X9609Y17101D01*
Y17169D01*
Y17236D01*
Y17304D01*
Y17372D01*
Y17439D01*
Y17507D01*
Y17574D01*
Y17642D01*
Y17710D01*
X9609Y17777D01*
Y17777D01*
Y17777D01*
X9609Y17845D01*
Y17913D01*
Y17980D01*
Y18048D01*
Y18116D01*
Y18183D01*
X9613Y18222D01*
X9624Y18259D01*
X9643Y18293D01*
X9667Y18323D01*
X9677Y18331D01*
X9677Y18386D01*
X9677Y18454D01*
Y18454D01*
Y18454D01*
X9677Y18522D01*
X9681Y18560D01*
X9692Y18597D01*
X9710Y18632D01*
X9735Y18662D01*
X9745Y18669D01*
Y18724D01*
X9745Y18792D01*
Y18792D01*
Y18792D01*
X9746Y18809D01*
X9748Y18831D01*
X9748Y18831D01*
Y18831D01*
X9755Y18852D01*
X9760Y18868D01*
X9760Y18868D01*
X9760Y18868D01*
X9769Y18885D01*
X9778Y18902D01*
X9778Y18902D01*
X9778Y18902D01*
X9788Y18914D01*
X9802Y18932D01*
X9803Y18932D01*
X9803Y18932D01*
X9812Y18940D01*
Y18995D01*
X9813Y19007D01*
X9816Y19034D01*
X9827Y19071D01*
D01*
X9827Y19071D01*
X9834Y19084D01*
X9845Y19105D01*
X9870Y19135D01*
X9870Y19135D01*
X9870Y19135D01*
X9881Y19144D01*
X9884Y19169D01*
X9895Y19206D01*
D01*
X9895Y19206D01*
X9902Y19220D01*
X9913Y19240D01*
X9938Y19270D01*
X9938Y19270D01*
X9938Y19270D01*
X9949Y19279D01*
X9949Y19283D01*
X9951Y19304D01*
X9951Y19304D01*
Y19304D01*
X9958Y19325D01*
X9962Y19341D01*
X9963Y19342D01*
X9963Y19342D01*
X9972Y19359D01*
X9981Y19376D01*
X9981Y19376D01*
X9981Y19376D01*
X9991Y19388D01*
X10005Y19406D01*
X10005Y19406D01*
X10006Y19406D01*
X10017Y19415D01*
X10019Y19440D01*
X10030Y19477D01*
D01*
X10030Y19477D01*
X10037Y19490D01*
X10048Y19511D01*
X10073Y19541D01*
X10073Y19541D01*
X10073Y19541D01*
X10084Y19550D01*
X10087Y19575D01*
X10098Y19612D01*
X10116Y19646D01*
X10141Y19676D01*
X10171Y19701D01*
X10179Y19705D01*
X10184Y19714D01*
X10208Y19744D01*
X10208Y19744D01*
X10208Y19744D01*
X10219Y19753D01*
X10222Y19778D01*
X10233Y19815D01*
D01*
X10233Y19815D01*
X10240Y19828D01*
X10251Y19849D01*
X10276Y19879D01*
X10276Y19879D01*
X10276Y19879D01*
X10306Y19904D01*
X10315Y19908D01*
X10319Y19917D01*
X10319Y19917D01*
X10319Y19917D01*
X10334Y19935D01*
X10344Y19947D01*
X10344Y19947D01*
X10344Y19947D01*
X10356Y19957D01*
X10374Y19972D01*
X10374Y19972D01*
X10374Y19972D01*
X10382Y19976D01*
X10387Y19985D01*
X10411Y20015D01*
X10411Y20015D01*
X10411Y20015D01*
X10441Y20039D01*
X10450Y20044D01*
X10454Y20052D01*
X10479Y20082D01*
X10509Y20107D01*
X10518Y20111D01*
X10522Y20120D01*
X10547Y20150D01*
X10547Y20150D01*
X10547Y20150D01*
X10577Y20174D01*
X10585Y20179D01*
X10590Y20188D01*
X10614Y20218D01*
X10644Y20242D01*
X10653Y20247D01*
X10657Y20255D01*
X10682Y20285D01*
X10682Y20285D01*
X10682Y20285D01*
X10712Y20310D01*
X10720Y20314D01*
X10725Y20323D01*
X10750Y20353D01*
X10780Y20377D01*
X10787Y20381D01*
X10788Y20382D01*
X10793Y20390D01*
X10810Y20412D01*
X10817Y20420D01*
X10817Y20420D01*
X10817Y20420D01*
X10826Y20428D01*
X10847Y20445D01*
X10881Y20463D01*
X10881D01*
X10881Y20463D01*
X10910Y20472D01*
X10919Y20474D01*
X10919D01*
X10919Y20474D01*
X10942Y20477D01*
X10943Y20477D01*
X10949Y20483D01*
X10953Y20488D01*
X10983Y20513D01*
X10991Y20517D01*
X10996Y20526D01*
X11020Y20556D01*
X11050Y20580D01*
X11084Y20599D01*
X11121Y20610D01*
X11146Y20612D01*
X11155Y20623D01*
X11156Y20623D01*
X11156Y20623D01*
X11185Y20648D01*
X11206Y20659D01*
X11220Y20666D01*
X11220Y20666D01*
D01*
X11257Y20677D01*
X11282Y20680D01*
X11291Y20691D01*
X11291Y20691D01*
X11291Y20691D01*
X11306Y20703D01*
X11321Y20716D01*
X11321Y20716D01*
X11321Y20716D01*
X11348Y20730D01*
X11355Y20734D01*
X11355D01*
X11355Y20734D01*
X11374Y20740D01*
X11392Y20745D01*
X11392Y20745D01*
X11392D01*
X11404Y20746D01*
X11417Y20748D01*
X11426Y20759D01*
X11426D01*
Y20759D01*
X11456Y20783D01*
X11466Y20789D01*
X11490Y20801D01*
X11513Y20808D01*
X11527Y20813D01*
X11552Y20815D01*
X11561Y20826D01*
X11561D01*
Y20826D01*
X11591Y20851D01*
X11621Y20867D01*
X11626Y20869D01*
D01*
X11626Y20869D01*
X11663Y20880D01*
X11694Y20884D01*
X11701Y20884D01*
X11701D01*
X11701D01*
X11756D01*
X11764Y20894D01*
X11764Y20894D01*
X11764Y20894D01*
X11776Y20904D01*
X11794Y20919D01*
X11794Y20919D01*
X11794Y20919D01*
X11805Y20924D01*
X11828Y20937D01*
X11829Y20937D01*
X11829Y20937D01*
X11842Y20941D01*
X11866Y20948D01*
X11866D01*
X11866Y20948D01*
X11881Y20950D01*
X11904Y20952D01*
X11904D01*
X11904D01*
X11959D01*
X11967Y20962D01*
X11997Y20986D01*
X12031Y21004D01*
X12069Y21016D01*
X12107Y21020D01*
X12297D01*
X12306Y21029D01*
X12336Y21054D01*
X12370Y21072D01*
X12407Y21083D01*
X12445Y21087D01*
X12839D01*
X12847Y21097D01*
X12847Y21097D01*
X12847Y21097D01*
X12877Y21122D01*
X12898Y21133D01*
X12911Y21140D01*
X12911Y21140D01*
D01*
X12948Y21151D01*
X12975Y21154D01*
X12987Y21155D01*
X18804D01*
X18843Y21151D01*
D02*
G37*
G36*
X-7270Y17498D02*
X-7233Y17487D01*
X-7198Y17468D01*
X-7169Y17444D01*
X-7144Y17414D01*
X-7126Y17380D01*
X-7114Y17343D01*
X-7111Y17304D01*
Y17236D01*
Y17169D01*
Y17101D01*
Y17101D01*
Y17101D01*
X-7111Y17033D01*
Y16966D01*
X-7111Y16898D01*
Y16898D01*
Y16898D01*
Y16843D01*
X-7101Y16835D01*
X-7076Y16805D01*
X-7058Y16771D01*
X-7047Y16734D01*
X-7043Y16695D01*
Y16627D01*
Y16560D01*
X-7043Y16492D01*
Y16492D01*
Y16492D01*
Y16424D01*
Y16424D01*
Y16424D01*
X-7043Y16357D01*
Y16302D01*
X-7033Y16294D01*
X-7033Y16294D01*
X-7033Y16294D01*
X-7024Y16282D01*
X-7009Y16264D01*
X-7009Y16264D01*
X-7009Y16264D01*
X-7003Y16253D01*
X-6990Y16230D01*
X-6990Y16230D01*
X-6990Y16230D01*
X-6986Y16216D01*
X-6979Y16193D01*
Y16193D01*
X-6979Y16193D01*
X-6978Y16177D01*
X-6975Y16154D01*
X-6975Y16086D01*
X-6975Y16086D01*
X-6975Y16086D01*
X-6975Y16019D01*
X-6975Y15964D01*
X-6966Y15956D01*
X-6941Y15925D01*
X-6923Y15891D01*
X-6911Y15854D01*
X-6908Y15816D01*
Y15748D01*
Y15693D01*
X-6898Y15685D01*
X-6873Y15655D01*
X-6855Y15621D01*
X-6844Y15584D01*
X-6840Y15545D01*
Y15477D01*
Y15422D01*
X-6830Y15414D01*
X-6830Y15414D01*
X-6830Y15414D01*
X-6806Y15384D01*
X-6795Y15364D01*
X-6787Y15350D01*
X-6787Y15350D01*
D01*
X-6776Y15313D01*
X-6774Y15286D01*
X-6772Y15274D01*
X-6772Y15207D01*
Y15207D01*
Y15207D01*
X-6772Y15152D01*
X-6763Y15144D01*
X-6763Y15144D01*
X-6763Y15144D01*
X-6738Y15114D01*
X-6727Y15093D01*
X-6720Y15079D01*
X-6720Y15079D01*
D01*
X-6708Y15042D01*
X-6706Y15015D01*
X-6705Y15004D01*
Y14949D01*
X-6695Y14941D01*
X-6695Y14941D01*
X-6695Y14941D01*
X-6670Y14911D01*
X-6659Y14890D01*
X-6652Y14877D01*
X-6652Y14877D01*
Y14877D01*
X-6641Y14840D01*
X-6638Y14812D01*
X-6637Y14801D01*
X-6637Y14746D01*
X-6627Y14738D01*
X-6627Y14738D01*
X-6627Y14738D01*
X-6603Y14708D01*
X-6592Y14687D01*
X-6584Y14674D01*
X-6584Y14674D01*
Y14674D01*
X-6573Y14637D01*
X-6571Y14612D01*
X-6560Y14603D01*
X-6560Y14603D01*
X-6560Y14603D01*
X-6535Y14572D01*
X-6524Y14552D01*
X-6517Y14538D01*
X-6517Y14538D01*
D01*
X-6506Y14501D01*
X-6503Y14474D01*
X-6502Y14463D01*
X-6502Y14408D01*
X-6492Y14400D01*
X-6468Y14370D01*
X-6449Y14335D01*
X-6438Y14298D01*
X-6434Y14260D01*
Y14205D01*
X-6424Y14197D01*
X-6424Y14197D01*
X-6424Y14197D01*
X-6400Y14167D01*
X-6389Y14146D01*
X-6381Y14132D01*
X-6381Y14132D01*
D01*
X-6370Y14095D01*
X-6368Y14068D01*
X-6367Y14057D01*
Y14002D01*
X-6357Y13994D01*
X-6332Y13964D01*
X-6314Y13929D01*
X-6303Y13892D01*
X-6300Y13867D01*
X-6289Y13858D01*
X-6265Y13828D01*
X-6246Y13794D01*
X-6235Y13757D01*
X-6231Y13719D01*
Y13663D01*
X-6222Y13655D01*
X-6222Y13655D01*
X-6222Y13655D01*
X-6197Y13625D01*
X-6186Y13605D01*
X-6179Y13591D01*
X-6179Y13591D01*
D01*
X-6167Y13554D01*
X-6165Y13527D01*
X-6163Y13516D01*
X-6163Y13461D01*
X-6154Y13453D01*
X-6154Y13453D01*
X-6154Y13453D01*
X-6129Y13422D01*
X-6118Y13402D01*
X-6111Y13388D01*
X-6111Y13388D01*
D01*
X-6100Y13351D01*
X-6097Y13324D01*
X-6096Y13313D01*
X-6096Y13258D01*
X-6086Y13250D01*
X-6086Y13250D01*
X-6086Y13250D01*
X-6076Y13238D01*
X-6062Y13220D01*
X-6062Y13219D01*
X-6062Y13219D01*
X-6056Y13208D01*
X-6043Y13185D01*
X-6043Y13185D01*
X-6043Y13185D01*
X-6039Y13172D01*
X-6032Y13148D01*
Y13148D01*
X-6032Y13148D01*
X-6030Y13133D01*
X-6030Y13123D01*
X-6019Y13114D01*
X-6019Y13114D01*
X-6019Y13114D01*
X-5994Y13084D01*
X-5983Y13063D01*
X-5976Y13050D01*
X-5976Y13050D01*
D01*
X-5964Y13013D01*
X-5962Y12986D01*
X-5961Y12974D01*
Y12919D01*
X-5951Y12911D01*
X-5951Y12911D01*
X-5951Y12911D01*
X-5926Y12881D01*
X-5915Y12860D01*
X-5908Y12847D01*
X-5908Y12847D01*
D01*
X-5897Y12810D01*
X-5894Y12783D01*
X-5893Y12771D01*
Y12771D01*
Y12771D01*
X-5893Y12716D01*
X-5883Y12708D01*
X-5859Y12678D01*
X-5840Y12644D01*
X-5829Y12607D01*
X-5825Y12568D01*
Y12513D01*
X-5816Y12505D01*
X-5816Y12505D01*
X-5816Y12505D01*
X-5806Y12494D01*
X-5791Y12475D01*
X-5791Y12475D01*
X-5791Y12475D01*
X-5785Y12464D01*
X-5773Y12441D01*
X-5773Y12441D01*
X-5773Y12441D01*
X-5768Y12427D01*
X-5761Y12404D01*
Y12404D01*
X-5761Y12404D01*
X-5760Y12388D01*
X-5758Y12365D01*
Y12310D01*
X-5748Y12302D01*
X-5723Y12272D01*
X-5705Y12238D01*
X-5694Y12201D01*
X-5691Y12176D01*
X-5680Y12167D01*
X-5656Y12137D01*
X-5637Y12103D01*
X-5626Y12066D01*
X-5622Y12027D01*
Y11972D01*
X-5613Y11964D01*
X-5613Y11964D01*
X-5613Y11964D01*
X-5603Y11952D01*
X-5588Y11934D01*
X-5588Y11934D01*
X-5588Y11934D01*
X-5582Y11923D01*
X-5570Y11900D01*
X-5570Y11900D01*
X-5570Y11900D01*
X-5566Y11886D01*
X-5559Y11863D01*
Y11863D01*
X-5559Y11863D01*
X-5557Y11847D01*
X-5555Y11824D01*
Y11769D01*
X-5545Y11761D01*
X-5545Y11761D01*
X-5545Y11761D01*
X-5520Y11731D01*
X-5509Y11710D01*
X-5502Y11697D01*
X-5502Y11697D01*
D01*
X-5491Y11660D01*
X-5488Y11633D01*
X-5487Y11621D01*
Y11621D01*
Y11621D01*
X-5487Y11566D01*
X-5477Y11558D01*
X-5453Y11528D01*
X-5434Y11494D01*
X-5423Y11457D01*
X-5421Y11432D01*
X-5410Y11423D01*
X-5410Y11423D01*
X-5410Y11423D01*
X-5385Y11393D01*
X-5374Y11372D01*
X-5367Y11359D01*
X-5367Y11359D01*
D01*
X-5356Y11322D01*
X-5353Y11294D01*
X-5352Y11283D01*
Y11283D01*
Y11283D01*
Y11228D01*
X-5342Y11220D01*
X-5342Y11220D01*
X-5342Y11220D01*
X-5317Y11190D01*
X-5306Y11169D01*
X-5299Y11156D01*
X-5299Y11156D01*
D01*
X-5288Y11119D01*
X-5285Y11091D01*
X-5284Y11080D01*
Y11080D01*
Y11080D01*
X-5284Y11025D01*
X-5274Y11017D01*
X-5250Y10987D01*
X-5232Y10953D01*
X-5220Y10916D01*
X-5216Y10877D01*
Y10822D01*
X-5207Y10814D01*
X-5207Y10814D01*
X-5207Y10814D01*
X-5197Y10802D01*
X-5182Y10784D01*
X-5182Y10784D01*
X-5182Y10784D01*
X-5176Y10773D01*
X-5164Y10750D01*
X-5164Y10750D01*
X-5164Y10750D01*
X-5160Y10736D01*
X-5153Y10713D01*
X-5153Y10713D01*
X-5153Y10713D01*
X-5151Y10697D01*
X-5150Y10688D01*
X-5139Y10679D01*
X-5128Y10665D01*
X-5125Y10662D01*
X-5115Y10665D01*
X-5076Y10669D01*
X-5021D01*
X-5013Y10679D01*
X-4983Y10703D01*
X-4974Y10708D01*
X-4970Y10717D01*
X-4945Y10746D01*
X-4945Y10746D01*
X-4945Y10746D01*
X-4915Y10771D01*
X-4907Y10776D01*
X-4902Y10784D01*
X-4878Y10814D01*
X-4878Y10814D01*
X-4878Y10814D01*
X-4848Y10839D01*
X-4839Y10843D01*
X-4835Y10852D01*
X-4810Y10882D01*
X-4810Y10882D01*
X-4810Y10882D01*
X-4800Y10890D01*
Y10945D01*
X-4796Y10983D01*
X-4785Y11021D01*
X-4767Y11055D01*
X-4742Y11085D01*
X-4733Y11093D01*
Y11148D01*
Y11215D01*
Y11283D01*
Y11351D01*
Y11418D01*
Y11486D01*
Y11554D01*
Y11621D01*
Y11689D01*
Y11757D01*
Y11824D01*
Y11892D01*
Y11960D01*
Y12027D01*
Y12027D01*
Y12027D01*
X-4733Y12095D01*
X-4733Y12162D01*
Y12162D01*
Y12162D01*
Y12230D01*
Y12298D01*
Y12298D01*
Y12298D01*
X-4733Y12365D01*
X-4733Y12433D01*
Y12433D01*
Y12433D01*
Y12501D01*
Y12568D01*
Y12568D01*
Y12569D01*
X-4732Y12580D01*
X-4729Y12607D01*
X-4718Y12644D01*
D01*
X-4718Y12644D01*
X-4710Y12658D01*
X-4699Y12678D01*
X-4675Y12708D01*
X-4675Y12708D01*
X-4675Y12708D01*
X-4665Y12716D01*
X-4665Y12771D01*
Y12771D01*
Y12772D01*
X-4665Y12839D01*
X-4665Y12907D01*
Y12907D01*
Y12907D01*
X-4665Y12974D01*
X-4665Y12974D01*
X-4665Y12974D01*
X-4665Y13042D01*
X-4665Y13110D01*
Y13110D01*
Y13110D01*
Y13177D01*
Y13245D01*
Y13313D01*
Y13380D01*
Y13448D01*
X-4665Y13516D01*
Y13516D01*
Y13516D01*
X-4665Y13583D01*
Y13651D01*
Y13719D01*
Y13786D01*
Y13786D01*
Y13786D01*
X-4665Y13854D01*
X-4665Y13921D01*
Y13921D01*
Y13921D01*
Y13989D01*
Y14057D01*
Y14124D01*
Y14192D01*
Y14260D01*
Y14327D01*
Y14395D01*
Y14395D01*
Y14395D01*
X-4665Y14463D01*
X-4665Y14530D01*
X-4665Y14530D01*
X-4665Y14530D01*
X-4665Y14598D01*
X-4665Y14665D01*
Y14666D01*
Y14666D01*
Y14733D01*
Y14801D01*
X-4665Y14868D01*
Y14869D01*
Y14869D01*
X-4665Y14936D01*
Y15004D01*
Y15071D01*
Y15139D01*
X-4665Y15207D01*
Y15207D01*
Y15207D01*
X-4665Y15274D01*
X-4664Y15286D01*
X-4661Y15313D01*
X-4650Y15350D01*
D01*
X-4650Y15350D01*
X-4643Y15364D01*
X-4632Y15384D01*
X-4607Y15414D01*
X-4607Y15414D01*
X-4607Y15414D01*
X-4597Y15422D01*
X-4597Y15477D01*
Y15477D01*
Y15477D01*
Y15545D01*
Y15545D01*
Y15545D01*
X-4597Y15613D01*
Y15680D01*
X-4597Y15748D01*
Y15748D01*
Y15748D01*
Y15816D01*
Y15816D01*
Y15816D01*
X-4597Y15883D01*
Y15951D01*
Y16018D01*
X-4597Y16086D01*
X-4597Y16086D01*
X-4597Y16086D01*
X-4597Y16154D01*
Y16221D01*
Y16289D01*
Y16357D01*
Y16424D01*
Y16492D01*
X-4597Y16560D01*
X-4597Y16560D01*
X-4597Y16560D01*
X-4597Y16627D01*
Y16695D01*
Y16763D01*
Y16830D01*
X-4597Y16898D01*
X-4597Y16898D01*
X-4597Y16898D01*
X-4597Y16966D01*
Y17033D01*
X-4597Y17101D01*
Y17101D01*
Y17101D01*
Y17169D01*
Y17236D01*
X-4594Y17275D01*
X-4582Y17312D01*
X-4564Y17346D01*
X-4539Y17376D01*
X-4509Y17401D01*
X-4475Y17419D01*
X-4438Y17430D01*
X-4400Y17434D01*
X-814D01*
X-776Y17430D01*
X-738Y17419D01*
X-704Y17401D01*
X-674Y17376D01*
X-650Y17346D01*
X-631Y17312D01*
X-620Y17275D01*
X-616Y17236D01*
Y17169D01*
Y17101D01*
Y17033D01*
Y16966D01*
Y16898D01*
Y16830D01*
Y16763D01*
Y16695D01*
Y16627D01*
X-620Y16589D01*
X-631Y16552D01*
X-650Y16518D01*
X-674Y16488D01*
X-684Y16480D01*
X-684Y16424D01*
Y16424D01*
Y16424D01*
Y16357D01*
Y16357D01*
Y16357D01*
X-684Y16289D01*
Y16222D01*
Y16154D01*
X-684Y16086D01*
Y16086D01*
Y16086D01*
Y16019D01*
Y15951D01*
Y15951D01*
Y15951D01*
X-684Y15883D01*
X-684Y15816D01*
Y15816D01*
Y15816D01*
Y15748D01*
Y15748D01*
Y15748D01*
X-684Y15680D01*
Y15613D01*
X-684Y15545D01*
Y15545D01*
Y15545D01*
X-685Y15534D01*
X-688Y15507D01*
X-699Y15469D01*
D01*
X-699Y15469D01*
X-706Y15456D01*
X-717Y15435D01*
X-742Y15405D01*
X-742Y15405D01*
X-742Y15405D01*
X-752Y15397D01*
Y15342D01*
Y15274D01*
Y15207D01*
Y15139D01*
Y15071D01*
Y15004D01*
Y14936D01*
Y14868D01*
Y14801D01*
Y14733D01*
Y14666D01*
Y14598D01*
Y14530D01*
X-755Y14492D01*
X-767Y14455D01*
X-785Y14420D01*
X-809Y14390D01*
X-819Y14382D01*
Y14327D01*
Y14327D01*
Y14327D01*
X-819Y14260D01*
X-819Y14192D01*
Y14192D01*
Y14192D01*
Y14124D01*
Y14124D01*
Y14124D01*
X-819Y14057D01*
X-819Y13989D01*
Y13989D01*
Y13989D01*
Y13921D01*
Y13854D01*
Y13786D01*
Y13719D01*
Y13651D01*
Y13651D01*
Y13651D01*
X-819Y13583D01*
X-819Y13516D01*
Y13516D01*
Y13516D01*
Y13448D01*
X-823Y13409D01*
X-834Y13372D01*
X-852Y13338D01*
X-877Y13308D01*
X-887Y13300D01*
Y13245D01*
Y13177D01*
Y13110D01*
Y13042D01*
Y12974D01*
Y12907D01*
X-887Y12839D01*
Y12839D01*
Y12839D01*
X-887Y12771D01*
Y12704D01*
Y12636D01*
Y12568D01*
Y12501D01*
Y12433D01*
Y12365D01*
X-891Y12327D01*
X-902Y12290D01*
X-920Y12256D01*
X-945Y12226D01*
X-955Y12218D01*
X-955Y12163D01*
Y12163D01*
Y12162D01*
Y12095D01*
Y12027D01*
Y11960D01*
Y11960D01*
Y11960D01*
X-955Y11892D01*
X-955Y11824D01*
X-955Y11824D01*
X-955Y11824D01*
X-955Y11757D01*
Y11689D01*
X-955Y11621D01*
X-955Y11621D01*
X-955Y11621D01*
X-955Y11554D01*
Y11486D01*
Y11418D01*
Y11418D01*
Y11418D01*
X-956Y11407D01*
X-958Y11380D01*
X-970Y11343D01*
D01*
X-970Y11343D01*
X-977Y11329D01*
X-988Y11309D01*
X-1012Y11278D01*
X-1012Y11278D01*
X-1012Y11278D01*
X-1022Y11270D01*
Y11215D01*
Y11148D01*
Y11080D01*
Y11012D01*
Y10945D01*
Y10945D01*
Y10945D01*
X-1022Y10877D01*
X-1022Y10810D01*
Y10810D01*
Y10809D01*
Y10742D01*
Y10674D01*
Y10607D01*
Y10539D01*
Y10471D01*
Y10404D01*
Y10404D01*
Y10404D01*
X-1022Y10336D01*
X-1023Y10325D01*
X-1026Y10297D01*
X-1037Y10260D01*
D01*
X-1037Y10260D01*
X-1044Y10247D01*
X-1056Y10226D01*
X-1080Y10196D01*
X-1080Y10196D01*
X-1080Y10196D01*
X-1090Y10188D01*
X-1090Y10133D01*
X-1090Y10065D01*
Y10065D01*
Y10065D01*
Y9998D01*
Y9998D01*
Y9998D01*
X-1090Y9930D01*
X-1090Y9862D01*
Y9862D01*
Y9862D01*
Y9795D01*
Y9795D01*
Y9795D01*
X-1091Y9783D01*
X-1094Y9756D01*
X-1105Y9719D01*
D01*
X-1105Y9719D01*
X-1112Y9706D01*
X-1123Y9685D01*
X-1148Y9655D01*
X-1148Y9655D01*
X-1148Y9655D01*
X-1157Y9647D01*
Y9592D01*
Y9524D01*
X-1158Y9513D01*
X-1161Y9486D01*
X-1173Y9448D01*
D01*
X-1173Y9448D01*
X-1180Y9435D01*
X-1191Y9414D01*
X-1215Y9384D01*
X-1215Y9384D01*
X-1215Y9384D01*
X-1225Y9376D01*
Y9321D01*
X-1229Y9283D01*
X-1240Y9246D01*
X-1258Y9211D01*
X-1283Y9181D01*
X-1293Y9173D01*
Y9118D01*
X-1297Y9080D01*
X-1308Y9043D01*
X-1326Y9008D01*
X-1351Y8978D01*
X-1362Y8969D01*
X-1362Y8966D01*
X-1364Y8945D01*
X-1364Y8944D01*
Y8944D01*
X-1371Y8924D01*
X-1375Y8907D01*
X-1375Y8907D01*
X-1375Y8907D01*
X-1385Y8890D01*
X-1394Y8873D01*
X-1394Y8873D01*
X-1394Y8873D01*
X-1404Y8861D01*
X-1418Y8843D01*
X-1418Y8843D01*
X-1418Y8843D01*
X-1429Y8834D01*
X-1432Y8809D01*
X-1443Y8772D01*
D01*
X-1443Y8772D01*
X-1450Y8759D01*
X-1461Y8738D01*
X-1486Y8708D01*
X-1486Y8708D01*
X-1486Y8708D01*
X-1516Y8683D01*
X-1524Y8679D01*
X-1529Y8670D01*
X-1529Y8670D01*
X-1529Y8670D01*
X-1544Y8652D01*
X-1554Y8640D01*
X-1554Y8640D01*
X-1554Y8640D01*
X-1565Y8631D01*
X-1566Y8622D01*
X-1567Y8606D01*
X-1567Y8606D01*
Y8606D01*
X-1574Y8583D01*
X-1578Y8569D01*
X-1578Y8569D01*
X-1578Y8569D01*
X-1591Y8546D01*
X-1597Y8535D01*
X-1597Y8535D01*
X-1597Y8535D01*
X-1612Y8517D01*
X-1621Y8505D01*
X-1621Y8505D01*
X-1621Y8505D01*
X-1633Y8495D01*
X-1651Y8480D01*
X-1651Y8480D01*
X-1651Y8480D01*
X-1660Y8476D01*
X-1664Y8467D01*
X-1689Y8437D01*
X-1689Y8437D01*
X-1689Y8437D01*
X-1719Y8413D01*
X-1727Y8408D01*
X-1732Y8399D01*
X-1757Y8370D01*
X-1787Y8345D01*
X-1795Y8340D01*
X-1800Y8332D01*
X-1824Y8302D01*
X-1824Y8302D01*
X-1824Y8302D01*
X-1835Y8293D01*
X-1837Y8280D01*
X-1838Y8268D01*
Y8268D01*
X-1838Y8268D01*
X-1843Y8250D01*
X-1849Y8231D01*
X-1849Y8231D01*
Y8231D01*
X-1853Y8224D01*
X-1867Y8197D01*
X-1867Y8197D01*
X-1867Y8197D01*
X-1880Y8181D01*
X-1892Y8167D01*
X-1892Y8167D01*
X-1892Y8167D01*
X-1907Y8154D01*
X-1922Y8142D01*
X-1922Y8142D01*
X-1922Y8142D01*
X-1949Y8128D01*
X-1956Y8124D01*
X-1956D01*
X-1956Y8124D01*
X-1975Y8118D01*
X-1993Y8112D01*
X-1993Y8112D01*
X-1993D01*
X-2005Y8111D01*
X-2018Y8110D01*
X-2027Y8099D01*
X-2027Y8099D01*
X-2027Y8099D01*
X-2057Y8074D01*
X-2066Y8070D01*
X-2070Y8061D01*
X-2095Y8031D01*
X-2125Y8007D01*
X-2133Y8002D01*
X-2138Y7994D01*
X-2162Y7964D01*
X-2162Y7964D01*
X-2162Y7964D01*
X-2193Y7939D01*
X-2213Y7928D01*
X-2227Y7921D01*
X-2227Y7921D01*
D01*
X-2264Y7909D01*
X-2289Y7907D01*
X-2298Y7896D01*
X-2298D01*
Y7896D01*
X-2328Y7871D01*
X-2362Y7853D01*
X-2388Y7845D01*
X-2399Y7842D01*
X-2424Y7839D01*
X-2433Y7828D01*
X-2433D01*
Y7828D01*
X-2463Y7804D01*
X-2497Y7785D01*
X-2523Y7778D01*
X-2534Y7774D01*
X-2559Y7772D01*
X-2561Y7770D01*
X-2568Y7761D01*
X-2598Y7736D01*
X-2633Y7718D01*
X-2670Y7707D01*
X-2695Y7704D01*
X-2704Y7693D01*
X-2734Y7668D01*
X-2768Y7650D01*
X-2805Y7639D01*
X-2843Y7635D01*
X-2899D01*
X-2907Y7625D01*
X-2907Y7625D01*
X-2907Y7625D01*
X-2937Y7601D01*
X-2957Y7590D01*
X-2971Y7583D01*
X-2971Y7583D01*
D01*
X-3008Y7571D01*
X-3035Y7569D01*
X-3046Y7568D01*
X-3169D01*
X-3177Y7558D01*
X-3207Y7533D01*
X-3241Y7515D01*
X-3278Y7504D01*
X-3317Y7500D01*
X-3711Y7500D01*
X-3718Y7490D01*
X-3748Y7465D01*
X-3783Y7447D01*
X-3820Y7436D01*
X-3858Y7432D01*
X-3878D01*
X-3867Y7398D01*
X-3865Y7373D01*
X-3860Y7369D01*
X-3854Y7364D01*
X-3854Y7364D01*
X-3854Y7364D01*
X-3849Y7358D01*
X-3829Y7334D01*
X-3811Y7300D01*
D01*
X-3811Y7300D01*
X-3808Y7289D01*
X-3800Y7263D01*
X-3797Y7238D01*
X-3791Y7233D01*
X-3786Y7229D01*
X-3762Y7199D01*
X-3743Y7164D01*
X-3732Y7127D01*
X-3729Y7102D01*
X-3718Y7093D01*
X-3694Y7063D01*
X-3689Y7055D01*
X-3681Y7050D01*
X-3651Y7026D01*
X-3651Y7026D01*
X-3651Y7026D01*
X-3626Y6996D01*
X-3615Y6975D01*
X-3608Y6961D01*
X-3608Y6961D01*
D01*
X-3597Y6924D01*
X-3594Y6899D01*
X-3583Y6890D01*
X-3583Y6890D01*
X-3583Y6890D01*
X-3559Y6860D01*
X-3554Y6852D01*
X-3545Y6847D01*
X-3515Y6823D01*
X-3515Y6823D01*
X-3515Y6823D01*
X-3491Y6793D01*
X-3480Y6772D01*
X-3473Y6759D01*
X-3473Y6759D01*
D01*
X-3461Y6722D01*
X-3459Y6696D01*
X-3448Y6688D01*
X-3448Y6688D01*
X-3448Y6687D01*
X-3423Y6657D01*
X-3419Y6649D01*
X-3410Y6644D01*
X-3380Y6620D01*
X-3380Y6620D01*
X-3380Y6620D01*
X-3356Y6590D01*
X-3351Y6581D01*
X-3342Y6577D01*
X-3312Y6552D01*
X-3288Y6522D01*
X-3270Y6488D01*
X-3258Y6451D01*
X-3256Y6426D01*
X-3250Y6421D01*
X-3245Y6417D01*
X-3220Y6387D01*
X-3216Y6378D01*
X-3207Y6374D01*
X-3177Y6349D01*
X-3177Y6349D01*
X-3177Y6349D01*
X-3153Y6319D01*
X-3148Y6311D01*
X-3140Y6306D01*
X-3110Y6282D01*
X-3110Y6282D01*
X-3110Y6282D01*
X-3085Y6252D01*
X-3080Y6243D01*
X-3072Y6239D01*
X-3042Y6214D01*
X-3042Y6214D01*
X-3042Y6214D01*
X-3017Y6184D01*
X-3013Y6175D01*
X-3004Y6171D01*
X-2974Y6146D01*
X-2974Y6146D01*
X-2974Y6146D01*
X-2950Y6116D01*
X-2945Y6108D01*
X-2937Y6103D01*
X-2907Y6079D01*
X-2882Y6049D01*
X-2877Y6040D01*
X-2869Y6036D01*
X-2869Y6036D01*
X-2869Y6036D01*
X-2851Y6021D01*
X-2839Y6011D01*
X-2839Y6011D01*
X-2839Y6011D01*
X-2829Y5999D01*
X-2814Y5981D01*
X-2814Y5981D01*
X-2814Y5981D01*
X-2810Y5972D01*
X-2801Y5968D01*
X-2801Y5968D01*
X-2801Y5968D01*
X-2783Y5953D01*
X-2771Y5943D01*
X-2771Y5943D01*
X-2771Y5943D01*
X-2762Y5931D01*
X-2747Y5913D01*
X-2747Y5913D01*
X-2747Y5913D01*
X-2742Y5905D01*
X-2734Y5900D01*
X-2704Y5876D01*
X-2704Y5876D01*
X-2704Y5876D01*
X-2679Y5846D01*
X-2675Y5837D01*
X-2666Y5833D01*
X-2636Y5808D01*
X-2636Y5808D01*
X-2636Y5808D01*
X-2611Y5778D01*
X-2607Y5770D01*
X-2598Y5765D01*
X-2568Y5740D01*
X-2568Y5740D01*
X-2568Y5740D01*
X-2544Y5710D01*
X-2539Y5702D01*
X-2531Y5697D01*
X-2501Y5673D01*
X-2492Y5662D01*
X-2467Y5659D01*
X-2430Y5648D01*
X-2395Y5630D01*
X-2365Y5605D01*
X-2341Y5575D01*
X-2336Y5567D01*
X-2328Y5562D01*
X-2298Y5537D01*
X-2273Y5507D01*
X-2269Y5499D01*
X-2260Y5494D01*
X-2230Y5470D01*
X-2230Y5470D01*
X-2230Y5470D01*
X-2221Y5459D01*
X-2196Y5456D01*
X-2185Y5453D01*
X-2159Y5445D01*
X-2125Y5427D01*
X-2095Y5402D01*
Y5402D01*
X-2095D01*
X-2070Y5372D01*
X-2066Y5364D01*
X-2057Y5359D01*
X-2027Y5334D01*
X-2018Y5323D01*
X-2009Y5322D01*
X-1993Y5321D01*
X-1993Y5321D01*
X-1993D01*
X-1970Y5314D01*
X-1956Y5310D01*
X-1956Y5310D01*
X-1956Y5310D01*
X-1933Y5297D01*
X-1922Y5291D01*
X-1922Y5291D01*
X-1922Y5291D01*
X-1904Y5277D01*
X-1892Y5267D01*
X-1892Y5267D01*
X-1892Y5267D01*
X-1882Y5255D01*
X-1867Y5237D01*
X-1867Y5237D01*
X-1867Y5237D01*
X-1863Y5228D01*
X-1854Y5224D01*
X-1824Y5199D01*
X-1815Y5188D01*
X-1790Y5186D01*
X-1753Y5174D01*
D01*
X-1753Y5174D01*
X-1740Y5167D01*
X-1719Y5156D01*
X-1689Y5131D01*
X-1689Y5131D01*
X-1689Y5131D01*
X-1680Y5120D01*
X-1655Y5118D01*
X-1618Y5107D01*
D01*
X-1618Y5107D01*
X-1604Y5099D01*
X-1584Y5088D01*
X-1554Y5064D01*
X-1554Y5064D01*
X-1554Y5064D01*
X-1544Y5053D01*
X-1520Y5050D01*
X-1483Y5039D01*
X-1448Y5021D01*
X-1418Y4996D01*
X-1394Y4966D01*
X-1389Y4958D01*
X-1381Y4953D01*
X-1351Y4929D01*
X-1342Y4918D01*
X-1317Y4915D01*
X-1305Y4912D01*
X-1280Y4904D01*
X-1245Y4885D01*
X-1215Y4861D01*
Y4861D01*
X-1215D01*
X-1206Y4850D01*
X-1181Y4847D01*
X-1144Y4836D01*
D01*
X-1144Y4836D01*
X-1131Y4829D01*
X-1110Y4818D01*
X-1080Y4793D01*
X-1080Y4793D01*
X-1080Y4793D01*
X-1071Y4782D01*
X-1046Y4780D01*
X-1009Y4769D01*
X-975Y4750D01*
X-945Y4726D01*
X-920Y4696D01*
X-916Y4687D01*
X-907Y4682D01*
X-877Y4658D01*
X-852Y4628D01*
X-834Y4594D01*
X-823Y4557D01*
X-819Y4518D01*
Y4450D01*
Y4450D01*
Y4450D01*
X-819Y4383D01*
Y4315D01*
Y4248D01*
Y4180D01*
X-819Y4112D01*
Y4112D01*
Y4112D01*
Y4045D01*
Y3977D01*
Y3909D01*
Y3842D01*
Y3774D01*
Y3774D01*
Y3774D01*
X-819Y3706D01*
X-819Y3639D01*
Y3639D01*
Y3639D01*
Y3571D01*
Y3503D01*
Y3436D01*
Y3368D01*
Y3300D01*
Y3300D01*
Y3300D01*
X-819Y3233D01*
X-819Y3165D01*
Y3165D01*
Y3165D01*
Y3097D01*
Y3030D01*
Y2962D01*
Y2895D01*
Y2827D01*
Y2759D01*
Y2692D01*
Y2692D01*
Y2692D01*
X-819Y2624D01*
X-819Y2556D01*
Y2556D01*
Y2556D01*
Y2489D01*
Y2489D01*
Y2489D01*
X-819Y2421D01*
X-819Y2353D01*
Y2353D01*
Y2353D01*
X-819Y2286D01*
X-819Y2218D01*
Y2218D01*
Y2218D01*
X-819Y2150D01*
X-821Y2135D01*
X-823Y2112D01*
X-823Y2112D01*
Y2112D01*
X-834Y2075D01*
X-848Y2049D01*
X-852Y2041D01*
X-852Y2040D01*
X-852Y2040D01*
X-864Y2027D01*
X-877Y2011D01*
X-877Y2011D01*
X-877Y2011D01*
X-893Y1997D01*
X-907Y1986D01*
X-907Y1986D01*
X-907Y1986D01*
X-916Y1981D01*
X-941Y1968D01*
X-978Y1956D01*
X-978D01*
X-978Y1956D01*
X-1002Y1954D01*
X-1017Y1953D01*
X-1491Y1953D01*
X-1491D01*
D01*
X-1529Y1956D01*
X-1566Y1968D01*
X-1600Y1986D01*
X-1625Y2006D01*
X-1630Y2010D01*
Y2011D01*
X-1630D01*
X-1635Y2016D01*
X-1638Y2020D01*
X-1964D01*
X-1964D01*
X-1964D01*
X-1976Y2021D01*
X-2003Y2024D01*
X-2040Y2035D01*
D01*
X-2040Y2035D01*
X-2053Y2042D01*
X-2074Y2053D01*
X-2104Y2078D01*
X-2104Y2078D01*
X-2104Y2078D01*
X-2112Y2088D01*
X-2235D01*
X-2235D01*
X-2235D01*
X-2250Y2089D01*
X-2273Y2092D01*
X-2273Y2092D01*
X-2273D01*
X-2310Y2103D01*
X-2336Y2117D01*
X-2345Y2121D01*
X-2345Y2121D01*
X-2345Y2121D01*
X-2358Y2132D01*
X-2375Y2146D01*
X-2375Y2146D01*
X-2375Y2146D01*
X-2382Y2156D01*
X-2505D01*
X-2528Y2158D01*
X-2544Y2159D01*
X-2544Y2159D01*
X-2544D01*
X-2567Y2166D01*
X-2581Y2170D01*
X-2581Y2170D01*
X-2581Y2170D01*
X-2604Y2183D01*
X-2615Y2189D01*
X-2615Y2189D01*
X-2615Y2189D01*
X-2633Y2204D01*
X-2645Y2213D01*
X-2645Y2213D01*
X-2645Y2213D01*
X-2653Y2223D01*
X-2708D01*
X-2747Y2227D01*
X-2784Y2238D01*
X-2802Y2248D01*
X-2818Y2256D01*
X-2848Y2281D01*
Y2281D01*
X-2848D01*
X-2856Y2291D01*
X-2911D01*
X-2911D01*
X-2911D01*
X-2919Y2292D01*
X-2950Y2295D01*
X-2987Y2306D01*
X-2987Y2306D01*
D01*
X-2991Y2308D01*
X-3021Y2324D01*
X-3051Y2349D01*
Y2349D01*
X-3051D01*
X-3059Y2358D01*
X-3114D01*
X-3114D01*
X-3114D01*
X-3137Y2361D01*
X-3153Y2362D01*
X-3153Y2362D01*
X-3153D01*
X-3176Y2369D01*
X-3190Y2373D01*
X-3190Y2373D01*
X-3190Y2373D01*
X-3213Y2386D01*
X-3224Y2392D01*
X-3224Y2392D01*
X-3224Y2392D01*
X-3242Y2407D01*
X-3254Y2416D01*
X-3254Y2416D01*
X-3254Y2416D01*
X-3263Y2427D01*
X-3288Y2430D01*
X-3325Y2441D01*
D01*
X-3325Y2441D01*
X-3339Y2448D01*
X-3359Y2459D01*
X-3389Y2484D01*
X-3389Y2484D01*
X-3389Y2484D01*
X-3398Y2495D01*
X-3423Y2497D01*
X-3435Y2501D01*
X-3460Y2509D01*
X-3495Y2527D01*
X-3525Y2552D01*
Y2552D01*
X-3525D01*
X-3533Y2561D01*
X-3588D01*
X-3626Y2565D01*
X-3663Y2576D01*
X-3698Y2595D01*
X-3728Y2619D01*
X-3737Y2630D01*
X-3738Y2630D01*
X-3762Y2633D01*
X-3762Y2633D01*
X-3762D01*
X-3770Y2635D01*
X-3799Y2644D01*
X-3799Y2644D01*
X-3799D01*
X-3802Y2646D01*
X-3833Y2662D01*
X-3863Y2687D01*
X-3863Y2687D01*
X-3863Y2687D01*
X-3887Y2717D01*
X-3892Y2726D01*
X-3901Y2730D01*
X-3931Y2755D01*
X-3931Y2755D01*
X-3931Y2755D01*
X-3940Y2766D01*
X-3965Y2768D01*
X-4002Y2779D01*
X-4036Y2798D01*
X-4066Y2822D01*
X-4075Y2833D01*
X-4100Y2836D01*
X-4137Y2847D01*
X-4171Y2865D01*
X-4201Y2890D01*
X-4226Y2920D01*
X-4230Y2928D01*
X-4239Y2933D01*
X-4269Y2958D01*
X-4269Y2958D01*
X-4269Y2958D01*
X-4278Y2969D01*
X-4303Y2971D01*
X-4340Y2982D01*
X-4374Y3001D01*
X-4404Y3025D01*
X-4429Y3055D01*
X-4433Y3064D01*
X-4442Y3068D01*
X-4466Y3088D01*
X-4472Y3093D01*
X-4472Y3093D01*
X-4472Y3093D01*
X-4477Y3099D01*
X-4481Y3104D01*
X-4506Y3106D01*
X-4543Y3118D01*
X-4577Y3136D01*
X-4607Y3161D01*
X-4632Y3190D01*
X-4636Y3199D01*
X-4645Y3204D01*
X-4675Y3228D01*
X-4675Y3228D01*
X-4675Y3228D01*
X-4684Y3239D01*
X-4709Y3242D01*
X-4720Y3245D01*
X-4746Y3253D01*
X-4780Y3271D01*
X-4810Y3296D01*
Y3296D01*
X-4810D01*
X-4835Y3326D01*
X-4839Y3334D01*
X-4848Y3339D01*
X-4878Y3363D01*
X-4878Y3363D01*
X-4878Y3364D01*
X-4902Y3393D01*
X-4907Y3402D01*
X-4915Y3407D01*
X-4915Y3407D01*
X-4915Y3407D01*
X-4933Y3421D01*
X-4945Y3431D01*
X-4945Y3431D01*
X-4945Y3431D01*
X-4955Y3443D01*
X-4970Y3461D01*
X-4970Y3461D01*
X-4970Y3461D01*
X-4974Y3470D01*
X-4983Y3474D01*
X-5013Y3499D01*
X-5037Y3529D01*
X-5042Y3537D01*
X-5051Y3542D01*
X-5081Y3566D01*
X-5081Y3566D01*
X-5081Y3566D01*
X-5090Y3577D01*
X-5115Y3580D01*
X-5152Y3591D01*
X-5186Y3610D01*
X-5216Y3634D01*
X-5240Y3664D01*
X-5245Y3673D01*
X-5254Y3677D01*
X-5283Y3702D01*
X-5283Y3702D01*
X-5283Y3702D01*
X-5308Y3732D01*
X-5313Y3740D01*
X-5321Y3745D01*
X-5351Y3769D01*
X-5351Y3769D01*
X-5351Y3769D01*
X-5376Y3799D01*
X-5380Y3808D01*
X-5389Y3812D01*
X-5419Y3837D01*
X-5443Y3867D01*
X-5448Y3875D01*
X-5457Y3880D01*
X-5486Y3905D01*
X-5511Y3935D01*
X-5516Y3943D01*
X-5524Y3948D01*
X-5554Y3972D01*
X-5554Y3972D01*
X-5554Y3972D01*
X-5579Y4002D01*
X-5583Y4011D01*
X-5592Y4015D01*
X-5622Y4040D01*
X-5622Y4040D01*
X-5622Y4040D01*
X-5646Y4070D01*
X-5651Y4078D01*
X-5659Y4083D01*
X-5689Y4108D01*
X-5714Y4138D01*
X-5719Y4146D01*
X-5727Y4151D01*
X-5757Y4175D01*
X-5757Y4175D01*
X-5757Y4175D01*
X-5782Y4205D01*
X-5786Y4214D01*
X-5795Y4218D01*
X-5825Y4243D01*
X-5825Y4243D01*
X-5825Y4243D01*
X-5849Y4273D01*
X-5860Y4294D01*
X-5868Y4307D01*
X-5868Y4307D01*
D01*
X-5879Y4344D01*
X-5881Y4369D01*
X-5892Y4378D01*
X-5892Y4378D01*
X-5892Y4378D01*
X-5902Y4390D01*
X-5917Y4408D01*
X-5917Y4408D01*
X-5917Y4408D01*
X-5922Y4417D01*
X-5930Y4421D01*
X-5960Y4446D01*
X-5960Y4446D01*
X-5960Y4446D01*
X-5985Y4476D01*
X-5989Y4484D01*
X-5998Y4489D01*
X-6028Y4513D01*
X-6052Y4544D01*
X-6054Y4547D01*
X-6057Y4552D01*
X-6065Y4557D01*
X-6095Y4581D01*
X-6095Y4581D01*
X-6095Y4581D01*
X-6120Y4611D01*
X-6125Y4620D01*
X-6133Y4624D01*
X-6163Y4649D01*
X-6163Y4649D01*
X-6163Y4649D01*
X-6188Y4679D01*
X-6199Y4699D01*
X-6206Y4713D01*
X-6206Y4713D01*
D01*
X-6217Y4750D01*
X-6220Y4775D01*
X-6231Y4784D01*
X-6255Y4814D01*
X-6257Y4818D01*
X-6260Y4823D01*
X-6268Y4827D01*
X-6298Y4852D01*
X-6323Y4882D01*
X-6327Y4890D01*
X-6336Y4895D01*
X-6366Y4919D01*
X-6391Y4949D01*
X-6409Y4984D01*
X-6420Y5021D01*
X-6423Y5046D01*
X-6434Y5055D01*
X-6458Y5085D01*
X-6463Y5093D01*
X-6471Y5098D01*
X-6501Y5122D01*
X-6526Y5152D01*
X-6530Y5161D01*
X-6539Y5165D01*
X-6569Y5190D01*
X-6593Y5220D01*
X-6612Y5254D01*
X-6623Y5291D01*
X-6624Y5301D01*
X-6625Y5316D01*
X-6637Y5325D01*
X-6637Y5325D01*
X-6637Y5325D01*
X-6661Y5355D01*
X-6666Y5364D01*
X-6674Y5368D01*
X-6704Y5393D01*
X-6729Y5423D01*
X-6747Y5457D01*
X-6758Y5494D01*
X-6761Y5519D01*
X-6772Y5528D01*
X-6796Y5558D01*
X-6815Y5592D01*
X-6826Y5630D01*
X-6827Y5643D01*
X-6828Y5655D01*
X-6840Y5664D01*
X-6864Y5694D01*
X-6864Y5694D01*
X-6869Y5702D01*
X-6877Y5707D01*
X-6877Y5707D01*
X-6877Y5707D01*
X-6895Y5722D01*
X-6907Y5731D01*
X-6907Y5731D01*
X-6907Y5731D01*
X-6917Y5743D01*
X-6932Y5761D01*
X-6932Y5761D01*
X-6932Y5761D01*
X-6938Y5772D01*
X-6950Y5795D01*
X-6950Y5795D01*
X-6950Y5795D01*
X-6954Y5809D01*
X-6961Y5832D01*
Y5833D01*
X-6961Y5833D01*
X-6963Y5848D01*
X-6964Y5858D01*
X-6975Y5866D01*
X-6999Y5897D01*
X-7018Y5931D01*
X-7029Y5968D01*
X-7031Y5993D01*
X-7042Y6002D01*
X-7067Y6032D01*
X-7072Y6040D01*
X-7080Y6045D01*
X-7080Y6045D01*
X-7080Y6045D01*
X-7092Y6055D01*
X-7110Y6069D01*
X-7110Y6069D01*
X-7110Y6069D01*
X-7125Y6087D01*
X-7135Y6099D01*
X-7135Y6099D01*
X-7135Y6100D01*
X-7144Y6116D01*
X-7153Y6134D01*
X-7153Y6134D01*
X-7153Y6134D01*
X-7158Y6150D01*
X-7164Y6171D01*
Y6171D01*
X-7164Y6171D01*
X-7166Y6192D01*
X-7167Y6196D01*
X-7178Y6205D01*
X-7202Y6235D01*
X-7221Y6269D01*
X-7232Y6306D01*
X-7232Y6306D01*
X-7234Y6331D01*
X-7245Y6340D01*
X-7245Y6340D01*
X-7245Y6340D01*
X-7255Y6352D01*
X-7270Y6370D01*
X-7270Y6370D01*
X-7270Y6370D01*
X-7276Y6381D01*
X-7288Y6404D01*
X-7288Y6404D01*
X-7288Y6404D01*
X-7292Y6418D01*
X-7299Y6441D01*
Y6441D01*
X-7299Y6441D01*
X-7301Y6457D01*
X-7302Y6466D01*
X-7313Y6475D01*
X-7313Y6475D01*
X-7313Y6475D01*
X-7323Y6487D01*
X-7338Y6505D01*
X-7338Y6505D01*
X-7338Y6505D01*
X-7344Y6517D01*
X-7356Y6539D01*
X-7356Y6540D01*
X-7356Y6540D01*
X-7360Y6553D01*
X-7367Y6577D01*
Y6577D01*
X-7367Y6577D01*
X-7369Y6593D01*
X-7370Y6602D01*
X-7381Y6611D01*
X-7381Y6611D01*
X-7381Y6611D01*
X-7405Y6641D01*
X-7416Y6661D01*
X-7423Y6675D01*
X-7423Y6675D01*
D01*
X-7435Y6712D01*
X-7437Y6737D01*
X-7448Y6746D01*
X-7473Y6776D01*
X-7491Y6810D01*
X-7502Y6847D01*
X-7505Y6872D01*
X-7516Y6881D01*
X-7516Y6881D01*
X-7516Y6881D01*
X-7541Y6911D01*
X-7552Y6932D01*
X-7559Y6945D01*
X-7559Y6945D01*
Y6945D01*
X-7570Y6983D01*
X-7572Y7007D01*
X-7584Y7017D01*
X-7584Y7017D01*
X-7584Y7017D01*
X-7608Y7047D01*
X-7619Y7067D01*
X-7626Y7081D01*
X-7626Y7081D01*
D01*
X-7638Y7118D01*
X-7640Y7143D01*
X-7651Y7152D01*
X-7651Y7152D01*
X-7651Y7152D01*
X-7661Y7164D01*
X-7676Y7182D01*
X-7676Y7182D01*
X-7676Y7182D01*
X-7682Y7193D01*
X-7694Y7216D01*
X-7694Y7216D01*
X-7694Y7216D01*
X-7698Y7230D01*
X-7705Y7253D01*
Y7253D01*
X-7705Y7253D01*
X-7707Y7269D01*
X-7708Y7278D01*
X-7719Y7287D01*
X-7719Y7287D01*
X-7719Y7287D01*
X-7744Y7317D01*
X-7755Y7338D01*
X-7762Y7351D01*
X-7762Y7351D01*
D01*
X-7773Y7389D01*
X-7776Y7416D01*
X-7777Y7427D01*
Y7482D01*
X-7786Y7490D01*
X-7786Y7490D01*
X-7786Y7490D01*
X-7796Y7502D01*
X-7811Y7520D01*
X-7811Y7520D01*
X-7811Y7520D01*
X-7817Y7531D01*
X-7829Y7554D01*
X-7829Y7554D01*
X-7829Y7554D01*
X-7834Y7568D01*
X-7841Y7591D01*
Y7591D01*
X-7841Y7591D01*
X-7842Y7607D01*
X-7843Y7616D01*
X-7854Y7625D01*
X-7879Y7655D01*
X-7897Y7690D01*
X-7908Y7727D01*
X-7912Y7765D01*
Y7820D01*
X-7922Y7828D01*
X-7922Y7828D01*
X-7922Y7828D01*
X-7947Y7858D01*
X-7958Y7879D01*
X-7965Y7892D01*
X-7965Y7892D01*
D01*
X-7976Y7930D01*
X-7978Y7955D01*
X-7989Y7964D01*
X-7989Y7964D01*
X-7989Y7964D01*
X-8014Y7994D01*
X-8025Y8014D01*
X-8032Y8028D01*
X-8032Y8028D01*
D01*
X-8044Y8065D01*
X-8046Y8092D01*
X-8048Y8104D01*
Y8104D01*
Y8104D01*
X-8047Y8159D01*
X-8057Y8167D01*
X-8082Y8197D01*
X-8100Y8231D01*
X-8111Y8268D01*
X-8112Y8280D01*
X-8114Y8293D01*
X-8125Y8302D01*
X-8149Y8332D01*
X-8168Y8366D01*
X-8179Y8403D01*
X-8181Y8428D01*
X-8192Y8437D01*
X-8192Y8437D01*
X-8192Y8437D01*
X-8207Y8455D01*
X-8217Y8467D01*
X-8217Y8467D01*
X-8217Y8467D01*
X-8226Y8484D01*
X-8235Y8501D01*
X-8235Y8501D01*
X-8235Y8501D01*
X-8240Y8518D01*
X-8247Y8539D01*
Y8539D01*
X-8247Y8539D01*
X-8249Y8560D01*
X-8250Y8577D01*
Y8577D01*
Y8577D01*
X-8250Y8632D01*
X-8260Y8640D01*
X-8260Y8640D01*
X-8260Y8640D01*
X-8285Y8670D01*
X-8296Y8691D01*
X-8303Y8704D01*
X-8303Y8704D01*
D01*
X-8314Y8742D01*
X-8317Y8769D01*
X-8318Y8780D01*
Y8835D01*
X-8328Y8843D01*
X-8352Y8873D01*
X-8371Y8907D01*
X-8382Y8944D01*
X-8384Y8969D01*
X-8395Y8978D01*
X-8395Y8978D01*
X-8395Y8978D01*
X-8420Y9008D01*
X-8431Y9029D01*
X-8438Y9043D01*
X-8438Y9043D01*
D01*
X-8450Y9080D01*
X-8452Y9107D01*
X-8453Y9118D01*
X-8453Y9173D01*
X-8463Y9181D01*
X-8488Y9211D01*
X-8506Y9246D01*
X-8517Y9283D01*
X-8520Y9308D01*
X-8531Y9317D01*
X-8555Y9347D01*
X-8574Y9381D01*
X-8585Y9418D01*
X-8587Y9443D01*
X-8598Y9452D01*
X-8623Y9482D01*
X-8641Y9516D01*
X-8653Y9553D01*
X-8656Y9592D01*
Y9647D01*
X-8666Y9655D01*
X-8691Y9685D01*
X-8709Y9719D01*
X-8720Y9756D01*
X-8723Y9781D01*
X-8734Y9790D01*
X-8734Y9790D01*
X-8734Y9790D01*
X-8758Y9820D01*
X-8769Y9841D01*
X-8777Y9854D01*
X-8777Y9854D01*
D01*
X-8788Y9892D01*
X-8790Y9919D01*
X-8792Y9930D01*
Y9930D01*
Y9930D01*
Y9985D01*
X-8801Y9993D01*
X-8826Y10023D01*
X-8844Y10057D01*
X-8855Y10095D01*
X-8858Y10119D01*
X-8869Y10129D01*
X-8869Y10129D01*
X-8869Y10129D01*
X-8894Y10159D01*
X-8905Y10179D01*
X-8912Y10193D01*
X-8912Y10193D01*
D01*
X-8923Y10230D01*
X-8926Y10257D01*
X-8927Y10268D01*
Y10323D01*
X-8937Y10331D01*
X-8937Y10331D01*
X-8937Y10331D01*
X-8961Y10361D01*
X-8972Y10382D01*
X-8980Y10396D01*
X-8980Y10396D01*
D01*
X-8991Y10433D01*
X-8993Y10458D01*
X-9004Y10467D01*
X-9004Y10467D01*
X-9004Y10467D01*
X-9029Y10497D01*
X-9040Y10517D01*
X-9047Y10531D01*
X-9047Y10531D01*
D01*
X-9058Y10568D01*
X-9061Y10595D01*
X-9062Y10607D01*
Y10607D01*
Y10607D01*
Y10662D01*
X-9072Y10670D01*
X-9097Y10700D01*
X-9115Y10734D01*
X-9126Y10771D01*
X-9128Y10796D01*
X-9139Y10805D01*
X-9140Y10805D01*
X-9140Y10805D01*
X-9164Y10835D01*
X-9175Y10856D01*
X-9182Y10869D01*
X-9182Y10869D01*
D01*
X-9194Y10906D01*
X-9196Y10933D01*
X-9198Y10945D01*
Y10945D01*
Y10945D01*
Y11000D01*
X-9207Y11008D01*
X-9232Y11038D01*
X-9250Y11072D01*
X-9261Y11109D01*
X-9264Y11134D01*
X-9275Y11143D01*
X-9275Y11143D01*
X-9275Y11143D01*
X-9300Y11173D01*
X-9311Y11194D01*
X-9318Y11207D01*
X-9318Y11207D01*
D01*
X-9329Y11244D01*
X-9332Y11272D01*
X-9333Y11283D01*
Y11283D01*
Y11283D01*
Y11338D01*
X-9342Y11346D01*
X-9367Y11376D01*
X-9385Y11410D01*
X-9397Y11447D01*
X-9399Y11472D01*
X-9410Y11481D01*
X-9435Y11511D01*
X-9453Y11546D01*
X-9464Y11583D01*
X-9468Y11621D01*
Y11676D01*
X-9478Y11684D01*
X-9502Y11714D01*
X-9521Y11749D01*
X-9532Y11786D01*
X-9534Y11811D01*
X-9540Y11815D01*
X-9545Y11820D01*
X-9570Y11850D01*
X-9588Y11884D01*
X-9600Y11921D01*
X-9603Y11960D01*
Y12015D01*
X-9613Y12023D01*
X-9638Y12053D01*
X-9656Y12087D01*
X-9667Y12124D01*
X-9670Y12149D01*
X-9681Y12158D01*
X-9681Y12158D01*
X-9681Y12158D01*
X-9705Y12188D01*
X-9717Y12209D01*
X-9724Y12222D01*
X-9724Y12222D01*
D01*
X-9735Y12259D01*
X-9738Y12286D01*
X-9739Y12298D01*
Y12353D01*
X-9748Y12361D01*
X-9773Y12391D01*
X-9791Y12425D01*
X-9803Y12462D01*
X-9805Y12487D01*
X-9812Y12493D01*
X-9816Y12496D01*
X-9841Y12526D01*
X-9859Y12560D01*
X-9870Y12597D01*
X-9874Y12636D01*
Y12691D01*
X-9884Y12699D01*
X-9884Y12699D01*
X-9884Y12699D01*
X-9908Y12729D01*
X-9919Y12750D01*
X-9927Y12763D01*
X-9927Y12763D01*
D01*
X-9938Y12800D01*
X-9940Y12825D01*
X-9951Y12834D01*
X-9951Y12834D01*
X-9951Y12834D01*
X-9976Y12865D01*
X-9987Y12885D01*
X-9994Y12899D01*
X-9994Y12899D01*
D01*
X-10006Y12936D01*
X-10008Y12963D01*
X-10009Y12974D01*
Y13029D01*
X-10019Y13037D01*
X-10019Y13037D01*
X-10019Y13037D01*
X-10044Y13067D01*
X-10055Y13088D01*
X-10062Y13102D01*
X-10062Y13102D01*
D01*
X-10073Y13139D01*
X-10076Y13164D01*
X-10087Y13173D01*
X-10111Y13203D01*
X-10130Y13237D01*
X-10141Y13274D01*
X-10145Y13313D01*
Y13368D01*
X-10154Y13376D01*
X-10179Y13406D01*
X-10197Y13440D01*
X-10208Y13477D01*
X-10211Y13502D01*
X-10222Y13511D01*
X-10222Y13511D01*
X-10222Y13511D01*
X-10247Y13541D01*
X-10258Y13562D01*
X-10265Y13575D01*
X-10265Y13575D01*
D01*
X-10276Y13612D01*
X-10279Y13640D01*
X-10280Y13651D01*
Y13706D01*
X-10290Y13714D01*
X-10314Y13744D01*
X-10333Y13778D01*
X-10344Y13815D01*
X-10346Y13840D01*
X-10357Y13849D01*
X-10357Y13849D01*
X-10357Y13849D01*
X-10382Y13879D01*
X-10393Y13900D01*
X-10400Y13913D01*
X-10400Y13913D01*
D01*
X-10411Y13950D01*
X-10414Y13978D01*
X-10415Y13989D01*
Y13989D01*
Y13989D01*
X-10415Y14044D01*
X-10425Y14052D01*
X-10449Y14082D01*
X-10468Y14116D01*
X-10479Y14153D01*
X-10483Y14192D01*
X-10483Y14247D01*
X-10492Y14255D01*
X-10492Y14255D01*
X-10492Y14255D01*
X-10517Y14285D01*
X-10528Y14306D01*
X-10535Y14319D01*
X-10535Y14319D01*
D01*
X-10547Y14356D01*
X-10549Y14384D01*
X-10550Y14395D01*
X-10550Y14450D01*
X-10560Y14458D01*
X-10585Y14488D01*
X-10603Y14522D01*
X-10614Y14559D01*
X-10618Y14598D01*
Y14665D01*
X-10618Y14721D01*
X-10628Y14729D01*
X-10652Y14759D01*
X-10671Y14793D01*
X-10682Y14830D01*
X-10686Y14869D01*
Y14924D01*
X-10695Y14932D01*
X-10695Y14932D01*
X-10696Y14932D01*
X-10705Y14943D01*
X-10720Y14962D01*
X-10720Y14962D01*
X-10720Y14962D01*
X-10726Y14973D01*
X-10738Y14996D01*
X-10738Y14996D01*
X-10738Y14996D01*
X-10743Y15010D01*
X-10750Y15033D01*
Y15033D01*
X-10750Y15033D01*
X-10751Y15049D01*
X-10753Y15071D01*
Y15139D01*
Y15207D01*
Y15262D01*
X-10763Y15270D01*
X-10763Y15270D01*
X-10763Y15270D01*
X-10788Y15300D01*
X-10799Y15321D01*
X-10806Y15334D01*
X-10806Y15334D01*
D01*
X-10817Y15371D01*
X-10820Y15398D01*
X-10821Y15410D01*
Y15410D01*
Y15410D01*
X-10821Y15477D01*
Y15545D01*
Y15613D01*
X-10821Y15668D01*
X-10831Y15676D01*
X-10855Y15706D01*
X-10874Y15740D01*
X-10885Y15777D01*
X-10889Y15816D01*
Y15883D01*
Y15951D01*
Y15951D01*
Y15951D01*
X-10889Y16019D01*
X-10889Y16086D01*
Y16086D01*
Y16086D01*
Y16154D01*
Y16221D01*
Y16222D01*
Y16222D01*
X-10889Y16289D01*
Y16357D01*
X-10889Y16424D01*
Y16424D01*
Y16424D01*
Y16492D01*
Y16492D01*
Y16492D01*
X-10889Y16560D01*
Y16627D01*
X-10889Y16695D01*
Y16695D01*
Y16695D01*
Y16763D01*
Y16830D01*
Y16898D01*
Y16966D01*
Y17033D01*
Y17101D01*
Y17169D01*
Y17236D01*
Y17236D01*
Y17236D01*
X-10888Y17248D01*
X-10885Y17275D01*
X-10874Y17312D01*
D01*
X-10874Y17312D01*
X-10866Y17325D01*
X-10855Y17346D01*
X-10831Y17376D01*
X-10831Y17376D01*
X-10831Y17376D01*
X-10801Y17401D01*
X-10792Y17405D01*
X-10788Y17414D01*
X-10763Y17444D01*
X-10763Y17444D01*
X-10763Y17444D01*
X-10733Y17468D01*
X-10712Y17480D01*
X-10699Y17487D01*
X-10699Y17487D01*
D01*
X-10662Y17498D01*
X-10635Y17501D01*
X-10623Y17502D01*
X-10623D01*
X-10623D01*
X-7308D01*
X-7270Y17498D01*
D02*
G37*
G36*
X7951Y22030D02*
X7988Y22019D01*
X8023Y22001D01*
X8053Y21976D01*
X8077Y21946D01*
X8096Y21912D01*
X8107Y21875D01*
X8111Y21836D01*
Y21781D01*
X8120Y21773D01*
X8145Y21744D01*
X8163Y21709D01*
X8174Y21672D01*
X8178Y21634D01*
Y21566D01*
Y21498D01*
Y21431D01*
Y21375D01*
X8188Y21368D01*
X8213Y21338D01*
X8231Y21303D01*
X8242Y21266D01*
X8246Y21228D01*
Y21160D01*
Y21092D01*
Y21025D01*
Y20957D01*
Y20902D01*
X8256Y20894D01*
X8280Y20864D01*
X8298Y20830D01*
X8310Y20793D01*
X8314Y20754D01*
Y20686D01*
Y20619D01*
Y20551D01*
Y20496D01*
X8323Y20488D01*
X8348Y20458D01*
X8366Y20424D01*
X8377Y20387D01*
X8381Y20348D01*
Y20280D01*
Y20213D01*
Y20145D01*
Y20090D01*
X8391Y20082D01*
X8416Y20052D01*
X8434Y20018D01*
X8445Y19981D01*
X8449Y19942D01*
X8449Y19875D01*
Y19875D01*
Y19875D01*
Y19807D01*
Y19807D01*
Y19807D01*
X8449Y19739D01*
Y19684D01*
X8459Y19676D01*
X8459Y19676D01*
X8459Y19676D01*
X8483Y19646D01*
X8494Y19626D01*
X8501Y19612D01*
X8501Y19612D01*
Y19612D01*
X8513Y19575D01*
X8515Y19548D01*
X8517Y19536D01*
Y19536D01*
Y19536D01*
X8517Y19469D01*
Y19401D01*
Y19333D01*
X8517Y19266D01*
Y19266D01*
Y19266D01*
Y19211D01*
X8526Y19203D01*
X8526Y19203D01*
X8526Y19203D01*
X8551Y19173D01*
X8562Y19152D01*
X8569Y19139D01*
X8569Y19139D01*
D01*
X8580Y19101D01*
X8583Y19074D01*
X8584Y19063D01*
X8584Y18995D01*
Y18995D01*
Y18995D01*
X8584Y18928D01*
X8584Y18860D01*
Y18860D01*
Y18860D01*
Y18805D01*
X8594Y18797D01*
X8619Y18767D01*
X8637Y18733D01*
X8648Y18696D01*
X8652Y18657D01*
Y18589D01*
Y18522D01*
Y18454D01*
Y18399D01*
X8662Y18391D01*
X8662Y18391D01*
X8662Y18391D01*
X8686Y18361D01*
X8697Y18340D01*
X8704Y18327D01*
X8704Y18327D01*
D01*
X8716Y18290D01*
X8718Y18262D01*
X8720Y18251D01*
Y18183D01*
X8720Y18116D01*
Y18116D01*
Y18116D01*
X8720Y18048D01*
X8720Y17980D01*
Y17980D01*
Y17980D01*
Y17925D01*
X8729Y17917D01*
X8754Y17887D01*
X8772Y17853D01*
X8783Y17816D01*
X8787Y17777D01*
Y17710D01*
Y17642D01*
Y17574D01*
Y17519D01*
X8797Y17512D01*
X8797Y17512D01*
X8797Y17512D01*
X8821Y17481D01*
X8833Y17461D01*
X8840Y17447D01*
X8840Y17447D01*
D01*
X8851Y17410D01*
X8854Y17383D01*
X8855Y17372D01*
Y17372D01*
Y17372D01*
Y17304D01*
Y17236D01*
Y17169D01*
Y17114D01*
X8864Y17106D01*
X8864Y17106D01*
X8864Y17106D01*
X8889Y17076D01*
X8900Y17055D01*
X8907Y17041D01*
X8907Y17041D01*
D01*
X8919Y17004D01*
X8921Y16977D01*
X8922Y16966D01*
Y16898D01*
Y16898D01*
Y16898D01*
X8922Y16830D01*
Y16763D01*
X8922Y16695D01*
Y16695D01*
Y16695D01*
X8922Y16640D01*
X8932Y16632D01*
X8932Y16632D01*
X8932Y16632D01*
X8957Y16602D01*
X8968Y16581D01*
X8975Y16568D01*
X8975Y16568D01*
Y16568D01*
X8986Y16531D01*
X8989Y16503D01*
X8990Y16492D01*
Y16492D01*
Y16492D01*
X8990Y16424D01*
Y16357D01*
Y16289D01*
Y16234D01*
X9000Y16226D01*
X9024Y16196D01*
X9043Y16162D01*
X9054Y16125D01*
X9058Y16086D01*
Y16019D01*
Y15951D01*
Y15883D01*
Y15828D01*
X9067Y15820D01*
X9092Y15790D01*
X9110Y15756D01*
X9122Y15719D01*
X9125Y15680D01*
Y15613D01*
X9125Y15545D01*
Y15545D01*
Y15545D01*
Y15477D01*
Y15477D01*
Y15477D01*
X9125Y15422D01*
X9135Y15414D01*
X9160Y15384D01*
X9178Y15350D01*
X9189Y15313D01*
X9193Y15274D01*
Y15207D01*
Y15139D01*
Y15071D01*
Y15004D01*
Y14949D01*
X9203Y14941D01*
X9203Y14941D01*
X9203Y14941D01*
X9227Y14911D01*
X9238Y14890D01*
X9246Y14877D01*
X9246Y14877D01*
D01*
X9257Y14840D01*
X9260Y14812D01*
X9261Y14801D01*
Y14733D01*
Y14666D01*
Y14598D01*
Y14543D01*
X9270Y14535D01*
X9270Y14535D01*
X9270Y14535D01*
X9295Y14505D01*
X9306Y14484D01*
X9313Y14471D01*
X9313Y14471D01*
D01*
X9324Y14434D01*
X9327Y14406D01*
X9328Y14395D01*
Y14395D01*
Y14395D01*
Y14327D01*
Y14260D01*
Y14192D01*
Y14137D01*
X9338Y14129D01*
X9338Y14129D01*
X9338Y14129D01*
X9363Y14099D01*
X9374Y14078D01*
X9381Y14065D01*
X9381Y14065D01*
D01*
X9392Y14028D01*
X9395Y14001D01*
X9396Y13989D01*
Y13921D01*
Y13854D01*
Y13786D01*
Y13719D01*
Y13663D01*
X9406Y13655D01*
X9406Y13655D01*
X9406Y13655D01*
X9430Y13625D01*
X9441Y13605D01*
X9449Y13591D01*
X9449Y13591D01*
D01*
X9460Y13554D01*
X9463Y13527D01*
X9464Y13516D01*
Y13516D01*
Y13516D01*
X9464Y13448D01*
Y13380D01*
Y13313D01*
X9464Y13258D01*
X9473Y13250D01*
X9498Y13219D01*
X9516Y13185D01*
X9527Y13148D01*
X9531Y13110D01*
Y13042D01*
Y13042D01*
Y13042D01*
X9531Y12974D01*
X9531Y12907D01*
Y12907D01*
Y12907D01*
X9531Y12852D01*
X9541Y12844D01*
X9541Y12844D01*
X9541Y12844D01*
X9566Y12814D01*
X9577Y12793D01*
X9584Y12779D01*
X9584Y12779D01*
D01*
X9595Y12742D01*
X9598Y12715D01*
X9599Y12704D01*
Y12704D01*
Y12704D01*
Y12636D01*
Y12568D01*
Y12501D01*
Y12433D01*
Y12378D01*
X9609Y12370D01*
X9609Y12370D01*
X9609Y12370D01*
X9633Y12340D01*
X9644Y12319D01*
X9651Y12306D01*
X9651Y12306D01*
D01*
X9663Y12269D01*
X9665Y12242D01*
X9667Y12230D01*
X9667Y12163D01*
Y12162D01*
Y12162D01*
X9667Y12095D01*
X9667Y12027D01*
Y12027D01*
Y12027D01*
X9667Y11972D01*
X9676Y11964D01*
X9701Y11934D01*
X9719Y11900D01*
X9730Y11863D01*
X9734Y11824D01*
Y11757D01*
Y11689D01*
Y11621D01*
Y11566D01*
X9744Y11558D01*
X9744Y11558D01*
X9744Y11558D01*
X9769Y11528D01*
X9780Y11507D01*
X9787Y11494D01*
X9787Y11494D01*
D01*
X9798Y11457D01*
X9801Y11430D01*
X9802Y11418D01*
Y11351D01*
Y11351D01*
Y11351D01*
X9802Y11283D01*
Y11215D01*
Y11148D01*
Y11093D01*
X9812Y11085D01*
X9812Y11085D01*
X9812Y11085D01*
X9836Y11055D01*
X9847Y11034D01*
X9854Y11021D01*
X9854Y11021D01*
D01*
X9866Y10983D01*
X9868Y10956D01*
X9870Y10945D01*
Y10877D01*
Y10809D01*
Y10742D01*
Y10687D01*
X9879Y10679D01*
X9879Y10679D01*
X9879Y10679D01*
X9904Y10649D01*
X9915Y10628D01*
X9922Y10615D01*
X9922Y10615D01*
D01*
X9933Y10577D01*
X9936Y10550D01*
X9937Y10539D01*
Y10539D01*
Y10539D01*
X9937Y10471D01*
Y10404D01*
Y10336D01*
X9937Y10281D01*
X9947Y10273D01*
X9947Y10273D01*
X9947Y10273D01*
X9957Y10261D01*
X9972Y10243D01*
X9972Y10243D01*
X9972Y10243D01*
X9978Y10232D01*
X9990Y10209D01*
X9990Y10209D01*
X9990Y10209D01*
X9994Y10195D01*
X10001Y10172D01*
Y10172D01*
X10001Y10172D01*
X10003Y10156D01*
X10005Y10133D01*
Y10133D01*
Y10133D01*
Y10065D01*
Y10065D01*
Y10065D01*
X10005Y9998D01*
X10005Y9930D01*
Y9930D01*
Y9930D01*
Y9875D01*
X10014Y9867D01*
X10039Y9837D01*
X10057Y9803D01*
X10069Y9766D01*
X10073Y9727D01*
Y9659D01*
Y9592D01*
Y9524D01*
Y9456D01*
Y9456D01*
Y9456D01*
X10073Y9401D01*
X10082Y9393D01*
X10107Y9364D01*
X10125Y9329D01*
X10136Y9292D01*
X10140Y9254D01*
Y9186D01*
Y9118D01*
Y9063D01*
X10150Y9055D01*
X10150Y9055D01*
X10150Y9055D01*
X10159Y9043D01*
X10174Y9025D01*
X10174Y9025D01*
X10174Y9025D01*
X10180Y9014D01*
X10193Y8991D01*
X10193Y8991D01*
X10193Y8991D01*
X10197Y8977D01*
X10204Y8954D01*
Y8954D01*
X10204Y8954D01*
X10205Y8938D01*
X10208Y8915D01*
X10208Y8848D01*
Y8848D01*
Y8848D01*
Y8780D01*
Y8712D01*
Y8645D01*
Y8590D01*
X10217Y8582D01*
X10217Y8582D01*
X10217Y8582D01*
X10227Y8570D01*
X10242Y8552D01*
X10242Y8552D01*
X10242Y8552D01*
X10248Y8540D01*
X10260Y8518D01*
X10260Y8518D01*
X10260Y8518D01*
X10265Y8504D01*
X10272Y8480D01*
Y8480D01*
X10272Y8480D01*
X10273Y8465D01*
X10275Y8442D01*
Y8442D01*
Y8442D01*
Y8374D01*
Y8307D01*
Y8239D01*
Y8184D01*
X10285Y8176D01*
X10310Y8146D01*
X10328Y8112D01*
X10339Y8074D01*
X10343Y8036D01*
Y7968D01*
Y7968D01*
Y7968D01*
X10343Y7901D01*
X10343Y7833D01*
Y7833D01*
Y7833D01*
Y7765D01*
Y7765D01*
Y7765D01*
X10343Y7698D01*
X10342Y7686D01*
X10339Y7659D01*
X10328Y7622D01*
D01*
X10328Y7622D01*
X10321Y7609D01*
X10310Y7588D01*
X10285Y7558D01*
X10285Y7558D01*
X10285Y7558D01*
X10255Y7533D01*
X10234Y7522D01*
X10221Y7515D01*
X10221Y7515D01*
D01*
X10184Y7504D01*
X10157Y7501D01*
X10145Y7500D01*
X6695D01*
X6656Y7504D01*
X6619Y7515D01*
X6585Y7533D01*
X6555Y7558D01*
X6531Y7588D01*
X6512Y7622D01*
X6501Y7659D01*
X6497Y7698D01*
Y7765D01*
Y7820D01*
X6488Y7828D01*
X6463Y7858D01*
X6445Y7892D01*
X6434Y7930D01*
X6430Y7968D01*
Y8036D01*
Y8104D01*
Y8171D01*
Y8239D01*
Y8294D01*
X6420Y8302D01*
X6420Y8302D01*
X6420Y8302D01*
X6395Y8332D01*
X6384Y8353D01*
X6377Y8366D01*
X6377Y8366D01*
D01*
X6366Y8403D01*
X6363Y8430D01*
X6362Y8442D01*
Y8509D01*
Y8577D01*
Y8577D01*
Y8577D01*
X6362Y8645D01*
X6362Y8700D01*
X6352Y8708D01*
X6328Y8738D01*
X6309Y8772D01*
X6298Y8809D01*
X6294Y8848D01*
Y8915D01*
Y8983D01*
Y8983D01*
Y8983D01*
X6294Y9051D01*
X6294Y9106D01*
X6285Y9114D01*
X6260Y9144D01*
X6242Y9178D01*
X6230Y9215D01*
X6227Y9254D01*
Y9321D01*
Y9389D01*
X6227Y9456D01*
Y9456D01*
Y9456D01*
Y9512D01*
X6217Y9520D01*
X6217Y9520D01*
X6217Y9520D01*
X6207Y9532D01*
X6192Y9550D01*
X6192Y9550D01*
X6192Y9550D01*
X6186Y9561D01*
X6174Y9584D01*
X6174Y9584D01*
X6174Y9584D01*
X6170Y9598D01*
X6163Y9621D01*
Y9621D01*
X6163Y9621D01*
X6161Y9637D01*
X6159Y9659D01*
Y9659D01*
Y9660D01*
X6159Y9727D01*
X6159Y9795D01*
Y9795D01*
Y9795D01*
Y9862D01*
Y9918D01*
X6155Y9921D01*
X6149Y9926D01*
X6149Y9926D01*
X6149Y9926D01*
X6144Y9932D01*
X6125Y9956D01*
X6106Y9990D01*
D01*
X6106Y9990D01*
X6103Y10001D01*
X6095Y10027D01*
X6091Y10065D01*
Y10065D01*
D01*
D01*
X6091Y10133D01*
Y10201D01*
Y10268D01*
X6091Y10336D01*
Y10336D01*
Y10336D01*
Y10391D01*
X6082Y10399D01*
X6057Y10429D01*
X6039Y10463D01*
X6028Y10500D01*
X6024Y10539D01*
Y10607D01*
Y10674D01*
X6024Y10742D01*
Y10742D01*
Y10742D01*
X6024Y10797D01*
X6014Y10805D01*
X5990Y10835D01*
X5971Y10869D01*
X5960Y10906D01*
X5956Y10945D01*
Y11012D01*
X5956Y11080D01*
Y11080D01*
Y11080D01*
X5956Y11148D01*
Y11203D01*
X5946Y11211D01*
X5922Y11241D01*
X5903Y11275D01*
X5892Y11312D01*
X5889Y11351D01*
Y11418D01*
Y11486D01*
Y11554D01*
Y11621D01*
X5889Y11676D01*
X5879Y11684D01*
X5854Y11714D01*
X5836Y11749D01*
X5825Y11786D01*
X5821Y11824D01*
Y11892D01*
Y11960D01*
Y12027D01*
X5821Y12082D01*
X5811Y12090D01*
X5811Y12090D01*
X5811Y12090D01*
X5787Y12120D01*
X5775Y12141D01*
X5768Y12155D01*
X5768Y12155D01*
D01*
X5757Y12192D01*
X5754Y12219D01*
X5753Y12230D01*
Y12230D01*
Y12230D01*
Y12298D01*
Y12365D01*
Y12433D01*
Y12488D01*
X5743Y12496D01*
X5719Y12526D01*
X5701Y12560D01*
X5689Y12597D01*
X5686Y12636D01*
Y12704D01*
Y12771D01*
Y12771D01*
Y12771D01*
X5686Y12839D01*
X5686Y12907D01*
X5686Y12962D01*
X5676Y12970D01*
X5651Y13000D01*
X5633Y13034D01*
X5622Y13071D01*
X5618Y13110D01*
Y13177D01*
Y13245D01*
Y13313D01*
Y13368D01*
X5608Y13376D01*
X5584Y13406D01*
X5565Y13440D01*
X5554Y13477D01*
X5550Y13516D01*
Y13583D01*
Y13651D01*
Y13719D01*
Y13774D01*
X5540Y13782D01*
X5516Y13812D01*
X5498Y13846D01*
X5486Y13883D01*
X5483Y13921D01*
Y13989D01*
Y14057D01*
Y14112D01*
X5473Y14120D01*
X5473Y14120D01*
X5473Y14120D01*
X5448Y14150D01*
X5444Y14158D01*
X5435Y14163D01*
X5405Y14187D01*
X5381Y14218D01*
X5376Y14226D01*
X5368Y14231D01*
X5338Y14255D01*
X5338Y14255D01*
X5338Y14255D01*
X5313Y14285D01*
X5308Y14294D01*
X5300Y14298D01*
X5300Y14298D01*
X5300Y14298D01*
X5282Y14313D01*
X5270Y14323D01*
X5270Y14323D01*
X5270Y14323D01*
X5260Y14335D01*
X5245Y14353D01*
X5245Y14353D01*
X5245Y14353D01*
X5241Y14361D01*
X5232Y14366D01*
X5202Y14390D01*
X5202Y14390D01*
X5202Y14390D01*
X5178Y14420D01*
X5173Y14429D01*
X5165Y14433D01*
X5135Y14458D01*
X5135Y14458D01*
X5135Y14458D01*
X5125Y14469D01*
X5101Y14472D01*
X5063Y14483D01*
X5029Y14501D01*
X4999Y14526D01*
X4990Y14537D01*
X4965Y14539D01*
X4928Y14550D01*
D01*
X4928Y14550D01*
X4915Y14558D01*
X4894Y14569D01*
X4864Y14593D01*
X4864Y14593D01*
X4864Y14593D01*
X4856Y14603D01*
X4733D01*
X4733D01*
X4733D01*
X4722Y14604D01*
X4695Y14607D01*
X4658Y14618D01*
D01*
X4658Y14618D01*
X4644Y14625D01*
X4623Y14636D01*
X4593Y14661D01*
X4593Y14661D01*
X4593Y14661D01*
X4585Y14671D01*
X4069Y14671D01*
X4061Y14661D01*
X4061Y14661D01*
X4031Y14636D01*
X3997Y14618D01*
X3976Y14612D01*
X3969Y14590D01*
D01*
X3969Y14590D01*
X3962Y14576D01*
X3951Y14556D01*
X3926Y14526D01*
X3926Y14526D01*
X3926Y14526D01*
X3915Y14517D01*
X3913Y14492D01*
X3901Y14455D01*
D01*
X3901Y14455D01*
X3894Y14441D01*
X3883Y14420D01*
X3858Y14390D01*
X3858Y14390D01*
X3858Y14390D01*
X3849Y14382D01*
X3849Y14327D01*
Y14260D01*
Y14205D01*
X3858Y14197D01*
X3858Y14197D01*
X3858Y14197D01*
X3883Y14167D01*
X3894Y14146D01*
X3901Y14132D01*
X3901Y14132D01*
D01*
X3912Y14095D01*
X3915Y14068D01*
X3916Y14057D01*
X3916Y13989D01*
Y13989D01*
Y13989D01*
Y13921D01*
Y13921D01*
Y13921D01*
X3916Y13854D01*
Y13799D01*
X3926Y13791D01*
X3926Y13791D01*
X3926Y13791D01*
X3951Y13761D01*
X3962Y13740D01*
X3969Y13727D01*
X3969Y13726D01*
Y13726D01*
X3980Y13689D01*
X3983Y13662D01*
X3984Y13651D01*
Y13651D01*
Y13651D01*
X3984Y13583D01*
X3984Y13516D01*
Y13516D01*
Y13516D01*
Y13448D01*
Y13393D01*
X3994Y13385D01*
X4018Y13355D01*
X4037Y13321D01*
X4048Y13284D01*
X4052Y13245D01*
Y13177D01*
Y13177D01*
Y13177D01*
X4052Y13110D01*
X4052Y13042D01*
Y13042D01*
Y13042D01*
Y12974D01*
Y12919D01*
X4061Y12911D01*
X4086Y12881D01*
X4104Y12847D01*
X4115Y12810D01*
X4119Y12771D01*
Y12704D01*
Y12636D01*
Y12568D01*
Y12513D01*
X4129Y12505D01*
X4154Y12475D01*
X4172Y12441D01*
X4183Y12404D01*
X4187Y12365D01*
Y12298D01*
Y12230D01*
Y12162D01*
Y12162D01*
Y12162D01*
X4187Y12107D01*
X4197Y12100D01*
X4221Y12070D01*
X4239Y12035D01*
X4251Y11998D01*
X4255Y11960D01*
Y11892D01*
Y11892D01*
Y11892D01*
X4255Y11824D01*
X4255Y11757D01*
Y11757D01*
Y11757D01*
Y11689D01*
Y11689D01*
Y11689D01*
X4255Y11634D01*
X4264Y11626D01*
X4264Y11626D01*
X4264Y11626D01*
X4289Y11596D01*
X4300Y11575D01*
X4307Y11562D01*
X4307Y11562D01*
D01*
X4318Y11525D01*
X4321Y11497D01*
X4322Y11486D01*
Y11418D01*
Y11351D01*
Y11283D01*
Y11228D01*
X4332Y11220D01*
X4357Y11190D01*
X4375Y11156D01*
X4386Y11119D01*
X4390Y11080D01*
Y11012D01*
Y10945D01*
Y10877D01*
Y10822D01*
X4400Y10814D01*
X4424Y10784D01*
X4442Y10750D01*
X4454Y10713D01*
X4457Y10674D01*
Y10607D01*
Y10539D01*
Y10471D01*
Y10404D01*
Y10349D01*
X4467Y10341D01*
X4467Y10341D01*
X4467Y10341D01*
X4492Y10311D01*
X4503Y10290D01*
X4510Y10276D01*
X4510Y10276D01*
D01*
X4521Y10239D01*
X4524Y10212D01*
X4525Y10201D01*
Y10201D01*
Y10201D01*
Y10133D01*
X4525Y10065D01*
Y10065D01*
Y10065D01*
Y9998D01*
Y9998D01*
Y9998D01*
X4525Y9943D01*
X4535Y9935D01*
X4535Y9935D01*
X4535Y9935D01*
X4560Y9905D01*
X4571Y9884D01*
X4578Y9871D01*
X4578Y9870D01*
D01*
X4589Y9833D01*
X4592Y9806D01*
X4593Y9795D01*
Y9795D01*
Y9795D01*
X4593Y9727D01*
Y9659D01*
X4593Y9592D01*
Y9592D01*
Y9592D01*
X4593Y9537D01*
X4603Y9529D01*
X4603Y9529D01*
X4603Y9529D01*
X4627Y9499D01*
X4638Y9478D01*
X4645Y9465D01*
X4645Y9465D01*
D01*
X4657Y9427D01*
X4659Y9400D01*
X4660Y9389D01*
Y9389D01*
Y9389D01*
X4660Y9321D01*
X4660Y9254D01*
Y9254D01*
Y9254D01*
X4660Y9186D01*
X4660Y9118D01*
Y9118D01*
Y9118D01*
X4660Y9063D01*
X4666Y9059D01*
X4670Y9055D01*
X4695Y9025D01*
X4713Y8991D01*
X4724Y8954D01*
X4728Y8915D01*
Y8848D01*
Y8780D01*
Y8712D01*
Y8657D01*
X4738Y8649D01*
X4762Y8619D01*
X4781Y8585D01*
X4792Y8548D01*
X4796Y8509D01*
Y8442D01*
Y8374D01*
X4796Y8307D01*
Y8307D01*
Y8307D01*
X4796Y8251D01*
X4806Y8243D01*
X4806Y8243D01*
X4806Y8243D01*
X4830Y8213D01*
X4841Y8193D01*
X4848Y8179D01*
X4848Y8179D01*
D01*
X4860Y8142D01*
X4862Y8115D01*
X4863Y8104D01*
Y8036D01*
Y7968D01*
Y7901D01*
Y7833D01*
Y7765D01*
Y7698D01*
X4860Y7659D01*
X4848Y7622D01*
X4830Y7588D01*
X4806Y7558D01*
X4775Y7533D01*
X4741Y7515D01*
X4704Y7504D01*
X4666Y7500D01*
X1216Y7500D01*
X1177Y7504D01*
X1140Y7515D01*
X1106Y7533D01*
X1076Y7558D01*
X1051Y7588D01*
X1033Y7622D01*
X1022Y7659D01*
X1018Y7698D01*
Y7765D01*
Y7820D01*
X1008Y7828D01*
X1008Y7828D01*
X1008Y7828D01*
X983Y7858D01*
X972Y7879D01*
X965Y7892D01*
X965Y7892D01*
D01*
X954Y7930D01*
X951Y7957D01*
X950Y7968D01*
Y7968D01*
Y7968D01*
Y8036D01*
Y8104D01*
Y8171D01*
Y8239D01*
Y8294D01*
X940Y8302D01*
X940Y8302D01*
X940Y8302D01*
X916Y8332D01*
X905Y8353D01*
X897Y8366D01*
X897Y8366D01*
Y8366D01*
X886Y8403D01*
X883Y8430D01*
X882Y8442D01*
Y8442D01*
Y8442D01*
X882Y8510D01*
Y8577D01*
X882Y8645D01*
Y8645D01*
Y8645D01*
X882Y8700D01*
X873Y8708D01*
X848Y8738D01*
X830Y8772D01*
X819Y8809D01*
X815Y8848D01*
Y8915D01*
Y8983D01*
Y9051D01*
Y9106D01*
X805Y9114D01*
X805Y9114D01*
X805Y9114D01*
X780Y9144D01*
X769Y9164D01*
X762Y9178D01*
X762Y9178D01*
D01*
X751Y9215D01*
X748Y9242D01*
X747Y9254D01*
X747Y9321D01*
Y9321D01*
Y9321D01*
Y9389D01*
Y9389D01*
Y9389D01*
X747Y9457D01*
X747Y9524D01*
X747Y9579D01*
X737Y9587D01*
X737Y9587D01*
X737Y9587D01*
X713Y9617D01*
X702Y9638D01*
X695Y9651D01*
X695Y9651D01*
D01*
X683Y9689D01*
X680Y9716D01*
X679Y9727D01*
Y9727D01*
Y9727D01*
X679Y9795D01*
Y9862D01*
Y9930D01*
Y9985D01*
X670Y9993D01*
X670Y9993D01*
X670Y9993D01*
X645Y10023D01*
X634Y10044D01*
X627Y10057D01*
X627Y10057D01*
D01*
X616Y10095D01*
X613Y10122D01*
X612Y10133D01*
Y10201D01*
Y10268D01*
Y10336D01*
Y10391D01*
X602Y10399D01*
X577Y10429D01*
X559Y10463D01*
X548Y10500D01*
X544Y10539D01*
Y10607D01*
Y10674D01*
Y10742D01*
Y10809D01*
Y10865D01*
X534Y10873D01*
X510Y10903D01*
X491Y10937D01*
X480Y10974D01*
X477Y11012D01*
Y11080D01*
Y11148D01*
Y11215D01*
Y11270D01*
X467Y11278D01*
X467Y11278D01*
X467Y11278D01*
X442Y11309D01*
X431Y11329D01*
X424Y11343D01*
X424Y11343D01*
D01*
X413Y11380D01*
X410Y11407D01*
X409Y11418D01*
Y11418D01*
Y11418D01*
Y11486D01*
Y11554D01*
Y11621D01*
Y11621D01*
Y11621D01*
X409Y11676D01*
X399Y11684D01*
X375Y11714D01*
X356Y11749D01*
X345Y11786D01*
X341Y11824D01*
Y11892D01*
X341Y11960D01*
Y11960D01*
Y11960D01*
X341Y12027D01*
X341Y12095D01*
X341Y12150D01*
X331Y12158D01*
X331Y12158D01*
X331Y12158D01*
X307Y12188D01*
X296Y12209D01*
X289Y12222D01*
X289Y12222D01*
D01*
X277Y12259D01*
X275Y12286D01*
X274Y12298D01*
Y12298D01*
Y12298D01*
X274Y12365D01*
X274Y12433D01*
Y12433D01*
Y12433D01*
Y12501D01*
Y12556D01*
X264Y12564D01*
X239Y12594D01*
X221Y12628D01*
X210Y12665D01*
X206Y12704D01*
Y12771D01*
Y12839D01*
Y12907D01*
Y12962D01*
X196Y12970D01*
X196Y12970D01*
X196Y12970D01*
X186Y12982D01*
X172Y13000D01*
X172Y13000D01*
X172Y13000D01*
X166Y13011D01*
X153Y13034D01*
X153Y13034D01*
X153Y13034D01*
X149Y13048D01*
X142Y13071D01*
Y13071D01*
X142Y13071D01*
X140Y13087D01*
X138Y13110D01*
Y13110D01*
Y13110D01*
X138Y13177D01*
Y13245D01*
X138Y13313D01*
Y13313D01*
Y13313D01*
Y13368D01*
X129Y13376D01*
X104Y13406D01*
X86Y13440D01*
X74Y13477D01*
X71Y13516D01*
Y13583D01*
Y13651D01*
Y13719D01*
Y13786D01*
Y13841D01*
X61Y13849D01*
X61Y13849D01*
X61Y13849D01*
X36Y13879D01*
X25Y13900D01*
X18Y13913D01*
X18Y13913D01*
D01*
X7Y13950D01*
X4Y13978D01*
X3Y13989D01*
X3Y14057D01*
Y14057D01*
Y14057D01*
Y14124D01*
Y14124D01*
Y14124D01*
X3Y14192D01*
X3Y14260D01*
Y14260D01*
Y14260D01*
X3Y14315D01*
X-7Y14323D01*
X-31Y14353D01*
X-50Y14387D01*
X-61Y14424D01*
X-65Y14463D01*
Y14530D01*
Y14598D01*
X-65Y14665D01*
Y14666D01*
Y14666D01*
X-65Y14733D01*
Y14801D01*
X-65Y14868D01*
Y14868D01*
Y14869D01*
Y14936D01*
Y14936D01*
Y14936D01*
X-65Y15004D01*
X-65Y15071D01*
Y15071D01*
Y15071D01*
Y15139D01*
Y15207D01*
Y15274D01*
Y15274D01*
Y15274D01*
X-65Y15342D01*
Y15410D01*
X-65Y15477D01*
Y15477D01*
Y15477D01*
Y15545D01*
Y15545D01*
Y15545D01*
X-65Y15613D01*
Y15680D01*
X-65Y15748D01*
Y15748D01*
Y15748D01*
Y15816D01*
Y15883D01*
Y15883D01*
Y15883D01*
X-65Y15951D01*
X-64Y15962D01*
X-61Y15990D01*
X-50Y16027D01*
D01*
X-50Y16027D01*
X-43Y16040D01*
X-31Y16061D01*
X-7Y16091D01*
X-7Y16091D01*
X-7Y16091D01*
X3Y16099D01*
X3Y16154D01*
Y16154D01*
Y16154D01*
Y16221D01*
X5Y16244D01*
X7Y16260D01*
X7Y16260D01*
Y16260D01*
X14Y16283D01*
X18Y16297D01*
X18Y16297D01*
X18Y16297D01*
X30Y16320D01*
X36Y16331D01*
X36Y16331D01*
X36Y16331D01*
X51Y16350D01*
X61Y16361D01*
X61Y16361D01*
X61Y16361D01*
X71Y16369D01*
Y16424D01*
X74Y16463D01*
X86Y16500D01*
X104Y16534D01*
X129Y16564D01*
X140Y16573D01*
X142Y16599D01*
X150Y16624D01*
X153Y16635D01*
X153Y16636D01*
D01*
X172Y16670D01*
X191Y16694D01*
X196Y16700D01*
X196Y16700D01*
X196Y16700D01*
X202Y16705D01*
X207Y16709D01*
X210Y16734D01*
X221Y16771D01*
X239Y16805D01*
X264Y16835D01*
X294Y16860D01*
X302Y16864D01*
X307Y16873D01*
X331Y16903D01*
X361Y16927D01*
X370Y16932D01*
X375Y16940D01*
X399Y16970D01*
X399Y16970D01*
X399Y16970D01*
X429Y16995D01*
X438Y16999D01*
X442Y17008D01*
X467Y17038D01*
X497Y17063D01*
X505Y17067D01*
X510Y17076D01*
X534Y17106D01*
X564Y17130D01*
X573Y17135D01*
X577Y17143D01*
X602Y17173D01*
X632Y17198D01*
X666Y17216D01*
X703Y17227D01*
X728Y17230D01*
X730Y17232D01*
X737Y17241D01*
X767Y17266D01*
X776Y17270D01*
X780Y17278D01*
X805Y17309D01*
X835Y17333D01*
X869Y17351D01*
X906Y17363D01*
X931Y17365D01*
X940Y17376D01*
X970Y17401D01*
X1005Y17419D01*
X1042Y17430D01*
X1080Y17434D01*
X1135D01*
X1143Y17444D01*
X1143Y17444D01*
X1143Y17444D01*
X1173Y17468D01*
X1194Y17480D01*
X1207Y17487D01*
X1208Y17487D01*
D01*
X1245Y17498D01*
X1272Y17501D01*
X1283Y17502D01*
X1338D01*
X1346Y17511D01*
X1346Y17511D01*
X1346Y17511D01*
X1376Y17536D01*
X1397Y17547D01*
X1410Y17554D01*
X1410Y17554D01*
D01*
X1448Y17566D01*
X1475Y17568D01*
X1486Y17569D01*
X1486D01*
X1486D01*
X1812Y17569D01*
X1820Y17579D01*
X1820Y17579D01*
X1820Y17579D01*
X1850Y17604D01*
X1870Y17615D01*
X1884Y17622D01*
X1884Y17622D01*
D01*
X1921Y17633D01*
X1948Y17636D01*
X1960Y17637D01*
X1960D01*
X1960D01*
X2907D01*
X2945Y17633D01*
X2982Y17622D01*
X3017Y17604D01*
X3047Y17579D01*
X3055Y17569D01*
X3380D01*
X3419Y17566D01*
X3456Y17554D01*
X3490Y17536D01*
X3520Y17512D01*
X3524Y17507D01*
X3528Y17502D01*
X3651D01*
X3689Y17498D01*
X3727Y17487D01*
X3761Y17468D01*
X3791Y17444D01*
X3799Y17434D01*
X3854D01*
X3892Y17430D01*
X3929Y17419D01*
X3964Y17401D01*
X3994Y17376D01*
X4002Y17366D01*
X4057D01*
X4095Y17363D01*
X4132Y17351D01*
X4167Y17333D01*
X4197Y17309D01*
X4206Y17298D01*
X4231Y17295D01*
X4268Y17284D01*
X4302Y17266D01*
X4332Y17241D01*
X4340Y17232D01*
X4341Y17230D01*
X4366Y17227D01*
X4403Y17216D01*
X4437Y17198D01*
X4467Y17173D01*
X4475Y17164D01*
X4476Y17162D01*
X4501Y17160D01*
X4538Y17149D01*
D01*
X4538Y17148D01*
X4552Y17141D01*
X4572Y17130D01*
X4603Y17106D01*
X4603Y17106D01*
X4603Y17106D01*
X4612Y17095D01*
X4637Y17092D01*
X4674Y17081D01*
D01*
X4674Y17081D01*
X4687Y17074D01*
X4708Y17063D01*
X4738Y17038D01*
X4738Y17038D01*
X4738Y17038D01*
X4763Y17008D01*
X4767Y16999D01*
X4775Y16995D01*
X4806Y16970D01*
X4815Y16959D01*
X4840Y16957D01*
X4877Y16946D01*
X4911Y16927D01*
X4941Y16903D01*
X4965Y16873D01*
X4970Y16864D01*
X4978Y16860D01*
X5008Y16835D01*
X5008Y16835D01*
X5008Y16835D01*
X5033Y16805D01*
X5038Y16796D01*
X5046Y16792D01*
X5076Y16767D01*
X5076Y16767D01*
X5076Y16767D01*
X5077Y16767D01*
Y16830D01*
Y16885D01*
X5067Y16894D01*
X5042Y16924D01*
X5024Y16958D01*
X5013Y16995D01*
X5009Y17033D01*
Y17101D01*
Y17169D01*
Y17236D01*
Y17291D01*
X4999Y17299D01*
X4975Y17329D01*
X4956Y17364D01*
X4945Y17401D01*
X4941Y17439D01*
Y17507D01*
Y17574D01*
Y17642D01*
Y17710D01*
Y17765D01*
X4932Y17773D01*
X4907Y17803D01*
X4889Y17837D01*
X4877Y17874D01*
X4874Y17913D01*
Y17980D01*
Y18048D01*
X4874Y18116D01*
Y18116D01*
Y18116D01*
X4874Y18171D01*
X4864Y18179D01*
X4864Y18179D01*
X4864Y18179D01*
X4839Y18209D01*
X4828Y18229D01*
X4821Y18243D01*
X4821Y18243D01*
D01*
X4810Y18280D01*
X4807Y18307D01*
X4806Y18319D01*
X4806Y18386D01*
X4806Y18454D01*
Y18454D01*
Y18454D01*
X4806Y18522D01*
Y18577D01*
X4796Y18585D01*
X4796Y18585D01*
X4796Y18585D01*
X4772Y18615D01*
X4761Y18635D01*
X4753Y18649D01*
X4753Y18649D01*
D01*
X4742Y18686D01*
X4739Y18713D01*
X4738Y18725D01*
Y18792D01*
Y18860D01*
Y18927D01*
Y18983D01*
X4729Y18991D01*
X4729Y18991D01*
X4729Y18991D01*
X4719Y19003D01*
X4704Y19021D01*
X4704Y19021D01*
X4704Y19021D01*
X4698Y19032D01*
X4686Y19055D01*
X4686Y19055D01*
X4686Y19055D01*
X4682Y19069D01*
X4675Y19092D01*
Y19092D01*
X4675Y19092D01*
X4673Y19108D01*
X4671Y19130D01*
Y19130D01*
Y19130D01*
X4671Y19198D01*
X4671Y19266D01*
X4671Y19266D01*
X4671Y19266D01*
X4671Y19333D01*
X4671Y19401D01*
Y19401D01*
Y19401D01*
Y19456D01*
X4661Y19464D01*
X4637Y19494D01*
X4618Y19528D01*
X4607Y19565D01*
X4603Y19604D01*
Y19672D01*
Y19739D01*
Y19807D01*
Y19862D01*
X4593Y19870D01*
X4569Y19900D01*
X4550Y19934D01*
X4539Y19971D01*
X4535Y20010D01*
Y20078D01*
Y20145D01*
Y20213D01*
Y20280D01*
Y20336D01*
X4526Y20344D01*
X4526Y20344D01*
X4526Y20344D01*
X4501Y20374D01*
X4490Y20394D01*
X4483Y20408D01*
X4483Y20408D01*
D01*
X4472Y20445D01*
X4469Y20472D01*
X4468Y20483D01*
Y20483D01*
Y20483D01*
Y20551D01*
Y20619D01*
Y20686D01*
Y20742D01*
X4458Y20750D01*
X4458Y20750D01*
X4458Y20750D01*
X4434Y20779D01*
X4422Y20800D01*
X4415Y20814D01*
X4415Y20814D01*
D01*
X4404Y20851D01*
X4401Y20878D01*
X4400Y20889D01*
Y20889D01*
Y20889D01*
X4400Y20957D01*
X4400Y21025D01*
Y21025D01*
Y21025D01*
Y21092D01*
Y21147D01*
X4391Y21155D01*
X4390Y21155D01*
X4390Y21156D01*
X4366Y21185D01*
X4355Y21206D01*
X4348Y21220D01*
X4348Y21220D01*
D01*
X4336Y21257D01*
X4334Y21284D01*
X4332Y21295D01*
Y21363D01*
Y21431D01*
Y21498D01*
Y21553D01*
X4323Y21561D01*
X4298Y21591D01*
X4280Y21625D01*
X4269Y21663D01*
X4265Y21701D01*
Y21769D01*
Y21836D01*
X4269Y21875D01*
X4280Y21912D01*
X4298Y21946D01*
X4323Y21976D01*
X4353Y22001D01*
X4387Y22019D01*
X4424Y22030D01*
X4463Y22034D01*
X7913D01*
X7951Y22030D01*
D02*
G37*
G36*
X-11706Y17434D02*
X-11667Y17430D01*
X-11630Y17419D01*
X-11596Y17401D01*
X-11566Y17376D01*
X-11541Y17346D01*
X-11523Y17312D01*
X-11512Y17275D01*
X-11508Y17236D01*
Y17169D01*
X-11509Y17157D01*
X-11512Y17130D01*
X-11523Y17093D01*
D01*
X-11523Y17093D01*
X-11530Y17079D01*
X-11541Y17059D01*
X-11566Y17029D01*
X-11566Y17029D01*
X-11566Y17029D01*
X-11596Y17004D01*
X-11604Y17000D01*
X-11609Y16991D01*
X-11633Y16961D01*
X-11644Y16952D01*
X-11647Y16927D01*
X-11658Y16890D01*
X-11676Y16856D01*
X-11701Y16826D01*
X-11712Y16817D01*
X-11715Y16792D01*
X-11726Y16755D01*
D01*
X-11726Y16755D01*
X-11733Y16741D01*
X-11744Y16721D01*
X-11769Y16691D01*
X-11769Y16691D01*
X-11769Y16691D01*
X-11780Y16681D01*
X-11782Y16657D01*
X-11794Y16619D01*
D01*
X-11794Y16619D01*
X-11801Y16606D01*
X-11812Y16585D01*
X-11836Y16555D01*
X-11836Y16555D01*
X-11836Y16555D01*
X-11847Y16546D01*
X-11850Y16521D01*
X-11861Y16484D01*
D01*
X-11861Y16484D01*
X-11868Y16471D01*
X-11880Y16450D01*
X-11904Y16420D01*
X-11904Y16420D01*
X-11904Y16420D01*
X-11915Y16411D01*
X-11918Y16386D01*
X-11929Y16349D01*
X-11947Y16315D01*
X-11972Y16285D01*
X-12002Y16260D01*
X-12010Y16255D01*
X-12015Y16247D01*
X-12039Y16217D01*
X-12039Y16217D01*
X-12039Y16217D01*
X-12050Y16208D01*
X-12051Y16199D01*
X-12053Y16183D01*
X-12053Y16183D01*
Y16183D01*
X-12060Y16160D01*
X-12064Y16146D01*
X-12064Y16146D01*
X-12064Y16146D01*
X-12076Y16123D01*
X-12082Y16112D01*
X-12082Y16112D01*
X-12082Y16112D01*
X-12097Y16094D01*
X-12107Y16082D01*
X-12107Y16082D01*
X-12107Y16082D01*
X-12118Y16073D01*
X-12121Y16048D01*
X-12132Y16011D01*
D01*
X-12132Y16011D01*
X-12139Y15997D01*
X-12150Y15976D01*
X-12175Y15946D01*
X-12175Y15946D01*
X-12175Y15946D01*
X-12186Y15937D01*
X-12188Y15912D01*
X-12199Y15875D01*
D01*
X-12200Y15875D01*
X-12207Y15862D01*
X-12218Y15841D01*
X-12242Y15811D01*
X-12242Y15811D01*
X-12242Y15811D01*
X-12253Y15802D01*
X-12255Y15787D01*
X-12256Y15777D01*
X-12267Y15740D01*
X-12285Y15706D01*
X-12310Y15676D01*
X-12321Y15667D01*
X-12323Y15646D01*
X-12324Y15642D01*
X-12335Y15605D01*
X-12353Y15571D01*
X-12378Y15540D01*
X-12389Y15531D01*
X-12391Y15506D01*
X-12402Y15469D01*
D01*
X-12402Y15469D01*
X-12410Y15456D01*
X-12421Y15435D01*
X-12445Y15405D01*
X-12445Y15405D01*
X-12445Y15405D01*
X-12475Y15381D01*
X-12484Y15376D01*
X-12488Y15368D01*
X-12513Y15337D01*
X-12524Y15328D01*
X-12526Y15304D01*
X-12526Y15303D01*
X-12538Y15266D01*
X-12556Y15232D01*
X-12581Y15202D01*
X-12592Y15193D01*
X-12594Y15168D01*
X-12605Y15131D01*
X-12624Y15097D01*
X-12648Y15067D01*
X-12659Y15058D01*
X-12660Y15049D01*
X-12662Y15033D01*
X-12662Y15033D01*
Y15033D01*
X-12669Y15010D01*
X-12673Y14996D01*
X-12673Y14996D01*
X-12673Y14996D01*
X-12685Y14973D01*
X-12691Y14962D01*
X-12691Y14962D01*
X-12691Y14962D01*
X-12706Y14943D01*
X-12716Y14932D01*
X-12716Y14932D01*
X-12716Y14932D01*
X-12727Y14923D01*
X-12729Y14898D01*
X-12741Y14861D01*
D01*
X-12741Y14861D01*
X-12748Y14847D01*
X-12759Y14826D01*
X-12784Y14796D01*
X-12784Y14796D01*
X-12784Y14796D01*
X-12795Y14787D01*
X-12797Y14762D01*
X-12808Y14725D01*
D01*
X-12808Y14725D01*
X-12815Y14712D01*
X-12827Y14691D01*
X-12851Y14661D01*
X-12851Y14661D01*
X-12851Y14661D01*
X-12862Y14652D01*
X-12864Y14632D01*
X-12865Y14627D01*
X-12876Y14590D01*
X-12894Y14556D01*
X-12919Y14526D01*
X-12930Y14517D01*
X-12932Y14492D01*
X-12932Y14492D01*
X-12944Y14455D01*
X-12962Y14420D01*
X-12987Y14390D01*
X-13016Y14366D01*
X-13025Y14361D01*
X-13029Y14353D01*
X-13054Y14323D01*
X-13065Y14314D01*
X-13068Y14289D01*
X-13079Y14252D01*
X-13097Y14218D01*
X-13122Y14187D01*
X-13133Y14178D01*
X-13134Y14169D01*
X-13135Y14153D01*
X-13135Y14153D01*
Y14153D01*
X-13142Y14130D01*
X-13147Y14116D01*
X-13147Y14116D01*
X-13147Y14116D01*
X-13159Y14093D01*
X-13165Y14082D01*
X-13165Y14082D01*
X-13165Y14082D01*
X-13180Y14064D01*
X-13189Y14052D01*
X-13189Y14052D01*
X-13189Y14052D01*
X-13201Y14043D01*
X-13203Y14018D01*
X-13214Y13981D01*
D01*
X-13214Y13981D01*
X-13221Y13968D01*
X-13232Y13947D01*
X-13257Y13917D01*
X-13257Y13917D01*
X-13257Y13917D01*
X-13268Y13908D01*
X-13271Y13883D01*
X-13282Y13846D01*
D01*
X-13282Y13846D01*
X-13289Y13832D01*
X-13300Y13812D01*
X-13325Y13782D01*
X-13325Y13782D01*
X-13325Y13782D01*
X-13336Y13772D01*
X-13338Y13747D01*
X-13350Y13710D01*
X-13368Y13676D01*
X-13392Y13646D01*
X-13403Y13637D01*
X-13405Y13617D01*
X-13406Y13612D01*
X-13417Y13575D01*
X-13435Y13541D01*
X-13460Y13511D01*
X-13471Y13502D01*
X-13474Y13477D01*
X-13485Y13440D01*
X-13503Y13406D01*
X-13528Y13376D01*
X-13558Y13351D01*
X-13566Y13347D01*
X-13571Y13338D01*
X-13595Y13308D01*
X-13606Y13299D01*
X-13609Y13274D01*
X-13620Y13237D01*
D01*
X-13620Y13237D01*
X-13627Y13223D01*
X-13638Y13203D01*
X-13663Y13173D01*
X-13663Y13173D01*
X-13663Y13173D01*
X-13674Y13164D01*
X-13677Y13139D01*
X-13688Y13102D01*
X-13706Y13067D01*
X-13731Y13037D01*
X-13742Y13028D01*
X-13744Y13003D01*
X-13755Y12966D01*
D01*
X-13755Y12966D01*
X-13763Y12953D01*
X-13774Y12932D01*
X-13798Y12902D01*
X-13798Y12902D01*
X-13798Y12902D01*
X-13809Y12893D01*
X-13811Y12878D01*
X-13812Y12868D01*
X-13823Y12831D01*
X-13841Y12797D01*
X-13866Y12767D01*
X-13896Y12742D01*
X-13904Y12738D01*
X-13905Y12738D01*
X-13904Y12737D01*
X-13896Y12733D01*
X-13866Y12708D01*
X-13866Y12708D01*
X-13866Y12708D01*
X-13841Y12678D01*
X-13837Y12670D01*
X-13828Y12665D01*
X-13798Y12641D01*
X-13774Y12611D01*
X-13769Y12602D01*
X-13761Y12598D01*
X-13731Y12573D01*
X-13706Y12543D01*
X-13701Y12535D01*
X-13693Y12530D01*
X-13663Y12505D01*
X-13663Y12505D01*
X-13663Y12505D01*
X-13638Y12475D01*
X-13627Y12455D01*
X-13620Y12441D01*
X-13620Y12441D01*
D01*
X-13609Y12404D01*
X-13606Y12379D01*
X-13595Y12370D01*
X-13595Y12370D01*
X-13595Y12370D01*
X-13571Y12340D01*
X-13566Y12332D01*
X-13558Y12327D01*
X-13558Y12327D01*
X-13558Y12327D01*
X-13540Y12312D01*
X-13528Y12303D01*
X-13528Y12302D01*
X-13528Y12302D01*
X-13518Y12291D01*
X-13503Y12273D01*
X-13503Y12272D01*
X-13503Y12272D01*
X-13499Y12264D01*
X-13490Y12259D01*
X-13460Y12235D01*
X-13435Y12205D01*
X-13431Y12196D01*
X-13422Y12192D01*
X-13392Y12167D01*
X-13392Y12167D01*
X-13392Y12167D01*
X-13368Y12137D01*
X-13357Y12116D01*
X-13350Y12103D01*
X-13350Y12103D01*
D01*
X-13338Y12066D01*
X-13336Y12041D01*
X-13325Y12032D01*
X-13325Y12032D01*
X-13325Y12032D01*
X-13300Y12002D01*
X-13296Y11993D01*
X-13287Y11989D01*
X-13287Y11989D01*
X-13287Y11989D01*
X-13269Y11974D01*
X-13257Y11964D01*
X-13257Y11964D01*
X-13257Y11964D01*
X-13247Y11952D01*
X-13232Y11934D01*
X-13232Y11934D01*
X-13232Y11934D01*
X-13228Y11926D01*
X-13219Y11921D01*
X-13189Y11896D01*
X-13189Y11896D01*
X-13189Y11896D01*
X-13165Y11867D01*
X-13154Y11846D01*
X-13147Y11832D01*
X-13147Y11832D01*
D01*
X-13135Y11795D01*
X-13133Y11770D01*
X-13122Y11761D01*
X-13097Y11731D01*
X-13093Y11723D01*
X-13084Y11718D01*
X-13054Y11694D01*
X-13029Y11664D01*
X-13025Y11655D01*
X-13016Y11650D01*
X-12987Y11626D01*
X-12962Y11596D01*
X-12957Y11587D01*
X-12949Y11583D01*
X-12919Y11558D01*
X-12894Y11528D01*
X-12876Y11494D01*
X-12865Y11457D01*
X-12862Y11432D01*
X-12851Y11423D01*
X-12827Y11393D01*
X-12822Y11384D01*
X-12813Y11380D01*
X-12784Y11355D01*
X-12784Y11355D01*
X-12784Y11355D01*
X-12759Y11325D01*
X-12754Y11317D01*
X-12746Y11312D01*
X-12716Y11288D01*
X-12691Y11258D01*
X-12673Y11224D01*
X-12662Y11186D01*
X-12659Y11162D01*
X-12648Y11152D01*
X-12648Y11152D01*
X-12648Y11152D01*
X-12624Y11122D01*
X-12619Y11114D01*
X-12611Y11109D01*
X-12581Y11085D01*
X-12556Y11055D01*
X-12551Y11046D01*
X-12543Y11042D01*
X-12543Y11042D01*
X-12543Y11042D01*
X-12525Y11027D01*
X-12513Y11017D01*
X-12513Y11017D01*
X-12513Y11017D01*
X-12503Y11005D01*
X-12488Y10987D01*
X-12488Y10987D01*
X-12488Y10987D01*
X-12484Y10979D01*
X-12475Y10974D01*
X-12445Y10949D01*
X-12445Y10949D01*
X-12445Y10949D01*
X-12421Y10919D01*
X-12410Y10899D01*
X-12402Y10885D01*
X-12402Y10885D01*
D01*
X-12391Y10848D01*
X-12389Y10823D01*
X-12378Y10814D01*
X-12378Y10814D01*
X-12378Y10814D01*
X-12353Y10784D01*
X-12348Y10776D01*
X-12340Y10771D01*
X-12310Y10746D01*
X-12285Y10717D01*
X-12281Y10708D01*
X-12272Y10703D01*
X-12242Y10679D01*
X-12242Y10679D01*
X-12242Y10679D01*
X-12218Y10649D01*
X-12207Y10628D01*
X-12200Y10615D01*
X-12199Y10615D01*
D01*
X-12188Y10577D01*
X-12186Y10553D01*
X-12175Y10543D01*
X-12150Y10514D01*
X-12145Y10505D01*
X-12137Y10500D01*
X-12107Y10476D01*
X-12082Y10446D01*
X-12078Y10437D01*
X-12069Y10433D01*
X-12039Y10408D01*
X-12015Y10378D01*
X-12010Y10370D01*
X-12002Y10365D01*
X-11972Y10341D01*
X-11972Y10341D01*
X-11972Y10341D01*
X-11947Y10311D01*
X-11936Y10290D01*
X-11929Y10276D01*
X-11929Y10276D01*
D01*
X-11918Y10239D01*
X-11915Y10214D01*
X-11904Y10205D01*
X-11880Y10175D01*
X-11875Y10167D01*
X-11866Y10162D01*
X-11836Y10138D01*
X-11836Y10138D01*
X-11836Y10138D01*
X-11812Y10108D01*
X-11807Y10099D01*
X-11799Y10095D01*
X-11799Y10095D01*
X-11799Y10095D01*
X-11781Y10080D01*
X-11769Y10070D01*
X-11769Y10070D01*
X-11769Y10070D01*
X-11759Y10058D01*
X-11744Y10040D01*
X-11744Y10040D01*
X-11744Y10040D01*
X-11740Y10031D01*
X-11731Y10027D01*
X-11701Y10002D01*
X-11676Y9972D01*
X-11658Y9938D01*
X-11647Y9901D01*
X-11644Y9876D01*
X-11633Y9867D01*
X-11633Y9867D01*
X-11633Y9867D01*
X-11619Y9849D01*
X-11609Y9837D01*
X-11609Y9837D01*
X-11609Y9837D01*
X-11604Y9828D01*
X-11596Y9824D01*
X-11566Y9799D01*
X-11541Y9769D01*
X-11537Y9761D01*
X-11528Y9756D01*
X-11498Y9732D01*
X-11474Y9702D01*
X-11455Y9668D01*
X-11444Y9630D01*
X-11442Y9606D01*
X-11430Y9596D01*
X-11430Y9596D01*
X-11430Y9596D01*
X-11406Y9566D01*
X-11401Y9558D01*
X-11393Y9553D01*
X-11363Y9529D01*
X-11338Y9499D01*
X-11334Y9490D01*
X-11325Y9486D01*
X-11295Y9461D01*
X-11271Y9431D01*
X-11266Y9423D01*
X-11258Y9418D01*
X-11228Y9393D01*
X-11228Y9393D01*
X-11228Y9393D01*
X-11203Y9364D01*
X-11192Y9343D01*
X-11185Y9329D01*
X-11185Y9329D01*
D01*
X-11173Y9292D01*
X-11171Y9267D01*
X-11160Y9258D01*
X-11135Y9228D01*
X-11131Y9220D01*
X-11122Y9215D01*
X-11098Y9195D01*
X-11092Y9190D01*
X-11092Y9190D01*
X-11092Y9190D01*
X-11087Y9185D01*
X-11068Y9161D01*
X-11063Y9152D01*
X-11055Y9148D01*
X-11025Y9123D01*
X-11025Y9123D01*
X-11025Y9123D01*
X-11000Y9093D01*
X-10989Y9072D01*
X-10982Y9059D01*
X-10982Y9059D01*
D01*
X-10971Y9022D01*
X-10968Y8997D01*
X-10957Y8988D01*
X-10957Y8988D01*
X-10957Y8988D01*
X-10932Y8958D01*
X-10928Y8949D01*
X-10919Y8945D01*
X-10889Y8920D01*
X-10865Y8890D01*
X-10860Y8881D01*
X-10852Y8877D01*
X-10822Y8852D01*
X-10822Y8852D01*
X-10822Y8852D01*
X-10797Y8822D01*
X-10792Y8814D01*
X-10784Y8809D01*
X-10754Y8785D01*
X-10729Y8755D01*
X-10711Y8720D01*
X-10700Y8683D01*
X-10697Y8658D01*
X-10687Y8649D01*
X-10686Y8649D01*
X-10686Y8649D01*
X-10672Y8632D01*
X-10662Y8619D01*
X-10662Y8619D01*
X-10662Y8619D01*
X-10657Y8611D01*
X-10649Y8606D01*
X-10619Y8582D01*
X-10619Y8582D01*
X-10619Y8582D01*
X-10594Y8552D01*
X-10590Y8543D01*
X-10581Y8539D01*
X-10551Y8514D01*
X-10526Y8484D01*
X-10508Y8450D01*
X-10497Y8413D01*
X-10494Y8388D01*
X-10483Y8379D01*
X-10459Y8349D01*
X-10454Y8340D01*
X-10446Y8336D01*
X-10416Y8311D01*
X-10416Y8311D01*
X-10416Y8311D01*
X-10391Y8281D01*
X-10387Y8273D01*
X-10378Y8268D01*
X-10348Y8243D01*
X-10348Y8243D01*
X-10348Y8243D01*
X-10323Y8213D01*
X-10319Y8205D01*
X-10310Y8200D01*
X-10281Y8176D01*
X-10280Y8176D01*
X-10280Y8176D01*
X-10256Y8146D01*
X-10245Y8125D01*
X-10238Y8112D01*
X-10238Y8111D01*
D01*
X-10226Y8074D01*
X-10224Y8049D01*
X-10213Y8040D01*
X-10188Y8010D01*
X-10184Y8002D01*
X-10175Y7997D01*
X-10145Y7973D01*
X-10145Y7973D01*
X-10145Y7973D01*
X-10121Y7943D01*
X-10116Y7934D01*
X-10108Y7930D01*
X-10078Y7905D01*
X-10078Y7905D01*
X-10078Y7905D01*
X-10053Y7875D01*
X-10042Y7854D01*
X-10035Y7841D01*
X-10035Y7841D01*
D01*
X-10023Y7804D01*
X-10021Y7777D01*
X-10020Y7765D01*
Y7765D01*
Y7765D01*
X-10020Y7698D01*
X-10021Y7686D01*
X-10023Y7659D01*
X-10035Y7622D01*
D01*
X-10035Y7622D01*
X-10042Y7609D01*
X-10053Y7588D01*
X-10078Y7558D01*
X-10078Y7558D01*
X-10078Y7558D01*
X-10108Y7533D01*
X-10128Y7522D01*
X-10142Y7515D01*
X-10142Y7515D01*
D01*
X-10179Y7504D01*
X-10206Y7501D01*
X-10217Y7500D01*
X-10217D01*
D01*
D01*
X-14344Y7500D01*
X-14383Y7504D01*
X-14420Y7515D01*
X-14454Y7533D01*
X-14484Y7558D01*
X-14509Y7588D01*
X-14509Y7588D01*
X-14513Y7596D01*
X-14522Y7601D01*
X-14552Y7625D01*
X-14576Y7655D01*
X-14581Y7664D01*
X-14589Y7668D01*
X-14619Y7693D01*
X-14644Y7723D01*
X-14662Y7757D01*
X-14673Y7794D01*
X-14676Y7819D01*
X-14687Y7828D01*
X-14687Y7828D01*
X-14687Y7828D01*
X-14711Y7858D01*
X-14716Y7867D01*
X-14725Y7871D01*
X-14725Y7871D01*
X-14725Y7871D01*
X-14743Y7886D01*
X-14754Y7896D01*
X-14754Y7896D01*
X-14754Y7896D01*
X-14764Y7908D01*
X-14779Y7926D01*
X-14779Y7926D01*
X-14779Y7926D01*
X-14784Y7935D01*
X-14792Y7939D01*
X-14822Y7964D01*
X-14822Y7964D01*
X-14822Y7964D01*
X-14847Y7994D01*
X-14858Y8014D01*
X-14865Y8028D01*
X-14865Y8028D01*
D01*
X-14876Y8065D01*
X-14879Y8090D01*
X-14890Y8099D01*
X-14914Y8129D01*
X-14919Y8138D01*
X-14928Y8142D01*
X-14957Y8167D01*
X-14957Y8167D01*
X-14957Y8167D01*
X-14982Y8197D01*
X-14993Y8217D01*
X-15000Y8231D01*
X-15000Y8231D01*
Y8231D01*
X-15012Y8268D01*
X-15014Y8293D01*
X-15025Y8302D01*
X-15050Y8332D01*
X-15054Y8340D01*
X-15063Y8345D01*
X-15063Y8345D01*
X-15063Y8345D01*
X-15075Y8355D01*
X-15093Y8370D01*
X-15093Y8370D01*
X-15093Y8370D01*
X-15107Y8387D01*
X-15117Y8399D01*
X-15117Y8400D01*
X-15117Y8400D01*
X-15126Y8416D01*
X-15136Y8434D01*
X-15136Y8434D01*
X-15136Y8434D01*
X-15141Y8450D01*
X-15147Y8471D01*
Y8471D01*
X-15147Y8471D01*
X-15149Y8492D01*
X-15149Y8496D01*
X-15160Y8505D01*
X-15185Y8535D01*
X-15190Y8543D01*
X-15198Y8548D01*
X-15228Y8573D01*
X-15253Y8602D01*
X-15271Y8637D01*
X-15282Y8674D01*
X-15285Y8699D01*
X-15296Y8708D01*
X-15296Y8708D01*
X-15296Y8708D01*
X-15320Y8738D01*
X-15325Y8746D01*
X-15333Y8751D01*
X-15363Y8776D01*
X-15363Y8776D01*
X-15363Y8776D01*
X-15388Y8805D01*
X-15399Y8826D01*
X-15406Y8840D01*
X-15406Y8840D01*
D01*
X-15417Y8877D01*
X-15420Y8902D01*
X-15431Y8911D01*
X-15431Y8911D01*
X-15431Y8911D01*
X-15456Y8941D01*
X-15460Y8949D01*
X-15469Y8954D01*
X-15469Y8954D01*
X-15469Y8954D01*
X-15487Y8969D01*
X-15499Y8978D01*
X-15499Y8978D01*
X-15499Y8978D01*
X-15508Y8990D01*
X-15523Y9008D01*
X-15523Y9008D01*
X-15523Y9008D01*
X-15528Y9017D01*
X-15536Y9021D01*
X-15566Y9046D01*
X-15591Y9076D01*
X-15609Y9110D01*
X-15620Y9147D01*
X-15623Y9172D01*
X-15634Y9181D01*
X-15658Y9211D01*
X-15663Y9220D01*
X-15672Y9224D01*
X-15702Y9249D01*
X-15726Y9279D01*
X-15744Y9313D01*
X-15750Y9330D01*
X-15760Y9317D01*
X-15770Y9309D01*
X-15770Y9253D01*
X-15772Y9231D01*
X-15774Y9215D01*
X-15774Y9215D01*
Y9215D01*
X-15781Y9192D01*
X-15785Y9178D01*
X-15785Y9178D01*
X-15785Y9178D01*
X-15797Y9155D01*
X-15803Y9144D01*
X-15803Y9144D01*
X-15803Y9144D01*
X-15818Y9126D01*
X-15828Y9114D01*
X-15828Y9114D01*
X-15828Y9114D01*
X-15839Y9105D01*
X-15840Y9095D01*
X-15841Y9080D01*
X-15841Y9080D01*
Y9080D01*
X-15848Y9056D01*
X-15853Y9043D01*
X-15853Y9043D01*
X-15853Y9042D01*
X-15865Y9020D01*
X-15871Y9008D01*
X-15871Y9008D01*
X-15871Y9008D01*
X-15886Y8990D01*
X-15895Y8978D01*
X-15895Y8978D01*
X-15895Y8978D01*
X-15905Y8970D01*
X-15905Y8915D01*
Y8915D01*
Y8915D01*
X-15906Y8904D01*
X-15909Y8877D01*
X-15920Y8840D01*
D01*
X-15920Y8840D01*
X-15927Y8826D01*
X-15938Y8805D01*
X-15963Y8776D01*
X-15963Y8776D01*
X-15963Y8776D01*
X-15973Y8767D01*
Y8712D01*
X-15977Y8674D01*
X-15988Y8637D01*
X-16006Y8602D01*
X-16031Y8573D01*
X-16040Y8565D01*
Y8509D01*
X-16044Y8471D01*
X-16056Y8434D01*
X-16074Y8399D01*
X-16098Y8370D01*
X-16109Y8360D01*
X-16112Y8336D01*
X-16123Y8298D01*
D01*
X-16123Y8298D01*
X-16130Y8285D01*
X-16141Y8264D01*
X-16166Y8234D01*
X-16166Y8234D01*
X-16166Y8234D01*
X-16176Y8226D01*
Y8171D01*
X-16180Y8133D01*
X-16191Y8095D01*
X-16209Y8061D01*
X-16234Y8031D01*
X-16243Y8023D01*
X-16243Y7968D01*
X-16244Y7957D01*
X-16247Y7930D01*
X-16258Y7892D01*
D01*
X-16259Y7892D01*
X-16266Y7879D01*
X-16277Y7858D01*
X-16301Y7828D01*
X-16301Y7828D01*
X-16301Y7828D01*
X-16312Y7819D01*
X-16313Y7816D01*
X-16315Y7794D01*
X-16315Y7794D01*
Y7794D01*
X-16321Y7773D01*
X-16326Y7757D01*
X-16326Y7757D01*
X-16326Y7757D01*
X-16335Y7740D01*
X-16344Y7723D01*
X-16344Y7723D01*
X-16344Y7723D01*
X-16354Y7711D01*
X-16369Y7693D01*
X-16369Y7693D01*
X-16369Y7693D01*
X-16380Y7684D01*
X-16381Y7675D01*
X-16383Y7659D01*
X-16383Y7659D01*
Y7659D01*
X-16389Y7636D01*
X-16394Y7622D01*
X-16394Y7622D01*
X-16394Y7622D01*
X-16406Y7599D01*
X-16412Y7588D01*
X-16412Y7588D01*
X-16412Y7588D01*
X-16427Y7570D01*
X-16437Y7558D01*
X-16437Y7558D01*
X-16437Y7558D01*
X-16448Y7548D01*
X-16466Y7533D01*
X-16467Y7533D01*
X-16467Y7533D01*
X-16478Y7527D01*
X-16501Y7515D01*
X-16501Y7515D01*
X-16501Y7515D01*
X-16514Y7511D01*
X-16538Y7504D01*
X-16538D01*
X-16538Y7504D01*
X-16554Y7502D01*
X-16576Y7500D01*
X-16576D01*
X-16577D01*
X-20568D01*
X-20568D01*
X-20568D01*
X-20579Y7501D01*
X-20606Y7504D01*
X-20643Y7515D01*
D01*
X-20644Y7515D01*
X-20657Y7522D01*
X-20678Y7533D01*
X-20708Y7558D01*
X-20708Y7558D01*
X-20708Y7558D01*
X-20732Y7588D01*
X-20743Y7609D01*
X-20751Y7622D01*
X-20751Y7622D01*
D01*
X-20762Y7659D01*
X-20764Y7686D01*
X-20766Y7698D01*
Y7698D01*
Y7698D01*
X-20766Y7765D01*
X-20764Y7777D01*
X-20762Y7804D01*
X-20751Y7841D01*
D01*
X-20751Y7841D01*
X-20743Y7854D01*
X-20732Y7875D01*
X-20708Y7905D01*
X-20708Y7905D01*
X-20708Y7905D01*
X-20697Y7914D01*
X-20696Y7921D01*
X-20694Y7939D01*
X-20683Y7976D01*
X-20665Y8010D01*
X-20640Y8040D01*
X-20629Y8050D01*
X-20627Y8074D01*
X-20615Y8112D01*
D01*
X-20615Y8112D01*
X-20608Y8125D01*
X-20597Y8146D01*
X-20572Y8176D01*
X-20572Y8176D01*
X-20572Y8176D01*
X-20561Y8185D01*
X-20559Y8210D01*
X-20548Y8247D01*
D01*
X-20548Y8247D01*
X-20540Y8260D01*
X-20529Y8281D01*
X-20505Y8311D01*
X-20505Y8311D01*
X-20505Y8311D01*
X-20494Y8320D01*
X-20491Y8345D01*
X-20480Y8382D01*
D01*
X-20480Y8382D01*
X-20473Y8396D01*
X-20462Y8416D01*
X-20437Y8446D01*
X-20437Y8446D01*
X-20437Y8446D01*
X-20407Y8471D01*
X-20399Y8476D01*
X-20394Y8484D01*
X-20369Y8514D01*
X-20369Y8514D01*
X-20369Y8514D01*
X-20358Y8523D01*
X-20358Y8532D01*
X-20356Y8548D01*
X-20356Y8548D01*
Y8548D01*
X-20349Y8571D01*
X-20345Y8585D01*
X-20345Y8585D01*
X-20345Y8585D01*
X-20332Y8608D01*
X-20326Y8619D01*
X-20326Y8619D01*
X-20326Y8619D01*
X-20312Y8637D01*
X-20302Y8649D01*
X-20302Y8649D01*
X-20302Y8649D01*
X-20291Y8658D01*
X-20288Y8683D01*
X-20277Y8720D01*
D01*
X-20277Y8720D01*
X-20270Y8734D01*
X-20259Y8755D01*
X-20234Y8785D01*
X-20234Y8785D01*
X-20234Y8785D01*
X-20223Y8794D01*
X-20221Y8819D01*
X-20209Y8856D01*
D01*
X-20209Y8856D01*
X-20202Y8869D01*
X-20191Y8890D01*
X-20167Y8920D01*
X-20166Y8920D01*
X-20166Y8920D01*
X-20155Y8929D01*
X-20153Y8954D01*
X-20142Y8991D01*
D01*
X-20142Y8991D01*
X-20134Y9004D01*
X-20123Y9025D01*
X-20099Y9055D01*
X-20099Y9055D01*
X-20099Y9055D01*
X-20088Y9064D01*
X-20085Y9089D01*
X-20074Y9126D01*
X-20056Y9161D01*
X-20031Y9190D01*
X-20020Y9200D01*
X-20018Y9224D01*
X-20006Y9262D01*
X-19988Y9296D01*
X-19964Y9326D01*
X-19952Y9335D01*
X-19950Y9360D01*
X-19939Y9397D01*
X-19920Y9431D01*
X-19896Y9461D01*
X-19866Y9486D01*
X-19857Y9490D01*
X-19853Y9499D01*
X-19828Y9529D01*
X-19817Y9538D01*
X-19815Y9563D01*
X-19804Y9600D01*
D01*
X-19804Y9600D01*
X-19796Y9613D01*
X-19785Y9634D01*
X-19761Y9664D01*
X-19761Y9664D01*
X-19761Y9664D01*
X-19749Y9673D01*
X-19747Y9698D01*
X-19736Y9735D01*
D01*
X-19736Y9735D01*
X-19729Y9749D01*
X-19718Y9769D01*
X-19693Y9799D01*
X-19693Y9799D01*
X-19693Y9799D01*
X-19682Y9808D01*
X-19679Y9833D01*
X-19668Y9871D01*
D01*
X-19668Y9871D01*
X-19661Y9884D01*
X-19650Y9905D01*
X-19625Y9935D01*
X-19625Y9935D01*
X-19625Y9935D01*
X-19614Y9944D01*
X-19612Y9969D01*
X-19601Y10006D01*
X-19582Y10040D01*
X-19558Y10070D01*
X-19547Y10079D01*
X-19544Y10104D01*
X-19533Y10141D01*
D01*
X-19533Y10141D01*
X-19526Y10154D01*
X-19515Y10175D01*
X-19490Y10205D01*
X-19490Y10205D01*
X-19490Y10205D01*
X-19479Y10214D01*
X-19477Y10239D01*
X-19465Y10276D01*
D01*
X-19465Y10276D01*
X-19458Y10290D01*
X-19447Y10311D01*
X-19422Y10340D01*
X-19422Y10341D01*
X-19422Y10341D01*
X-19411Y10350D01*
X-19409Y10375D01*
X-19398Y10412D01*
X-19379Y10446D01*
X-19355Y10476D01*
X-19325Y10500D01*
X-19316Y10505D01*
X-19312Y10514D01*
X-19287Y10543D01*
X-19287Y10543D01*
X-19287Y10543D01*
X-19276Y10553D01*
X-19274Y10577D01*
X-19262Y10615D01*
X-19244Y10649D01*
X-19219Y10679D01*
X-19208Y10688D01*
X-19206Y10713D01*
X-19195Y10750D01*
Y10750D01*
X-19195Y10750D01*
X-19187Y10763D01*
X-19176Y10784D01*
X-19152Y10814D01*
X-19152Y10814D01*
X-19152Y10814D01*
X-19141Y10823D01*
X-19138Y10848D01*
X-19127Y10885D01*
D01*
X-19127Y10885D01*
X-19120Y10899D01*
X-19109Y10919D01*
X-19084Y10949D01*
X-19084Y10949D01*
X-19084Y10949D01*
X-19073Y10959D01*
X-19071Y10983D01*
X-19059Y11021D01*
X-19041Y11055D01*
X-19016Y11085D01*
X-19005Y11094D01*
X-19005Y11095D01*
X-19003Y11119D01*
X-19003Y11119D01*
Y11119D01*
X-18997Y11137D01*
X-18992Y11156D01*
X-18992Y11156D01*
X-18992Y11156D01*
X-18983Y11172D01*
X-18973Y11190D01*
X-18973Y11190D01*
X-18973Y11190D01*
X-18968Y11196D01*
X-18949Y11220D01*
X-18949Y11220D01*
X-18949Y11220D01*
X-18938Y11229D01*
X-18937Y11232D01*
X-18935Y11254D01*
X-18935Y11254D01*
Y11254D01*
X-18929Y11275D01*
X-18924Y11291D01*
X-18924Y11291D01*
X-18924Y11291D01*
X-18915Y11308D01*
X-18906Y11325D01*
X-18906Y11325D01*
X-18906Y11325D01*
X-18896Y11338D01*
X-18881Y11355D01*
X-18881Y11355D01*
X-18881Y11355D01*
X-18870Y11364D01*
X-18868Y11389D01*
X-18856Y11426D01*
X-18838Y11461D01*
X-18813Y11491D01*
X-18783Y11515D01*
X-18775Y11520D01*
X-18770Y11528D01*
X-18746Y11558D01*
X-18735Y11567D01*
X-18732Y11592D01*
X-18721Y11629D01*
X-18703Y11664D01*
X-18678Y11694D01*
X-18667Y11703D01*
X-18665Y11728D01*
X-18653Y11765D01*
D01*
X-18653Y11765D01*
X-18646Y11778D01*
X-18635Y11799D01*
X-18611Y11829D01*
X-18611Y11829D01*
X-18610Y11829D01*
X-18599Y11838D01*
X-18597Y11863D01*
X-18586Y11900D01*
D01*
X-18586Y11900D01*
X-18579Y11913D01*
X-18567Y11934D01*
X-18543Y11964D01*
X-18543Y11964D01*
X-18543Y11964D01*
X-18532Y11973D01*
X-18529Y11998D01*
X-18518Y12035D01*
X-18504Y12061D01*
X-18504Y12061D01*
X-18513Y12066D01*
X-18543Y12090D01*
X-18543Y12090D01*
X-18543Y12090D01*
X-18567Y12120D01*
X-18572Y12129D01*
X-18581Y12133D01*
X-18611Y12158D01*
X-18635Y12188D01*
X-18637Y12192D01*
X-18640Y12196D01*
X-18648Y12201D01*
X-18648Y12201D01*
X-18648Y12201D01*
X-18666Y12216D01*
X-18678Y12226D01*
X-18678Y12226D01*
X-18678Y12226D01*
X-18688Y12237D01*
X-18703Y12256D01*
X-18703Y12256D01*
X-18703Y12256D01*
X-18709Y12267D01*
X-18721Y12290D01*
X-18721Y12290D01*
X-18721Y12290D01*
X-18725Y12303D01*
X-18732Y12327D01*
Y12327D01*
X-18732Y12327D01*
X-18734Y12343D01*
X-18735Y12352D01*
X-18746Y12361D01*
X-18746Y12361D01*
X-18746Y12361D01*
X-18770Y12391D01*
X-18775Y12399D01*
X-18783Y12404D01*
X-18813Y12429D01*
X-18838Y12459D01*
X-18843Y12467D01*
X-18851Y12472D01*
X-18851Y12472D01*
X-18851Y12472D01*
X-18869Y12487D01*
X-18881Y12496D01*
X-18881Y12496D01*
X-18881Y12496D01*
X-18891Y12508D01*
X-18906Y12526D01*
X-18906Y12526D01*
X-18906Y12526D01*
X-18912Y12537D01*
X-18924Y12560D01*
X-18924Y12560D01*
X-18924Y12560D01*
X-18928Y12574D01*
X-18935Y12597D01*
Y12597D01*
X-18935Y12597D01*
X-18937Y12613D01*
X-18938Y12622D01*
X-18949Y12631D01*
X-18949Y12631D01*
X-18949Y12631D01*
X-18973Y12662D01*
X-18978Y12670D01*
X-18986Y12675D01*
X-18986Y12675D01*
X-18986Y12675D01*
X-19005Y12689D01*
X-19016Y12699D01*
X-19016Y12699D01*
X-19016Y12699D01*
X-19026Y12711D01*
X-19041Y12729D01*
X-19041Y12729D01*
X-19041Y12729D01*
X-19046Y12738D01*
X-19054Y12742D01*
X-19084Y12767D01*
X-19109Y12797D01*
X-19111Y12800D01*
X-19113Y12805D01*
X-19122Y12810D01*
X-19152Y12834D01*
X-19176Y12865D01*
X-19195Y12899D01*
X-19206Y12936D01*
X-19208Y12961D01*
X-19219Y12970D01*
X-19219Y12970D01*
X-19219Y12970D01*
X-19244Y13000D01*
X-19249Y13008D01*
X-19257Y13013D01*
X-19287Y13037D01*
X-19287Y13037D01*
X-19287Y13037D01*
X-19312Y13067D01*
X-19316Y13076D01*
X-19325Y13081D01*
X-19355Y13105D01*
X-19379Y13135D01*
X-19398Y13169D01*
X-19409Y13206D01*
X-19411Y13231D01*
X-19422Y13240D01*
X-19422Y13240D01*
X-19422Y13240D01*
X-19447Y13270D01*
X-19452Y13279D01*
X-19460Y13283D01*
X-19490Y13308D01*
X-19490Y13308D01*
X-19490Y13308D01*
X-19515Y13338D01*
X-19519Y13347D01*
X-19528Y13351D01*
X-19558Y13376D01*
X-19558Y13376D01*
X-19558Y13376D01*
X-19582Y13406D01*
X-19593Y13426D01*
X-19601Y13440D01*
X-19601Y13440D01*
D01*
X-19612Y13477D01*
X-19614Y13502D01*
X-19625Y13511D01*
X-19625Y13511D01*
X-19625Y13511D01*
X-19650Y13541D01*
X-19655Y13550D01*
X-19663Y13554D01*
X-19693Y13579D01*
X-19693Y13579D01*
X-19693Y13579D01*
X-19717Y13609D01*
X-19722Y13617D01*
X-19731Y13622D01*
X-19731Y13622D01*
X-19731Y13622D01*
X-19749Y13637D01*
X-19761Y13646D01*
X-19761Y13646D01*
X-19761Y13646D01*
X-19770Y13658D01*
X-19785Y13676D01*
X-19785Y13676D01*
X-19785Y13676D01*
X-19790Y13685D01*
X-19798Y13689D01*
X-19798Y13689D01*
X-19798Y13689D01*
X-19816Y13704D01*
X-19828Y13714D01*
X-19828Y13714D01*
X-19828Y13714D01*
X-19838Y13726D01*
X-19853Y13744D01*
X-19853Y13744D01*
X-19853Y13744D01*
X-19859Y13755D01*
X-19871Y13778D01*
X-19871Y13778D01*
X-19871Y13778D01*
X-19875Y13792D01*
X-19882Y13815D01*
Y13815D01*
X-19882Y13815D01*
X-19884Y13831D01*
X-19885Y13840D01*
X-19896Y13849D01*
X-19920Y13879D01*
X-19925Y13888D01*
X-19934Y13892D01*
X-19964Y13917D01*
X-19988Y13947D01*
X-19993Y13955D01*
X-20001Y13960D01*
X-20031Y13984D01*
X-20056Y14015D01*
X-20074Y14049D01*
X-20085Y14086D01*
X-20088Y14111D01*
X-20099Y14120D01*
X-20123Y14150D01*
X-20125Y14153D01*
X-20128Y14158D01*
X-20136Y14163D01*
X-20166Y14187D01*
X-20166Y14187D01*
X-20166Y14187D01*
X-20191Y14218D01*
X-20196Y14226D01*
X-20204Y14231D01*
X-20234Y14255D01*
X-20234Y14255D01*
X-20234Y14255D01*
X-20259Y14285D01*
X-20270Y14306D01*
X-20277Y14319D01*
X-20277Y14319D01*
D01*
X-20288Y14356D01*
X-20291Y14381D01*
X-20302Y14390D01*
X-20326Y14420D01*
X-20331Y14429D01*
X-20339Y14433D01*
X-20369Y14458D01*
X-20369Y14458D01*
X-20369Y14458D01*
X-20394Y14488D01*
X-20399Y14497D01*
X-20407Y14501D01*
X-20437Y14526D01*
X-20462Y14556D01*
X-20466Y14564D01*
X-20475Y14569D01*
X-20505Y14593D01*
X-20529Y14623D01*
X-20548Y14658D01*
X-20559Y14695D01*
X-20560Y14704D01*
X-20561Y14720D01*
X-20572Y14729D01*
X-20597Y14759D01*
X-20602Y14767D01*
X-20610Y14772D01*
X-20640Y14796D01*
X-20665Y14826D01*
X-20669Y14835D01*
X-20678Y14839D01*
X-20708Y14864D01*
X-20732Y14894D01*
X-20751Y14928D01*
X-20762Y14965D01*
X-20764Y14990D01*
X-20775Y14999D01*
X-20775Y14999D01*
X-20775Y14999D01*
X-20800Y15029D01*
X-20805Y15038D01*
X-20813Y15042D01*
X-20843Y15067D01*
X-20868Y15097D01*
X-20872Y15105D01*
X-20872Y15105D01*
X-20881Y15110D01*
X-20911Y15135D01*
X-20935Y15165D01*
X-20954Y15199D01*
X-20965Y15236D01*
X-20967Y15261D01*
X-20978Y15270D01*
X-20978Y15270D01*
X-20978Y15270D01*
X-21003Y15300D01*
X-21008Y15308D01*
X-21016Y15313D01*
X-21046Y15337D01*
X-21071Y15368D01*
X-21073Y15371D01*
X-21075Y15376D01*
X-21084Y15381D01*
X-21114Y15405D01*
X-21114Y15405D01*
X-21114Y15405D01*
X-21138Y15435D01*
X-21143Y15444D01*
X-21151Y15448D01*
X-21181Y15473D01*
X-21181Y15473D01*
X-21181Y15473D01*
X-21206Y15503D01*
X-21217Y15524D01*
X-21224Y15537D01*
X-21224Y15537D01*
D01*
X-21235Y15574D01*
X-21238Y15599D01*
X-21249Y15608D01*
X-21249Y15608D01*
X-21249Y15608D01*
X-21273Y15638D01*
X-21278Y15647D01*
X-21287Y15651D01*
X-21317Y15676D01*
X-21341Y15706D01*
X-21343Y15709D01*
X-21346Y15714D01*
X-21354Y15719D01*
X-21384Y15743D01*
X-21384Y15743D01*
X-21384Y15743D01*
X-21409Y15773D01*
X-21420Y15794D01*
X-21427Y15808D01*
X-21427Y15808D01*
D01*
X-21438Y15845D01*
X-21441Y15870D01*
X-21452Y15879D01*
X-21452Y15879D01*
X-21452Y15879D01*
X-21476Y15909D01*
X-21481Y15917D01*
X-21489Y15922D01*
X-21520Y15946D01*
X-21544Y15976D01*
X-21549Y15985D01*
X-21557Y15989D01*
X-21587Y16014D01*
X-21612Y16044D01*
X-21630Y16078D01*
X-21641Y16115D01*
X-21644Y16140D01*
X-21655Y16149D01*
X-21679Y16179D01*
X-21684Y16188D01*
X-21692Y16192D01*
X-21723Y16217D01*
X-21723Y16217D01*
X-21723Y16217D01*
X-21747Y16247D01*
X-21752Y16255D01*
X-21760Y16260D01*
X-21790Y16285D01*
X-21815Y16315D01*
X-21819Y16323D01*
X-21828Y16328D01*
X-21858Y16352D01*
X-21882Y16382D01*
X-21901Y16417D01*
X-21912Y16454D01*
X-21914Y16478D01*
X-21926Y16488D01*
X-21950Y16518D01*
X-21955Y16526D01*
X-21963Y16531D01*
X-21993Y16555D01*
X-21993Y16555D01*
X-21993Y16555D01*
X-22018Y16585D01*
X-22022Y16594D01*
X-22031Y16598D01*
X-22061Y16623D01*
X-22061Y16623D01*
X-22061Y16623D01*
X-22085Y16653D01*
X-22096Y16674D01*
X-22104Y16687D01*
X-22104Y16687D01*
D01*
X-22115Y16724D01*
X-22117Y16749D01*
X-22128Y16758D01*
X-22153Y16788D01*
X-22158Y16797D01*
X-22166Y16801D01*
X-22196Y16826D01*
X-22221Y16856D01*
X-22225Y16864D01*
X-22234Y16869D01*
X-22264Y16894D01*
X-22264Y16894D01*
X-22264Y16894D01*
X-22288Y16924D01*
X-22299Y16944D01*
X-22307Y16958D01*
X-22307Y16958D01*
D01*
X-22318Y16995D01*
X-22320Y17020D01*
X-22331Y17029D01*
X-22356Y17059D01*
X-22374Y17093D01*
X-22386Y17130D01*
X-22389Y17169D01*
Y17236D01*
X-22386Y17275D01*
X-22374Y17312D01*
X-22356Y17346D01*
X-22331Y17376D01*
X-22301Y17401D01*
X-22267Y17419D01*
X-22230Y17430D01*
X-22192Y17434D01*
X-18065D01*
X-18026Y17430D01*
X-17989Y17419D01*
X-17955Y17401D01*
X-17925Y17376D01*
X-17900Y17346D01*
X-17896Y17338D01*
X-17887Y17333D01*
X-17857Y17309D01*
X-17833Y17278D01*
X-17814Y17244D01*
X-17803Y17207D01*
X-17801Y17182D01*
X-17790Y17173D01*
X-17765Y17143D01*
X-17761Y17135D01*
X-17752Y17130D01*
X-17722Y17106D01*
X-17697Y17076D01*
X-17679Y17041D01*
X-17668Y17004D01*
X-17665Y16979D01*
X-17654Y16970D01*
X-17630Y16940D01*
X-17625Y16932D01*
X-17617Y16927D01*
X-17587Y16903D01*
X-17587Y16903D01*
X-17587Y16903D01*
X-17562Y16873D01*
X-17551Y16852D01*
X-17544Y16838D01*
X-17544Y16838D01*
Y16838D01*
X-17533Y16801D01*
X-17530Y16776D01*
X-17519Y16767D01*
X-17494Y16737D01*
X-17476Y16703D01*
X-17465Y16666D01*
X-17462Y16641D01*
X-17451Y16632D01*
X-17451Y16632D01*
X-17451Y16632D01*
X-17427Y16602D01*
X-17422Y16593D01*
X-17414Y16589D01*
X-17384Y16564D01*
X-17384Y16564D01*
X-17384Y16564D01*
X-17359Y16534D01*
X-17348Y16514D01*
X-17341Y16500D01*
X-17341Y16500D01*
D01*
X-17330Y16463D01*
X-17327Y16438D01*
X-17316Y16429D01*
X-17316Y16429D01*
X-17316Y16429D01*
X-17291Y16399D01*
X-17287Y16391D01*
X-17278Y16386D01*
X-17248Y16361D01*
X-17224Y16331D01*
X-17206Y16297D01*
X-17194Y16260D01*
X-17192Y16235D01*
X-17181Y16226D01*
X-17181Y16226D01*
X-17181Y16226D01*
X-17156Y16196D01*
X-17152Y16188D01*
X-17143Y16183D01*
X-17113Y16159D01*
X-17088Y16128D01*
X-17070Y16094D01*
X-17059Y16057D01*
X-17056Y16032D01*
X-17045Y16023D01*
X-17045Y16023D01*
X-17045Y16023D01*
X-17021Y15993D01*
X-17016Y15985D01*
X-17008Y15980D01*
X-16978Y15956D01*
X-16978Y15956D01*
X-16978Y15956D01*
X-16953Y15925D01*
X-16942Y15905D01*
X-16935Y15891D01*
X-16935Y15891D01*
D01*
X-16924Y15854D01*
X-16921Y15829D01*
X-16916Y15825D01*
X-16910Y15820D01*
X-16886Y15790D01*
X-16881Y15782D01*
X-16872Y15777D01*
X-16842Y15753D01*
X-16842Y15753D01*
X-16842Y15753D01*
X-16818Y15723D01*
X-16807Y15702D01*
X-16800Y15688D01*
X-16800Y15688D01*
Y15688D01*
X-16788Y15651D01*
X-16786Y15626D01*
X-16775Y15617D01*
X-16750Y15587D01*
X-16746Y15579D01*
X-16737Y15574D01*
X-16707Y15550D01*
X-16707Y15550D01*
X-16707Y15550D01*
X-16683Y15520D01*
X-16671Y15499D01*
X-16664Y15485D01*
X-16664Y15485D01*
D01*
X-16659Y15469D01*
X-16659Y15469D01*
X-16649Y15482D01*
X-16639Y15490D01*
Y15545D01*
X-16638Y15556D01*
X-16635Y15584D01*
X-16624Y15621D01*
D01*
X-16624Y15621D01*
X-16617Y15634D01*
X-16606Y15655D01*
X-16581Y15685D01*
X-16581Y15685D01*
X-16581Y15685D01*
X-16571Y15693D01*
X-16571Y15748D01*
Y15816D01*
X-16567Y15854D01*
X-16556Y15891D01*
X-16538Y15925D01*
X-16513Y15956D01*
X-16504Y15964D01*
X-16504Y16019D01*
X-16502Y16030D01*
X-16500Y16057D01*
X-16489Y16094D01*
D01*
X-16489Y16094D01*
X-16481Y16108D01*
X-16470Y16128D01*
X-16446Y16159D01*
X-16446Y16159D01*
X-16446Y16159D01*
X-16435Y16168D01*
X-16432Y16193D01*
X-16421Y16230D01*
D01*
X-16421Y16230D01*
X-16414Y16243D01*
X-16403Y16264D01*
X-16378Y16294D01*
X-16378Y16294D01*
X-16378Y16294D01*
X-16368Y16302D01*
Y16357D01*
Y16424D01*
X-16365Y16463D01*
X-16353Y16500D01*
X-16335Y16534D01*
X-16310Y16564D01*
X-16301Y16572D01*
Y16627D01*
X-16297Y16666D01*
X-16286Y16703D01*
X-16267Y16737D01*
X-16243Y16767D01*
X-16233Y16775D01*
X-16233Y16830D01*
X-16231Y16848D01*
X-16229Y16869D01*
X-16229Y16869D01*
Y16869D01*
X-16223Y16890D01*
X-16218Y16906D01*
X-16218Y16906D01*
X-16218Y16906D01*
X-16209Y16923D01*
X-16200Y16940D01*
X-16200Y16940D01*
X-16200Y16940D01*
X-16190Y16953D01*
X-16175Y16970D01*
X-16175Y16970D01*
X-16175Y16970D01*
X-16165Y16978D01*
Y17033D01*
X-16162Y17072D01*
X-16150Y17109D01*
X-16132Y17143D01*
X-16107Y17173D01*
X-16098Y17181D01*
Y17236D01*
X-16094Y17275D01*
X-16083Y17312D01*
X-16064Y17346D01*
X-16040Y17376D01*
X-16010Y17401D01*
X-15976Y17419D01*
X-15939Y17430D01*
X-15900Y17434D01*
X-11706Y17434D01*
D02*
G37*
G36*
X1066746Y-182142D02*
X1066460D01*
Y-182428D01*
X1066174D01*
Y-182714D01*
Y-183001D01*
X1065887D01*
Y-183287D01*
X1065601D01*
Y-183573D01*
X1065315D01*
Y-183860D01*
Y-184146D01*
X1065028D01*
Y-184432D01*
X1064742D01*
Y-184719D01*
X1064456D01*
Y-185005D01*
X1064169D01*
Y-185291D01*
Y-185577D01*
X1063883D01*
Y-185864D01*
X1063597D01*
Y-186150D01*
X1063310D01*
Y-186436D01*
Y-186723D01*
X1063024D01*
Y-187009D01*
X1062738D01*
Y-187295D01*
X1062451D01*
Y-187582D01*
X1062165D01*
Y-187868D01*
Y-188154D01*
X1061879D01*
Y-188441D01*
X1061593D01*
Y-188727D01*
X1061306D01*
Y-189013D01*
Y-189299D01*
X1061020D01*
Y-189586D01*
X1060734D01*
Y-189872D01*
X1060447D01*
Y-190158D01*
Y-190445D01*
X1060161D01*
Y-190731D01*
X1059875D01*
Y-191017D01*
X1059588D01*
Y-191304D01*
X1059302D01*
Y-191590D01*
Y-191876D01*
X1059016D01*
Y-192163D01*
X1058729D01*
Y-192449D01*
X1058443D01*
Y-192735D01*
Y-193022D01*
X1058157D01*
Y-193308D01*
X1057870D01*
Y-193594D01*
X1057584D01*
Y-193880D01*
Y-194167D01*
X1057298D01*
Y-194453D01*
X1057012D01*
Y-194739D01*
X1056725D01*
Y-195026D01*
X1056439D01*
Y-195312D01*
Y-195598D01*
X1056153D01*
Y-195885D01*
X1055866D01*
Y-196171D01*
X1055580D01*
Y-196457D01*
Y-196744D01*
X1055294D01*
Y-197030D01*
X1055007D01*
Y-197316D01*
X1054721D01*
Y-197603D01*
Y-197889D01*
X1054435D01*
Y-198175D01*
X1054148D01*
Y-198461D01*
X1053862D01*
Y-198748D01*
X1053576D01*
Y-199034D01*
Y-199320D01*
X1053290D01*
Y-199607D01*
X1053003D01*
Y-199893D01*
X1052717D01*
Y-200179D01*
Y-200466D01*
X1052431D01*
Y-200752D01*
X1052144D01*
Y-201038D01*
X1051858D01*
Y-201325D01*
X1051572D01*
Y-201611D01*
Y-201897D01*
X1051858D01*
Y-202184D01*
Y-202470D01*
X1052144D01*
Y-202756D01*
Y-203043D01*
X1052431D01*
Y-203329D01*
X1052717D01*
Y-203615D01*
Y-203902D01*
X1053003D01*
Y-204188D01*
Y-204474D01*
X1053290D01*
Y-204760D01*
Y-205047D01*
X1053576D01*
Y-205333D01*
Y-205619D01*
X1053862D01*
Y-205906D01*
Y-206192D01*
X1054148D01*
Y-206478D01*
Y-206765D01*
X1054435D01*
Y-207051D01*
Y-207337D01*
X1054721D01*
Y-207624D01*
Y-207910D01*
X1055007D01*
Y-208196D01*
X1055294D01*
Y-208483D01*
Y-208769D01*
X1055580D01*
Y-209055D01*
Y-209341D01*
X1055866D01*
Y-209628D01*
Y-209914D01*
X1056153D01*
Y-210200D01*
Y-210487D01*
X1056439D01*
Y-210773D01*
Y-211059D01*
X1056725D01*
Y-211346D01*
Y-211632D01*
X1057012D01*
Y-211918D01*
Y-212205D01*
X1057298D01*
Y-212491D01*
X1057584D01*
Y-212777D01*
Y-213064D01*
X1057870D01*
Y-213350D01*
Y-213636D01*
X1058157D01*
Y-213922D01*
Y-214209D01*
X1058443D01*
Y-214495D01*
Y-214781D01*
X1058729D01*
Y-215068D01*
Y-215354D01*
X1059016D01*
Y-215640D01*
Y-215927D01*
X1059302D01*
Y-216213D01*
Y-216499D01*
X1059588D01*
Y-216786D01*
X1059875D01*
Y-217072D01*
Y-217358D01*
X1060161D01*
Y-217645D01*
Y-217931D01*
X1060447D01*
Y-218217D01*
X1045273D01*
Y-217931D01*
X1044986D01*
Y-217645D01*
Y-217358D01*
Y-217072D01*
X1044700D01*
Y-216786D01*
Y-216499D01*
Y-216213D01*
X1044414D01*
Y-215927D01*
Y-215640D01*
X1044127D01*
Y-215354D01*
Y-215068D01*
Y-214781D01*
X1043841D01*
Y-214495D01*
Y-214209D01*
Y-213922D01*
X1043555D01*
Y-213636D01*
Y-213350D01*
X1043268D01*
Y-213064D01*
Y-212777D01*
Y-212491D01*
X1042982D01*
Y-212205D01*
Y-211918D01*
Y-211632D01*
X1042696D01*
Y-211346D01*
Y-211059D01*
Y-210773D01*
X1042410D01*
Y-210487D01*
X1041837D01*
Y-210773D01*
Y-211059D01*
X1041551D01*
Y-211346D01*
X1041264D01*
Y-211632D01*
Y-211918D01*
X1040978D01*
Y-212205D01*
X1040692D01*
Y-212491D01*
Y-212777D01*
X1040405D01*
Y-213064D01*
X1040119D01*
Y-213350D01*
Y-213636D01*
X1039833D01*
Y-213922D01*
X1039546D01*
Y-214209D01*
X1039260D01*
Y-214495D01*
Y-214781D01*
X1038974D01*
Y-215068D01*
X1038688D01*
Y-215354D01*
Y-215640D01*
X1038401D01*
Y-215927D01*
X1038115D01*
Y-216213D01*
Y-216499D01*
X1037829D01*
Y-216786D01*
X1037542D01*
Y-217072D01*
Y-217358D01*
X1037256D01*
Y-217645D01*
X1036970D01*
Y-217931D01*
Y-218217D01*
X1020936D01*
Y-217931D01*
X1021222D01*
Y-217645D01*
X1021509D01*
Y-217358D01*
X1021795D01*
Y-217072D01*
X1022081D01*
Y-216786D01*
Y-216499D01*
X1022368D01*
Y-216213D01*
X1022654D01*
Y-215927D01*
X1022940D01*
Y-215640D01*
X1023227D01*
Y-215354D01*
Y-215068D01*
X1023513D01*
Y-214781D01*
X1023799D01*
Y-214495D01*
X1024086D01*
Y-214209D01*
Y-213922D01*
X1024372D01*
Y-213636D01*
X1024658D01*
Y-213350D01*
X1024944D01*
Y-213064D01*
X1025231D01*
Y-212777D01*
Y-212491D01*
X1025517D01*
Y-212205D01*
X1025803D01*
Y-211918D01*
X1026090D01*
Y-211632D01*
X1026376D01*
Y-211346D01*
Y-211059D01*
X1026662D01*
Y-210773D01*
X1026949D01*
Y-210487D01*
X1027235D01*
Y-210200D01*
Y-209914D01*
X1027521D01*
Y-209628D01*
X1027808D01*
Y-209341D01*
X1028094D01*
Y-209055D01*
X1028380D01*
Y-208769D01*
Y-208483D01*
X1028667D01*
Y-208196D01*
X1028953D01*
Y-207910D01*
X1029239D01*
Y-207624D01*
Y-207337D01*
X1029525D01*
Y-207051D01*
X1029812D01*
Y-206765D01*
X1030098D01*
Y-206478D01*
X1030385D01*
Y-206192D01*
Y-205906D01*
X1030671D01*
Y-205619D01*
X1030957D01*
Y-205333D01*
X1031243D01*
Y-205047D01*
Y-204760D01*
X1031530D01*
Y-204474D01*
X1031816D01*
Y-204188D01*
X1032102D01*
Y-203902D01*
X1032389D01*
Y-203615D01*
Y-203329D01*
X1032675D01*
Y-203043D01*
X1032961D01*
Y-202756D01*
X1033248D01*
Y-202470D01*
X1033534D01*
Y-202184D01*
Y-201897D01*
X1033820D01*
Y-201611D01*
X1034107D01*
Y-201325D01*
X1034393D01*
Y-201038D01*
Y-200752D01*
X1034679D01*
Y-200466D01*
X1034966D01*
Y-200179D01*
X1035252D01*
Y-199893D01*
X1035538D01*
Y-199607D01*
Y-199320D01*
X1035824D01*
Y-199034D01*
Y-198748D01*
Y-198461D01*
X1035538D01*
Y-198175D01*
X1035252D01*
Y-197889D01*
Y-197603D01*
X1034966D01*
Y-197316D01*
Y-197030D01*
X1034679D01*
Y-196744D01*
Y-196457D01*
X1034393D01*
Y-196171D01*
Y-195885D01*
X1034107D01*
Y-195598D01*
Y-195312D01*
X1033820D01*
Y-195026D01*
Y-194739D01*
X1033534D01*
Y-194453D01*
X1033248D01*
Y-194167D01*
Y-193880D01*
X1032961D01*
Y-193594D01*
Y-193308D01*
X1032675D01*
Y-193022D01*
Y-192735D01*
X1032389D01*
Y-192449D01*
Y-192163D01*
X1032102D01*
Y-191876D01*
Y-191590D01*
X1031816D01*
Y-191304D01*
Y-191017D01*
X1031530D01*
Y-190731D01*
X1031243D01*
Y-190445D01*
Y-190158D01*
X1030957D01*
Y-189872D01*
Y-189586D01*
X1030671D01*
Y-189299D01*
Y-189013D01*
X1030385D01*
Y-188727D01*
Y-188441D01*
X1030098D01*
Y-188154D01*
Y-187868D01*
X1029812D01*
Y-187582D01*
Y-187295D01*
X1029525D01*
Y-187009D01*
Y-186723D01*
X1029239D01*
Y-186436D01*
X1028953D01*
Y-186150D01*
Y-185864D01*
X1028667D01*
Y-185577D01*
Y-185291D01*
X1028380D01*
Y-185005D01*
Y-184719D01*
X1028094D01*
Y-184432D01*
Y-184146D01*
X1027808D01*
Y-183860D01*
Y-183573D01*
X1027521D01*
Y-183287D01*
Y-183001D01*
X1027235D01*
Y-182714D01*
X1026949D01*
Y-182428D01*
Y-182142D01*
X1026662D01*
Y-181855D01*
X1042410D01*
Y-182142D01*
X1042696D01*
Y-182428D01*
Y-182714D01*
Y-183001D01*
X1042982D01*
Y-183287D01*
Y-183573D01*
Y-183860D01*
X1043268D01*
Y-184146D01*
Y-184432D01*
Y-184719D01*
X1043555D01*
Y-185005D01*
Y-185291D01*
Y-185577D01*
X1043841D01*
Y-185864D01*
Y-186150D01*
Y-186436D01*
X1044127D01*
Y-186723D01*
Y-187009D01*
Y-187295D01*
X1044414D01*
Y-187582D01*
Y-187868D01*
Y-188154D01*
X1044700D01*
Y-188441D01*
Y-188727D01*
Y-189013D01*
X1044986D01*
Y-189299D01*
Y-189586D01*
Y-189872D01*
Y-190158D01*
X1045559D01*
Y-189872D01*
X1045845D01*
Y-189586D01*
X1046132D01*
Y-189299D01*
Y-189013D01*
X1046418D01*
Y-188727D01*
X1046704D01*
Y-188441D01*
Y-188154D01*
X1046991D01*
Y-187868D01*
X1047277D01*
Y-187582D01*
Y-187295D01*
X1047563D01*
Y-187009D01*
X1047850D01*
Y-186723D01*
Y-186436D01*
X1048136D01*
Y-186150D01*
X1048422D01*
Y-185864D01*
Y-185577D01*
X1048709D01*
Y-185291D01*
X1048995D01*
Y-185005D01*
Y-184719D01*
X1049281D01*
Y-184432D01*
X1049567D01*
Y-184146D01*
Y-183860D01*
X1049854D01*
Y-183573D01*
X1050140D01*
Y-183287D01*
Y-183001D01*
X1050426D01*
Y-182714D01*
X1050713D01*
Y-182428D01*
Y-182142D01*
X1050999D01*
Y-181855D01*
X1066746D01*
Y-182142D01*
D02*
G37*
G36*
X933611Y-168112D02*
X935329D01*
Y-168399D01*
X936188D01*
Y-168685D01*
X937047D01*
Y-168971D01*
X937905D01*
Y-169258D01*
X938478D01*
Y-169544D01*
X938764D01*
Y-169830D01*
X939337D01*
Y-170117D01*
X939623D01*
Y-170403D01*
X940196D01*
Y-170689D01*
X940482D01*
Y-170975D01*
X940769D01*
Y-171262D01*
X941055D01*
Y-171548D01*
X941341D01*
Y-171834D01*
X941628D01*
Y-172121D01*
X941914D01*
Y-172407D01*
Y-172693D01*
X942200D01*
Y-172980D01*
X942486D01*
Y-173266D01*
Y-173552D01*
X942773D01*
Y-173839D01*
X943059D01*
Y-174125D01*
Y-174411D01*
X943345D01*
Y-174698D01*
Y-174984D01*
Y-175270D01*
X943632D01*
Y-175557D01*
Y-175843D01*
Y-176129D01*
X943918D01*
Y-176415D01*
Y-176702D01*
Y-176988D01*
Y-177274D01*
X944204D01*
Y-177561D01*
Y-177847D01*
Y-178133D01*
Y-178420D01*
Y-178706D01*
X944491D01*
Y-178992D01*
Y-179279D01*
Y-179565D01*
Y-179851D01*
Y-180138D01*
Y-180424D01*
Y-180710D01*
Y-180997D01*
Y-181283D01*
Y-181569D01*
Y-181855D01*
Y-182142D01*
Y-182428D01*
Y-182714D01*
Y-183001D01*
Y-183287D01*
Y-183573D01*
Y-183860D01*
Y-184146D01*
Y-184432D01*
X944204D01*
Y-184719D01*
Y-185005D01*
Y-185291D01*
Y-185577D01*
Y-185864D01*
Y-186150D01*
Y-186436D01*
X943918D01*
Y-186723D01*
Y-187009D01*
Y-187295D01*
Y-187582D01*
Y-187868D01*
X943632D01*
Y-188154D01*
Y-188441D01*
Y-188727D01*
Y-189013D01*
Y-189299D01*
X943345D01*
Y-189586D01*
Y-189872D01*
Y-190158D01*
X943059D01*
Y-190445D01*
Y-190731D01*
Y-191017D01*
Y-191304D01*
X942773D01*
Y-191590D01*
Y-191876D01*
Y-192163D01*
X942486D01*
Y-192449D01*
Y-192735D01*
X942200D01*
Y-193022D01*
Y-193308D01*
Y-193594D01*
X941914D01*
Y-193880D01*
Y-194167D01*
X941628D01*
Y-194453D01*
Y-194739D01*
X941341D01*
Y-195026D01*
Y-195312D01*
X941055D01*
Y-195598D01*
X940769D01*
Y-195885D01*
Y-196171D01*
X940482D01*
Y-196457D01*
X940196D01*
Y-196744D01*
X939910D01*
Y-197030D01*
Y-197316D01*
X939623D01*
Y-197603D01*
X939337D01*
Y-197889D01*
X939051D01*
Y-198175D01*
X938764D01*
Y-198461D01*
X938478D01*
Y-198748D01*
X937905D01*
Y-199034D01*
X937619D01*
Y-199320D01*
X937047D01*
Y-199607D01*
X936760D01*
Y-199893D01*
X936188D01*
Y-200179D01*
X935329D01*
Y-200466D01*
X934470D01*
Y-200752D01*
X933611D01*
Y-201038D01*
X931893D01*
Y-201325D01*
X926739D01*
Y-201038D01*
X924162D01*
Y-200752D01*
X922158D01*
Y-200466D01*
X920727D01*
Y-200179D01*
X919295D01*
Y-199893D01*
X917863D01*
Y-200179D01*
Y-200466D01*
Y-200752D01*
Y-201038D01*
Y-201325D01*
Y-201611D01*
Y-201897D01*
X917577D01*
Y-202184D01*
Y-202470D01*
Y-202756D01*
Y-203043D01*
Y-203329D01*
Y-203615D01*
X917291D01*
Y-203902D01*
Y-204188D01*
Y-204474D01*
Y-204760D01*
Y-205047D01*
Y-205333D01*
X917005D01*
Y-205619D01*
Y-205906D01*
Y-206192D01*
Y-206478D01*
Y-206765D01*
Y-207051D01*
Y-207337D01*
X916718D01*
Y-207624D01*
Y-207910D01*
Y-208196D01*
Y-208483D01*
Y-208769D01*
Y-209055D01*
X916432D01*
Y-209341D01*
Y-209628D01*
Y-209914D01*
Y-210200D01*
Y-210487D01*
Y-210773D01*
X916146D01*
Y-211059D01*
Y-211346D01*
Y-211632D01*
Y-211918D01*
Y-212205D01*
Y-212491D01*
Y-212777D01*
X915859D01*
Y-213064D01*
Y-213350D01*
Y-213636D01*
Y-213922D01*
Y-214209D01*
Y-214495D01*
X915573D01*
Y-214781D01*
Y-215068D01*
Y-215354D01*
Y-215640D01*
Y-215927D01*
Y-216213D01*
X915287D01*
Y-216499D01*
Y-216786D01*
Y-217072D01*
Y-217358D01*
Y-217645D01*
Y-217931D01*
Y-218217D01*
X901830D01*
Y-217931D01*
X902116D01*
Y-217645D01*
Y-217358D01*
Y-217072D01*
Y-216786D01*
Y-216499D01*
X902403D01*
Y-216213D01*
Y-215927D01*
Y-215640D01*
Y-215354D01*
Y-215068D01*
Y-214781D01*
Y-214495D01*
X902689D01*
Y-214209D01*
Y-213922D01*
Y-213636D01*
Y-213350D01*
Y-213064D01*
Y-212777D01*
X902975D01*
Y-212491D01*
Y-212205D01*
Y-211918D01*
Y-211632D01*
Y-211346D01*
Y-211059D01*
X903262D01*
Y-210773D01*
Y-210487D01*
Y-210200D01*
Y-209914D01*
Y-209628D01*
Y-209341D01*
Y-209055D01*
X903548D01*
Y-208769D01*
Y-208483D01*
Y-208196D01*
Y-207910D01*
Y-207624D01*
Y-207337D01*
X903834D01*
Y-207051D01*
Y-206765D01*
Y-206478D01*
Y-206192D01*
Y-205906D01*
Y-205619D01*
X904121D01*
Y-205333D01*
Y-205047D01*
Y-204760D01*
Y-204474D01*
Y-204188D01*
Y-203902D01*
X904407D01*
Y-203615D01*
Y-203329D01*
Y-203043D01*
Y-202756D01*
Y-202470D01*
Y-202184D01*
Y-201897D01*
X904693D01*
Y-201611D01*
Y-201325D01*
Y-201038D01*
Y-200752D01*
Y-200466D01*
Y-200179D01*
X904979D01*
Y-199893D01*
Y-199607D01*
Y-199320D01*
Y-199034D01*
Y-198748D01*
Y-198461D01*
X905266D01*
Y-198175D01*
Y-197889D01*
Y-197603D01*
Y-197316D01*
Y-197030D01*
Y-196744D01*
X905552D01*
Y-196457D01*
Y-196171D01*
Y-195885D01*
Y-195598D01*
Y-195312D01*
Y-195026D01*
Y-194739D01*
X905838D01*
Y-194453D01*
Y-194167D01*
Y-193880D01*
Y-193594D01*
Y-193308D01*
Y-193022D01*
X906125D01*
Y-192735D01*
Y-192449D01*
Y-192163D01*
Y-191876D01*
Y-191590D01*
Y-191304D01*
X906411D01*
Y-191017D01*
Y-190731D01*
Y-190445D01*
Y-190158D01*
Y-189872D01*
Y-189586D01*
Y-189299D01*
X906697D01*
Y-189013D01*
Y-188727D01*
Y-188441D01*
Y-188154D01*
Y-187868D01*
Y-187582D01*
X906984D01*
Y-187295D01*
Y-187009D01*
Y-186723D01*
Y-186436D01*
Y-186150D01*
Y-185864D01*
X907270D01*
Y-185577D01*
Y-185291D01*
Y-185005D01*
Y-184719D01*
Y-184432D01*
Y-184146D01*
X907556D01*
Y-183860D01*
Y-183573D01*
Y-183287D01*
Y-183001D01*
Y-182714D01*
Y-182428D01*
Y-182142D01*
X907843D01*
Y-181855D01*
Y-181569D01*
Y-181283D01*
Y-180997D01*
Y-180710D01*
Y-180424D01*
X908129D01*
Y-180138D01*
Y-179851D01*
Y-179565D01*
Y-179279D01*
Y-178992D01*
Y-178706D01*
X908415D01*
Y-178420D01*
Y-178133D01*
Y-177847D01*
Y-177561D01*
Y-177274D01*
Y-176988D01*
Y-176702D01*
X908702D01*
Y-176415D01*
Y-176129D01*
Y-175843D01*
Y-175557D01*
Y-175270D01*
Y-174984D01*
X908988D01*
Y-174698D01*
Y-174411D01*
Y-174125D01*
Y-173839D01*
Y-173552D01*
Y-173266D01*
X909274D01*
Y-172980D01*
Y-172693D01*
Y-172407D01*
Y-172121D01*
Y-171834D01*
Y-171548D01*
Y-171262D01*
X909560D01*
Y-170975D01*
Y-170689D01*
Y-170403D01*
Y-170117D01*
Y-169830D01*
Y-169544D01*
X909847D01*
Y-169258D01*
Y-168971D01*
Y-168685D01*
Y-168399D01*
Y-168112D01*
Y-167826D01*
X933611D01*
Y-168112D01*
D02*
G37*
G36*
X1022654Y-182142D02*
Y-182428D01*
Y-182714D01*
Y-183001D01*
Y-183287D01*
Y-183573D01*
Y-183860D01*
Y-184146D01*
Y-184432D01*
Y-184719D01*
Y-185005D01*
Y-185291D01*
Y-185577D01*
Y-185864D01*
Y-186150D01*
Y-186436D01*
Y-186723D01*
Y-187009D01*
Y-187295D01*
Y-187582D01*
Y-187868D01*
X1022368D01*
Y-188154D01*
Y-188441D01*
Y-188727D01*
Y-189013D01*
Y-189299D01*
X1022081D01*
Y-189586D01*
Y-189872D01*
Y-190158D01*
Y-190445D01*
X1021795D01*
Y-190731D01*
Y-191017D01*
Y-191304D01*
Y-191590D01*
X1021509D01*
Y-191876D01*
Y-192163D01*
Y-192449D01*
X1021222D01*
Y-192735D01*
Y-193022D01*
Y-193308D01*
X1020936D01*
Y-193594D01*
Y-193880D01*
Y-194167D01*
X1020650D01*
Y-194453D01*
Y-194739D01*
Y-195026D01*
X1020364D01*
Y-195312D01*
Y-195598D01*
X1020077D01*
Y-195885D01*
Y-196171D01*
X1019791D01*
Y-196457D01*
Y-196744D01*
Y-197030D01*
X1019505D01*
Y-197316D01*
Y-197603D01*
X1019218D01*
Y-197889D01*
Y-198175D01*
Y-198461D01*
X1018932D01*
Y-198748D01*
Y-199034D01*
X1018646D01*
Y-199320D01*
Y-199607D01*
Y-199893D01*
X1018359D01*
Y-200179D01*
Y-200466D01*
X1018073D01*
Y-200752D01*
Y-201038D01*
Y-201325D01*
X1017787D01*
Y-201611D01*
Y-201897D01*
X1017500D01*
Y-202184D01*
Y-202470D01*
Y-202756D01*
X1017214D01*
Y-203043D01*
Y-203329D01*
X1016928D01*
Y-203615D01*
Y-203902D01*
Y-204188D01*
X1016642D01*
Y-204474D01*
Y-204760D01*
X1016355D01*
Y-205047D01*
Y-205333D01*
Y-205619D01*
X1016069D01*
Y-205906D01*
Y-206192D01*
X1015783D01*
Y-206478D01*
Y-206765D01*
Y-207051D01*
X1015496D01*
Y-207337D01*
Y-207624D01*
X1015210D01*
Y-207910D01*
Y-208196D01*
Y-208483D01*
X1014924D01*
Y-208769D01*
Y-209055D01*
X1014637D01*
Y-209341D01*
Y-209628D01*
Y-209914D01*
X1014351D01*
Y-210200D01*
Y-210487D01*
X1014065D01*
Y-210773D01*
Y-211059D01*
Y-211346D01*
X1013778D01*
Y-211632D01*
Y-211918D01*
X1013492D01*
Y-212205D01*
Y-212491D01*
Y-212777D01*
X1013206D01*
Y-213064D01*
Y-213350D01*
X1012919D01*
Y-213636D01*
Y-213922D01*
Y-214209D01*
X1012633D01*
Y-214495D01*
Y-214781D01*
X1012347D01*
Y-215068D01*
Y-215354D01*
Y-215640D01*
X1012060D01*
Y-215927D01*
Y-216213D01*
X1011774D01*
Y-216499D01*
Y-216786D01*
Y-217072D01*
X1011488D01*
Y-217358D01*
Y-217645D01*
X1011201D01*
Y-217931D01*
Y-218217D01*
Y-218503D01*
X1010915D01*
Y-218790D01*
Y-219076D01*
X1010629D01*
Y-219362D01*
Y-219649D01*
X1010343D01*
Y-219935D01*
Y-220221D01*
X1010056D01*
Y-220508D01*
Y-220794D01*
Y-221080D01*
X1009770D01*
Y-221367D01*
X1009484D01*
Y-221653D01*
Y-221939D01*
Y-222225D01*
X1009197D01*
Y-222512D01*
X1008911D01*
Y-222798D01*
Y-223084D01*
X1008625D01*
Y-223371D01*
Y-223657D01*
X1008338D01*
Y-223943D01*
Y-224230D01*
X1008052D01*
Y-224516D01*
Y-224802D01*
X1007766D01*
Y-225089D01*
X1007479D01*
Y-225375D01*
Y-225661D01*
X1007193D01*
Y-225948D01*
Y-226234D01*
X1006907D01*
Y-226520D01*
X1006621D01*
Y-226806D01*
X1006334D01*
Y-227093D01*
Y-227379D01*
X1006048D01*
Y-227665D01*
X1005762D01*
Y-227952D01*
Y-228238D01*
X1005475D01*
Y-228524D01*
X1005189D01*
Y-228811D01*
X1004903D01*
Y-229097D01*
Y-229383D01*
X1004616D01*
Y-229670D01*
X1004330D01*
Y-229956D01*
X1004044D01*
Y-230242D01*
X1003757D01*
Y-230529D01*
X1003471D01*
Y-230815D01*
Y-231101D01*
X1003185D01*
Y-231387D01*
X1002898D01*
Y-231674D01*
X1002612D01*
Y-231960D01*
X1002326D01*
Y-232246D01*
X1002040D01*
Y-232533D01*
X1001753D01*
Y-232819D01*
X1001467D01*
Y-233105D01*
X1000894D01*
Y-233392D01*
X1000608D01*
Y-233678D01*
X1000322D01*
Y-233964D01*
X1000035D01*
Y-234251D01*
X999749D01*
Y-234537D01*
X999176D01*
Y-234823D01*
X998890D01*
Y-235110D01*
X998317D01*
Y-235396D01*
X998031D01*
Y-235682D01*
X997458D01*
Y-235968D01*
X997172D01*
Y-236255D01*
X996600D01*
Y-236541D01*
X996027D01*
Y-236827D01*
X995454D01*
Y-237114D01*
X994882D01*
Y-237400D01*
X994309D01*
Y-237686D01*
X993450D01*
Y-237973D01*
X992877D01*
Y-238259D01*
X992019D01*
Y-238545D01*
X990873D01*
Y-238832D01*
X989728D01*
Y-239118D01*
X988010D01*
Y-239404D01*
X986006D01*
Y-239691D01*
X985720D01*
Y-239404D01*
Y-239118D01*
Y-238832D01*
Y-238545D01*
Y-238259D01*
Y-237973D01*
Y-237686D01*
Y-237400D01*
Y-237114D01*
Y-236827D01*
Y-236541D01*
Y-236255D01*
Y-235968D01*
Y-235682D01*
Y-235396D01*
Y-235110D01*
Y-234823D01*
Y-234537D01*
Y-234251D01*
Y-233964D01*
Y-233678D01*
Y-233392D01*
Y-233105D01*
Y-232819D01*
Y-232533D01*
Y-232246D01*
Y-231960D01*
Y-231674D01*
Y-231387D01*
Y-231101D01*
Y-230815D01*
Y-230529D01*
Y-230242D01*
X986292D01*
Y-229956D01*
X986865D01*
Y-229670D01*
X987438D01*
Y-229383D01*
X988010D01*
Y-229097D01*
X988583D01*
Y-228811D01*
X989155D01*
Y-228524D01*
X989442D01*
Y-228238D01*
X990014D01*
Y-227952D01*
X990301D01*
Y-227665D01*
X990873D01*
Y-227379D01*
X991160D01*
Y-227093D01*
X991446D01*
Y-226806D01*
X992019D01*
Y-226520D01*
X992305D01*
Y-226234D01*
X992591D01*
Y-225948D01*
X992877D01*
Y-225661D01*
X993164D01*
Y-225375D01*
X993450D01*
Y-225089D01*
X993736D01*
Y-224802D01*
X994023D01*
Y-224516D01*
X994309D01*
Y-224230D01*
X994595D01*
Y-223943D01*
X994882D01*
Y-223657D01*
X995168D01*
Y-223371D01*
Y-223084D01*
X995454D01*
Y-222798D01*
X995741D01*
Y-222512D01*
X996027D01*
Y-222225D01*
Y-221939D01*
X996313D01*
Y-221653D01*
X996600D01*
Y-221367D01*
Y-221080D01*
X996886D01*
Y-220794D01*
Y-220508D01*
X997172D01*
Y-220221D01*
X997458D01*
Y-219935D01*
Y-219649D01*
X997745D01*
Y-219362D01*
Y-219076D01*
X998031D01*
Y-218790D01*
Y-218503D01*
X996313D01*
Y-218217D01*
X994309D01*
Y-217931D01*
X993164D01*
Y-217645D01*
X992591D01*
Y-217358D01*
X991732D01*
Y-217072D01*
X991160D01*
Y-216786D01*
X990873D01*
Y-216499D01*
X990301D01*
Y-216213D01*
X990014D01*
Y-215927D01*
X989728D01*
Y-215640D01*
X989442D01*
Y-215354D01*
X989155D01*
Y-215068D01*
X988869D01*
Y-214781D01*
Y-214495D01*
X988583D01*
Y-214209D01*
X988297D01*
Y-213922D01*
Y-213636D01*
X988010D01*
Y-213350D01*
Y-213064D01*
X987724D01*
Y-212777D01*
Y-212491D01*
X987438D01*
Y-212205D01*
Y-211918D01*
Y-211632D01*
X987151D01*
Y-211346D01*
Y-211059D01*
Y-210773D01*
Y-210487D01*
X986865D01*
Y-210200D01*
Y-209914D01*
Y-209628D01*
Y-209341D01*
Y-209055D01*
Y-208769D01*
Y-208483D01*
X986579D01*
Y-208196D01*
Y-207910D01*
Y-207624D01*
Y-207337D01*
Y-207051D01*
Y-206765D01*
Y-206478D01*
Y-206192D01*
Y-205906D01*
Y-205619D01*
Y-205333D01*
Y-205047D01*
Y-204760D01*
Y-204474D01*
Y-204188D01*
X986292D01*
Y-203902D01*
Y-203615D01*
Y-203329D01*
Y-203043D01*
Y-202756D01*
Y-202470D01*
Y-202184D01*
Y-201897D01*
Y-201611D01*
Y-201325D01*
Y-201038D01*
Y-200752D01*
Y-200466D01*
Y-200179D01*
Y-199893D01*
X986006D01*
Y-199607D01*
Y-199320D01*
Y-199034D01*
Y-198748D01*
Y-198461D01*
Y-198175D01*
Y-197889D01*
Y-197603D01*
Y-197316D01*
Y-197030D01*
Y-196744D01*
Y-196457D01*
Y-196171D01*
Y-195885D01*
Y-195598D01*
Y-195312D01*
X985720D01*
Y-195026D01*
Y-194739D01*
Y-194453D01*
Y-194167D01*
Y-193880D01*
Y-193594D01*
Y-193308D01*
Y-193022D01*
Y-192735D01*
Y-192449D01*
Y-192163D01*
Y-191876D01*
Y-191590D01*
Y-191304D01*
Y-191017D01*
Y-190731D01*
X985433D01*
Y-190445D01*
Y-190158D01*
Y-189872D01*
Y-189586D01*
Y-189299D01*
Y-189013D01*
Y-188727D01*
Y-188441D01*
Y-188154D01*
Y-187868D01*
Y-187582D01*
Y-187295D01*
Y-187009D01*
Y-186723D01*
X985147D01*
Y-186436D01*
Y-186150D01*
Y-185864D01*
Y-185577D01*
Y-185291D01*
Y-185005D01*
Y-184719D01*
Y-184432D01*
Y-184146D01*
Y-183860D01*
Y-183573D01*
Y-183287D01*
Y-183001D01*
Y-182714D01*
Y-182428D01*
Y-182142D01*
X984861D01*
Y-181855D01*
X998604D01*
Y-182142D01*
Y-182428D01*
Y-182714D01*
Y-183001D01*
Y-183287D01*
Y-183573D01*
Y-183860D01*
Y-184146D01*
Y-184432D01*
Y-184719D01*
Y-185005D01*
Y-185291D01*
Y-185577D01*
Y-185864D01*
X998890D01*
Y-186150D01*
Y-186436D01*
Y-186723D01*
Y-187009D01*
Y-187295D01*
Y-187582D01*
Y-187868D01*
Y-188154D01*
Y-188441D01*
Y-188727D01*
Y-189013D01*
Y-189299D01*
Y-189586D01*
Y-189872D01*
Y-190158D01*
Y-190445D01*
Y-190731D01*
Y-191017D01*
Y-191304D01*
Y-191590D01*
Y-191876D01*
Y-192163D01*
Y-192449D01*
Y-192735D01*
Y-193022D01*
Y-193308D01*
Y-193594D01*
Y-193880D01*
Y-194167D01*
Y-194453D01*
Y-194739D01*
Y-195026D01*
Y-195312D01*
Y-195598D01*
Y-195885D01*
Y-196171D01*
Y-196457D01*
Y-196744D01*
Y-197030D01*
Y-197316D01*
Y-197603D01*
X999176D01*
Y-197889D01*
X998890D01*
Y-198175D01*
Y-198461D01*
X999176D01*
Y-198748D01*
Y-199034D01*
Y-199320D01*
Y-199607D01*
Y-199893D01*
Y-200179D01*
Y-200466D01*
Y-200752D01*
Y-201038D01*
Y-201325D01*
Y-201611D01*
Y-201897D01*
Y-202184D01*
Y-202470D01*
Y-202756D01*
Y-203043D01*
Y-203329D01*
Y-203615D01*
Y-203902D01*
Y-204188D01*
Y-204474D01*
Y-204760D01*
Y-205047D01*
Y-205333D01*
Y-205619D01*
Y-205906D01*
X999463D01*
Y-206192D01*
Y-206478D01*
Y-206765D01*
X999749D01*
Y-207051D01*
X1000035D01*
Y-207337D01*
X1000322D01*
Y-207624D01*
X1001181D01*
Y-207910D01*
X1002040D01*
Y-207624D01*
X1002326D01*
Y-207337D01*
Y-207051D01*
Y-206765D01*
X1002612D01*
Y-206478D01*
Y-206192D01*
X1002898D01*
Y-205906D01*
Y-205619D01*
Y-205333D01*
X1003185D01*
Y-205047D01*
Y-204760D01*
Y-204474D01*
X1003471D01*
Y-204188D01*
Y-203902D01*
Y-203615D01*
X1003757D01*
Y-203329D01*
Y-203043D01*
Y-202756D01*
X1004044D01*
Y-202470D01*
Y-202184D01*
X1004330D01*
Y-201897D01*
Y-201611D01*
Y-201325D01*
X1004616D01*
Y-201038D01*
Y-200752D01*
Y-200466D01*
X1004903D01*
Y-200179D01*
Y-199893D01*
Y-199607D01*
X1005189D01*
Y-199320D01*
Y-199034D01*
X1005475D01*
Y-198748D01*
Y-198461D01*
Y-198175D01*
X1005762D01*
Y-197889D01*
Y-197603D01*
Y-197316D01*
X1006048D01*
Y-197030D01*
Y-196744D01*
Y-196457D01*
X1006334D01*
Y-196171D01*
Y-195885D01*
X1006621D01*
Y-195598D01*
Y-195312D01*
Y-195026D01*
X1006907D01*
Y-194739D01*
Y-194453D01*
Y-194167D01*
X1007193D01*
Y-193880D01*
Y-193594D01*
Y-193308D01*
X1007479D01*
Y-193022D01*
Y-192735D01*
X1007766D01*
Y-192449D01*
Y-192163D01*
Y-191876D01*
X1008052D01*
Y-191590D01*
Y-191304D01*
Y-191017D01*
X1008338D01*
Y-190731D01*
Y-190445D01*
Y-190158D01*
X1008625D01*
Y-189872D01*
Y-189586D01*
Y-189299D01*
Y-189013D01*
X1008911D01*
Y-188727D01*
Y-188441D01*
Y-188154D01*
Y-187868D01*
X1009197D01*
Y-187582D01*
Y-187295D01*
Y-187009D01*
Y-186723D01*
Y-186436D01*
X1009484D01*
Y-186150D01*
Y-185864D01*
Y-185577D01*
Y-185291D01*
Y-185005D01*
Y-184719D01*
X1009770D01*
Y-184432D01*
Y-184146D01*
Y-183860D01*
Y-183573D01*
Y-183287D01*
Y-183001D01*
Y-182714D01*
Y-182428D01*
Y-182142D01*
Y-181855D01*
X1022654D01*
Y-182142D01*
D02*
G37*
G36*
X964819Y-164677D02*
Y-164963D01*
X964532D01*
Y-165249D01*
Y-165535D01*
Y-165822D01*
Y-166108D01*
Y-166394D01*
Y-166681D01*
X964246D01*
Y-166967D01*
Y-167253D01*
Y-167540D01*
Y-167826D01*
Y-168112D01*
Y-168399D01*
X963960D01*
Y-168685D01*
Y-168971D01*
Y-169258D01*
Y-169544D01*
Y-169830D01*
Y-170117D01*
Y-170403D01*
X963674D01*
Y-170689D01*
Y-170975D01*
Y-171262D01*
Y-171548D01*
Y-171834D01*
Y-172121D01*
X963387D01*
Y-172407D01*
Y-172693D01*
Y-172980D01*
Y-173266D01*
Y-173552D01*
Y-173839D01*
X963101D01*
Y-174125D01*
Y-174411D01*
Y-174698D01*
Y-174984D01*
Y-175270D01*
Y-175557D01*
Y-175843D01*
X962815D01*
Y-176129D01*
Y-176415D01*
Y-176702D01*
Y-176988D01*
Y-177274D01*
Y-177561D01*
X962528D01*
Y-177847D01*
Y-178133D01*
Y-178420D01*
Y-178706D01*
Y-178992D01*
Y-179279D01*
X962242D01*
Y-179565D01*
Y-179851D01*
Y-180138D01*
Y-180424D01*
Y-180710D01*
Y-180997D01*
X961956D01*
Y-181283D01*
Y-181569D01*
Y-181855D01*
Y-182142D01*
Y-182428D01*
Y-182714D01*
Y-183001D01*
X961669D01*
Y-183287D01*
Y-183573D01*
Y-183860D01*
Y-184146D01*
Y-184432D01*
Y-184719D01*
X961383D01*
Y-185005D01*
Y-185291D01*
X961956D01*
Y-185005D01*
X962242D01*
Y-184719D01*
X962528D01*
Y-184432D01*
X963101D01*
Y-184146D01*
X963387D01*
Y-183860D01*
X963674D01*
Y-183573D01*
X964246D01*
Y-183287D01*
X964819D01*
Y-183001D01*
X965105D01*
Y-182714D01*
X965678D01*
Y-182428D01*
X966537D01*
Y-182142D01*
X967109D01*
Y-181855D01*
X967968D01*
Y-181569D01*
X969400D01*
Y-181283D01*
X975699D01*
Y-181569D01*
X976844D01*
Y-181855D01*
X977703D01*
Y-182142D01*
X978275D01*
Y-182428D01*
X978562D01*
Y-182714D01*
X979134D01*
Y-183001D01*
X979421D01*
Y-183287D01*
X979707D01*
Y-183573D01*
X979993D01*
Y-183860D01*
X980280D01*
Y-184146D01*
Y-184432D01*
X980566D01*
Y-184719D01*
Y-185005D01*
X980852D01*
Y-185291D01*
Y-185577D01*
Y-185864D01*
X981139D01*
Y-186150D01*
Y-186436D01*
Y-186723D01*
Y-187009D01*
X981425D01*
Y-187295D01*
Y-187582D01*
Y-187868D01*
Y-188154D01*
Y-188441D01*
Y-188727D01*
Y-189013D01*
Y-189299D01*
Y-189586D01*
Y-189872D01*
Y-190158D01*
Y-190445D01*
Y-190731D01*
Y-191017D01*
Y-191304D01*
Y-191590D01*
Y-191876D01*
Y-192163D01*
X981139D01*
Y-192449D01*
Y-192735D01*
Y-193022D01*
Y-193308D01*
Y-193594D01*
Y-193880D01*
Y-194167D01*
X980852D01*
Y-194453D01*
Y-194739D01*
Y-195026D01*
Y-195312D01*
Y-195598D01*
Y-195885D01*
Y-196171D01*
X980566D01*
Y-196457D01*
Y-196744D01*
Y-197030D01*
Y-197316D01*
Y-197603D01*
Y-197889D01*
X980280D01*
Y-198175D01*
Y-198461D01*
Y-198748D01*
Y-199034D01*
Y-199320D01*
Y-199607D01*
X979993D01*
Y-199893D01*
Y-200179D01*
Y-200466D01*
Y-200752D01*
Y-201038D01*
Y-201325D01*
X979707D01*
Y-201611D01*
Y-201897D01*
Y-202184D01*
Y-202470D01*
Y-202756D01*
Y-203043D01*
Y-203329D01*
X979421D01*
Y-203615D01*
Y-203902D01*
Y-204188D01*
Y-204474D01*
Y-204760D01*
Y-205047D01*
X979134D01*
Y-205333D01*
Y-205619D01*
Y-205906D01*
Y-206192D01*
Y-206478D01*
Y-206765D01*
X978848D01*
Y-207051D01*
Y-207337D01*
Y-207624D01*
Y-207910D01*
Y-208196D01*
Y-208483D01*
Y-208769D01*
X978562D01*
Y-209055D01*
Y-209341D01*
Y-209628D01*
Y-209914D01*
Y-210200D01*
Y-210487D01*
X978275D01*
Y-210773D01*
Y-211059D01*
Y-211346D01*
Y-211632D01*
Y-211918D01*
Y-212205D01*
X977989D01*
Y-212491D01*
Y-212777D01*
Y-213064D01*
Y-213350D01*
Y-213636D01*
Y-213922D01*
X977703D01*
Y-214209D01*
Y-214495D01*
Y-214781D01*
Y-215068D01*
Y-215354D01*
Y-215640D01*
Y-215927D01*
X977417D01*
Y-216213D01*
Y-216499D01*
Y-216786D01*
Y-217072D01*
Y-217358D01*
Y-217645D01*
X977130D01*
Y-217931D01*
Y-218217D01*
X963960D01*
Y-217931D01*
Y-217645D01*
X964246D01*
Y-217358D01*
Y-217072D01*
Y-216786D01*
Y-216499D01*
Y-216213D01*
Y-215927D01*
X964532D01*
Y-215640D01*
Y-215354D01*
Y-215068D01*
Y-214781D01*
Y-214495D01*
Y-214209D01*
Y-213922D01*
X964819D01*
Y-213636D01*
Y-213350D01*
Y-213064D01*
Y-212777D01*
Y-212491D01*
Y-212205D01*
X965105D01*
Y-211918D01*
Y-211632D01*
Y-211346D01*
Y-211059D01*
Y-210773D01*
Y-210487D01*
X965392D01*
Y-210200D01*
Y-209914D01*
Y-209628D01*
Y-209341D01*
Y-209055D01*
Y-208769D01*
Y-208483D01*
X965678D01*
Y-208196D01*
Y-207910D01*
Y-207624D01*
Y-207337D01*
Y-207051D01*
Y-206765D01*
X965964D01*
Y-206478D01*
Y-206192D01*
Y-205906D01*
Y-205619D01*
Y-205333D01*
Y-205047D01*
Y-204760D01*
X966250D01*
Y-204474D01*
Y-204188D01*
Y-203902D01*
Y-203615D01*
Y-203329D01*
Y-203043D01*
X966537D01*
Y-202756D01*
Y-202470D01*
Y-202184D01*
Y-201897D01*
Y-201611D01*
Y-201325D01*
X966823D01*
Y-201038D01*
Y-200752D01*
Y-200466D01*
Y-200179D01*
Y-199893D01*
Y-199607D01*
X967109D01*
Y-199320D01*
Y-199034D01*
Y-198748D01*
Y-198461D01*
Y-198175D01*
Y-197889D01*
Y-197603D01*
X967396D01*
Y-197316D01*
Y-197030D01*
Y-196744D01*
Y-196457D01*
Y-196171D01*
Y-195885D01*
X967682D01*
Y-195598D01*
Y-195312D01*
Y-195026D01*
Y-194739D01*
Y-194453D01*
Y-194167D01*
Y-193880D01*
X967968D01*
Y-193594D01*
Y-193308D01*
Y-193022D01*
Y-192735D01*
Y-192449D01*
Y-192163D01*
X967682D01*
Y-191876D01*
Y-191590D01*
X967396D01*
Y-191304D01*
X967109D01*
Y-191017D01*
X966537D01*
Y-190731D01*
X964819D01*
Y-191017D01*
X963387D01*
Y-191304D01*
X962528D01*
Y-191590D01*
X961956D01*
Y-191876D01*
X961669D01*
Y-192163D01*
X961097D01*
Y-192449D01*
X960810D01*
Y-192735D01*
X960524D01*
Y-193022D01*
Y-193308D01*
X960238D01*
Y-193594D01*
Y-193880D01*
Y-194167D01*
X959951D01*
Y-194453D01*
Y-194739D01*
Y-195026D01*
Y-195312D01*
Y-195598D01*
Y-195885D01*
X959665D01*
Y-196171D01*
Y-196457D01*
Y-196744D01*
Y-197030D01*
Y-197316D01*
Y-197603D01*
Y-197889D01*
X959379D01*
Y-198175D01*
Y-198461D01*
Y-198748D01*
Y-199034D01*
Y-199320D01*
Y-199607D01*
X959093D01*
Y-199893D01*
Y-200179D01*
Y-200466D01*
Y-200752D01*
Y-201038D01*
Y-201325D01*
X958806D01*
Y-201611D01*
Y-201897D01*
Y-202184D01*
Y-202470D01*
Y-202756D01*
Y-203043D01*
X958520D01*
Y-203329D01*
Y-203615D01*
Y-203902D01*
Y-204188D01*
Y-204474D01*
Y-204760D01*
Y-205047D01*
X958234D01*
Y-205333D01*
Y-205619D01*
Y-205906D01*
Y-206192D01*
Y-206478D01*
Y-206765D01*
X957947D01*
Y-207051D01*
Y-207337D01*
Y-207624D01*
Y-207910D01*
Y-208196D01*
Y-208483D01*
X957661D01*
Y-208769D01*
Y-209055D01*
Y-209341D01*
Y-209628D01*
Y-209914D01*
Y-210200D01*
Y-210487D01*
X957375D01*
Y-210773D01*
Y-211059D01*
Y-211346D01*
Y-211632D01*
Y-211918D01*
Y-212205D01*
X957088D01*
Y-212491D01*
Y-212777D01*
Y-213064D01*
Y-213350D01*
Y-213636D01*
Y-213922D01*
X956802D01*
Y-214209D01*
Y-214495D01*
Y-214781D01*
Y-215068D01*
Y-215354D01*
Y-215640D01*
X956516D01*
Y-215927D01*
Y-216213D01*
Y-216499D01*
Y-216786D01*
Y-217072D01*
Y-217358D01*
Y-217645D01*
X956229D01*
Y-217931D01*
Y-218217D01*
X943059D01*
Y-217931D01*
Y-217645D01*
X943345D01*
Y-217358D01*
Y-217072D01*
Y-216786D01*
Y-216499D01*
Y-216213D01*
Y-215927D01*
Y-215640D01*
X943632D01*
Y-215354D01*
Y-215068D01*
Y-214781D01*
Y-214495D01*
Y-214209D01*
Y-213922D01*
X943918D01*
Y-213636D01*
Y-213350D01*
Y-213064D01*
Y-212777D01*
Y-212491D01*
Y-212205D01*
X944204D01*
Y-211918D01*
Y-211632D01*
Y-211346D01*
Y-211059D01*
Y-210773D01*
Y-210487D01*
Y-210200D01*
X944491D01*
Y-209914D01*
Y-209628D01*
Y-209341D01*
Y-209055D01*
Y-208769D01*
Y-208483D01*
X944777D01*
Y-208196D01*
Y-207910D01*
Y-207624D01*
Y-207337D01*
Y-207051D01*
Y-206765D01*
X945063D01*
Y-206478D01*
Y-206192D01*
Y-205906D01*
Y-205619D01*
Y-205333D01*
Y-205047D01*
X945350D01*
Y-204760D01*
Y-204474D01*
Y-204188D01*
Y-203902D01*
Y-203615D01*
Y-203329D01*
Y-203043D01*
X945636D01*
Y-202756D01*
Y-202470D01*
Y-202184D01*
Y-201897D01*
Y-201611D01*
Y-201325D01*
X945922D01*
Y-201038D01*
Y-200752D01*
Y-200466D01*
Y-200179D01*
Y-199893D01*
Y-199607D01*
X946208D01*
Y-199320D01*
Y-199034D01*
Y-198748D01*
Y-198461D01*
Y-198175D01*
Y-197889D01*
Y-197603D01*
X946495D01*
Y-197316D01*
Y-197030D01*
Y-196744D01*
Y-196457D01*
Y-196171D01*
Y-195885D01*
X946781D01*
Y-195598D01*
Y-195312D01*
Y-195026D01*
Y-194739D01*
Y-194453D01*
Y-194167D01*
X947067D01*
Y-193880D01*
Y-193594D01*
Y-193308D01*
Y-193022D01*
Y-192735D01*
Y-192449D01*
X947354D01*
Y-192163D01*
Y-191876D01*
Y-191590D01*
Y-191304D01*
Y-191017D01*
Y-190731D01*
Y-190445D01*
X947640D01*
Y-190158D01*
Y-189872D01*
Y-189586D01*
Y-189299D01*
Y-189013D01*
Y-188727D01*
X947926D01*
Y-188441D01*
Y-188154D01*
Y-187868D01*
Y-187582D01*
Y-187295D01*
Y-187009D01*
X948213D01*
Y-186723D01*
Y-186436D01*
Y-186150D01*
Y-185864D01*
Y-185577D01*
Y-185291D01*
X948499D01*
Y-185005D01*
Y-184719D01*
Y-184432D01*
Y-184146D01*
Y-183860D01*
Y-183573D01*
Y-183287D01*
X948785D01*
Y-183001D01*
Y-182714D01*
Y-182428D01*
Y-182142D01*
Y-181855D01*
Y-181569D01*
X949072D01*
Y-181283D01*
Y-180997D01*
Y-180710D01*
Y-180424D01*
Y-180138D01*
Y-179851D01*
X949358D01*
Y-179565D01*
Y-179279D01*
Y-178992D01*
Y-178706D01*
Y-178420D01*
Y-178133D01*
Y-177847D01*
X949644D01*
Y-177561D01*
Y-177274D01*
Y-176988D01*
Y-176702D01*
Y-176415D01*
Y-176129D01*
X949931D01*
Y-175843D01*
Y-175557D01*
Y-175270D01*
Y-174984D01*
Y-174698D01*
Y-174411D01*
X950217D01*
Y-174125D01*
Y-173839D01*
Y-173552D01*
Y-173266D01*
Y-172980D01*
Y-172693D01*
X950503D01*
Y-172407D01*
Y-172121D01*
Y-171834D01*
Y-171548D01*
Y-171262D01*
Y-170975D01*
Y-170689D01*
X950790D01*
Y-170403D01*
Y-170117D01*
Y-169830D01*
Y-169544D01*
Y-169258D01*
Y-168971D01*
X951076D01*
Y-168685D01*
Y-168399D01*
Y-168112D01*
Y-167826D01*
Y-167540D01*
Y-167253D01*
X951362D01*
Y-166967D01*
Y-166681D01*
Y-166394D01*
Y-166108D01*
Y-165822D01*
Y-165535D01*
Y-165249D01*
X951648D01*
Y-164963D01*
Y-164677D01*
Y-164390D01*
X964819D01*
Y-164677D01*
D02*
G37*
%LPC*%
G36*
X13946Y17783D02*
X13938Y17773D01*
X13938Y17773D01*
X13938Y17773D01*
X13908Y17748D01*
X13888Y17737D01*
X13874Y17730D01*
X13874Y17730D01*
D01*
X13837Y17719D01*
X13812Y17716D01*
X13803Y17705D01*
X13773Y17681D01*
X13764Y17676D01*
X13760Y17668D01*
X13735Y17638D01*
X13705Y17613D01*
X13697Y17608D01*
X13692Y17600D01*
X13668Y17570D01*
X13638Y17545D01*
X13629Y17541D01*
X13625Y17532D01*
X13600Y17502D01*
X13600Y17502D01*
X13600Y17502D01*
X13590Y17494D01*
Y17439D01*
X13587Y17401D01*
X13575Y17364D01*
X13557Y17329D01*
X13532Y17299D01*
X13523Y17291D01*
Y17236D01*
Y17169D01*
Y17101D01*
Y17033D01*
Y16966D01*
Y16898D01*
Y16830D01*
Y16775D01*
X13532Y16767D01*
X13532Y16767D01*
X13532Y16767D01*
X13557Y16737D01*
X13568Y16717D01*
X13575Y16703D01*
X13575Y16703D01*
D01*
X13587Y16666D01*
X13589Y16639D01*
X13590Y16627D01*
Y16560D01*
Y16492D01*
Y16437D01*
X13600Y16429D01*
X13600Y16429D01*
X13600Y16429D01*
X13625Y16399D01*
X13636Y16378D01*
X13643Y16365D01*
X13643Y16365D01*
D01*
X13654Y16328D01*
X13657Y16301D01*
X13658Y16289D01*
Y16221D01*
Y16166D01*
X13668Y16159D01*
X13692Y16128D01*
X13711Y16094D01*
X13722Y16057D01*
X13726Y16019D01*
Y15964D01*
X13735Y15956D01*
X13760Y15925D01*
X13778Y15891D01*
X13789Y15854D01*
X13792Y15829D01*
X13803Y15820D01*
X13827Y15790D01*
X13832Y15782D01*
X13841Y15777D01*
X13841Y15777D01*
X13841Y15777D01*
X13859Y15762D01*
X13871Y15753D01*
X13871Y15753D01*
X13871Y15753D01*
X13880Y15741D01*
X13895Y15723D01*
X13895Y15723D01*
X13895Y15723D01*
X13901Y15711D01*
X13914Y15688D01*
X13914Y15688D01*
X13914Y15688D01*
X13918Y15675D01*
X13925Y15651D01*
Y15651D01*
X13925Y15651D01*
X13926Y15636D01*
X13927Y15626D01*
X13938Y15617D01*
X13963Y15587D01*
X13967Y15579D01*
X13976Y15574D01*
X14006Y15550D01*
X14030Y15520D01*
X14035Y15511D01*
X14043Y15507D01*
X14074Y15482D01*
X14074Y15482D01*
X14074Y15482D01*
X14083Y15471D01*
X14108Y15469D01*
X14145Y15457D01*
X14179Y15439D01*
X14209Y15414D01*
X14233Y15384D01*
X14238Y15376D01*
X14246Y15371D01*
X14277Y15347D01*
X14277Y15347D01*
X14277Y15347D01*
X14285Y15337D01*
X14407D01*
X14407D01*
X14407D01*
X14419Y15336D01*
X14446Y15333D01*
X14483Y15322D01*
D01*
X14483Y15322D01*
X14496Y15315D01*
X14517Y15304D01*
X14547Y15279D01*
X14547Y15279D01*
X14547Y15279D01*
X14555Y15269D01*
X16050Y15269D01*
X16040Y15303D01*
X16037Y15331D01*
X16036Y15342D01*
Y15342D01*
Y15342D01*
Y15410D01*
Y15477D01*
Y15477D01*
Y15477D01*
X16036Y15545D01*
X16036Y15600D01*
X16026Y15608D01*
X16002Y15638D01*
X15983Y15672D01*
X15972Y15709D01*
X15968Y15748D01*
Y15816D01*
Y15883D01*
Y15951D01*
Y16006D01*
X15959Y16014D01*
X15934Y16044D01*
X15916Y16078D01*
X15904Y16115D01*
X15901Y16154D01*
Y16221D01*
Y16289D01*
Y16357D01*
Y16412D01*
X15891Y16420D01*
X15866Y16450D01*
X15848Y16484D01*
X15837Y16521D01*
X15833Y16560D01*
Y16627D01*
Y16627D01*
Y16627D01*
X15833Y16695D01*
Y16763D01*
X15833Y16818D01*
X15823Y16826D01*
X15823Y16826D01*
X15823Y16826D01*
X15799Y16856D01*
X15788Y16877D01*
X15780Y16890D01*
X15780Y16890D01*
D01*
X15769Y16927D01*
X15766Y16954D01*
X15765Y16966D01*
Y17033D01*
Y17101D01*
Y17169D01*
Y17224D01*
X15756Y17232D01*
X15756Y17232D01*
X15756Y17232D01*
X15731Y17262D01*
X15720Y17282D01*
X15713Y17296D01*
X15713Y17296D01*
D01*
X15701Y17333D01*
X15699Y17360D01*
X15698Y17372D01*
Y17372D01*
Y17372D01*
X15698Y17439D01*
X15698Y17507D01*
Y17507D01*
Y17507D01*
Y17574D01*
Y17642D01*
Y17642D01*
Y17642D01*
X15698Y17697D01*
X15688Y17705D01*
X15663Y17735D01*
X15645Y17770D01*
X15641Y17783D01*
X13946Y17783D01*
D02*
G37*
G36*
X929316Y-178992D02*
X921299D01*
Y-179279D01*
Y-179565D01*
Y-179851D01*
Y-180138D01*
Y-180424D01*
X921013D01*
Y-180710D01*
Y-180997D01*
Y-181283D01*
Y-181569D01*
Y-181855D01*
Y-182142D01*
X920727D01*
Y-182428D01*
Y-182714D01*
Y-183001D01*
Y-183287D01*
Y-183573D01*
Y-183860D01*
X920440D01*
Y-184146D01*
Y-184432D01*
Y-184719D01*
Y-185005D01*
Y-185291D01*
Y-185577D01*
X920154D01*
Y-185864D01*
Y-186150D01*
Y-186436D01*
Y-186723D01*
Y-187009D01*
Y-187295D01*
Y-187582D01*
X919868D01*
Y-187868D01*
Y-188154D01*
Y-188441D01*
Y-188727D01*
Y-189013D01*
Y-189299D01*
X919581D01*
Y-189586D01*
Y-189872D01*
Y-190158D01*
X926739D01*
Y-189872D01*
X927884D01*
Y-189586D01*
X928457D01*
Y-189299D01*
X928743D01*
Y-189013D01*
X929030D01*
Y-188727D01*
X929316D01*
Y-188441D01*
X929602D01*
Y-188154D01*
Y-187868D01*
X929889D01*
Y-187582D01*
Y-187295D01*
X930175D01*
Y-187009D01*
Y-186723D01*
X930461D01*
Y-186436D01*
Y-186150D01*
Y-185864D01*
Y-185577D01*
X930748D01*
Y-185291D01*
Y-185005D01*
Y-184719D01*
Y-184432D01*
Y-184146D01*
X931034D01*
Y-183860D01*
Y-183573D01*
Y-183287D01*
Y-183001D01*
Y-182714D01*
Y-182428D01*
Y-182142D01*
Y-181855D01*
Y-181569D01*
Y-181283D01*
Y-180997D01*
X930748D01*
Y-180710D01*
Y-180424D01*
X930461D01*
Y-180138D01*
Y-179851D01*
X930175D01*
Y-179565D01*
X929889D01*
Y-179279D01*
X929316D01*
Y-178992D01*
D02*
G37*
%LPD*%
D10*
X4938Y422655D02*
G03*
X7921Y421420I2983J2983D01*
G01*
X-22103Y419182D02*
G03*
X-21931Y419597I-415J415D01*
G01*
X120916Y246516D02*
G03*
X120793Y246217I299J-299D01*
G01*
X-115903Y234867D02*
G03*
X-115779Y235167I-299J299D01*
G01*
X4938Y422655D02*
G03*
X264Y428354I-8630J-2312D01*
G01*
X264Y428354D02*
G03*
X-3501Y429820I-7411J-13464D01*
G01*
D02*
G03*
X-7709Y430394I-4775J-19267D01*
G01*
D02*
G03*
X-15916Y428916I-768J-19255D01*
G01*
Y428916D02*
G03*
X-19146Y426885I4789J-11197D01*
G01*
X-19146Y426885D02*
G03*
X-21279Y424007I5567J-6357D01*
G01*
X-21279D02*
G03*
X-21931Y420296I7362J-3207D01*
G01*
X120916Y246516D02*
G03*
X128159Y249360I-2895J18017D01*
G01*
D02*
G03*
X132808Y254212I-9920J14159D01*
G01*
D02*
G03*
X134486Y257166I-23157J15102D01*
G01*
X134486D02*
G03*
X135905Y260353I-43285J21190D01*
G01*
D02*
G03*
X137196Y263681I-125866J50741D01*
G01*
X139915Y270405D02*
G03*
X138489Y267062I56119J-25901D01*
G01*
X141602Y273620D02*
G03*
X139915Y270405I30697J-18160D01*
G01*
X141602Y273620D02*
G03*
X149366Y315092I-52539J31299D01*
G01*
X149366D02*
G03*
X145827Y328974I-75451J-11845D01*
G01*
X145827Y328974D02*
G03*
X139767Y342309I-82811J-29587D01*
G01*
Y342309D02*
G03*
X127177Y360796I-112363J-62993D01*
G01*
X127177Y360796D02*
G03*
X117156Y371934I-117577J-95713D01*
G01*
D02*
G03*
X106123Y382116I-122641J-121804D01*
G01*
D02*
G03*
X94330Y391339I-125918J-148862D01*
G01*
X94330Y391339D02*
G03*
X88225Y395590I-123558J-170956D01*
G01*
D02*
G03*
X43594Y415409I-77680J-114764D01*
G01*
X43594Y415409D02*
G03*
X37493Y416858I-46996J-184318D01*
G01*
X37493Y416858D02*
G03*
X31185Y418151I-47890J-217564D01*
G01*
D02*
G03*
X20808Y419992I-67172J-348460D01*
G01*
X20808D02*
G03*
X15433Y420783I-33210J-207101D01*
G01*
D02*
G03*
X9985Y421420I-21683J-161898D01*
G01*
X-22103Y419182D02*
G03*
X-28792Y416838I39729J-124062D01*
G01*
D02*
G03*
X-32114Y415535I60441J-159018D01*
G01*
X-70331Y398238D02*
G03*
X-80463Y393243I226237J-471658D01*
G01*
Y393243D02*
G03*
X-90471Y388013I201132J-397094D01*
G01*
X-90471D02*
G03*
X-100330Y382514I183691J-340920D01*
G01*
X-105196Y379653D02*
G03*
X-113312Y374705I236951J-397826D01*
G01*
Y374705D02*
G03*
X-117398Y372088I123983J-198009D01*
G01*
Y372088D02*
G03*
X-121444Y369354I95944J-146385D01*
G01*
Y369354D02*
G03*
X-125409Y366489I79036J-113555D01*
G01*
X-125409D02*
G03*
X-129250Y363477I67645J-90220D01*
G01*
D02*
G03*
X-132924Y360303I59440J-72520D01*
G01*
Y360303D02*
G03*
X-136389Y356952I53303J-58572D01*
G01*
D02*
G03*
X-139601Y353408I48662J-47339D01*
G01*
X-139601D02*
G03*
X-142519Y349655I45225J-38180D01*
G01*
D02*
G03*
X-145023Y345526I24115J-17447D01*
G01*
X-145023Y345526D02*
G03*
X-145897Y343534I21074J-10428D01*
G01*
X-145897D02*
G03*
X-147310Y337519I21903J-8320D01*
G01*
X-147310Y337519D02*
G03*
X-147464Y335410I33018J-3466D01*
G01*
X-147464D02*
G03*
X-147501Y333205I46194J-1889D01*
G01*
X-147501Y333205D02*
G03*
X-147448Y330874I72707J491D01*
G01*
X-147448Y330874D02*
G03*
X-147330Y328392I138839J5369D01*
G01*
X-147067Y320280D02*
G03*
X-147330Y328392I-173867J-1575D01*
G01*
X-147042Y312106D02*
G03*
X-147033Y308012I624323J-603D01*
G01*
X-146979Y303922D02*
G03*
X-146847Y299842I172911J3564D01*
G01*
D02*
G03*
X-146601Y295779I125907J5569D01*
G01*
D02*
G03*
X-146208Y291739I98475J7547D01*
G01*
X-146208Y291739D02*
G03*
X-145632Y287729I80618J9525D01*
G01*
X-145632D02*
G03*
X-145070Y284850I52848J8831D01*
G01*
X-145070Y284850D02*
G03*
X-144723Y283423I41945J9442D01*
G01*
D02*
G03*
X-144325Y282012I36467J9527D01*
G01*
X-144325Y282012D02*
G03*
X-143870Y280621I31939J9686D01*
G01*
X-143870Y280621D02*
G03*
X-143352Y279257I28143J9900D01*
G01*
X-143352D02*
G03*
X-142766Y277924I24935J10168D01*
G01*
D02*
G03*
X-141365Y275372I21339J10047D01*
G01*
Y275372D02*
G03*
X-140540Y274163I17965J11384D01*
G01*
X-140540Y274163D02*
G03*
X-138638Y272197I8877J6681D01*
G01*
Y272196D02*
G03*
X-137496Y271317I13397J16219D01*
G01*
D02*
G03*
X-136286Y270484I21967J30626D01*
G01*
X-132689Y268092D02*
G03*
X-133838Y268889I-18856J-25958D01*
G01*
X-131649Y267273D02*
G03*
X-132689Y268092I-10781J-12612D01*
G01*
X-130762Y266413D02*
G03*
X-131649Y267273I-7195J-6537D01*
G01*
X-130073Y265497D02*
G03*
X-130762Y266413I-5213J-3202D01*
G01*
X-129367Y263847D02*
G03*
X-130073Y265497I-6985J-2012D01*
G01*
X-129113Y262893D02*
G03*
X-129367Y263847I-14317J-3307D01*
G01*
X-128901Y261884D02*
G03*
X-129113Y262893I-25401J-4823D01*
G01*
X-128529Y259791D02*
G03*
X-128333Y258752I43134J7583D01*
G01*
D02*
G03*
X-128107Y257747I21311J4273D01*
G01*
X-128107D02*
G03*
X-127831Y256799I12668J3164D01*
G01*
Y256799D02*
G03*
X-127489Y255931I7951J2631D01*
G01*
D02*
G03*
X-125987Y253181I21258J9830D01*
G01*
Y253181D02*
G03*
X-125100Y251908I16521J10563D01*
G01*
X-125100D02*
G03*
X-124120Y250726I13812J10455D01*
G01*
Y250726D02*
G03*
X-123043Y249651I11381J10321D01*
G01*
X-123043D02*
G03*
X-121868Y248699I9251J10232D01*
G01*
D02*
G03*
X-119209Y247236I7212J9952D01*
G01*
X-119209Y247236D02*
G03*
X-116123Y246468I4415J11162D01*
G01*
X125827Y238622D02*
G03*
X120793Y236056I12475J-30698D01*
G01*
X128424Y239504D02*
G03*
X125827Y238622I6596J-23675D01*
G01*
X130987Y240029D02*
G03*
X128424Y239504I2418J-18342D01*
G01*
X133452Y240128D02*
G03*
X130987Y240029I-694J-13429D01*
G01*
X135756Y239734D02*
G03*
X133452Y240128I-2812J-9513D01*
G01*
X137832Y238779D02*
G03*
X135756Y239734I-4386J-6802D01*
G01*
X139617Y237196D02*
G03*
X137832Y238779I-6180J-5169D01*
G01*
X141047Y234916D02*
G03*
X139617Y237196I-9225J-4194D01*
G01*
X142055Y231871D02*
G03*
X141047Y234916I-14774J-3207D01*
G01*
X143155Y225053D02*
G03*
X142055Y231871I-58500J-5938D01*
G01*
X143438Y221547D02*
G03*
X143155Y225053I-75922J-4358D01*
G01*
X143573Y218000D02*
G03*
X143438Y221547I-91411J-1697D01*
G01*
X143582Y214432D02*
G03*
X143573Y218000I-111523J1493D01*
G01*
X143488Y210860D02*
G03*
X143582Y214432I-139115J5431D01*
G01*
X143315Y207302D02*
G03*
X143488Y210860I-180521J10607D01*
G01*
X141881Y189653D02*
G03*
X142537Y196905I-362447J36400D01*
G01*
X141465Y185946D02*
G03*
X141881Y189653I-182671J22402D01*
G01*
X140957Y182222D02*
G03*
X141465Y185946I-136468J20519D01*
G01*
X140332Y178506D02*
G03*
X140957Y182222I-107189J19923D01*
G01*
X139567Y174825D02*
G03*
X140332Y178506I-86395J19876D01*
G01*
X138637Y171206D02*
G03*
X139567Y174825I-70599J20071D01*
G01*
X137518Y167675D02*
G03*
X138637Y171206I-58119J20369D01*
G01*
X136184Y164259D02*
G03*
X137518Y167675I-48048J20720D01*
G01*
X134613Y160983D02*
G03*
X136184Y164259I-39849J21136D01*
G01*
X132675Y157914D02*
G03*
X134613Y160983I-20164J14878D01*
G01*
X131543Y156470D02*
G03*
X132675Y157914I-22696J18955D01*
G01*
X130321Y155086D02*
G03*
X131543Y156470I-24242J22649D01*
G01*
X129021Y153763D02*
G03*
X130321Y155086I-25920J26751D01*
G01*
X127658Y152500D02*
G03*
X129021Y153763I-27709J31265D01*
G01*
X126245Y151297D02*
G03*
X127658Y152500I-29596J36189D01*
G01*
X124795Y150153D02*
G03*
X126245Y151296I-31574J41522D01*
G01*
X121837Y148043D02*
G03*
X124795Y150153I-33972J50751D01*
G01*
X118876Y146493D02*
G03*
X121837Y148043I-4674J12535D01*
G01*
X117562Y146151D02*
G03*
X118876Y146493I-1284J7625D01*
G01*
X113910Y146574D02*
G03*
X117562Y146151I2585J6351D01*
G01*
X112685Y147120D02*
G03*
X113910Y146574I5699J11140D01*
G01*
X111405Y147829D02*
G03*
X112685Y147120I11201J18708D01*
G01*
X110038Y148678D02*
G03*
X111405Y147829I25549J39599D01*
G01*
X108655Y118357D02*
G03*
X108553Y149644I-239327J14865D01*
G01*
X107039Y102648D02*
G03*
X108655Y118357I-200264J28536D01*
G01*
X104132Y87214D02*
G03*
X107039Y102648I-170507J40109D01*
G01*
X99798Y72297D02*
G03*
X104132Y87214I-141474J49189D01*
G01*
X91783Y55847D02*
G03*
X99798Y72297I-62049J40409D01*
G01*
X84891Y46991D02*
G03*
X91783Y55847I-52867J48253D01*
G01*
X80986Y42972D02*
G03*
X84891Y46991I-59740J61952D01*
G01*
X76777Y39126D02*
G03*
X80986Y42972I-69933J80751D01*
G01*
X72267Y35379D02*
G03*
X76777Y39126I-89617J112442D01*
G01*
X67458Y31655D02*
G03*
X72267Y35379I-129119J171747D01*
G01*
X47306Y16944D02*
G03*
X52389Y20573I-184156J263335D01*
G01*
X42127Y13446D02*
G03*
X47306Y16944I-104860J160840D01*
G01*
X36831Y10165D02*
G03*
X42127Y13446I-68489J116445D01*
G01*
X31398Y7186D02*
G03*
X36831Y10165I-46703J91612D01*
G01*
X25807Y4594D02*
G03*
X31398Y7186I-31807J75949D01*
G01*
X20036Y2475D02*
G03*
X25807Y4594I-20796J65564D01*
G01*
X14065Y915D02*
G03*
X20036Y2475I-12160J58751D01*
G01*
X7874Y0D02*
G03*
X14065Y916I-4929J54724D01*
G01*
X-9534Y742D02*
G03*
X7874Y0I11568J66842D01*
G01*
X-20721Y3464D02*
G03*
X-9534Y742I25310J79671D01*
G01*
X-26182Y5362D02*
G03*
X-20721Y3464I35629J93689D01*
G01*
X-31554Y7561D02*
G03*
X-26182Y5362I46316J105474D01*
G01*
X-36832Y10017D02*
G03*
X-31554Y7561I59246J120453D01*
G01*
X-42017Y12686D02*
G03*
X-36832Y10017I75318J139928D01*
G01*
X-47104Y15525D02*
G03*
X-42017Y12686I96123J166299D01*
G01*
X-63120Y25721D02*
G03*
X-47104Y15525I122836J175261D01*
G01*
X-73318Y33440D02*
G03*
X-63120Y25721I112595J138165D01*
G01*
X-82868Y41913D02*
G03*
X-73318Y33440I105372J109149D01*
G01*
X-91545Y51156D02*
G03*
X-82868Y41913I97916J83223D01*
G01*
X-95485Y56071D02*
G03*
X-91545Y51156I90701J68675D01*
G01*
X-103962Y72231D02*
G03*
X-95485Y56071I54262J18159D01*
G01*
X-105669Y77979D02*
G03*
X-103962Y72231I71691J18163D01*
G01*
X-106953Y83861D02*
G03*
X-105669Y77979I89583J16485D01*
G01*
X-107898Y89849D02*
G03*
X-106953Y83861I117631J15486D01*
G01*
X-108584Y95915D02*
G03*
X-107898Y89849I166548J15777D01*
G01*
X-109095Y102031D02*
G03*
X-108584Y95915I273515J19756D01*
G01*
X-111340Y142937D02*
G03*
X-109917Y114300I686176J19733D01*
G01*
X-111391Y144727D02*
G03*
X-111424Y145424I-25703J-864D01*
G01*
Y145424D02*
G03*
X-111475Y146020I-11232J-675D01*
G01*
Y146020D02*
G03*
X-111556Y146536I-6105J-692D01*
G01*
Y146536D02*
G03*
X-111677Y146996I-4050J-815D01*
G01*
D02*
G03*
X-112078Y147837I-3487J-1148D01*
G01*
Y147837D02*
G03*
X-112379Y148263I-4690J-2999D01*
G01*
Y148263D02*
G03*
X-112762Y148723I-7526J-5872D01*
G01*
D02*
G03*
X-113427Y149248I-2166J-2062D01*
G01*
Y149248D02*
G03*
X-113866Y149497I-4005J-6552D01*
G01*
X-113866D02*
G03*
X-114351Y149740I-6833J-13001D01*
G01*
X-115893Y150465D02*
G03*
X-115383Y150222I11607J23665D01*
G01*
X-116374Y150714D02*
G03*
X-115893Y150465I5945J10904D01*
G01*
X-116807Y150971D02*
G03*
X-116374Y150714I3692J5734D01*
G01*
X-117174Y151239D02*
G03*
X-116807Y150971I2415J2925D01*
G01*
X-118801Y152837D02*
G03*
X-117174Y151239I11385J9957D01*
G01*
X-119535Y153727D02*
G03*
X-118801Y152837I14782J11459D01*
G01*
X-120222Y154663D02*
G03*
X-119535Y153727I17995J12481D01*
G01*
X-120866Y155638D02*
G03*
X-120222Y154663I21970J13818D01*
G01*
X-121471Y156640D02*
G03*
X-120866Y155638I27018J15612D01*
G01*
X-122041Y157662D02*
G03*
X-121471Y156640I33727J18140D01*
G01*
X-122579Y158692D02*
G03*
X-122041Y157662I43347J21995D01*
G01*
X-123091Y159722D02*
G03*
X-122579Y158692I59053J28675D01*
G01*
X-126893Y169272D02*
G03*
X-123579Y160743I71857J23014D01*
G01*
X-128205Y173712D02*
G03*
X-126893Y169272I90130J24207D01*
G01*
X-129317Y178236D02*
G03*
X-128205Y173712I106287J23728D01*
G01*
X-130253Y182819D02*
G03*
X-129317Y178236I126392J23428D01*
G01*
X-131037Y187438D02*
G03*
X-130253Y182819I152236J23459D01*
G01*
X-131692Y192068D02*
G03*
X-131037Y187438I187237J24127D01*
G01*
X-132241Y196684D02*
G03*
X-131692Y192068I238721J26078D01*
G01*
X-134042Y215501D02*
G03*
X-133731Y212002I199613J15982D01*
G01*
X-134279Y219145D02*
G03*
X-134042Y215501I121450J6065D01*
G01*
X-134383Y222847D02*
G03*
X-134279Y219145I84860J544D01*
G01*
X-134298Y226523D02*
G03*
X-134383Y222847I61135J-3265D01*
G01*
X-133964Y230086D02*
G03*
X-134298Y226523I43716J-5895D01*
G01*
X-133323Y233453D02*
G03*
X-133964Y230086I30472J-7541D01*
G01*
X-132318Y236537D02*
G03*
X-133323Y233453I20527J-8394D01*
G01*
X-130891Y239252D02*
G03*
X-132318Y236537I13353J-8750D01*
G01*
X-127884Y241927D02*
G03*
X-130891Y239252I2981J-6379D01*
G01*
X-124431Y242322D02*
G03*
X-127884Y241927I-1068J-5954D01*
G01*
X-122678Y241822D02*
G03*
X-124431Y242322I-3121J-7618D01*
G01*
X-120983Y240941D02*
G03*
X-122678Y241822I-5651J-8802D01*
G01*
X-119401Y239742D02*
G03*
X-120983Y240941I-8355J-9377D01*
G01*
X-115903Y234867D02*
G03*
X-119401Y239742I-12433J-5230D01*
G01*
X-116059Y237345D02*
G03*
X-115779Y236232I7387J1264D01*
G01*
X-116210Y238593D02*
G03*
X-116059Y237345I12433J878D01*
G01*
X-116262Y239931D02*
G03*
X-116210Y238593I20340J117D01*
G01*
X-116242Y241316D02*
G03*
X-116262Y239931I33820J-1171D01*
G01*
X-116180Y242706D02*
G03*
X-116242Y241316I65697J-3650D01*
G01*
X-116103Y244056D02*
G03*
X-116040Y245325I-69766J4094D01*
G01*
D02*
G03*
X-116020Y246468I-24131J1003D01*
G01*
X7921Y421420D02*
X9985D01*
X-21931Y419597D02*
Y420296D01*
X120793Y236056D02*
Y246217D01*
X-115779Y235167D02*
Y236232D01*
X137196Y263681D02*
X138489Y267062D01*
X-35423Y414165D02*
X-32114Y415535D01*
X-38716Y412742D02*
X-35423Y414165D01*
X-41994Y411282D02*
X-38716Y412742D01*
X-45257Y409800D02*
X-41994Y411282D01*
X-48505Y408310D02*
X-45257Y409800D01*
X-51736Y406828D02*
X-48505Y408310D01*
X-54953Y405369D02*
X-51736Y406828D01*
X-65225Y400659D02*
X-54953Y405369D01*
X-70331Y398238D02*
X-65225Y400659D01*
X-105196Y379653D02*
X-100330Y382514D01*
X-147067Y320280D02*
X-147042Y316197D01*
X-147042Y312106D02*
X-147042Y316197D01*
X-147033Y308012D02*
X-146979Y303922D01*
X-136286Y270484D02*
X-135052Y269681D01*
X-133838Y268889D01*
X-128901Y261884D02*
X-128712Y260843D01*
X-128529Y259791D01*
X143083Y203779D02*
X143315Y207302D01*
X142816Y200307D02*
X143083Y203779D01*
X142537Y196905D02*
X142816Y200307D01*
X108553Y149644D02*
X110038Y148678D01*
X62351Y27881D02*
X67458Y31655D01*
X52389Y20573D02*
X62351Y27881D01*
X-109512Y108168D02*
X-109095Y102031D01*
X-109917Y114300D02*
X-109512Y108168D01*
X-111391Y144727D02*
X-111340Y142937D01*
X-114863Y149981D02*
X-114351Y149740D01*
X-115383Y150222D02*
X-114863Y149981D01*
X-123579Y160743D02*
X-123091Y159722D01*
X-132709Y201262D02*
X-132241Y196684D01*
X-133118Y205777D02*
X-132709Y201262D01*
X-133731Y212002D02*
X-133118Y205777D01*
X-116180Y242706D02*
X-116103Y244056D01*
D12*
X1244094Y-228346D02*
Y-220475D01*
X1248030D01*
X1249342Y-221786D01*
Y-224410D01*
X1248030Y-225722D01*
X1244094D01*
X1246718D02*
X1249342Y-228346D01*
X1255901D02*
X1253277D01*
X1251966Y-227034D01*
Y-224410D01*
X1253277Y-223098D01*
X1255901D01*
X1257213Y-224410D01*
Y-225722D01*
X1251966D01*
X1259837Y-223098D02*
X1262461Y-228346D01*
X1265085Y-223098D01*
X889763Y-259844D02*
Y-267716D01*
X893699D01*
X895011Y-266404D01*
Y-261157D01*
X893699Y-259844D01*
X889763D01*
X901571Y-267716D02*
X898947D01*
X897635Y-266404D01*
Y-263780D01*
X898947Y-262468D01*
X901571D01*
X902882Y-263780D01*
Y-265092D01*
X897635D01*
X905506Y-267716D02*
X909442D01*
X910754Y-266404D01*
X909442Y-265092D01*
X906818D01*
X905506Y-263780D01*
X906818Y-262468D01*
X910754D01*
X916002Y-270340D02*
X917314D01*
X918626Y-269028D01*
Y-262468D01*
X914690D01*
X913378Y-263780D01*
Y-266404D01*
X914690Y-267716D01*
X918626D01*
X921249D02*
X923873D01*
X922561D01*
Y-262468D01*
X921249D01*
X927809Y-267716D02*
Y-262468D01*
X931745D01*
X933057Y-263780D01*
Y-267716D01*
X939616D02*
X936992D01*
X935680Y-266404D01*
Y-263780D01*
X936992Y-262468D01*
X939616D01*
X940928Y-263780D01*
Y-265092D01*
X935680D01*
X943552Y-262468D02*
Y-267716D01*
Y-265092D01*
X944864Y-263780D01*
X946176Y-262468D01*
X947488D01*
X1086614Y-141734D02*
Y-149606D01*
X1090549D01*
X1091861Y-148294D01*
Y-143046D01*
X1090549Y-141734D01*
X1086614D01*
X1095797Y-149606D02*
X1098421D01*
X1099733Y-148294D01*
Y-145670D01*
X1098421Y-144358D01*
X1095797D01*
X1094485Y-145670D01*
Y-148294D01*
X1095797Y-149606D01*
X1107604Y-144358D02*
X1103669D01*
X1102357Y-145670D01*
Y-148294D01*
X1103669Y-149606D01*
X1107604D01*
X1110228Y-144358D02*
Y-148294D01*
X1111540Y-149606D01*
X1115476D01*
Y-144358D01*
X1118100Y-149606D02*
Y-144358D01*
X1119412D01*
X1120724Y-145670D01*
Y-149606D01*
Y-145670D01*
X1122036Y-144358D01*
X1123347Y-145670D01*
Y-149606D01*
X1129907D02*
X1127283D01*
X1125971Y-148294D01*
Y-145670D01*
X1127283Y-144358D01*
X1129907D01*
X1131219Y-145670D01*
Y-146982D01*
X1125971D01*
X1133843Y-149606D02*
Y-144358D01*
X1137778D01*
X1139090Y-145670D01*
Y-149606D01*
X1143026Y-143046D02*
Y-144358D01*
X1141714D01*
X1144338D01*
X1143026D01*
Y-148294D01*
X1144338Y-149606D01*
X1086614Y-181104D02*
Y-188976D01*
X1091861D01*
X1095797Y-183728D02*
X1098421D01*
X1099733Y-185040D01*
Y-188976D01*
X1095797D01*
X1094485Y-187664D01*
X1095797Y-186352D01*
X1099733D01*
X1102357Y-183728D02*
Y-187664D01*
X1103669Y-188976D01*
X1107604D01*
Y-190288D01*
X1106293Y-191600D01*
X1104981D01*
X1107604Y-188976D02*
Y-183728D01*
X1114164Y-188976D02*
X1111540D01*
X1110228Y-187664D01*
Y-185040D01*
X1111540Y-183728D01*
X1114164D01*
X1115476Y-185040D01*
Y-186352D01*
X1110228D01*
X1118100Y-183728D02*
Y-188976D01*
Y-186352D01*
X1119412Y-185040D01*
X1120724Y-183728D01*
X1122036D01*
X1133843Y-188976D02*
Y-181104D01*
X1139090Y-188976D01*
Y-181104D01*
X1143026Y-183728D02*
X1145650D01*
X1146962Y-185040D01*
Y-188976D01*
X1143026D01*
X1141714Y-187664D01*
X1143026Y-186352D01*
X1146962D01*
X1149586Y-188976D02*
Y-183728D01*
X1150898D01*
X1152209Y-185040D01*
Y-188976D01*
Y-185040D01*
X1153521Y-183728D01*
X1154833Y-185040D01*
Y-188976D01*
X1161393D02*
X1158769D01*
X1157457Y-187664D01*
Y-185040D01*
X1158769Y-183728D01*
X1161393D01*
X1162705Y-185040D01*
Y-186352D01*
X1157457D01*
X1086614Y-220475D02*
Y-228346D01*
X1090549D01*
X1091861Y-227034D01*
Y-221786D01*
X1090549Y-220475D01*
X1086614D01*
X1095797Y-223098D02*
X1098421D01*
X1099733Y-224410D01*
Y-228346D01*
X1095797D01*
X1094485Y-227034D01*
X1095797Y-225722D01*
X1099733D01*
X1103669Y-221786D02*
Y-223098D01*
X1102357D01*
X1104981D01*
X1103669D01*
Y-227034D01*
X1104981Y-228346D01*
X1112852D02*
X1110228D01*
X1108916Y-227034D01*
Y-224410D01*
X1110228Y-223098D01*
X1112852D01*
X1114164Y-224410D01*
Y-225722D01*
X1108916D01*
X1086614Y-259844D02*
Y-267716D01*
X1090549D01*
X1091861Y-266404D01*
Y-261157D01*
X1090549Y-259844D01*
X1086614D01*
X1095797Y-267716D02*
X1098421D01*
X1099733Y-266404D01*
Y-263780D01*
X1098421Y-262468D01*
X1095797D01*
X1094485Y-263780D01*
Y-266404D01*
X1095797Y-267716D01*
X1107604Y-262468D02*
X1103669D01*
X1102357Y-263780D01*
Y-266404D01*
X1103669Y-267716D01*
X1107604D01*
X1110228Y-262468D02*
Y-266404D01*
X1111540Y-267716D01*
X1115476D01*
Y-262468D01*
X1118100Y-267716D02*
Y-262468D01*
X1119412D01*
X1120724Y-263780D01*
Y-267716D01*
Y-263780D01*
X1122036Y-262468D01*
X1123347Y-263780D01*
Y-267716D01*
X1129907D02*
X1127283D01*
X1125971Y-266404D01*
Y-263780D01*
X1127283Y-262468D01*
X1129907D01*
X1131219Y-263780D01*
Y-265092D01*
X1125971D01*
X1133843Y-267716D02*
Y-262468D01*
X1137778D01*
X1139090Y-263780D01*
Y-267716D01*
X1143026Y-261157D02*
Y-262468D01*
X1141714D01*
X1144338D01*
X1143026D01*
Y-266404D01*
X1144338Y-267716D01*
D13*
X1240157Y-255905D02*
Y-216535D01*
X1082677Y-177165D02*
X1358267D01*
X1082677Y-216535D02*
X1358267D01*
X885826Y-255905D02*
X1358267D01*
X885826Y-137795D02*
X1358267D01*
X885826Y-295275D02*
Y-137795D01*
X1082677Y-295275D02*
Y-137795D01*
X-295276Y874016D02*
X1358267D01*
Y-295275D02*
Y874016D01*
X-295276Y-295275D02*
Y874016D01*
Y-295275D02*
X1358267D01*
X1092519Y-281498D02*
X1096455D01*
X1094487D01*
Y-287401D01*
X1101375D02*
X1099407D01*
X1098423Y-286417D01*
Y-284449D01*
X1099407Y-283465D01*
X1101375D01*
X1102359Y-284449D01*
Y-285433D01*
X1098423D01*
X1105310Y-283465D02*
X1107278D01*
X1108262Y-284449D01*
Y-287401D01*
X1105310D01*
X1104327Y-286417D01*
X1105310Y-285433D01*
X1108262D01*
X1110230Y-287401D02*
Y-283465D01*
X1111214D01*
X1112198Y-284449D01*
Y-287401D01*
Y-284449D01*
X1113182Y-283465D01*
X1114166Y-284449D01*
Y-287401D01*
X1116134Y-288385D02*
X1120069D01*
X1125973Y-282481D02*
X1124989Y-281498D01*
X1123021D01*
X1122037Y-282481D01*
Y-283465D01*
X1123021Y-284449D01*
X1124989D01*
X1125973Y-285433D01*
Y-286417D01*
X1124989Y-287401D01*
X1123021D01*
X1122037Y-286417D01*
X1131877Y-283465D02*
X1128925D01*
X1127941Y-284449D01*
Y-286417D01*
X1128925Y-287401D01*
X1131877D01*
X1133844Y-281498D02*
Y-287401D01*
Y-284449D01*
X1134828Y-283465D01*
X1136796D01*
X1137780Y-284449D01*
Y-287401D01*
X1142700D02*
X1140732D01*
X1139748Y-286417D01*
Y-284449D01*
X1140732Y-283465D01*
X1142700D01*
X1143684Y-284449D01*
Y-285433D01*
X1139748D01*
X1145652Y-287401D02*
X1147620D01*
X1146636D01*
Y-283465D01*
X1145652D01*
X1150571D02*
Y-287401D01*
Y-285433D01*
X1151555Y-284449D01*
X1152539Y-283465D01*
X1153523D01*
X1159427Y-287401D02*
X1157459D01*
X1156475Y-286417D01*
Y-284449D01*
X1157459Y-283465D01*
X1159427D01*
X1160411Y-284449D01*
Y-285433D01*
X1156475D01*
X1162379Y-288385D02*
X1166314D01*
X1168282Y-287401D02*
Y-281498D01*
X1170250Y-283465D01*
X1172218Y-281498D01*
Y-287401D01*
X1175170Y-283465D02*
X1177138D01*
X1178121Y-284449D01*
Y-287401D01*
X1175170D01*
X1174186Y-286417D01*
X1175170Y-285433D01*
X1178121D01*
X1181073Y-283465D02*
X1183041D01*
X1184025Y-284449D01*
Y-287401D01*
X1181073D01*
X1180089Y-286417D01*
X1181073Y-285433D01*
X1184025D01*
X1185993Y-283465D02*
Y-287401D01*
Y-285433D01*
X1186977Y-284449D01*
X1187961Y-283465D01*
X1188945D01*
X1192881Y-282481D02*
Y-283465D01*
X1191897D01*
X1193865D01*
X1192881D01*
Y-286417D01*
X1193865Y-287401D01*
X1199768D02*
X1197800D01*
X1196816Y-286417D01*
Y-284449D01*
X1197800Y-283465D01*
X1199768D01*
X1200752Y-284449D01*
Y-285433D01*
X1196816D01*
X1202720Y-287401D02*
Y-283465D01*
X1205672D01*
X1206656Y-284449D01*
Y-287401D01*
X1208624Y-288385D02*
X1212559D01*
X1214527Y-282481D02*
X1215511Y-281498D01*
X1217479D01*
X1218463Y-282481D01*
Y-286417D01*
X1217479Y-287401D01*
X1215511D01*
X1214527Y-286417D01*
Y-282481D01*
X1220431D02*
X1221415Y-281498D01*
X1223382D01*
X1224366Y-282481D01*
Y-286417D01*
X1223382Y-287401D01*
X1221415D01*
X1220431Y-286417D01*
Y-282481D01*
X1226334Y-287401D02*
Y-286417D01*
X1227318D01*
Y-287401D01*
X1226334D01*
X1231254D02*
Y-281498D01*
X1234206D01*
X1235190Y-282481D01*
Y-284449D01*
X1234206Y-285433D01*
X1231254D01*
X1241093Y-283465D02*
X1238142D01*
X1237158Y-284449D01*
Y-286417D01*
X1238142Y-287401D01*
X1241093D01*
X1243061Y-281498D02*
Y-287401D01*
X1246013D01*
X1246997Y-286417D01*
Y-285433D01*
Y-284449D01*
X1246013Y-283465D01*
X1243061D01*
X1248965Y-281498D02*
Y-287401D01*
X1251917D01*
X1252900Y-286417D01*
Y-282481D01*
X1251917Y-281498D01*
X1248965D01*
X1255852Y-287401D02*
X1257820D01*
X1258804Y-286417D01*
Y-284449D01*
X1257820Y-283465D01*
X1255852D01*
X1254868Y-284449D01*
Y-286417D01*
X1255852Y-287401D01*
X1264708Y-283465D02*
X1261756D01*
X1260772Y-284449D01*
Y-286417D01*
X1261756Y-287401D01*
X1264708D01*
D15*
X1104330Y-194886D02*
Y-208661D01*
X1111218D01*
X1113514Y-206365D01*
Y-204069D01*
X1111218Y-201773D01*
X1104330D01*
X1111218D01*
X1113514Y-199478D01*
Y-197182D01*
X1111218Y-194886D01*
X1104330D01*
X1120401Y-208661D02*
X1124993D01*
X1127289Y-206365D01*
Y-201773D01*
X1124993Y-199478D01*
X1120401D01*
X1118105Y-201773D01*
Y-206365D01*
X1120401Y-208661D01*
X1134176Y-197182D02*
Y-199478D01*
X1131880D01*
X1136472D01*
X1134176D01*
Y-206365D01*
X1136472Y-208661D01*
X1145656Y-197182D02*
Y-199478D01*
X1143360D01*
X1147951D01*
X1145656D01*
Y-206365D01*
X1147951Y-208661D01*
X1157135D02*
X1161726D01*
X1164022Y-206365D01*
Y-201773D01*
X1161726Y-199478D01*
X1157135D01*
X1154839Y-201773D01*
Y-206365D01*
X1157135Y-208661D01*
X1168614D02*
Y-199478D01*
X1170910D01*
X1173206Y-201773D01*
Y-208661D01*
Y-201773D01*
X1175502Y-199478D01*
X1177797Y-201773D01*
Y-208661D01*
X1205348Y-197182D02*
X1203052Y-194886D01*
X1198460D01*
X1196164Y-197182D01*
Y-199478D01*
X1198460Y-201773D01*
X1203052D01*
X1205348Y-204069D01*
Y-206365D01*
X1203052Y-208661D01*
X1198460D01*
X1196164Y-206365D01*
X1212235Y-208661D02*
X1216827D01*
X1219123Y-206365D01*
Y-201773D01*
X1216827Y-199478D01*
X1212235D01*
X1209939Y-201773D01*
Y-206365D01*
X1212235Y-208661D01*
X1223714D02*
X1228306D01*
X1226010D01*
Y-194886D01*
X1223714D01*
X1244377D02*
Y-208661D01*
X1237490D01*
X1235194Y-206365D01*
Y-201773D01*
X1237490Y-199478D01*
X1244377D01*
X1255856Y-208661D02*
X1251264D01*
X1248969Y-206365D01*
Y-201773D01*
X1251264Y-199478D01*
X1255856D01*
X1258152Y-201773D01*
Y-204069D01*
X1248969D01*
X1262744Y-199478D02*
Y-208661D01*
Y-204069D01*
X1265040Y-201773D01*
X1267335Y-199478D01*
X1269631D01*
X907480Y-273627D02*
Y-289370D01*
X912728Y-284122D01*
X917975Y-289370D01*
Y-273627D01*
X923223Y-289370D02*
X928471D01*
X925847D01*
Y-278874D01*
X923223D01*
X936342Y-289370D02*
Y-278874D01*
X938966D01*
X941590Y-281498D01*
Y-289370D01*
Y-281498D01*
X944213Y-278874D01*
X946837Y-281498D01*
Y-289370D01*
X952085Y-273627D02*
Y-284122D01*
X957333Y-289370D01*
X962580Y-284122D01*
Y-273627D01*
X978323Y-276251D02*
X975699Y-273627D01*
X970452D01*
X967828Y-276251D01*
Y-286746D01*
X970452Y-289370D01*
X975699D01*
X978323Y-286746D01*
Y-281498D01*
X973075D01*
X1261811Y-236880D02*
X1264435Y-234257D01*
X1269682D01*
X1272306Y-236880D01*
Y-247376D01*
X1269682Y-249999D01*
X1264435D01*
X1261811Y-247376D01*
Y-236880D01*
X1277554D02*
X1280177Y-234257D01*
X1285425D01*
X1288049Y-236880D01*
Y-247376D01*
X1285425Y-249999D01*
X1280177D01*
X1277554Y-247376D01*
Y-236880D01*
X1098425Y-238520D02*
X1100721Y-236224D01*
X1105312D01*
X1107608Y-238520D01*
Y-240816D01*
X1105312Y-243112D01*
X1103016D01*
X1105312D01*
X1107608Y-245408D01*
Y-247704D01*
X1105312Y-249999D01*
X1100721D01*
X1098425Y-247704D01*
X1112200Y-238520D02*
X1114496Y-236224D01*
X1119087D01*
X1121383Y-238520D01*
Y-247704D01*
X1119087Y-249999D01*
X1114496D01*
X1112200Y-247704D01*
Y-238520D01*
X1125975Y-249999D02*
X1135158Y-240816D01*
X1139750Y-238520D02*
X1142046Y-236224D01*
X1146638D01*
X1148933Y-238520D01*
Y-247704D01*
X1146638Y-249999D01*
X1142046D01*
X1139750Y-247704D01*
Y-238520D01*
X1162708Y-236224D02*
X1158117Y-238520D01*
X1153525Y-243112D01*
Y-247704D01*
X1155821Y-249999D01*
X1160413D01*
X1162708Y-247704D01*
Y-245408D01*
X1160413Y-243112D01*
X1153525D01*
X1167300Y-249999D02*
X1176484Y-240816D01*
X1190259Y-249999D02*
X1181075D01*
X1190259Y-240816D01*
Y-238520D01*
X1187963Y-236224D01*
X1183371D01*
X1181075Y-238520D01*
X1194850D02*
X1197146Y-236224D01*
X1201738D01*
X1204034Y-238520D01*
Y-247704D01*
X1201738Y-249999D01*
X1197146D01*
X1194850Y-247704D01*
Y-238520D01*
X1208626Y-249999D02*
X1213217D01*
X1210921D01*
Y-236224D01*
X1208626Y-238520D01*
X1220105Y-247704D02*
X1222400Y-249999D01*
X1226992D01*
X1229288Y-247704D01*
Y-238520D01*
X1226992Y-236224D01*
X1222400D01*
X1220105Y-238520D01*
Y-240816D01*
X1222400Y-243112D01*
X1229288D01*
X1092519Y-157484D02*
X1101703D01*
X1097111D01*
Y-171259D01*
X1113182D02*
X1108590D01*
X1106294Y-168964D01*
Y-164372D01*
X1108590Y-162076D01*
X1113182D01*
X1115478Y-164372D01*
Y-166668D01*
X1106294D01*
X1122365Y-162076D02*
X1126957D01*
X1129253Y-164372D01*
Y-171259D01*
X1122365D01*
X1120070Y-168964D01*
X1122365Y-166668D01*
X1129253D01*
X1133844Y-171259D02*
Y-162076D01*
X1136140D01*
X1138436Y-164372D01*
Y-171259D01*
Y-164372D01*
X1140732Y-162076D01*
X1143028Y-164372D01*
Y-171259D01*
X1147620Y-173555D02*
X1156803D01*
X1170578Y-159780D02*
X1168282Y-157484D01*
X1163691D01*
X1161395Y-159780D01*
Y-162076D01*
X1163691Y-164372D01*
X1168282D01*
X1170578Y-166668D01*
Y-168964D01*
X1168282Y-171259D01*
X1163691D01*
X1161395Y-168964D01*
X1184353Y-162076D02*
X1177466D01*
X1175170Y-164372D01*
Y-168964D01*
X1177466Y-171259D01*
X1184353D01*
X1188945Y-157484D02*
Y-171259D01*
Y-164372D01*
X1191241Y-162076D01*
X1195832D01*
X1198128Y-164372D01*
Y-171259D01*
X1209608D02*
X1205016D01*
X1202720Y-168964D01*
Y-164372D01*
X1205016Y-162076D01*
X1209608D01*
X1211903Y-164372D01*
Y-166668D01*
X1202720D01*
X1216495Y-171259D02*
X1221087D01*
X1218791D01*
Y-162076D01*
X1216495D01*
X1227974D02*
Y-171259D01*
Y-166668D01*
X1230270Y-164372D01*
X1232566Y-162076D01*
X1234862D01*
X1248637Y-171259D02*
X1244045D01*
X1241749Y-168964D01*
Y-164372D01*
X1244045Y-162076D01*
X1248637D01*
X1250933Y-164372D01*
Y-166668D01*
X1241749D01*
X1255524Y-173555D02*
X1264708D01*
X1269300Y-171259D02*
Y-157484D01*
X1273891Y-162076D01*
X1278483Y-157484D01*
Y-171259D01*
X1285370Y-162076D02*
X1289962D01*
X1292258Y-164372D01*
Y-171259D01*
X1285370D01*
X1283075Y-168964D01*
X1285370Y-166668D01*
X1292258D01*
X1299146Y-162076D02*
X1303737D01*
X1306033Y-164372D01*
Y-171259D01*
X1299146D01*
X1296850Y-168964D01*
X1299146Y-166668D01*
X1306033D01*
X1310625Y-162076D02*
Y-171259D01*
Y-166668D01*
X1312921Y-164372D01*
X1315216Y-162076D01*
X1317512D01*
X1326696Y-159780D02*
Y-162076D01*
X1324400D01*
X1328992D01*
X1326696D01*
Y-168964D01*
X1328992Y-171259D01*
X1342767D02*
X1338175D01*
X1335879Y-168964D01*
Y-164372D01*
X1338175Y-162076D01*
X1342767D01*
X1345062Y-164372D01*
Y-166668D01*
X1335879D01*
X1349654Y-171259D02*
Y-162076D01*
X1356542D01*
X1358838Y-164372D01*
Y-171259D01*
D47*
X54933Y38937D02*
D03*
X38960Y26901D02*
D03*
X46946Y32919D02*
D03*
X70906Y50974D02*
D03*
X62919Y44956D02*
D03*
X98663Y131086D02*
D03*
X97272Y121183D02*
D03*
X95880Y111281D02*
D03*
X94488Y101378D02*
D03*
X93097Y91475D02*
D03*
D48*
X30974Y20883D02*
D03*
D49*
X91705Y81573D02*
D03*
D50*
X118779Y174175D02*
D03*
X122731Y196585D02*
D03*
D51*
X131952Y166136D02*
D03*
X137858Y199635D02*
D03*
D52*
X115745Y168993D02*
D03*
X121652Y202492D02*
D03*
D85*
X-65358Y371460D02*
D03*
X-60626Y366728D02*
D03*
D86*
X38141Y372425D02*
D03*
X62147Y362481D02*
D03*
D87*
X53765Y355620D02*
D03*
X50128Y357126D02*
D03*
X46490Y358633D02*
D03*
X42853Y360139D02*
D03*
X39216Y361646D02*
D03*
D88*
X35433Y389173D02*
D03*
Y382480D02*
D03*
X-82678Y229724D02*
D03*
Y223031D02*
D03*
X-33464Y97835D02*
D03*
Y91142D02*
D03*
D89*
X71453Y368697D02*
D03*
X76186Y373429D02*
D03*
D90*
X45894Y383545D02*
D03*
X50514Y381632D02*
D03*
X55133Y379718D02*
D03*
X59752Y377805D02*
D03*
X64372Y375892D02*
D03*
X70248Y390077D02*
D03*
X65628Y391990D02*
D03*
X61009Y393904D02*
D03*
X56389Y395817D02*
D03*
X51770Y397730D02*
D03*
D91*
X84506Y350056D02*
D03*
X103993Y330569D02*
D03*
X92857Y358408D02*
D03*
X112345Y338920D02*
D03*
D92*
X-94151Y330569D02*
D03*
X-74663Y350056D02*
D03*
X-102502Y338920D02*
D03*
X-83015Y358408D02*
D03*
D93*
X-116923Y189991D02*
D03*
Y223849D02*
D03*
D94*
X-94678Y206920D02*
D03*
Y214794D02*
D03*
Y199046D02*
D03*
D95*
X-39272Y62992D02*
D03*
X-27657D02*
D03*
D96*
X-28839Y80512D02*
D03*
Y76772D02*
D03*
Y73032D02*
D03*
X-38091D02*
D03*
Y80512D02*
D03*
D97*
X-52559Y80709D02*
D03*
X-45867D02*
D03*
D98*
X-43307Y90354D02*
D03*
Y98622D02*
D03*
D99*
X-23622Y119095D02*
D03*
X2362D02*
D03*
D100*
X-14567Y96850D02*
D03*
X-6693D02*
D03*
D101*
X-4331Y80709D02*
D03*
X-15354D02*
D03*
D102*
X13780Y389764D02*
D03*
X-13780D02*
D03*
X13780Y377953D02*
D03*
X-13780D02*
D03*
D103*
X27461Y393701D02*
D03*
X-27461D02*
D03*
Y374016D02*
D03*
X27461D02*
D03*
D104*
X124802Y332030D02*
D03*
X85967Y370866D02*
D03*
X72048Y356946D02*
D03*
X110883Y318111D02*
D03*
D105*
X-76125Y370866D02*
D03*
X-114960Y332030D02*
D03*
X-101041Y318111D02*
D03*
X-62205Y356946D02*
D03*
D106*
X34919Y298612D02*
D03*
X28260Y296188D02*
D03*
X35581Y288183D02*
D03*
X84506Y59055D02*
D03*
X84646Y72047D02*
D03*
X59752Y87628D02*
D03*
X53150Y109449D02*
D03*
X62992Y112992D02*
D03*
X24409Y57480D02*
D03*
X51394Y72441D02*
D03*
X45513Y97638D02*
D03*
X21260Y75197D02*
D03*
X9449Y51181D02*
D03*
X-9101Y63386D02*
D03*
X5600Y68898D02*
D03*
X16843Y92126D02*
D03*
X-70472Y114961D02*
D03*
X-96457Y100394D02*
D03*
X-102583Y127953D02*
D03*
X-85039Y119291D02*
D03*
X-60626Y96086D02*
D03*
X-57267Y38189D02*
D03*
X-76125Y62685D02*
D03*
X-87402Y82284D02*
D03*
X22886Y337427D02*
D03*
X29921Y31102D02*
D03*
X6238Y331368D02*
D03*
X29175Y339717D02*
D03*
X29528Y255118D02*
D03*
X49197Y316632D02*
D03*
X26369Y322104D02*
D03*
X35531Y330760D02*
D03*
X24659Y326803D02*
D03*
X18000Y324379D02*
D03*
X24016Y280905D02*
D03*
X21420Y314982D02*
D03*
X23130Y310284D02*
D03*
X24840Y305585D02*
D03*
X78740Y72835D02*
D03*
X26936Y312226D02*
D03*
X-117364Y162869D02*
D03*
X40888Y316747D02*
D03*
X19710Y319681D02*
D03*
X-107913Y162326D02*
D03*
X-112910Y167323D02*
D03*
X48107Y229769D02*
D03*
X-52457Y229224D02*
D03*
X-60039D02*
D03*
Y242126D02*
D03*
X-47776Y57288D02*
D03*
X15354Y29528D02*
D03*
X22614Y32456D02*
D03*
X-18687Y50876D02*
D03*
X-50134Y62321D02*
D03*
X2362Y80709D02*
D03*
X-4331Y73638D02*
D03*
X-33465Y73032D02*
D03*
X-24409Y77165D02*
D03*
X-56496Y80709D02*
D03*
X-3957Y45305D02*
D03*
X-5034Y42345D02*
D03*
X101700Y157757D02*
D03*
X102782Y166162D02*
D03*
X107343Y169356D02*
D03*
X106455Y160916D02*
D03*
X115513Y212289D02*
D03*
X104285Y188284D02*
D03*
X122096Y192939D02*
D03*
X112042Y196616D02*
D03*
X119430Y177818D02*
D03*
X108724Y177802D02*
D03*
M02*
