G04*
G04 #@! TF.GenerationSoftware,Altium Limited,Altium Designer,18.1.11 (251)*
G04*
G04 Layer_Color=65535*
%FSLAX25Y25*%
%MOIN*%
G70*
G01*
G75*
%ADD10C,0.00394*%
%ADD11C,0.01181*%
%ADD12C,0.00984*%
%ADD13C,0.00787*%
%ADD14C,0.00591*%
%ADD15C,0.01575*%
G36*
X43210Y257261D02*
X44404Y257247D01*
X45598Y257221D01*
X46195Y257202D01*
Y257202D01*
X46777Y257183D01*
X47940Y257135D01*
X49103Y257077D01*
X50266Y257008D01*
X50846Y256969D01*
Y256969D01*
X53952Y256736D01*
X60139Y256028D01*
X66293Y255077D01*
X72405Y253884D01*
X75436Y253168D01*
X75936Y253051D01*
X76933Y252802D01*
X77926Y252538D01*
X78916Y252259D01*
X79408Y252113D01*
X81406Y251512D01*
X83410Y250896D01*
X84974Y250424D01*
X85418Y250290D01*
X85669Y250216D01*
X85897Y250150D01*
X86171Y250071D01*
X86674Y249928D01*
X87177Y249788D01*
X87429Y249720D01*
X87680Y249652D01*
X88182Y249520D01*
X88684Y249393D01*
X89188Y249270D01*
X89441Y249210D01*
Y249210D01*
X89691Y249152D01*
X90193Y249041D01*
X90696Y248935D01*
X90989Y248877D01*
X91200Y248835D01*
X91452Y248788D01*
Y248788D01*
X91703Y248742D01*
X91918Y248705D01*
X92204Y248657D01*
X92706Y248579D01*
X93210Y248509D01*
X93462Y248477D01*
X93712Y248447D01*
X94213Y248394D01*
X94714Y248351D01*
X95217Y248316D01*
X95468Y248303D01*
X96100Y248276D01*
X97365Y248240D01*
X98631Y248227D01*
X99896Y248236D01*
X100529Y248248D01*
X100848Y248256D01*
X101023Y248261D01*
X101487Y248275D01*
X102126Y248298D01*
X102593Y248317D01*
X102764Y248324D01*
X103083Y248339D01*
Y248339D01*
X103404Y248355D01*
X103573Y248364D01*
X104045Y248389D01*
X104687Y248426D01*
X105328Y248466D01*
X105648Y248487D01*
X108218Y248676D01*
X110788Y248890D01*
X113354Y249113D01*
X115911Y249329D01*
X118454Y249523D01*
X118454Y249523D01*
X118940Y249556D01*
X119400Y249586D01*
X120031Y249625D01*
X120478Y249650D01*
X120973Y249298D01*
X120799Y236536D01*
X120293Y236052D01*
X120155Y236056D01*
X118880Y236119D01*
X117606Y236204D01*
X116334Y236311D01*
X115699Y236375D01*
X112909Y236641D01*
X110519Y236851D01*
X110037Y236893D01*
X109675Y236922D01*
X109540Y236931D01*
X108951Y236974D01*
X108227Y237019D01*
X107503Y237059D01*
X107141Y237077D01*
X107141Y237077D01*
X106784Y237092D01*
X106069Y237116D01*
X105354Y237131D01*
X104639Y237135D01*
X104281Y237134D01*
X103936Y237130D01*
X103244Y237112D01*
X102553Y237081D01*
X101863Y237036D01*
X101518Y237008D01*
X101190Y236979D01*
X100535Y236905D01*
X99883Y236814D01*
X99233Y236704D01*
X98909Y236643D01*
Y236643D01*
X98605Y236580D01*
X98000Y236437D01*
X97401Y236271D01*
X96809Y236083D01*
X96516Y235980D01*
X96240Y235877D01*
X95697Y235649D01*
X95166Y235395D01*
X94649Y235114D01*
X94396Y234964D01*
X93933Y234645D01*
X93072Y233921D01*
X92311Y233093D01*
X91662Y232174D01*
X91384Y231685D01*
X91384D01*
X91240Y231419D01*
X90969Y230879D01*
X90719Y230329D01*
X90552Y229918D01*
X90492Y229769D01*
X90386Y229486D01*
X90311Y229274D01*
X90279Y229184D01*
X90234Y229049D01*
X90076Y228575D01*
X89889Y227960D01*
X89763Y227502D01*
X89718Y227342D01*
X89639Y227031D01*
X89639Y227030D01*
X89639Y227030D01*
X89559Y226704D01*
X89526Y226559D01*
X89407Y226050D01*
X89266Y225393D01*
X89135Y224734D01*
X89074Y224404D01*
X89013Y224066D01*
X88894Y223390D01*
X88782Y222713D01*
X88674Y222034D01*
X88623Y221695D01*
X88219Y218989D01*
X88171Y218661D01*
X88069Y218007D01*
X87963Y217353D01*
X87853Y216700D01*
X87795Y216374D01*
X87741Y216067D01*
X87624Y215456D01*
X87496Y214846D01*
X87358Y214239D01*
X87284Y213936D01*
X87284Y213936D01*
X87217Y213660D01*
X87066Y213111D01*
X86899Y212568D01*
X86716Y212029D01*
X86617Y211763D01*
X86617Y211763D01*
X86341Y211022D01*
X85735Y209562D01*
X85076Y208125D01*
X84366Y206713D01*
X83985Y206020D01*
X83804Y205695D01*
X83428Y205054D01*
X83037Y204422D01*
X82630Y203799D01*
X82420Y203492D01*
X82217Y203197D01*
X81794Y202616D01*
X81355Y202048D01*
X80901Y201492D01*
X80667Y201220D01*
X80438Y200956D01*
X79964Y200441D01*
X79474Y199942D01*
X78968Y199458D01*
X78708Y199224D01*
X78174Y198745D01*
X77039Y197868D01*
X75844Y197074D01*
X74594Y196370D01*
X73297Y195758D01*
X71958Y195243D01*
X70586Y194825D01*
X69187Y194509D01*
X68478Y194402D01*
X68478Y194402D01*
X68076Y194337D01*
X67268Y194232D01*
X66457Y194154D01*
X65644Y194101D01*
X65237Y194087D01*
X65237Y194087D01*
X64387Y194058D01*
X62687Y194008D01*
X60986Y193967D01*
X59285Y193936D01*
X58435Y193925D01*
X55022Y193891D01*
X51604Y193881D01*
X48183Y193888D01*
X44759Y193906D01*
X41335Y193928D01*
X37914Y193948D01*
X34495Y193960D01*
X31082Y193957D01*
X31082Y193957D01*
X30852Y193955D01*
X30731Y193955D01*
X30583Y193953D01*
X30030Y193948D01*
X29329Y193938D01*
X28628Y193925D01*
X28278Y193918D01*
X26928Y193901D01*
X26928Y193901D01*
X26763Y193900D01*
X26433Y193900D01*
X26102Y193904D01*
X25772Y193909D01*
X25607Y193914D01*
X25607Y193914D01*
X25444Y193918D01*
X25119Y193930D01*
X24794Y193946D01*
X24469Y193966D01*
X24306Y193978D01*
X24146Y193990D01*
X23824Y194019D01*
X23503Y194053D01*
X23182Y194093D01*
X23022Y194115D01*
X23022Y194115D01*
X22862Y194138D01*
X22542Y194190D01*
X22224Y194247D01*
X21906Y194312D01*
X21748Y194347D01*
X21247Y194458D01*
X20263Y194755D01*
X19304Y195125D01*
X18375Y195565D01*
X17928Y195819D01*
X17560Y196029D01*
X16844Y196481D01*
X16148Y196964D01*
X15473Y197476D01*
X15147Y197747D01*
X14983Y197883D01*
X14660Y198161D01*
X14341Y198444D01*
X14028Y198733D01*
X13874Y198881D01*
X13874D01*
X13719Y199029D01*
X13414Y199331D01*
X13114Y199637D01*
X12819Y199948D01*
X12674Y200106D01*
X12528Y200265D01*
X12241Y200586D01*
X11958Y200911D01*
X11843Y201048D01*
X11543Y201407D01*
X11543Y201407D01*
X11542Y201408D01*
X11247Y201771D01*
X11135Y201911D01*
X10869Y202251D01*
X10607Y202594D01*
X10478Y202768D01*
X10478D01*
X10349Y202941D01*
X10095Y203289D01*
X9844Y203640D01*
X9759Y203762D01*
X9475Y204172D01*
X9195Y204585D01*
X9115Y204704D01*
X8879Y205062D01*
X8784Y205208D01*
X8530Y205603D01*
D01*
X8280Y206000D01*
X8192Y206141D01*
X7969Y206502D01*
X7749Y206864D01*
X7641Y207046D01*
X7534Y207225D01*
X7322Y207583D01*
X7113Y207943D01*
X7033Y208081D01*
X6802Y208485D01*
X6802Y208485D01*
X6511Y209017D01*
X5974Y210105D01*
X5483Y211214D01*
X5036Y212342D01*
X4837Y212915D01*
X4726Y213219D01*
X4510Y213829D01*
X4296Y214440D01*
X4087Y215053D01*
X3985Y215360D01*
X3300Y217387D01*
X3140Y217859D01*
X3033Y218171D01*
X2976Y218331D01*
X2814Y218793D01*
X2590Y219413D01*
X2359Y220030D01*
X2242Y220339D01*
X2125Y220640D01*
X1883Y221241D01*
X1630Y221838D01*
X1367Y222429D01*
X1231Y222724D01*
X1097Y223008D01*
X816Y223570D01*
X520Y224125D01*
X284Y224538D01*
X209Y224671D01*
X48Y224940D01*
X48Y224940D01*
X-112Y225199D01*
X-203Y225336D01*
X-448Y225706D01*
X-802Y226200D01*
X-1066Y226540D01*
X-1175Y226680D01*
X-1369Y226914D01*
X-1369Y226914D01*
X-1564Y227140D01*
X-1695Y227279D01*
X-1971Y227576D01*
X-2399Y227991D01*
X-2848Y228383D01*
X-3079Y228571D01*
X-3320Y228755D01*
X-3818Y229102D01*
X-4334Y229419D01*
X-4869Y229706D01*
X-5142Y229837D01*
X-5142Y229837D01*
X-5971Y230247D01*
X-7720Y230841D01*
X-9546Y231118D01*
X-11392Y231068D01*
X-12305Y230922D01*
Y230922D01*
X-12649Y230816D01*
X-13317Y230552D01*
X-13953Y230218D01*
X-14551Y229820D01*
X-14833Y229597D01*
Y229597D01*
X-15115Y229350D01*
X-15651Y228825D01*
X-16144Y228261D01*
X-16593Y227660D01*
X-16800Y227348D01*
X-17019Y226997D01*
X-17431Y226281D01*
X-17809Y225546D01*
X-18153Y224795D01*
X-18311Y224413D01*
X-18476Y223997D01*
X-18789Y223160D01*
X-19080Y222315D01*
X-19347Y221462D01*
X-19472Y221032D01*
X-19598Y220587D01*
X-19839Y219693D01*
X-20068Y218797D01*
X-20285Y217897D01*
X-20389Y217446D01*
X-21167Y213893D01*
X-21253Y213481D01*
X-21433Y212660D01*
X-21619Y211840D01*
X-21812Y211021D01*
X-21911Y210613D01*
X-21995Y210262D01*
X-22182Y209564D01*
X-22386Y208872D01*
X-22608Y208186D01*
X-22728Y207846D01*
X-22870Y207455D01*
X-23158Y206676D01*
X-23454Y205900D01*
X-23755Y205126D01*
X-23909Y204740D01*
X-23909Y204740D01*
X-23990Y204537D01*
X-24156Y204133D01*
X-24326Y203731D01*
X-24499Y203329D01*
X-24676Y202926D01*
X-24859Y202523D01*
X-25046Y202121D01*
X-25238Y201721D01*
X-25336Y201522D01*
X-25434Y201323D01*
X-25637Y200927D01*
X-25845Y200534D01*
X-26058Y200145D01*
X-26168Y199951D01*
X-26277Y199759D01*
X-26501Y199379D01*
X-26732Y199003D01*
X-26970Y198631D01*
X-27092Y198447D01*
X-27212Y198266D01*
X-27461Y197908D01*
X-27718Y197557D01*
X-27823Y197419D01*
X-28119Y197041D01*
X-28119D01*
X-28120Y197040D01*
X-28426Y196669D01*
X-28529Y196548D01*
X-28814Y196229D01*
X-29107Y195918D01*
X-29407Y195618D01*
X-29713Y195329D01*
X-30029Y195051D01*
X-30354Y194783D01*
X-30521Y194655D01*
X-30686Y194527D01*
X-31027Y194284D01*
X-31376Y194055D01*
X-31734Y193838D01*
X-31916Y193737D01*
X-32378Y193490D01*
X-33332Y193061D01*
X-34312Y192697D01*
X-35315Y192400D01*
X-35826Y192286D01*
Y192286D01*
X-36096Y192222D01*
X-36639Y192108D01*
X-37184Y192006D01*
X-37732Y191916D01*
X-38006Y191878D01*
X-38290Y191838D01*
X-38859Y191767D01*
X-39428Y191707D01*
X-39999Y191655D01*
X-40285Y191634D01*
X-40576Y191613D01*
X-41160Y191577D01*
X-41745Y191549D01*
X-42329Y191527D01*
X-42622Y191520D01*
X-42916Y191512D01*
X-43505Y191502D01*
X-44095Y191497D01*
X-44684Y191496D01*
X-44978Y191498D01*
X-47315Y191533D01*
X-49592Y191590D01*
X-51275Y191624D01*
X-51771Y191633D01*
X-51771Y191633D01*
X-51771Y191633D01*
X-52026Y191636D01*
X-52269Y191638D01*
X-52536Y191639D01*
X-53047Y191637D01*
X-53557Y191631D01*
X-53812Y191627D01*
X-60379Y191445D01*
X-63780Y191371D01*
X-64211Y191364D01*
X-65071Y191355D01*
X-65932Y191349D01*
X-66793Y191349D01*
X-67223Y191350D01*
X-67656Y191352D01*
X-68520Y191362D01*
X-69384Y191378D01*
X-70187Y191400D01*
X-70680Y191416D01*
X-70681Y191416D01*
Y191416D01*
X-71174Y191433D01*
X-71973Y191467D01*
X-72834Y191513D01*
X-73638Y191563D01*
X-74104Y191597D01*
X-74124Y191598D01*
X-74124Y191598D01*
X-74609Y191634D01*
X-75402Y191702D01*
X-76252Y191785D01*
X-77050Y191873D01*
X-77526Y191930D01*
Y191930D01*
X-78001Y191990D01*
X-78779Y192097D01*
X-79612Y192226D01*
X-80394Y192358D01*
X-80858Y192444D01*
X-81322Y192531D01*
X-82078Y192686D01*
X-82887Y192868D01*
X-83693Y193064D01*
X-84094Y193170D01*
X-84094Y193170D01*
X-84487Y193274D01*
X-85271Y193500D01*
X-86049Y193743D01*
X-86821Y194003D01*
X-87204Y194142D01*
X-87204Y194142D01*
X-87976Y194420D01*
X-89466Y195107D01*
X-90892Y195920D01*
X-92242Y196852D01*
X-93508Y197896D01*
X-94678Y199046D01*
X-95746Y200292D01*
X-96703Y201625D01*
X-96868Y201903D01*
X-97122Y202330D01*
X-97122D01*
X-97382Y202756D01*
X-97735Y203365D01*
X-98116Y204070D01*
X-98477Y204787D01*
X-98646Y205150D01*
X-98646D01*
X-98819Y205519D01*
X-99148Y206266D01*
X-99459Y207020D01*
X-99733Y207729D01*
X-99891Y208164D01*
D01*
X-100048Y208599D01*
X-100300Y209337D01*
X-100554Y210125D01*
X-100794Y210917D01*
X-100908Y211315D01*
X-101023Y211716D01*
X-101242Y212521D01*
X-101452Y213329D01*
X-101652Y214139D01*
X-101748Y214545D01*
X-101747Y214545D01*
X-101842Y214950D01*
X-102027Y215762D01*
X-102205Y216575D01*
X-102378Y217389D01*
X-102461Y217797D01*
X-103100Y221013D01*
X-103100D01*
X-103151Y221297D01*
X-103239Y221867D01*
X-103314Y222440D01*
X-103376Y223014D01*
X-103400Y223301D01*
X-103516Y224599D01*
X-103637Y225939D01*
X-103653Y226106D01*
X-103687Y226440D01*
X-103724Y226774D01*
X-103763Y227108D01*
X-103784Y227274D01*
X-103804Y227436D01*
X-103848Y227758D01*
X-103897Y228079D01*
X-103950Y228400D01*
X-103978Y228560D01*
X-103978Y228561D01*
X-104005Y228710D01*
X-104063Y229005D01*
X-104064Y229008D01*
X-104067Y229022D01*
X-104067Y229023D01*
X-104071Y229042D01*
X-104127Y229295D01*
X-104130Y229306D01*
X-104130Y229307D01*
X-104201Y229602D01*
X-104239Y229749D01*
X-104239D01*
X-104276Y229882D01*
X-104354Y230146D01*
X-104355Y230147D01*
X-104371Y230195D01*
X-104427Y230364D01*
X-104443Y230409D01*
X-104443Y230410D01*
X-104539Y230668D01*
X-104590Y230797D01*
X-104590D01*
X-104638Y230909D01*
X-104741Y231130D01*
X-104742Y231130D01*
X-104787Y231215D01*
X-104857Y231346D01*
X-104984Y231555D01*
X-105051Y231657D01*
X-105113Y231745D01*
X-105249Y231914D01*
X-105397Y232071D01*
X-105558Y232216D01*
X-105642Y232283D01*
X-105642D01*
X-105824Y232404D01*
X-106202Y232618D01*
X-106600Y232794D01*
X-107013Y232930D01*
X-107224Y232982D01*
X-107225Y232983D01*
Y232983D01*
X-107341Y233011D01*
X-107572Y233062D01*
X-107574Y233062D01*
X-107676Y233082D01*
X-107809Y233108D01*
X-107810Y233109D01*
X-108044Y233148D01*
X-108162Y233166D01*
X-108162Y233166D01*
X-108286Y233184D01*
X-108532Y233217D01*
X-108535Y233217D01*
X-108636Y233229D01*
X-108784Y233247D01*
X-109034Y233273D01*
X-109159Y233285D01*
X-110184Y233374D01*
X-110312Y233385D01*
X-110569Y233407D01*
X-110825Y233430D01*
X-111082Y233455D01*
X-111209Y233468D01*
X-111335Y233481D01*
X-111584Y233510D01*
X-111681Y233523D01*
X-112113Y233587D01*
X-112185Y233598D01*
X-112402Y233639D01*
X-112688Y233694D01*
X-113142Y233807D01*
X-113142Y233807D01*
X-113143Y233807D01*
X-113467Y233907D01*
X-113679Y233986D01*
X-113888Y234073D01*
X-114088Y234168D01*
X-114278Y234271D01*
X-114334Y234306D01*
X-114721Y234579D01*
D01*
X-115071Y234934D01*
X-115232Y235121D01*
X-115500Y235541D01*
X-115708Y235993D01*
X-115779Y236231D01*
X-115824Y236368D01*
X-115905Y236644D01*
X-115965Y236884D01*
X-116059Y237345D01*
X-116059Y237345D01*
X-116132Y237815D01*
X-116167Y238110D01*
X-116210Y238593D01*
X-116240Y239080D01*
X-116241Y239094D01*
X-116253Y239428D01*
X-116254Y239444D01*
X-116262Y239931D01*
Y239931D01*
X-116262Y240430D01*
X-116262Y240450D01*
X-116257Y240797D01*
X-116248Y241143D01*
X-116242Y241316D01*
X-116236Y241490D01*
X-116223Y241837D01*
X-116207Y242185D01*
X-116190Y242532D01*
X-116180Y242706D01*
X-116103Y244056D01*
X-116094Y244215D01*
X-116077Y244532D01*
X-116061Y244849D01*
X-116047Y245166D01*
X-116040Y245325D01*
X-116034Y245468D01*
X-116026Y245753D01*
X-116022Y245969D01*
X-116021Y246039D01*
X-116021Y246042D01*
X-116019Y246325D01*
X-116020Y246468D01*
X-116020Y246468D01*
X-113438Y247208D01*
X-108240Y248566D01*
X-103013Y249801D01*
X-97758Y250913D01*
X-92478Y251902D01*
X-87176Y252766D01*
X-81855Y253506D01*
X-76519Y254120D01*
X-74342Y254319D01*
X-73844Y254364D01*
Y254364D01*
X-73043Y254437D01*
X-71438Y254571D01*
X-69832Y254690D01*
X-68226Y254797D01*
X-67422Y254843D01*
X-67422Y254843D01*
X-66933Y254870D01*
X-66211Y254907D01*
X-65403Y254945D01*
X-64684Y254974D01*
X-64192Y254992D01*
X-63699Y255009D01*
X-62978Y255030D01*
X-62169Y255049D01*
X-61453Y255061D01*
X-60956Y255067D01*
X-60458Y255072D01*
X-59742Y255074D01*
X-58932Y255072D01*
X-58123Y255064D01*
X-57719Y255057D01*
X-57314Y255049D01*
X-56506Y255029D01*
X-55698Y255003D01*
X-54890Y254970D01*
X-54486Y254950D01*
Y254950D01*
X-54082Y254930D01*
X-53276Y254884D01*
X-52470Y254831D01*
X-51664Y254770D01*
X-51262Y254736D01*
X-50458Y254670D01*
X-48854Y254504D01*
X-47254Y254307D01*
X-45658Y254077D01*
X-44862Y253946D01*
X-44862Y253946D01*
X-44394Y253868D01*
X-43671Y253739D01*
X-42880Y253590D01*
X-42090Y253431D01*
X-41696Y253347D01*
X-39957Y253017D01*
X-36544Y252081D01*
X-33217Y250872D01*
X-29998Y249400D01*
X-28453Y248536D01*
X-28218Y248393D01*
X-27759Y248088D01*
X-27313Y247764D01*
X-26880Y247422D01*
X-26671Y247242D01*
X-26560Y247148D01*
X-26339Y246958D01*
X-26162Y246802D01*
X-25887Y246554D01*
X-25792Y246468D01*
X-25675Y246360D01*
X-25348Y246058D01*
X-25251Y245967D01*
X-25035Y245764D01*
X-24928Y245661D01*
X-24065Y244842D01*
Y244842D01*
X-24065Y244842D01*
X-23958Y244741D01*
X-23750Y244545D01*
X-23745Y244540D01*
X-23705Y244503D01*
X-23530Y244341D01*
X-23314Y244143D01*
X-23205Y244044D01*
X-23100Y243949D01*
X-22888Y243760D01*
X-22718Y243613D01*
X-22673Y243574D01*
X-22670Y243572D01*
X-22456Y243391D01*
X-22347Y243300D01*
Y243300D01*
X-22243Y243214D01*
X-22033Y243046D01*
X-22031Y243045D01*
X-21972Y242999D01*
X-21816Y242880D01*
X-21598Y242719D01*
X-21488Y242640D01*
Y242640D01*
X-21384Y242567D01*
X-21172Y242425D01*
X-21030Y242335D01*
X-20957Y242288D01*
X-20955Y242288D01*
X-20737Y242158D01*
X-20626Y242096D01*
X-20626Y242096D01*
X-20626Y242096D01*
X-20522Y242039D01*
X-20310Y241931D01*
X-20309Y241931D01*
X-20201Y241881D01*
X-20092Y241831D01*
X-20091Y241831D01*
X-19871Y241741D01*
X-19760Y241699D01*
Y241699D01*
X-19375Y241586D01*
X-19313Y241570D01*
X-18600Y241387D01*
X-17815Y241226D01*
X-17024Y241102D01*
X-16627Y241054D01*
Y241054D01*
X-16355Y241019D01*
X-15810Y240953D01*
X-15264Y240893D01*
X-14925Y240860D01*
X-14718Y240840D01*
X-14444Y240815D01*
Y240815D01*
X-14141Y240789D01*
X-13961Y240774D01*
X-13535Y240740D01*
X-12928Y240697D01*
X-12320Y240659D01*
X-12017Y240642D01*
X-12017Y240642D01*
X-11381Y240610D01*
X-10109Y240561D01*
X-8836Y240532D01*
X-7562Y240525D01*
X-6926Y240529D01*
X-6926Y240529D01*
X-6624Y240533D01*
X-6429Y240538D01*
X-6020Y240546D01*
X-5416Y240565D01*
X-5002Y240583D01*
X-4813Y240591D01*
X-4511Y240606D01*
Y240606D01*
X-4241Y240621D01*
X-4024Y240636D01*
X-3700Y240657D01*
X-3159Y240702D01*
X-2620Y240754D01*
X-2350Y240783D01*
X-2126Y240809D01*
X-1678Y240869D01*
X-1233Y240941D01*
X-788Y241024D01*
X-567Y241069D01*
X-567Y241069D01*
X-403Y241104D01*
X-77Y241188D01*
X243Y241289D01*
X558Y241406D01*
X713Y241472D01*
X713Y241472D01*
X834Y241540D01*
X1067Y241689D01*
X1068Y241689D01*
X1110Y241721D01*
X1290Y241856D01*
X1498Y242039D01*
X1597Y242136D01*
X1657Y242194D01*
X1720Y242258D01*
X1775Y242313D01*
X1775Y242313D01*
X1891Y242433D01*
X1892Y242435D01*
X2004Y242555D01*
X2028Y242582D01*
X2060Y242617D01*
X2120Y242685D01*
X2220Y242797D01*
X2239Y242820D01*
X2356Y242956D01*
X2376Y242980D01*
X2472Y243094D01*
X2530Y243163D01*
X2530Y243163D01*
X2531Y243164D01*
X2589Y243236D01*
X2704Y243376D01*
X2708Y243381D01*
X2823Y243523D01*
X2826Y243527D01*
X2833Y243537D01*
X2834Y243537D01*
X2844Y243550D01*
X2943Y243674D01*
X3001Y243747D01*
X3467Y244343D01*
X3924Y244924D01*
X4152Y245206D01*
X4365Y245464D01*
X4687Y245831D01*
X4732Y245880D01*
X4786Y245937D01*
X4821Y245975D01*
X5180Y246317D01*
X5180D01*
X5180Y246317D01*
X6091Y247088D01*
X8005Y248514D01*
X10005Y249818D01*
X12081Y250996D01*
X13153Y251519D01*
X13153Y251519D01*
X13153Y251519D01*
X13690Y251782D01*
X14776Y252282D01*
X15875Y252752D01*
X16986Y253194D01*
X17547Y253401D01*
X17547Y253401D01*
X17547Y253401D01*
X18112Y253609D01*
X19252Y253999D01*
X20401Y254364D01*
X21557Y254702D01*
X22139Y254858D01*
X22726Y255015D01*
X23905Y255307D01*
X25090Y255575D01*
X26280Y255820D01*
X26877Y255931D01*
X26877Y255931D01*
Y255931D01*
X27477Y256043D01*
X28681Y256245D01*
X29888Y256428D01*
X31099Y256590D01*
X31705Y256661D01*
X31705Y256661D01*
X31705Y256661D01*
X32311Y256732D01*
X33526Y256857D01*
X34743Y256963D01*
X35961Y257053D01*
X36570Y257089D01*
X36570Y257089D01*
X37176Y257125D01*
X38387Y257181D01*
X39599Y257223D01*
X40812Y257250D01*
X41418Y257256D01*
X41418Y257256D01*
X41418Y257256D01*
X42015Y257261D01*
X43210Y257261D01*
D02*
G37*
G36*
X-24752Y167864D02*
X-24013Y167791D01*
X-23773Y167768D01*
X-23294Y167715D01*
X-22816Y167655D01*
X-22338Y167588D01*
X-22100Y167551D01*
X-21856Y167513D01*
X-21370Y167431D01*
X-20884Y167344D01*
X-20399Y167251D01*
X-20157Y167202D01*
X-20157Y167202D01*
X-19906Y167151D01*
X-19403Y167046D01*
X-18901Y166937D01*
X-18399Y166825D01*
X-18149Y166767D01*
X-16040Y166265D01*
X-13794Y165718D01*
X-12899Y165524D01*
X-11091Y165228D01*
X-9267Y165058D01*
X-7436Y165016D01*
X-6520Y165043D01*
X-6075Y165064D01*
X-5184Y165119D01*
X-4296Y165195D01*
X-3409Y165289D01*
X-2966Y165344D01*
X-2524Y165403D01*
X-1642Y165528D01*
X-761Y165664D01*
X99Y165808D01*
X118Y165811D01*
X557Y165888D01*
X557Y165888D01*
X4067Y166538D01*
X4505Y166621D01*
X5383Y166782D01*
X6262Y166937D01*
X7142Y167085D01*
X7583Y167156D01*
Y167156D01*
X8023Y167227D01*
X8906Y167354D01*
X9792Y167466D01*
X10679Y167563D01*
X11123Y167605D01*
X11569Y167646D01*
X12464Y167705D01*
X13360Y167741D01*
X14216Y167752D01*
X14706Y167747D01*
X14706D01*
X15202Y167739D01*
X16077Y167697D01*
X16988Y167622D01*
X17897Y167515D01*
X18349Y167446D01*
X18823Y167373D01*
X19762Y167190D01*
X20694Y166969D01*
X21617Y166711D01*
X22072Y166564D01*
X23464Y166107D01*
X26190Y165033D01*
X28849Y163800D01*
X31430Y162414D01*
X32678Y161646D01*
X32678Y161646D01*
X33313Y161259D01*
X34563Y160452D01*
X35793Y159614D01*
X37001Y158746D01*
X37594Y158297D01*
X37594D01*
X38194Y157843D01*
X39373Y156909D01*
X40531Y155948D01*
X41667Y154961D01*
X42224Y154455D01*
X42224D01*
X43348Y153431D01*
X45514Y151296D01*
X47595Y149078D01*
X49589Y146781D01*
X50540Y145594D01*
X50540D01*
X50540Y145594D01*
X52403Y143274D01*
X55811Y138394D01*
X58887Y133299D01*
X61618Y128011D01*
X62604Y125742D01*
X62620Y125706D01*
X62649Y125639D01*
X62804Y125282D01*
X62804D01*
X62804Y125282D01*
X63245Y125521D01*
X108141Y149866D01*
X108554Y149629D01*
X108821Y145739D01*
X109102Y137916D01*
X109127Y130088D01*
X108897Y122264D01*
X108655Y118357D01*
X108655Y118357D01*
X108655Y118357D01*
X108530Y116387D01*
X108202Y112451D01*
X107798Y108523D01*
X107317Y104603D01*
X107039Y102648D01*
X107039Y102648D01*
X107039Y102648D01*
X106762Y100704D01*
X106122Y96829D01*
X105395Y92969D01*
X104581Y89126D01*
X104132Y87214D01*
X103687Y85323D01*
X102700Y81565D01*
X101616Y77834D01*
X100436Y74132D01*
X99798Y72297D01*
X99056Y70126D01*
X97305Y65886D01*
X95296Y61761D01*
X93035Y57770D01*
X91783Y55847D01*
X91010Y54675D01*
X89373Y52392D01*
X87648Y50176D01*
X85838Y48028D01*
X84891Y46991D01*
X84891Y46991D01*
Y46991D01*
X84419Y46473D01*
X83459Y45452D01*
X82483Y44447D01*
X81490Y43458D01*
X80986Y42972D01*
X80986D01*
X80986Y42972D01*
X80473Y42477D01*
X79433Y41502D01*
X78381Y40540D01*
X77316Y39592D01*
X76777Y39126D01*
X76223Y38646D01*
X75105Y37698D01*
X73978Y36761D01*
X72840Y35835D01*
X72267Y35379D01*
X72267Y35379D01*
X72267Y35379D01*
X71673Y34905D01*
X70477Y33965D01*
X69274Y33034D01*
X68066Y32112D01*
X67458Y31655D01*
X67075Y31372D01*
X62351Y27881D01*
X52389Y20573D01*
X51758Y20113D01*
X50491Y19200D01*
X49221Y18293D01*
X47946Y17391D01*
X47306Y16944D01*
X46666Y16496D01*
X45378Y15611D01*
X44083Y14737D01*
X42781Y13873D01*
X42127Y13446D01*
X42127Y13446D01*
Y13446D01*
X41475Y13021D01*
X40160Y12185D01*
X38836Y11365D01*
X37503Y10560D01*
X36831Y10165D01*
X36831Y10165D01*
X36831Y10165D01*
X36163Y9772D01*
X34816Y9007D01*
X33458Y8262D01*
X32088Y7537D01*
X31398Y7186D01*
X30712Y6836D01*
X29326Y6162D01*
X27928Y5513D01*
X26517Y4892D01*
X25807Y4594D01*
X25807Y4594D01*
X25807Y4594D01*
X25098Y4297D01*
X23667Y3735D01*
X22223Y3205D01*
X20769Y2708D01*
X20036Y2475D01*
X20036Y2475D01*
Y2475D01*
X19300Y2242D01*
X17818Y1814D01*
X16324Y1424D01*
X14821Y1072D01*
X14065Y916D01*
X14065Y916D01*
X14065Y915D01*
X13299Y757D01*
X11757Y484D01*
X10208Y255D01*
X8654Y70D01*
X7874Y0D01*
X5697Y-188D01*
X1329Y-283D01*
X-3037Y-97D01*
X-7381Y369D01*
X-9534Y742D01*
X-9534Y742D01*
X-9534Y742D01*
X-10954Y985D01*
X-13775Y1569D01*
X-16574Y2250D01*
X-19348Y3028D01*
X-20721Y3464D01*
Y3464D01*
X-21410Y3681D01*
X-22783Y4136D01*
X-24148Y4611D01*
X-25507Y5105D01*
X-26182Y5362D01*
Y5362D01*
X-26182Y5362D01*
X-26861Y5620D01*
X-28210Y6153D01*
X-29553Y6703D01*
X-30889Y7269D01*
X-31554Y7561D01*
X-31554Y7561D01*
X-31554Y7561D01*
X-32220Y7854D01*
X-33546Y8453D01*
X-34866Y9067D01*
X-36179Y9696D01*
X-36832Y10017D01*
X-37486Y10339D01*
X-38789Y10994D01*
X-40085Y11661D01*
X-41375Y12340D01*
X-42017Y12686D01*
X-42017Y12686D01*
X-42017Y12686D01*
X-42658Y13031D01*
X-43935Y13731D01*
X-45207Y14441D01*
X-46474Y15160D01*
X-47104Y15525D01*
X-49162Y16710D01*
X-53223Y19170D01*
X-57228Y21720D01*
X-61176Y24359D01*
X-63120Y25721D01*
X-64429Y26640D01*
X-67013Y28524D01*
X-69563Y30454D01*
X-72078Y32430D01*
X-73318Y33440D01*
X-74555Y34448D01*
X-76988Y36516D01*
X-79376Y38635D01*
X-81719Y40804D01*
X-82868Y41913D01*
X-84009Y43014D01*
X-86235Y45271D01*
X-88406Y47583D01*
X-90518Y49948D01*
X-91545Y51156D01*
X-91545Y51156D01*
X-92054Y51756D01*
X-93056Y52972D01*
X-94042Y54201D01*
X-95010Y55443D01*
X-95485Y56071D01*
Y56071D01*
X-96860Y57905D01*
X-99307Y61781D01*
X-101436Y65841D01*
X-103234Y70057D01*
X-103962Y72231D01*
X-104204Y72940D01*
X-104660Y74369D01*
X-105087Y75806D01*
X-105484Y77252D01*
X-105669Y77979D01*
X-105669Y77979D01*
X-105853Y78708D01*
X-106199Y80174D01*
X-106520Y81645D01*
X-106817Y83121D01*
X-106953Y83861D01*
X-106953Y83861D01*
X-106953D01*
X-107090Y84606D01*
X-107346Y86100D01*
X-107582Y87597D01*
X-107799Y89097D01*
X-107898Y89849D01*
X-107898Y89849D01*
X-107998Y90605D01*
X-108183Y92120D01*
X-108355Y93637D01*
X-108512Y95155D01*
X-108584Y95915D01*
X-108657Y96679D01*
X-108793Y98207D01*
X-108921Y99736D01*
X-109040Y101266D01*
X-109095Y102031D01*
X-109095Y102031D01*
X-109095D01*
X-109512Y108168D01*
X-109917Y114300D01*
X-110170Y117875D01*
X-110600Y125031D01*
X-110956Y132191D01*
X-111237Y139354D01*
X-111325Y142443D01*
X-111340Y142937D01*
X-111340Y142937D01*
X-111340Y142937D01*
X-111391Y144727D01*
X-111394Y144814D01*
X-111401Y144988D01*
X-111409Y145163D01*
X-111418Y145337D01*
X-111424Y145424D01*
X-111428Y145499D01*
X-111439Y145648D01*
X-111439Y145650D01*
X-111452Y145797D01*
X-111453Y145802D01*
X-111467Y145945D01*
X-111475Y146020D01*
X-111475D01*
X-111483Y146084D01*
X-111500Y146212D01*
X-111500Y146214D01*
X-111521Y146343D01*
X-111521Y146343D01*
X-111544Y146472D01*
X-111544Y146472D01*
X-111547Y146490D01*
X-111556Y146536D01*
X-111568Y146594D01*
X-111595Y146710D01*
X-111625Y146825D01*
X-111659Y146940D01*
X-111677Y146996D01*
X-111715Y147107D01*
X-111802Y147323D01*
X-111902Y147534D01*
X-112016Y147738D01*
X-112078Y147837D01*
Y147837D01*
X-112113Y147892D01*
X-112186Y148000D01*
X-112262Y148107D01*
X-112340Y148212D01*
X-112349Y148223D01*
X-112305Y148450D01*
X-112286Y148497D01*
X-112107Y148723D01*
X-111296D01*
X-111230Y148696D01*
X-76635Y122911D01*
X-75835Y124930D01*
X-74036Y128883D01*
X-72044Y132741D01*
X-69862Y136496D01*
X-67497Y140138D01*
X-64953Y143659D01*
X-62238Y147048D01*
X-59358Y150299D01*
X-57839Y151850D01*
X-57102Y152600D01*
X-55582Y154051D01*
X-54018Y155456D01*
X-52411Y156810D01*
X-51587Y157463D01*
Y157463D01*
X-51037Y157896D01*
X-49919Y158738D01*
X-48780Y159553D01*
X-47623Y160340D01*
X-47036Y160721D01*
X-46448Y161100D01*
X-45254Y161829D01*
X-44042Y162527D01*
X-42812Y163192D01*
X-42188Y163508D01*
X-41248Y163986D01*
X-39329Y164859D01*
X-37374Y165646D01*
X-35385Y166347D01*
X-34377Y166653D01*
X-33832Y166821D01*
X-32729Y167115D01*
X-31616Y167367D01*
X-30494Y167576D01*
X-29930Y167660D01*
X-29196Y167765D01*
X-27717Y167887D01*
X-26234Y167920D01*
X-24752Y167864D01*
D02*
G37*
G36*
X1066746Y-182142D02*
X1066460D01*
Y-182428D01*
X1066174D01*
Y-182714D01*
Y-183001D01*
X1065887D01*
Y-183287D01*
X1065601D01*
Y-183573D01*
X1065315D01*
Y-183860D01*
Y-184146D01*
X1065028D01*
Y-184432D01*
X1064742D01*
Y-184719D01*
X1064456D01*
Y-185005D01*
X1064169D01*
Y-185291D01*
Y-185577D01*
X1063883D01*
Y-185864D01*
X1063597D01*
Y-186150D01*
X1063310D01*
Y-186436D01*
Y-186723D01*
X1063024D01*
Y-187009D01*
X1062738D01*
Y-187295D01*
X1062451D01*
Y-187582D01*
X1062165D01*
Y-187868D01*
Y-188154D01*
X1061879D01*
Y-188441D01*
X1061593D01*
Y-188727D01*
X1061306D01*
Y-189013D01*
Y-189299D01*
X1061020D01*
Y-189586D01*
X1060734D01*
Y-189872D01*
X1060447D01*
Y-190158D01*
Y-190445D01*
X1060161D01*
Y-190731D01*
X1059875D01*
Y-191017D01*
X1059588D01*
Y-191304D01*
X1059302D01*
Y-191590D01*
Y-191876D01*
X1059016D01*
Y-192163D01*
X1058729D01*
Y-192449D01*
X1058443D01*
Y-192735D01*
Y-193022D01*
X1058157D01*
Y-193308D01*
X1057870D01*
Y-193594D01*
X1057584D01*
Y-193880D01*
Y-194167D01*
X1057298D01*
Y-194453D01*
X1057012D01*
Y-194739D01*
X1056725D01*
Y-195026D01*
X1056439D01*
Y-195312D01*
Y-195598D01*
X1056153D01*
Y-195885D01*
X1055866D01*
Y-196171D01*
X1055580D01*
Y-196457D01*
Y-196744D01*
X1055294D01*
Y-197030D01*
X1055007D01*
Y-197316D01*
X1054721D01*
Y-197603D01*
Y-197889D01*
X1054435D01*
Y-198175D01*
X1054148D01*
Y-198461D01*
X1053862D01*
Y-198748D01*
X1053576D01*
Y-199034D01*
Y-199320D01*
X1053290D01*
Y-199607D01*
X1053003D01*
Y-199893D01*
X1052717D01*
Y-200179D01*
Y-200466D01*
X1052431D01*
Y-200752D01*
X1052144D01*
Y-201038D01*
X1051858D01*
Y-201325D01*
X1051572D01*
Y-201611D01*
Y-201897D01*
X1051858D01*
Y-202184D01*
Y-202470D01*
X1052144D01*
Y-202756D01*
Y-203043D01*
X1052431D01*
Y-203329D01*
X1052717D01*
Y-203615D01*
Y-203902D01*
X1053003D01*
Y-204188D01*
Y-204474D01*
X1053290D01*
Y-204760D01*
Y-205047D01*
X1053576D01*
Y-205333D01*
Y-205619D01*
X1053862D01*
Y-205906D01*
Y-206192D01*
X1054148D01*
Y-206478D01*
Y-206765D01*
X1054435D01*
Y-207051D01*
Y-207337D01*
X1054721D01*
Y-207624D01*
Y-207910D01*
X1055007D01*
Y-208196D01*
X1055294D01*
Y-208483D01*
Y-208769D01*
X1055580D01*
Y-209055D01*
Y-209341D01*
X1055866D01*
Y-209628D01*
Y-209914D01*
X1056153D01*
Y-210200D01*
Y-210487D01*
X1056439D01*
Y-210773D01*
Y-211059D01*
X1056725D01*
Y-211346D01*
Y-211632D01*
X1057012D01*
Y-211918D01*
Y-212205D01*
X1057298D01*
Y-212491D01*
X1057584D01*
Y-212777D01*
Y-213064D01*
X1057870D01*
Y-213350D01*
Y-213636D01*
X1058157D01*
Y-213922D01*
Y-214209D01*
X1058443D01*
Y-214495D01*
Y-214781D01*
X1058729D01*
Y-215068D01*
Y-215354D01*
X1059016D01*
Y-215640D01*
Y-215927D01*
X1059302D01*
Y-216213D01*
Y-216499D01*
X1059588D01*
Y-216786D01*
X1059875D01*
Y-217072D01*
Y-217358D01*
X1060161D01*
Y-217645D01*
Y-217931D01*
X1060447D01*
Y-218217D01*
X1045273D01*
Y-217931D01*
X1044986D01*
Y-217645D01*
Y-217358D01*
Y-217072D01*
X1044700D01*
Y-216786D01*
Y-216499D01*
Y-216213D01*
X1044414D01*
Y-215927D01*
Y-215640D01*
X1044127D01*
Y-215354D01*
Y-215068D01*
Y-214781D01*
X1043841D01*
Y-214495D01*
Y-214209D01*
Y-213922D01*
X1043555D01*
Y-213636D01*
Y-213350D01*
X1043268D01*
Y-213064D01*
Y-212777D01*
Y-212491D01*
X1042982D01*
Y-212205D01*
Y-211918D01*
Y-211632D01*
X1042696D01*
Y-211346D01*
Y-211059D01*
Y-210773D01*
X1042410D01*
Y-210487D01*
X1041837D01*
Y-210773D01*
Y-211059D01*
X1041551D01*
Y-211346D01*
X1041264D01*
Y-211632D01*
Y-211918D01*
X1040978D01*
Y-212205D01*
X1040692D01*
Y-212491D01*
Y-212777D01*
X1040405D01*
Y-213064D01*
X1040119D01*
Y-213350D01*
Y-213636D01*
X1039833D01*
Y-213922D01*
X1039546D01*
Y-214209D01*
X1039260D01*
Y-214495D01*
Y-214781D01*
X1038974D01*
Y-215068D01*
X1038688D01*
Y-215354D01*
Y-215640D01*
X1038401D01*
Y-215927D01*
X1038115D01*
Y-216213D01*
Y-216499D01*
X1037829D01*
Y-216786D01*
X1037542D01*
Y-217072D01*
Y-217358D01*
X1037256D01*
Y-217645D01*
X1036970D01*
Y-217931D01*
Y-218217D01*
X1020936D01*
Y-217931D01*
X1021222D01*
Y-217645D01*
X1021509D01*
Y-217358D01*
X1021795D01*
Y-217072D01*
X1022081D01*
Y-216786D01*
Y-216499D01*
X1022368D01*
Y-216213D01*
X1022654D01*
Y-215927D01*
X1022940D01*
Y-215640D01*
X1023227D01*
Y-215354D01*
Y-215068D01*
X1023513D01*
Y-214781D01*
X1023799D01*
Y-214495D01*
X1024086D01*
Y-214209D01*
Y-213922D01*
X1024372D01*
Y-213636D01*
X1024658D01*
Y-213350D01*
X1024944D01*
Y-213064D01*
X1025231D01*
Y-212777D01*
Y-212491D01*
X1025517D01*
Y-212205D01*
X1025803D01*
Y-211918D01*
X1026090D01*
Y-211632D01*
X1026376D01*
Y-211346D01*
Y-211059D01*
X1026662D01*
Y-210773D01*
X1026949D01*
Y-210487D01*
X1027235D01*
Y-210200D01*
Y-209914D01*
X1027521D01*
Y-209628D01*
X1027808D01*
Y-209341D01*
X1028094D01*
Y-209055D01*
X1028380D01*
Y-208769D01*
Y-208483D01*
X1028667D01*
Y-208196D01*
X1028953D01*
Y-207910D01*
X1029239D01*
Y-207624D01*
Y-207337D01*
X1029525D01*
Y-207051D01*
X1029812D01*
Y-206765D01*
X1030098D01*
Y-206478D01*
X1030385D01*
Y-206192D01*
Y-205906D01*
X1030671D01*
Y-205619D01*
X1030957D01*
Y-205333D01*
X1031243D01*
Y-205047D01*
Y-204760D01*
X1031530D01*
Y-204474D01*
X1031816D01*
Y-204188D01*
X1032102D01*
Y-203902D01*
X1032389D01*
Y-203615D01*
Y-203329D01*
X1032675D01*
Y-203043D01*
X1032961D01*
Y-202756D01*
X1033248D01*
Y-202470D01*
X1033534D01*
Y-202184D01*
Y-201897D01*
X1033820D01*
Y-201611D01*
X1034107D01*
Y-201325D01*
X1034393D01*
Y-201038D01*
Y-200752D01*
X1034679D01*
Y-200466D01*
X1034966D01*
Y-200179D01*
X1035252D01*
Y-199893D01*
X1035538D01*
Y-199607D01*
Y-199320D01*
X1035824D01*
Y-199034D01*
Y-198748D01*
Y-198461D01*
X1035538D01*
Y-198175D01*
X1035252D01*
Y-197889D01*
Y-197603D01*
X1034966D01*
Y-197316D01*
Y-197030D01*
X1034679D01*
Y-196744D01*
Y-196457D01*
X1034393D01*
Y-196171D01*
Y-195885D01*
X1034107D01*
Y-195598D01*
Y-195312D01*
X1033820D01*
Y-195026D01*
Y-194739D01*
X1033534D01*
Y-194453D01*
X1033248D01*
Y-194167D01*
Y-193880D01*
X1032961D01*
Y-193594D01*
Y-193308D01*
X1032675D01*
Y-193022D01*
Y-192735D01*
X1032389D01*
Y-192449D01*
Y-192163D01*
X1032102D01*
Y-191876D01*
Y-191590D01*
X1031816D01*
Y-191304D01*
Y-191017D01*
X1031530D01*
Y-190731D01*
X1031243D01*
Y-190445D01*
Y-190158D01*
X1030957D01*
Y-189872D01*
Y-189586D01*
X1030671D01*
Y-189299D01*
Y-189013D01*
X1030385D01*
Y-188727D01*
Y-188441D01*
X1030098D01*
Y-188154D01*
Y-187868D01*
X1029812D01*
Y-187582D01*
Y-187295D01*
X1029525D01*
Y-187009D01*
Y-186723D01*
X1029239D01*
Y-186436D01*
X1028953D01*
Y-186150D01*
Y-185864D01*
X1028667D01*
Y-185577D01*
Y-185291D01*
X1028380D01*
Y-185005D01*
Y-184719D01*
X1028094D01*
Y-184432D01*
Y-184146D01*
X1027808D01*
Y-183860D01*
Y-183573D01*
X1027521D01*
Y-183287D01*
Y-183001D01*
X1027235D01*
Y-182714D01*
X1026949D01*
Y-182428D01*
Y-182142D01*
X1026662D01*
Y-181855D01*
X1042410D01*
Y-182142D01*
X1042696D01*
Y-182428D01*
Y-182714D01*
Y-183001D01*
X1042982D01*
Y-183287D01*
Y-183573D01*
Y-183860D01*
X1043268D01*
Y-184146D01*
Y-184432D01*
Y-184719D01*
X1043555D01*
Y-185005D01*
Y-185291D01*
Y-185577D01*
X1043841D01*
Y-185864D01*
Y-186150D01*
Y-186436D01*
X1044127D01*
Y-186723D01*
Y-187009D01*
Y-187295D01*
X1044414D01*
Y-187582D01*
Y-187868D01*
Y-188154D01*
X1044700D01*
Y-188441D01*
Y-188727D01*
Y-189013D01*
X1044986D01*
Y-189299D01*
Y-189586D01*
Y-189872D01*
Y-190158D01*
X1045559D01*
Y-189872D01*
X1045845D01*
Y-189586D01*
X1046132D01*
Y-189299D01*
Y-189013D01*
X1046418D01*
Y-188727D01*
X1046704D01*
Y-188441D01*
Y-188154D01*
X1046991D01*
Y-187868D01*
X1047277D01*
Y-187582D01*
Y-187295D01*
X1047563D01*
Y-187009D01*
X1047850D01*
Y-186723D01*
Y-186436D01*
X1048136D01*
Y-186150D01*
X1048422D01*
Y-185864D01*
Y-185577D01*
X1048709D01*
Y-185291D01*
X1048995D01*
Y-185005D01*
Y-184719D01*
X1049281D01*
Y-184432D01*
X1049567D01*
Y-184146D01*
Y-183860D01*
X1049854D01*
Y-183573D01*
X1050140D01*
Y-183287D01*
Y-183001D01*
X1050426D01*
Y-182714D01*
X1050713D01*
Y-182428D01*
Y-182142D01*
X1050999D01*
Y-181855D01*
X1066746D01*
Y-182142D01*
D02*
G37*
G36*
X933611Y-168112D02*
X935329D01*
Y-168399D01*
X936188D01*
Y-168685D01*
X937047D01*
Y-168971D01*
X937905D01*
Y-169258D01*
X938478D01*
Y-169544D01*
X938764D01*
Y-169830D01*
X939337D01*
Y-170117D01*
X939623D01*
Y-170403D01*
X940196D01*
Y-170689D01*
X940482D01*
Y-170975D01*
X940769D01*
Y-171262D01*
X941055D01*
Y-171548D01*
X941341D01*
Y-171834D01*
X941628D01*
Y-172121D01*
X941914D01*
Y-172407D01*
Y-172693D01*
X942200D01*
Y-172980D01*
X942486D01*
Y-173266D01*
Y-173552D01*
X942773D01*
Y-173839D01*
X943059D01*
Y-174125D01*
Y-174411D01*
X943345D01*
Y-174698D01*
Y-174984D01*
Y-175270D01*
X943632D01*
Y-175557D01*
Y-175843D01*
Y-176129D01*
X943918D01*
Y-176415D01*
Y-176702D01*
Y-176988D01*
Y-177274D01*
X944204D01*
Y-177561D01*
Y-177847D01*
Y-178133D01*
Y-178420D01*
Y-178706D01*
X944491D01*
Y-178992D01*
Y-179279D01*
Y-179565D01*
Y-179851D01*
Y-180138D01*
Y-180424D01*
Y-180710D01*
Y-180997D01*
Y-181283D01*
Y-181569D01*
Y-181855D01*
Y-182142D01*
Y-182428D01*
Y-182714D01*
Y-183001D01*
Y-183287D01*
Y-183573D01*
Y-183860D01*
Y-184146D01*
Y-184432D01*
X944204D01*
Y-184719D01*
Y-185005D01*
Y-185291D01*
Y-185577D01*
Y-185864D01*
Y-186150D01*
Y-186436D01*
X943918D01*
Y-186723D01*
Y-187009D01*
Y-187295D01*
Y-187582D01*
Y-187868D01*
X943632D01*
Y-188154D01*
Y-188441D01*
Y-188727D01*
Y-189013D01*
Y-189299D01*
X943345D01*
Y-189586D01*
Y-189872D01*
Y-190158D01*
X943059D01*
Y-190445D01*
Y-190731D01*
Y-191017D01*
Y-191304D01*
X942773D01*
Y-191590D01*
Y-191876D01*
Y-192163D01*
X942486D01*
Y-192449D01*
Y-192735D01*
X942200D01*
Y-193022D01*
Y-193308D01*
Y-193594D01*
X941914D01*
Y-193880D01*
Y-194167D01*
X941628D01*
Y-194453D01*
Y-194739D01*
X941341D01*
Y-195026D01*
Y-195312D01*
X941055D01*
Y-195598D01*
X940769D01*
Y-195885D01*
Y-196171D01*
X940482D01*
Y-196457D01*
X940196D01*
Y-196744D01*
X939910D01*
Y-197030D01*
Y-197316D01*
X939623D01*
Y-197603D01*
X939337D01*
Y-197889D01*
X939051D01*
Y-198175D01*
X938764D01*
Y-198461D01*
X938478D01*
Y-198748D01*
X937905D01*
Y-199034D01*
X937619D01*
Y-199320D01*
X937047D01*
Y-199607D01*
X936760D01*
Y-199893D01*
X936188D01*
Y-200179D01*
X935329D01*
Y-200466D01*
X934470D01*
Y-200752D01*
X933611D01*
Y-201038D01*
X931893D01*
Y-201325D01*
X926739D01*
Y-201038D01*
X924162D01*
Y-200752D01*
X922158D01*
Y-200466D01*
X920727D01*
Y-200179D01*
X919295D01*
Y-199893D01*
X917863D01*
Y-200179D01*
Y-200466D01*
Y-200752D01*
Y-201038D01*
Y-201325D01*
Y-201611D01*
Y-201897D01*
X917577D01*
Y-202184D01*
Y-202470D01*
Y-202756D01*
Y-203043D01*
Y-203329D01*
Y-203615D01*
X917291D01*
Y-203902D01*
Y-204188D01*
Y-204474D01*
Y-204760D01*
Y-205047D01*
Y-205333D01*
X917005D01*
Y-205619D01*
Y-205906D01*
Y-206192D01*
Y-206478D01*
Y-206765D01*
Y-207051D01*
Y-207337D01*
X916718D01*
Y-207624D01*
Y-207910D01*
Y-208196D01*
Y-208483D01*
Y-208769D01*
Y-209055D01*
X916432D01*
Y-209341D01*
Y-209628D01*
Y-209914D01*
Y-210200D01*
Y-210487D01*
Y-210773D01*
X916146D01*
Y-211059D01*
Y-211346D01*
Y-211632D01*
Y-211918D01*
Y-212205D01*
Y-212491D01*
Y-212777D01*
X915859D01*
Y-213064D01*
Y-213350D01*
Y-213636D01*
Y-213922D01*
Y-214209D01*
Y-214495D01*
X915573D01*
Y-214781D01*
Y-215068D01*
Y-215354D01*
Y-215640D01*
Y-215927D01*
Y-216213D01*
X915287D01*
Y-216499D01*
Y-216786D01*
Y-217072D01*
Y-217358D01*
Y-217645D01*
Y-217931D01*
Y-218217D01*
X901830D01*
Y-217931D01*
X902116D01*
Y-217645D01*
Y-217358D01*
Y-217072D01*
Y-216786D01*
Y-216499D01*
X902403D01*
Y-216213D01*
Y-215927D01*
Y-215640D01*
Y-215354D01*
Y-215068D01*
Y-214781D01*
Y-214495D01*
X902689D01*
Y-214209D01*
Y-213922D01*
Y-213636D01*
Y-213350D01*
Y-213064D01*
Y-212777D01*
X902975D01*
Y-212491D01*
Y-212205D01*
Y-211918D01*
Y-211632D01*
Y-211346D01*
Y-211059D01*
X903262D01*
Y-210773D01*
Y-210487D01*
Y-210200D01*
Y-209914D01*
Y-209628D01*
Y-209341D01*
Y-209055D01*
X903548D01*
Y-208769D01*
Y-208483D01*
Y-208196D01*
Y-207910D01*
Y-207624D01*
Y-207337D01*
X903834D01*
Y-207051D01*
Y-206765D01*
Y-206478D01*
Y-206192D01*
Y-205906D01*
Y-205619D01*
X904121D01*
Y-205333D01*
Y-205047D01*
Y-204760D01*
Y-204474D01*
Y-204188D01*
Y-203902D01*
X904407D01*
Y-203615D01*
Y-203329D01*
Y-203043D01*
Y-202756D01*
Y-202470D01*
Y-202184D01*
Y-201897D01*
X904693D01*
Y-201611D01*
Y-201325D01*
Y-201038D01*
Y-200752D01*
Y-200466D01*
Y-200179D01*
X904979D01*
Y-199893D01*
Y-199607D01*
Y-199320D01*
Y-199034D01*
Y-198748D01*
Y-198461D01*
X905266D01*
Y-198175D01*
Y-197889D01*
Y-197603D01*
Y-197316D01*
Y-197030D01*
Y-196744D01*
X905552D01*
Y-196457D01*
Y-196171D01*
Y-195885D01*
Y-195598D01*
Y-195312D01*
Y-195026D01*
Y-194739D01*
X905838D01*
Y-194453D01*
Y-194167D01*
Y-193880D01*
Y-193594D01*
Y-193308D01*
Y-193022D01*
X906125D01*
Y-192735D01*
Y-192449D01*
Y-192163D01*
Y-191876D01*
Y-191590D01*
Y-191304D01*
X906411D01*
Y-191017D01*
Y-190731D01*
Y-190445D01*
Y-190158D01*
Y-189872D01*
Y-189586D01*
Y-189299D01*
X906697D01*
Y-189013D01*
Y-188727D01*
Y-188441D01*
Y-188154D01*
Y-187868D01*
Y-187582D01*
X906984D01*
Y-187295D01*
Y-187009D01*
Y-186723D01*
Y-186436D01*
Y-186150D01*
Y-185864D01*
X907270D01*
Y-185577D01*
Y-185291D01*
Y-185005D01*
Y-184719D01*
Y-184432D01*
Y-184146D01*
X907556D01*
Y-183860D01*
Y-183573D01*
Y-183287D01*
Y-183001D01*
Y-182714D01*
Y-182428D01*
Y-182142D01*
X907843D01*
Y-181855D01*
Y-181569D01*
Y-181283D01*
Y-180997D01*
Y-180710D01*
Y-180424D01*
X908129D01*
Y-180138D01*
Y-179851D01*
Y-179565D01*
Y-179279D01*
Y-178992D01*
Y-178706D01*
X908415D01*
Y-178420D01*
Y-178133D01*
Y-177847D01*
Y-177561D01*
Y-177274D01*
Y-176988D01*
Y-176702D01*
X908702D01*
Y-176415D01*
Y-176129D01*
Y-175843D01*
Y-175557D01*
Y-175270D01*
Y-174984D01*
X908988D01*
Y-174698D01*
Y-174411D01*
Y-174125D01*
Y-173839D01*
Y-173552D01*
Y-173266D01*
X909274D01*
Y-172980D01*
Y-172693D01*
Y-172407D01*
Y-172121D01*
Y-171834D01*
Y-171548D01*
Y-171262D01*
X909560D01*
Y-170975D01*
Y-170689D01*
Y-170403D01*
Y-170117D01*
Y-169830D01*
Y-169544D01*
X909847D01*
Y-169258D01*
Y-168971D01*
Y-168685D01*
Y-168399D01*
Y-168112D01*
Y-167826D01*
X933611D01*
Y-168112D01*
D02*
G37*
G36*
X1022654Y-182142D02*
Y-182428D01*
Y-182714D01*
Y-183001D01*
Y-183287D01*
Y-183573D01*
Y-183860D01*
Y-184146D01*
Y-184432D01*
Y-184719D01*
Y-185005D01*
Y-185291D01*
Y-185577D01*
Y-185864D01*
Y-186150D01*
Y-186436D01*
Y-186723D01*
Y-187009D01*
Y-187295D01*
Y-187582D01*
Y-187868D01*
X1022368D01*
Y-188154D01*
Y-188441D01*
Y-188727D01*
Y-189013D01*
Y-189299D01*
X1022081D01*
Y-189586D01*
Y-189872D01*
Y-190158D01*
Y-190445D01*
X1021795D01*
Y-190731D01*
Y-191017D01*
Y-191304D01*
Y-191590D01*
X1021509D01*
Y-191876D01*
Y-192163D01*
Y-192449D01*
X1021222D01*
Y-192735D01*
Y-193022D01*
Y-193308D01*
X1020936D01*
Y-193594D01*
Y-193880D01*
Y-194167D01*
X1020650D01*
Y-194453D01*
Y-194739D01*
Y-195026D01*
X1020364D01*
Y-195312D01*
Y-195598D01*
X1020077D01*
Y-195885D01*
Y-196171D01*
X1019791D01*
Y-196457D01*
Y-196744D01*
Y-197030D01*
X1019505D01*
Y-197316D01*
Y-197603D01*
X1019218D01*
Y-197889D01*
Y-198175D01*
Y-198461D01*
X1018932D01*
Y-198748D01*
Y-199034D01*
X1018646D01*
Y-199320D01*
Y-199607D01*
Y-199893D01*
X1018359D01*
Y-200179D01*
Y-200466D01*
X1018073D01*
Y-200752D01*
Y-201038D01*
Y-201325D01*
X1017787D01*
Y-201611D01*
Y-201897D01*
X1017500D01*
Y-202184D01*
Y-202470D01*
Y-202756D01*
X1017214D01*
Y-203043D01*
Y-203329D01*
X1016928D01*
Y-203615D01*
Y-203902D01*
Y-204188D01*
X1016642D01*
Y-204474D01*
Y-204760D01*
X1016355D01*
Y-205047D01*
Y-205333D01*
Y-205619D01*
X1016069D01*
Y-205906D01*
Y-206192D01*
X1015783D01*
Y-206478D01*
Y-206765D01*
Y-207051D01*
X1015496D01*
Y-207337D01*
Y-207624D01*
X1015210D01*
Y-207910D01*
Y-208196D01*
Y-208483D01*
X1014924D01*
Y-208769D01*
Y-209055D01*
X1014637D01*
Y-209341D01*
Y-209628D01*
Y-209914D01*
X1014351D01*
Y-210200D01*
Y-210487D01*
X1014065D01*
Y-210773D01*
Y-211059D01*
Y-211346D01*
X1013778D01*
Y-211632D01*
Y-211918D01*
X1013492D01*
Y-212205D01*
Y-212491D01*
Y-212777D01*
X1013206D01*
Y-213064D01*
Y-213350D01*
X1012919D01*
Y-213636D01*
Y-213922D01*
Y-214209D01*
X1012633D01*
Y-214495D01*
Y-214781D01*
X1012347D01*
Y-215068D01*
Y-215354D01*
Y-215640D01*
X1012060D01*
Y-215927D01*
Y-216213D01*
X1011774D01*
Y-216499D01*
Y-216786D01*
Y-217072D01*
X1011488D01*
Y-217358D01*
Y-217645D01*
X1011201D01*
Y-217931D01*
Y-218217D01*
Y-218503D01*
X1010915D01*
Y-218790D01*
Y-219076D01*
X1010629D01*
Y-219362D01*
Y-219649D01*
X1010343D01*
Y-219935D01*
Y-220221D01*
X1010056D01*
Y-220508D01*
Y-220794D01*
Y-221080D01*
X1009770D01*
Y-221367D01*
X1009484D01*
Y-221653D01*
Y-221939D01*
Y-222225D01*
X1009197D01*
Y-222512D01*
X1008911D01*
Y-222798D01*
Y-223084D01*
X1008625D01*
Y-223371D01*
Y-223657D01*
X1008338D01*
Y-223943D01*
Y-224230D01*
X1008052D01*
Y-224516D01*
Y-224802D01*
X1007766D01*
Y-225089D01*
X1007479D01*
Y-225375D01*
Y-225661D01*
X1007193D01*
Y-225948D01*
Y-226234D01*
X1006907D01*
Y-226520D01*
X1006621D01*
Y-226806D01*
X1006334D01*
Y-227093D01*
Y-227379D01*
X1006048D01*
Y-227665D01*
X1005762D01*
Y-227952D01*
Y-228238D01*
X1005475D01*
Y-228524D01*
X1005189D01*
Y-228811D01*
X1004903D01*
Y-229097D01*
Y-229383D01*
X1004616D01*
Y-229670D01*
X1004330D01*
Y-229956D01*
X1004044D01*
Y-230242D01*
X1003757D01*
Y-230529D01*
X1003471D01*
Y-230815D01*
Y-231101D01*
X1003185D01*
Y-231387D01*
X1002898D01*
Y-231674D01*
X1002612D01*
Y-231960D01*
X1002326D01*
Y-232246D01*
X1002040D01*
Y-232533D01*
X1001753D01*
Y-232819D01*
X1001467D01*
Y-233105D01*
X1000894D01*
Y-233392D01*
X1000608D01*
Y-233678D01*
X1000322D01*
Y-233964D01*
X1000035D01*
Y-234251D01*
X999749D01*
Y-234537D01*
X999176D01*
Y-234823D01*
X998890D01*
Y-235110D01*
X998317D01*
Y-235396D01*
X998031D01*
Y-235682D01*
X997458D01*
Y-235968D01*
X997172D01*
Y-236255D01*
X996600D01*
Y-236541D01*
X996027D01*
Y-236827D01*
X995454D01*
Y-237114D01*
X994882D01*
Y-237400D01*
X994309D01*
Y-237686D01*
X993450D01*
Y-237973D01*
X992877D01*
Y-238259D01*
X992019D01*
Y-238545D01*
X990873D01*
Y-238832D01*
X989728D01*
Y-239118D01*
X988010D01*
Y-239404D01*
X986006D01*
Y-239691D01*
X985720D01*
Y-239404D01*
Y-239118D01*
Y-238832D01*
Y-238545D01*
Y-238259D01*
Y-237973D01*
Y-237686D01*
Y-237400D01*
Y-237114D01*
Y-236827D01*
Y-236541D01*
Y-236255D01*
Y-235968D01*
Y-235682D01*
Y-235396D01*
Y-235110D01*
Y-234823D01*
Y-234537D01*
Y-234251D01*
Y-233964D01*
Y-233678D01*
Y-233392D01*
Y-233105D01*
Y-232819D01*
Y-232533D01*
Y-232246D01*
Y-231960D01*
Y-231674D01*
Y-231387D01*
Y-231101D01*
Y-230815D01*
Y-230529D01*
Y-230242D01*
X986292D01*
Y-229956D01*
X986865D01*
Y-229670D01*
X987438D01*
Y-229383D01*
X988010D01*
Y-229097D01*
X988583D01*
Y-228811D01*
X989155D01*
Y-228524D01*
X989442D01*
Y-228238D01*
X990014D01*
Y-227952D01*
X990301D01*
Y-227665D01*
X990873D01*
Y-227379D01*
X991160D01*
Y-227093D01*
X991446D01*
Y-226806D01*
X992019D01*
Y-226520D01*
X992305D01*
Y-226234D01*
X992591D01*
Y-225948D01*
X992877D01*
Y-225661D01*
X993164D01*
Y-225375D01*
X993450D01*
Y-225089D01*
X993736D01*
Y-224802D01*
X994023D01*
Y-224516D01*
X994309D01*
Y-224230D01*
X994595D01*
Y-223943D01*
X994882D01*
Y-223657D01*
X995168D01*
Y-223371D01*
Y-223084D01*
X995454D01*
Y-222798D01*
X995741D01*
Y-222512D01*
X996027D01*
Y-222225D01*
Y-221939D01*
X996313D01*
Y-221653D01*
X996600D01*
Y-221367D01*
Y-221080D01*
X996886D01*
Y-220794D01*
Y-220508D01*
X997172D01*
Y-220221D01*
X997458D01*
Y-219935D01*
Y-219649D01*
X997745D01*
Y-219362D01*
Y-219076D01*
X998031D01*
Y-218790D01*
Y-218503D01*
X996313D01*
Y-218217D01*
X994309D01*
Y-217931D01*
X993164D01*
Y-217645D01*
X992591D01*
Y-217358D01*
X991732D01*
Y-217072D01*
X991160D01*
Y-216786D01*
X990873D01*
Y-216499D01*
X990301D01*
Y-216213D01*
X990014D01*
Y-215927D01*
X989728D01*
Y-215640D01*
X989442D01*
Y-215354D01*
X989155D01*
Y-215068D01*
X988869D01*
Y-214781D01*
Y-214495D01*
X988583D01*
Y-214209D01*
X988297D01*
Y-213922D01*
Y-213636D01*
X988010D01*
Y-213350D01*
Y-213064D01*
X987724D01*
Y-212777D01*
Y-212491D01*
X987438D01*
Y-212205D01*
Y-211918D01*
Y-211632D01*
X987151D01*
Y-211346D01*
Y-211059D01*
Y-210773D01*
Y-210487D01*
X986865D01*
Y-210200D01*
Y-209914D01*
Y-209628D01*
Y-209341D01*
Y-209055D01*
Y-208769D01*
Y-208483D01*
X986579D01*
Y-208196D01*
Y-207910D01*
Y-207624D01*
Y-207337D01*
Y-207051D01*
Y-206765D01*
Y-206478D01*
Y-206192D01*
Y-205906D01*
Y-205619D01*
Y-205333D01*
Y-205047D01*
Y-204760D01*
Y-204474D01*
Y-204188D01*
X986292D01*
Y-203902D01*
Y-203615D01*
Y-203329D01*
Y-203043D01*
Y-202756D01*
Y-202470D01*
Y-202184D01*
Y-201897D01*
Y-201611D01*
Y-201325D01*
Y-201038D01*
Y-200752D01*
Y-200466D01*
Y-200179D01*
Y-199893D01*
X986006D01*
Y-199607D01*
Y-199320D01*
Y-199034D01*
Y-198748D01*
Y-198461D01*
Y-198175D01*
Y-197889D01*
Y-197603D01*
Y-197316D01*
Y-197030D01*
Y-196744D01*
Y-196457D01*
Y-196171D01*
Y-195885D01*
Y-195598D01*
Y-195312D01*
X985720D01*
Y-195026D01*
Y-194739D01*
Y-194453D01*
Y-194167D01*
Y-193880D01*
Y-193594D01*
Y-193308D01*
Y-193022D01*
Y-192735D01*
Y-192449D01*
Y-192163D01*
Y-191876D01*
Y-191590D01*
Y-191304D01*
Y-191017D01*
Y-190731D01*
X985433D01*
Y-190445D01*
Y-190158D01*
Y-189872D01*
Y-189586D01*
Y-189299D01*
Y-189013D01*
Y-188727D01*
Y-188441D01*
Y-188154D01*
Y-187868D01*
Y-187582D01*
Y-187295D01*
Y-187009D01*
Y-186723D01*
X985147D01*
Y-186436D01*
Y-186150D01*
Y-185864D01*
Y-185577D01*
Y-185291D01*
Y-185005D01*
Y-184719D01*
Y-184432D01*
Y-184146D01*
Y-183860D01*
Y-183573D01*
Y-183287D01*
Y-183001D01*
Y-182714D01*
Y-182428D01*
Y-182142D01*
X984861D01*
Y-181855D01*
X998604D01*
Y-182142D01*
Y-182428D01*
Y-182714D01*
Y-183001D01*
Y-183287D01*
Y-183573D01*
Y-183860D01*
Y-184146D01*
Y-184432D01*
Y-184719D01*
Y-185005D01*
Y-185291D01*
Y-185577D01*
Y-185864D01*
X998890D01*
Y-186150D01*
Y-186436D01*
Y-186723D01*
Y-187009D01*
Y-187295D01*
Y-187582D01*
Y-187868D01*
Y-188154D01*
Y-188441D01*
Y-188727D01*
Y-189013D01*
Y-189299D01*
Y-189586D01*
Y-189872D01*
Y-190158D01*
Y-190445D01*
Y-190731D01*
Y-191017D01*
Y-191304D01*
Y-191590D01*
Y-191876D01*
Y-192163D01*
Y-192449D01*
Y-192735D01*
Y-193022D01*
Y-193308D01*
Y-193594D01*
Y-193880D01*
Y-194167D01*
Y-194453D01*
Y-194739D01*
Y-195026D01*
Y-195312D01*
Y-195598D01*
Y-195885D01*
Y-196171D01*
Y-196457D01*
Y-196744D01*
Y-197030D01*
Y-197316D01*
Y-197603D01*
X999176D01*
Y-197889D01*
X998890D01*
Y-198175D01*
Y-198461D01*
X999176D01*
Y-198748D01*
Y-199034D01*
Y-199320D01*
Y-199607D01*
Y-199893D01*
Y-200179D01*
Y-200466D01*
Y-200752D01*
Y-201038D01*
Y-201325D01*
Y-201611D01*
Y-201897D01*
Y-202184D01*
Y-202470D01*
Y-202756D01*
Y-203043D01*
Y-203329D01*
Y-203615D01*
Y-203902D01*
Y-204188D01*
Y-204474D01*
Y-204760D01*
Y-205047D01*
Y-205333D01*
Y-205619D01*
Y-205906D01*
X999463D01*
Y-206192D01*
Y-206478D01*
Y-206765D01*
X999749D01*
Y-207051D01*
X1000035D01*
Y-207337D01*
X1000322D01*
Y-207624D01*
X1001181D01*
Y-207910D01*
X1002040D01*
Y-207624D01*
X1002326D01*
Y-207337D01*
Y-207051D01*
Y-206765D01*
X1002612D01*
Y-206478D01*
Y-206192D01*
X1002898D01*
Y-205906D01*
Y-205619D01*
Y-205333D01*
X1003185D01*
Y-205047D01*
Y-204760D01*
Y-204474D01*
X1003471D01*
Y-204188D01*
Y-203902D01*
Y-203615D01*
X1003757D01*
Y-203329D01*
Y-203043D01*
Y-202756D01*
X1004044D01*
Y-202470D01*
Y-202184D01*
X1004330D01*
Y-201897D01*
Y-201611D01*
Y-201325D01*
X1004616D01*
Y-201038D01*
Y-200752D01*
Y-200466D01*
X1004903D01*
Y-200179D01*
Y-199893D01*
Y-199607D01*
X1005189D01*
Y-199320D01*
Y-199034D01*
X1005475D01*
Y-198748D01*
Y-198461D01*
Y-198175D01*
X1005762D01*
Y-197889D01*
Y-197603D01*
Y-197316D01*
X1006048D01*
Y-197030D01*
Y-196744D01*
Y-196457D01*
X1006334D01*
Y-196171D01*
Y-195885D01*
X1006621D01*
Y-195598D01*
Y-195312D01*
Y-195026D01*
X1006907D01*
Y-194739D01*
Y-194453D01*
Y-194167D01*
X1007193D01*
Y-193880D01*
Y-193594D01*
Y-193308D01*
X1007479D01*
Y-193022D01*
Y-192735D01*
X1007766D01*
Y-192449D01*
Y-192163D01*
Y-191876D01*
X1008052D01*
Y-191590D01*
Y-191304D01*
Y-191017D01*
X1008338D01*
Y-190731D01*
Y-190445D01*
Y-190158D01*
X1008625D01*
Y-189872D01*
Y-189586D01*
Y-189299D01*
Y-189013D01*
X1008911D01*
Y-188727D01*
Y-188441D01*
Y-188154D01*
Y-187868D01*
X1009197D01*
Y-187582D01*
Y-187295D01*
Y-187009D01*
Y-186723D01*
Y-186436D01*
X1009484D01*
Y-186150D01*
Y-185864D01*
Y-185577D01*
Y-185291D01*
Y-185005D01*
Y-184719D01*
X1009770D01*
Y-184432D01*
Y-184146D01*
Y-183860D01*
Y-183573D01*
Y-183287D01*
Y-183001D01*
Y-182714D01*
Y-182428D01*
Y-182142D01*
Y-181855D01*
X1022654D01*
Y-182142D01*
D02*
G37*
G36*
X964819Y-164677D02*
Y-164963D01*
X964532D01*
Y-165249D01*
Y-165535D01*
Y-165822D01*
Y-166108D01*
Y-166394D01*
Y-166681D01*
X964246D01*
Y-166967D01*
Y-167253D01*
Y-167540D01*
Y-167826D01*
Y-168112D01*
Y-168399D01*
X963960D01*
Y-168685D01*
Y-168971D01*
Y-169258D01*
Y-169544D01*
Y-169830D01*
Y-170117D01*
Y-170403D01*
X963674D01*
Y-170689D01*
Y-170975D01*
Y-171262D01*
Y-171548D01*
Y-171834D01*
Y-172121D01*
X963387D01*
Y-172407D01*
Y-172693D01*
Y-172980D01*
Y-173266D01*
Y-173552D01*
Y-173839D01*
X963101D01*
Y-174125D01*
Y-174411D01*
Y-174698D01*
Y-174984D01*
Y-175270D01*
Y-175557D01*
Y-175843D01*
X962815D01*
Y-176129D01*
Y-176415D01*
Y-176702D01*
Y-176988D01*
Y-177274D01*
Y-177561D01*
X962528D01*
Y-177847D01*
Y-178133D01*
Y-178420D01*
Y-178706D01*
Y-178992D01*
Y-179279D01*
X962242D01*
Y-179565D01*
Y-179851D01*
Y-180138D01*
Y-180424D01*
Y-180710D01*
Y-180997D01*
X961956D01*
Y-181283D01*
Y-181569D01*
Y-181855D01*
Y-182142D01*
Y-182428D01*
Y-182714D01*
Y-183001D01*
X961669D01*
Y-183287D01*
Y-183573D01*
Y-183860D01*
Y-184146D01*
Y-184432D01*
Y-184719D01*
X961383D01*
Y-185005D01*
Y-185291D01*
X961956D01*
Y-185005D01*
X962242D01*
Y-184719D01*
X962528D01*
Y-184432D01*
X963101D01*
Y-184146D01*
X963387D01*
Y-183860D01*
X963674D01*
Y-183573D01*
X964246D01*
Y-183287D01*
X964819D01*
Y-183001D01*
X965105D01*
Y-182714D01*
X965678D01*
Y-182428D01*
X966537D01*
Y-182142D01*
X967109D01*
Y-181855D01*
X967968D01*
Y-181569D01*
X969400D01*
Y-181283D01*
X975699D01*
Y-181569D01*
X976844D01*
Y-181855D01*
X977703D01*
Y-182142D01*
X978275D01*
Y-182428D01*
X978562D01*
Y-182714D01*
X979134D01*
Y-183001D01*
X979421D01*
Y-183287D01*
X979707D01*
Y-183573D01*
X979993D01*
Y-183860D01*
X980280D01*
Y-184146D01*
Y-184432D01*
X980566D01*
Y-184719D01*
Y-185005D01*
X980852D01*
Y-185291D01*
Y-185577D01*
Y-185864D01*
X981139D01*
Y-186150D01*
Y-186436D01*
Y-186723D01*
Y-187009D01*
X981425D01*
Y-187295D01*
Y-187582D01*
Y-187868D01*
Y-188154D01*
Y-188441D01*
Y-188727D01*
Y-189013D01*
Y-189299D01*
Y-189586D01*
Y-189872D01*
Y-190158D01*
Y-190445D01*
Y-190731D01*
Y-191017D01*
Y-191304D01*
Y-191590D01*
Y-191876D01*
Y-192163D01*
X981139D01*
Y-192449D01*
Y-192735D01*
Y-193022D01*
Y-193308D01*
Y-193594D01*
Y-193880D01*
Y-194167D01*
X980852D01*
Y-194453D01*
Y-194739D01*
Y-195026D01*
Y-195312D01*
Y-195598D01*
Y-195885D01*
Y-196171D01*
X980566D01*
Y-196457D01*
Y-196744D01*
Y-197030D01*
Y-197316D01*
Y-197603D01*
Y-197889D01*
X980280D01*
Y-198175D01*
Y-198461D01*
Y-198748D01*
Y-199034D01*
Y-199320D01*
Y-199607D01*
X979993D01*
Y-199893D01*
Y-200179D01*
Y-200466D01*
Y-200752D01*
Y-201038D01*
Y-201325D01*
X979707D01*
Y-201611D01*
Y-201897D01*
Y-202184D01*
Y-202470D01*
Y-202756D01*
Y-203043D01*
Y-203329D01*
X979421D01*
Y-203615D01*
Y-203902D01*
Y-204188D01*
Y-204474D01*
Y-204760D01*
Y-205047D01*
X979134D01*
Y-205333D01*
Y-205619D01*
Y-205906D01*
Y-206192D01*
Y-206478D01*
Y-206765D01*
X978848D01*
Y-207051D01*
Y-207337D01*
Y-207624D01*
Y-207910D01*
Y-208196D01*
Y-208483D01*
Y-208769D01*
X978562D01*
Y-209055D01*
Y-209341D01*
Y-209628D01*
Y-209914D01*
Y-210200D01*
Y-210487D01*
X978275D01*
Y-210773D01*
Y-211059D01*
Y-211346D01*
Y-211632D01*
Y-211918D01*
Y-212205D01*
X977989D01*
Y-212491D01*
Y-212777D01*
Y-213064D01*
Y-213350D01*
Y-213636D01*
Y-213922D01*
X977703D01*
Y-214209D01*
Y-214495D01*
Y-214781D01*
Y-215068D01*
Y-215354D01*
Y-215640D01*
Y-215927D01*
X977417D01*
Y-216213D01*
Y-216499D01*
Y-216786D01*
Y-217072D01*
Y-217358D01*
Y-217645D01*
X977130D01*
Y-217931D01*
Y-218217D01*
X963960D01*
Y-217931D01*
Y-217645D01*
X964246D01*
Y-217358D01*
Y-217072D01*
Y-216786D01*
Y-216499D01*
Y-216213D01*
Y-215927D01*
X964532D01*
Y-215640D01*
Y-215354D01*
Y-215068D01*
Y-214781D01*
Y-214495D01*
Y-214209D01*
Y-213922D01*
X964819D01*
Y-213636D01*
Y-213350D01*
Y-213064D01*
Y-212777D01*
Y-212491D01*
Y-212205D01*
X965105D01*
Y-211918D01*
Y-211632D01*
Y-211346D01*
Y-211059D01*
Y-210773D01*
Y-210487D01*
X965392D01*
Y-210200D01*
Y-209914D01*
Y-209628D01*
Y-209341D01*
Y-209055D01*
Y-208769D01*
Y-208483D01*
X965678D01*
Y-208196D01*
Y-207910D01*
Y-207624D01*
Y-207337D01*
Y-207051D01*
Y-206765D01*
X965964D01*
Y-206478D01*
Y-206192D01*
Y-205906D01*
Y-205619D01*
Y-205333D01*
Y-205047D01*
Y-204760D01*
X966250D01*
Y-204474D01*
Y-204188D01*
Y-203902D01*
Y-203615D01*
Y-203329D01*
Y-203043D01*
X966537D01*
Y-202756D01*
Y-202470D01*
Y-202184D01*
Y-201897D01*
Y-201611D01*
Y-201325D01*
X966823D01*
Y-201038D01*
Y-200752D01*
Y-200466D01*
Y-200179D01*
Y-199893D01*
Y-199607D01*
X967109D01*
Y-199320D01*
Y-199034D01*
Y-198748D01*
Y-198461D01*
Y-198175D01*
Y-197889D01*
Y-197603D01*
X967396D01*
Y-197316D01*
Y-197030D01*
Y-196744D01*
Y-196457D01*
Y-196171D01*
Y-195885D01*
X967682D01*
Y-195598D01*
Y-195312D01*
Y-195026D01*
Y-194739D01*
Y-194453D01*
Y-194167D01*
Y-193880D01*
X967968D01*
Y-193594D01*
Y-193308D01*
Y-193022D01*
Y-192735D01*
Y-192449D01*
Y-192163D01*
X967682D01*
Y-191876D01*
Y-191590D01*
X967396D01*
Y-191304D01*
X967109D01*
Y-191017D01*
X966537D01*
Y-190731D01*
X964819D01*
Y-191017D01*
X963387D01*
Y-191304D01*
X962528D01*
Y-191590D01*
X961956D01*
Y-191876D01*
X961669D01*
Y-192163D01*
X961097D01*
Y-192449D01*
X960810D01*
Y-192735D01*
X960524D01*
Y-193022D01*
Y-193308D01*
X960238D01*
Y-193594D01*
Y-193880D01*
Y-194167D01*
X959951D01*
Y-194453D01*
Y-194739D01*
Y-195026D01*
Y-195312D01*
Y-195598D01*
Y-195885D01*
X959665D01*
Y-196171D01*
Y-196457D01*
Y-196744D01*
Y-197030D01*
Y-197316D01*
Y-197603D01*
Y-197889D01*
X959379D01*
Y-198175D01*
Y-198461D01*
Y-198748D01*
Y-199034D01*
Y-199320D01*
Y-199607D01*
X959093D01*
Y-199893D01*
Y-200179D01*
Y-200466D01*
Y-200752D01*
Y-201038D01*
Y-201325D01*
X958806D01*
Y-201611D01*
Y-201897D01*
Y-202184D01*
Y-202470D01*
Y-202756D01*
Y-203043D01*
X958520D01*
Y-203329D01*
Y-203615D01*
Y-203902D01*
Y-204188D01*
Y-204474D01*
Y-204760D01*
Y-205047D01*
X958234D01*
Y-205333D01*
Y-205619D01*
Y-205906D01*
Y-206192D01*
Y-206478D01*
Y-206765D01*
X957947D01*
Y-207051D01*
Y-207337D01*
Y-207624D01*
Y-207910D01*
Y-208196D01*
Y-208483D01*
X957661D01*
Y-208769D01*
Y-209055D01*
Y-209341D01*
Y-209628D01*
Y-209914D01*
Y-210200D01*
Y-210487D01*
X957375D01*
Y-210773D01*
Y-211059D01*
Y-211346D01*
Y-211632D01*
Y-211918D01*
Y-212205D01*
X957088D01*
Y-212491D01*
Y-212777D01*
Y-213064D01*
Y-213350D01*
Y-213636D01*
Y-213922D01*
X956802D01*
Y-214209D01*
Y-214495D01*
Y-214781D01*
Y-215068D01*
Y-215354D01*
Y-215640D01*
X956516D01*
Y-215927D01*
Y-216213D01*
Y-216499D01*
Y-216786D01*
Y-217072D01*
Y-217358D01*
Y-217645D01*
X956229D01*
Y-217931D01*
Y-218217D01*
X943059D01*
Y-217931D01*
Y-217645D01*
X943345D01*
Y-217358D01*
Y-217072D01*
Y-216786D01*
Y-216499D01*
Y-216213D01*
Y-215927D01*
Y-215640D01*
X943632D01*
Y-215354D01*
Y-215068D01*
Y-214781D01*
Y-214495D01*
Y-214209D01*
Y-213922D01*
X943918D01*
Y-213636D01*
Y-213350D01*
Y-213064D01*
Y-212777D01*
Y-212491D01*
Y-212205D01*
X944204D01*
Y-211918D01*
Y-211632D01*
Y-211346D01*
Y-211059D01*
Y-210773D01*
Y-210487D01*
Y-210200D01*
X944491D01*
Y-209914D01*
Y-209628D01*
Y-209341D01*
Y-209055D01*
Y-208769D01*
Y-208483D01*
X944777D01*
Y-208196D01*
Y-207910D01*
Y-207624D01*
Y-207337D01*
Y-207051D01*
Y-206765D01*
X945063D01*
Y-206478D01*
Y-206192D01*
Y-205906D01*
Y-205619D01*
Y-205333D01*
Y-205047D01*
X945350D01*
Y-204760D01*
Y-204474D01*
Y-204188D01*
Y-203902D01*
Y-203615D01*
Y-203329D01*
Y-203043D01*
X945636D01*
Y-202756D01*
Y-202470D01*
Y-202184D01*
Y-201897D01*
Y-201611D01*
Y-201325D01*
X945922D01*
Y-201038D01*
Y-200752D01*
Y-200466D01*
Y-200179D01*
Y-199893D01*
Y-199607D01*
X946208D01*
Y-199320D01*
Y-199034D01*
Y-198748D01*
Y-198461D01*
Y-198175D01*
Y-197889D01*
Y-197603D01*
X946495D01*
Y-197316D01*
Y-197030D01*
Y-196744D01*
Y-196457D01*
Y-196171D01*
Y-195885D01*
X946781D01*
Y-195598D01*
Y-195312D01*
Y-195026D01*
Y-194739D01*
Y-194453D01*
Y-194167D01*
X947067D01*
Y-193880D01*
Y-193594D01*
Y-193308D01*
Y-193022D01*
Y-192735D01*
Y-192449D01*
X947354D01*
Y-192163D01*
Y-191876D01*
Y-191590D01*
Y-191304D01*
Y-191017D01*
Y-190731D01*
Y-190445D01*
X947640D01*
Y-190158D01*
Y-189872D01*
Y-189586D01*
Y-189299D01*
Y-189013D01*
Y-188727D01*
X947926D01*
Y-188441D01*
Y-188154D01*
Y-187868D01*
Y-187582D01*
Y-187295D01*
Y-187009D01*
X948213D01*
Y-186723D01*
Y-186436D01*
Y-186150D01*
Y-185864D01*
Y-185577D01*
Y-185291D01*
X948499D01*
Y-185005D01*
Y-184719D01*
Y-184432D01*
Y-184146D01*
Y-183860D01*
Y-183573D01*
Y-183287D01*
X948785D01*
Y-183001D01*
Y-182714D01*
Y-182428D01*
Y-182142D01*
Y-181855D01*
Y-181569D01*
X949072D01*
Y-181283D01*
Y-180997D01*
Y-180710D01*
Y-180424D01*
Y-180138D01*
Y-179851D01*
X949358D01*
Y-179565D01*
Y-179279D01*
Y-178992D01*
Y-178706D01*
Y-178420D01*
Y-178133D01*
Y-177847D01*
X949644D01*
Y-177561D01*
Y-177274D01*
Y-176988D01*
Y-176702D01*
Y-176415D01*
Y-176129D01*
X949931D01*
Y-175843D01*
Y-175557D01*
Y-175270D01*
Y-174984D01*
Y-174698D01*
Y-174411D01*
X950217D01*
Y-174125D01*
Y-173839D01*
Y-173552D01*
Y-173266D01*
Y-172980D01*
Y-172693D01*
X950503D01*
Y-172407D01*
Y-172121D01*
Y-171834D01*
Y-171548D01*
Y-171262D01*
Y-170975D01*
Y-170689D01*
X950790D01*
Y-170403D01*
Y-170117D01*
Y-169830D01*
Y-169544D01*
Y-169258D01*
Y-168971D01*
X951076D01*
Y-168685D01*
Y-168399D01*
Y-168112D01*
Y-167826D01*
Y-167540D01*
Y-167253D01*
X951362D01*
Y-166967D01*
Y-166681D01*
Y-166394D01*
Y-166108D01*
Y-165822D01*
Y-165535D01*
Y-165249D01*
X951648D01*
Y-164963D01*
Y-164677D01*
Y-164390D01*
X964819D01*
Y-164677D01*
D02*
G37*
%LPC*%
G36*
X61475Y249228D02*
X60860Y249226D01*
X58388Y249201D01*
X55910Y249140D01*
X53430Y249052D01*
X50951Y248947D01*
X48473Y248836D01*
X46001Y248729D01*
X43536Y248635D01*
X41081Y248564D01*
Y248564D01*
X40558Y248557D01*
X39511Y248551D01*
X38465Y248555D01*
X37418Y248571D01*
X36895Y248583D01*
X34677Y248626D01*
X32413Y248648D01*
X32128Y248648D01*
X31558Y248644D01*
X30989Y248636D01*
X30419Y248624D01*
X30134Y248615D01*
X29851Y248607D01*
X29284Y248584D01*
X28718Y248554D01*
X28152Y248518D01*
X27870Y248497D01*
X27870Y248497D01*
X27591Y248476D01*
X27035Y248425D01*
X26480Y248365D01*
X25925Y248297D01*
X25649Y248258D01*
X25378Y248221D01*
X24839Y248135D01*
X24302Y248037D01*
X23767Y247928D01*
X23501Y247868D01*
Y247868D01*
X23242Y247810D01*
X22727Y247680D01*
X22215Y247536D01*
X21708Y247379D01*
X21456Y247294D01*
X21211Y247211D01*
X20726Y247029D01*
X20247Y246831D01*
X19775Y246617D01*
X19543Y246502D01*
X18861Y246185D01*
X17567Y245419D01*
X16356Y244527D01*
X15240Y243519D01*
X14231Y242404D01*
X13338Y241194D01*
X12570Y239901D01*
X11935Y238538D01*
X11687Y237828D01*
X11566Y237492D01*
X11347Y236812D01*
X11152Y236124D01*
X11008Y235540D01*
X10981Y235431D01*
X10907Y235081D01*
X10907Y235081D01*
X10832Y234724D01*
X10813Y234620D01*
X10700Y234005D01*
X10587Y233283D01*
X10493Y232558D01*
X10455Y232195D01*
X10417Y231823D01*
X10353Y231079D01*
X10304Y230334D01*
X10268Y229588D01*
X10257Y229214D01*
X10245Y228836D01*
X10232Y228078D01*
X10227Y227321D01*
X10232Y226563D01*
X10239Y226184D01*
X10246Y225805D01*
X10264Y225047D01*
X10286Y224289D01*
X10312Y223530D01*
X10451Y220161D01*
X10494Y218846D01*
X10824Y216234D01*
X11392Y213665D01*
X12195Y211158D01*
X12710Y209947D01*
X12710Y209947D01*
X12878Y209561D01*
X13240Y208802D01*
X13628Y208055D01*
X14020Y207364D01*
X14043Y207323D01*
X14263Y206965D01*
X14263Y206965D01*
X14480Y206612D01*
X14510Y206567D01*
X14939Y205925D01*
X15425Y205256D01*
X15893Y204662D01*
X15937Y204606D01*
X16205Y204292D01*
X16205Y204292D01*
X16205D01*
X16736Y203665D01*
X17903Y202509D01*
X19166Y201458D01*
X20515Y200521D01*
X21228Y200113D01*
X21981Y199688D01*
X23557Y198979D01*
X25193Y198419D01*
X26873Y198012D01*
X27728Y197887D01*
X28198Y197817D01*
X29142Y197717D01*
X30090Y197659D01*
X31040Y197642D01*
X31515Y197654D01*
X32623Y197658D01*
X34839Y197641D01*
X37054Y197589D01*
X39268Y197503D01*
X40375Y197447D01*
X45457Y197235D01*
Y197235D01*
X46119Y197210D01*
X47444Y197170D01*
X48769Y197139D01*
X50094Y197117D01*
X50757Y197110D01*
X50757Y197110D01*
X50757Y197110D01*
X51427Y197104D01*
X52766Y197107D01*
X54105Y197127D01*
X55443Y197164D01*
X56112Y197190D01*
X56112Y197190D01*
X56112Y197190D01*
X56770Y197216D01*
X58084Y197292D01*
X59396Y197393D01*
X60706Y197518D01*
X61360Y197593D01*
X61360Y197593D01*
Y197593D01*
X61987Y197664D01*
X63238Y197842D01*
X64482Y198053D01*
X65721Y198298D01*
X66337Y198438D01*
X66337Y198438D01*
Y198438D01*
X66918Y198569D01*
X68068Y198876D01*
X69205Y199227D01*
X70328Y199623D01*
X70881Y199843D01*
X70881Y199843D01*
X70881Y199843D01*
X71401Y200049D01*
X72417Y200517D01*
X73406Y201039D01*
X74366Y201614D01*
X74830Y201927D01*
X75276Y202229D01*
X76125Y202895D01*
X76925Y203618D01*
X77673Y204395D01*
X78019Y204808D01*
X78452Y205334D01*
X79225Y206454D01*
X79901Y207635D01*
X80476Y208869D01*
X80712Y209508D01*
X80712Y209508D01*
X80712Y209508D01*
X80831Y209828D01*
X80870Y209942D01*
X81049Y210475D01*
X81246Y211129D01*
X81390Y211668D01*
X81422Y211790D01*
X81500Y212123D01*
X81500Y212123D01*
X81578Y212461D01*
X81603Y212580D01*
X81718Y213143D01*
X81841Y213828D01*
X81926Y214387D01*
X81946Y214516D01*
X81990Y214861D01*
X81990Y214861D01*
X82034Y215212D01*
X82047Y215337D01*
X82110Y215917D01*
X82171Y216622D01*
X82219Y217329D01*
X82236Y217683D01*
X82254Y218041D01*
X82279Y218758D01*
X82293Y219475D01*
X82298Y220192D01*
X82296Y220550D01*
X82293Y220909D01*
X82281Y221627D01*
X82263Y222346D01*
X82243Y222931D01*
X82238Y223063D01*
X82222Y223422D01*
X82222Y223422D01*
X82206Y223777D01*
X82200Y223913D01*
X82172Y224486D01*
X82134Y225196D01*
X82101Y225772D01*
X82093Y225905D01*
X82071Y226259D01*
X82071Y226259D01*
X82026Y226936D01*
X81941Y228288D01*
X81863Y229642D01*
X81791Y230995D01*
X81758Y231672D01*
X81758Y231672D01*
X81758Y231672D01*
X81735Y232392D01*
X81614Y233827D01*
X81419Y235254D01*
X81150Y236669D01*
X80980Y237369D01*
X80900Y237687D01*
X80720Y238317D01*
X80519Y238940D01*
X80297Y239557D01*
X80176Y239861D01*
X80176D01*
X80061Y240150D01*
X79808Y240720D01*
X79534Y241278D01*
X79239Y241826D01*
X79081Y242094D01*
X79081D01*
X78928Y242353D01*
X78599Y242858D01*
X78250Y243348D01*
X77991Y243679D01*
X77879Y243822D01*
X77684Y244051D01*
X77365Y244420D01*
X77075Y244755D01*
X75679Y245983D01*
X74129Y247010D01*
X72454Y247818D01*
X71569Y248104D01*
X71237Y248216D01*
X70564Y248415D01*
X69884Y248587D01*
X69318Y248709D01*
X69199Y248734D01*
X68853Y248795D01*
X68853Y248795D01*
X68472Y248861D01*
X68386Y248873D01*
X67706Y248970D01*
X66938Y249053D01*
X66166Y249111D01*
X65780Y249127D01*
X65780Y249127D01*
X65165Y249154D01*
X63936Y249193D01*
X62705Y249218D01*
X61475Y249228D01*
D02*
G37*
G36*
X-72833Y248027D02*
X-74028Y248016D01*
X-75222Y247989D01*
X-76416Y247947D01*
X-77012Y247918D01*
Y247918D01*
X-77396Y247900D01*
X-78162Y247838D01*
X-78925Y247752D01*
X-79685Y247641D01*
X-80063Y247573D01*
Y247573D01*
X-80405Y247511D01*
X-81085Y247362D01*
X-81760Y247187D01*
X-82426Y246986D01*
X-82756Y246874D01*
X-83633Y246584D01*
X-85292Y245774D01*
X-86827Y244746D01*
X-88208Y243520D01*
X-88810Y242819D01*
Y242819D01*
X-89003Y242590D01*
X-89370Y242118D01*
X-89716Y241630D01*
X-90041Y241127D01*
X-90192Y240869D01*
X-90192D01*
X-90349Y240603D01*
X-90641Y240058D01*
X-90912Y239502D01*
X-91163Y238936D01*
X-91277Y238649D01*
X-91397Y238346D01*
X-91617Y237734D01*
X-91816Y237115D01*
X-91996Y236489D01*
X-92075Y236173D01*
X-92245Y235480D01*
X-92513Y234076D01*
X-92710Y232661D01*
X-92834Y231238D01*
X-92860Y230524D01*
X-92860D01*
X-92874Y230226D01*
X-92904Y229631D01*
X-92938Y229036D01*
X-92974Y228441D01*
X-92993Y228144D01*
X-93163Y225641D01*
X-93326Y223053D01*
X-93326Y223053D01*
X-93344Y222724D01*
X-93377Y222065D01*
X-93405Y221406D01*
X-93429Y220746D01*
X-93439Y220417D01*
X-93448Y220086D01*
X-93461Y219424D01*
X-93466Y218762D01*
X-93464Y218267D01*
X-93463Y218100D01*
X-93459Y217769D01*
X-93454Y217441D01*
X-93449Y217273D01*
X-93435Y216785D01*
X-93406Y216129D01*
X-93367Y215474D01*
X-93343Y215147D01*
X-93319Y214826D01*
X-93258Y214184D01*
X-93185Y213544D01*
X-93098Y212906D01*
X-93048Y212587D01*
X-93000Y212277D01*
X-92887Y211658D01*
X-92757Y211043D01*
X-92612Y210431D01*
X-92532Y210127D01*
X-92380Y209538D01*
X-91993Y208384D01*
X-91523Y207261D01*
X-90974Y206175D01*
X-90661Y205653D01*
X-90373Y205183D01*
X-89730Y204287D01*
X-89024Y203439D01*
X-88259Y202644D01*
X-87848Y202276D01*
X-87848Y202275D01*
X-87848D01*
X-87439Y201910D01*
X-86577Y201230D01*
X-85675Y200605D01*
X-84737Y200036D01*
X-84251Y199781D01*
X-84251Y199781D01*
Y199781D01*
X-83744Y199515D01*
X-82708Y199031D01*
X-81651Y198596D01*
X-80574Y198210D01*
X-80027Y198043D01*
X-79451Y197865D01*
X-78288Y197549D01*
X-77114Y197272D01*
X-75933Y197033D01*
X-75338Y196934D01*
X-74717Y196829D01*
X-73472Y196649D01*
X-72222Y196497D01*
X-70970Y196375D01*
X-70342Y196328D01*
X-70342Y196328D01*
X-70342Y196328D01*
X-69700Y196279D01*
X-68415Y196202D01*
X-67129Y196144D01*
X-65843Y196107D01*
X-65199Y196098D01*
X-64558Y196088D01*
X-63275Y196082D01*
X-61993Y196086D01*
X-60710Y196103D01*
X-60069Y196117D01*
X-55111Y196259D01*
X-55111Y196259D01*
Y196259D01*
X-54016Y196304D01*
X-51826Y196371D01*
X-49635Y196407D01*
X-47444Y196412D01*
X-46348Y196403D01*
X-45874Y196389D01*
X-44924Y196403D01*
X-43975Y196458D01*
X-43032Y196554D01*
X-43030Y196554D01*
X-42560Y196622D01*
X-42560Y196622D01*
X-42560Y196622D01*
X-41705Y196744D01*
X-40023Y197145D01*
X-38385Y197699D01*
X-36806Y198402D01*
X-36052Y198825D01*
X-36052Y198825D01*
X-36052Y198825D01*
X-35337Y199230D01*
X-33984Y200163D01*
X-32717Y201209D01*
X-31545Y202361D01*
X-31012Y202986D01*
X-31012Y202986D01*
X-30743Y203300D01*
X-30698Y203356D01*
X-30229Y203948D01*
X-29740Y204615D01*
X-29309Y205254D01*
X-29308Y205256D01*
X-29308Y205256D01*
X-29278Y205301D01*
X-29060Y205653D01*
X-29060Y205653D01*
X-28838Y206010D01*
X-28815Y206051D01*
X-28815Y206051D01*
X-28814Y206053D01*
X-28421Y206741D01*
X-28029Y207487D01*
X-27682Y208208D01*
X-27664Y208245D01*
X-27495Y208631D01*
X-27495D01*
X-27495Y208631D01*
X-26975Y209840D01*
X-26162Y212345D01*
X-25583Y214914D01*
X-25244Y217526D01*
X-25196Y218841D01*
X-25065Y221586D01*
X-24969Y223872D01*
X-24948Y224370D01*
X-24948Y224370D01*
X-24937Y224718D01*
X-24933Y224869D01*
X-24920Y225415D01*
X-24910Y226112D01*
X-24907Y226809D01*
X-24908Y227157D01*
X-24910Y227502D01*
X-24925Y228193D01*
X-24950Y228883D01*
X-24986Y229572D01*
X-25010Y229917D01*
X-25010D01*
X-25033Y230256D01*
X-25094Y230932D01*
X-25171Y231607D01*
X-25262Y232280D01*
X-25316Y232615D01*
X-25316D01*
X-25368Y232944D01*
X-25493Y233600D01*
X-25636Y234251D01*
X-25800Y234898D01*
X-25891Y235219D01*
X-26069Y235886D01*
X-26543Y237184D01*
X-27130Y238434D01*
X-27828Y239627D01*
X-28628Y240753D01*
X-29526Y241802D01*
X-30515Y242768D01*
X-31585Y243641D01*
X-32157Y244028D01*
X-32374Y244177D01*
X-32820Y244459D01*
X-33275Y244725D01*
X-33739Y244974D01*
X-33976Y245090D01*
X-34212Y245205D01*
X-34691Y245421D01*
X-35177Y245621D01*
X-35481Y245735D01*
X-35668Y245806D01*
X-35917Y245890D01*
X-35917Y245890D01*
X-36168Y245976D01*
X-36357Y246035D01*
X-36674Y246133D01*
X-37184Y246277D01*
X-37697Y246408D01*
X-38218Y246526D01*
X-38744Y246634D01*
X-39273Y246731D01*
X-39803Y246817D01*
X-40069Y246855D01*
X-40339Y246893D01*
X-40879Y246960D01*
X-41421Y247020D01*
X-41774Y247053D01*
X-41963Y247070D01*
X-42233Y247091D01*
X-42234Y247092D01*
Y247092D01*
X-42508Y247113D01*
X-42695Y247125D01*
X-43056Y247149D01*
X-43604Y247180D01*
X-44153Y247204D01*
X-44427Y247213D01*
X-44702Y247222D01*
X-45251Y247237D01*
X-45800Y247248D01*
X-46350Y247255D01*
X-46624Y247256D01*
X-48803Y247257D01*
X-49328Y247253D01*
X-50380Y247251D01*
X-51431Y247256D01*
X-52482Y247269D01*
X-53008Y247279D01*
X-55390Y247359D01*
X-57784Y247465D01*
X-60188Y247586D01*
X-62597Y247711D01*
X-65010Y247828D01*
X-67423Y247926D01*
X-69338Y247982D01*
X-69832Y247996D01*
X-70133Y248002D01*
X-70331Y248006D01*
X-70734Y248012D01*
X-71335Y248020D01*
X-71935Y248024D01*
X-72236Y248025D01*
X-72236Y248025D01*
X-72833Y248027D01*
D02*
G37*
%LPD*%
G36*
X46586Y244514D02*
X46928Y244463D01*
X47603Y244315D01*
X48267Y244123D01*
X48916Y243886D01*
X49232Y243747D01*
X49720Y243544D01*
X50630Y243007D01*
X51457Y242349D01*
X52184Y241582D01*
X52798Y240721D01*
X53286Y239784D01*
X53640Y238788D01*
X53851Y237752D01*
X53884Y237225D01*
X53884Y237225D01*
X53936Y236746D01*
X53961Y236509D01*
X53841Y235074D01*
X53452Y233688D01*
X52806Y232401D01*
X52367Y231831D01*
X52367D01*
X52059Y231458D01*
X51702Y231072D01*
X51207Y230616D01*
X50784Y230286D01*
X50395Y230017D01*
X49505Y229453D01*
X47551Y228661D01*
X45488Y228232D01*
X43381Y228178D01*
X42339Y228340D01*
X42339Y228340D01*
X41872Y228418D01*
X41323Y228537D01*
X40659Y228729D01*
X40010Y228963D01*
X39694Y229102D01*
Y229102D01*
X39205Y229305D01*
X38295Y229841D01*
X37467Y230499D01*
X36740Y231266D01*
X36126Y232126D01*
X35637Y233064D01*
X35284Y234060D01*
X35073Y235096D01*
X35040Y235623D01*
X34962Y236341D01*
X35081Y237781D01*
X35470Y239171D01*
X36116Y240463D01*
X36555Y241036D01*
X36763Y241301D01*
X37220Y241796D01*
X37715Y242252D01*
X38246Y242666D01*
X38527Y242851D01*
X39418Y243415D01*
X41373Y244204D01*
X43437Y244630D01*
X45545Y244679D01*
X46586Y244514D01*
D02*
G37*
%LPC*%
G36*
X44960Y238875D02*
X44462Y238866D01*
X43976Y238758D01*
X43522Y238556D01*
X43319Y238412D01*
X43252Y238363D01*
X43128Y238255D01*
X43013Y238136D01*
X42908Y238009D01*
X42861Y237941D01*
Y237941D01*
X42757Y237787D01*
X42608Y237447D01*
X42520Y237086D01*
X42496Y236715D01*
X42517Y236530D01*
X42517D01*
X42533Y236176D01*
X42800Y235520D01*
X43274Y234993D01*
X43898Y234656D01*
X44248Y234603D01*
X44493Y234558D01*
X44991Y234566D01*
X45478Y234674D01*
X45733Y234787D01*
X45933Y234876D01*
X46136Y235020D01*
X46136Y235020D01*
X46136Y235020D01*
X46203Y235069D01*
X46327Y235177D01*
X46327Y235177D01*
X46442Y235295D01*
X46442Y235296D01*
X46486Y235349D01*
X46548Y235423D01*
X46595Y235491D01*
X46698Y235645D01*
X46847Y235985D01*
X46935Y236346D01*
X46957Y236717D01*
X46936Y236902D01*
X46920Y237256D01*
X46652Y237911D01*
X46178Y238439D01*
X45555Y238776D01*
X45204Y238829D01*
X44960Y238875D01*
D02*
G37*
%LPD*%
G36*
X-54994Y243814D02*
X-52930Y243389D01*
X-50976Y242601D01*
X-50085Y242038D01*
X-50085Y242038D01*
X-50085D01*
X-49697Y241769D01*
X-49274Y241439D01*
X-48779Y240983D01*
X-48322Y240489D01*
X-48114Y240224D01*
X-47675Y239651D01*
X-47030Y238359D01*
X-46642Y236969D01*
X-46524Y235530D01*
X-46603Y234812D01*
X-46603Y234812D01*
X-46635Y234285D01*
X-46845Y233249D01*
X-47198Y232253D01*
X-47686Y231316D01*
X-48299Y230455D01*
X-49026Y229688D01*
X-49853Y229030D01*
X-50763Y228493D01*
X-51252Y228291D01*
X-51252Y228291D01*
Y228291D01*
X-51253Y228291D01*
X-51701Y228104D01*
X-52217Y227917D01*
X-52880Y227726D01*
X-53555Y227580D01*
X-53896Y227529D01*
X-53896Y227529D01*
X-54937Y227367D01*
X-57044Y227420D01*
X-59107Y227849D01*
X-61061Y228640D01*
X-61951Y229204D01*
X-61951D01*
X-62232Y229389D01*
X-62762Y229803D01*
X-63258Y230258D01*
X-63715Y230752D01*
X-63923Y231016D01*
X-64362Y231587D01*
X-65007Y232873D01*
X-65397Y234258D01*
X-65517Y235691D01*
X-65440Y236407D01*
X-65407Y236934D01*
X-65195Y237969D01*
X-64841Y238965D01*
X-64353Y239902D01*
X-63739Y240762D01*
X-63012Y241529D01*
X-62186Y242188D01*
X-61276Y242725D01*
X-60788Y242928D01*
X-60788Y242928D01*
X-60362Y243107D01*
X-59822Y243304D01*
X-59159Y243496D01*
X-58609Y243617D01*
X-58142Y243696D01*
X-58142Y243696D01*
X-57101Y243862D01*
X-54994Y243814D01*
D02*
G37*
%LPC*%
G36*
X-56530Y238045D02*
X-56775Y237999D01*
X-56775Y237999D01*
X-57126Y237944D01*
X-57229Y237888D01*
X-57751Y237605D01*
X-58225Y237076D01*
X-58495Y236418D01*
X-58512Y236063D01*
X-58534Y235879D01*
X-58511Y235508D01*
X-58423Y235147D01*
X-58274Y234807D01*
X-58171Y234652D01*
Y234652D01*
X-58124Y234585D01*
X-58019Y234457D01*
X-57903Y234339D01*
X-57779Y234231D01*
X-57712Y234182D01*
X-57509Y234038D01*
X-57054Y233836D01*
X-56567Y233728D01*
X-56069Y233719D01*
X-55824Y233764D01*
X-55824Y233764D01*
X-55474Y233818D01*
X-55369Y233874D01*
X-54850Y234154D01*
X-54377Y234682D01*
X-54158Y235219D01*
X-54109Y235338D01*
X-54093Y235692D01*
X-54079Y235811D01*
X-54071Y235878D01*
X-54092Y236251D01*
X-54178Y236614D01*
X-54326Y236958D01*
X-54429Y237113D01*
D01*
X-54476Y237181D01*
X-54530Y237248D01*
X-54544Y237265D01*
X-54544Y237265D01*
X-54580Y237309D01*
X-54580Y237310D01*
X-54695Y237428D01*
X-54747Y237473D01*
X-54820Y237537D01*
X-54886Y237585D01*
X-54886Y237585D01*
X-54886Y237585D01*
X-55089Y237730D01*
X-55545Y237932D01*
X-56032Y238038D01*
X-56530Y238045D01*
D02*
G37*
G36*
X-10347Y143143D02*
X-12332Y143143D01*
X-14317Y143111D01*
X-15309Y143080D01*
X-15309Y143080D01*
X-15309Y143080D01*
X-16301Y143049D01*
X-18282Y142949D01*
X-20262Y142812D01*
X-22238Y142638D01*
X-23225Y142532D01*
X-23225Y142532D01*
Y142532D01*
X-24202Y142428D01*
X-26152Y142175D01*
X-28095Y141878D01*
X-30031Y141537D01*
X-30995Y141345D01*
X-30995Y141345D01*
Y141345D01*
X-31945Y141156D01*
X-33834Y140726D01*
X-35710Y140245D01*
X-37573Y139714D01*
X-38497Y139424D01*
X-39407Y139137D01*
X-41207Y138507D01*
X-42986Y137819D01*
X-44743Y137075D01*
X-45608Y136675D01*
X-45608Y136675D01*
X-45608Y136675D01*
X-46466Y136278D01*
X-48150Y135422D01*
X-49801Y134503D01*
X-51417Y133524D01*
X-52206Y133005D01*
X-52999Y132483D01*
X-54539Y131373D01*
X-56032Y130200D01*
X-57474Y128966D01*
X-58169Y128319D01*
X-58758Y127468D01*
X-59785Y125671D01*
X-60654Y123792D01*
X-61358Y121845D01*
X-61625Y120845D01*
X-61739Y120404D01*
X-61920Y119511D01*
X-62057Y118610D01*
X-62144Y117738D01*
X-62147Y117703D01*
X-62170Y117249D01*
X-62170Y117249D01*
X-62170Y117249D01*
X-62209Y116387D01*
X-62105Y114667D01*
X-61818Y112967D01*
X-61353Y111307D01*
X-60714Y109705D01*
X-59909Y108181D01*
X-58946Y106751D01*
X-57837Y105431D01*
X-57216Y104833D01*
X-56886Y104504D01*
X-56197Y103874D01*
X-55482Y103276D01*
X-54741Y102709D01*
X-54358Y102442D01*
X-53948Y102156D01*
X-53108Y101618D01*
X-52246Y101113D01*
X-51366Y100642D01*
X-50917Y100424D01*
X-50433Y100189D01*
X-49449Y99754D01*
X-48450Y99353D01*
X-47438Y98988D01*
X-46926Y98823D01*
X-46926Y98824D01*
X-44117Y97903D01*
X-43941Y97847D01*
X-43587Y97737D01*
X-43233Y97629D01*
X-42878Y97524D01*
X-42700Y97473D01*
X-42700Y97473D01*
X-42525Y97423D01*
X-42175Y97327D01*
X-41824Y97236D01*
X-41472Y97149D01*
X-41295Y97108D01*
X-41124Y97068D01*
X-40782Y96995D01*
X-40438Y96928D01*
X-40093Y96868D01*
X-39919Y96841D01*
X-39754Y96815D01*
X-39422Y96772D01*
X-39090Y96738D01*
X-38756Y96713D01*
X-38589Y96705D01*
X-38589Y96705D01*
X-38431Y96697D01*
X-38113Y96693D01*
X-37796Y96700D01*
X-37479Y96718D01*
X-37321Y96733D01*
X-37321Y96733D01*
X-37170Y96747D01*
X-36869Y96790D01*
X-36571Y96846D01*
X-36276Y96917D01*
X-36130Y96959D01*
X-35987Y97000D01*
X-35706Y97099D01*
X-35431Y97214D01*
X-35163Y97343D01*
X-35033Y97416D01*
X-34900Y97490D01*
X-34642Y97656D01*
X-34416Y97821D01*
X-34395Y97836D01*
X-34394Y97837D01*
X-34159Y98032D01*
X-34047Y98136D01*
X-34047Y98136D01*
X-33816Y98356D01*
X-33375Y98818D01*
X-32957Y99300D01*
X-32562Y99802D01*
X-32377Y100062D01*
X-32281Y100194D01*
X-32093Y100461D01*
X-31909Y100730D01*
X-31728Y101001D01*
X-31639Y101138D01*
X-31639D01*
X-31549Y101277D01*
X-31370Y101557D01*
X-31194Y101838D01*
X-31019Y102120D01*
X-30932Y102261D01*
X-30757Y102550D01*
X-30405Y103125D01*
X-30049Y103699D01*
X-29689Y104270D01*
X-29508Y104554D01*
X-29415Y104697D01*
X-29227Y104981D01*
X-29035Y105262D01*
X-28839Y105541D01*
X-28740Y105680D01*
Y105680D01*
X-28639Y105818D01*
X-28434Y106092D01*
X-28224Y106363D01*
X-28010Y106629D01*
X-27900Y106761D01*
Y106761D01*
X-27788Y106892D01*
X-27560Y107151D01*
X-27326Y107405D01*
X-27086Y107653D01*
X-26963Y107775D01*
X-26837Y107897D01*
X-26579Y108136D01*
X-26313Y108367D01*
X-26042Y108590D01*
X-25903Y108699D01*
X-25314Y109131D01*
X-24092Y109933D01*
X-22818Y110650D01*
X-21498Y111277D01*
X-20138Y111812D01*
X-18744Y112253D01*
X-17323Y112597D01*
X-15882Y112843D01*
X-15157Y112928D01*
Y112928D01*
X-14180Y113014D01*
X-12221Y113078D01*
X-10263Y112998D01*
X-8316Y112774D01*
X-7350Y112609D01*
X-6144Y112363D01*
X-3767Y111720D01*
X-1452Y110883D01*
X786Y109857D01*
X2931Y108649D01*
X4969Y107267D01*
X6885Y105722D01*
X8666Y104022D01*
X9503Y103119D01*
X9798Y102770D01*
X10373Y102062D01*
X10928Y101337D01*
X11453Y100611D01*
X11723Y100223D01*
Y100223D01*
X11723Y100223D01*
X12483Y99104D01*
X12562Y98987D01*
X12723Y98755D01*
X12889Y98527D01*
X13058Y98301D01*
X13144Y98189D01*
X13219Y98093D01*
X13377Y97905D01*
X13543Y97725D01*
X13716Y97552D01*
X13806Y97469D01*
X13892Y97390D01*
X14075Y97244D01*
X14266Y97109D01*
X14465Y96986D01*
X14568Y96931D01*
X14683Y96871D01*
X14918Y96766D01*
X15160Y96674D01*
X15406Y96597D01*
X15531Y96566D01*
X15687Y96527D01*
X16001Y96463D01*
X16318Y96412D01*
X16636Y96373D01*
X16796Y96361D01*
X17004Y96344D01*
X17420Y96320D01*
X17837Y96307D01*
X18253Y96303D01*
X18462Y96306D01*
Y96306D01*
X18733Y96310D01*
X19275Y96324D01*
X19817Y96345D01*
X20358Y96373D01*
X20629Y96391D01*
X21921Y96464D01*
X24483Y96826D01*
X27005Y97403D01*
X29470Y98190D01*
X30665Y98685D01*
Y98685D01*
X31441Y99008D01*
X32949Y99751D01*
X34407Y100588D01*
X35810Y101516D01*
X36480Y102023D01*
X37143Y102526D01*
X38394Y103624D01*
X39562Y104810D01*
X40642Y106077D01*
X41134Y106748D01*
Y106748D01*
X41904Y107805D01*
X43180Y110088D01*
X44176Y112507D01*
X44876Y115027D01*
X45074Y116320D01*
X45074Y116320D01*
X45268Y117366D01*
X45369Y119489D01*
X45184Y121606D01*
X44714Y123680D01*
X43968Y125670D01*
X42961Y127542D01*
X41710Y129261D01*
X40238Y130795D01*
X39406Y131456D01*
Y131456D01*
X39001Y131801D01*
X38165Y132458D01*
X37304Y133080D01*
X36417Y133667D01*
X35963Y133943D01*
Y133943D01*
X35491Y134229D01*
X34531Y134772D01*
X33555Y135286D01*
X32563Y135770D01*
X32060Y135997D01*
Y135997D01*
X31547Y136229D01*
X30510Y136670D01*
X29463Y137086D01*
X28406Y137478D01*
X27873Y137662D01*
X27873Y137662D01*
X27873Y137662D01*
X27342Y137846D01*
X26274Y138195D01*
X25200Y138524D01*
X24120Y138835D01*
X23577Y138981D01*
Y138981D01*
X23577Y138981D01*
X23052Y139122D01*
X21998Y139391D01*
X20940Y139645D01*
X19879Y139884D01*
X19347Y139997D01*
Y139997D01*
X19347Y139997D01*
X18850Y140102D01*
X17855Y140301D01*
X16858Y140490D01*
X15858Y140668D01*
X15358Y140751D01*
X15358Y140751D01*
X15358Y140751D01*
X13507Y141062D01*
X9794Y141608D01*
X6071Y142078D01*
X2338Y142473D01*
X469Y142632D01*
X-510Y142714D01*
X-2468Y142852D01*
X-4428Y142965D01*
X-6389Y143051D01*
X-7371Y143082D01*
X-8363Y143113D01*
X-10347Y143143D01*
D02*
G37*
G36*
X929316Y-178992D02*
X921299D01*
Y-179279D01*
Y-179565D01*
Y-179851D01*
Y-180138D01*
Y-180424D01*
X921013D01*
Y-180710D01*
Y-180997D01*
Y-181283D01*
Y-181569D01*
Y-181855D01*
Y-182142D01*
X920727D01*
Y-182428D01*
Y-182714D01*
Y-183001D01*
Y-183287D01*
Y-183573D01*
Y-183860D01*
X920440D01*
Y-184146D01*
Y-184432D01*
Y-184719D01*
Y-185005D01*
Y-185291D01*
Y-185577D01*
X920154D01*
Y-185864D01*
Y-186150D01*
Y-186436D01*
Y-186723D01*
Y-187009D01*
Y-187295D01*
Y-187582D01*
X919868D01*
Y-187868D01*
Y-188154D01*
Y-188441D01*
Y-188727D01*
Y-189013D01*
Y-189299D01*
X919581D01*
Y-189586D01*
Y-189872D01*
Y-190158D01*
X926739D01*
Y-189872D01*
X927884D01*
Y-189586D01*
X928457D01*
Y-189299D01*
X928743D01*
Y-189013D01*
X929030D01*
Y-188727D01*
X929316D01*
Y-188441D01*
X929602D01*
Y-188154D01*
Y-187868D01*
X929889D01*
Y-187582D01*
Y-187295D01*
X930175D01*
Y-187009D01*
Y-186723D01*
X930461D01*
Y-186436D01*
Y-186150D01*
Y-185864D01*
Y-185577D01*
X930748D01*
Y-185291D01*
Y-185005D01*
Y-184719D01*
Y-184432D01*
Y-184146D01*
X931034D01*
Y-183860D01*
Y-183573D01*
Y-183287D01*
Y-183001D01*
Y-182714D01*
Y-182428D01*
Y-182142D01*
Y-181855D01*
Y-181569D01*
Y-181283D01*
Y-180997D01*
X930748D01*
Y-180710D01*
Y-180424D01*
X930461D01*
Y-180138D01*
Y-179851D01*
X930175D01*
Y-179565D01*
X929889D01*
Y-179279D01*
X929316D01*
Y-178992D01*
D02*
G37*
%LPD*%
D10*
X-110968Y165381D02*
G03*
X-115422Y165381I-2227J-2227D01*
G01*
X-109855Y159813D02*
G03*
X-109855Y164268I-2227J2227D01*
G01*
X-114309Y159813D02*
G03*
X-109855Y159813I2227J2227D01*
G01*
X-115422Y165381D02*
G03*
X-115422Y160927I2227J-2227D01*
G01*
X-120434Y162597D02*
X-112639Y154802D01*
X-107072Y156473D02*
X-106515Y157029D01*
X-118763Y168165D02*
X-118206Y168722D01*
X-112639Y170392D02*
X-104844Y162597D01*
X-110968Y165381D02*
X-110411Y164824D01*
X-109855Y164268D01*
X-114866Y160370D02*
X-114309Y159813D01*
X-115422Y160927D02*
X-114866Y160370D01*
X120624Y167533D02*
X127991Y166234D01*
X135707Y164874D02*
X141949Y163773D01*
X141819Y199536D02*
X148061Y198435D01*
X126736Y202195D02*
X134103Y200896D01*
X141949Y163773D02*
X148061Y198435D01*
X4938Y422655D02*
G03*
X7921Y421420I2983J2983D01*
G01*
X-22103Y419182D02*
G03*
X-21931Y419597I-415J415D01*
G01*
X120916Y246516D02*
G03*
X120793Y246217I299J-299D01*
G01*
X-115903Y234867D02*
G03*
X-115779Y235167I-299J299D01*
G01*
X4938Y422655D02*
G03*
X264Y428354I-8630J-2312D01*
G01*
X264Y428354D02*
G03*
X-3501Y429820I-7411J-13464D01*
G01*
D02*
G03*
X-7709Y430394I-4775J-19267D01*
G01*
D02*
G03*
X-15916Y428916I-768J-19255D01*
G01*
Y428916D02*
G03*
X-19146Y426885I4789J-11197D01*
G01*
X-19146Y426885D02*
G03*
X-21279Y424007I5567J-6357D01*
G01*
X-21279D02*
G03*
X-21931Y420296I7362J-3207D01*
G01*
X120916Y246516D02*
G03*
X128159Y249360I-2895J18017D01*
G01*
D02*
G03*
X132808Y254212I-9920J14159D01*
G01*
D02*
G03*
X134486Y257166I-23157J15102D01*
G01*
X134486D02*
G03*
X135905Y260353I-43285J21190D01*
G01*
D02*
G03*
X137196Y263681I-125866J50741D01*
G01*
X139915Y270405D02*
G03*
X138489Y267062I56119J-25901D01*
G01*
X141602Y273620D02*
G03*
X139915Y270405I30697J-18160D01*
G01*
X141602Y273620D02*
G03*
X149366Y315092I-52539J31299D01*
G01*
X149366D02*
G03*
X145827Y328974I-75451J-11845D01*
G01*
X145827Y328974D02*
G03*
X139767Y342309I-82811J-29587D01*
G01*
Y342309D02*
G03*
X127177Y360796I-112363J-62993D01*
G01*
X127177Y360796D02*
G03*
X117156Y371934I-117577J-95713D01*
G01*
D02*
G03*
X106123Y382116I-122641J-121804D01*
G01*
D02*
G03*
X94330Y391339I-125918J-148862D01*
G01*
X94330Y391339D02*
G03*
X88225Y395590I-123558J-170956D01*
G01*
D02*
G03*
X43594Y415409I-77680J-114764D01*
G01*
X43594Y415409D02*
G03*
X37493Y416858I-46996J-184318D01*
G01*
X37493Y416858D02*
G03*
X31185Y418151I-47890J-217564D01*
G01*
D02*
G03*
X20808Y419992I-67172J-348460D01*
G01*
X20808D02*
G03*
X15433Y420783I-33210J-207101D01*
G01*
D02*
G03*
X9985Y421420I-21683J-161898D01*
G01*
X-22103Y419182D02*
G03*
X-28792Y416838I39729J-124062D01*
G01*
D02*
G03*
X-32114Y415535I60441J-159018D01*
G01*
X-70331Y398238D02*
G03*
X-80463Y393243I226237J-471658D01*
G01*
Y393243D02*
G03*
X-90471Y388013I201132J-397094D01*
G01*
X-90471D02*
G03*
X-100330Y382514I183691J-340920D01*
G01*
X-105196Y379653D02*
G03*
X-113312Y374705I236951J-397826D01*
G01*
Y374705D02*
G03*
X-117398Y372088I123983J-198009D01*
G01*
Y372088D02*
G03*
X-121444Y369354I95944J-146385D01*
G01*
Y369354D02*
G03*
X-125409Y366489I79036J-113555D01*
G01*
X-125409D02*
G03*
X-129250Y363477I67645J-90220D01*
G01*
D02*
G03*
X-132924Y360303I59440J-72520D01*
G01*
Y360303D02*
G03*
X-136389Y356952I53303J-58572D01*
G01*
D02*
G03*
X-139601Y353408I48662J-47339D01*
G01*
X-139601D02*
G03*
X-142519Y349655I45225J-38180D01*
G01*
D02*
G03*
X-145023Y345526I24115J-17447D01*
G01*
X-145023Y345526D02*
G03*
X-145897Y343534I21074J-10428D01*
G01*
X-145897D02*
G03*
X-147310Y337519I21903J-8320D01*
G01*
X-147310Y337519D02*
G03*
X-147464Y335410I33018J-3466D01*
G01*
X-147464D02*
G03*
X-147501Y333205I46194J-1889D01*
G01*
X-147501Y333205D02*
G03*
X-147448Y330874I72707J491D01*
G01*
X-147448Y330874D02*
G03*
X-147330Y328392I138839J5369D01*
G01*
X-147067Y320280D02*
G03*
X-147330Y328392I-173867J-1575D01*
G01*
X-147042Y312106D02*
G03*
X-147033Y308012I624323J-603D01*
G01*
X-146979Y303922D02*
G03*
X-146847Y299842I172911J3564D01*
G01*
D02*
G03*
X-146601Y295779I125907J5569D01*
G01*
D02*
G03*
X-146208Y291739I98475J7547D01*
G01*
X-146208Y291739D02*
G03*
X-145632Y287729I80618J9525D01*
G01*
X-145632D02*
G03*
X-145070Y284850I52848J8831D01*
G01*
X-145070Y284850D02*
G03*
X-144723Y283423I41945J9442D01*
G01*
D02*
G03*
X-144325Y282012I36467J9527D01*
G01*
X-144325Y282012D02*
G03*
X-143870Y280621I31939J9686D01*
G01*
X-143870Y280621D02*
G03*
X-143352Y279257I28143J9900D01*
G01*
X-143352D02*
G03*
X-142766Y277924I24935J10168D01*
G01*
D02*
G03*
X-141365Y275372I21339J10047D01*
G01*
Y275372D02*
G03*
X-140540Y274163I17965J11384D01*
G01*
X-140540Y274163D02*
G03*
X-138638Y272197I8877J6681D01*
G01*
Y272196D02*
G03*
X-137496Y271317I13397J16219D01*
G01*
D02*
G03*
X-136286Y270484I21967J30626D01*
G01*
X-132689Y268092D02*
G03*
X-133838Y268889I-18856J-25958D01*
G01*
X-131649Y267273D02*
G03*
X-132689Y268092I-10781J-12612D01*
G01*
X-130762Y266413D02*
G03*
X-131649Y267273I-7195J-6537D01*
G01*
X-130073Y265497D02*
G03*
X-130762Y266413I-5213J-3202D01*
G01*
X-129367Y263847D02*
G03*
X-130073Y265497I-6985J-2012D01*
G01*
X-129113Y262893D02*
G03*
X-129367Y263847I-14317J-3307D01*
G01*
X-128901Y261884D02*
G03*
X-129113Y262893I-25401J-4823D01*
G01*
X-128529Y259791D02*
G03*
X-128333Y258752I43134J7583D01*
G01*
D02*
G03*
X-128107Y257747I21311J4273D01*
G01*
X-128107D02*
G03*
X-127831Y256799I12668J3164D01*
G01*
Y256799D02*
G03*
X-127489Y255931I7951J2631D01*
G01*
D02*
G03*
X-125987Y253181I21258J9830D01*
G01*
Y253181D02*
G03*
X-125100Y251908I16521J10563D01*
G01*
X-125100D02*
G03*
X-124120Y250726I13812J10455D01*
G01*
Y250726D02*
G03*
X-123043Y249651I11381J10321D01*
G01*
X-123043D02*
G03*
X-121868Y248699I9251J10232D01*
G01*
D02*
G03*
X-119209Y247236I7212J9952D01*
G01*
X-119209Y247236D02*
G03*
X-116123Y246468I4415J11162D01*
G01*
X125827Y238622D02*
G03*
X120793Y236056I12475J-30698D01*
G01*
X128424Y239504D02*
G03*
X125827Y238622I6596J-23675D01*
G01*
X130987Y240029D02*
G03*
X128424Y239504I2418J-18342D01*
G01*
X133452Y240128D02*
G03*
X130987Y240029I-694J-13429D01*
G01*
X135756Y239734D02*
G03*
X133452Y240128I-2812J-9513D01*
G01*
X137832Y238779D02*
G03*
X135756Y239734I-4386J-6802D01*
G01*
X139617Y237196D02*
G03*
X137832Y238779I-6180J-5169D01*
G01*
X141047Y234916D02*
G03*
X139617Y237196I-9225J-4194D01*
G01*
X142055Y231871D02*
G03*
X141047Y234916I-14774J-3207D01*
G01*
X143155Y225053D02*
G03*
X142055Y231871I-58500J-5938D01*
G01*
X143438Y221547D02*
G03*
X143155Y225053I-75922J-4358D01*
G01*
X143573Y218000D02*
G03*
X143438Y221547I-91411J-1697D01*
G01*
X143582Y214432D02*
G03*
X143573Y218000I-111523J1493D01*
G01*
X143488Y210860D02*
G03*
X143582Y214432I-139115J5431D01*
G01*
X143315Y207302D02*
G03*
X143488Y210860I-180521J10607D01*
G01*
X141881Y189653D02*
G03*
X142537Y196905I-362447J36400D01*
G01*
X141465Y185946D02*
G03*
X141881Y189653I-182671J22402D01*
G01*
X140957Y182222D02*
G03*
X141465Y185946I-136468J20519D01*
G01*
X140332Y178506D02*
G03*
X140957Y182222I-107189J19923D01*
G01*
X139567Y174825D02*
G03*
X140332Y178506I-86395J19876D01*
G01*
X138637Y171206D02*
G03*
X139567Y174825I-70599J20071D01*
G01*
X137518Y167675D02*
G03*
X138637Y171206I-58119J20369D01*
G01*
X136184Y164259D02*
G03*
X137518Y167675I-48048J20720D01*
G01*
X134613Y160983D02*
G03*
X136184Y164259I-39849J21136D01*
G01*
X132675Y157914D02*
G03*
X134613Y160983I-20164J14878D01*
G01*
X131543Y156470D02*
G03*
X132675Y157914I-22696J18955D01*
G01*
X130321Y155086D02*
G03*
X131543Y156470I-24242J22649D01*
G01*
X129021Y153763D02*
G03*
X130321Y155086I-25920J26751D01*
G01*
X127658Y152500D02*
G03*
X129021Y153763I-27709J31265D01*
G01*
X126245Y151297D02*
G03*
X127658Y152500I-29596J36189D01*
G01*
X124795Y150153D02*
G03*
X126245Y151296I-31574J41522D01*
G01*
X121837Y148043D02*
G03*
X124795Y150153I-33972J50751D01*
G01*
X118876Y146493D02*
G03*
X121837Y148043I-4674J12535D01*
G01*
X117562Y146151D02*
G03*
X118876Y146493I-1284J7625D01*
G01*
X113910Y146574D02*
G03*
X117562Y146151I2585J6351D01*
G01*
X112685Y147120D02*
G03*
X113910Y146574I5699J11140D01*
G01*
X111405Y147829D02*
G03*
X112685Y147120I11201J18708D01*
G01*
X110038Y148678D02*
G03*
X111405Y147829I25549J39599D01*
G01*
X108655Y118357D02*
G03*
X108553Y149644I-239327J14865D01*
G01*
X107039Y102648D02*
G03*
X108655Y118357I-200264J28536D01*
G01*
X104132Y87214D02*
G03*
X107039Y102648I-170507J40109D01*
G01*
X99798Y72297D02*
G03*
X104132Y87214I-141474J49189D01*
G01*
X91783Y55847D02*
G03*
X99798Y72297I-62049J40409D01*
G01*
X84891Y46991D02*
G03*
X91783Y55847I-52867J48253D01*
G01*
X80986Y42972D02*
G03*
X84891Y46991I-59740J61952D01*
G01*
X76777Y39126D02*
G03*
X80986Y42972I-69933J80751D01*
G01*
X72267Y35379D02*
G03*
X76777Y39126I-89617J112442D01*
G01*
X67458Y31655D02*
G03*
X72267Y35379I-129119J171747D01*
G01*
X47306Y16944D02*
G03*
X52389Y20573I-184156J263335D01*
G01*
X42127Y13446D02*
G03*
X47306Y16944I-104860J160840D01*
G01*
X36831Y10165D02*
G03*
X42127Y13446I-68489J116445D01*
G01*
X31398Y7186D02*
G03*
X36831Y10165I-46703J91612D01*
G01*
X25807Y4594D02*
G03*
X31398Y7186I-31807J75949D01*
G01*
X20036Y2475D02*
G03*
X25807Y4594I-20796J65564D01*
G01*
X14065Y915D02*
G03*
X20036Y2475I-12160J58751D01*
G01*
X7874Y0D02*
G03*
X14065Y916I-4929J54724D01*
G01*
X-9534Y742D02*
G03*
X7874Y0I11568J66842D01*
G01*
X-20721Y3464D02*
G03*
X-9534Y742I25310J79671D01*
G01*
X-26182Y5362D02*
G03*
X-20721Y3464I35629J93689D01*
G01*
X-31554Y7561D02*
G03*
X-26182Y5362I46316J105474D01*
G01*
X-36832Y10017D02*
G03*
X-31554Y7561I59246J120453D01*
G01*
X-42017Y12686D02*
G03*
X-36832Y10017I75318J139928D01*
G01*
X-47104Y15525D02*
G03*
X-42017Y12686I96123J166299D01*
G01*
X-63120Y25721D02*
G03*
X-47104Y15525I122836J175261D01*
G01*
X-73318Y33440D02*
G03*
X-63120Y25721I112595J138165D01*
G01*
X-82868Y41913D02*
G03*
X-73318Y33440I105372J109149D01*
G01*
X-91545Y51156D02*
G03*
X-82868Y41913I97916J83223D01*
G01*
X-95485Y56071D02*
G03*
X-91545Y51156I90701J68675D01*
G01*
X-103962Y72231D02*
G03*
X-95485Y56071I54262J18159D01*
G01*
X-105669Y77979D02*
G03*
X-103962Y72231I71691J18163D01*
G01*
X-106953Y83861D02*
G03*
X-105669Y77979I89583J16485D01*
G01*
X-107898Y89849D02*
G03*
X-106953Y83861I117631J15486D01*
G01*
X-108584Y95915D02*
G03*
X-107898Y89849I166548J15777D01*
G01*
X-109095Y102031D02*
G03*
X-108584Y95915I273515J19756D01*
G01*
X-111340Y142937D02*
G03*
X-109917Y114300I686176J19733D01*
G01*
X-111391Y144727D02*
G03*
X-111424Y145424I-25703J-864D01*
G01*
Y145424D02*
G03*
X-111475Y146020I-11232J-675D01*
G01*
Y146020D02*
G03*
X-111556Y146536I-6105J-692D01*
G01*
Y146536D02*
G03*
X-111677Y146996I-4050J-815D01*
G01*
D02*
G03*
X-112078Y147837I-3487J-1148D01*
G01*
Y147837D02*
G03*
X-112379Y148263I-4690J-2999D01*
G01*
Y148263D02*
G03*
X-112762Y148723I-7526J-5872D01*
G01*
D02*
G03*
X-113427Y149248I-2166J-2062D01*
G01*
Y149248D02*
G03*
X-113866Y149497I-4005J-6552D01*
G01*
X-113866D02*
G03*
X-114351Y149740I-6833J-13001D01*
G01*
X-115893Y150465D02*
G03*
X-115383Y150222I11607J23665D01*
G01*
X-116374Y150714D02*
G03*
X-115893Y150465I5945J10904D01*
G01*
X-116807Y150971D02*
G03*
X-116374Y150714I3692J5734D01*
G01*
X-117174Y151239D02*
G03*
X-116807Y150971I2415J2925D01*
G01*
X-118801Y152837D02*
G03*
X-117174Y151239I11385J9957D01*
G01*
X-119535Y153727D02*
G03*
X-118801Y152837I14782J11459D01*
G01*
X-120222Y154663D02*
G03*
X-119535Y153727I17995J12481D01*
G01*
X-120866Y155638D02*
G03*
X-120222Y154663I21970J13818D01*
G01*
X-121471Y156640D02*
G03*
X-120866Y155638I27018J15612D01*
G01*
X-122041Y157662D02*
G03*
X-121471Y156640I33727J18140D01*
G01*
X-122579Y158692D02*
G03*
X-122041Y157662I43347J21995D01*
G01*
X-123091Y159722D02*
G03*
X-122579Y158692I59053J28675D01*
G01*
X-126893Y169272D02*
G03*
X-123579Y160743I71857J23014D01*
G01*
X-128205Y173712D02*
G03*
X-126893Y169272I90130J24207D01*
G01*
X-129317Y178236D02*
G03*
X-128205Y173712I106287J23728D01*
G01*
X-130253Y182819D02*
G03*
X-129317Y178236I126392J23428D01*
G01*
X-131037Y187438D02*
G03*
X-130253Y182819I152236J23459D01*
G01*
X-131692Y192068D02*
G03*
X-131037Y187438I187237J24127D01*
G01*
X-132241Y196684D02*
G03*
X-131692Y192068I238721J26078D01*
G01*
X-134042Y215501D02*
G03*
X-133731Y212002I199613J15982D01*
G01*
X-134279Y219145D02*
G03*
X-134042Y215501I121450J6065D01*
G01*
X-134383Y222847D02*
G03*
X-134279Y219145I84860J544D01*
G01*
X-134298Y226523D02*
G03*
X-134383Y222847I61135J-3265D01*
G01*
X-133964Y230086D02*
G03*
X-134298Y226523I43716J-5895D01*
G01*
X-133323Y233453D02*
G03*
X-133964Y230086I30472J-7541D01*
G01*
X-132318Y236537D02*
G03*
X-133323Y233453I20527J-8394D01*
G01*
X-130891Y239252D02*
G03*
X-132318Y236537I13353J-8750D01*
G01*
X-127884Y241927D02*
G03*
X-130891Y239252I2981J-6379D01*
G01*
X-124431Y242322D02*
G03*
X-127884Y241927I-1068J-5954D01*
G01*
X-122678Y241822D02*
G03*
X-124431Y242322I-3121J-7618D01*
G01*
X-120983Y240941D02*
G03*
X-122678Y241822I-5651J-8802D01*
G01*
X-119401Y239742D02*
G03*
X-120983Y240941I-8355J-9377D01*
G01*
X-115903Y234867D02*
G03*
X-119401Y239742I-12433J-5230D01*
G01*
X-116059Y237345D02*
G03*
X-115779Y236232I7387J1264D01*
G01*
X-116210Y238593D02*
G03*
X-116059Y237345I12433J878D01*
G01*
X-116262Y239931D02*
G03*
X-116210Y238593I20340J117D01*
G01*
X-116242Y241316D02*
G03*
X-116262Y239931I33820J-1171D01*
G01*
X-116180Y242706D02*
G03*
X-116242Y241316I65697J-3650D01*
G01*
X-116103Y244056D02*
G03*
X-116040Y245325I-69766J4094D01*
G01*
D02*
G03*
X-116020Y246468I-24131J1003D01*
G01*
X7921Y421420D02*
X9985D01*
X-21931Y419597D02*
Y420296D01*
X120793Y236056D02*
Y246217D01*
X-115779Y235167D02*
Y236232D01*
X137196Y263681D02*
X138489Y267062D01*
X-35423Y414165D02*
X-32114Y415535D01*
X-38716Y412742D02*
X-35423Y414165D01*
X-41994Y411282D02*
X-38716Y412742D01*
X-45257Y409800D02*
X-41994Y411282D01*
X-48505Y408310D02*
X-45257Y409800D01*
X-51736Y406828D02*
X-48505Y408310D01*
X-54953Y405369D02*
X-51736Y406828D01*
X-65225Y400659D02*
X-54953Y405369D01*
X-70331Y398238D02*
X-65225Y400659D01*
X-105196Y379653D02*
X-100330Y382514D01*
X-147067Y320280D02*
X-147042Y316197D01*
X-147042Y312106D02*
X-147042Y316197D01*
X-147033Y308012D02*
X-146979Y303922D01*
X-136286Y270484D02*
X-135052Y269681D01*
X-133838Y268889D01*
X-128901Y261884D02*
X-128712Y260843D01*
X-128529Y259791D01*
X143083Y203779D02*
X143315Y207302D01*
X142816Y200307D02*
X143083Y203779D01*
X142537Y196905D02*
X142816Y200307D01*
X108553Y149644D02*
X110038Y148678D01*
X62351Y27881D02*
X67458Y31655D01*
X52389Y20573D02*
X62351Y27881D01*
X-109512Y108168D02*
X-109095Y102031D01*
X-109917Y114300D02*
X-109512Y108168D01*
X-111391Y144727D02*
X-111340Y142937D01*
X-114863Y149981D02*
X-114351Y149740D01*
X-115383Y150222D02*
X-114863Y149981D01*
X-123579Y160743D02*
X-123091Y159722D01*
X-132709Y201262D02*
X-132241Y196684D01*
X-133118Y205777D02*
X-132709Y201262D01*
X-133731Y212002D02*
X-133118Y205777D01*
X-116180Y242706D02*
X-116103Y244056D01*
D11*
X-21279Y424007D02*
G03*
X-21931Y420296I7362J-3207D01*
G01*
X-19146Y426885D02*
G03*
X-21279Y424007I5567J-6357D01*
G01*
X-15916Y428916D02*
G03*
X-19146Y426885I4789J-11197D01*
G01*
X-7709Y430394D02*
G03*
X-15916Y428916I-768J-19255D01*
G01*
X-3501Y429820D02*
G03*
X-7709Y430394I-4775J-19267D01*
G01*
X264Y428354D02*
G03*
X-3501Y429820I-7411J-13464D01*
G01*
X4938Y422655D02*
G03*
X264Y428354I-8630J-2312D01*
G01*
X-22103Y419182D02*
G03*
X-21931Y419597I-415J415D01*
G01*
X4938Y422655D02*
G03*
X7921Y421420I2983J2983D01*
G01*
X124020Y176870D02*
G03*
X127953Y214184I-52447J24392D01*
G01*
X-120079D02*
G03*
X-116146Y176870I56380J-12923D01*
G01*
X120916Y246516D02*
G03*
X128159Y249360I-2895J18017D01*
G01*
D02*
G03*
X132808Y254212I-9920J14159D01*
G01*
D02*
G03*
X134486Y257166I-23157J15102D01*
G01*
X134486D02*
G03*
X135905Y260353I-43285J21190D01*
G01*
D02*
G03*
X137196Y263681I-125866J50741D01*
G01*
X139915Y270405D02*
G03*
X138489Y267062I56119J-25901D01*
G01*
X141602Y273620D02*
G03*
X139915Y270405I30697J-18160D01*
G01*
X141602Y273620D02*
G03*
X149366Y315092I-52539J31299D01*
G01*
X149366D02*
G03*
X145827Y328974I-75451J-11845D01*
G01*
X145827Y328974D02*
G03*
X139767Y342309I-82811J-29587D01*
G01*
Y342309D02*
G03*
X127177Y360796I-112363J-62993D01*
G01*
X127177Y360796D02*
G03*
X117156Y371934I-117577J-95713D01*
G01*
D02*
G03*
X106123Y382116I-122641J-121804D01*
G01*
D02*
G03*
X94330Y391339I-125918J-148862D01*
G01*
X94330Y391339D02*
G03*
X88225Y395590I-123558J-170956D01*
G01*
D02*
G03*
X43594Y415409I-77680J-114764D01*
G01*
X43594Y415409D02*
G03*
X37493Y416858I-46996J-184318D01*
G01*
X37493Y416858D02*
G03*
X31185Y418151I-47890J-217564D01*
G01*
D02*
G03*
X20808Y419992I-67172J-348460D01*
G01*
X20808D02*
G03*
X15433Y420783I-33210J-207101D01*
G01*
D02*
G03*
X9985Y421420I-21683J-161898D01*
G01*
X-22103Y419182D02*
G03*
X-28792Y416838I39729J-124062D01*
G01*
D02*
G03*
X-32114Y415535I60441J-159018D01*
G01*
X-70331Y398238D02*
G03*
X-80463Y393243I226237J-471658D01*
G01*
Y393243D02*
G03*
X-90471Y388013I201132J-397094D01*
G01*
X-90471D02*
G03*
X-100330Y382514I183691J-340920D01*
G01*
X-105196Y379653D02*
G03*
X-113312Y374705I236951J-397826D01*
G01*
Y374705D02*
G03*
X-117398Y372088I123983J-198009D01*
G01*
Y372088D02*
G03*
X-121444Y369354I95944J-146385D01*
G01*
Y369354D02*
G03*
X-125409Y366489I79036J-113555D01*
G01*
X-125409D02*
G03*
X-129250Y363477I67645J-90220D01*
G01*
D02*
G03*
X-132924Y360303I59440J-72520D01*
G01*
Y360303D02*
G03*
X-136389Y356952I53303J-58572D01*
G01*
D02*
G03*
X-139601Y353408I48662J-47339D01*
G01*
X-139601D02*
G03*
X-142519Y349655I45225J-38180D01*
G01*
D02*
G03*
X-145023Y345526I24115J-17447D01*
G01*
X-145023Y345526D02*
G03*
X-145897Y343534I21074J-10428D01*
G01*
X-145897D02*
G03*
X-147310Y337519I21903J-8320D01*
G01*
X-147310Y337519D02*
G03*
X-147464Y335410I33018J-3466D01*
G01*
X-147464D02*
G03*
X-147501Y333205I46194J-1889D01*
G01*
X-147501Y333205D02*
G03*
X-147448Y330874I72707J491D01*
G01*
X-147448Y330874D02*
G03*
X-147330Y328392I138839J5369D01*
G01*
X-147067Y320280D02*
G03*
X-147330Y328392I-173867J-1575D01*
G01*
X-147042Y312106D02*
G03*
X-147033Y308012I624323J-603D01*
G01*
X-146979Y303922D02*
G03*
X-146847Y299842I172911J3564D01*
G01*
D02*
G03*
X-146601Y295779I125907J5569D01*
G01*
D02*
G03*
X-146208Y291739I98475J7547D01*
G01*
X-146208Y291739D02*
G03*
X-145632Y287729I80618J9525D01*
G01*
X-145632D02*
G03*
X-145070Y284850I52848J8831D01*
G01*
X-145070Y284850D02*
G03*
X-144723Y283423I41945J9442D01*
G01*
D02*
G03*
X-144325Y282012I36467J9527D01*
G01*
X-144325Y282012D02*
G03*
X-143870Y280621I31939J9686D01*
G01*
X-143870Y280621D02*
G03*
X-143352Y279257I28143J9900D01*
G01*
X-143352D02*
G03*
X-142766Y277924I24935J10168D01*
G01*
D02*
G03*
X-141365Y275372I21339J10047D01*
G01*
Y275372D02*
G03*
X-140540Y274163I17965J11384D01*
G01*
X-140540Y274163D02*
G03*
X-138638Y272197I8877J6681D01*
G01*
Y272196D02*
G03*
X-137496Y271317I13397J16219D01*
G01*
D02*
G03*
X-136286Y270484I21967J30626D01*
G01*
X-132689Y268092D02*
G03*
X-133838Y268889I-18856J-25958D01*
G01*
X-131649Y267273D02*
G03*
X-132689Y268092I-10781J-12612D01*
G01*
X-130762Y266413D02*
G03*
X-131649Y267273I-7195J-6537D01*
G01*
X-130073Y265497D02*
G03*
X-130762Y266413I-5213J-3202D01*
G01*
X-129367Y263847D02*
G03*
X-130073Y265497I-6985J-2012D01*
G01*
X-129113Y262893D02*
G03*
X-129367Y263847I-14317J-3307D01*
G01*
X-128901Y261884D02*
G03*
X-129113Y262893I-25401J-4823D01*
G01*
X-128529Y259791D02*
G03*
X-128333Y258752I43134J7583D01*
G01*
D02*
G03*
X-128107Y257747I21311J4273D01*
G01*
X-128107D02*
G03*
X-127831Y256799I12668J3164D01*
G01*
Y256799D02*
G03*
X-127489Y255931I7951J2631D01*
G01*
D02*
G03*
X-125987Y253181I21258J9830D01*
G01*
Y253181D02*
G03*
X-125100Y251908I16521J10563D01*
G01*
X-125100D02*
G03*
X-124120Y250726I13812J10455D01*
G01*
Y250726D02*
G03*
X-123043Y249651I11381J10321D01*
G01*
X-123043D02*
G03*
X-121868Y248699I9251J10232D01*
G01*
D02*
G03*
X-119209Y247236I7212J9952D01*
G01*
X-119209Y247236D02*
G03*
X-116123Y246468I4415J11162D01*
G01*
X125827Y238622D02*
G03*
X120793Y236056I12475J-30698D01*
G01*
X128424Y239504D02*
G03*
X125827Y238622I6596J-23675D01*
G01*
X130987Y240029D02*
G03*
X128424Y239504I2418J-18342D01*
G01*
X133452Y240128D02*
G03*
X130987Y240029I-694J-13429D01*
G01*
X135756Y239734D02*
G03*
X133452Y240128I-2812J-9513D01*
G01*
X137832Y238779D02*
G03*
X135756Y239734I-4386J-6802D01*
G01*
X139617Y237196D02*
G03*
X137832Y238779I-6180J-5169D01*
G01*
X141047Y234916D02*
G03*
X139617Y237196I-9225J-4194D01*
G01*
X142055Y231871D02*
G03*
X141047Y234916I-14774J-3207D01*
G01*
X143155Y225053D02*
G03*
X142055Y231871I-58500J-5938D01*
G01*
X143438Y221547D02*
G03*
X143155Y225053I-75922J-4358D01*
G01*
X143573Y218000D02*
G03*
X143438Y221547I-91411J-1697D01*
G01*
X143582Y214432D02*
G03*
X143573Y218000I-111523J1493D01*
G01*
X143488Y210860D02*
G03*
X143582Y214432I-139115J5431D01*
G01*
X143315Y207302D02*
G03*
X143488Y210860I-180521J10607D01*
G01*
X141881Y189653D02*
G03*
X142537Y196905I-362447J36400D01*
G01*
X141465Y185946D02*
G03*
X141881Y189653I-182671J22402D01*
G01*
X140957Y182222D02*
G03*
X141465Y185946I-136468J20519D01*
G01*
X140332Y178506D02*
G03*
X140957Y182222I-107189J19923D01*
G01*
X139567Y174825D02*
G03*
X140332Y178506I-86395J19876D01*
G01*
X138637Y171206D02*
G03*
X139567Y174825I-70599J20071D01*
G01*
X137518Y167675D02*
G03*
X138637Y171206I-58119J20369D01*
G01*
X136184Y164259D02*
G03*
X137518Y167675I-48048J20720D01*
G01*
X134613Y160983D02*
G03*
X136184Y164259I-39849J21136D01*
G01*
X132675Y157914D02*
G03*
X134613Y160983I-20164J14878D01*
G01*
X131543Y156470D02*
G03*
X132675Y157914I-22696J18955D01*
G01*
X130321Y155086D02*
G03*
X131543Y156470I-24242J22649D01*
G01*
X129021Y153763D02*
G03*
X130321Y155086I-25920J26751D01*
G01*
X127658Y152500D02*
G03*
X129021Y153763I-27709J31265D01*
G01*
X126245Y151297D02*
G03*
X127658Y152500I-29596J36189D01*
G01*
X124795Y150153D02*
G03*
X126245Y151296I-31574J41522D01*
G01*
X121837Y148043D02*
G03*
X124795Y150153I-33972J50751D01*
G01*
X118876Y146493D02*
G03*
X121837Y148043I-4674J12535D01*
G01*
X117562Y146151D02*
G03*
X118876Y146493I-1284J7625D01*
G01*
X113910Y146574D02*
G03*
X117562Y146151I2585J6351D01*
G01*
X112685Y147120D02*
G03*
X113910Y146574I5699J11140D01*
G01*
X111405Y147829D02*
G03*
X112685Y147120I11201J18708D01*
G01*
X110038Y148678D02*
G03*
X111405Y147829I25549J39599D01*
G01*
X108655Y118357D02*
G03*
X108553Y149644I-239327J14865D01*
G01*
X107039Y102648D02*
G03*
X108655Y118357I-200264J28536D01*
G01*
X104132Y87214D02*
G03*
X107039Y102648I-170507J40109D01*
G01*
X99798Y72297D02*
G03*
X104132Y87214I-141474J49189D01*
G01*
X91783Y55847D02*
G03*
X99798Y72297I-62049J40409D01*
G01*
X84891Y46991D02*
G03*
X91783Y55847I-52867J48253D01*
G01*
X80986Y42972D02*
G03*
X84891Y46991I-59740J61952D01*
G01*
X76777Y39126D02*
G03*
X80986Y42972I-69933J80751D01*
G01*
X72267Y35379D02*
G03*
X76777Y39126I-89617J112442D01*
G01*
X67458Y31655D02*
G03*
X72267Y35379I-129119J171747D01*
G01*
X47306Y16944D02*
G03*
X52389Y20573I-184156J263335D01*
G01*
X42127Y13446D02*
G03*
X47306Y16944I-104860J160840D01*
G01*
X36831Y10165D02*
G03*
X42127Y13446I-68489J116445D01*
G01*
X31398Y7186D02*
G03*
X36831Y10165I-46703J91612D01*
G01*
X25807Y4594D02*
G03*
X31398Y7186I-31807J75949D01*
G01*
X20036Y2475D02*
G03*
X25807Y4594I-20796J65564D01*
G01*
X14065Y915D02*
G03*
X20036Y2475I-12160J58751D01*
G01*
X7874Y0D02*
G03*
X14065Y916I-4929J54724D01*
G01*
X-9534Y742D02*
G03*
X7874Y0I11568J66842D01*
G01*
X-20721Y3464D02*
G03*
X-9534Y742I25310J79671D01*
G01*
X-26182Y5362D02*
G03*
X-20721Y3464I35629J93689D01*
G01*
X-31554Y7561D02*
G03*
X-26182Y5362I46316J105474D01*
G01*
X-36832Y10017D02*
G03*
X-31554Y7561I59246J120453D01*
G01*
X-42017Y12686D02*
G03*
X-36832Y10017I75318J139928D01*
G01*
X-47104Y15525D02*
G03*
X-42017Y12686I96123J166299D01*
G01*
X-63120Y25721D02*
G03*
X-47104Y15525I122836J175261D01*
G01*
X-73318Y33440D02*
G03*
X-63120Y25721I112595J138165D01*
G01*
X-82868Y41913D02*
G03*
X-73318Y33440I105372J109149D01*
G01*
X-91545Y51156D02*
G03*
X-82868Y41913I97916J83223D01*
G01*
X-95485Y56071D02*
G03*
X-91545Y51156I90701J68675D01*
G01*
X-103962Y72231D02*
G03*
X-95485Y56071I54262J18159D01*
G01*
X-105669Y77979D02*
G03*
X-103962Y72231I71691J18163D01*
G01*
X-106953Y83861D02*
G03*
X-105669Y77979I89583J16485D01*
G01*
X-107898Y89849D02*
G03*
X-106953Y83861I117631J15486D01*
G01*
X-108584Y95915D02*
G03*
X-107898Y89849I166548J15777D01*
G01*
X-109095Y102031D02*
G03*
X-108584Y95915I273515J19756D01*
G01*
X-111340Y142937D02*
G03*
X-109917Y114300I686176J19733D01*
G01*
X-111391Y144727D02*
G03*
X-111424Y145424I-25703J-864D01*
G01*
Y145424D02*
G03*
X-111475Y146020I-11232J-675D01*
G01*
Y146020D02*
G03*
X-111556Y146536I-6105J-692D01*
G01*
Y146536D02*
G03*
X-111677Y146996I-4050J-815D01*
G01*
D02*
G03*
X-112078Y147837I-3487J-1148D01*
G01*
Y147837D02*
G03*
X-112379Y148263I-4690J-2999D01*
G01*
Y148263D02*
G03*
X-112762Y148723I-7526J-5872D01*
G01*
D02*
G03*
X-113427Y149248I-2166J-2062D01*
G01*
Y149248D02*
G03*
X-113866Y149497I-4005J-6552D01*
G01*
X-113866D02*
G03*
X-114351Y149740I-6833J-13001D01*
G01*
X-115893Y150465D02*
G03*
X-115383Y150222I11607J23665D01*
G01*
X-116374Y150714D02*
G03*
X-115893Y150465I5945J10904D01*
G01*
X-116807Y150971D02*
G03*
X-116374Y150714I3692J5734D01*
G01*
X-117174Y151239D02*
G03*
X-116807Y150971I2415J2925D01*
G01*
X-118801Y152837D02*
G03*
X-117174Y151239I11385J9957D01*
G01*
X-119535Y153727D02*
G03*
X-118801Y152837I14782J11459D01*
G01*
X-120222Y154663D02*
G03*
X-119535Y153727I17995J12481D01*
G01*
X-120866Y155638D02*
G03*
X-120222Y154663I21970J13818D01*
G01*
X-121471Y156640D02*
G03*
X-120866Y155638I27018J15612D01*
G01*
X-122041Y157662D02*
G03*
X-121471Y156640I33727J18140D01*
G01*
X-122579Y158692D02*
G03*
X-122041Y157662I43347J21995D01*
G01*
X-123091Y159722D02*
G03*
X-122579Y158692I59053J28675D01*
G01*
X-126893Y169272D02*
G03*
X-123579Y160743I71857J23014D01*
G01*
X-128205Y173712D02*
G03*
X-126893Y169272I90130J24207D01*
G01*
X-129317Y178236D02*
G03*
X-128205Y173712I106287J23728D01*
G01*
X-130253Y182819D02*
G03*
X-129317Y178236I126392J23428D01*
G01*
X-131037Y187438D02*
G03*
X-130253Y182819I152236J23459D01*
G01*
X-131692Y192068D02*
G03*
X-131037Y187438I187237J24127D01*
G01*
X-132241Y196684D02*
G03*
X-131692Y192068I238721J26078D01*
G01*
X-134042Y215501D02*
G03*
X-133731Y212002I199613J15982D01*
G01*
X-134279Y219145D02*
G03*
X-134042Y215501I121450J6065D01*
G01*
X-134383Y222847D02*
G03*
X-134279Y219145I84860J544D01*
G01*
X-134298Y226523D02*
G03*
X-134383Y222847I61135J-3265D01*
G01*
X-133964Y230086D02*
G03*
X-134298Y226523I43716J-5895D01*
G01*
X-133323Y233453D02*
G03*
X-133964Y230086I30472J-7541D01*
G01*
X-132318Y236537D02*
G03*
X-133323Y233453I20527J-8394D01*
G01*
X-130891Y239252D02*
G03*
X-132318Y236537I13353J-8750D01*
G01*
X-127884Y241927D02*
G03*
X-130891Y239252I2981J-6379D01*
G01*
X-124431Y242322D02*
G03*
X-127884Y241927I-1068J-5954D01*
G01*
X-122678Y241822D02*
G03*
X-124431Y242322I-3121J-7618D01*
G01*
X-120983Y240941D02*
G03*
X-122678Y241822I-5651J-8802D01*
G01*
X-119401Y239742D02*
G03*
X-120983Y240941I-8355J-9377D01*
G01*
X-115903Y234867D02*
G03*
X-119401Y239742I-12433J-5230D01*
G01*
X-96090Y308188D02*
G03*
X-100526Y302774I90605J-78765D01*
G01*
X-100526Y302774D02*
G03*
X-102615Y300008I119082J-92080D01*
G01*
Y300008D02*
G03*
X-104638Y297208I148722J-109617D01*
G01*
X-119781Y276986D02*
G03*
X-116267Y280012I-3819J7989D01*
G01*
X-121092Y276546D02*
G03*
X-119781Y276986I-1299J6042D01*
G01*
X-122353Y276459D02*
G03*
X-121092Y276546I332J4359D01*
G01*
X-123489Y276766D02*
G03*
X-122353Y276459I1378J2844D01*
G01*
X-125100Y278727D02*
G03*
X-123489Y276766I3132J930D01*
G01*
X-125430Y280464D02*
G03*
X-125100Y278727I6622J357D01*
G01*
X-125345Y282760D02*
G03*
X-125430Y280464I12186J-1597D01*
G01*
X-124835Y284309D02*
G03*
X-125345Y282760I4495J-2340D01*
G01*
X-124374Y285154D02*
G03*
X-124835Y284309I9752J-5860D01*
G01*
X-123820Y286022D02*
G03*
X-124374Y285154I15001J-10193D01*
G01*
X-123205Y286893D02*
G03*
X-123820Y286022I22790J-16757D01*
G01*
X-122559Y287751D02*
G03*
X-123205Y286893I36507J-28161D01*
G01*
X-121307Y289349D02*
G03*
X-120765Y290054I-35245J27681D01*
G01*
X-120765Y290054D02*
G03*
X-120322Y290670I-12551J9490D01*
G01*
X-107374Y307810D02*
G03*
X-120322Y290670I157848J-132700D01*
G01*
X-88398Y327378D02*
G03*
X-107374Y307810I119992J-135349D01*
G01*
X-78073Y335714D02*
G03*
X-88398Y327378I89743J-121720D01*
G01*
X-67205Y342943D02*
G03*
X-78073Y335714I69184J-115801D01*
G01*
X-43875Y353659D02*
G03*
X-67205Y342943I36762J-110784D01*
G01*
X8877Y357174D02*
G03*
X-43875Y353659I-19510J-104820D01*
G01*
X98182Y311036D02*
G03*
X8877Y357174I-120023J-122819D01*
G01*
X116483Y288600D02*
G03*
X98182Y311036I-116063J-75990D01*
G01*
X123645Y276081D02*
G03*
X116483Y288600I-111261J-55339D01*
G01*
X125790Y271930D02*
G03*
X124945Y273617I-51488J-24717D01*
G01*
X126619Y270077D02*
G03*
X125790Y271930I-34695J-14420D01*
G01*
X127326Y268161D02*
G03*
X126619Y270077I-23323J-7512D01*
G01*
X127801Y266286D02*
G03*
X127326Y268161I-14481J-2670D01*
G01*
X127936Y264555D02*
G03*
X127801Y266286I-7998J247D01*
G01*
X127622Y263071D02*
G03*
X127936Y264555I-3875J1593D01*
G01*
X125218Y261257D02*
G03*
X127622Y263071I-460J3110D01*
G01*
X122317Y262414D02*
G03*
X125218Y261257I2717J2598D01*
G01*
X120637Y264013D02*
G03*
X122317Y262414I12337J11275D01*
G01*
X118886Y266069D02*
G03*
X120637Y264013I27183J21373D01*
G01*
X117125Y268414D02*
G03*
X118886Y266069I50177J35844D01*
G01*
X115415Y270881D02*
G03*
X117125Y268414I84777J56953D01*
G01*
X111201Y277329D02*
G03*
X110306Y278603I-20327J-13350D01*
G01*
X110306Y278603D02*
G03*
X93675Y298105I-209927J-162179D01*
G01*
X93675Y298105D02*
G03*
X79934Y311562I-170931J-160791D01*
G01*
D02*
G03*
X65100Y323767I-141333J-156656D01*
G01*
X65100D02*
G03*
X42756Y337963I-101051J-134369D01*
G01*
X42756D02*
G03*
X26651Y345202I-64938J-122939D01*
G01*
X26651Y345202D02*
G03*
X9782Y350138I-41572J-110769D01*
G01*
X9782D02*
G03*
X-7676Y352325I-21467J-100638D01*
G01*
Y352325D02*
G03*
X-16571Y352246I-3604J-95692D01*
G01*
X-16571Y352246D02*
G03*
X-43903Y346356I5327J-91076D01*
G01*
X-43903D02*
G03*
X-60605Y338289I38661J-101375D01*
G01*
X-60605D02*
G03*
X-75938Y327634I66194J-111618D01*
G01*
X-75938D02*
G03*
X-89771Y315010I96605J-119744D01*
G01*
D02*
G03*
X-96083Y308154I122469J-119078D01*
G01*
X-73844Y254364D02*
G03*
X-116020Y246468I20797J-227659D01*
G01*
X-67422Y254843D02*
G03*
X-73844Y254364I11088J-192057D01*
G01*
X-64192Y254992D02*
G03*
X-67422Y254843I5342J-150616D01*
G01*
X-60956Y255067D02*
G03*
X-64192Y254992I1412J-131093D01*
G01*
X-57719Y255057D02*
G03*
X-60956Y255067I-1992J-115547D01*
G01*
X-54486Y254950D02*
G03*
X-57719Y255057I-5007J-102828D01*
G01*
X-51262Y254736D02*
G03*
X-54486Y254950I-7724J-92217D01*
G01*
X-44862Y253946D02*
G03*
X-51262Y254736I-13011J-79018D01*
G01*
X-41696Y253347D02*
G03*
X-44862Y253946I-14696J-69026D01*
G01*
X-28453Y248536D02*
G03*
X-41696Y253347I-21416J-38322D01*
G01*
X-26671Y247242D02*
G03*
X-28453Y248536I-8795J-10233D01*
G01*
X-25796Y246472D02*
G03*
X-26671Y247242I-19297J-21055D01*
G01*
X-24928Y245661D02*
G03*
X-25796Y246472I-43292J-45498D01*
G01*
X-24065Y244842D02*
G03*
X-23205Y244044I36306J38259D01*
G01*
D02*
G03*
X-22347Y243300I16718J18409D01*
G01*
X-22347Y243300D02*
G03*
X-21488Y242640I9303J11222D01*
G01*
Y242640D02*
G03*
X-20626Y242096I5329J7486D01*
G01*
X-20626Y242096D02*
G03*
X-19760Y241699I2950J5293D01*
G01*
Y241699D02*
G03*
X-16627Y241054I4960J16177D01*
G01*
X-16627D02*
G03*
X-14444Y240815I6595J50072D01*
G01*
Y240815D02*
G03*
X-12017Y240642I6252J70666D01*
G01*
X-12017Y240642D02*
G03*
X-6926Y240529I4269J77845D01*
G01*
X-6926Y240529D02*
G03*
X-4511Y240606I-617J57217D01*
G01*
Y240606D02*
G03*
X-2350Y240783I-1875J36143D01*
G01*
D02*
G03*
X-567Y241069I-1948J17863D01*
G01*
X-567Y241069D02*
G03*
X713Y241472I-1234J6161D01*
G01*
Y241472D02*
G03*
X1597Y242136I-1743J3240D01*
G01*
D02*
G03*
X2060Y242617I-6599J6809D01*
G01*
Y242617D02*
G03*
X2530Y243163I-12657J11364D01*
G01*
X2530Y243163D02*
G03*
X3001Y243747I-25717J21214D01*
G01*
X4365Y245464D02*
G03*
X3924Y244924I18363J-15453D01*
G01*
X4786Y245937D02*
G03*
X4365Y245464I8119J-7644D01*
G01*
X5180Y246317D02*
G03*
X4786Y245937I3442J-3973D01*
G01*
X13153Y251519D02*
G03*
X5180Y246317I16841J-34524D01*
G01*
X17547Y253401D02*
G03*
X13153Y251519I15840J-43047D01*
G01*
X22139Y254858D02*
G03*
X17547Y253401I13742J-51277D01*
G01*
X26877Y255931D02*
G03*
X22139Y254858I11322J-60976D01*
G01*
X31705Y256661D02*
G03*
X26877Y255931I8434J-72110D01*
G01*
X36570Y257089D02*
G03*
X31705Y256661I4990J-84610D01*
G01*
X41418Y257256D02*
G03*
X36570Y257089I956J-98406D01*
G01*
X46195Y257202D02*
G03*
X41418Y257256I-3665J-113487D01*
G01*
X50846Y256969D02*
G03*
X46195Y257202I-8850J-130032D01*
G01*
X75436Y253168D02*
G03*
X50846Y256969I-36387J-153980D01*
G01*
X79408Y252113D02*
G03*
X75436Y253168I-19677J-66052D01*
G01*
X85418Y250290D02*
G03*
X87429Y249720I26339J89056D01*
G01*
D02*
G03*
X89441Y249210I15772J58096D01*
G01*
X89441Y249210D02*
G03*
X91452Y248788I9989J42533D01*
G01*
X91452D02*
G03*
X93462Y248477I6164J33182D01*
G01*
D02*
G03*
X95468Y248303I3355J27042D01*
G01*
D02*
G03*
X100529Y248248I3299J71603D01*
G01*
X100529Y248248D02*
G03*
X103083Y248339I-2302J101028D01*
G01*
X103083D02*
G03*
X105648Y248487I-6520J135549D01*
G01*
X120978Y249677D02*
G03*
X118454Y249523I7340J-140480D01*
G01*
X115699Y236375D02*
G03*
X120793Y236036I7476J73736D01*
G01*
X110037Y236893D02*
G03*
X107141Y237077I-6929J-86414D01*
G01*
Y237077D02*
G03*
X104281Y237134I-2499J-53312D01*
G01*
X104281Y237134D02*
G03*
X101518Y237008I221J-35275D01*
G01*
X101518D02*
G03*
X98909Y236643I1997J-23728D01*
G01*
X98909D02*
G03*
X96516Y235980I3141J-16003D01*
G01*
X96516Y235980D02*
G03*
X94396Y234964I3946J-10947D01*
G01*
X94396Y234964D02*
G03*
X91384Y231685I4737J-7376D01*
G01*
X91384D02*
G03*
X90386Y229486I13368J-7387D01*
G01*
X90386D02*
G03*
X89639Y227030I23071J-8364D01*
G01*
X89639Y227030D02*
G03*
X89074Y224404I40787J-10156D01*
G01*
D02*
G03*
X88623Y221695I85960J-15694D01*
G01*
X87795Y216374D02*
G03*
X88219Y218989I-92448J16327D01*
G01*
X87284Y213936D02*
G03*
X87795Y216374I-36686J8973D01*
G01*
X86617Y211763D02*
G03*
X87284Y213936I-17875J6674D01*
G01*
X83985Y206020D02*
G03*
X86617Y211763I-37973J20878D01*
G01*
X82420Y203492D02*
G03*
X83985Y206020I-25805J17723D01*
G01*
X80667Y201220D02*
G03*
X82420Y203492I-19584J16927D01*
G01*
X78708Y199224D02*
G03*
X80667Y201220I-14817J16501D01*
G01*
X68478Y194402D02*
G03*
X78708Y199224I-2944J19507D01*
G01*
X65237Y194087D02*
G03*
X68478Y194402I-852J25629D01*
G01*
X58435Y193925D02*
G03*
X65237Y194087I-4217J318595D01*
G01*
X31082Y193957D02*
G03*
X28278Y193918I705J-150767D01*
G01*
X25607Y193914D02*
G03*
X26928Y193901I1083J42556D01*
G01*
X24306Y193978D02*
G03*
X25607Y193914I1985J26835D01*
G01*
X23022Y194115D02*
G03*
X24306Y193978I2745J19590D01*
G01*
X21748Y194347D02*
G03*
X23022Y194115I3508J15690D01*
G01*
X17928Y195819D02*
G03*
X21748Y194347I6804J11964D01*
G01*
X15147Y197747D02*
G03*
X17928Y195819I12426J14951D01*
G01*
X13874Y198881D02*
G03*
X15147Y197747I16182J16895D01*
G01*
X12674Y200106D02*
G03*
X13874Y198881I19798J18193D01*
G01*
X11543Y201407D02*
G03*
X12674Y200106I24073J19784D01*
G01*
X10478Y202768D02*
G03*
X11543Y201407I29152J21724D01*
G01*
X9475Y204172D02*
G03*
X10478Y202768I35264J24130D01*
G01*
X8530Y205603D02*
G03*
X9475Y204172I42825J27228D01*
G01*
X7641Y207046D02*
G03*
X8530Y205603I52652J31470D01*
G01*
X6802Y208485D02*
G03*
X7641Y207046I66571J37851D01*
G01*
X4837Y212915D02*
G03*
X6802Y208485I27959J9752D01*
G01*
X3985Y215360D02*
G03*
X4837Y212915I97619J32642D01*
G01*
X3140Y217859D02*
G03*
X2242Y220339I-67538J-23053D01*
G01*
X2242D02*
G03*
X1231Y222724I-34273J-13117D01*
G01*
D02*
G03*
X48Y224940I-20761J-9663D01*
G01*
X48D02*
G03*
X-1369Y226914I-13413J-8132D01*
G01*
X-1369D02*
G03*
X-3079Y228571I-9067J-7647D01*
G01*
D02*
G03*
X-5142Y229837I-6429J-8166D01*
G01*
X-5142D02*
G03*
X-12305Y230922I-5050J-9151D01*
G01*
X-12305D02*
G03*
X-14833Y229597I1823J-6556D01*
G01*
X-14833D02*
G03*
X-16800Y227348I6333J-7522D01*
G01*
D02*
G03*
X-18311Y224413I14900J-9528D01*
G01*
X-18311D02*
G03*
X-19472Y221032I30614J-12404D01*
G01*
X-19472D02*
G03*
X-20389Y217446I63671J-18182D01*
G01*
X-21911Y210613D02*
G03*
X-21167Y213893I-103416J25203D01*
G01*
X-22728Y207846D02*
G03*
X-21911Y210613I-26176J9234D01*
G01*
X-23909Y204740D02*
G03*
X-22728Y207846I-95398J38043D01*
G01*
X-24587Y203130D02*
G03*
X-23909Y204740I-49161J21633D01*
G01*
X-25336Y201522D02*
G03*
X-24587Y203130I-36113J17824D01*
G01*
X-26168Y199951D02*
G03*
X-25336Y201522I-27208J15406D01*
G01*
X-27092Y198447D02*
G03*
X-26168Y199951I-20517J13640D01*
G01*
X-28119Y197041D02*
G03*
X-27092Y198447I-15288J12246D01*
G01*
X-29258Y195767D02*
G03*
X-28119Y197041I-11162J11125D01*
G01*
X-30521Y194655D02*
G03*
X-29258Y195767I-7922J10266D01*
G01*
X-31917Y193737D02*
G03*
X-30521Y194655I-5389J9715D01*
G01*
X-35826Y192286D02*
G03*
X-31916Y193737I-3375J15084D01*
G01*
X-38006Y191878D02*
G03*
X-35826Y192286I-3414J24290D01*
G01*
X-40285Y191634D02*
G03*
X-38006Y191878I-2482J34016D01*
G01*
X-42622Y191520D02*
G03*
X-40285Y191634I-1217J48620D01*
G01*
X-44978Y191498D02*
G03*
X-42622Y191520I494J73913D01*
G01*
X-51771Y191633D02*
G03*
X-53812Y191627I-824J-61194D01*
G01*
X-67223Y191350D02*
G03*
X-63780Y191371I711J169842D01*
G01*
X-70681Y191416D02*
G03*
X-67223Y191350I3946J117689D01*
G01*
X-74124Y191598D02*
G03*
X-70681Y191416I6394J88012D01*
G01*
X-77526Y191930D02*
G03*
X-74124Y191598I8376J68221D01*
G01*
X-80858Y192444D02*
G03*
X-77526Y191930I10000J53836D01*
G01*
X-84094Y193170D02*
G03*
X-80858Y192444I11332J42889D01*
G01*
X-87204Y194142D02*
G03*
X-84094Y193170I12448J34378D01*
G01*
X-97122Y202330D02*
G03*
X-87204Y194142I16375J9735D01*
G01*
X-98646Y205150D02*
G03*
X-97122Y202330I24880J11629D01*
G01*
X-99891Y208164D02*
G03*
X-98646Y205150I33600J12114D01*
G01*
X-100908Y211315D02*
G03*
X-99891Y208164I46629J13305D01*
G01*
X-101747Y214545D02*
G03*
X-100908Y211315I68052J15961D01*
G01*
X-102461Y217797D02*
G03*
X-101747Y214545I112541J22989D01*
G01*
X-103400Y223301D02*
G03*
X-103100Y221013I24615J2064D01*
G01*
X-103637Y225939D02*
G03*
X-103784Y227274I-45730J-4358D01*
G01*
D02*
G03*
X-103978Y228560I-24754J-3079D01*
G01*
D02*
G03*
X-104239Y229749I-14299J-2526D01*
G01*
X-104239Y229749D02*
G03*
X-104590Y230797I-8061J-2117D01*
G01*
Y230797D02*
G03*
X-105051Y231657I-4300J-1750D01*
G01*
D02*
G03*
X-105642Y232283I-2220J-1503D01*
G01*
Y232283D02*
G03*
X-107225Y232983I-2554J-3639D01*
G01*
X-107225Y232983D02*
G03*
X-108162Y233166I-2326J-9392D01*
G01*
X-108162Y233166D02*
G03*
X-109159Y233285I-2788J-19099D01*
G01*
X-111209Y233468D02*
G03*
X-110184Y233374I4688J45696D01*
G01*
X-112205Y233601D02*
G03*
X-111209Y233468I2656J16133D01*
G01*
X-113142Y233807D02*
G03*
X-112205Y233601I2358J8475D01*
G01*
X-113990Y234121D02*
G03*
X-113142Y233807I2274J4833D01*
G01*
X-114721Y234579D02*
G03*
X-113990Y234121I2272J2817D01*
G01*
X-115779Y236232D02*
G03*
X-114721Y234579I3418J1023D01*
G01*
X-116059Y237345D02*
G03*
X-115779Y236232I7387J1264D01*
G01*
X-116210Y238593D02*
G03*
X-116059Y237345I12433J878D01*
G01*
X-116262Y239931D02*
G03*
X-116210Y238593I20340J117D01*
G01*
X-116242Y241316D02*
G03*
X-116262Y239931I33820J-1171D01*
G01*
X-116180Y242706D02*
G03*
X-116242Y241316I65697J-3650D01*
G01*
X-116103Y244056D02*
G03*
X-116040Y245325I-69766J4094D01*
G01*
D02*
G03*
X-116020Y246468I-24131J1003D01*
G01*
X-57839Y151850D02*
G03*
X-76635Y122911I62446J-61132D01*
G01*
X-51587Y157463D02*
G03*
X-57839Y151850I41941J-53012D01*
G01*
X-47036Y160721D02*
G03*
X-51587Y157463I32216J-49808D01*
G01*
X-42188Y163508D02*
G03*
X-47036Y160721I24236J-47752D01*
G01*
X-34377Y166653D02*
G03*
X-42188Y163508I13960J-45950D01*
G01*
X-29930Y167660D02*
G03*
X-34377Y166653I4367J-29621D01*
G01*
X-24013Y167791D02*
G03*
X-29930Y167660I-2413J-24554D01*
G01*
X-22100Y167551D02*
G03*
X-24013Y167791I-4968J-31771D01*
G01*
X-20157Y167202D02*
G03*
X-22100Y167551I-8836J-43692D01*
G01*
X-18149Y166767D02*
G03*
X-20157Y167202I-16625J-71850D01*
G01*
X-13794Y165718D02*
G03*
X-6520Y165043I6048J25630D01*
G01*
Y165043D02*
G03*
X-2966Y165344I-1645J40523D01*
G01*
D02*
G03*
X557Y165888I-9288J71813D01*
G01*
X7583Y167156D02*
G03*
X4067Y166538I19977J-123988D01*
G01*
X11123Y167605D02*
G03*
X7583Y167156I4901J-52842D01*
G01*
X14706Y167747D02*
G03*
X11123Y167605I-437J-34141D01*
G01*
X18349Y167446D02*
G03*
X14706Y167747I-4001J-26205D01*
G01*
X22072Y166564D02*
G03*
X18349Y167446I-7369J-22802D01*
G01*
X32678Y161646D02*
G03*
X22072Y166564I-26155J-42516D01*
G01*
X37594Y158297D02*
G03*
X32678Y161646I-35989J-47543D01*
G01*
X42224Y154455D02*
G03*
X37594Y158297I-45114J-49652D01*
G01*
X50540Y145594D02*
G03*
X42224Y154455I-60915J-48837D01*
G01*
X62804Y125282D02*
G03*
X50540Y145594I-81973J-35635D01*
G01*
X-58169Y128319D02*
G03*
X-61625Y120845I19766J-13678D01*
G01*
D02*
G03*
X-62170Y117249I17499J-4489D01*
G01*
X-62170Y117249D02*
G03*
X-57216Y104833I16184J-739D01*
G01*
X-57216D02*
G03*
X-54358Y102442I15030J15063D01*
G01*
D02*
G03*
X-50917Y100424I14524J20825D01*
G01*
D02*
G03*
X-46926Y98824I13326J27452D01*
G01*
X-44117Y97903D02*
G03*
X-42700Y97473I14982J46864D01*
G01*
X-42700Y97473D02*
G03*
X-41295Y97108I7922J27594D01*
G01*
X-41295D02*
G03*
X-39919Y96841I4242J18162D01*
G01*
D02*
G03*
X-38589Y96705I1950J12488D01*
G01*
Y96705D02*
G03*
X-37321Y96733I438J8822D01*
G01*
Y96733D02*
G03*
X-36130Y96959I-611J6470D01*
G01*
D02*
G03*
X-35033Y97416I-1472J5079D01*
G01*
D02*
G03*
X-34047Y98136I-2465J4408D01*
G01*
X-34047Y98136D02*
G03*
X-32377Y100062I-9219J9686D01*
G01*
D02*
G03*
X-31639Y101138I-20186J14621D01*
G01*
Y101138D02*
G03*
X-30932Y102261I-43813J28369D01*
G01*
X-29508Y104554D02*
G03*
X-30932Y102261I90831J-57984D01*
G01*
X-28740Y105680D02*
G03*
X-29508Y104554I22420J-16129D01*
G01*
X-27900Y106761D02*
G03*
X-28740Y105680I14250J-11938D01*
G01*
X-26963Y107775D02*
G03*
X-27900Y106761I9978J-10161D01*
G01*
X-25903Y108699D02*
G03*
X-26963Y107775I7334J-9478D01*
G01*
X-15157Y112928D02*
G03*
X-25903Y108699I2127J-21175D01*
G01*
X-7350Y112609D02*
G03*
X-15157Y112928I-4982J-26255D01*
G01*
X9503Y103119D02*
G03*
X-7350Y112609I-22196J-19705D01*
G01*
X11723Y100223D02*
G03*
X9503Y103119I-27223J-18570D01*
G01*
X12483Y99104D02*
G03*
X13144Y98189I13755J9246D01*
G01*
X13144Y98189D02*
G03*
X13806Y97469I4598J3558D01*
G01*
D02*
G03*
X14568Y96931I2535J2786D01*
G01*
Y96931D02*
G03*
X15531Y96566I2013J3852D01*
G01*
Y96566D02*
G03*
X16796Y96361I1876J7579D01*
G01*
X16796D02*
G03*
X18462Y96306I1401J17309D01*
G01*
X18462D02*
G03*
X20629Y96391I-546J41796D01*
G01*
Y96391D02*
G03*
X30665Y98685I-1731J30665D01*
G01*
Y98685D02*
G03*
X36480Y102023I-10171J24454D01*
G01*
X36480Y102023D02*
G03*
X41134Y106748I-13883J18332D01*
G01*
X41134D02*
G03*
X45074Y116320I-17689J12877D01*
G01*
Y116320D02*
G03*
X39406Y131456I-15410J2858D01*
G01*
X39406D02*
G03*
X35963Y133943I-17034J-19952D01*
G01*
Y133943D02*
G03*
X32060Y135997I-18807J-30988D01*
G01*
X32060D02*
G03*
X27873Y137662I-20177J-44638D01*
G01*
X27873Y137662D02*
G03*
X23577Y138981I-20839J-60233D01*
G01*
Y138981D02*
G03*
X19347Y139997I-20648J-76711D01*
G01*
X19347D02*
G03*
X15358Y140751I-19648J-92900D01*
G01*
X15358Y140751D02*
G03*
X469Y142632I-30536J-181896D01*
G01*
D02*
G03*
X-7371Y143082I-12462J-148579D01*
G01*
Y143082D02*
G03*
X-15309Y143080I-3939J-126292D01*
G01*
Y143080D02*
G03*
X-23225Y142532I3317J-105405D01*
G01*
Y142532D02*
G03*
X-30995Y141345I9254J-86564D01*
G01*
Y141345D02*
G03*
X-38497Y139424I13992J-70245D01*
G01*
D02*
G03*
X-45608Y136675I17837J-56720D01*
G01*
X-45608D02*
G03*
X-52206Y133005I21287J-46036D01*
G01*
D02*
G03*
X-58169Y128319I25036J-37997D01*
G01*
X-55708Y226545D02*
G03*
X-34810Y232304I-10116J77508D01*
G01*
X-59807Y226243D02*
G03*
X-55708Y226545I-1762J51839D01*
G01*
X-65217Y226301D02*
G03*
X-59807Y226243I3293J54888D01*
G01*
X-68033Y226577D02*
G03*
X-65217Y226301I5196J38494D01*
G01*
X-70721Y227078D02*
G03*
X-68033Y226577I6227J25972D01*
G01*
X-73130Y227848D02*
G03*
X-70721Y227078I6234J15348D01*
G01*
X-75106Y228932D02*
G03*
X-73130Y227848I5500J7684D01*
G01*
X-76499Y230375D02*
G03*
X-75106Y228932I4576J3023D01*
G01*
X-77157Y232222D02*
G03*
X-76499Y230375I4265J478D01*
G01*
X-76036Y235940D02*
G03*
X-77157Y232222I4051J-3249D01*
G01*
X-74510Y237568D02*
G03*
X-76036Y235940I6593J-7714D01*
G01*
X-72534Y239028D02*
G03*
X-74510Y237568I8914J-14125D01*
G01*
X-70257Y240311D02*
G03*
X-72534Y239028I11236J-22605D01*
G01*
X-67825Y241407D02*
G03*
X-70257Y240311I12803J-31660D01*
G01*
X-61066Y243476D02*
G03*
X-67825Y241407I8106J-38566D01*
G01*
X-59481Y243726D02*
G03*
X-61066Y243476I1878J-17026D01*
G01*
X-53999Y243555D02*
G03*
X-59481Y243726I-3417J-21645D01*
G01*
X-51224Y242978D02*
G03*
X-53999Y243555I-6820J-25823D01*
G01*
X-45803Y240976D02*
G03*
X-51224Y242978I-13336J-27773D01*
G01*
X-36560Y234348D02*
G03*
X-45803Y240976I-22872J-22137D01*
G01*
X-34810Y232304D02*
G03*
X-36560Y234348I-19925J-15291D01*
G01*
X-51252Y228291D02*
G03*
X-46603Y234812I-2895J6982D01*
G01*
X-53896Y227529D02*
G03*
X-51252Y228291I-1519J10241D01*
G01*
X-61951Y229204D02*
G03*
X-53896Y227529I6255J9876D01*
G01*
X-63923Y231016D02*
G03*
X-61951Y229204I6564J5159D01*
G01*
X-65440Y236407D02*
G03*
X-63923Y231016I7471J-806D01*
G01*
X-60788Y242928D02*
G03*
X-65440Y236407I2909J-6994D01*
G01*
X-58142Y243696D02*
G03*
X-60788Y242928I1550J-10277D01*
G01*
X-50085Y242038D02*
G03*
X-58142Y243696I-6227J-9853D01*
G01*
X-48114Y240224D02*
G03*
X-50085Y242038I-6538J-5125D01*
G01*
X-46603Y234812D02*
G03*
X-48114Y240224I-7499J822D01*
G01*
X-55824Y233764D02*
G03*
X-54093Y235692I-307J2016D01*
G01*
X-57712Y234182D02*
G03*
X-55824Y233764I1438J2025D01*
G01*
X-58171Y234652D02*
G03*
X-57712Y234182I1639J1139D01*
G01*
X-58512Y236063D02*
G03*
X-58171Y234652I2092J-240D01*
G01*
X-56775Y237999D02*
G03*
X-58512Y236063I319J-2034D01*
G01*
X-54886Y237585D02*
G03*
X-56775Y237999I-1430J-2010D01*
G01*
X-54429Y237113D02*
G03*
X-54886Y237585I-1630J-1121D01*
G01*
X-54093Y235692D02*
G03*
X-54429Y237113I-2105J253D01*
G01*
X23254Y233122D02*
G03*
X44180Y227356I30961J71510D01*
G01*
Y227356D02*
G03*
X48279Y227056I5875J52189D01*
G01*
Y227056D02*
G03*
X53689Y227115I2111J55139D01*
G01*
Y227115D02*
G03*
X56505Y227390I-2379J38820D01*
G01*
X56505D02*
G03*
X59193Y227890I-3536J26488D01*
G01*
D02*
G03*
X61602Y228660I-3822J16120D01*
G01*
Y228660D02*
G03*
X63578Y229743I-3520J8766D01*
G01*
D02*
G03*
X64971Y231186I-3180J4465D01*
G01*
X64971D02*
G03*
X65629Y233032I-3606J2324D01*
G01*
X65629D02*
G03*
X64508Y236751I-5171J470D01*
G01*
Y236751D02*
G03*
X62982Y238379I-8119J-6086D01*
G01*
X62981Y238379D02*
G03*
X61006Y239839I-10889J-12664D01*
G01*
D02*
G03*
X58729Y241122I-13513J-21322D01*
G01*
Y241122D02*
G03*
X56297Y242218I-15236J-30564D01*
G01*
X56297Y242218D02*
G03*
X49538Y244286I-14865J-36498D01*
G01*
X49538D02*
G03*
X47953Y244537I-3462J-16776D01*
G01*
X47953Y244537D02*
G03*
X42457Y244369I-2083J-21874D01*
G01*
Y244369D02*
G03*
X39678Y243792I4035J-26426D01*
G01*
Y243792D02*
G03*
X34251Y241790I7901J-29780D01*
G01*
Y241790D02*
G03*
X25005Y235164I13625J-28776D01*
G01*
Y235164D02*
G03*
X23254Y233122I18180J-17353D01*
G01*
X35040Y235623D02*
G03*
X39694Y229102I7549J466D01*
G01*
Y229102D02*
G03*
X42339Y228340I4163J9485D01*
G01*
X42339D02*
G03*
X50395Y230017I1799J11551D01*
G01*
X50395Y230017D02*
G03*
X52367Y231831I-4595J6973D01*
G01*
D02*
G03*
X53884Y237225I-5962J4587D01*
G01*
X53884Y237225D02*
G03*
X49232Y243747I-7559J-471D01*
G01*
D02*
G03*
X46586Y244514I-4190J-9503D01*
G01*
D02*
G03*
X38527Y242851I-1824J-11519D01*
G01*
Y242851D02*
G03*
X36555Y241036I4577J-6951D01*
G01*
Y241036D02*
G03*
X35040Y235623I5993J-4596D01*
G01*
X42517Y236530D02*
G03*
X44248Y234603I2037J88D01*
G01*
X44248Y234603D02*
G03*
X46136Y235020I450J2442D01*
G01*
X46136D02*
G03*
X46595Y235491I-1181J1610D01*
G01*
D02*
G03*
X46936Y236902I-1750J1170D01*
G01*
D02*
G03*
X45204Y238829I-2042J-92D01*
G01*
D02*
G03*
X43319Y238412I-450J-2436D01*
G01*
D02*
G03*
X42861Y237941I1184J-1611D01*
G01*
X42861Y237941D02*
G03*
X42517Y236530I1757J-1175D01*
G01*
X-46348Y196403D02*
G03*
X-55111Y196259I-1815J-155809D01*
G01*
X-65199Y196098D02*
G03*
X-60069Y196117I2033J141300D01*
G01*
X-70342Y196328D02*
G03*
X-65199Y196098I6325J83817D01*
G01*
X-75338Y196934D02*
G03*
X-70342Y196328I9073J53903D01*
G01*
X-80027Y198043D02*
G03*
X-75338Y196934I10684J34715D01*
G01*
X-84251Y199781D02*
G03*
X-80027Y198043I11446J21809D01*
G01*
X-87848Y202275D02*
G03*
X-84251Y199781I11915J13341D01*
G01*
X-90661Y205653D02*
G03*
X-87848Y202275I13032J7992D01*
G01*
X-92532Y210127D02*
G03*
X-90661Y205653I16310J4192D01*
G01*
X-93048Y212587D02*
G03*
X-92532Y210127I23807J3715D01*
G01*
X-93343Y215147D02*
G03*
X-93048Y212587I31789J2363D01*
G01*
X-93459Y217769D02*
G03*
X-93343Y215147I43287J598D01*
G01*
X-93439Y220417D02*
G03*
X-93459Y217769I61312J-1788D01*
G01*
X-93326Y223053D02*
G03*
X-93439Y220417I95798J-5423D01*
G01*
X-92993Y228144D02*
G03*
X-92860Y230524I-114097J7590D01*
G01*
X-92075Y236173D02*
G03*
X-92860Y230524I27229J-6664D01*
G01*
X-91277Y238649D02*
G03*
X-92075Y236173I18378J-7293D01*
G01*
X-90192Y240869D02*
G03*
X-91277Y238649I13955J-8190D01*
G01*
X-88810Y242819D02*
G03*
X-90192Y240869I10659J-9024D01*
G01*
X-82756Y246874D02*
G03*
X-88810Y242819I4255J-12900D01*
G01*
X-80063Y247573D02*
G03*
X-82756Y246874I3246J-18039D01*
G01*
X-77012Y247918D02*
G03*
X-80063Y247573I1116J-23506D01*
G01*
X-72236Y248025D02*
G03*
X-77012Y247918I-348J-91112D01*
G01*
X-69832Y247996D02*
G03*
X-72236Y248025I-2727J-126191D01*
G01*
X-53008Y247279D02*
G03*
X-48803Y247257I2825J142111D01*
G01*
X-44427Y247213D02*
G03*
X-46624Y247256I-2673J-80170D01*
G01*
X-42234Y247092D02*
G03*
X-44427Y247213I-3836J-49296D01*
G01*
X-40069Y246855D02*
G03*
X-42234Y247092I-4852J-34345D01*
G01*
X-37956Y246466D02*
G03*
X-40069Y246855I-5734J-25269D01*
G01*
X-35917Y245890D02*
G03*
X-37956Y246466I-6517J-19165D01*
G01*
X-33976Y245090D02*
G03*
X-35917Y245890I-7278J-14889D01*
G01*
X-32157Y244028D02*
G03*
X-33976Y245090I-8151J-11880D01*
G01*
X-25891Y235219D02*
G03*
X-32157Y244028I-14924J-3983D01*
G01*
X-25316Y232615D02*
G03*
X-25891Y235219I-22125J-3520D01*
G01*
X-25010Y229917D02*
G03*
X-25316Y232615I-30146J-2053D01*
G01*
X-24908Y227157D02*
G03*
X-25010Y229917I-43707J-221D01*
G01*
X-24948Y224370D02*
G03*
X-24908Y227157I-71359J2414D01*
G01*
X-27495Y208631D02*
G03*
X-25195Y218841I-26184J11262D01*
G01*
X-29060Y205653D02*
G03*
X-27495Y208631I-20184J12503D01*
G01*
X-31012Y202986D02*
G03*
X-29060Y205653I-16224J13925D01*
G01*
X-36052Y198825D02*
G03*
X-31012Y202986I-9320J16420D01*
G01*
X-42560Y196622D02*
G03*
X-36052Y198825I-2646J18535D01*
G01*
X-46348Y196403D02*
G03*
X-42560Y196622I634J21935D01*
G01*
X40375Y197447D02*
G03*
X31515Y197654I-7745J-141575D01*
G01*
X45457Y197235D02*
G03*
X50757Y197110I7107J188891D01*
G01*
X50757D02*
G03*
X56112Y197190I1062J108505D01*
G01*
X56112Y197190D02*
G03*
X61360Y197593I-2732J69936D01*
G01*
Y197593D02*
G03*
X66337Y198438I-5219J45832D01*
G01*
X66337Y198438D02*
G03*
X70881Y199843I-6696J29707D01*
G01*
X70881D02*
G03*
X74830Y201927I-7599J19181D01*
G01*
D02*
G03*
X78019Y204808I-8688J12825D01*
G01*
D02*
G03*
X80712Y209508I-12527J10296D01*
G01*
X80712D02*
G03*
X81500Y212123I-19789J7391D01*
G01*
X81500Y212123D02*
G03*
X81990Y214861I-26493J6153D01*
G01*
X81990Y214861D02*
G03*
X82236Y217683I-36176J4587D01*
G01*
D02*
G03*
X82296Y220550I-51123J2488D01*
G01*
D02*
G03*
X82222Y223422I-78349J-569D01*
G01*
X82222Y223422D02*
G03*
X82071Y226259I-153301J-6731D01*
G01*
X81758Y231672D02*
G03*
X82071Y226259I277895J13364D01*
G01*
X81758Y231672D02*
G03*
X80980Y237369I-27831J-900D01*
G01*
X80980D02*
G03*
X80176Y239861I-19080J-4778D01*
G01*
Y239861D02*
G03*
X79081Y242094I-14979J-5961D01*
G01*
X79081D02*
G03*
X77684Y244051I-12007J-7094D01*
G01*
Y244051D02*
G03*
X71569Y248104I-10317J-8926D01*
G01*
Y248104D02*
G03*
X68853Y248795I-5897J-17515D01*
G01*
X68853D02*
G03*
X65780Y249127I-4086J-23381D01*
G01*
X65780Y249127D02*
G03*
X60860Y249226I-4613J-106885D01*
G01*
X36895Y248583D02*
G03*
X41081Y248564I2552J100453D01*
G01*
X32413Y248648D02*
G03*
X30134Y248616I-93J-73943D01*
G01*
Y248615D02*
G03*
X27870Y248497I1451J-49292D01*
G01*
Y248497D02*
G03*
X25649Y248258I2659J-35282D01*
G01*
Y248258D02*
G03*
X23501Y247868I3621J-26050D01*
G01*
Y247868D02*
G03*
X21456Y247294I4394J-19566D01*
G01*
X21456D02*
G03*
X19543Y246502I5064J-14941D01*
G01*
X19543D02*
G03*
X11687Y237828I6330J-13628D01*
G01*
X11687D02*
G03*
X10907Y235081I19462J-7007D01*
G01*
X10907D02*
G03*
X10455Y232195I27389J-5770D01*
G01*
X10455D02*
G03*
X10257Y229214I40101J-4166D01*
G01*
X10257Y229214D02*
G03*
X10239Y226184I63746J-1891D01*
G01*
X10239D02*
G03*
X10328Y223151I129677J2298D01*
G01*
X10451Y220161D02*
G03*
X12710Y209947I28454J938D01*
G01*
X12710D02*
G03*
X14263Y206965I21770J9438D01*
G01*
X14263D02*
G03*
X16205Y204292I18210J11186D01*
G01*
Y204292D02*
G03*
X21228Y200113I14401J12203D01*
G01*
D02*
G03*
X27728Y197887I9213J16295D01*
G01*
D02*
G03*
X31515Y197654I3233J21700D01*
G01*
X-26604Y199441D02*
G03*
X-28395Y196549I52688J-34623D01*
G01*
X-28395D02*
G03*
X-31976Y189659I62260J-36735D01*
G01*
D02*
G03*
X-33599Y185552I41944J-18945D01*
G01*
Y185552D02*
G03*
X-34662Y181450I25721J-8855D01*
G01*
D02*
G03*
X-34830Y177687I13465J-2486D01*
G01*
Y177687D02*
G03*
X-33766Y174599I6748J597D01*
G01*
X-33766D02*
G03*
X-31137Y172521I4715J3263D01*
G01*
D02*
G03*
X-26604Y171787I4079J10824D01*
G01*
X15487Y197000D02*
G03*
X13413Y199441I-34047J-26822D01*
G01*
X19587Y191011D02*
G03*
X15487Y197000I-41991J-24350D01*
G01*
X21402Y187312D02*
G03*
X19587Y191011I-28429J-11657D01*
G01*
X22530Y183477D02*
G03*
X21402Y187312I-18481J-3354D01*
G01*
X22574Y179757D02*
G03*
X22530Y183477I-10745J1735D01*
G01*
X17815Y173661D02*
G03*
X22574Y179757I-3539J7668D01*
G01*
X12217Y171787D02*
G03*
X17815Y173661I-3532J19839D01*
G01*
X-25823Y178003D02*
G03*
X-28666Y175834I7773J-13141D01*
G01*
X-25019Y178436D02*
G03*
X-25823Y178003I5645J-11437D01*
G01*
X-24189Y178805D02*
G03*
X-25019Y178436I4230J-10620D01*
G01*
X-23337Y179101D02*
G03*
X-24189Y178805I2901J-9715D01*
G01*
X-22470Y179314D02*
G03*
X-23337Y179101I1698J-8803D01*
G01*
X-21591Y179433D02*
G03*
X-22470Y179314I632J-7948D01*
G01*
X-20708Y179449D02*
G03*
X-21591Y179433I-313J-7202D01*
G01*
X-16775Y178015D02*
G03*
X-20708Y179449I-4233J-5497D01*
G01*
X-15739Y177155D02*
G03*
X-16775Y178015I-8388J-9050D01*
G01*
X-14766Y176205D02*
G03*
X-15739Y177155I-18633J-18109D01*
G01*
X-13812Y175226D02*
G03*
X-12832Y174278I17053J16657D01*
G01*
Y174278D02*
G03*
X-11782Y173423I8057J8823D01*
G01*
Y173423D02*
G03*
X-10617Y172721I4764J6588D01*
G01*
X-10617D02*
G03*
X-9293Y172233I3014J6137D01*
G01*
X-9293D02*
G03*
X-3828Y172636I2150J8109D01*
G01*
X-3828Y172636D02*
G03*
X-1495Y173910I-5339J12549D01*
G01*
X-1495D02*
G03*
X697Y175537I-18136J26715D01*
G01*
X5032Y178766D02*
G03*
X2841Y177247I11530J-18962D01*
G01*
X7363Y179825D02*
G03*
X5032Y178766I3182J-10104D01*
G01*
X9928Y180150D02*
G03*
X7362Y179825I-351J-7500D01*
G01*
X12820Y179472D02*
G03*
X9928Y180150I-3394J-7967D01*
G01*
X16135Y177518D02*
G03*
X12820Y179472I-9273J-11942D01*
G01*
X-21931Y419597D02*
Y420296D01*
X7921Y421420D02*
X9985D01*
X-113427Y149248D02*
X-111230Y148696D01*
X137196Y263681D02*
X138489Y267062D01*
X-35423Y414165D02*
X-32114Y415535D01*
X-38716Y412742D02*
X-35423Y414165D01*
X-41994Y411282D02*
X-38716Y412742D01*
X-45257Y409800D02*
X-41994Y411282D01*
X-48505Y408310D02*
X-45257Y409800D01*
X-51736Y406828D02*
X-48505Y408310D01*
X-54953Y405369D02*
X-51736Y406828D01*
X-65225Y400659D02*
X-54953Y405369D01*
X-70331Y398238D02*
X-65225Y400659D01*
X-105196Y379653D02*
X-100330Y382514D01*
X-147067Y320280D02*
X-147042Y316197D01*
X-147042Y312106D02*
X-147042Y316197D01*
X-147033Y308012D02*
X-146979Y303922D01*
X-136286Y270484D02*
X-135052Y269681D01*
X-133838Y268889D01*
X-128901Y261884D02*
X-128712Y260843D01*
X-128529Y259791D01*
X120916Y246516D02*
X121150Y263786D01*
X143083Y203779D02*
X143315Y207302D01*
X142816Y200307D02*
X143083Y203779D01*
X142537Y196905D02*
X142816Y200307D01*
X108553Y149644D02*
X110038Y148678D01*
X62351Y27881D02*
X67458Y31655D01*
X52389Y20573D02*
X62351Y27881D01*
X-109512Y108168D02*
X-109095Y102031D01*
X-109917Y114300D02*
X-109512Y108168D01*
X-111391Y144727D02*
X-111340Y142937D01*
X-114863Y149981D02*
X-114351Y149740D01*
X-115383Y150222D02*
X-114863Y149981D01*
X-123579Y160743D02*
X-123091Y159722D01*
X-132709Y201262D02*
X-132241Y196684D01*
X-133118Y205777D02*
X-132709Y201262D01*
X-133731Y212002D02*
X-133118Y205777D01*
X-106612Y294381D02*
X-104638Y297208D01*
X-108550Y291531D02*
X-106612Y294381D01*
X-110470Y288664D02*
X-108550Y291531D01*
X-112385Y285785D02*
X-110470Y288664D01*
X-114313Y282899D02*
X-112385Y285785D01*
X-116267Y280012D02*
X-114313Y282899D01*
X-122559Y287751D02*
X-121916Y288575D01*
X-121307Y289349D01*
X123645Y276080D02*
X124945Y273617D01*
X113817Y273301D02*
X115415Y270881D01*
X112392Y275506D02*
X113817Y273301D01*
X111201Y277329D02*
X112392Y275506D01*
X-24928Y245661D02*
X-24065Y244842D01*
X3001Y243747D02*
X3467Y244343D01*
X3924Y244924D01*
X79408Y252113D02*
X81406Y251512D01*
X83410Y250896D01*
X85418Y250290D01*
X105648Y248487D02*
X108218Y248676D01*
X110788Y248890D01*
X113354Y249113D01*
X115911Y249329D01*
X118454Y249523D01*
X-116453Y279833D02*
X-116123Y246468D01*
X112909Y236641D02*
X115699Y236375D01*
X110036Y236893D02*
X112909Y236641D01*
X88219Y218989D02*
X88623Y221695D01*
X55022Y193891D02*
X58435Y193925D01*
X51604Y193881D02*
X55022Y193891D01*
X48183Y193888D02*
X51604Y193881D01*
X44759Y193906D02*
X48183Y193888D01*
X41335Y193928D02*
X44759Y193906D01*
X37914Y193948D02*
X41335Y193928D01*
X34495Y193960D02*
X37914Y193948D01*
X31082Y193957D02*
X34495Y193960D01*
X26928Y193901D02*
X28278Y193918D01*
X3140Y217859D02*
X3985Y215360D01*
X-21167Y213893D02*
X-20389Y217446D01*
X-47315Y191533D02*
X-44978Y191498D01*
X-49592Y191590D02*
X-47315Y191533D01*
X-51771Y191633D02*
X-49592Y191590D01*
X-60379Y191445D02*
X-53812Y191627D01*
X-63780Y191371D02*
X-60379Y191445D01*
X-103100Y221013D02*
X-102461Y217797D01*
X-103516Y224599D02*
X-103400Y223301D01*
X-103637Y225939D02*
X-103516Y224599D01*
X-110184Y233374D02*
X-109159Y233285D01*
X-116180Y242706D02*
X-116103Y244056D01*
X120793Y236036D02*
X120978Y249677D01*
X-111230Y148696D02*
X-76635Y122911D01*
X-18149Y166767D02*
X-16040Y166265D01*
X-13794Y165718D01*
X557Y165888D02*
X4067Y166538D01*
X-46926Y98824D02*
X-44117Y97903D01*
X11723Y100223D02*
X12483Y99104D01*
X62804Y125282D02*
X108161Y149878D01*
X-60069Y196117D02*
X-55111Y196259D01*
X-93326Y223053D02*
X-93163Y225641D01*
X-92993Y228144D01*
X-69832Y247996D02*
X-67423Y247926D01*
X-65010Y247828D01*
X-62597Y247711D01*
X-60188Y247586D01*
X-57784Y247465D01*
X-55390Y247359D01*
X-53008Y247279D01*
X-48803Y247257D02*
X-46624Y247256D01*
X-25065Y221586D02*
X-24948Y224370D01*
X-25195Y218841D02*
X-25065Y221586D01*
X40375Y197447D02*
X45457Y197235D01*
X58388Y249201D02*
X60860Y249226D01*
X55910Y249140D02*
X58388Y249201D01*
X53430Y249052D02*
X55910Y249140D01*
X50951Y248947D02*
X53430Y249052D01*
X48473Y248836D02*
X50951Y248947D01*
X46001Y248729D02*
X48473Y248836D01*
X43536Y248635D02*
X46001Y248729D01*
X41081Y248564D02*
X43536Y248635D01*
X34677Y248626D02*
X36895Y248583D01*
X32413Y248648D02*
X34677Y248626D01*
X10328Y223151D02*
X10451Y220161D01*
X-14766Y176205D02*
X-13812Y175226D01*
X697Y175537D02*
X2841Y177247D01*
D12*
X11798Y325504D02*
G03*
X11798Y325504I-492J0D01*
G01*
X107327Y180639D02*
G03*
X107327Y180639I-492J0D01*
G01*
X-31039Y42353D02*
G03*
X-31039Y42353I-492J0D01*
G01*
X1244094Y-228346D02*
Y-220475D01*
X1248030D01*
X1249342Y-221786D01*
Y-224410D01*
X1248030Y-225722D01*
X1244094D01*
X1246718D02*
X1249342Y-228346D01*
X1255901D02*
X1253277D01*
X1251966Y-227034D01*
Y-224410D01*
X1253277Y-223098D01*
X1255901D01*
X1257213Y-224410D01*
Y-225722D01*
X1251966D01*
X1259837Y-223098D02*
X1262461Y-228346D01*
X1265085Y-223098D01*
X889763Y-259844D02*
Y-267716D01*
X893699D01*
X895011Y-266404D01*
Y-261157D01*
X893699Y-259844D01*
X889763D01*
X901571Y-267716D02*
X898947D01*
X897635Y-266404D01*
Y-263780D01*
X898947Y-262468D01*
X901571D01*
X902882Y-263780D01*
Y-265092D01*
X897635D01*
X905506Y-267716D02*
X909442D01*
X910754Y-266404D01*
X909442Y-265092D01*
X906818D01*
X905506Y-263780D01*
X906818Y-262468D01*
X910754D01*
X916002Y-270340D02*
X917314D01*
X918626Y-269028D01*
Y-262468D01*
X914690D01*
X913378Y-263780D01*
Y-266404D01*
X914690Y-267716D01*
X918626D01*
X921249D02*
X923873D01*
X922561D01*
Y-262468D01*
X921249D01*
X927809Y-267716D02*
Y-262468D01*
X931745D01*
X933057Y-263780D01*
Y-267716D01*
X939616D02*
X936992D01*
X935680Y-266404D01*
Y-263780D01*
X936992Y-262468D01*
X939616D01*
X940928Y-263780D01*
Y-265092D01*
X935680D01*
X943552Y-262468D02*
Y-267716D01*
Y-265092D01*
X944864Y-263780D01*
X946176Y-262468D01*
X947488D01*
X1086614Y-141734D02*
Y-149606D01*
X1090549D01*
X1091861Y-148294D01*
Y-143046D01*
X1090549Y-141734D01*
X1086614D01*
X1095797Y-149606D02*
X1098421D01*
X1099733Y-148294D01*
Y-145670D01*
X1098421Y-144358D01*
X1095797D01*
X1094485Y-145670D01*
Y-148294D01*
X1095797Y-149606D01*
X1107604Y-144358D02*
X1103669D01*
X1102357Y-145670D01*
Y-148294D01*
X1103669Y-149606D01*
X1107604D01*
X1110228Y-144358D02*
Y-148294D01*
X1111540Y-149606D01*
X1115476D01*
Y-144358D01*
X1118100Y-149606D02*
Y-144358D01*
X1119412D01*
X1120724Y-145670D01*
Y-149606D01*
Y-145670D01*
X1122036Y-144358D01*
X1123347Y-145670D01*
Y-149606D01*
X1129907D02*
X1127283D01*
X1125971Y-148294D01*
Y-145670D01*
X1127283Y-144358D01*
X1129907D01*
X1131219Y-145670D01*
Y-146982D01*
X1125971D01*
X1133843Y-149606D02*
Y-144358D01*
X1137778D01*
X1139090Y-145670D01*
Y-149606D01*
X1143026Y-143046D02*
Y-144358D01*
X1141714D01*
X1144338D01*
X1143026D01*
Y-148294D01*
X1144338Y-149606D01*
X1086614Y-181104D02*
Y-188976D01*
X1091861D01*
X1095797Y-183728D02*
X1098421D01*
X1099733Y-185040D01*
Y-188976D01*
X1095797D01*
X1094485Y-187664D01*
X1095797Y-186352D01*
X1099733D01*
X1102357Y-183728D02*
Y-187664D01*
X1103669Y-188976D01*
X1107604D01*
Y-190288D01*
X1106293Y-191600D01*
X1104981D01*
X1107604Y-188976D02*
Y-183728D01*
X1114164Y-188976D02*
X1111540D01*
X1110228Y-187664D01*
Y-185040D01*
X1111540Y-183728D01*
X1114164D01*
X1115476Y-185040D01*
Y-186352D01*
X1110228D01*
X1118100Y-183728D02*
Y-188976D01*
Y-186352D01*
X1119412Y-185040D01*
X1120724Y-183728D01*
X1122036D01*
X1133843Y-188976D02*
Y-181104D01*
X1139090Y-188976D01*
Y-181104D01*
X1143026Y-183728D02*
X1145650D01*
X1146962Y-185040D01*
Y-188976D01*
X1143026D01*
X1141714Y-187664D01*
X1143026Y-186352D01*
X1146962D01*
X1149586Y-188976D02*
Y-183728D01*
X1150898D01*
X1152209Y-185040D01*
Y-188976D01*
Y-185040D01*
X1153521Y-183728D01*
X1154833Y-185040D01*
Y-188976D01*
X1161393D02*
X1158769D01*
X1157457Y-187664D01*
Y-185040D01*
X1158769Y-183728D01*
X1161393D01*
X1162705Y-185040D01*
Y-186352D01*
X1157457D01*
X1086614Y-220475D02*
Y-228346D01*
X1090549D01*
X1091861Y-227034D01*
Y-221786D01*
X1090549Y-220475D01*
X1086614D01*
X1095797Y-223098D02*
X1098421D01*
X1099733Y-224410D01*
Y-228346D01*
X1095797D01*
X1094485Y-227034D01*
X1095797Y-225722D01*
X1099733D01*
X1103669Y-221786D02*
Y-223098D01*
X1102357D01*
X1104981D01*
X1103669D01*
Y-227034D01*
X1104981Y-228346D01*
X1112852D02*
X1110228D01*
X1108916Y-227034D01*
Y-224410D01*
X1110228Y-223098D01*
X1112852D01*
X1114164Y-224410D01*
Y-225722D01*
X1108916D01*
X1086614Y-259844D02*
Y-267716D01*
X1090549D01*
X1091861Y-266404D01*
Y-261157D01*
X1090549Y-259844D01*
X1086614D01*
X1095797Y-267716D02*
X1098421D01*
X1099733Y-266404D01*
Y-263780D01*
X1098421Y-262468D01*
X1095797D01*
X1094485Y-263780D01*
Y-266404D01*
X1095797Y-267716D01*
X1107604Y-262468D02*
X1103669D01*
X1102357Y-263780D01*
Y-266404D01*
X1103669Y-267716D01*
X1107604D01*
X1110228Y-262468D02*
Y-266404D01*
X1111540Y-267716D01*
X1115476D01*
Y-262468D01*
X1118100Y-267716D02*
Y-262468D01*
X1119412D01*
X1120724Y-263780D01*
Y-267716D01*
Y-263780D01*
X1122036Y-262468D01*
X1123347Y-263780D01*
Y-267716D01*
X1129907D02*
X1127283D01*
X1125971Y-266404D01*
Y-263780D01*
X1127283Y-262468D01*
X1129907D01*
X1131219Y-263780D01*
Y-265092D01*
X1125971D01*
X1133843Y-267716D02*
Y-262468D01*
X1137778D01*
X1139090Y-263780D01*
Y-267716D01*
X1143026Y-261157D02*
Y-262468D01*
X1141714D01*
X1144338D01*
X1143026D01*
Y-266404D01*
X1144338Y-267716D01*
D13*
X23971Y21867D02*
X71890Y57976D01*
X23971Y21867D02*
X29990Y13881D01*
X71890Y57976D02*
X77908Y49990D01*
X29990Y13881D02*
X77908Y49990D01*
X95960Y75925D02*
X104311Y135341D01*
X94408Y136733D02*
X104311Y135341D01*
X86058Y77317D02*
X95960Y75925D01*
X86058Y77317D02*
X94408Y136733D01*
X-49162Y226074D02*
X-46406D01*
X-49555Y225680D02*
X-49162Y226074D01*
X-66091Y244972D02*
Y245366D01*
X-46406D01*
Y244972D02*
Y245366D01*
Y225680D02*
Y226074D01*
X-66091Y225680D02*
X-46406D01*
X-66091D02*
Y226074D01*
X51402Y226620D02*
X54158D01*
X51008Y226226D02*
X51402Y226620D01*
X34473Y245517D02*
Y245911D01*
X54158D01*
Y245517D02*
Y245911D01*
Y226226D02*
Y226620D01*
X34473Y226226D02*
X54158D01*
X34473D02*
Y226620D01*
X29061Y293987D02*
X35721Y296411D01*
X17198Y326580D02*
X23858Y329004D01*
X35721Y296411D01*
X17198Y326580D02*
X29061Y293987D01*
X99736Y182890D02*
X103613Y182206D01*
X101855Y194909D02*
X105732Y194226D01*
X103613Y182206D02*
X105732Y194226D01*
X99736Y182890D02*
X101855Y194909D01*
X-36281Y45129D02*
X-34801Y44591D01*
X-32107Y56598D02*
X-30627Y56059D01*
X-34801Y44591D02*
X-30627Y56059D01*
X-36281Y45129D02*
X-32107Y56598D01*
X1240157Y-255905D02*
Y-216535D01*
X1082677Y-177165D02*
X1358267D01*
X1082677Y-216535D02*
X1358267D01*
X885826Y-255905D02*
X1358267D01*
X885826Y-137795D02*
X1358267D01*
X885826Y-295275D02*
Y-137795D01*
X1082677Y-295275D02*
Y-137795D01*
X-295276Y874016D02*
X1358267D01*
Y-295275D02*
Y874016D01*
X-295276Y-295275D02*
Y874016D01*
Y-295275D02*
X1358267D01*
X1092519Y-281498D02*
X1096455D01*
X1094487D01*
Y-287401D01*
X1101375D02*
X1099407D01*
X1098423Y-286417D01*
Y-284449D01*
X1099407Y-283465D01*
X1101375D01*
X1102359Y-284449D01*
Y-285433D01*
X1098423D01*
X1105310Y-283465D02*
X1107278D01*
X1108262Y-284449D01*
Y-287401D01*
X1105310D01*
X1104327Y-286417D01*
X1105310Y-285433D01*
X1108262D01*
X1110230Y-287401D02*
Y-283465D01*
X1111214D01*
X1112198Y-284449D01*
Y-287401D01*
Y-284449D01*
X1113182Y-283465D01*
X1114166Y-284449D01*
Y-287401D01*
X1116134Y-288385D02*
X1120069D01*
X1125973Y-282481D02*
X1124989Y-281498D01*
X1123021D01*
X1122037Y-282481D01*
Y-283465D01*
X1123021Y-284449D01*
X1124989D01*
X1125973Y-285433D01*
Y-286417D01*
X1124989Y-287401D01*
X1123021D01*
X1122037Y-286417D01*
X1131877Y-283465D02*
X1128925D01*
X1127941Y-284449D01*
Y-286417D01*
X1128925Y-287401D01*
X1131877D01*
X1133844Y-281498D02*
Y-287401D01*
Y-284449D01*
X1134828Y-283465D01*
X1136796D01*
X1137780Y-284449D01*
Y-287401D01*
X1142700D02*
X1140732D01*
X1139748Y-286417D01*
Y-284449D01*
X1140732Y-283465D01*
X1142700D01*
X1143684Y-284449D01*
Y-285433D01*
X1139748D01*
X1145652Y-287401D02*
X1147620D01*
X1146636D01*
Y-283465D01*
X1145652D01*
X1150571D02*
Y-287401D01*
Y-285433D01*
X1151555Y-284449D01*
X1152539Y-283465D01*
X1153523D01*
X1159427Y-287401D02*
X1157459D01*
X1156475Y-286417D01*
Y-284449D01*
X1157459Y-283465D01*
X1159427D01*
X1160411Y-284449D01*
Y-285433D01*
X1156475D01*
X1162379Y-288385D02*
X1166314D01*
X1168282Y-287401D02*
Y-281498D01*
X1170250Y-283465D01*
X1172218Y-281498D01*
Y-287401D01*
X1175170Y-283465D02*
X1177138D01*
X1178121Y-284449D01*
Y-287401D01*
X1175170D01*
X1174186Y-286417D01*
X1175170Y-285433D01*
X1178121D01*
X1181073Y-283465D02*
X1183041D01*
X1184025Y-284449D01*
Y-287401D01*
X1181073D01*
X1180089Y-286417D01*
X1181073Y-285433D01*
X1184025D01*
X1185993Y-283465D02*
Y-287401D01*
Y-285433D01*
X1186977Y-284449D01*
X1187961Y-283465D01*
X1188945D01*
X1192881Y-282481D02*
Y-283465D01*
X1191897D01*
X1193865D01*
X1192881D01*
Y-286417D01*
X1193865Y-287401D01*
X1199768D02*
X1197800D01*
X1196816Y-286417D01*
Y-284449D01*
X1197800Y-283465D01*
X1199768D01*
X1200752Y-284449D01*
Y-285433D01*
X1196816D01*
X1202720Y-287401D02*
Y-283465D01*
X1205672D01*
X1206656Y-284449D01*
Y-287401D01*
X1208624Y-288385D02*
X1212559D01*
X1214527Y-282481D02*
X1215511Y-281498D01*
X1217479D01*
X1218463Y-282481D01*
Y-286417D01*
X1217479Y-287401D01*
X1215511D01*
X1214527Y-286417D01*
Y-282481D01*
X1220431D02*
X1221415Y-281498D01*
X1223382D01*
X1224366Y-282481D01*
Y-286417D01*
X1223382Y-287401D01*
X1221415D01*
X1220431Y-286417D01*
Y-282481D01*
X1226334Y-287401D02*
Y-286417D01*
X1227318D01*
Y-287401D01*
X1226334D01*
X1231254D02*
Y-281498D01*
X1234206D01*
X1235190Y-282481D01*
Y-284449D01*
X1234206Y-285433D01*
X1231254D01*
X1241093Y-283465D02*
X1238142D01*
X1237158Y-284449D01*
Y-286417D01*
X1238142Y-287401D01*
X1241093D01*
X1243061Y-281498D02*
Y-287401D01*
X1246013D01*
X1246997Y-286417D01*
Y-285433D01*
Y-284449D01*
X1246013Y-283465D01*
X1243061D01*
X1248965Y-281498D02*
Y-287401D01*
X1251917D01*
X1252900Y-286417D01*
Y-282481D01*
X1251917Y-281498D01*
X1248965D01*
X1255852Y-287401D02*
X1257820D01*
X1258804Y-286417D01*
Y-284449D01*
X1257820Y-283465D01*
X1255852D01*
X1254868Y-284449D01*
Y-286417D01*
X1255852Y-287401D01*
X1264708Y-283465D02*
X1261756D01*
X1260772Y-284449D01*
Y-286417D01*
X1261756Y-287401D01*
X1264708D01*
D14*
X10663Y326694D02*
X12143Y327233D01*
X9316Y330394D02*
X10796Y330932D01*
X27681Y332888D02*
X28421Y333158D01*
X26334Y336588D02*
X27074Y336857D01*
X42123Y292058D02*
X43603Y292597D01*
X40776Y295758D02*
X42256Y296297D01*
X24498Y289833D02*
X25238Y290103D01*
X25845Y286134D02*
X26585Y286403D01*
X100144Y202207D02*
X100417Y203758D01*
X104021Y201523D02*
X104294Y203074D01*
X105959Y201182D02*
X106233Y202732D01*
X109836Y200498D02*
X110110Y202049D01*
X92815Y173116D02*
X93225Y175443D01*
X99019Y172022D02*
X99429Y174349D01*
X121569Y209223D02*
X123120Y208949D01*
X122253Y213100D02*
X123804Y212827D01*
X112511Y157850D02*
X114062Y157577D01*
X113194Y161727D02*
X114745Y161454D01*
X-50910Y54434D02*
X-50641Y55174D01*
X-54610Y55781D02*
X-54340Y56520D01*
X-43511Y51741D02*
X-43242Y52481D01*
X-47210Y53087D02*
X-46941Y53827D01*
X98359Y160345D02*
X99134Y160209D01*
X99043Y164223D02*
X99818Y164086D01*
X-15757Y40383D02*
X-14680Y43342D01*
X-9179Y37988D02*
X-8102Y40948D01*
X-19464Y42988D02*
X-19194Y43728D01*
X-23163Y44335D02*
X-22894Y45075D01*
X102040Y173289D02*
X102177Y174064D01*
X105918Y172605D02*
X106054Y173380D01*
D15*
X1104330Y-194886D02*
X1113514D01*
X1108922D01*
Y-208661D01*
X1120401D02*
X1124993D01*
X1127289Y-206365D01*
Y-201773D01*
X1124993Y-199478D01*
X1120401D01*
X1118105Y-201773D01*
Y-206365D01*
X1120401Y-208661D01*
X1131880Y-213253D02*
Y-199478D01*
X1138768D01*
X1141064Y-201773D01*
Y-206365D01*
X1138768Y-208661D01*
X1131880D01*
X1166318Y-194886D02*
X1161726D01*
X1159431Y-197182D01*
Y-206365D01*
X1161726Y-208661D01*
X1166318D01*
X1168614Y-206365D01*
Y-197182D01*
X1166318Y-194886D01*
X1173206Y-199478D02*
X1177797Y-208661D01*
X1182389Y-199478D01*
X1193868Y-208661D02*
X1189277D01*
X1186981Y-206365D01*
Y-201773D01*
X1189277Y-199478D01*
X1193868D01*
X1196164Y-201773D01*
Y-204069D01*
X1186981D01*
X1200756Y-199478D02*
Y-208661D01*
Y-204069D01*
X1203052Y-201773D01*
X1205348Y-199478D01*
X1207643D01*
X1214531Y-208661D02*
X1219123D01*
X1216827D01*
Y-194886D01*
X1214531D01*
X1228306Y-199478D02*
X1232898D01*
X1235194Y-201773D01*
Y-208661D01*
X1228306D01*
X1226010Y-206365D01*
X1228306Y-204069D01*
X1235194D01*
X1239785Y-199478D02*
Y-206365D01*
X1242081Y-208661D01*
X1248969D01*
Y-210957D01*
X1246673Y-213253D01*
X1244377D01*
X1248969Y-208661D02*
Y-199478D01*
X907480Y-273627D02*
Y-289370D01*
X912728Y-284122D01*
X917975Y-289370D01*
Y-273627D01*
X923223Y-289370D02*
X928471D01*
X925847D01*
Y-278874D01*
X923223D01*
X936342Y-289370D02*
Y-278874D01*
X938966D01*
X941590Y-281498D01*
Y-289370D01*
Y-281498D01*
X944213Y-278874D01*
X946837Y-281498D01*
Y-289370D01*
X952085Y-273627D02*
Y-284122D01*
X957333Y-289370D01*
X962580Y-284122D01*
Y-273627D01*
X978323Y-276251D02*
X975699Y-273627D01*
X970452D01*
X967828Y-276251D01*
Y-286746D01*
X970452Y-289370D01*
X975699D01*
X978323Y-286746D01*
Y-281498D01*
X973075D01*
X1261811Y-236880D02*
X1264435Y-234257D01*
X1269682D01*
X1272306Y-236880D01*
Y-247376D01*
X1269682Y-249999D01*
X1264435D01*
X1261811Y-247376D01*
Y-236880D01*
X1277554D02*
X1280177Y-234257D01*
X1285425D01*
X1288049Y-236880D01*
Y-247376D01*
X1285425Y-249999D01*
X1280177D01*
X1277554Y-247376D01*
Y-236880D01*
X1098425Y-238520D02*
X1100721Y-236224D01*
X1105312D01*
X1107608Y-238520D01*
Y-240816D01*
X1105312Y-243112D01*
X1103016D01*
X1105312D01*
X1107608Y-245408D01*
Y-247704D01*
X1105312Y-249999D01*
X1100721D01*
X1098425Y-247704D01*
X1112200Y-238520D02*
X1114496Y-236224D01*
X1119087D01*
X1121383Y-238520D01*
Y-247704D01*
X1119087Y-249999D01*
X1114496D01*
X1112200Y-247704D01*
Y-238520D01*
X1125975Y-249999D02*
X1135158Y-240816D01*
X1139750Y-238520D02*
X1142046Y-236224D01*
X1146638D01*
X1148933Y-238520D01*
Y-247704D01*
X1146638Y-249999D01*
X1142046D01*
X1139750Y-247704D01*
Y-238520D01*
X1162708Y-236224D02*
X1158117Y-238520D01*
X1153525Y-243112D01*
Y-247704D01*
X1155821Y-249999D01*
X1160413D01*
X1162708Y-247704D01*
Y-245408D01*
X1160413Y-243112D01*
X1153525D01*
X1167300Y-249999D02*
X1176484Y-240816D01*
X1190259Y-249999D02*
X1181075D01*
X1190259Y-240816D01*
Y-238520D01*
X1187963Y-236224D01*
X1183371D01*
X1181075Y-238520D01*
X1194850D02*
X1197146Y-236224D01*
X1201738D01*
X1204034Y-238520D01*
Y-247704D01*
X1201738Y-249999D01*
X1197146D01*
X1194850Y-247704D01*
Y-238520D01*
X1208626Y-249999D02*
X1213217D01*
X1210921D01*
Y-236224D01*
X1208626Y-238520D01*
X1220105Y-247704D02*
X1222400Y-249999D01*
X1226992D01*
X1229288Y-247704D01*
Y-238520D01*
X1226992Y-236224D01*
X1222400D01*
X1220105Y-238520D01*
Y-240816D01*
X1222400Y-243112D01*
X1229288D01*
X1092519Y-157484D02*
X1101703D01*
X1097111D01*
Y-171259D01*
X1113182D02*
X1108590D01*
X1106294Y-168964D01*
Y-164372D01*
X1108590Y-162076D01*
X1113182D01*
X1115478Y-164372D01*
Y-166668D01*
X1106294D01*
X1122365Y-162076D02*
X1126957D01*
X1129253Y-164372D01*
Y-171259D01*
X1122365D01*
X1120070Y-168964D01*
X1122365Y-166668D01*
X1129253D01*
X1133844Y-171259D02*
Y-162076D01*
X1136140D01*
X1138436Y-164372D01*
Y-171259D01*
Y-164372D01*
X1140732Y-162076D01*
X1143028Y-164372D01*
Y-171259D01*
X1147620Y-173555D02*
X1156803D01*
X1170578Y-159780D02*
X1168282Y-157484D01*
X1163691D01*
X1161395Y-159780D01*
Y-162076D01*
X1163691Y-164372D01*
X1168282D01*
X1170578Y-166668D01*
Y-168964D01*
X1168282Y-171259D01*
X1163691D01*
X1161395Y-168964D01*
X1184353Y-162076D02*
X1177466D01*
X1175170Y-164372D01*
Y-168964D01*
X1177466Y-171259D01*
X1184353D01*
X1188945Y-157484D02*
Y-171259D01*
Y-164372D01*
X1191241Y-162076D01*
X1195832D01*
X1198128Y-164372D01*
Y-171259D01*
X1209608D02*
X1205016D01*
X1202720Y-168964D01*
Y-164372D01*
X1205016Y-162076D01*
X1209608D01*
X1211903Y-164372D01*
Y-166668D01*
X1202720D01*
X1216495Y-171259D02*
X1221087D01*
X1218791D01*
Y-162076D01*
X1216495D01*
X1227974D02*
Y-171259D01*
Y-166668D01*
X1230270Y-164372D01*
X1232566Y-162076D01*
X1234862D01*
X1248637Y-171259D02*
X1244045D01*
X1241749Y-168964D01*
Y-164372D01*
X1244045Y-162076D01*
X1248637D01*
X1250933Y-164372D01*
Y-166668D01*
X1241749D01*
X1255524Y-173555D02*
X1264708D01*
X1269300Y-171259D02*
Y-157484D01*
X1273891Y-162076D01*
X1278483Y-157484D01*
Y-171259D01*
X1285370Y-162076D02*
X1289962D01*
X1292258Y-164372D01*
Y-171259D01*
X1285370D01*
X1283075Y-168964D01*
X1285370Y-166668D01*
X1292258D01*
X1299146Y-162076D02*
X1303737D01*
X1306033Y-164372D01*
Y-171259D01*
X1299146D01*
X1296850Y-168964D01*
X1299146Y-166668D01*
X1306033D01*
X1310625Y-162076D02*
Y-171259D01*
Y-166668D01*
X1312921Y-164372D01*
X1315216Y-162076D01*
X1317512D01*
X1326696Y-159780D02*
Y-162076D01*
X1324400D01*
X1328992D01*
X1326696D01*
Y-168964D01*
X1328992Y-171259D01*
X1342767D02*
X1338175D01*
X1335879Y-168964D01*
Y-164372D01*
X1338175Y-162076D01*
X1342767D01*
X1345062Y-164372D01*
Y-166668D01*
X1335879D01*
X1349654Y-171259D02*
Y-162076D01*
X1356542D01*
X1358838Y-164372D01*
Y-171259D01*
M02*
