G04*
G04 #@! TF.GenerationSoftware,Altium Limited,Altium Designer,18.1.11 (251)*
G04*
G04 Layer_Color=2752767*
%FSLAX25Y25*%
%MOIN*%
G70*
G01*
G75*
%ADD10C,0.00394*%
%ADD12C,0.00984*%
%ADD13C,0.00787*%
%ADD15C,0.01575*%
%ADD111C,0.01000*%
%ADD113C,0.00200*%
%ADD114C,0.01600*%
%ADD115C,0.01400*%
G36*
X933611Y-168112D02*
X935329D01*
Y-168399D01*
X936188D01*
Y-168685D01*
X937047D01*
Y-168971D01*
X937905D01*
Y-169258D01*
X938478D01*
Y-169544D01*
X938764D01*
Y-169830D01*
X939337D01*
Y-170117D01*
X939623D01*
Y-170403D01*
X940196D01*
Y-170689D01*
X940482D01*
Y-170975D01*
X940769D01*
Y-171262D01*
X941055D01*
Y-171548D01*
X941341D01*
Y-171834D01*
X941628D01*
Y-172121D01*
X941914D01*
Y-172407D01*
Y-172693D01*
X942200D01*
Y-172980D01*
X942486D01*
Y-173266D01*
Y-173552D01*
X942773D01*
Y-173839D01*
X943059D01*
Y-174125D01*
Y-174411D01*
X943345D01*
Y-174698D01*
Y-174984D01*
Y-175270D01*
X943632D01*
Y-175557D01*
Y-175843D01*
Y-176129D01*
X943918D01*
Y-176415D01*
Y-176702D01*
Y-176988D01*
Y-177274D01*
X944204D01*
Y-177561D01*
Y-177847D01*
Y-178133D01*
Y-178420D01*
Y-178706D01*
X944491D01*
Y-178992D01*
Y-179279D01*
Y-179565D01*
Y-179851D01*
Y-180138D01*
Y-180424D01*
Y-180710D01*
Y-180997D01*
Y-181283D01*
Y-181569D01*
Y-181855D01*
Y-182142D01*
Y-182428D01*
Y-182714D01*
Y-183001D01*
Y-183287D01*
Y-183573D01*
Y-183860D01*
Y-184146D01*
Y-184432D01*
X944204D01*
Y-184719D01*
Y-185005D01*
Y-185291D01*
Y-185577D01*
Y-185864D01*
Y-186150D01*
Y-186436D01*
X943918D01*
Y-186723D01*
Y-187009D01*
Y-187295D01*
Y-187582D01*
Y-187868D01*
X943632D01*
Y-188154D01*
Y-188441D01*
Y-188727D01*
Y-189013D01*
Y-189299D01*
X943345D01*
Y-189586D01*
Y-189872D01*
Y-190158D01*
X943059D01*
Y-190445D01*
Y-190731D01*
Y-191017D01*
Y-191304D01*
X942773D01*
Y-191590D01*
Y-191876D01*
Y-192163D01*
X942486D01*
Y-192449D01*
Y-192735D01*
X942200D01*
Y-193022D01*
Y-193308D01*
Y-193594D01*
X941914D01*
Y-193880D01*
Y-194167D01*
X941628D01*
Y-194453D01*
Y-194739D01*
X941341D01*
Y-195026D01*
Y-195312D01*
X941055D01*
Y-195598D01*
X940769D01*
Y-195885D01*
Y-196171D01*
X940482D01*
Y-196457D01*
X940196D01*
Y-196744D01*
X939910D01*
Y-197030D01*
Y-197316D01*
X939623D01*
Y-197603D01*
X939337D01*
Y-197889D01*
X939051D01*
Y-198175D01*
X938764D01*
Y-198461D01*
X938478D01*
Y-198748D01*
X937905D01*
Y-199034D01*
X937619D01*
Y-199320D01*
X937047D01*
Y-199607D01*
X936760D01*
Y-199893D01*
X936188D01*
Y-200179D01*
X935329D01*
Y-200466D01*
X934470D01*
Y-200752D01*
X933611D01*
Y-201038D01*
X931893D01*
Y-201325D01*
X926739D01*
Y-201038D01*
X924162D01*
Y-200752D01*
X922158D01*
Y-200466D01*
X920727D01*
Y-200179D01*
X919295D01*
Y-199893D01*
X917863D01*
Y-200179D01*
Y-200466D01*
Y-200752D01*
Y-201038D01*
Y-201325D01*
Y-201611D01*
Y-201897D01*
X917577D01*
Y-202184D01*
Y-202470D01*
Y-202756D01*
Y-203043D01*
Y-203329D01*
Y-203615D01*
X917291D01*
Y-203902D01*
Y-204188D01*
Y-204474D01*
Y-204760D01*
Y-205047D01*
Y-205333D01*
X917005D01*
Y-205619D01*
Y-205906D01*
Y-206192D01*
Y-206478D01*
Y-206765D01*
Y-207051D01*
Y-207337D01*
X916718D01*
Y-207624D01*
Y-207910D01*
Y-208196D01*
Y-208483D01*
Y-208769D01*
Y-209055D01*
X916432D01*
Y-209341D01*
Y-209628D01*
Y-209914D01*
Y-210200D01*
Y-210487D01*
Y-210773D01*
X916146D01*
Y-211059D01*
Y-211346D01*
Y-211632D01*
Y-211918D01*
Y-212205D01*
Y-212491D01*
Y-212777D01*
X915859D01*
Y-213064D01*
Y-213350D01*
Y-213636D01*
Y-213922D01*
Y-214209D01*
Y-214495D01*
X915573D01*
Y-214781D01*
Y-215068D01*
Y-215354D01*
Y-215640D01*
Y-215927D01*
Y-216213D01*
X915287D01*
Y-216499D01*
Y-216786D01*
Y-217072D01*
Y-217358D01*
Y-217645D01*
Y-217931D01*
Y-218217D01*
X901830D01*
Y-217931D01*
X902116D01*
Y-217645D01*
Y-217358D01*
Y-217072D01*
Y-216786D01*
Y-216499D01*
X902403D01*
Y-216213D01*
Y-215927D01*
Y-215640D01*
Y-215354D01*
Y-215068D01*
Y-214781D01*
Y-214495D01*
X902689D01*
Y-214209D01*
Y-213922D01*
Y-213636D01*
Y-213350D01*
Y-213064D01*
Y-212777D01*
X902975D01*
Y-212491D01*
Y-212205D01*
Y-211918D01*
Y-211632D01*
Y-211346D01*
Y-211059D01*
X903262D01*
Y-210773D01*
Y-210487D01*
Y-210200D01*
Y-209914D01*
Y-209628D01*
Y-209341D01*
Y-209055D01*
X903548D01*
Y-208769D01*
Y-208483D01*
Y-208196D01*
Y-207910D01*
Y-207624D01*
Y-207337D01*
X903834D01*
Y-207051D01*
Y-206765D01*
Y-206478D01*
Y-206192D01*
Y-205906D01*
Y-205619D01*
X904121D01*
Y-205333D01*
Y-205047D01*
Y-204760D01*
Y-204474D01*
Y-204188D01*
Y-203902D01*
X904407D01*
Y-203615D01*
Y-203329D01*
Y-203043D01*
Y-202756D01*
Y-202470D01*
Y-202184D01*
Y-201897D01*
X904693D01*
Y-201611D01*
Y-201325D01*
Y-201038D01*
Y-200752D01*
Y-200466D01*
Y-200179D01*
X904979D01*
Y-199893D01*
Y-199607D01*
Y-199320D01*
Y-199034D01*
Y-198748D01*
Y-198461D01*
X905266D01*
Y-198175D01*
Y-197889D01*
Y-197603D01*
Y-197316D01*
Y-197030D01*
Y-196744D01*
X905552D01*
Y-196457D01*
Y-196171D01*
Y-195885D01*
Y-195598D01*
Y-195312D01*
Y-195026D01*
Y-194739D01*
X905838D01*
Y-194453D01*
Y-194167D01*
Y-193880D01*
Y-193594D01*
Y-193308D01*
Y-193022D01*
X906125D01*
Y-192735D01*
Y-192449D01*
Y-192163D01*
Y-191876D01*
Y-191590D01*
Y-191304D01*
X906411D01*
Y-191017D01*
Y-190731D01*
Y-190445D01*
Y-190158D01*
Y-189872D01*
Y-189586D01*
Y-189299D01*
X906697D01*
Y-189013D01*
Y-188727D01*
Y-188441D01*
Y-188154D01*
Y-187868D01*
Y-187582D01*
X906984D01*
Y-187295D01*
Y-187009D01*
Y-186723D01*
Y-186436D01*
Y-186150D01*
Y-185864D01*
X907270D01*
Y-185577D01*
Y-185291D01*
Y-185005D01*
Y-184719D01*
Y-184432D01*
Y-184146D01*
X907556D01*
Y-183860D01*
Y-183573D01*
Y-183287D01*
Y-183001D01*
Y-182714D01*
Y-182428D01*
Y-182142D01*
X907843D01*
Y-181855D01*
Y-181569D01*
Y-181283D01*
Y-180997D01*
Y-180710D01*
Y-180424D01*
X908129D01*
Y-180138D01*
Y-179851D01*
Y-179565D01*
Y-179279D01*
Y-178992D01*
Y-178706D01*
X908415D01*
Y-178420D01*
Y-178133D01*
Y-177847D01*
Y-177561D01*
Y-177274D01*
Y-176988D01*
Y-176702D01*
X908702D01*
Y-176415D01*
Y-176129D01*
Y-175843D01*
Y-175557D01*
Y-175270D01*
Y-174984D01*
X908988D01*
Y-174698D01*
Y-174411D01*
Y-174125D01*
Y-173839D01*
Y-173552D01*
Y-173266D01*
X909274D01*
Y-172980D01*
Y-172693D01*
Y-172407D01*
Y-172121D01*
Y-171834D01*
Y-171548D01*
Y-171262D01*
X909560D01*
Y-170975D01*
Y-170689D01*
Y-170403D01*
Y-170117D01*
Y-169830D01*
Y-169544D01*
X909847D01*
Y-169258D01*
Y-168971D01*
Y-168685D01*
Y-168399D01*
Y-168112D01*
Y-167826D01*
X933611D01*
Y-168112D01*
D02*
G37*
G36*
X964819Y-164677D02*
Y-164963D01*
X964532D01*
Y-165249D01*
Y-165535D01*
Y-165822D01*
Y-166108D01*
Y-166394D01*
Y-166681D01*
X964246D01*
Y-166967D01*
Y-167253D01*
Y-167540D01*
Y-167826D01*
Y-168112D01*
Y-168399D01*
X963960D01*
Y-168685D01*
Y-168971D01*
Y-169258D01*
Y-169544D01*
Y-169830D01*
Y-170117D01*
Y-170403D01*
X963674D01*
Y-170689D01*
Y-170975D01*
Y-171262D01*
Y-171548D01*
Y-171834D01*
Y-172121D01*
X963387D01*
Y-172407D01*
Y-172693D01*
Y-172980D01*
Y-173266D01*
Y-173552D01*
Y-173839D01*
X963101D01*
Y-174125D01*
Y-174411D01*
Y-174698D01*
Y-174984D01*
Y-175270D01*
Y-175557D01*
Y-175843D01*
X962815D01*
Y-176129D01*
Y-176415D01*
Y-176702D01*
Y-176988D01*
Y-177274D01*
Y-177561D01*
X962528D01*
Y-177847D01*
Y-178133D01*
Y-178420D01*
Y-178706D01*
Y-178992D01*
Y-179279D01*
X962242D01*
Y-179565D01*
Y-179851D01*
Y-180138D01*
Y-180424D01*
Y-180710D01*
Y-180997D01*
X961956D01*
Y-181283D01*
Y-181569D01*
Y-181855D01*
Y-182142D01*
Y-182428D01*
Y-182714D01*
Y-183001D01*
X961669D01*
Y-183287D01*
Y-183573D01*
Y-183860D01*
Y-184146D01*
Y-184432D01*
Y-184719D01*
X961383D01*
Y-185005D01*
Y-185291D01*
X961956D01*
Y-185005D01*
X962242D01*
Y-184719D01*
X962528D01*
Y-184432D01*
X963101D01*
Y-184146D01*
X963387D01*
Y-183860D01*
X963674D01*
Y-183573D01*
X964246D01*
Y-183287D01*
X964819D01*
Y-183001D01*
X965105D01*
Y-182714D01*
X965678D01*
Y-182428D01*
X966537D01*
Y-182142D01*
X967109D01*
Y-181855D01*
X967968D01*
Y-181569D01*
X969400D01*
Y-181283D01*
X975699D01*
Y-181569D01*
X976844D01*
Y-181855D01*
X977703D01*
Y-182142D01*
X978275D01*
Y-182428D01*
X978562D01*
Y-182714D01*
X979134D01*
Y-183001D01*
X979421D01*
Y-183287D01*
X979707D01*
Y-183573D01*
X979993D01*
Y-183860D01*
X980280D01*
Y-184146D01*
Y-184432D01*
X980566D01*
Y-184719D01*
Y-185005D01*
X980852D01*
Y-185291D01*
Y-185577D01*
Y-185864D01*
X981139D01*
Y-186150D01*
Y-186436D01*
Y-186723D01*
Y-187009D01*
X981425D01*
Y-187295D01*
Y-187582D01*
Y-187868D01*
Y-188154D01*
Y-188441D01*
Y-188727D01*
Y-189013D01*
Y-189299D01*
Y-189586D01*
Y-189872D01*
Y-190158D01*
Y-190445D01*
Y-190731D01*
Y-191017D01*
Y-191304D01*
Y-191590D01*
Y-191876D01*
Y-192163D01*
X981139D01*
Y-192449D01*
Y-192735D01*
Y-193022D01*
Y-193308D01*
Y-193594D01*
Y-193880D01*
Y-194167D01*
X980852D01*
Y-194453D01*
Y-194739D01*
Y-195026D01*
Y-195312D01*
Y-195598D01*
Y-195885D01*
Y-196171D01*
X980566D01*
Y-196457D01*
Y-196744D01*
Y-197030D01*
Y-197316D01*
Y-197603D01*
Y-197889D01*
X980280D01*
Y-198175D01*
Y-198461D01*
Y-198748D01*
Y-199034D01*
Y-199320D01*
Y-199607D01*
X979993D01*
Y-199893D01*
Y-200179D01*
Y-200466D01*
Y-200752D01*
Y-201038D01*
Y-201325D01*
X979707D01*
Y-201611D01*
Y-201897D01*
Y-202184D01*
Y-202470D01*
Y-202756D01*
Y-203043D01*
Y-203329D01*
X979421D01*
Y-203615D01*
Y-203902D01*
Y-204188D01*
Y-204474D01*
Y-204760D01*
Y-205047D01*
X979134D01*
Y-205333D01*
Y-205619D01*
Y-205906D01*
Y-206192D01*
Y-206478D01*
Y-206765D01*
X978848D01*
Y-207051D01*
Y-207337D01*
Y-207624D01*
Y-207910D01*
Y-208196D01*
Y-208483D01*
Y-208769D01*
X978562D01*
Y-209055D01*
Y-209341D01*
Y-209628D01*
Y-209914D01*
Y-210200D01*
Y-210487D01*
X978275D01*
Y-210773D01*
Y-211059D01*
Y-211346D01*
Y-211632D01*
Y-211918D01*
Y-212205D01*
X977989D01*
Y-212491D01*
Y-212777D01*
Y-213064D01*
Y-213350D01*
Y-213636D01*
Y-213922D01*
X977703D01*
Y-214209D01*
Y-214495D01*
Y-214781D01*
Y-215068D01*
Y-215354D01*
Y-215640D01*
Y-215927D01*
X977417D01*
Y-216213D01*
Y-216499D01*
Y-216786D01*
Y-217072D01*
Y-217358D01*
Y-217645D01*
X977130D01*
Y-217931D01*
Y-218217D01*
X963960D01*
Y-217931D01*
Y-217645D01*
X964246D01*
Y-217358D01*
Y-217072D01*
Y-216786D01*
Y-216499D01*
Y-216213D01*
Y-215927D01*
X964532D01*
Y-215640D01*
Y-215354D01*
Y-215068D01*
Y-214781D01*
Y-214495D01*
Y-214209D01*
Y-213922D01*
X964819D01*
Y-213636D01*
Y-213350D01*
Y-213064D01*
Y-212777D01*
Y-212491D01*
Y-212205D01*
X965105D01*
Y-211918D01*
Y-211632D01*
Y-211346D01*
Y-211059D01*
Y-210773D01*
Y-210487D01*
X965392D01*
Y-210200D01*
Y-209914D01*
Y-209628D01*
Y-209341D01*
Y-209055D01*
Y-208769D01*
Y-208483D01*
X965678D01*
Y-208196D01*
Y-207910D01*
Y-207624D01*
Y-207337D01*
Y-207051D01*
Y-206765D01*
X965964D01*
Y-206478D01*
Y-206192D01*
Y-205906D01*
Y-205619D01*
Y-205333D01*
Y-205047D01*
Y-204760D01*
X966250D01*
Y-204474D01*
Y-204188D01*
Y-203902D01*
Y-203615D01*
Y-203329D01*
Y-203043D01*
X966537D01*
Y-202756D01*
Y-202470D01*
Y-202184D01*
Y-201897D01*
Y-201611D01*
Y-201325D01*
X966823D01*
Y-201038D01*
Y-200752D01*
Y-200466D01*
Y-200179D01*
Y-199893D01*
Y-199607D01*
X967109D01*
Y-199320D01*
Y-199034D01*
Y-198748D01*
Y-198461D01*
Y-198175D01*
Y-197889D01*
Y-197603D01*
X967396D01*
Y-197316D01*
Y-197030D01*
Y-196744D01*
Y-196457D01*
Y-196171D01*
Y-195885D01*
X967682D01*
Y-195598D01*
Y-195312D01*
Y-195026D01*
Y-194739D01*
Y-194453D01*
Y-194167D01*
Y-193880D01*
X967968D01*
Y-193594D01*
Y-193308D01*
Y-193022D01*
Y-192735D01*
Y-192449D01*
Y-192163D01*
X967682D01*
Y-191876D01*
Y-191590D01*
X967396D01*
Y-191304D01*
X967109D01*
Y-191017D01*
X966537D01*
Y-190731D01*
X964819D01*
Y-191017D01*
X963387D01*
Y-191304D01*
X962528D01*
Y-191590D01*
X961956D01*
Y-191876D01*
X961669D01*
Y-192163D01*
X961097D01*
Y-192449D01*
X960810D01*
Y-192735D01*
X960524D01*
Y-193022D01*
Y-193308D01*
X960238D01*
Y-193594D01*
Y-193880D01*
Y-194167D01*
X959951D01*
Y-194453D01*
Y-194739D01*
Y-195026D01*
Y-195312D01*
Y-195598D01*
Y-195885D01*
X959665D01*
Y-196171D01*
Y-196457D01*
Y-196744D01*
Y-197030D01*
Y-197316D01*
Y-197603D01*
Y-197889D01*
X959379D01*
Y-198175D01*
Y-198461D01*
Y-198748D01*
Y-199034D01*
Y-199320D01*
Y-199607D01*
X959093D01*
Y-199893D01*
Y-200179D01*
Y-200466D01*
Y-200752D01*
Y-201038D01*
Y-201325D01*
X958806D01*
Y-201611D01*
Y-201897D01*
Y-202184D01*
Y-202470D01*
Y-202756D01*
Y-203043D01*
X958520D01*
Y-203329D01*
Y-203615D01*
Y-203902D01*
Y-204188D01*
Y-204474D01*
Y-204760D01*
Y-205047D01*
X958234D01*
Y-205333D01*
Y-205619D01*
Y-205906D01*
Y-206192D01*
Y-206478D01*
Y-206765D01*
X957947D01*
Y-207051D01*
Y-207337D01*
Y-207624D01*
Y-207910D01*
Y-208196D01*
Y-208483D01*
X957661D01*
Y-208769D01*
Y-209055D01*
Y-209341D01*
Y-209628D01*
Y-209914D01*
Y-210200D01*
Y-210487D01*
X957375D01*
Y-210773D01*
Y-211059D01*
Y-211346D01*
Y-211632D01*
Y-211918D01*
Y-212205D01*
X957088D01*
Y-212491D01*
Y-212777D01*
Y-213064D01*
Y-213350D01*
Y-213636D01*
Y-213922D01*
X956802D01*
Y-214209D01*
Y-214495D01*
Y-214781D01*
Y-215068D01*
Y-215354D01*
Y-215640D01*
X956516D01*
Y-215927D01*
Y-216213D01*
Y-216499D01*
Y-216786D01*
Y-217072D01*
Y-217358D01*
Y-217645D01*
X956229D01*
Y-217931D01*
Y-218217D01*
X943059D01*
Y-217931D01*
Y-217645D01*
X943345D01*
Y-217358D01*
Y-217072D01*
Y-216786D01*
Y-216499D01*
Y-216213D01*
Y-215927D01*
Y-215640D01*
X943632D01*
Y-215354D01*
Y-215068D01*
Y-214781D01*
Y-214495D01*
Y-214209D01*
Y-213922D01*
X943918D01*
Y-213636D01*
Y-213350D01*
Y-213064D01*
Y-212777D01*
Y-212491D01*
Y-212205D01*
X944204D01*
Y-211918D01*
Y-211632D01*
Y-211346D01*
Y-211059D01*
Y-210773D01*
Y-210487D01*
Y-210200D01*
X944491D01*
Y-209914D01*
Y-209628D01*
Y-209341D01*
Y-209055D01*
Y-208769D01*
Y-208483D01*
X944777D01*
Y-208196D01*
Y-207910D01*
Y-207624D01*
Y-207337D01*
Y-207051D01*
Y-206765D01*
X945063D01*
Y-206478D01*
Y-206192D01*
Y-205906D01*
Y-205619D01*
Y-205333D01*
Y-205047D01*
X945350D01*
Y-204760D01*
Y-204474D01*
Y-204188D01*
Y-203902D01*
Y-203615D01*
Y-203329D01*
Y-203043D01*
X945636D01*
Y-202756D01*
Y-202470D01*
Y-202184D01*
Y-201897D01*
Y-201611D01*
Y-201325D01*
X945922D01*
Y-201038D01*
Y-200752D01*
Y-200466D01*
Y-200179D01*
Y-199893D01*
Y-199607D01*
X946208D01*
Y-199320D01*
Y-199034D01*
Y-198748D01*
Y-198461D01*
Y-198175D01*
Y-197889D01*
Y-197603D01*
X946495D01*
Y-197316D01*
Y-197030D01*
Y-196744D01*
Y-196457D01*
Y-196171D01*
Y-195885D01*
X946781D01*
Y-195598D01*
Y-195312D01*
Y-195026D01*
Y-194739D01*
Y-194453D01*
Y-194167D01*
X947067D01*
Y-193880D01*
Y-193594D01*
Y-193308D01*
Y-193022D01*
Y-192735D01*
Y-192449D01*
X947354D01*
Y-192163D01*
Y-191876D01*
Y-191590D01*
Y-191304D01*
Y-191017D01*
Y-190731D01*
Y-190445D01*
X947640D01*
Y-190158D01*
Y-189872D01*
Y-189586D01*
Y-189299D01*
Y-189013D01*
Y-188727D01*
X947926D01*
Y-188441D01*
Y-188154D01*
Y-187868D01*
Y-187582D01*
Y-187295D01*
Y-187009D01*
X948213D01*
Y-186723D01*
Y-186436D01*
Y-186150D01*
Y-185864D01*
Y-185577D01*
Y-185291D01*
X948499D01*
Y-185005D01*
Y-184719D01*
Y-184432D01*
Y-184146D01*
Y-183860D01*
Y-183573D01*
Y-183287D01*
X948785D01*
Y-183001D01*
Y-182714D01*
Y-182428D01*
Y-182142D01*
Y-181855D01*
Y-181569D01*
X949072D01*
Y-181283D01*
Y-180997D01*
Y-180710D01*
Y-180424D01*
Y-180138D01*
Y-179851D01*
X949358D01*
Y-179565D01*
Y-179279D01*
Y-178992D01*
Y-178706D01*
Y-178420D01*
Y-178133D01*
Y-177847D01*
X949644D01*
Y-177561D01*
Y-177274D01*
Y-176988D01*
Y-176702D01*
Y-176415D01*
Y-176129D01*
X949931D01*
Y-175843D01*
Y-175557D01*
Y-175270D01*
Y-174984D01*
Y-174698D01*
Y-174411D01*
X950217D01*
Y-174125D01*
Y-173839D01*
Y-173552D01*
Y-173266D01*
Y-172980D01*
Y-172693D01*
X950503D01*
Y-172407D01*
Y-172121D01*
Y-171834D01*
Y-171548D01*
Y-171262D01*
Y-170975D01*
Y-170689D01*
X950790D01*
Y-170403D01*
Y-170117D01*
Y-169830D01*
Y-169544D01*
Y-169258D01*
Y-168971D01*
X951076D01*
Y-168685D01*
Y-168399D01*
Y-168112D01*
Y-167826D01*
Y-167540D01*
Y-167253D01*
X951362D01*
Y-166967D01*
Y-166681D01*
Y-166394D01*
Y-166108D01*
Y-165822D01*
Y-165535D01*
Y-165249D01*
X951648D01*
Y-164963D01*
Y-164677D01*
Y-164390D01*
X964819D01*
Y-164677D01*
D02*
G37*
G36*
X1066746Y-182142D02*
X1066460D01*
Y-182428D01*
X1066174D01*
Y-182714D01*
Y-183001D01*
X1065887D01*
Y-183287D01*
X1065601D01*
Y-183573D01*
X1065315D01*
Y-183860D01*
Y-184146D01*
X1065028D01*
Y-184432D01*
X1064742D01*
Y-184719D01*
X1064456D01*
Y-185005D01*
X1064169D01*
Y-185291D01*
Y-185577D01*
X1063883D01*
Y-185864D01*
X1063597D01*
Y-186150D01*
X1063310D01*
Y-186436D01*
Y-186723D01*
X1063024D01*
Y-187009D01*
X1062738D01*
Y-187295D01*
X1062451D01*
Y-187582D01*
X1062165D01*
Y-187868D01*
Y-188154D01*
X1061879D01*
Y-188441D01*
X1061593D01*
Y-188727D01*
X1061306D01*
Y-189013D01*
Y-189299D01*
X1061020D01*
Y-189586D01*
X1060734D01*
Y-189872D01*
X1060447D01*
Y-190158D01*
Y-190445D01*
X1060161D01*
Y-190731D01*
X1059875D01*
Y-191017D01*
X1059588D01*
Y-191304D01*
X1059302D01*
Y-191590D01*
Y-191876D01*
X1059016D01*
Y-192163D01*
X1058729D01*
Y-192449D01*
X1058443D01*
Y-192735D01*
Y-193022D01*
X1058157D01*
Y-193308D01*
X1057870D01*
Y-193594D01*
X1057584D01*
Y-193880D01*
Y-194167D01*
X1057298D01*
Y-194453D01*
X1057012D01*
Y-194739D01*
X1056725D01*
Y-195026D01*
X1056439D01*
Y-195312D01*
Y-195598D01*
X1056153D01*
Y-195885D01*
X1055866D01*
Y-196171D01*
X1055580D01*
Y-196457D01*
Y-196744D01*
X1055294D01*
Y-197030D01*
X1055007D01*
Y-197316D01*
X1054721D01*
Y-197603D01*
Y-197889D01*
X1054435D01*
Y-198175D01*
X1054148D01*
Y-198461D01*
X1053862D01*
Y-198748D01*
X1053576D01*
Y-199034D01*
Y-199320D01*
X1053290D01*
Y-199607D01*
X1053003D01*
Y-199893D01*
X1052717D01*
Y-200179D01*
Y-200466D01*
X1052431D01*
Y-200752D01*
X1052144D01*
Y-201038D01*
X1051858D01*
Y-201325D01*
X1051572D01*
Y-201611D01*
Y-201897D01*
X1051858D01*
Y-202184D01*
Y-202470D01*
X1052144D01*
Y-202756D01*
Y-203043D01*
X1052431D01*
Y-203329D01*
X1052717D01*
Y-203615D01*
Y-203902D01*
X1053003D01*
Y-204188D01*
Y-204474D01*
X1053290D01*
Y-204760D01*
Y-205047D01*
X1053576D01*
Y-205333D01*
Y-205619D01*
X1053862D01*
Y-205906D01*
Y-206192D01*
X1054148D01*
Y-206478D01*
Y-206765D01*
X1054435D01*
Y-207051D01*
Y-207337D01*
X1054721D01*
Y-207624D01*
Y-207910D01*
X1055007D01*
Y-208196D01*
X1055294D01*
Y-208483D01*
Y-208769D01*
X1055580D01*
Y-209055D01*
Y-209341D01*
X1055866D01*
Y-209628D01*
Y-209914D01*
X1056153D01*
Y-210200D01*
Y-210487D01*
X1056439D01*
Y-210773D01*
Y-211059D01*
X1056725D01*
Y-211346D01*
Y-211632D01*
X1057012D01*
Y-211918D01*
Y-212205D01*
X1057298D01*
Y-212491D01*
X1057584D01*
Y-212777D01*
Y-213064D01*
X1057870D01*
Y-213350D01*
Y-213636D01*
X1058157D01*
Y-213922D01*
Y-214209D01*
X1058443D01*
Y-214495D01*
Y-214781D01*
X1058729D01*
Y-215068D01*
Y-215354D01*
X1059016D01*
Y-215640D01*
Y-215927D01*
X1059302D01*
Y-216213D01*
Y-216499D01*
X1059588D01*
Y-216786D01*
X1059875D01*
Y-217072D01*
Y-217358D01*
X1060161D01*
Y-217645D01*
Y-217931D01*
X1060447D01*
Y-218217D01*
X1045273D01*
Y-217931D01*
X1044986D01*
Y-217645D01*
Y-217358D01*
Y-217072D01*
X1044700D01*
Y-216786D01*
Y-216499D01*
Y-216213D01*
X1044414D01*
Y-215927D01*
Y-215640D01*
X1044127D01*
Y-215354D01*
Y-215068D01*
Y-214781D01*
X1043841D01*
Y-214495D01*
Y-214209D01*
Y-213922D01*
X1043555D01*
Y-213636D01*
Y-213350D01*
X1043268D01*
Y-213064D01*
Y-212777D01*
Y-212491D01*
X1042982D01*
Y-212205D01*
Y-211918D01*
Y-211632D01*
X1042696D01*
Y-211346D01*
Y-211059D01*
Y-210773D01*
X1042410D01*
Y-210487D01*
X1041837D01*
Y-210773D01*
Y-211059D01*
X1041551D01*
Y-211346D01*
X1041264D01*
Y-211632D01*
Y-211918D01*
X1040978D01*
Y-212205D01*
X1040692D01*
Y-212491D01*
Y-212777D01*
X1040405D01*
Y-213064D01*
X1040119D01*
Y-213350D01*
Y-213636D01*
X1039833D01*
Y-213922D01*
X1039546D01*
Y-214209D01*
X1039260D01*
Y-214495D01*
Y-214781D01*
X1038974D01*
Y-215068D01*
X1038688D01*
Y-215354D01*
Y-215640D01*
X1038401D01*
Y-215927D01*
X1038115D01*
Y-216213D01*
Y-216499D01*
X1037829D01*
Y-216786D01*
X1037542D01*
Y-217072D01*
Y-217358D01*
X1037256D01*
Y-217645D01*
X1036970D01*
Y-217931D01*
Y-218217D01*
X1020936D01*
Y-217931D01*
X1021222D01*
Y-217645D01*
X1021509D01*
Y-217358D01*
X1021795D01*
Y-217072D01*
X1022081D01*
Y-216786D01*
Y-216499D01*
X1022368D01*
Y-216213D01*
X1022654D01*
Y-215927D01*
X1022940D01*
Y-215640D01*
X1023227D01*
Y-215354D01*
Y-215068D01*
X1023513D01*
Y-214781D01*
X1023799D01*
Y-214495D01*
X1024086D01*
Y-214209D01*
Y-213922D01*
X1024372D01*
Y-213636D01*
X1024658D01*
Y-213350D01*
X1024944D01*
Y-213064D01*
X1025231D01*
Y-212777D01*
Y-212491D01*
X1025517D01*
Y-212205D01*
X1025803D01*
Y-211918D01*
X1026090D01*
Y-211632D01*
X1026376D01*
Y-211346D01*
Y-211059D01*
X1026662D01*
Y-210773D01*
X1026949D01*
Y-210487D01*
X1027235D01*
Y-210200D01*
Y-209914D01*
X1027521D01*
Y-209628D01*
X1027808D01*
Y-209341D01*
X1028094D01*
Y-209055D01*
X1028380D01*
Y-208769D01*
Y-208483D01*
X1028667D01*
Y-208196D01*
X1028953D01*
Y-207910D01*
X1029239D01*
Y-207624D01*
Y-207337D01*
X1029525D01*
Y-207051D01*
X1029812D01*
Y-206765D01*
X1030098D01*
Y-206478D01*
X1030385D01*
Y-206192D01*
Y-205906D01*
X1030671D01*
Y-205619D01*
X1030957D01*
Y-205333D01*
X1031243D01*
Y-205047D01*
Y-204760D01*
X1031530D01*
Y-204474D01*
X1031816D01*
Y-204188D01*
X1032102D01*
Y-203902D01*
X1032389D01*
Y-203615D01*
Y-203329D01*
X1032675D01*
Y-203043D01*
X1032961D01*
Y-202756D01*
X1033248D01*
Y-202470D01*
X1033534D01*
Y-202184D01*
Y-201897D01*
X1033820D01*
Y-201611D01*
X1034107D01*
Y-201325D01*
X1034393D01*
Y-201038D01*
Y-200752D01*
X1034679D01*
Y-200466D01*
X1034966D01*
Y-200179D01*
X1035252D01*
Y-199893D01*
X1035538D01*
Y-199607D01*
Y-199320D01*
X1035824D01*
Y-199034D01*
Y-198748D01*
Y-198461D01*
X1035538D01*
Y-198175D01*
X1035252D01*
Y-197889D01*
Y-197603D01*
X1034966D01*
Y-197316D01*
Y-197030D01*
X1034679D01*
Y-196744D01*
Y-196457D01*
X1034393D01*
Y-196171D01*
Y-195885D01*
X1034107D01*
Y-195598D01*
Y-195312D01*
X1033820D01*
Y-195026D01*
Y-194739D01*
X1033534D01*
Y-194453D01*
X1033248D01*
Y-194167D01*
Y-193880D01*
X1032961D01*
Y-193594D01*
Y-193308D01*
X1032675D01*
Y-193022D01*
Y-192735D01*
X1032389D01*
Y-192449D01*
Y-192163D01*
X1032102D01*
Y-191876D01*
Y-191590D01*
X1031816D01*
Y-191304D01*
Y-191017D01*
X1031530D01*
Y-190731D01*
X1031243D01*
Y-190445D01*
Y-190158D01*
X1030957D01*
Y-189872D01*
Y-189586D01*
X1030671D01*
Y-189299D01*
Y-189013D01*
X1030385D01*
Y-188727D01*
Y-188441D01*
X1030098D01*
Y-188154D01*
Y-187868D01*
X1029812D01*
Y-187582D01*
Y-187295D01*
X1029525D01*
Y-187009D01*
Y-186723D01*
X1029239D01*
Y-186436D01*
X1028953D01*
Y-186150D01*
Y-185864D01*
X1028667D01*
Y-185577D01*
Y-185291D01*
X1028380D01*
Y-185005D01*
Y-184719D01*
X1028094D01*
Y-184432D01*
Y-184146D01*
X1027808D01*
Y-183860D01*
Y-183573D01*
X1027521D01*
Y-183287D01*
Y-183001D01*
X1027235D01*
Y-182714D01*
X1026949D01*
Y-182428D01*
Y-182142D01*
X1026662D01*
Y-181855D01*
X1042410D01*
Y-182142D01*
X1042696D01*
Y-182428D01*
Y-182714D01*
Y-183001D01*
X1042982D01*
Y-183287D01*
Y-183573D01*
Y-183860D01*
X1043268D01*
Y-184146D01*
Y-184432D01*
Y-184719D01*
X1043555D01*
Y-185005D01*
Y-185291D01*
Y-185577D01*
X1043841D01*
Y-185864D01*
Y-186150D01*
Y-186436D01*
X1044127D01*
Y-186723D01*
Y-187009D01*
Y-187295D01*
X1044414D01*
Y-187582D01*
Y-187868D01*
Y-188154D01*
X1044700D01*
Y-188441D01*
Y-188727D01*
Y-189013D01*
X1044986D01*
Y-189299D01*
Y-189586D01*
Y-189872D01*
Y-190158D01*
X1045559D01*
Y-189872D01*
X1045845D01*
Y-189586D01*
X1046132D01*
Y-189299D01*
Y-189013D01*
X1046418D01*
Y-188727D01*
X1046704D01*
Y-188441D01*
Y-188154D01*
X1046991D01*
Y-187868D01*
X1047277D01*
Y-187582D01*
Y-187295D01*
X1047563D01*
Y-187009D01*
X1047850D01*
Y-186723D01*
Y-186436D01*
X1048136D01*
Y-186150D01*
X1048422D01*
Y-185864D01*
Y-185577D01*
X1048709D01*
Y-185291D01*
X1048995D01*
Y-185005D01*
Y-184719D01*
X1049281D01*
Y-184432D01*
X1049567D01*
Y-184146D01*
Y-183860D01*
X1049854D01*
Y-183573D01*
X1050140D01*
Y-183287D01*
Y-183001D01*
X1050426D01*
Y-182714D01*
X1050713D01*
Y-182428D01*
Y-182142D01*
X1050999D01*
Y-181855D01*
X1066746D01*
Y-182142D01*
D02*
G37*
G36*
X1022654D02*
Y-182428D01*
Y-182714D01*
Y-183001D01*
Y-183287D01*
Y-183573D01*
Y-183860D01*
Y-184146D01*
Y-184432D01*
Y-184719D01*
Y-185005D01*
Y-185291D01*
Y-185577D01*
Y-185864D01*
Y-186150D01*
Y-186436D01*
Y-186723D01*
Y-187009D01*
Y-187295D01*
Y-187582D01*
Y-187868D01*
X1022368D01*
Y-188154D01*
Y-188441D01*
Y-188727D01*
Y-189013D01*
Y-189299D01*
X1022081D01*
Y-189586D01*
Y-189872D01*
Y-190158D01*
Y-190445D01*
X1021795D01*
Y-190731D01*
Y-191017D01*
Y-191304D01*
Y-191590D01*
X1021509D01*
Y-191876D01*
Y-192163D01*
Y-192449D01*
X1021222D01*
Y-192735D01*
Y-193022D01*
Y-193308D01*
X1020936D01*
Y-193594D01*
Y-193880D01*
Y-194167D01*
X1020650D01*
Y-194453D01*
Y-194739D01*
Y-195026D01*
X1020364D01*
Y-195312D01*
Y-195598D01*
X1020077D01*
Y-195885D01*
Y-196171D01*
X1019791D01*
Y-196457D01*
Y-196744D01*
Y-197030D01*
X1019505D01*
Y-197316D01*
Y-197603D01*
X1019218D01*
Y-197889D01*
Y-198175D01*
Y-198461D01*
X1018932D01*
Y-198748D01*
Y-199034D01*
X1018646D01*
Y-199320D01*
Y-199607D01*
Y-199893D01*
X1018359D01*
Y-200179D01*
Y-200466D01*
X1018073D01*
Y-200752D01*
Y-201038D01*
Y-201325D01*
X1017787D01*
Y-201611D01*
Y-201897D01*
X1017500D01*
Y-202184D01*
Y-202470D01*
Y-202756D01*
X1017214D01*
Y-203043D01*
Y-203329D01*
X1016928D01*
Y-203615D01*
Y-203902D01*
Y-204188D01*
X1016642D01*
Y-204474D01*
Y-204760D01*
X1016355D01*
Y-205047D01*
Y-205333D01*
Y-205619D01*
X1016069D01*
Y-205906D01*
Y-206192D01*
X1015783D01*
Y-206478D01*
Y-206765D01*
Y-207051D01*
X1015496D01*
Y-207337D01*
Y-207624D01*
X1015210D01*
Y-207910D01*
Y-208196D01*
Y-208483D01*
X1014924D01*
Y-208769D01*
Y-209055D01*
X1014637D01*
Y-209341D01*
Y-209628D01*
Y-209914D01*
X1014351D01*
Y-210200D01*
Y-210487D01*
X1014065D01*
Y-210773D01*
Y-211059D01*
Y-211346D01*
X1013778D01*
Y-211632D01*
Y-211918D01*
X1013492D01*
Y-212205D01*
Y-212491D01*
Y-212777D01*
X1013206D01*
Y-213064D01*
Y-213350D01*
X1012919D01*
Y-213636D01*
Y-213922D01*
Y-214209D01*
X1012633D01*
Y-214495D01*
Y-214781D01*
X1012347D01*
Y-215068D01*
Y-215354D01*
Y-215640D01*
X1012060D01*
Y-215927D01*
Y-216213D01*
X1011774D01*
Y-216499D01*
Y-216786D01*
Y-217072D01*
X1011488D01*
Y-217358D01*
Y-217645D01*
X1011201D01*
Y-217931D01*
Y-218217D01*
Y-218503D01*
X1010915D01*
Y-218790D01*
Y-219076D01*
X1010629D01*
Y-219362D01*
Y-219649D01*
X1010343D01*
Y-219935D01*
Y-220221D01*
X1010056D01*
Y-220508D01*
Y-220794D01*
Y-221080D01*
X1009770D01*
Y-221367D01*
X1009484D01*
Y-221653D01*
Y-221939D01*
Y-222225D01*
X1009197D01*
Y-222512D01*
X1008911D01*
Y-222798D01*
Y-223084D01*
X1008625D01*
Y-223371D01*
Y-223657D01*
X1008338D01*
Y-223943D01*
Y-224230D01*
X1008052D01*
Y-224516D01*
Y-224802D01*
X1007766D01*
Y-225089D01*
X1007479D01*
Y-225375D01*
Y-225661D01*
X1007193D01*
Y-225948D01*
Y-226234D01*
X1006907D01*
Y-226520D01*
X1006621D01*
Y-226806D01*
X1006334D01*
Y-227093D01*
Y-227379D01*
X1006048D01*
Y-227665D01*
X1005762D01*
Y-227952D01*
Y-228238D01*
X1005475D01*
Y-228524D01*
X1005189D01*
Y-228811D01*
X1004903D01*
Y-229097D01*
Y-229383D01*
X1004616D01*
Y-229670D01*
X1004330D01*
Y-229956D01*
X1004044D01*
Y-230242D01*
X1003757D01*
Y-230529D01*
X1003471D01*
Y-230815D01*
Y-231101D01*
X1003185D01*
Y-231387D01*
X1002898D01*
Y-231674D01*
X1002612D01*
Y-231960D01*
X1002326D01*
Y-232246D01*
X1002040D01*
Y-232533D01*
X1001753D01*
Y-232819D01*
X1001467D01*
Y-233105D01*
X1000894D01*
Y-233392D01*
X1000608D01*
Y-233678D01*
X1000322D01*
Y-233964D01*
X1000035D01*
Y-234251D01*
X999749D01*
Y-234537D01*
X999176D01*
Y-234823D01*
X998890D01*
Y-235110D01*
X998317D01*
Y-235396D01*
X998031D01*
Y-235682D01*
X997458D01*
Y-235968D01*
X997172D01*
Y-236255D01*
X996600D01*
Y-236541D01*
X996027D01*
Y-236827D01*
X995454D01*
Y-237114D01*
X994882D01*
Y-237400D01*
X994309D01*
Y-237686D01*
X993450D01*
Y-237973D01*
X992877D01*
Y-238259D01*
X992019D01*
Y-238545D01*
X990873D01*
Y-238832D01*
X989728D01*
Y-239118D01*
X988010D01*
Y-239404D01*
X986006D01*
Y-239691D01*
X985720D01*
Y-239404D01*
Y-239118D01*
Y-238832D01*
Y-238545D01*
Y-238259D01*
Y-237973D01*
Y-237686D01*
Y-237400D01*
Y-237114D01*
Y-236827D01*
Y-236541D01*
Y-236255D01*
Y-235968D01*
Y-235682D01*
Y-235396D01*
Y-235110D01*
Y-234823D01*
Y-234537D01*
Y-234251D01*
Y-233964D01*
Y-233678D01*
Y-233392D01*
Y-233105D01*
Y-232819D01*
Y-232533D01*
Y-232246D01*
Y-231960D01*
Y-231674D01*
Y-231387D01*
Y-231101D01*
Y-230815D01*
Y-230529D01*
Y-230242D01*
X986292D01*
Y-229956D01*
X986865D01*
Y-229670D01*
X987438D01*
Y-229383D01*
X988010D01*
Y-229097D01*
X988583D01*
Y-228811D01*
X989155D01*
Y-228524D01*
X989442D01*
Y-228238D01*
X990014D01*
Y-227952D01*
X990301D01*
Y-227665D01*
X990873D01*
Y-227379D01*
X991160D01*
Y-227093D01*
X991446D01*
Y-226806D01*
X992019D01*
Y-226520D01*
X992305D01*
Y-226234D01*
X992591D01*
Y-225948D01*
X992877D01*
Y-225661D01*
X993164D01*
Y-225375D01*
X993450D01*
Y-225089D01*
X993736D01*
Y-224802D01*
X994023D01*
Y-224516D01*
X994309D01*
Y-224230D01*
X994595D01*
Y-223943D01*
X994882D01*
Y-223657D01*
X995168D01*
Y-223371D01*
Y-223084D01*
X995454D01*
Y-222798D01*
X995741D01*
Y-222512D01*
X996027D01*
Y-222225D01*
Y-221939D01*
X996313D01*
Y-221653D01*
X996600D01*
Y-221367D01*
Y-221080D01*
X996886D01*
Y-220794D01*
Y-220508D01*
X997172D01*
Y-220221D01*
X997458D01*
Y-219935D01*
Y-219649D01*
X997745D01*
Y-219362D01*
Y-219076D01*
X998031D01*
Y-218790D01*
Y-218503D01*
X996313D01*
Y-218217D01*
X994309D01*
Y-217931D01*
X993164D01*
Y-217645D01*
X992591D01*
Y-217358D01*
X991732D01*
Y-217072D01*
X991160D01*
Y-216786D01*
X990873D01*
Y-216499D01*
X990301D01*
Y-216213D01*
X990014D01*
Y-215927D01*
X989728D01*
Y-215640D01*
X989442D01*
Y-215354D01*
X989155D01*
Y-215068D01*
X988869D01*
Y-214781D01*
Y-214495D01*
X988583D01*
Y-214209D01*
X988297D01*
Y-213922D01*
Y-213636D01*
X988010D01*
Y-213350D01*
Y-213064D01*
X987724D01*
Y-212777D01*
Y-212491D01*
X987438D01*
Y-212205D01*
Y-211918D01*
Y-211632D01*
X987151D01*
Y-211346D01*
Y-211059D01*
Y-210773D01*
Y-210487D01*
X986865D01*
Y-210200D01*
Y-209914D01*
Y-209628D01*
Y-209341D01*
Y-209055D01*
Y-208769D01*
Y-208483D01*
X986579D01*
Y-208196D01*
Y-207910D01*
Y-207624D01*
Y-207337D01*
Y-207051D01*
Y-206765D01*
Y-206478D01*
Y-206192D01*
Y-205906D01*
Y-205619D01*
Y-205333D01*
Y-205047D01*
Y-204760D01*
Y-204474D01*
Y-204188D01*
X986292D01*
Y-203902D01*
Y-203615D01*
Y-203329D01*
Y-203043D01*
Y-202756D01*
Y-202470D01*
Y-202184D01*
Y-201897D01*
Y-201611D01*
Y-201325D01*
Y-201038D01*
Y-200752D01*
Y-200466D01*
Y-200179D01*
Y-199893D01*
X986006D01*
Y-199607D01*
Y-199320D01*
Y-199034D01*
Y-198748D01*
Y-198461D01*
Y-198175D01*
Y-197889D01*
Y-197603D01*
Y-197316D01*
Y-197030D01*
Y-196744D01*
Y-196457D01*
Y-196171D01*
Y-195885D01*
Y-195598D01*
Y-195312D01*
X985720D01*
Y-195026D01*
Y-194739D01*
Y-194453D01*
Y-194167D01*
Y-193880D01*
Y-193594D01*
Y-193308D01*
Y-193022D01*
Y-192735D01*
Y-192449D01*
Y-192163D01*
Y-191876D01*
Y-191590D01*
Y-191304D01*
Y-191017D01*
Y-190731D01*
X985433D01*
Y-190445D01*
Y-190158D01*
Y-189872D01*
Y-189586D01*
Y-189299D01*
Y-189013D01*
Y-188727D01*
Y-188441D01*
Y-188154D01*
Y-187868D01*
Y-187582D01*
Y-187295D01*
Y-187009D01*
Y-186723D01*
X985147D01*
Y-186436D01*
Y-186150D01*
Y-185864D01*
Y-185577D01*
Y-185291D01*
Y-185005D01*
Y-184719D01*
Y-184432D01*
Y-184146D01*
Y-183860D01*
Y-183573D01*
Y-183287D01*
Y-183001D01*
Y-182714D01*
Y-182428D01*
Y-182142D01*
X984861D01*
Y-181855D01*
X998604D01*
Y-182142D01*
Y-182428D01*
Y-182714D01*
Y-183001D01*
Y-183287D01*
Y-183573D01*
Y-183860D01*
Y-184146D01*
Y-184432D01*
Y-184719D01*
Y-185005D01*
Y-185291D01*
Y-185577D01*
Y-185864D01*
X998890D01*
Y-186150D01*
Y-186436D01*
Y-186723D01*
Y-187009D01*
Y-187295D01*
Y-187582D01*
Y-187868D01*
Y-188154D01*
Y-188441D01*
Y-188727D01*
Y-189013D01*
Y-189299D01*
Y-189586D01*
Y-189872D01*
Y-190158D01*
Y-190445D01*
Y-190731D01*
Y-191017D01*
Y-191304D01*
Y-191590D01*
Y-191876D01*
Y-192163D01*
Y-192449D01*
Y-192735D01*
Y-193022D01*
Y-193308D01*
Y-193594D01*
Y-193880D01*
Y-194167D01*
Y-194453D01*
Y-194739D01*
Y-195026D01*
Y-195312D01*
Y-195598D01*
Y-195885D01*
Y-196171D01*
Y-196457D01*
Y-196744D01*
Y-197030D01*
Y-197316D01*
Y-197603D01*
X999176D01*
Y-197889D01*
X998890D01*
Y-198175D01*
Y-198461D01*
X999176D01*
Y-198748D01*
Y-199034D01*
Y-199320D01*
Y-199607D01*
Y-199893D01*
Y-200179D01*
Y-200466D01*
Y-200752D01*
Y-201038D01*
Y-201325D01*
Y-201611D01*
Y-201897D01*
Y-202184D01*
Y-202470D01*
Y-202756D01*
Y-203043D01*
Y-203329D01*
Y-203615D01*
Y-203902D01*
Y-204188D01*
Y-204474D01*
Y-204760D01*
Y-205047D01*
Y-205333D01*
Y-205619D01*
Y-205906D01*
X999463D01*
Y-206192D01*
Y-206478D01*
Y-206765D01*
X999749D01*
Y-207051D01*
X1000035D01*
Y-207337D01*
X1000322D01*
Y-207624D01*
X1001181D01*
Y-207910D01*
X1002040D01*
Y-207624D01*
X1002326D01*
Y-207337D01*
Y-207051D01*
Y-206765D01*
X1002612D01*
Y-206478D01*
Y-206192D01*
X1002898D01*
Y-205906D01*
Y-205619D01*
Y-205333D01*
X1003185D01*
Y-205047D01*
Y-204760D01*
Y-204474D01*
X1003471D01*
Y-204188D01*
Y-203902D01*
Y-203615D01*
X1003757D01*
Y-203329D01*
Y-203043D01*
Y-202756D01*
X1004044D01*
Y-202470D01*
Y-202184D01*
X1004330D01*
Y-201897D01*
Y-201611D01*
Y-201325D01*
X1004616D01*
Y-201038D01*
Y-200752D01*
Y-200466D01*
X1004903D01*
Y-200179D01*
Y-199893D01*
Y-199607D01*
X1005189D01*
Y-199320D01*
Y-199034D01*
X1005475D01*
Y-198748D01*
Y-198461D01*
Y-198175D01*
X1005762D01*
Y-197889D01*
Y-197603D01*
Y-197316D01*
X1006048D01*
Y-197030D01*
Y-196744D01*
Y-196457D01*
X1006334D01*
Y-196171D01*
Y-195885D01*
X1006621D01*
Y-195598D01*
Y-195312D01*
Y-195026D01*
X1006907D01*
Y-194739D01*
Y-194453D01*
Y-194167D01*
X1007193D01*
Y-193880D01*
Y-193594D01*
Y-193308D01*
X1007479D01*
Y-193022D01*
Y-192735D01*
X1007766D01*
Y-192449D01*
Y-192163D01*
Y-191876D01*
X1008052D01*
Y-191590D01*
Y-191304D01*
Y-191017D01*
X1008338D01*
Y-190731D01*
Y-190445D01*
Y-190158D01*
X1008625D01*
Y-189872D01*
Y-189586D01*
Y-189299D01*
Y-189013D01*
X1008911D01*
Y-188727D01*
Y-188441D01*
Y-188154D01*
Y-187868D01*
X1009197D01*
Y-187582D01*
Y-187295D01*
Y-187009D01*
Y-186723D01*
Y-186436D01*
X1009484D01*
Y-186150D01*
Y-185864D01*
Y-185577D01*
Y-185291D01*
Y-185005D01*
Y-184719D01*
X1009770D01*
Y-184432D01*
Y-184146D01*
Y-183860D01*
Y-183573D01*
Y-183287D01*
Y-183001D01*
Y-182714D01*
Y-182428D01*
Y-182142D01*
Y-181855D01*
X1022654D01*
Y-182142D01*
D02*
G37*
%LPC*%
G36*
X929316Y-178992D02*
X921299D01*
Y-179279D01*
Y-179565D01*
Y-179851D01*
Y-180138D01*
Y-180424D01*
X921013D01*
Y-180710D01*
Y-180997D01*
Y-181283D01*
Y-181569D01*
Y-181855D01*
Y-182142D01*
X920727D01*
Y-182428D01*
Y-182714D01*
Y-183001D01*
Y-183287D01*
Y-183573D01*
Y-183860D01*
X920440D01*
Y-184146D01*
Y-184432D01*
Y-184719D01*
Y-185005D01*
Y-185291D01*
Y-185577D01*
X920154D01*
Y-185864D01*
Y-186150D01*
Y-186436D01*
Y-186723D01*
Y-187009D01*
Y-187295D01*
Y-187582D01*
X919868D01*
Y-187868D01*
Y-188154D01*
Y-188441D01*
Y-188727D01*
Y-189013D01*
Y-189299D01*
X919581D01*
Y-189586D01*
Y-189872D01*
Y-190158D01*
X926739D01*
Y-189872D01*
X927884D01*
Y-189586D01*
X928457D01*
Y-189299D01*
X928743D01*
Y-189013D01*
X929030D01*
Y-188727D01*
X929316D01*
Y-188441D01*
X929602D01*
Y-188154D01*
Y-187868D01*
X929889D01*
Y-187582D01*
Y-187295D01*
X930175D01*
Y-187009D01*
Y-186723D01*
X930461D01*
Y-186436D01*
Y-186150D01*
Y-185864D01*
Y-185577D01*
X930748D01*
Y-185291D01*
Y-185005D01*
Y-184719D01*
Y-184432D01*
Y-184146D01*
X931034D01*
Y-183860D01*
Y-183573D01*
Y-183287D01*
Y-183001D01*
Y-182714D01*
Y-182428D01*
Y-182142D01*
Y-181855D01*
Y-181569D01*
Y-181283D01*
Y-180997D01*
X930748D01*
Y-180710D01*
Y-180424D01*
X930461D01*
Y-180138D01*
Y-179851D01*
X930175D01*
Y-179565D01*
X929889D01*
Y-179279D01*
X929316D01*
Y-178992D01*
D02*
G37*
%LPD*%
D10*
X4938Y422655D02*
G03*
X7921Y421420I2983J2983D01*
G01*
X-22103Y419182D02*
G03*
X-21931Y419597I-415J415D01*
G01*
X120916Y246516D02*
G03*
X120793Y246217I299J-299D01*
G01*
X-115903Y234867D02*
G03*
X-115779Y235167I-299J299D01*
G01*
X4938Y422655D02*
G03*
X264Y428354I-8630J-2312D01*
G01*
X264Y428354D02*
G03*
X-3501Y429820I-7411J-13464D01*
G01*
D02*
G03*
X-7709Y430394I-4775J-19267D01*
G01*
D02*
G03*
X-15916Y428916I-768J-19255D01*
G01*
Y428916D02*
G03*
X-19146Y426885I4789J-11197D01*
G01*
X-19146Y426885D02*
G03*
X-21279Y424007I5567J-6357D01*
G01*
X-21279D02*
G03*
X-21931Y420296I7362J-3207D01*
G01*
X120916Y246516D02*
G03*
X128159Y249360I-2895J18017D01*
G01*
D02*
G03*
X132808Y254212I-9920J14159D01*
G01*
D02*
G03*
X134486Y257166I-23157J15102D01*
G01*
X134486D02*
G03*
X135905Y260353I-43285J21190D01*
G01*
D02*
G03*
X137196Y263681I-125866J50741D01*
G01*
X139915Y270405D02*
G03*
X138489Y267062I56119J-25901D01*
G01*
X141602Y273620D02*
G03*
X139915Y270405I30697J-18160D01*
G01*
X141602Y273620D02*
G03*
X149366Y315092I-52539J31299D01*
G01*
X149366D02*
G03*
X145827Y328974I-75451J-11845D01*
G01*
X145827Y328974D02*
G03*
X139767Y342309I-82811J-29587D01*
G01*
Y342309D02*
G03*
X127177Y360796I-112363J-62993D01*
G01*
X127177Y360796D02*
G03*
X117156Y371934I-117577J-95713D01*
G01*
D02*
G03*
X106123Y382116I-122641J-121804D01*
G01*
D02*
G03*
X94330Y391339I-125918J-148862D01*
G01*
X94330Y391339D02*
G03*
X88225Y395590I-123558J-170956D01*
G01*
D02*
G03*
X43594Y415409I-77680J-114764D01*
G01*
X43594Y415409D02*
G03*
X37493Y416858I-46996J-184318D01*
G01*
X37493Y416858D02*
G03*
X31185Y418151I-47890J-217564D01*
G01*
D02*
G03*
X20808Y419992I-67172J-348460D01*
G01*
X20808D02*
G03*
X15433Y420783I-33210J-207101D01*
G01*
D02*
G03*
X9985Y421420I-21683J-161898D01*
G01*
X-22103Y419182D02*
G03*
X-28792Y416838I39729J-124062D01*
G01*
D02*
G03*
X-32114Y415535I60441J-159018D01*
G01*
X-70331Y398238D02*
G03*
X-80463Y393243I226237J-471658D01*
G01*
Y393243D02*
G03*
X-90471Y388013I201132J-397094D01*
G01*
X-90471D02*
G03*
X-100330Y382514I183691J-340920D01*
G01*
X-105196Y379653D02*
G03*
X-113312Y374705I236951J-397826D01*
G01*
Y374705D02*
G03*
X-117398Y372088I123983J-198009D01*
G01*
Y372088D02*
G03*
X-121444Y369354I95944J-146385D01*
G01*
Y369354D02*
G03*
X-125409Y366489I79036J-113555D01*
G01*
X-125409D02*
G03*
X-129250Y363477I67645J-90220D01*
G01*
D02*
G03*
X-132924Y360303I59440J-72520D01*
G01*
Y360303D02*
G03*
X-136389Y356952I53303J-58572D01*
G01*
D02*
G03*
X-139601Y353408I48662J-47339D01*
G01*
X-139601D02*
G03*
X-142519Y349655I45225J-38180D01*
G01*
D02*
G03*
X-145023Y345526I24115J-17447D01*
G01*
X-145023Y345526D02*
G03*
X-145897Y343534I21074J-10428D01*
G01*
X-145897D02*
G03*
X-147310Y337519I21903J-8320D01*
G01*
X-147310Y337519D02*
G03*
X-147464Y335410I33018J-3466D01*
G01*
X-147464D02*
G03*
X-147501Y333205I46194J-1889D01*
G01*
X-147501Y333205D02*
G03*
X-147448Y330874I72707J491D01*
G01*
X-147448Y330874D02*
G03*
X-147330Y328392I138839J5369D01*
G01*
X-147067Y320280D02*
G03*
X-147330Y328392I-173867J-1575D01*
G01*
X-147042Y312106D02*
G03*
X-147033Y308012I624323J-603D01*
G01*
X-146979Y303922D02*
G03*
X-146847Y299842I172911J3564D01*
G01*
D02*
G03*
X-146601Y295779I125907J5569D01*
G01*
D02*
G03*
X-146208Y291739I98475J7547D01*
G01*
X-146208Y291739D02*
G03*
X-145632Y287729I80618J9525D01*
G01*
X-145632D02*
G03*
X-145070Y284850I52848J8831D01*
G01*
X-145070Y284850D02*
G03*
X-144723Y283423I41945J9442D01*
G01*
D02*
G03*
X-144325Y282012I36467J9527D01*
G01*
X-144325Y282012D02*
G03*
X-143870Y280621I31939J9686D01*
G01*
X-143870Y280621D02*
G03*
X-143352Y279257I28143J9900D01*
G01*
X-143352D02*
G03*
X-142766Y277924I24935J10168D01*
G01*
D02*
G03*
X-141365Y275372I21339J10047D01*
G01*
Y275372D02*
G03*
X-140540Y274163I17965J11384D01*
G01*
X-140540Y274163D02*
G03*
X-138638Y272197I8877J6681D01*
G01*
Y272196D02*
G03*
X-137496Y271317I13397J16219D01*
G01*
D02*
G03*
X-136286Y270484I21967J30626D01*
G01*
X-132689Y268092D02*
G03*
X-133838Y268889I-18856J-25958D01*
G01*
X-131649Y267273D02*
G03*
X-132689Y268092I-10781J-12612D01*
G01*
X-130762Y266413D02*
G03*
X-131649Y267273I-7195J-6537D01*
G01*
X-130073Y265497D02*
G03*
X-130762Y266413I-5213J-3202D01*
G01*
X-129367Y263847D02*
G03*
X-130073Y265497I-6985J-2012D01*
G01*
X-129113Y262893D02*
G03*
X-129367Y263847I-14317J-3307D01*
G01*
X-128901Y261884D02*
G03*
X-129113Y262893I-25401J-4823D01*
G01*
X-128529Y259791D02*
G03*
X-128333Y258752I43134J7583D01*
G01*
D02*
G03*
X-128107Y257747I21311J4273D01*
G01*
X-128107D02*
G03*
X-127831Y256799I12668J3164D01*
G01*
Y256799D02*
G03*
X-127489Y255931I7951J2631D01*
G01*
D02*
G03*
X-125987Y253181I21258J9830D01*
G01*
Y253181D02*
G03*
X-125100Y251908I16521J10563D01*
G01*
X-125100D02*
G03*
X-124120Y250726I13812J10455D01*
G01*
Y250726D02*
G03*
X-123043Y249651I11381J10321D01*
G01*
X-123043D02*
G03*
X-121868Y248699I9251J10232D01*
G01*
D02*
G03*
X-119209Y247236I7212J9952D01*
G01*
X-119209Y247236D02*
G03*
X-116123Y246468I4415J11162D01*
G01*
X125827Y238622D02*
G03*
X120793Y236056I12475J-30698D01*
G01*
X128424Y239504D02*
G03*
X125827Y238622I6596J-23675D01*
G01*
X130987Y240029D02*
G03*
X128424Y239504I2418J-18342D01*
G01*
X133452Y240128D02*
G03*
X130987Y240029I-694J-13429D01*
G01*
X135756Y239734D02*
G03*
X133452Y240128I-2812J-9513D01*
G01*
X137832Y238779D02*
G03*
X135756Y239734I-4386J-6802D01*
G01*
X139617Y237196D02*
G03*
X137832Y238779I-6180J-5169D01*
G01*
X141047Y234916D02*
G03*
X139617Y237196I-9225J-4194D01*
G01*
X142055Y231871D02*
G03*
X141047Y234916I-14774J-3207D01*
G01*
X143155Y225053D02*
G03*
X142055Y231871I-58500J-5938D01*
G01*
X143438Y221547D02*
G03*
X143155Y225053I-75922J-4358D01*
G01*
X143573Y218000D02*
G03*
X143438Y221547I-91411J-1697D01*
G01*
X143582Y214432D02*
G03*
X143573Y218000I-111523J1493D01*
G01*
X143488Y210860D02*
G03*
X143582Y214432I-139115J5431D01*
G01*
X143315Y207302D02*
G03*
X143488Y210860I-180521J10607D01*
G01*
X141881Y189653D02*
G03*
X142537Y196905I-362447J36400D01*
G01*
X141465Y185946D02*
G03*
X141881Y189653I-182671J22402D01*
G01*
X140957Y182222D02*
G03*
X141465Y185946I-136468J20519D01*
G01*
X140332Y178506D02*
G03*
X140957Y182222I-107189J19923D01*
G01*
X139567Y174825D02*
G03*
X140332Y178506I-86395J19876D01*
G01*
X138637Y171206D02*
G03*
X139567Y174825I-70599J20071D01*
G01*
X137518Y167675D02*
G03*
X138637Y171206I-58119J20369D01*
G01*
X136184Y164259D02*
G03*
X137518Y167675I-48048J20720D01*
G01*
X134613Y160983D02*
G03*
X136184Y164259I-39849J21136D01*
G01*
X132675Y157914D02*
G03*
X134613Y160983I-20164J14878D01*
G01*
X131543Y156470D02*
G03*
X132675Y157914I-22696J18955D01*
G01*
X130321Y155086D02*
G03*
X131543Y156470I-24242J22649D01*
G01*
X129021Y153763D02*
G03*
X130321Y155086I-25920J26751D01*
G01*
X127658Y152500D02*
G03*
X129021Y153763I-27709J31265D01*
G01*
X126245Y151297D02*
G03*
X127658Y152500I-29596J36189D01*
G01*
X124795Y150153D02*
G03*
X126245Y151296I-31574J41522D01*
G01*
X121837Y148043D02*
G03*
X124795Y150153I-33972J50751D01*
G01*
X118876Y146493D02*
G03*
X121837Y148043I-4674J12535D01*
G01*
X117562Y146151D02*
G03*
X118876Y146493I-1284J7625D01*
G01*
X113910Y146574D02*
G03*
X117562Y146151I2585J6351D01*
G01*
X112685Y147120D02*
G03*
X113910Y146574I5699J11140D01*
G01*
X111405Y147829D02*
G03*
X112685Y147120I11201J18708D01*
G01*
X110038Y148678D02*
G03*
X111405Y147829I25549J39599D01*
G01*
X108655Y118357D02*
G03*
X108553Y149644I-239327J14865D01*
G01*
X107039Y102648D02*
G03*
X108655Y118357I-200264J28536D01*
G01*
X104132Y87214D02*
G03*
X107039Y102648I-170507J40109D01*
G01*
X99798Y72297D02*
G03*
X104132Y87214I-141474J49189D01*
G01*
X91783Y55847D02*
G03*
X99798Y72297I-62049J40409D01*
G01*
X84891Y46991D02*
G03*
X91783Y55847I-52867J48253D01*
G01*
X80986Y42972D02*
G03*
X84891Y46991I-59740J61952D01*
G01*
X76777Y39126D02*
G03*
X80986Y42972I-69933J80751D01*
G01*
X72267Y35379D02*
G03*
X76777Y39126I-89617J112442D01*
G01*
X67458Y31655D02*
G03*
X72267Y35379I-129119J171747D01*
G01*
X47306Y16944D02*
G03*
X52389Y20573I-184156J263335D01*
G01*
X42127Y13446D02*
G03*
X47306Y16944I-104860J160840D01*
G01*
X36831Y10165D02*
G03*
X42127Y13446I-68489J116445D01*
G01*
X31398Y7186D02*
G03*
X36831Y10165I-46703J91612D01*
G01*
X25807Y4594D02*
G03*
X31398Y7186I-31807J75949D01*
G01*
X20036Y2475D02*
G03*
X25807Y4594I-20796J65564D01*
G01*
X14065Y915D02*
G03*
X20036Y2475I-12160J58751D01*
G01*
X7874Y0D02*
G03*
X14065Y916I-4929J54724D01*
G01*
X-9534Y742D02*
G03*
X7874Y0I11568J66842D01*
G01*
X-20721Y3464D02*
G03*
X-9534Y742I25310J79671D01*
G01*
X-26182Y5362D02*
G03*
X-20721Y3464I35629J93689D01*
G01*
X-31554Y7561D02*
G03*
X-26182Y5362I46316J105474D01*
G01*
X-36832Y10017D02*
G03*
X-31554Y7561I59246J120453D01*
G01*
X-42017Y12686D02*
G03*
X-36832Y10017I75318J139928D01*
G01*
X-47104Y15525D02*
G03*
X-42017Y12686I96123J166299D01*
G01*
X-63120Y25721D02*
G03*
X-47104Y15525I122836J175261D01*
G01*
X-73318Y33440D02*
G03*
X-63120Y25721I112595J138165D01*
G01*
X-82868Y41913D02*
G03*
X-73318Y33440I105372J109149D01*
G01*
X-91545Y51156D02*
G03*
X-82868Y41913I97916J83223D01*
G01*
X-95485Y56071D02*
G03*
X-91545Y51156I90701J68675D01*
G01*
X-103962Y72231D02*
G03*
X-95485Y56071I54262J18159D01*
G01*
X-105669Y77979D02*
G03*
X-103962Y72231I71691J18163D01*
G01*
X-106953Y83861D02*
G03*
X-105669Y77979I89583J16485D01*
G01*
X-107898Y89849D02*
G03*
X-106953Y83861I117631J15486D01*
G01*
X-108584Y95915D02*
G03*
X-107898Y89849I166548J15777D01*
G01*
X-109095Y102031D02*
G03*
X-108584Y95915I273515J19756D01*
G01*
X-111340Y142937D02*
G03*
X-109917Y114300I686176J19733D01*
G01*
X-111391Y144727D02*
G03*
X-111424Y145424I-25703J-864D01*
G01*
Y145424D02*
G03*
X-111475Y146020I-11232J-675D01*
G01*
Y146020D02*
G03*
X-111556Y146536I-6105J-692D01*
G01*
Y146536D02*
G03*
X-111677Y146996I-4050J-815D01*
G01*
D02*
G03*
X-112078Y147837I-3487J-1148D01*
G01*
Y147837D02*
G03*
X-112379Y148263I-4690J-2999D01*
G01*
Y148263D02*
G03*
X-112762Y148723I-7526J-5872D01*
G01*
D02*
G03*
X-113427Y149248I-2166J-2062D01*
G01*
Y149248D02*
G03*
X-113866Y149497I-4005J-6552D01*
G01*
X-113866D02*
G03*
X-114351Y149740I-6833J-13001D01*
G01*
X-115893Y150465D02*
G03*
X-115383Y150222I11607J23665D01*
G01*
X-116374Y150714D02*
G03*
X-115893Y150465I5945J10904D01*
G01*
X-116807Y150971D02*
G03*
X-116374Y150714I3692J5734D01*
G01*
X-117174Y151239D02*
G03*
X-116807Y150971I2415J2925D01*
G01*
X-118801Y152837D02*
G03*
X-117174Y151239I11385J9957D01*
G01*
X-119535Y153727D02*
G03*
X-118801Y152837I14782J11459D01*
G01*
X-120222Y154663D02*
G03*
X-119535Y153727I17995J12481D01*
G01*
X-120866Y155638D02*
G03*
X-120222Y154663I21970J13818D01*
G01*
X-121471Y156640D02*
G03*
X-120866Y155638I27018J15612D01*
G01*
X-122041Y157662D02*
G03*
X-121471Y156640I33727J18140D01*
G01*
X-122579Y158692D02*
G03*
X-122041Y157662I43347J21995D01*
G01*
X-123091Y159722D02*
G03*
X-122579Y158692I59053J28675D01*
G01*
X-126893Y169272D02*
G03*
X-123579Y160743I71857J23014D01*
G01*
X-128205Y173712D02*
G03*
X-126893Y169272I90130J24207D01*
G01*
X-129317Y178236D02*
G03*
X-128205Y173712I106287J23728D01*
G01*
X-130253Y182819D02*
G03*
X-129317Y178236I126392J23428D01*
G01*
X-131037Y187438D02*
G03*
X-130253Y182819I152236J23459D01*
G01*
X-131692Y192068D02*
G03*
X-131037Y187438I187237J24127D01*
G01*
X-132241Y196684D02*
G03*
X-131692Y192068I238721J26078D01*
G01*
X-134042Y215501D02*
G03*
X-133731Y212002I199613J15982D01*
G01*
X-134279Y219145D02*
G03*
X-134042Y215501I121450J6065D01*
G01*
X-134383Y222847D02*
G03*
X-134279Y219145I84860J544D01*
G01*
X-134298Y226523D02*
G03*
X-134383Y222847I61135J-3265D01*
G01*
X-133964Y230086D02*
G03*
X-134298Y226523I43716J-5895D01*
G01*
X-133323Y233453D02*
G03*
X-133964Y230086I30472J-7541D01*
G01*
X-132318Y236537D02*
G03*
X-133323Y233453I20527J-8394D01*
G01*
X-130891Y239252D02*
G03*
X-132318Y236537I13353J-8750D01*
G01*
X-127884Y241927D02*
G03*
X-130891Y239252I2981J-6379D01*
G01*
X-124431Y242322D02*
G03*
X-127884Y241927I-1068J-5954D01*
G01*
X-122678Y241822D02*
G03*
X-124431Y242322I-3121J-7618D01*
G01*
X-120983Y240941D02*
G03*
X-122678Y241822I-5651J-8802D01*
G01*
X-119401Y239742D02*
G03*
X-120983Y240941I-8355J-9377D01*
G01*
X-115903Y234867D02*
G03*
X-119401Y239742I-12433J-5230D01*
G01*
X-116059Y237345D02*
G03*
X-115779Y236232I7387J1264D01*
G01*
X-116210Y238593D02*
G03*
X-116059Y237345I12433J878D01*
G01*
X-116262Y239931D02*
G03*
X-116210Y238593I20340J117D01*
G01*
X-116242Y241316D02*
G03*
X-116262Y239931I33820J-1171D01*
G01*
X-116180Y242706D02*
G03*
X-116242Y241316I65697J-3650D01*
G01*
X-116103Y244056D02*
G03*
X-116040Y245325I-69766J4094D01*
G01*
D02*
G03*
X-116020Y246468I-24131J1003D01*
G01*
X7921Y421420D02*
X9985D01*
X-21931Y419597D02*
Y420296D01*
X120793Y236056D02*
Y246217D01*
X-115779Y235167D02*
Y236232D01*
X137196Y263681D02*
X138489Y267062D01*
X-35423Y414165D02*
X-32114Y415535D01*
X-38716Y412742D02*
X-35423Y414165D01*
X-41994Y411282D02*
X-38716Y412742D01*
X-45257Y409800D02*
X-41994Y411282D01*
X-48505Y408310D02*
X-45257Y409800D01*
X-51736Y406828D02*
X-48505Y408310D01*
X-54953Y405369D02*
X-51736Y406828D01*
X-65225Y400659D02*
X-54953Y405369D01*
X-70331Y398238D02*
X-65225Y400659D01*
X-105196Y379653D02*
X-100330Y382514D01*
X-147067Y320280D02*
X-147042Y316197D01*
X-147042Y312106D02*
X-147042Y316197D01*
X-147033Y308012D02*
X-146979Y303922D01*
X-136286Y270484D02*
X-135052Y269681D01*
X-133838Y268889D01*
X-128901Y261884D02*
X-128712Y260843D01*
X-128529Y259791D01*
X143083Y203779D02*
X143315Y207302D01*
X142816Y200307D02*
X143083Y203779D01*
X142537Y196905D02*
X142816Y200307D01*
X108553Y149644D02*
X110038Y148678D01*
X62351Y27881D02*
X67458Y31655D01*
X52389Y20573D02*
X62351Y27881D01*
X-109512Y108168D02*
X-109095Y102031D01*
X-109917Y114300D02*
X-109512Y108168D01*
X-111391Y144727D02*
X-111340Y142937D01*
X-114863Y149981D02*
X-114351Y149740D01*
X-115383Y150222D02*
X-114863Y149981D01*
X-123579Y160743D02*
X-123091Y159722D01*
X-132709Y201262D02*
X-132241Y196684D01*
X-133118Y205777D02*
X-132709Y201262D01*
X-133731Y212002D02*
X-133118Y205777D01*
X-116180Y242706D02*
X-116103Y244056D01*
D12*
X1244094Y-228346D02*
Y-220475D01*
X1248030D01*
X1249342Y-221786D01*
Y-224410D01*
X1248030Y-225722D01*
X1244094D01*
X1246718D02*
X1249342Y-228346D01*
X1255901D02*
X1253277D01*
X1251966Y-227034D01*
Y-224410D01*
X1253277Y-223098D01*
X1255901D01*
X1257213Y-224410D01*
Y-225722D01*
X1251966D01*
X1259837Y-223098D02*
X1262461Y-228346D01*
X1265085Y-223098D01*
X889763Y-259844D02*
Y-267716D01*
X893699D01*
X895011Y-266404D01*
Y-261157D01*
X893699Y-259844D01*
X889763D01*
X901571Y-267716D02*
X898947D01*
X897635Y-266404D01*
Y-263780D01*
X898947Y-262468D01*
X901571D01*
X902882Y-263780D01*
Y-265092D01*
X897635D01*
X905506Y-267716D02*
X909442D01*
X910754Y-266404D01*
X909442Y-265092D01*
X906818D01*
X905506Y-263780D01*
X906818Y-262468D01*
X910754D01*
X916002Y-270340D02*
X917314D01*
X918626Y-269028D01*
Y-262468D01*
X914690D01*
X913378Y-263780D01*
Y-266404D01*
X914690Y-267716D01*
X918626D01*
X921249D02*
X923873D01*
X922561D01*
Y-262468D01*
X921249D01*
X927809Y-267716D02*
Y-262468D01*
X931745D01*
X933057Y-263780D01*
Y-267716D01*
X939616D02*
X936992D01*
X935680Y-266404D01*
Y-263780D01*
X936992Y-262468D01*
X939616D01*
X940928Y-263780D01*
Y-265092D01*
X935680D01*
X943552Y-262468D02*
Y-267716D01*
Y-265092D01*
X944864Y-263780D01*
X946176Y-262468D01*
X947488D01*
X1086614Y-141734D02*
Y-149606D01*
X1090549D01*
X1091861Y-148294D01*
Y-143046D01*
X1090549Y-141734D01*
X1086614D01*
X1095797Y-149606D02*
X1098421D01*
X1099733Y-148294D01*
Y-145670D01*
X1098421Y-144358D01*
X1095797D01*
X1094485Y-145670D01*
Y-148294D01*
X1095797Y-149606D01*
X1107604Y-144358D02*
X1103669D01*
X1102357Y-145670D01*
Y-148294D01*
X1103669Y-149606D01*
X1107604D01*
X1110228Y-144358D02*
Y-148294D01*
X1111540Y-149606D01*
X1115476D01*
Y-144358D01*
X1118100Y-149606D02*
Y-144358D01*
X1119412D01*
X1120724Y-145670D01*
Y-149606D01*
Y-145670D01*
X1122036Y-144358D01*
X1123347Y-145670D01*
Y-149606D01*
X1129907D02*
X1127283D01*
X1125971Y-148294D01*
Y-145670D01*
X1127283Y-144358D01*
X1129907D01*
X1131219Y-145670D01*
Y-146982D01*
X1125971D01*
X1133843Y-149606D02*
Y-144358D01*
X1137778D01*
X1139090Y-145670D01*
Y-149606D01*
X1143026Y-143046D02*
Y-144358D01*
X1141714D01*
X1144338D01*
X1143026D01*
Y-148294D01*
X1144338Y-149606D01*
X1086614Y-181104D02*
Y-188976D01*
X1091861D01*
X1095797Y-183728D02*
X1098421D01*
X1099733Y-185040D01*
Y-188976D01*
X1095797D01*
X1094485Y-187664D01*
X1095797Y-186352D01*
X1099733D01*
X1102357Y-183728D02*
Y-187664D01*
X1103669Y-188976D01*
X1107604D01*
Y-190288D01*
X1106293Y-191600D01*
X1104981D01*
X1107604Y-188976D02*
Y-183728D01*
X1114164Y-188976D02*
X1111540D01*
X1110228Y-187664D01*
Y-185040D01*
X1111540Y-183728D01*
X1114164D01*
X1115476Y-185040D01*
Y-186352D01*
X1110228D01*
X1118100Y-183728D02*
Y-188976D01*
Y-186352D01*
X1119412Y-185040D01*
X1120724Y-183728D01*
X1122036D01*
X1133843Y-188976D02*
Y-181104D01*
X1139090Y-188976D01*
Y-181104D01*
X1143026Y-183728D02*
X1145650D01*
X1146962Y-185040D01*
Y-188976D01*
X1143026D01*
X1141714Y-187664D01*
X1143026Y-186352D01*
X1146962D01*
X1149586Y-188976D02*
Y-183728D01*
X1150898D01*
X1152209Y-185040D01*
Y-188976D01*
Y-185040D01*
X1153521Y-183728D01*
X1154833Y-185040D01*
Y-188976D01*
X1161393D02*
X1158769D01*
X1157457Y-187664D01*
Y-185040D01*
X1158769Y-183728D01*
X1161393D01*
X1162705Y-185040D01*
Y-186352D01*
X1157457D01*
X1086614Y-220475D02*
Y-228346D01*
X1090549D01*
X1091861Y-227034D01*
Y-221786D01*
X1090549Y-220475D01*
X1086614D01*
X1095797Y-223098D02*
X1098421D01*
X1099733Y-224410D01*
Y-228346D01*
X1095797D01*
X1094485Y-227034D01*
X1095797Y-225722D01*
X1099733D01*
X1103669Y-221786D02*
Y-223098D01*
X1102357D01*
X1104981D01*
X1103669D01*
Y-227034D01*
X1104981Y-228346D01*
X1112852D02*
X1110228D01*
X1108916Y-227034D01*
Y-224410D01*
X1110228Y-223098D01*
X1112852D01*
X1114164Y-224410D01*
Y-225722D01*
X1108916D01*
X1086614Y-259844D02*
Y-267716D01*
X1090549D01*
X1091861Y-266404D01*
Y-261157D01*
X1090549Y-259844D01*
X1086614D01*
X1095797Y-267716D02*
X1098421D01*
X1099733Y-266404D01*
Y-263780D01*
X1098421Y-262468D01*
X1095797D01*
X1094485Y-263780D01*
Y-266404D01*
X1095797Y-267716D01*
X1107604Y-262468D02*
X1103669D01*
X1102357Y-263780D01*
Y-266404D01*
X1103669Y-267716D01*
X1107604D01*
X1110228Y-262468D02*
Y-266404D01*
X1111540Y-267716D01*
X1115476D01*
Y-262468D01*
X1118100Y-267716D02*
Y-262468D01*
X1119412D01*
X1120724Y-263780D01*
Y-267716D01*
Y-263780D01*
X1122036Y-262468D01*
X1123347Y-263780D01*
Y-267716D01*
X1129907D02*
X1127283D01*
X1125971Y-266404D01*
Y-263780D01*
X1127283Y-262468D01*
X1129907D01*
X1131219Y-263780D01*
Y-265092D01*
X1125971D01*
X1133843Y-267716D02*
Y-262468D01*
X1137778D01*
X1139090Y-263780D01*
Y-267716D01*
X1143026Y-261157D02*
Y-262468D01*
X1141714D01*
X1144338D01*
X1143026D01*
Y-266404D01*
X1144338Y-267716D01*
X215059Y61465D02*
X1218779D01*
X215059Y-28535D02*
X1218779D01*
X215059Y-43535D02*
X1218779D01*
Y76465D01*
X215059D02*
X1218779D01*
X215059Y-43535D02*
Y76465D01*
X1078519Y-43535D02*
Y76465D01*
X967551Y-43535D02*
Y76465D01*
X848586Y-43535D02*
Y76465D01*
X774006Y-43535D02*
Y76465D01*
X715021Y-43535D02*
Y76465D01*
X565066Y-43535D02*
Y76465D01*
X491686Y-43535D02*
Y76465D01*
X441098Y-43535D02*
Y76465D01*
X324133Y-43535D02*
Y76465D01*
X270147Y-43535D02*
Y76465D01*
D13*
X1240157Y-255905D02*
Y-216535D01*
X1082677Y-177165D02*
X1358267D01*
X1082677Y-216535D02*
X1358267D01*
X885826Y-255905D02*
X1358267D01*
X885826Y-137795D02*
X1358267D01*
X885826Y-295275D02*
Y-137795D01*
X1082677Y-295275D02*
Y-137795D01*
X-295276Y874016D02*
X1358267D01*
Y-295275D02*
Y874016D01*
X-295276Y-295275D02*
Y874016D01*
Y-295275D02*
X1358267D01*
X1092519Y-281498D02*
X1096455D01*
X1094487D01*
Y-287401D01*
X1101375D02*
X1099407D01*
X1098423Y-286417D01*
Y-284449D01*
X1099407Y-283465D01*
X1101375D01*
X1102359Y-284449D01*
Y-285433D01*
X1098423D01*
X1105310Y-283465D02*
X1107278D01*
X1108262Y-284449D01*
Y-287401D01*
X1105310D01*
X1104327Y-286417D01*
X1105310Y-285433D01*
X1108262D01*
X1110230Y-287401D02*
Y-283465D01*
X1111214D01*
X1112198Y-284449D01*
Y-287401D01*
Y-284449D01*
X1113182Y-283465D01*
X1114166Y-284449D01*
Y-287401D01*
X1116134Y-288385D02*
X1120069D01*
X1125973Y-282481D02*
X1124989Y-281498D01*
X1123021D01*
X1122037Y-282481D01*
Y-283465D01*
X1123021Y-284449D01*
X1124989D01*
X1125973Y-285433D01*
Y-286417D01*
X1124989Y-287401D01*
X1123021D01*
X1122037Y-286417D01*
X1131877Y-283465D02*
X1128925D01*
X1127941Y-284449D01*
Y-286417D01*
X1128925Y-287401D01*
X1131877D01*
X1133844Y-281498D02*
Y-287401D01*
Y-284449D01*
X1134828Y-283465D01*
X1136796D01*
X1137780Y-284449D01*
Y-287401D01*
X1142700D02*
X1140732D01*
X1139748Y-286417D01*
Y-284449D01*
X1140732Y-283465D01*
X1142700D01*
X1143684Y-284449D01*
Y-285433D01*
X1139748D01*
X1145652Y-287401D02*
X1147620D01*
X1146636D01*
Y-283465D01*
X1145652D01*
X1150571D02*
Y-287401D01*
Y-285433D01*
X1151555Y-284449D01*
X1152539Y-283465D01*
X1153523D01*
X1159427Y-287401D02*
X1157459D01*
X1156475Y-286417D01*
Y-284449D01*
X1157459Y-283465D01*
X1159427D01*
X1160411Y-284449D01*
Y-285433D01*
X1156475D01*
X1162379Y-288385D02*
X1166314D01*
X1168282Y-287401D02*
Y-281498D01*
X1170250Y-283465D01*
X1172218Y-281498D01*
Y-287401D01*
X1175170Y-283465D02*
X1177138D01*
X1178121Y-284449D01*
Y-287401D01*
X1175170D01*
X1174186Y-286417D01*
X1175170Y-285433D01*
X1178121D01*
X1181073Y-283465D02*
X1183041D01*
X1184025Y-284449D01*
Y-287401D01*
X1181073D01*
X1180089Y-286417D01*
X1181073Y-285433D01*
X1184025D01*
X1185993Y-283465D02*
Y-287401D01*
Y-285433D01*
X1186977Y-284449D01*
X1187961Y-283465D01*
X1188945D01*
X1192881Y-282481D02*
Y-283465D01*
X1191897D01*
X1193865D01*
X1192881D01*
Y-286417D01*
X1193865Y-287401D01*
X1199768D02*
X1197800D01*
X1196816Y-286417D01*
Y-284449D01*
X1197800Y-283465D01*
X1199768D01*
X1200752Y-284449D01*
Y-285433D01*
X1196816D01*
X1202720Y-287401D02*
Y-283465D01*
X1205672D01*
X1206656Y-284449D01*
Y-287401D01*
X1208624Y-288385D02*
X1212559D01*
X1214527Y-282481D02*
X1215511Y-281498D01*
X1217479D01*
X1218463Y-282481D01*
Y-286417D01*
X1217479Y-287401D01*
X1215511D01*
X1214527Y-286417D01*
Y-282481D01*
X1220431D02*
X1221415Y-281498D01*
X1223382D01*
X1224366Y-282481D01*
Y-286417D01*
X1223382Y-287401D01*
X1221415D01*
X1220431Y-286417D01*
Y-282481D01*
X1226334Y-287401D02*
Y-286417D01*
X1227318D01*
Y-287401D01*
X1226334D01*
X1231254D02*
Y-281498D01*
X1234206D01*
X1235190Y-282481D01*
Y-284449D01*
X1234206Y-285433D01*
X1231254D01*
X1241093Y-283465D02*
X1238142D01*
X1237158Y-284449D01*
Y-286417D01*
X1238142Y-287401D01*
X1241093D01*
X1243061Y-281498D02*
Y-287401D01*
X1246013D01*
X1246997Y-286417D01*
Y-285433D01*
Y-284449D01*
X1246013Y-283465D01*
X1243061D01*
X1248965Y-281498D02*
Y-287401D01*
X1251917D01*
X1252900Y-286417D01*
Y-282481D01*
X1251917Y-281498D01*
X1248965D01*
X1255852Y-287401D02*
X1257820D01*
X1258804Y-286417D01*
Y-284449D01*
X1257820Y-283465D01*
X1255852D01*
X1254868Y-284449D01*
Y-286417D01*
X1255852Y-287401D01*
X1264708Y-283465D02*
X1261756D01*
X1260772Y-284449D01*
Y-286417D01*
X1261756Y-287401D01*
X1264708D01*
D15*
X907480Y-273627D02*
Y-289370D01*
X912728Y-284122D01*
X917975Y-289370D01*
Y-273627D01*
X923223Y-289370D02*
X928471D01*
X925847D01*
Y-278874D01*
X923223D01*
X936342Y-289370D02*
Y-278874D01*
X938966D01*
X941590Y-281498D01*
Y-289370D01*
Y-281498D01*
X944213Y-278874D01*
X946837Y-281498D01*
Y-289370D01*
X952085Y-273627D02*
Y-284122D01*
X957333Y-289370D01*
X962580Y-284122D01*
Y-273627D01*
X978323Y-276251D02*
X975699Y-273627D01*
X970452D01*
X967828Y-276251D01*
Y-286746D01*
X970452Y-289370D01*
X975699D01*
X978323Y-286746D01*
Y-281498D01*
X973075D01*
X1261811Y-236880D02*
X1264435Y-234257D01*
X1269682D01*
X1272306Y-236880D01*
Y-247376D01*
X1269682Y-249999D01*
X1264435D01*
X1261811Y-247376D01*
Y-236880D01*
X1277554D02*
X1280177Y-234257D01*
X1285425D01*
X1288049Y-236880D01*
Y-247376D01*
X1285425Y-249999D01*
X1280177D01*
X1277554Y-247376D01*
Y-236880D01*
X1098425Y-238520D02*
X1100721Y-236224D01*
X1105312D01*
X1107608Y-238520D01*
Y-240816D01*
X1105312Y-243112D01*
X1103016D01*
X1105312D01*
X1107608Y-245408D01*
Y-247704D01*
X1105312Y-249999D01*
X1100721D01*
X1098425Y-247704D01*
X1112200Y-238520D02*
X1114496Y-236224D01*
X1119087D01*
X1121383Y-238520D01*
Y-247704D01*
X1119087Y-249999D01*
X1114496D01*
X1112200Y-247704D01*
Y-238520D01*
X1125975Y-249999D02*
X1135158Y-240816D01*
X1139750Y-238520D02*
X1142046Y-236224D01*
X1146638D01*
X1148933Y-238520D01*
Y-247704D01*
X1146638Y-249999D01*
X1142046D01*
X1139750Y-247704D01*
Y-238520D01*
X1162708Y-236224D02*
X1158117Y-238520D01*
X1153525Y-243112D01*
Y-247704D01*
X1155821Y-249999D01*
X1160413D01*
X1162708Y-247704D01*
Y-245408D01*
X1160413Y-243112D01*
X1153525D01*
X1167300Y-249999D02*
X1176484Y-240816D01*
X1190259Y-249999D02*
X1181075D01*
X1190259Y-240816D01*
Y-238520D01*
X1187963Y-236224D01*
X1183371D01*
X1181075Y-238520D01*
X1194850D02*
X1197146Y-236224D01*
X1201738D01*
X1204034Y-238520D01*
Y-247704D01*
X1201738Y-249999D01*
X1197146D01*
X1194850Y-247704D01*
Y-238520D01*
X1208626Y-249999D02*
X1213217D01*
X1210921D01*
Y-236224D01*
X1208626Y-238520D01*
X1220105Y-247704D02*
X1222400Y-249999D01*
X1226992D01*
X1229288Y-247704D01*
Y-238520D01*
X1226992Y-236224D01*
X1222400D01*
X1220105Y-238520D01*
Y-240816D01*
X1222400Y-243112D01*
X1229288D01*
X1092519Y-157484D02*
X1101703D01*
X1097111D01*
Y-171259D01*
X1113182D02*
X1108590D01*
X1106294Y-168964D01*
Y-164372D01*
X1108590Y-162076D01*
X1113182D01*
X1115478Y-164372D01*
Y-166668D01*
X1106294D01*
X1122365Y-162076D02*
X1126957D01*
X1129253Y-164372D01*
Y-171259D01*
X1122365D01*
X1120070Y-168964D01*
X1122365Y-166668D01*
X1129253D01*
X1133844Y-171259D02*
Y-162076D01*
X1136140D01*
X1138436Y-164372D01*
Y-171259D01*
Y-164372D01*
X1140732Y-162076D01*
X1143028Y-164372D01*
Y-171259D01*
X1147620Y-173555D02*
X1156803D01*
X1170578Y-159780D02*
X1168282Y-157484D01*
X1163691D01*
X1161395Y-159780D01*
Y-162076D01*
X1163691Y-164372D01*
X1168282D01*
X1170578Y-166668D01*
Y-168964D01*
X1168282Y-171259D01*
X1163691D01*
X1161395Y-168964D01*
X1184353Y-162076D02*
X1177466D01*
X1175170Y-164372D01*
Y-168964D01*
X1177466Y-171259D01*
X1184353D01*
X1188945Y-157484D02*
Y-171259D01*
Y-164372D01*
X1191241Y-162076D01*
X1195832D01*
X1198128Y-164372D01*
Y-171259D01*
X1209608D02*
X1205016D01*
X1202720Y-168964D01*
Y-164372D01*
X1205016Y-162076D01*
X1209608D01*
X1211903Y-164372D01*
Y-166668D01*
X1202720D01*
X1216495Y-171259D02*
X1221087D01*
X1218791D01*
Y-162076D01*
X1216495D01*
X1227974D02*
Y-171259D01*
Y-166668D01*
X1230270Y-164372D01*
X1232566Y-162076D01*
X1234862D01*
X1248637Y-171259D02*
X1244045D01*
X1241749Y-168964D01*
Y-164372D01*
X1244045Y-162076D01*
X1248637D01*
X1250933Y-164372D01*
Y-166668D01*
X1241749D01*
X1255524Y-173555D02*
X1264708D01*
X1269300Y-171259D02*
Y-157484D01*
X1273891Y-162076D01*
X1278483Y-157484D01*
Y-171259D01*
X1285370Y-162076D02*
X1289962D01*
X1292258Y-164372D01*
Y-171259D01*
X1285370D01*
X1283075Y-168964D01*
X1285370Y-166668D01*
X1292258D01*
X1299146Y-162076D02*
X1303737D01*
X1306033Y-164372D01*
Y-171259D01*
X1299146D01*
X1296850Y-168964D01*
X1299146Y-166668D01*
X1306033D01*
X1310625Y-162076D02*
Y-171259D01*
Y-166668D01*
X1312921Y-164372D01*
X1315216Y-162076D01*
X1317512D01*
X1326696Y-159780D02*
Y-162076D01*
X1324400D01*
X1328992D01*
X1326696D01*
Y-168964D01*
X1328992Y-171259D01*
X1342767D02*
X1338175D01*
X1335879Y-168964D01*
Y-164372D01*
X1338175Y-162076D01*
X1342767D01*
X1345062Y-164372D01*
Y-166668D01*
X1335879D01*
X1349654Y-171259D02*
Y-162076D01*
X1356542D01*
X1358838Y-164372D01*
Y-171259D01*
X1104330Y-194886D02*
Y-208661D01*
X1111218D01*
X1113514Y-206365D01*
Y-197182D01*
X1111218Y-194886D01*
X1104330D01*
X1118105Y-199478D02*
Y-208661D01*
Y-204069D01*
X1120401Y-201773D01*
X1122697Y-199478D01*
X1124993D01*
X1131880Y-208661D02*
X1136472D01*
X1134176D01*
Y-199478D01*
X1131880D01*
X1143360Y-208661D02*
X1147951D01*
X1145656D01*
Y-194886D01*
X1143360D01*
X1154839Y-208661D02*
X1159431D01*
X1157135D01*
Y-194886D01*
X1154839D01*
X1180093D02*
Y-208661D01*
X1186981D01*
X1189277Y-206365D01*
Y-197182D01*
X1186981Y-194886D01*
X1180093D01*
X1193868Y-199478D02*
Y-208661D01*
Y-204069D01*
X1196164Y-201773D01*
X1198460Y-199478D01*
X1200756D01*
X1209939D02*
X1214531D01*
X1216827Y-201773D01*
Y-208661D01*
X1209939D01*
X1207643Y-206365D01*
X1209939Y-204069D01*
X1216827D01*
X1221418Y-199478D02*
Y-206365D01*
X1223714Y-208661D01*
X1226010Y-206365D01*
X1228306Y-208661D01*
X1230602Y-206365D01*
Y-199478D01*
X1235194Y-208661D02*
X1239785D01*
X1237490D01*
Y-199478D01*
X1235194D01*
X1246673Y-208661D02*
Y-199478D01*
X1253560D01*
X1255856Y-201773D01*
Y-208661D01*
X1265040Y-213253D02*
X1267335D01*
X1269631Y-210957D01*
Y-199478D01*
X1262744D01*
X1260448Y-201773D01*
Y-206365D01*
X1262744Y-208661D01*
X1269631D01*
D111*
X221038Y50965D02*
X227705D01*
Y57632D01*
X221038D02*
X227705D01*
X221038Y50965D02*
Y57632D01*
X224372Y35965D02*
X227705Y42632D01*
X221038D02*
X227705D01*
X221038D02*
X224372Y35965D01*
X221038Y20965D02*
X224372Y22632D01*
X227705Y20965D01*
X226038Y24298D02*
X227705Y20965D01*
X226038Y24298D02*
X227705Y27632D01*
X224372Y25965D02*
X227705Y27632D01*
X221038D02*
X224372Y25965D01*
X221038Y27632D02*
X222705Y24298D01*
X221038Y20965D02*
X222705Y24298D01*
X221038Y7632D02*
X222705D01*
X221038D02*
Y10965D01*
X222705D01*
Y12632D01*
X226038D01*
Y10965D02*
Y12632D01*
Y10965D02*
X227705D01*
Y7632D02*
Y10965D01*
X226038Y7632D02*
X227705D01*
X226038Y5965D02*
Y7632D01*
X222705Y5965D02*
X226038D01*
X222705D02*
Y7632D01*
Y-7368D02*
X224372Y-9035D01*
X221038Y-7368D02*
X222705D01*
X221038D02*
X222705Y-5702D01*
X221038Y-4035D02*
X222705Y-5702D01*
X221038Y-4035D02*
X222705D01*
X224372Y-2368D01*
X226038Y-4035D01*
X227705D01*
X226038Y-5702D02*
X227705Y-4035D01*
X226038Y-5702D02*
X227705Y-7368D01*
X226038D02*
X227705D01*
X224372Y-9035D02*
X226038Y-7368D01*
X221038Y-24035D02*
Y-22368D01*
X222705Y-20702D01*
X221038Y-19035D02*
X222705Y-20702D01*
X221038Y-19035D02*
Y-17368D01*
X222705D01*
X224372Y-19035D01*
X226038Y-17368D01*
X227705D01*
Y-19035D02*
Y-17368D01*
X226038Y-20702D02*
X227705Y-19035D01*
X226038Y-20702D02*
X227705Y-22368D01*
Y-24035D02*
Y-22368D01*
X226038Y-24035D02*
X227705D01*
X224372Y-22368D02*
X226038Y-24035D01*
X222705D02*
X224372Y-22368D01*
X221038Y-24035D02*
X222705D01*
X1083019Y53964D02*
X1087017D01*
X1083019Y38964D02*
X1087017D01*
X1083019Y25963D02*
X1084018Y26963D01*
X1086018D01*
X1087017Y25963D01*
Y21965D01*
X1086018Y20965D01*
X1084018D01*
X1083019Y21965D01*
Y25963D01*
X1090016Y19965D02*
X1091016Y20965D01*
Y21965D01*
X1090016D01*
Y20965D01*
X1091016D01*
X1090016Y19965D01*
X1089017Y18966D01*
X1099014Y26963D02*
X1097014Y25963D01*
X1095015Y23964D01*
Y21965D01*
X1096014Y20965D01*
X1098014D01*
X1099014Y21965D01*
Y22964D01*
X1098014Y23964D01*
X1095015D01*
X1101013Y25963D02*
X1102013Y26963D01*
X1104012D01*
X1105011Y25963D01*
Y21965D01*
X1104012Y20965D01*
X1102013D01*
X1101013Y21965D01*
Y25963D01*
X1107011D02*
X1108011Y26963D01*
X1110010D01*
X1111010Y25963D01*
Y21965D01*
X1110010Y20965D01*
X1108011D01*
X1107011Y21965D01*
Y25963D01*
X1113009Y20965D02*
Y24964D01*
X1114009D01*
X1115008Y23964D01*
Y20965D01*
Y23964D01*
X1116008Y24964D01*
X1117008Y23964D01*
Y20965D01*
X1119007D02*
Y24964D01*
X1120007D01*
X1121006Y23964D01*
Y20965D01*
Y23964D01*
X1122006Y24964D01*
X1123006Y23964D01*
Y20965D01*
X1133002D02*
X1131003Y22964D01*
Y24964D01*
X1133002Y26963D01*
X1140000Y20965D02*
X1136001D01*
X1140000Y24964D01*
Y25963D01*
X1139001Y26963D01*
X1137001D01*
X1136001Y25963D01*
X1142000D02*
X1142999Y26963D01*
X1144999D01*
X1145998Y25963D01*
Y24964D01*
X1144999Y23964D01*
X1143999D01*
X1144999D01*
X1145998Y22964D01*
Y21965D01*
X1144999Y20965D01*
X1142999D01*
X1142000Y21965D01*
X1148997Y19965D02*
X1149997Y20965D01*
Y21965D01*
X1148997D01*
Y20965D01*
X1149997D01*
X1148997Y19965D01*
X1147998Y18966D01*
X1157994Y26963D02*
X1155995Y25963D01*
X1153996Y23964D01*
Y21965D01*
X1154995Y20965D01*
X1156995D01*
X1157994Y21965D01*
Y22964D01*
X1156995Y23964D01*
X1153996D01*
X1163992Y20965D02*
X1159994D01*
X1163992Y24964D01*
Y25963D01*
X1162993Y26963D01*
X1160993D01*
X1159994Y25963D01*
X1165992Y20965D02*
Y24964D01*
X1166992D01*
X1167991Y23964D01*
Y20965D01*
Y23964D01*
X1168991Y24964D01*
X1169991Y23964D01*
Y20965D01*
X1171990D02*
X1173989D01*
X1172989D01*
Y24964D01*
X1171990D01*
X1176988Y20965D02*
X1178988D01*
X1177988D01*
Y26963D01*
X1176988D01*
X1181987Y20965D02*
X1183986Y22964D01*
Y24964D01*
X1181987Y26963D01*
X1083019Y5965D02*
X1085018D01*
X1084018D01*
Y11963D01*
X1083019Y10963D01*
X1089017Y4965D02*
X1090016Y5965D01*
Y6965D01*
X1089017D01*
Y5965D01*
X1090016D01*
X1089017Y4965D01*
X1088017Y3966D01*
X1094015Y5965D02*
X1096014D01*
X1095015D01*
Y11963D01*
X1094015Y10963D01*
X1099014D02*
X1100013Y11963D01*
X1102013D01*
X1103012Y10963D01*
Y6965D01*
X1102013Y5965D01*
X1100013D01*
X1099014Y6965D01*
Y10963D01*
X1105011D02*
X1106011Y11963D01*
X1108010D01*
X1109010Y10963D01*
Y6965D01*
X1108010Y5965D01*
X1106011D01*
X1105011Y6965D01*
Y10963D01*
X1111010Y5965D02*
Y9964D01*
X1112009D01*
X1113009Y8964D01*
Y5965D01*
Y8964D01*
X1114009Y9964D01*
X1115008Y8964D01*
Y5965D01*
X1117008D02*
Y9964D01*
X1118007D01*
X1119007Y8964D01*
Y5965D01*
Y8964D01*
X1120007Y9964D01*
X1121006Y8964D01*
Y5965D01*
X1131003D02*
X1129004Y7964D01*
Y9964D01*
X1131003Y11963D01*
X1137001Y5965D02*
Y11963D01*
X1134002Y8964D01*
X1138001D01*
X1140000Y10963D02*
X1141000Y11963D01*
X1142999D01*
X1143999Y10963D01*
Y9964D01*
X1142999Y8964D01*
X1142000D01*
X1142999D01*
X1143999Y7964D01*
Y6965D01*
X1142999Y5965D01*
X1141000D01*
X1140000Y6965D01*
X1146998Y4965D02*
X1147998Y5965D01*
Y6965D01*
X1146998D01*
Y5965D01*
X1147998D01*
X1146998Y4965D01*
X1145998Y3966D01*
X1151996Y10963D02*
X1152996Y11963D01*
X1154995D01*
X1155995Y10963D01*
Y9964D01*
X1154995Y8964D01*
X1153996D01*
X1154995D01*
X1155995Y7964D01*
Y6965D01*
X1154995Y5965D01*
X1152996D01*
X1151996Y6965D01*
X1157994Y5965D02*
X1159994D01*
X1158994D01*
Y11963D01*
X1157994Y10963D01*
X1162993Y5965D02*
Y9964D01*
X1163992D01*
X1164992Y8964D01*
Y5965D01*
Y8964D01*
X1165992Y9964D01*
X1166992Y8964D01*
Y5965D01*
X1168991D02*
X1170990D01*
X1169991D01*
Y9964D01*
X1168991D01*
X1173989Y5965D02*
X1175989D01*
X1174989D01*
Y11963D01*
X1173989D01*
X1178988Y5965D02*
X1180987Y7964D01*
Y9964D01*
X1178988Y11963D01*
X1083019Y-6036D02*
X1087017D01*
X1083019Y-21036D02*
X1087017D01*
X972051Y53964D02*
X976050D01*
X972051Y38964D02*
X976050D01*
X972051Y20965D02*
X974050D01*
X973051D01*
Y26963D01*
X972051Y25963D01*
X978049Y19965D02*
X979049Y20965D01*
Y21965D01*
X978049D01*
Y20965D01*
X979049D01*
X978049Y19965D01*
X977049Y18966D01*
X987046Y20965D02*
X983047D01*
X987046Y24964D01*
Y25963D01*
X986047Y26963D01*
X984047D01*
X983047Y25963D01*
X989046D02*
X990045Y26963D01*
X992045D01*
X993044Y25963D01*
Y21965D01*
X992045Y20965D01*
X990045D01*
X989046Y21965D01*
Y25963D01*
X995043D02*
X996043Y26963D01*
X998043D01*
X999042Y25963D01*
Y21965D01*
X998043Y20965D01*
X996043D01*
X995043Y21965D01*
Y25963D01*
X1001042Y20965D02*
Y24964D01*
X1002041D01*
X1003041Y23964D01*
Y20965D01*
Y23964D01*
X1004041Y24964D01*
X1005040Y23964D01*
Y20965D01*
X1007040D02*
Y24964D01*
X1008039D01*
X1009039Y23964D01*
Y20965D01*
Y23964D01*
X1010039Y24964D01*
X1011038Y23964D01*
Y20965D01*
X1021035D02*
X1019036Y22964D01*
Y24964D01*
X1021035Y26963D01*
X1027033Y20965D02*
Y26963D01*
X1024034Y23964D01*
X1028033D01*
X1030032Y26963D02*
X1034031D01*
Y25963D01*
X1030032Y21965D01*
Y20965D01*
X1037030Y19965D02*
X1038030Y20965D01*
Y21965D01*
X1037030D01*
Y20965D01*
X1038030D01*
X1037030Y19965D01*
X1036030Y18966D01*
X1046027Y20965D02*
X1042028D01*
X1046027Y24964D01*
Y25963D01*
X1045027Y26963D01*
X1043028D01*
X1042028Y25963D01*
X1051025Y20965D02*
Y26963D01*
X1048026Y23964D01*
X1052025D01*
X1054025Y20965D02*
Y24964D01*
X1055024D01*
X1056024Y23964D01*
Y20965D01*
Y23964D01*
X1057024Y24964D01*
X1058023Y23964D01*
Y20965D01*
X1060023D02*
X1062022D01*
X1061022D01*
Y24964D01*
X1060023D01*
X1065021Y20965D02*
X1067020D01*
X1066021D01*
Y26963D01*
X1065021D01*
X1070019Y20965D02*
X1072019Y22964D01*
Y24964D01*
X1070019Y26963D01*
X972051Y5965D02*
X974050D01*
X973051D01*
Y11963D01*
X972051Y10963D01*
X978049Y4965D02*
X979049Y5965D01*
Y6965D01*
X978049D01*
Y5965D01*
X979049D01*
X978049Y4965D01*
X977049Y3966D01*
X983047Y11963D02*
X987046D01*
Y10963D01*
X983047Y6965D01*
Y5965D01*
X989046Y10963D02*
X990045Y11963D01*
X992045D01*
X993044Y10963D01*
Y6965D01*
X992045Y5965D01*
X990045D01*
X989046Y6965D01*
Y10963D01*
X995043D02*
X996043Y11963D01*
X998043D01*
X999042Y10963D01*
Y6965D01*
X998043Y5965D01*
X996043D01*
X995043Y6965D01*
Y10963D01*
X1001042Y5965D02*
Y9964D01*
X1002041D01*
X1003041Y8964D01*
Y5965D01*
Y8964D01*
X1004041Y9964D01*
X1005040Y8964D01*
Y5965D01*
X1007040D02*
Y9964D01*
X1008039D01*
X1009039Y8964D01*
Y5965D01*
Y8964D01*
X1010039Y9964D01*
X1011038Y8964D01*
Y5965D01*
X1021035D02*
X1019036Y7964D01*
Y9964D01*
X1021035Y11963D01*
X1028033D02*
X1026033Y10963D01*
X1024034Y8964D01*
Y6965D01*
X1025034Y5965D01*
X1027033D01*
X1028033Y6965D01*
Y7964D01*
X1027033Y8964D01*
X1024034D01*
X1034031Y11963D02*
X1032032Y10963D01*
X1030032Y8964D01*
Y6965D01*
X1031032Y5965D01*
X1033031D01*
X1034031Y6965D01*
Y7964D01*
X1033031Y8964D01*
X1030032D01*
X1037030Y4965D02*
X1038030Y5965D01*
Y6965D01*
X1037030D01*
Y5965D01*
X1038030D01*
X1037030Y4965D01*
X1036030Y3966D01*
X1042028Y6965D02*
X1043028Y5965D01*
X1045027D01*
X1046027Y6965D01*
Y10963D01*
X1045027Y11963D01*
X1043028D01*
X1042028Y10963D01*
Y9964D01*
X1043028Y8964D01*
X1046027D01*
X1048026Y10963D02*
X1049026Y11963D01*
X1051025D01*
X1052025Y10963D01*
Y9964D01*
X1051025Y8964D01*
X1050026D01*
X1051025D01*
X1052025Y7964D01*
Y6965D01*
X1051025Y5965D01*
X1049026D01*
X1048026Y6965D01*
X1054025Y5965D02*
Y9964D01*
X1055024D01*
X1056024Y8964D01*
Y5965D01*
Y8964D01*
X1057024Y9964D01*
X1058023Y8964D01*
Y5965D01*
X1060023D02*
X1062022D01*
X1061022D01*
Y9964D01*
X1060023D01*
X1065021Y5965D02*
X1067020D01*
X1066021D01*
Y11963D01*
X1065021D01*
X1070019Y5965D02*
X1072019Y7964D01*
Y9964D01*
X1070019Y11963D01*
X972051Y-6036D02*
X976050D01*
X972051Y-21036D02*
X976050D01*
X853086Y54964D02*
X855085Y50965D01*
X857085Y54964D01*
X859084Y56963D02*
X863083D01*
Y55963D01*
X859084Y51965D01*
Y50965D01*
X865082Y55963D02*
X866082Y56963D01*
X868081D01*
X869081Y55963D01*
Y51965D01*
X868081Y50965D01*
X866082D01*
X865082Y51965D01*
Y55963D01*
X871080Y56963D02*
Y50965D01*
Y53964D01*
X872080Y54964D01*
X874079D01*
X875079Y53964D01*
Y50965D01*
X881077D02*
X877078D01*
X881077Y54964D01*
Y55963D01*
X880077Y56963D01*
X878078D01*
X877078Y55963D01*
X887075Y56963D02*
X883076D01*
Y53964D01*
X885076Y54964D01*
X886075D01*
X887075Y53964D01*
Y51965D01*
X886075Y50965D01*
X884076D01*
X883076Y51965D01*
X889074Y50965D02*
Y54964D01*
X890074D01*
X891074Y53964D01*
Y50965D01*
Y53964D01*
X892073Y54964D01*
X893073Y53964D01*
Y50965D01*
X895072Y55963D02*
X896072Y56963D01*
X898071D01*
X899071Y55963D01*
Y51965D01*
X898071Y50965D01*
X896072D01*
X895072Y51965D01*
Y55963D01*
X901070Y50965D02*
Y54964D01*
X902070D01*
X903070Y53964D01*
Y50965D01*
Y53964D01*
X904069Y54964D01*
X905069Y53964D01*
Y50965D01*
X907069Y54964D02*
X911067Y50965D01*
X909068Y52964D01*
X911067Y54964D01*
X907069Y50965D01*
X913066Y55963D02*
X914066Y56963D01*
X916066D01*
X917065Y55963D01*
Y54964D01*
X916066Y53964D01*
X915066D01*
X916066D01*
X917065Y52964D01*
Y51965D01*
X916066Y50965D01*
X914066D01*
X913066Y51965D01*
X923063Y56963D02*
X919065D01*
Y53964D01*
X921064Y54964D01*
X922064D01*
X923063Y53964D01*
Y51965D01*
X922064Y50965D01*
X920064D01*
X919065Y51965D01*
X855085Y35965D02*
X853086Y37964D01*
Y39964D01*
X855085Y41963D01*
X858084Y35965D02*
Y41963D01*
X860084Y39964D01*
X862083Y41963D01*
Y35965D01*
X864082D02*
X866082D01*
X865082D01*
Y39964D01*
X864082D01*
X869081D02*
X873079Y35965D01*
X871080Y37964D01*
X873079Y39964D01*
X869081Y35965D01*
X878078D02*
X876079D01*
X875079Y36965D01*
Y38964D01*
X876079Y39964D01*
X878078D01*
X879078Y38964D01*
Y37964D01*
X875079D01*
X885076Y41963D02*
Y35965D01*
X882076D01*
X881077Y36965D01*
Y38964D01*
X882076Y39964D01*
X885076D01*
X887075Y35965D02*
X889074Y37964D01*
Y39964D01*
X887075Y41963D01*
X853086Y24964D02*
Y20965D01*
Y22964D01*
X854086Y23964D01*
X855085Y24964D01*
X856085D01*
X859084Y20965D02*
X861083D01*
X860084D01*
Y26963D01*
X859084Y25963D01*
X864082D02*
X865082Y26963D01*
X867081D01*
X868081Y25963D01*
Y21965D01*
X867081Y20965D01*
X865082D01*
X864082Y21965D01*
Y25963D01*
X870080D02*
X871080Y26963D01*
X873079D01*
X874079Y25963D01*
Y21965D01*
X873079Y20965D01*
X871080D01*
X870080Y21965D01*
Y25963D01*
X876079Y19965D02*
X880077D01*
X882076Y20965D02*
X884076D01*
X883076D01*
Y26963D01*
X882076Y25963D01*
X891074Y26963D02*
X889074Y25963D01*
X887075Y23964D01*
Y21965D01*
X888075Y20965D01*
X890074D01*
X891074Y21965D01*
Y22964D01*
X890074Y23964D01*
X887075D01*
X893073Y25963D02*
X894073Y26963D01*
X896072D01*
X897072Y25963D01*
Y21965D01*
X896072Y20965D01*
X894073D01*
X893073Y21965D01*
Y25963D01*
X899071Y26963D02*
Y20965D01*
Y23964D01*
X900071Y24964D01*
X902070D01*
X903070Y23964D01*
Y20965D01*
X909068Y26963D02*
X907068Y25963D01*
X905069Y23964D01*
Y21965D01*
X906069Y20965D01*
X908068D01*
X909068Y21965D01*
Y22964D01*
X908068Y23964D01*
X905069D01*
X911067Y25963D02*
X912067Y26963D01*
X914066D01*
X915066Y25963D01*
Y21965D01*
X914066Y20965D01*
X912067D01*
X911067Y21965D01*
Y25963D01*
X917065Y19965D02*
X921064D01*
X923063Y20965D02*
X925063D01*
X924063D01*
Y26963D01*
X923063Y25963D01*
X932060Y20965D02*
X928062D01*
X932060Y24964D01*
Y25963D01*
X931061Y26963D01*
X929061D01*
X928062Y25963D01*
X934060D02*
X935059Y26963D01*
X937059D01*
X938058Y25963D01*
Y21965D01*
X937059Y20965D01*
X935059D01*
X934060Y21965D01*
Y25963D01*
X940058Y24964D02*
Y20965D01*
Y22964D01*
X941057Y23964D01*
X942057Y24964D01*
X943057D01*
X946056Y20965D02*
X948055D01*
X947056D01*
Y26963D01*
X946056Y25963D01*
X951054D02*
X952054Y26963D01*
X954053D01*
X955053Y25963D01*
Y21965D01*
X954053Y20965D01*
X952054D01*
X951054Y21965D01*
Y25963D01*
X957052D02*
X958052Y26963D01*
X960051D01*
X961051Y25963D01*
Y21965D01*
X960051Y20965D01*
X958052D01*
X957052Y21965D01*
Y25963D01*
X853086Y9964D02*
Y5965D01*
Y7964D01*
X854086Y8964D01*
X855085Y9964D01*
X856085D01*
X859084Y5965D02*
X861083D01*
X860084D01*
Y11963D01*
X859084Y10963D01*
X864082D02*
X865082Y11963D01*
X867081D01*
X868081Y10963D01*
Y6965D01*
X867081Y5965D01*
X865082D01*
X864082Y6965D01*
Y10963D01*
X870080D02*
X871080Y11963D01*
X873079D01*
X874079Y10963D01*
Y6965D01*
X873079Y5965D01*
X871080D01*
X870080Y6965D01*
Y10963D01*
X876079Y4965D02*
X880077D01*
X886075Y5965D02*
X882076D01*
X886075Y9964D01*
Y10963D01*
X885076Y11963D01*
X883076D01*
X882076Y10963D01*
X888075Y5965D02*
X890074D01*
X889074D01*
Y11963D01*
X888075Y10963D01*
X893073D02*
X894073Y11963D01*
X896072D01*
X897072Y10963D01*
Y6965D01*
X896072Y5965D01*
X894073D01*
X893073Y6965D01*
Y10963D01*
X899071Y11963D02*
Y5965D01*
Y8964D01*
X900071Y9964D01*
X902070D01*
X903070Y8964D01*
Y5965D01*
X909068Y11963D02*
X907068Y10963D01*
X905069Y8964D01*
Y6965D01*
X906069Y5965D01*
X908068D01*
X909068Y6965D01*
Y7964D01*
X908068Y8964D01*
X905069D01*
X911067Y10963D02*
X912067Y11963D01*
X914066D01*
X915066Y10963D01*
Y6965D01*
X914066Y5965D01*
X912067D01*
X911067Y6965D01*
Y10963D01*
X917065Y4965D02*
X921064D01*
X923063Y5965D02*
X925063D01*
X924063D01*
Y11963D01*
X923063Y10963D01*
X928062Y11963D02*
X932060D01*
Y10963D01*
X928062Y6965D01*
Y5965D01*
X934060Y10963D02*
X935059Y11963D01*
X937059D01*
X938058Y10963D01*
Y6965D01*
X937059Y5965D01*
X935059D01*
X934060Y6965D01*
Y10963D01*
X940058Y9964D02*
Y5965D01*
Y7964D01*
X941057Y8964D01*
X942057Y9964D01*
X943057D01*
X946056Y5965D02*
X948055D01*
X947056D01*
Y11963D01*
X946056Y10963D01*
X951054D02*
X952054Y11963D01*
X954053D01*
X955053Y10963D01*
Y6965D01*
X954053Y5965D01*
X952054D01*
X951054Y6965D01*
Y10963D01*
X957052D02*
X958052Y11963D01*
X960051D01*
X961051Y10963D01*
Y6965D01*
X960051Y5965D01*
X958052D01*
X957052Y6965D01*
Y10963D01*
X857085Y-5036D02*
X854086D01*
X853086Y-6036D01*
Y-8035D01*
X854086Y-9035D01*
X857085D01*
X863083Y-3037D02*
X861083Y-4037D01*
X859084Y-6036D01*
Y-8035D01*
X860084Y-9035D01*
X862083D01*
X863083Y-8035D01*
Y-7036D01*
X862083Y-6036D01*
X859084D01*
X869081Y-3037D02*
X865082D01*
Y-6036D01*
X867081Y-5036D01*
X868081D01*
X869081Y-6036D01*
Y-8035D01*
X868081Y-9035D01*
X866082D01*
X865082Y-8035D01*
X871080Y-3037D02*
Y-9035D01*
Y-6036D01*
X872080Y-5036D01*
X874079D01*
X875079Y-6036D01*
Y-9035D01*
X877078D02*
Y-5036D01*
X880077D01*
X881077Y-6036D01*
Y-9035D01*
X887075Y-3037D02*
X885076Y-4037D01*
X883076Y-6036D01*
Y-8035D01*
X884076Y-9035D01*
X886075D01*
X887075Y-8035D01*
Y-7036D01*
X886075Y-6036D01*
X883076D01*
X893073Y-3037D02*
X889074D01*
Y-6036D01*
X891074Y-5036D01*
X892073D01*
X893073Y-6036D01*
Y-8035D01*
X892073Y-9035D01*
X890074D01*
X889074Y-8035D01*
X857085Y-20036D02*
X854086D01*
X853086Y-21036D01*
Y-23035D01*
X854086Y-24035D01*
X857085D01*
X859084Y-19037D02*
X860084Y-18037D01*
X862083D01*
X863083Y-19037D01*
Y-20036D01*
X862083Y-21036D01*
X861083D01*
X862083D01*
X863083Y-22036D01*
Y-23035D01*
X862083Y-24035D01*
X860084D01*
X859084Y-23035D01*
X869081Y-24035D02*
X865082D01*
X869081Y-20036D01*
Y-19037D01*
X868081Y-18037D01*
X866082D01*
X865082Y-19037D01*
X871080D02*
X872080Y-18037D01*
X874079D01*
X875079Y-19037D01*
Y-23035D01*
X874079Y-24035D01*
X872080D01*
X871080Y-23035D01*
Y-19037D01*
X877078Y-18037D02*
Y-24035D01*
Y-21036D01*
X878078Y-20036D01*
X880077D01*
X881077Y-21036D01*
Y-24035D01*
X883076D02*
Y-20036D01*
X886075D01*
X887075Y-21036D01*
Y-24035D01*
X889074Y-19037D02*
X890074Y-18037D01*
X892073D01*
X893073Y-19037D01*
Y-20036D01*
X892073Y-21036D01*
X891074D01*
X892073D01*
X893073Y-22036D01*
Y-23035D01*
X892073Y-24035D01*
X890074D01*
X889074Y-23035D01*
X899071Y-24035D02*
X895072D01*
X899071Y-20036D01*
Y-19037D01*
X898071Y-18037D01*
X896072D01*
X895072Y-19037D01*
X901070D02*
X902070Y-18037D01*
X904069D01*
X905069Y-19037D01*
Y-23035D01*
X904069Y-24035D01*
X902070D01*
X901070Y-23035D01*
Y-19037D01*
X907069Y-24035D02*
Y-20036D01*
X908068D01*
X909068Y-21036D01*
Y-24035D01*
Y-21036D01*
X910067Y-20036D01*
X911067Y-21036D01*
Y-24035D01*
X913066Y-19037D02*
X914066Y-18037D01*
X916066D01*
X917065Y-19037D01*
Y-23035D01*
X916066Y-24035D01*
X914066D01*
X913066Y-23035D01*
Y-19037D01*
X919065Y-24035D02*
Y-20036D01*
X920064D01*
X921064Y-21036D01*
Y-24035D01*
Y-21036D01*
X922064Y-20036D01*
X923063Y-21036D01*
Y-24035D01*
X925063Y-20036D02*
X929061Y-24035D01*
X927062Y-22036D01*
X929061Y-20036D01*
X925063Y-24035D01*
X931061Y-19037D02*
X932060Y-18037D01*
X934060D01*
X935059Y-19037D01*
Y-23035D01*
X934060Y-24035D01*
X932060D01*
X931061Y-23035D01*
Y-19037D01*
X778506Y50965D02*
Y56963D01*
X781505D01*
X782505Y55963D01*
Y53964D01*
X781505Y52964D01*
X778506D01*
X780506D02*
X782505Y50965D01*
X785504D02*
X787503D01*
X788503Y51965D01*
Y53964D01*
X787503Y54964D01*
X785504D01*
X784504Y53964D01*
Y51965D01*
X785504Y50965D01*
X790502Y54964D02*
Y51965D01*
X791502Y50965D01*
X794501D01*
Y54964D01*
X796500Y50965D02*
Y54964D01*
X799499D01*
X800499Y53964D01*
Y50965D01*
X806497Y56963D02*
Y50965D01*
X803498D01*
X802498Y51965D01*
Y53964D01*
X803498Y54964D01*
X806497D01*
X811495Y50965D02*
X809496D01*
X808496Y51965D01*
Y53964D01*
X809496Y54964D01*
X811495D01*
X812495Y53964D01*
Y52964D01*
X808496D01*
X818493Y56963D02*
Y50965D01*
X815494D01*
X814495Y51965D01*
Y53964D01*
X815494Y54964D01*
X818493D01*
X780506Y35965D02*
X778506Y37964D01*
Y39964D01*
X780506Y41963D01*
X783504Y35965D02*
Y41963D01*
X785504Y39964D01*
X787503Y41963D01*
Y35965D01*
X789502D02*
X791502D01*
X790502D01*
Y39964D01*
X789502D01*
X794501D02*
X798500Y35965D01*
X796500Y37964D01*
X798500Y39964D01*
X794501Y35965D01*
X803498D02*
X801499D01*
X800499Y36965D01*
Y38964D01*
X801499Y39964D01*
X803498D01*
X804498Y38964D01*
Y37964D01*
X800499D01*
X810496Y41963D02*
Y35965D01*
X807497D01*
X806497Y36965D01*
Y38964D01*
X807497Y39964D01*
X810496D01*
X812495Y35965D02*
X814495Y37964D01*
Y39964D01*
X812495Y41963D01*
X778506Y20965D02*
Y26963D01*
X781505D01*
X782505Y25963D01*
Y23964D01*
X781505Y22964D01*
X778506D01*
X780506D02*
X782505Y20965D01*
X785504D02*
X787503D01*
X788503Y21965D01*
Y23964D01*
X787503Y24964D01*
X785504D01*
X784504Y23964D01*
Y21965D01*
X785504Y20965D01*
X790502Y24964D02*
Y21965D01*
X791502Y20965D01*
X794501D01*
Y24964D01*
X796500Y20965D02*
Y24964D01*
X799499D01*
X800499Y23964D01*
Y20965D01*
X806497Y26963D02*
Y20965D01*
X803498D01*
X802498Y21965D01*
Y23964D01*
X803498Y24964D01*
X806497D01*
X811495Y20965D02*
X809496D01*
X808496Y21965D01*
Y23964D01*
X809496Y24964D01*
X811495D01*
X812495Y23964D01*
Y22964D01*
X808496D01*
X818493Y26963D02*
Y20965D01*
X815494D01*
X814495Y21965D01*
Y23964D01*
X815494Y24964D01*
X818493D01*
X778506Y5965D02*
Y11963D01*
X781505D01*
X782505Y10963D01*
Y8964D01*
X781505Y7964D01*
X778506D01*
X780506D02*
X782505Y5965D01*
X785504D02*
X787503D01*
X788503Y6965D01*
Y8964D01*
X787503Y9964D01*
X785504D01*
X784504Y8964D01*
Y6965D01*
X785504Y5965D01*
X790502Y9964D02*
Y6965D01*
X791502Y5965D01*
X794501D01*
Y9964D01*
X796500Y5965D02*
Y9964D01*
X799499D01*
X800499Y8964D01*
Y5965D01*
X806497Y11963D02*
Y5965D01*
X803498D01*
X802498Y6965D01*
Y8964D01*
X803498Y9964D01*
X806497D01*
X811495Y5965D02*
X809496D01*
X808496Y6965D01*
Y8964D01*
X809496Y9964D01*
X811495D01*
X812495Y8964D01*
Y7964D01*
X808496D01*
X818493Y11963D02*
Y5965D01*
X815494D01*
X814495Y6965D01*
Y8964D01*
X815494Y9964D01*
X818493D01*
X778506Y-9035D02*
Y-3037D01*
X781505D01*
X782505Y-4037D01*
Y-6036D01*
X781505Y-7036D01*
X778506D01*
X780506D02*
X782505Y-9035D01*
X785504D02*
X787503D01*
X788503Y-8035D01*
Y-6036D01*
X787503Y-5036D01*
X785504D01*
X784504Y-6036D01*
Y-8035D01*
X785504Y-9035D01*
X790502Y-5036D02*
Y-8035D01*
X791502Y-9035D01*
X794501D01*
Y-5036D01*
X796500Y-9035D02*
Y-5036D01*
X799499D01*
X800499Y-6036D01*
Y-9035D01*
X806497Y-3037D02*
Y-9035D01*
X803498D01*
X802498Y-8035D01*
Y-6036D01*
X803498Y-5036D01*
X806497D01*
X811495Y-9035D02*
X809496D01*
X808496Y-8035D01*
Y-6036D01*
X809496Y-5036D01*
X811495D01*
X812495Y-6036D01*
Y-7036D01*
X808496D01*
X818493Y-3037D02*
Y-9035D01*
X815494D01*
X814495Y-8035D01*
Y-6036D01*
X815494Y-5036D01*
X818493D01*
X778506Y-24035D02*
Y-18037D01*
X781505D01*
X782505Y-19037D01*
Y-21036D01*
X781505Y-22036D01*
X778506D01*
X780506D02*
X782505Y-24035D01*
X785504D02*
X787503D01*
X788503Y-23035D01*
Y-21036D01*
X787503Y-20036D01*
X785504D01*
X784504Y-21036D01*
Y-23035D01*
X785504Y-24035D01*
X790502Y-20036D02*
Y-23035D01*
X791502Y-24035D01*
X794501D01*
Y-20036D01*
X796500Y-24035D02*
Y-20036D01*
X799499D01*
X800499Y-21036D01*
Y-24035D01*
X806497Y-18037D02*
Y-24035D01*
X803498D01*
X802498Y-23035D01*
Y-21036D01*
X803498Y-20036D01*
X806497D01*
X811495Y-24035D02*
X809496D01*
X808496Y-23035D01*
Y-21036D01*
X809496Y-20036D01*
X811495D01*
X812495Y-21036D01*
Y-22036D01*
X808496D01*
X818493Y-18037D02*
Y-24035D01*
X815494D01*
X814495Y-23035D01*
Y-21036D01*
X815494Y-20036D01*
X818493D01*
X719521Y56963D02*
Y52964D01*
X721521Y50965D01*
X723520Y52964D01*
Y56963D01*
X725519Y50965D02*
X727519D01*
X726519D01*
Y54964D01*
X725519D01*
X731517D02*
X733517D01*
X734516Y53964D01*
Y50965D01*
X731517D01*
X730518Y51965D01*
X731517Y52964D01*
X734516D01*
X719521Y35965D02*
Y41963D01*
X722520D01*
X723520Y40963D01*
Y38964D01*
X722520Y37964D01*
X719521D01*
X726519Y39964D02*
X728518D01*
X729518Y38964D01*
Y35965D01*
X726519D01*
X725519Y36965D01*
X726519Y37964D01*
X729518D01*
X735516Y41963D02*
Y35965D01*
X732517D01*
X731517Y36965D01*
Y38964D01*
X732517Y39964D01*
X735516D01*
X719521Y20965D02*
Y26963D01*
X722520D01*
X723520Y25963D01*
Y23964D01*
X722520Y22964D01*
X719521D01*
X726519Y24964D02*
X728518D01*
X729518Y23964D01*
Y20965D01*
X726519D01*
X725519Y21965D01*
X726519Y22964D01*
X729518D01*
X735516Y26963D02*
Y20965D01*
X732517D01*
X731517Y21965D01*
Y23964D01*
X732517Y24964D01*
X735516D01*
X719521Y5965D02*
Y11963D01*
X722520D01*
X723520Y10963D01*
Y8964D01*
X722520Y7964D01*
X719521D01*
X726519Y9964D02*
X728518D01*
X729518Y8964D01*
Y5965D01*
X726519D01*
X725519Y6965D01*
X726519Y7964D01*
X729518D01*
X735516Y11963D02*
Y5965D01*
X732517D01*
X731517Y6965D01*
Y8964D01*
X732517Y9964D01*
X735516D01*
X719521Y-9035D02*
Y-3037D01*
X722520D01*
X723520Y-4037D01*
Y-6036D01*
X722520Y-7036D01*
X719521D01*
X726519Y-5036D02*
X728518D01*
X729518Y-6036D01*
Y-9035D01*
X726519D01*
X725519Y-8035D01*
X726519Y-7036D01*
X729518D01*
X735516Y-3037D02*
Y-9035D01*
X732517D01*
X731517Y-8035D01*
Y-6036D01*
X732517Y-5036D01*
X735516D01*
X719521Y-24035D02*
Y-18037D01*
X722520D01*
X723520Y-19037D01*
Y-21036D01*
X722520Y-22036D01*
X719521D01*
X726519Y-20036D02*
X728518D01*
X729518Y-21036D01*
Y-24035D01*
X726519D01*
X725519Y-23035D01*
X726519Y-22036D01*
X729518D01*
X735516Y-18037D02*
Y-24035D01*
X732517D01*
X731517Y-23035D01*
Y-21036D01*
X732517Y-20036D01*
X735516D01*
X569566Y56963D02*
X573565D01*
X571565D01*
Y50965D01*
X576564D02*
X578563D01*
X579563Y51965D01*
Y53964D01*
X578563Y54964D01*
X576564D01*
X575564Y53964D01*
Y51965D01*
X576564Y50965D01*
X581562Y48966D02*
Y54964D01*
X584561D01*
X585561Y53964D01*
Y51965D01*
X584561Y50965D01*
X581562D01*
X593558Y56963D02*
Y50965D01*
X597557D01*
X600556Y54964D02*
X602556D01*
X603555Y53964D01*
Y50965D01*
X600556D01*
X599556Y51965D01*
X600556Y52964D01*
X603555D01*
X605555Y54964D02*
Y51965D01*
X606554Y50965D01*
X609553D01*
Y49965D01*
X608554Y48966D01*
X607554D01*
X609553Y50965D02*
Y54964D01*
X614552Y50965D02*
X612552D01*
X611553Y51965D01*
Y53964D01*
X612552Y54964D01*
X614552D01*
X615551Y53964D01*
Y52964D01*
X611553D01*
X617551Y54964D02*
Y50965D01*
Y52964D01*
X618550Y53964D01*
X619550Y54964D01*
X620550D01*
X629547Y53964D02*
X633545D01*
X641543Y56963D02*
Y50965D01*
X644542D01*
X645542Y51965D01*
Y52964D01*
X644542Y53964D01*
X641543D01*
X644542D01*
X645542Y54964D01*
Y55963D01*
X644542Y56963D01*
X641543D01*
X648541Y50965D02*
X650540D01*
X651540Y51965D01*
Y53964D01*
X650540Y54964D01*
X648541D01*
X647541Y53964D01*
Y51965D01*
X648541Y50965D01*
X654539Y55963D02*
Y54964D01*
X653539D01*
X655538D01*
X654539D01*
Y51965D01*
X655538Y50965D01*
X659537Y55963D02*
Y54964D01*
X658537D01*
X660537D01*
X659537D01*
Y51965D01*
X660537Y50965D01*
X664536D02*
X666535D01*
X667534Y51965D01*
Y53964D01*
X666535Y54964D01*
X664536D01*
X663536Y53964D01*
Y51965D01*
X664536Y50965D01*
X669534D02*
Y54964D01*
X670534D01*
X671533Y53964D01*
Y50965D01*
Y53964D01*
X672533Y54964D01*
X673533Y53964D01*
Y50965D01*
X681530Y56963D02*
Y50965D01*
X685529D01*
X688528Y54964D02*
X690527D01*
X691527Y53964D01*
Y50965D01*
X688528D01*
X687528Y51965D01*
X688528Y52964D01*
X691527D01*
X693526Y54964D02*
Y51965D01*
X694526Y50965D01*
X697525D01*
Y49965D01*
X696525Y48966D01*
X695526D01*
X697525Y50965D02*
Y54964D01*
X702523Y50965D02*
X700524D01*
X699524Y51965D01*
Y53964D01*
X700524Y54964D01*
X702523D01*
X703523Y53964D01*
Y52964D01*
X699524D01*
X705522Y54964D02*
Y50965D01*
Y52964D01*
X706522Y53964D01*
X707522Y54964D01*
X708521D01*
X569566Y41963D02*
X573565D01*
X571565D01*
Y35965D01*
X576564D02*
X578563D01*
X579563Y36965D01*
Y38964D01*
X578563Y39964D01*
X576564D01*
X575564Y38964D01*
Y36965D01*
X576564Y35965D01*
X581562Y33966D02*
Y39964D01*
X584561D01*
X585561Y38964D01*
Y36965D01*
X584561Y35965D01*
X581562D01*
X593558Y41963D02*
Y35965D01*
X597557D01*
X600556Y39964D02*
X602556D01*
X603555Y38964D01*
Y35965D01*
X600556D01*
X599556Y36965D01*
X600556Y37964D01*
X603555D01*
X605555Y39964D02*
Y36965D01*
X606554Y35965D01*
X609553D01*
Y34965D01*
X608554Y33966D01*
X607554D01*
X609553Y35965D02*
Y39964D01*
X614552Y35965D02*
X612552D01*
X611553Y36965D01*
Y38964D01*
X612552Y39964D01*
X614552D01*
X615551Y38964D01*
Y37964D01*
X611553D01*
X617551Y39964D02*
Y35965D01*
Y37964D01*
X618550Y38964D01*
X619550Y39964D01*
X620550D01*
X629547Y38964D02*
X633545D01*
X641543Y41963D02*
Y35965D01*
X644542D01*
X645542Y36965D01*
Y37964D01*
X644542Y38964D01*
X641543D01*
X644542D01*
X645542Y39964D01*
Y40963D01*
X644542Y41963D01*
X641543D01*
X648541Y35965D02*
X650540D01*
X651540Y36965D01*
Y38964D01*
X650540Y39964D01*
X648541D01*
X647541Y38964D01*
Y36965D01*
X648541Y35965D01*
X654539Y40963D02*
Y39964D01*
X653539D01*
X655538D01*
X654539D01*
Y36965D01*
X655538Y35965D01*
X659537Y40963D02*
Y39964D01*
X658537D01*
X660537D01*
X659537D01*
Y36965D01*
X660537Y35965D01*
X664536D02*
X666535D01*
X667534Y36965D01*
Y38964D01*
X666535Y39964D01*
X664536D01*
X663536Y38964D01*
Y36965D01*
X664536Y35965D01*
X669534D02*
Y39964D01*
X670534D01*
X671533Y38964D01*
Y35965D01*
Y38964D01*
X672533Y39964D01*
X673533Y38964D01*
Y35965D01*
X681530Y41963D02*
Y35965D01*
X685529D01*
X688528Y39964D02*
X690527D01*
X691527Y38964D01*
Y35965D01*
X688528D01*
X687528Y36965D01*
X688528Y37964D01*
X691527D01*
X693526Y39964D02*
Y36965D01*
X694526Y35965D01*
X697525D01*
Y34965D01*
X696525Y33966D01*
X695526D01*
X697525Y35965D02*
Y39964D01*
X702523Y35965D02*
X700524D01*
X699524Y36965D01*
Y38964D01*
X700524Y39964D01*
X702523D01*
X703523Y38964D01*
Y37964D01*
X699524D01*
X705522Y39964D02*
Y35965D01*
Y37964D01*
X706522Y38964D01*
X707522Y39964D01*
X708521D01*
X569566Y26963D02*
X573565D01*
X571565D01*
Y20965D01*
X576564D02*
X578563D01*
X579563Y21965D01*
Y23964D01*
X578563Y24964D01*
X576564D01*
X575564Y23964D01*
Y21965D01*
X576564Y20965D01*
X581562Y18966D02*
Y24964D01*
X584561D01*
X585561Y23964D01*
Y21965D01*
X584561Y20965D01*
X581562D01*
X593558Y26963D02*
Y20965D01*
X597557D01*
X600556Y24964D02*
X602556D01*
X603555Y23964D01*
Y20965D01*
X600556D01*
X599556Y21965D01*
X600556Y22964D01*
X603555D01*
X605555Y24964D02*
Y21965D01*
X606554Y20965D01*
X609553D01*
Y19965D01*
X608554Y18966D01*
X607554D01*
X609553Y20965D02*
Y24964D01*
X614552Y20965D02*
X612552D01*
X611553Y21965D01*
Y23964D01*
X612552Y24964D01*
X614552D01*
X615551Y23964D01*
Y22964D01*
X611553D01*
X617551Y24964D02*
Y20965D01*
Y22964D01*
X618550Y23964D01*
X619550Y24964D01*
X620550D01*
X629547Y23964D02*
X633545D01*
X641543Y26963D02*
Y20965D01*
X644542D01*
X645542Y21965D01*
Y22964D01*
X644542Y23964D01*
X641543D01*
X644542D01*
X645542Y24964D01*
Y25963D01*
X644542Y26963D01*
X641543D01*
X648541Y20965D02*
X650540D01*
X651540Y21965D01*
Y23964D01*
X650540Y24964D01*
X648541D01*
X647541Y23964D01*
Y21965D01*
X648541Y20965D01*
X654539Y25963D02*
Y24964D01*
X653539D01*
X655538D01*
X654539D01*
Y21965D01*
X655538Y20965D01*
X659537Y25963D02*
Y24964D01*
X658537D01*
X660537D01*
X659537D01*
Y21965D01*
X660537Y20965D01*
X664536D02*
X666535D01*
X667534Y21965D01*
Y23964D01*
X666535Y24964D01*
X664536D01*
X663536Y23964D01*
Y21965D01*
X664536Y20965D01*
X669534D02*
Y24964D01*
X670534D01*
X671533Y23964D01*
Y20965D01*
Y23964D01*
X672533Y24964D01*
X673533Y23964D01*
Y20965D01*
X681530Y26963D02*
Y20965D01*
X685529D01*
X688528Y24964D02*
X690527D01*
X691527Y23964D01*
Y20965D01*
X688528D01*
X687528Y21965D01*
X688528Y22964D01*
X691527D01*
X693526Y24964D02*
Y21965D01*
X694526Y20965D01*
X697525D01*
Y19965D01*
X696525Y18966D01*
X695526D01*
X697525Y20965D02*
Y24964D01*
X702523Y20965D02*
X700524D01*
X699524Y21965D01*
Y23964D01*
X700524Y24964D01*
X702523D01*
X703523Y23964D01*
Y22964D01*
X699524D01*
X705522Y24964D02*
Y20965D01*
Y22964D01*
X706522Y23964D01*
X707522Y24964D01*
X708521D01*
X569566Y11963D02*
X573565D01*
X571565D01*
Y5965D01*
X576564D02*
X578563D01*
X579563Y6965D01*
Y8964D01*
X578563Y9964D01*
X576564D01*
X575564Y8964D01*
Y6965D01*
X576564Y5965D01*
X581562Y3966D02*
Y9964D01*
X584561D01*
X585561Y8964D01*
Y6965D01*
X584561Y5965D01*
X581562D01*
X593558Y11963D02*
Y5965D01*
X597557D01*
X600556Y9964D02*
X602556D01*
X603555Y8964D01*
Y5965D01*
X600556D01*
X599556Y6965D01*
X600556Y7964D01*
X603555D01*
X605555Y9964D02*
Y6965D01*
X606554Y5965D01*
X609553D01*
Y4965D01*
X608554Y3966D01*
X607554D01*
X609553Y5965D02*
Y9964D01*
X614552Y5965D02*
X612552D01*
X611553Y6965D01*
Y8964D01*
X612552Y9964D01*
X614552D01*
X615551Y8964D01*
Y7964D01*
X611553D01*
X617551Y9964D02*
Y5965D01*
Y7964D01*
X618550Y8964D01*
X619550Y9964D01*
X620550D01*
X629547Y8964D02*
X633545D01*
X641543Y11963D02*
Y5965D01*
X644542D01*
X645542Y6965D01*
Y7964D01*
X644542Y8964D01*
X641543D01*
X644542D01*
X645542Y9964D01*
Y10963D01*
X644542Y11963D01*
X641543D01*
X648541Y5965D02*
X650540D01*
X651540Y6965D01*
Y8964D01*
X650540Y9964D01*
X648541D01*
X647541Y8964D01*
Y6965D01*
X648541Y5965D01*
X654539Y10963D02*
Y9964D01*
X653539D01*
X655538D01*
X654539D01*
Y6965D01*
X655538Y5965D01*
X659537Y10963D02*
Y9964D01*
X658537D01*
X660537D01*
X659537D01*
Y6965D01*
X660537Y5965D01*
X664536D02*
X666535D01*
X667534Y6965D01*
Y8964D01*
X666535Y9964D01*
X664536D01*
X663536Y8964D01*
Y6965D01*
X664536Y5965D01*
X669534D02*
Y9964D01*
X670534D01*
X671533Y8964D01*
Y5965D01*
Y8964D01*
X672533Y9964D01*
X673533Y8964D01*
Y5965D01*
X681530Y11963D02*
Y5965D01*
X685529D01*
X688528Y9964D02*
X690527D01*
X691527Y8964D01*
Y5965D01*
X688528D01*
X687528Y6965D01*
X688528Y7964D01*
X691527D01*
X693526Y9964D02*
Y6965D01*
X694526Y5965D01*
X697525D01*
Y4965D01*
X696525Y3966D01*
X695526D01*
X697525Y5965D02*
Y9964D01*
X702523Y5965D02*
X700524D01*
X699524Y6965D01*
Y8964D01*
X700524Y9964D01*
X702523D01*
X703523Y8964D01*
Y7964D01*
X699524D01*
X705522Y9964D02*
Y5965D01*
Y7964D01*
X706522Y8964D01*
X707522Y9964D01*
X708521D01*
X569566Y-3037D02*
X573565D01*
X571565D01*
Y-9035D01*
X576564D02*
X578563D01*
X579563Y-8035D01*
Y-6036D01*
X578563Y-5036D01*
X576564D01*
X575564Y-6036D01*
Y-8035D01*
X576564Y-9035D01*
X581562Y-11034D02*
Y-5036D01*
X584561D01*
X585561Y-6036D01*
Y-8035D01*
X584561Y-9035D01*
X581562D01*
X593558Y-3037D02*
Y-9035D01*
X597557D01*
X600556Y-5036D02*
X602556D01*
X603555Y-6036D01*
Y-9035D01*
X600556D01*
X599556Y-8035D01*
X600556Y-7036D01*
X603555D01*
X605555Y-5036D02*
Y-8035D01*
X606554Y-9035D01*
X609553D01*
Y-10035D01*
X608554Y-11034D01*
X607554D01*
X609553Y-9035D02*
Y-5036D01*
X614552Y-9035D02*
X612552D01*
X611553Y-8035D01*
Y-6036D01*
X612552Y-5036D01*
X614552D01*
X615551Y-6036D01*
Y-7036D01*
X611553D01*
X617551Y-5036D02*
Y-9035D01*
Y-7036D01*
X618550Y-6036D01*
X619550Y-5036D01*
X620550D01*
X629547Y-6036D02*
X633545D01*
X641543Y-3037D02*
Y-9035D01*
X644542D01*
X645542Y-8035D01*
Y-7036D01*
X644542Y-6036D01*
X641543D01*
X644542D01*
X645542Y-5036D01*
Y-4037D01*
X644542Y-3037D01*
X641543D01*
X648541Y-9035D02*
X650540D01*
X651540Y-8035D01*
Y-6036D01*
X650540Y-5036D01*
X648541D01*
X647541Y-6036D01*
Y-8035D01*
X648541Y-9035D01*
X654539Y-4037D02*
Y-5036D01*
X653539D01*
X655538D01*
X654539D01*
Y-8035D01*
X655538Y-9035D01*
X659537Y-4037D02*
Y-5036D01*
X658537D01*
X660537D01*
X659537D01*
Y-8035D01*
X660537Y-9035D01*
X664536D02*
X666535D01*
X667534Y-8035D01*
Y-6036D01*
X666535Y-5036D01*
X664536D01*
X663536Y-6036D01*
Y-8035D01*
X664536Y-9035D01*
X669534D02*
Y-5036D01*
X670534D01*
X671533Y-6036D01*
Y-9035D01*
Y-6036D01*
X672533Y-5036D01*
X673533Y-6036D01*
Y-9035D01*
X681530Y-3037D02*
Y-9035D01*
X685529D01*
X688528Y-5036D02*
X690527D01*
X691527Y-6036D01*
Y-9035D01*
X688528D01*
X687528Y-8035D01*
X688528Y-7036D01*
X691527D01*
X693526Y-5036D02*
Y-8035D01*
X694526Y-9035D01*
X697525D01*
Y-10035D01*
X696525Y-11034D01*
X695526D01*
X697525Y-9035D02*
Y-5036D01*
X702523Y-9035D02*
X700524D01*
X699524Y-8035D01*
Y-6036D01*
X700524Y-5036D01*
X702523D01*
X703523Y-6036D01*
Y-7036D01*
X699524D01*
X705522Y-5036D02*
Y-9035D01*
Y-7036D01*
X706522Y-6036D01*
X707522Y-5036D01*
X708521D01*
X569566Y-18037D02*
X573565D01*
X571565D01*
Y-24035D01*
X576564D02*
X578563D01*
X579563Y-23035D01*
Y-21036D01*
X578563Y-20036D01*
X576564D01*
X575564Y-21036D01*
Y-23035D01*
X576564Y-24035D01*
X581562Y-26034D02*
Y-20036D01*
X584561D01*
X585561Y-21036D01*
Y-23035D01*
X584561Y-24035D01*
X581562D01*
X593558Y-18037D02*
Y-24035D01*
X597557D01*
X600556Y-20036D02*
X602556D01*
X603555Y-21036D01*
Y-24035D01*
X600556D01*
X599556Y-23035D01*
X600556Y-22036D01*
X603555D01*
X605555Y-20036D02*
Y-23035D01*
X606554Y-24035D01*
X609553D01*
Y-25035D01*
X608554Y-26034D01*
X607554D01*
X609553Y-24035D02*
Y-20036D01*
X614552Y-24035D02*
X612552D01*
X611553Y-23035D01*
Y-21036D01*
X612552Y-20036D01*
X614552D01*
X615551Y-21036D01*
Y-22036D01*
X611553D01*
X617551Y-20036D02*
Y-24035D01*
Y-22036D01*
X618550Y-21036D01*
X619550Y-20036D01*
X620550D01*
X629547Y-21036D02*
X633545D01*
X641543Y-18037D02*
Y-24035D01*
X644542D01*
X645542Y-23035D01*
Y-22036D01*
X644542Y-21036D01*
X641543D01*
X644542D01*
X645542Y-20036D01*
Y-19037D01*
X644542Y-18037D01*
X641543D01*
X648541Y-24035D02*
X650540D01*
X651540Y-23035D01*
Y-21036D01*
X650540Y-20036D01*
X648541D01*
X647541Y-21036D01*
Y-23035D01*
X648541Y-24035D01*
X654539Y-19037D02*
Y-20036D01*
X653539D01*
X655538D01*
X654539D01*
Y-23035D01*
X655538Y-24035D01*
X659537Y-19037D02*
Y-20036D01*
X658537D01*
X660537D01*
X659537D01*
Y-23035D01*
X660537Y-24035D01*
X664536D02*
X666535D01*
X667534Y-23035D01*
Y-21036D01*
X666535Y-20036D01*
X664536D01*
X663536Y-21036D01*
Y-23035D01*
X664536Y-24035D01*
X669534D02*
Y-20036D01*
X670534D01*
X671533Y-21036D01*
Y-24035D01*
Y-21036D01*
X672533Y-20036D01*
X673533Y-21036D01*
Y-24035D01*
X681530Y-18037D02*
Y-24035D01*
X685529D01*
X688528Y-20036D02*
X690527D01*
X691527Y-21036D01*
Y-24035D01*
X688528D01*
X687528Y-23035D01*
X688528Y-22036D01*
X691527D01*
X693526Y-20036D02*
Y-23035D01*
X694526Y-24035D01*
X697525D01*
Y-25035D01*
X696525Y-26034D01*
X695526D01*
X697525Y-24035D02*
Y-20036D01*
X702523Y-24035D02*
X700524D01*
X699524Y-23035D01*
Y-21036D01*
X700524Y-20036D01*
X702523D01*
X703523Y-21036D01*
Y-22036D01*
X699524D01*
X705522Y-20036D02*
Y-24035D01*
Y-22036D01*
X706522Y-21036D01*
X707522Y-20036D01*
X708521D01*
X496186Y50965D02*
Y56963D01*
X499185D01*
X500185Y55963D01*
Y53964D01*
X499185Y52964D01*
X496186D01*
X498185D02*
X500185Y50965D01*
X503184D02*
X505183D01*
X506183Y51965D01*
Y53964D01*
X505183Y54964D01*
X503184D01*
X502184Y53964D01*
Y51965D01*
X503184Y50965D01*
X508182Y54964D02*
Y51965D01*
X509182Y50965D01*
X512181D01*
Y54964D01*
X514180Y50965D02*
Y54964D01*
X517179D01*
X518179Y53964D01*
Y50965D01*
X524177Y56963D02*
Y50965D01*
X521178D01*
X520178Y51965D01*
Y53964D01*
X521178Y54964D01*
X524177D01*
X496186Y35965D02*
Y41963D01*
X499185D01*
X500185Y40963D01*
Y38964D01*
X499185Y37964D01*
X496186D01*
X498185D02*
X500185Y35965D01*
X503184D02*
X505183D01*
X506183Y36965D01*
Y38964D01*
X505183Y39964D01*
X503184D01*
X502184Y38964D01*
Y36965D01*
X503184Y35965D01*
X508182Y39964D02*
Y36965D01*
X509182Y35965D01*
X512181D01*
Y39964D01*
X514180Y35965D02*
Y39964D01*
X517179D01*
X518179Y38964D01*
Y35965D01*
X524177Y41963D02*
Y35965D01*
X521178D01*
X520178Y36965D01*
Y38964D01*
X521178Y39964D01*
X524177D01*
X500185Y25963D02*
X499185Y26963D01*
X497186D01*
X496186Y25963D01*
Y24964D01*
X497186Y23964D01*
X499185D01*
X500185Y22964D01*
Y21965D01*
X499185Y20965D01*
X497186D01*
X496186Y21965D01*
X502184Y20965D02*
X504183D01*
X503184D01*
Y26963D01*
X502184D01*
X508182Y20965D02*
X510182D01*
X511181Y21965D01*
Y23964D01*
X510182Y24964D01*
X508182D01*
X507182Y23964D01*
Y21965D01*
X508182Y20965D01*
X514180Y25963D02*
Y24964D01*
X513180D01*
X515180D01*
X514180D01*
Y21965D01*
X515180Y20965D01*
X500185Y10963D02*
X499185Y11963D01*
X497186D01*
X496186Y10963D01*
Y9964D01*
X497186Y8964D01*
X499185D01*
X500185Y7964D01*
Y6965D01*
X499185Y5965D01*
X497186D01*
X496186Y6965D01*
X502184Y5965D02*
X504183D01*
X503184D01*
Y11963D01*
X502184D01*
X508182Y5965D02*
X510182D01*
X511181Y6965D01*
Y8964D01*
X510182Y9964D01*
X508182D01*
X507182Y8964D01*
Y6965D01*
X508182Y5965D01*
X514180Y10963D02*
Y9964D01*
X513180D01*
X515180D01*
X514180D01*
Y6965D01*
X515180Y5965D01*
X496186Y-9035D02*
Y-3037D01*
X499185D01*
X500185Y-4037D01*
Y-6036D01*
X499185Y-7036D01*
X496186D01*
X498185D02*
X500185Y-9035D01*
X503184D02*
X505183D01*
X506183Y-8035D01*
Y-6036D01*
X505183Y-5036D01*
X503184D01*
X502184Y-6036D01*
Y-8035D01*
X503184Y-9035D01*
X508182Y-5036D02*
Y-8035D01*
X509182Y-9035D01*
X512181D01*
Y-5036D01*
X514180Y-9035D02*
Y-5036D01*
X517179D01*
X518179Y-6036D01*
Y-9035D01*
X524177Y-3037D02*
Y-9035D01*
X521178D01*
X520178Y-8035D01*
Y-6036D01*
X521178Y-5036D01*
X524177D01*
X496186Y-24035D02*
Y-18037D01*
X499185D01*
X500185Y-19037D01*
Y-21036D01*
X499185Y-22036D01*
X496186D01*
X498185D02*
X500185Y-24035D01*
X503184D02*
X505183D01*
X506183Y-23035D01*
Y-21036D01*
X505183Y-20036D01*
X503184D01*
X502184Y-21036D01*
Y-23035D01*
X503184Y-24035D01*
X508182Y-20036D02*
Y-23035D01*
X509182Y-24035D01*
X512181D01*
Y-20036D01*
X514180Y-24035D02*
Y-20036D01*
X517179D01*
X518179Y-21036D01*
Y-24035D01*
X524177Y-18037D02*
Y-24035D01*
X521178D01*
X520178Y-23035D01*
Y-21036D01*
X521178Y-20036D01*
X524177D01*
X445598Y50965D02*
Y56963D01*
X448597D01*
X449597Y55963D01*
Y53964D01*
X448597Y52964D01*
X445598D01*
X451596Y56963D02*
X455595D01*
X453596D01*
Y50965D01*
X457594Y56963D02*
Y50965D01*
Y53964D01*
X461593D01*
Y56963D01*
Y50965D01*
X445598Y35965D02*
Y41963D01*
X448597D01*
X449597Y40963D01*
Y38964D01*
X448597Y37964D01*
X445598D01*
X451596Y41963D02*
X455595D01*
X453596D01*
Y35965D01*
X457594Y41963D02*
Y35965D01*
Y38964D01*
X461593D01*
Y41963D01*
Y35965D01*
X445598Y20965D02*
Y26963D01*
X448597D01*
X449597Y25963D01*
Y23964D01*
X448597Y22964D01*
X445598D01*
X451596Y26963D02*
X455595D01*
X453596D01*
Y20965D01*
X457594Y26963D02*
Y20965D01*
Y23964D01*
X461593D01*
Y26963D01*
Y20965D01*
X445598Y5965D02*
Y11963D01*
X448597D01*
X449597Y10963D01*
Y8964D01*
X448597Y7964D01*
X445598D01*
X451596Y11963D02*
X455595D01*
X453596D01*
Y5965D01*
X457594Y11963D02*
Y5965D01*
Y8964D01*
X461593D01*
Y11963D01*
Y5965D01*
X445598Y-9035D02*
Y-3037D01*
X449597Y-9035D01*
Y-3037D01*
X451596Y-9035D02*
Y-3037D01*
X454596D01*
X455595Y-4037D01*
Y-6036D01*
X454596Y-7036D01*
X451596D01*
X457594Y-3037D02*
X461593D01*
X459594D01*
Y-9035D01*
X463593Y-3037D02*
Y-9035D01*
Y-6036D01*
X467591D01*
Y-3037D01*
Y-9035D01*
X445598Y-24035D02*
Y-18037D01*
X449597Y-24035D01*
Y-18037D01*
X451596Y-24035D02*
Y-18037D01*
X454596D01*
X455595Y-19037D01*
Y-21036D01*
X454596Y-22036D01*
X451596D01*
X457594Y-18037D02*
X461593D01*
X459594D01*
Y-24035D01*
X463593Y-18037D02*
Y-24035D01*
Y-21036D01*
X467591D01*
Y-18037D01*
Y-24035D01*
X328633Y55963D02*
X329632Y56963D01*
X331632D01*
X332631Y55963D01*
Y51965D01*
X331632Y50965D01*
X329632D01*
X328633Y51965D01*
Y55963D01*
X335630Y49965D02*
X336630Y50965D01*
Y51965D01*
X335630D01*
Y50965D01*
X336630D01*
X335630Y49965D01*
X334631Y48966D01*
X344627Y50965D02*
X340629D01*
X344627Y54964D01*
Y55963D01*
X343628Y56963D01*
X341629D01*
X340629Y55963D01*
X350626Y56963D02*
X346627D01*
Y53964D01*
X348626Y54964D01*
X349626D01*
X350626Y53964D01*
Y51965D01*
X349626Y50965D01*
X347627D01*
X346627Y51965D01*
X352625Y55963D02*
X353625Y56963D01*
X355624D01*
X356624Y55963D01*
Y51965D01*
X355624Y50965D01*
X353625D01*
X352625Y51965D01*
Y55963D01*
X358623Y50965D02*
Y54964D01*
X359623D01*
X360622Y53964D01*
Y50965D01*
Y53964D01*
X361622Y54964D01*
X362622Y53964D01*
Y50965D01*
X364621D02*
Y54964D01*
X365621D01*
X366620Y53964D01*
Y50965D01*
Y53964D01*
X367620Y54964D01*
X368620Y53964D01*
Y50965D01*
X378616D02*
X376617Y52964D01*
Y54964D01*
X378616Y56963D01*
X381616Y51965D02*
X382615Y50965D01*
X384615D01*
X385614Y51965D01*
Y55963D01*
X384615Y56963D01*
X382615D01*
X381616Y55963D01*
Y54964D01*
X382615Y53964D01*
X385614D01*
X388613Y49965D02*
X389613Y50965D01*
Y51965D01*
X388613D01*
Y50965D01*
X389613D01*
X388613Y49965D01*
X387614Y48966D01*
X393612Y55963D02*
X394611Y56963D01*
X396611D01*
X397610Y55963D01*
Y54964D01*
X396611Y53964D01*
X397610Y52964D01*
Y51965D01*
X396611Y50965D01*
X394611D01*
X393612Y51965D01*
Y52964D01*
X394611Y53964D01*
X393612Y54964D01*
Y55963D01*
X394611Y53964D02*
X396611D01*
X402609Y50965D02*
Y56963D01*
X399610Y53964D01*
X403609D01*
X405608Y50965D02*
Y54964D01*
X406607D01*
X407607Y53964D01*
Y50965D01*
Y53964D01*
X408607Y54964D01*
X409607Y53964D01*
Y50965D01*
X411606D02*
X413605D01*
X412606D01*
Y54964D01*
X411606D01*
X416604Y50965D02*
X418604D01*
X417604D01*
Y56963D01*
X416604D01*
X421603Y50965D02*
X423602Y52964D01*
Y54964D01*
X421603Y56963D01*
X328633Y40963D02*
X329632Y41963D01*
X331632D01*
X332631Y40963D01*
Y36965D01*
X331632Y35965D01*
X329632D01*
X328633Y36965D01*
Y40963D01*
X335630Y34965D02*
X336630Y35965D01*
Y36965D01*
X335630D01*
Y35965D01*
X336630D01*
X335630Y34965D01*
X334631Y33966D01*
X340629Y36965D02*
X341629Y35965D01*
X343628D01*
X344627Y36965D01*
Y40963D01*
X343628Y41963D01*
X341629D01*
X340629Y40963D01*
Y39964D01*
X341629Y38964D01*
X344627D01*
X346627Y40963D02*
X347627Y41963D01*
X349626D01*
X350626Y40963D01*
Y36965D01*
X349626Y35965D01*
X347627D01*
X346627Y36965D01*
Y40963D01*
X352625D02*
X353625Y41963D01*
X355624D01*
X356624Y40963D01*
Y36965D01*
X355624Y35965D01*
X353625D01*
X352625Y36965D01*
Y40963D01*
X358623Y35965D02*
Y39964D01*
X359623D01*
X360622Y38964D01*
Y35965D01*
Y38964D01*
X361622Y39964D01*
X362622Y38964D01*
Y35965D01*
X364621D02*
Y39964D01*
X365621D01*
X366620Y38964D01*
Y35965D01*
Y38964D01*
X367620Y39964D01*
X368620Y38964D01*
Y35965D01*
X378616D02*
X376617Y37964D01*
Y39964D01*
X378616Y41963D01*
X381616Y40963D02*
X382615Y41963D01*
X384615D01*
X385614Y40963D01*
Y39964D01*
X384615Y38964D01*
X383615D01*
X384615D01*
X385614Y37964D01*
Y36965D01*
X384615Y35965D01*
X382615D01*
X381616Y36965D01*
X391612Y41963D02*
X387614D01*
Y38964D01*
X389613Y39964D01*
X390613D01*
X391612Y38964D01*
Y36965D01*
X390613Y35965D01*
X388613D01*
X387614Y36965D01*
X394611Y34965D02*
X395611Y35965D01*
Y36965D01*
X394611D01*
Y35965D01*
X395611D01*
X394611Y34965D01*
X393612Y33966D01*
X402609Y35965D02*
Y41963D01*
X399610Y38964D01*
X403609D01*
X405608Y40963D02*
X406607Y41963D01*
X408607D01*
X409607Y40963D01*
Y39964D01*
X408607Y38964D01*
X407607D01*
X408607D01*
X409607Y37964D01*
Y36965D01*
X408607Y35965D01*
X406607D01*
X405608Y36965D01*
X411606Y35965D02*
Y39964D01*
X412606D01*
X413605Y38964D01*
Y35965D01*
Y38964D01*
X414605Y39964D01*
X415605Y38964D01*
Y35965D01*
X417604D02*
X419603D01*
X418604D01*
Y39964D01*
X417604D01*
X422602Y35965D02*
X424602D01*
X423602D01*
Y41963D01*
X422602D01*
X427601Y35965D02*
X429600Y37964D01*
Y39964D01*
X427601Y41963D01*
X328633Y25963D02*
X329632Y26963D01*
X331632D01*
X332631Y25963D01*
Y21965D01*
X331632Y20965D01*
X329632D01*
X328633Y21965D01*
Y25963D01*
X335630Y19965D02*
X336630Y20965D01*
Y21965D01*
X335630D01*
Y20965D01*
X336630D01*
X335630Y19965D01*
X334631Y18966D01*
X344627Y26963D02*
X342628Y25963D01*
X340629Y23964D01*
Y21965D01*
X341629Y20965D01*
X343628D01*
X344627Y21965D01*
Y22964D01*
X343628Y23964D01*
X340629D01*
X346627Y25963D02*
X347627Y26963D01*
X349626D01*
X350626Y25963D01*
Y21965D01*
X349626Y20965D01*
X347627D01*
X346627Y21965D01*
Y25963D01*
X352625D02*
X353625Y26963D01*
X355624D01*
X356624Y25963D01*
Y21965D01*
X355624Y20965D01*
X353625D01*
X352625Y21965D01*
Y25963D01*
X358623Y20965D02*
Y24964D01*
X359623D01*
X360622Y23964D01*
Y20965D01*
Y23964D01*
X361622Y24964D01*
X362622Y23964D01*
Y20965D01*
X364621D02*
Y24964D01*
X365621D01*
X366620Y23964D01*
Y20965D01*
Y23964D01*
X367620Y24964D01*
X368620Y23964D01*
Y20965D01*
X378616D02*
X376617Y22964D01*
Y24964D01*
X378616Y26963D01*
X385614Y20965D02*
X381616D01*
X385614Y24964D01*
Y25963D01*
X384615Y26963D01*
X382615D01*
X381616Y25963D01*
X387614D02*
X388613Y26963D01*
X390613D01*
X391612Y25963D01*
Y24964D01*
X390613Y23964D01*
X389613D01*
X390613D01*
X391612Y22964D01*
Y21965D01*
X390613Y20965D01*
X388613D01*
X387614Y21965D01*
X394611Y19965D02*
X395611Y20965D01*
Y21965D01*
X394611D01*
Y20965D01*
X395611D01*
X394611Y19965D01*
X393612Y18966D01*
X403609Y26963D02*
X401609Y25963D01*
X399610Y23964D01*
Y21965D01*
X400609Y20965D01*
X402609D01*
X403609Y21965D01*
Y22964D01*
X402609Y23964D01*
X399610D01*
X409607Y20965D02*
X405608D01*
X409607Y24964D01*
Y25963D01*
X408607Y26963D01*
X406607D01*
X405608Y25963D01*
X411606Y20965D02*
Y24964D01*
X412606D01*
X413605Y23964D01*
Y20965D01*
Y23964D01*
X414605Y24964D01*
X415605Y23964D01*
Y20965D01*
X417604D02*
X419603D01*
X418604D01*
Y24964D01*
X417604D01*
X422602Y20965D02*
X424602D01*
X423602D01*
Y26963D01*
X422602D01*
X427601Y20965D02*
X429600Y22964D01*
Y24964D01*
X427601Y26963D01*
X328633Y10963D02*
X329632Y11963D01*
X331632D01*
X332631Y10963D01*
Y6965D01*
X331632Y5965D01*
X329632D01*
X328633Y6965D01*
Y10963D01*
X335630Y4965D02*
X336630Y5965D01*
Y6965D01*
X335630D01*
Y5965D01*
X336630D01*
X335630Y4965D01*
X334631Y3966D01*
X344627Y11963D02*
X342628Y10963D01*
X340629Y8964D01*
Y6965D01*
X341629Y5965D01*
X343628D01*
X344627Y6965D01*
Y7964D01*
X343628Y8964D01*
X340629D01*
X346627Y10963D02*
X347627Y11963D01*
X349626D01*
X350626Y10963D01*
Y6965D01*
X349626Y5965D01*
X347627D01*
X346627Y6965D01*
Y10963D01*
X352625D02*
X353625Y11963D01*
X355624D01*
X356624Y10963D01*
Y6965D01*
X355624Y5965D01*
X353625D01*
X352625Y6965D01*
Y10963D01*
X358623Y5965D02*
Y9964D01*
X359623D01*
X360622Y8964D01*
Y5965D01*
Y8964D01*
X361622Y9964D01*
X362622Y8964D01*
Y5965D01*
X364621D02*
Y9964D01*
X365621D01*
X366620Y8964D01*
Y5965D01*
Y8964D01*
X367620Y9964D01*
X368620Y8964D01*
Y5965D01*
X378616D02*
X376617Y7964D01*
Y9964D01*
X378616Y11963D01*
X385614Y5965D02*
X381616D01*
X385614Y9964D01*
Y10963D01*
X384615Y11963D01*
X382615D01*
X381616Y10963D01*
X387614D02*
X388613Y11963D01*
X390613D01*
X391612Y10963D01*
Y9964D01*
X390613Y8964D01*
X389613D01*
X390613D01*
X391612Y7964D01*
Y6965D01*
X390613Y5965D01*
X388613D01*
X387614Y6965D01*
X394611Y4965D02*
X395611Y5965D01*
Y6965D01*
X394611D01*
Y5965D01*
X395611D01*
X394611Y4965D01*
X393612Y3966D01*
X403609Y11963D02*
X401609Y10963D01*
X399610Y8964D01*
Y6965D01*
X400609Y5965D01*
X402609D01*
X403609Y6965D01*
Y7964D01*
X402609Y8964D01*
X399610D01*
X409607Y5965D02*
X405608D01*
X409607Y9964D01*
Y10963D01*
X408607Y11963D01*
X406607D01*
X405608Y10963D01*
X411606Y5965D02*
Y9964D01*
X412606D01*
X413605Y8964D01*
Y5965D01*
Y8964D01*
X414605Y9964D01*
X415605Y8964D01*
Y5965D01*
X417604D02*
X419603D01*
X418604D01*
Y9964D01*
X417604D01*
X422602Y5965D02*
X424602D01*
X423602D01*
Y11963D01*
X422602D01*
X427601Y5965D02*
X429600Y7964D01*
Y9964D01*
X427601Y11963D01*
X328633Y-4037D02*
X329632Y-3037D01*
X331632D01*
X332631Y-4037D01*
Y-8035D01*
X331632Y-9035D01*
X329632D01*
X328633Y-8035D01*
Y-4037D01*
X335630Y-10035D02*
X336630Y-9035D01*
Y-8035D01*
X335630D01*
Y-9035D01*
X336630D01*
X335630Y-10035D01*
X334631Y-11034D01*
X344627Y-3037D02*
X342628Y-4037D01*
X340629Y-6036D01*
Y-8035D01*
X341629Y-9035D01*
X343628D01*
X344627Y-8035D01*
Y-7036D01*
X343628Y-6036D01*
X340629D01*
X350626Y-3037D02*
X346627D01*
Y-6036D01*
X348626Y-5036D01*
X349626D01*
X350626Y-6036D01*
Y-8035D01*
X349626Y-9035D01*
X347627D01*
X346627Y-8035D01*
X352625Y-4037D02*
X353625Y-3037D01*
X355624D01*
X356624Y-4037D01*
Y-8035D01*
X355624Y-9035D01*
X353625D01*
X352625Y-8035D01*
Y-4037D01*
X358623Y-9035D02*
Y-5036D01*
X359623D01*
X360622Y-6036D01*
Y-9035D01*
Y-6036D01*
X361622Y-5036D01*
X362622Y-6036D01*
Y-9035D01*
X364621D02*
Y-5036D01*
X365621D01*
X366620Y-6036D01*
Y-9035D01*
Y-6036D01*
X367620Y-5036D01*
X368620Y-6036D01*
Y-9035D01*
X378616D02*
X376617Y-7036D01*
Y-5036D01*
X378616Y-3037D01*
X385614Y-9035D02*
X381616D01*
X385614Y-5036D01*
Y-4037D01*
X384615Y-3037D01*
X382615D01*
X381616Y-4037D01*
X391612Y-3037D02*
X387614D01*
Y-6036D01*
X389613Y-5036D01*
X390613D01*
X391612Y-6036D01*
Y-8035D01*
X390613Y-9035D01*
X388613D01*
X387614Y-8035D01*
X394611Y-10035D02*
X395611Y-9035D01*
Y-8035D01*
X394611D01*
Y-9035D01*
X395611D01*
X394611Y-10035D01*
X393612Y-11034D01*
X403609Y-3037D02*
X399610D01*
Y-6036D01*
X401609Y-5036D01*
X402609D01*
X403609Y-6036D01*
Y-8035D01*
X402609Y-9035D01*
X400609D01*
X399610Y-8035D01*
X405608D02*
X406607Y-9035D01*
X408607D01*
X409607Y-8035D01*
Y-4037D01*
X408607Y-3037D01*
X406607D01*
X405608Y-4037D01*
Y-5036D01*
X406607Y-6036D01*
X409607D01*
X411606Y-9035D02*
Y-5036D01*
X412606D01*
X413605Y-6036D01*
Y-9035D01*
Y-6036D01*
X414605Y-5036D01*
X415605Y-6036D01*
Y-9035D01*
X417604D02*
X419603D01*
X418604D01*
Y-5036D01*
X417604D01*
X422602Y-9035D02*
X424602D01*
X423602D01*
Y-3037D01*
X422602D01*
X427601Y-9035D02*
X429600Y-7036D01*
Y-5036D01*
X427601Y-3037D01*
X328633Y-19037D02*
X329632Y-18037D01*
X331632D01*
X332631Y-19037D01*
Y-20036D01*
X331632Y-21036D01*
X330632D01*
X331632D01*
X332631Y-22036D01*
Y-23035D01*
X331632Y-24035D01*
X329632D01*
X328633Y-23035D01*
X335630Y-25035D02*
X336630Y-24035D01*
Y-23035D01*
X335630D01*
Y-24035D01*
X336630D01*
X335630Y-25035D01*
X334631Y-26034D01*
X344627Y-24035D02*
X340629D01*
X344627Y-20036D01*
Y-19037D01*
X343628Y-18037D01*
X341629D01*
X340629Y-19037D01*
X346627D02*
X347627Y-18037D01*
X349626D01*
X350626Y-19037D01*
Y-23035D01*
X349626Y-24035D01*
X347627D01*
X346627Y-23035D01*
Y-19037D01*
X352625D02*
X353625Y-18037D01*
X355624D01*
X356624Y-19037D01*
Y-23035D01*
X355624Y-24035D01*
X353625D01*
X352625Y-23035D01*
Y-19037D01*
X358623Y-24035D02*
Y-20036D01*
X359623D01*
X360622Y-21036D01*
Y-24035D01*
Y-21036D01*
X361622Y-20036D01*
X362622Y-21036D01*
Y-24035D01*
X364621D02*
Y-20036D01*
X365621D01*
X366620Y-21036D01*
Y-24035D01*
Y-21036D01*
X367620Y-20036D01*
X368620Y-21036D01*
Y-24035D01*
X378616D02*
X376617Y-22036D01*
Y-20036D01*
X378616Y-18037D01*
X381616Y-24035D02*
X383615D01*
X382615D01*
Y-18037D01*
X381616Y-19037D01*
X390613Y-24035D02*
X386614D01*
X390613Y-20036D01*
Y-19037D01*
X389613Y-18037D01*
X387614D01*
X386614Y-19037D01*
X396611Y-18037D02*
X392612D01*
Y-21036D01*
X394611Y-20036D01*
X395611D01*
X396611Y-21036D01*
Y-23035D01*
X395611Y-24035D01*
X393612D01*
X392612Y-23035D01*
X399610Y-25035D02*
X400609Y-24035D01*
Y-23035D01*
X399610D01*
Y-24035D01*
X400609D01*
X399610Y-25035D01*
X398610Y-26034D01*
X404608Y-23035D02*
X405608Y-24035D01*
X407607D01*
X408607Y-23035D01*
Y-19037D01*
X407607Y-18037D01*
X405608D01*
X404608Y-19037D01*
Y-20036D01*
X405608Y-21036D01*
X408607D01*
X410606Y-19037D02*
X411606Y-18037D01*
X413605D01*
X414605Y-19037D01*
Y-20036D01*
X413605Y-21036D01*
X414605Y-22036D01*
Y-23035D01*
X413605Y-24035D01*
X411606D01*
X410606Y-23035D01*
Y-22036D01*
X411606Y-21036D01*
X410606Y-20036D01*
Y-19037D01*
X411606Y-21036D02*
X413605D01*
X416604Y-24035D02*
Y-20036D01*
X417604D01*
X418604Y-21036D01*
Y-24035D01*
Y-21036D01*
X419603Y-20036D01*
X420603Y-21036D01*
Y-24035D01*
X422602D02*
X424602D01*
X423602D01*
Y-20036D01*
X422602D01*
X427601Y-24035D02*
X429600D01*
X428600D01*
Y-18037D01*
X427601D01*
X432599Y-24035D02*
X434598Y-22036D01*
Y-20036D01*
X432599Y-18037D01*
X274647Y-38035D02*
X275646Y-39035D01*
X277646D01*
X278645Y-38035D01*
Y-34037D01*
X277646Y-33037D01*
X275646D01*
X274647Y-34037D01*
Y-35036D01*
X275646Y-36036D01*
X278645D01*
X280645Y-34037D02*
X281644Y-33037D01*
X283644D01*
X284643Y-34037D01*
Y-38035D01*
X283644Y-39035D01*
X281644D01*
X280645Y-38035D01*
Y-34037D01*
X292641Y-33037D02*
X296639D01*
X294640D01*
Y-39035D01*
X299639D02*
X301638D01*
X302638Y-38035D01*
Y-36036D01*
X301638Y-35036D01*
X299639D01*
X298639Y-36036D01*
Y-38035D01*
X299639Y-39035D01*
X305637Y-34037D02*
Y-35036D01*
X304637D01*
X306636D01*
X305637D01*
Y-38035D01*
X306636Y-39035D01*
X310635Y-35036D02*
X312634D01*
X313634Y-36036D01*
Y-39035D01*
X310635D01*
X309635Y-38035D01*
X310635Y-37036D01*
X313634D01*
X315633Y-39035D02*
X317633D01*
X316633D01*
Y-33037D01*
X315633D01*
X274647Y56963D02*
X278645D01*
Y55963D01*
X274647Y51965D01*
Y50965D01*
X280645D02*
X282644D01*
X281644D01*
Y56963D01*
X280645Y55963D01*
X274647Y35965D02*
X276646D01*
X275646D01*
Y41963D01*
X274647Y40963D01*
X283644Y35965D02*
X279645D01*
X283644Y39964D01*
Y40963D01*
X282644Y41963D01*
X280645D01*
X279645Y40963D01*
X278645Y20965D02*
X274647D01*
X278645Y24964D01*
Y25963D01*
X277646Y26963D01*
X275646D01*
X274647Y25963D01*
X278645Y5965D02*
X274647D01*
X278645Y9964D01*
Y10963D01*
X277646Y11963D01*
X275646D01*
X274647Y10963D01*
X278645Y-9035D02*
X274647D01*
X278645Y-5036D01*
Y-4037D01*
X277646Y-3037D01*
X275646D01*
X274647Y-4037D01*
Y-24035D02*
X276646D01*
X275646D01*
Y-18037D01*
X274647Y-19037D01*
X402606Y-61530D02*
X406605D01*
X402606Y-59531D02*
X406605D01*
X414602Y-63530D02*
Y-57532D01*
X417601D01*
X418601Y-58531D01*
Y-60531D01*
X417601Y-61530D01*
X414602D01*
X416602D02*
X418601Y-63530D01*
X421600D02*
X423599D01*
X424599Y-62530D01*
Y-60531D01*
X423599Y-59531D01*
X421600D01*
X420600Y-60531D01*
Y-62530D01*
X421600Y-63530D01*
X426598Y-59531D02*
Y-62530D01*
X427598Y-63530D01*
X430597D01*
Y-59531D01*
X433596Y-58531D02*
Y-59531D01*
X432596D01*
X434596D01*
X433596D01*
Y-62530D01*
X434596Y-63530D01*
X440594D02*
X438594D01*
X437595Y-62530D01*
Y-60531D01*
X438594Y-59531D01*
X440594D01*
X441593Y-60531D01*
Y-61530D01*
X437595D01*
X447591Y-57532D02*
Y-63530D01*
X444592D01*
X443593Y-62530D01*
Y-60531D01*
X444592Y-59531D01*
X447591D01*
X455589Y-63530D02*
Y-57532D01*
X458588D01*
X459588Y-58531D01*
Y-60531D01*
X458588Y-61530D01*
X455589D01*
X462587Y-59531D02*
X464586D01*
X465586Y-60531D01*
Y-63530D01*
X462587D01*
X461587Y-62530D01*
X462587Y-61530D01*
X465586D01*
X468585Y-58531D02*
Y-59531D01*
X467585D01*
X469584D01*
X468585D01*
Y-62530D01*
X469584Y-63530D01*
X472583Y-57532D02*
Y-63530D01*
Y-60531D01*
X473583Y-59531D01*
X475582D01*
X476582Y-60531D01*
Y-63530D01*
X484580Y-57532D02*
Y-63530D01*
X488578D01*
X493577D02*
X491577D01*
X490578Y-62530D01*
Y-60531D01*
X491577Y-59531D01*
X493577D01*
X494576Y-60531D01*
Y-61530D01*
X490578D01*
X496576Y-63530D02*
Y-59531D01*
X499575D01*
X500574Y-60531D01*
Y-63530D01*
X504573Y-65529D02*
X505573D01*
X506572Y-64530D01*
Y-59531D01*
X503573D01*
X502574Y-60531D01*
Y-62530D01*
X503573Y-63530D01*
X506572D01*
X509571Y-58531D02*
Y-59531D01*
X508572D01*
X510571D01*
X509571D01*
Y-62530D01*
X510571Y-63530D01*
X513570Y-57532D02*
Y-63530D01*
Y-60531D01*
X514570Y-59531D01*
X516569D01*
X517569Y-60531D01*
Y-63530D01*
X525566Y-60531D02*
X529565D01*
X527566Y-58531D02*
Y-62530D01*
X537562Y-57532D02*
X541561D01*
X539562D01*
Y-63530D01*
X544560D02*
X546559D01*
X547559Y-62530D01*
Y-60531D01*
X546559Y-59531D01*
X544560D01*
X543560Y-60531D01*
Y-62530D01*
X544560Y-63530D01*
X550558D02*
X552558D01*
X553557Y-62530D01*
Y-60531D01*
X552558Y-59531D01*
X550558D01*
X549558Y-60531D01*
Y-62530D01*
X550558Y-63530D01*
X555556D02*
X557556D01*
X556556D01*
Y-57532D01*
X555556D01*
X570552Y-58531D02*
X569552Y-57532D01*
X567553D01*
X566553Y-58531D01*
Y-59531D01*
X567553Y-60531D01*
X569552D01*
X570552Y-61530D01*
Y-62530D01*
X569552Y-63530D01*
X567553D01*
X566553Y-62530D01*
X572551Y-63530D02*
X574550D01*
X573551D01*
Y-59531D01*
X572551D01*
X577549D02*
X581548D01*
X577549Y-63530D01*
X581548D01*
X586547D02*
X584547D01*
X583547Y-62530D01*
Y-60531D01*
X584547Y-59531D01*
X586547D01*
X587546Y-60531D01*
Y-61530D01*
X583547D01*
X595544D02*
X599542D01*
X595544Y-59531D02*
X599542D01*
X611538Y-58531D02*
X610539Y-57532D01*
X608539D01*
X607540Y-58531D01*
Y-59531D01*
X608539Y-60531D01*
X610539D01*
X611538Y-61530D01*
Y-62530D01*
X610539Y-63530D01*
X608539D01*
X607540Y-62530D01*
X613538Y-63530D02*
X615537D01*
X614537D01*
Y-57532D01*
X613538D01*
X619536Y-63530D02*
X621535D01*
X622535Y-62530D01*
Y-60531D01*
X621535Y-59531D01*
X619536D01*
X618536Y-60531D01*
Y-62530D01*
X619536Y-63530D01*
X625534Y-58531D02*
Y-59531D01*
X624534D01*
X626534D01*
X625534D01*
Y-62530D01*
X626534Y-63530D01*
X635531D02*
X637530D01*
X636530D01*
Y-57532D01*
X635531D01*
X643528Y-63530D02*
X641529D01*
X640529Y-62530D01*
Y-60531D01*
X641529Y-59531D01*
X643528D01*
X644528Y-60531D01*
Y-61530D01*
X640529D01*
X646527Y-63530D02*
Y-59531D01*
X649526D01*
X650526Y-60531D01*
Y-63530D01*
X654525Y-65529D02*
X655524D01*
X656524Y-64530D01*
Y-59531D01*
X653525D01*
X652525Y-60531D01*
Y-62530D01*
X653525Y-63530D01*
X656524D01*
X659523Y-58531D02*
Y-59531D01*
X658523D01*
X660523D01*
X659523D01*
Y-62530D01*
X660523Y-63530D01*
X663522Y-57532D02*
Y-63530D01*
Y-60531D01*
X664521Y-59531D01*
X666521D01*
X667520Y-60531D01*
Y-63530D01*
X676517Y-59531D02*
X678517D01*
X679516Y-60531D01*
Y-63530D01*
X676517D01*
X675518Y-62530D01*
X676517Y-61530D01*
X679516D01*
X681516Y-63530D02*
X684515D01*
X685514Y-62530D01*
X684515Y-61530D01*
X682515D01*
X681516Y-60531D01*
X682515Y-59531D01*
X685514D01*
X697511Y-57532D02*
Y-63530D01*
X694512D01*
X693512Y-62530D01*
Y-60531D01*
X694512Y-59531D01*
X697511D01*
X702509Y-63530D02*
X700510D01*
X699510Y-62530D01*
Y-60531D01*
X700510Y-59531D01*
X702509D01*
X703509Y-60531D01*
Y-61530D01*
X699510D01*
X706508Y-63530D02*
Y-58531D01*
Y-60531D01*
X705508D01*
X707507D01*
X706508D01*
Y-58531D01*
X707507Y-57532D01*
X710506Y-63530D02*
X712506D01*
X711506D01*
Y-59531D01*
X710506D01*
X715505Y-63530D02*
Y-59531D01*
X718504D01*
X719503Y-60531D01*
Y-63530D01*
X724502D02*
X722503D01*
X721503Y-62530D01*
Y-60531D01*
X722503Y-59531D01*
X724502D01*
X725501Y-60531D01*
Y-61530D01*
X721503D01*
X731500Y-57532D02*
Y-63530D01*
X728501D01*
X727501Y-62530D01*
Y-60531D01*
X728501Y-59531D01*
X731500D01*
X739497Y-63530D02*
X741496D01*
X740497D01*
Y-59531D01*
X739497D01*
X744495Y-63530D02*
Y-59531D01*
X747494D01*
X748494Y-60531D01*
Y-63530D01*
X757491Y-58531D02*
Y-59531D01*
X756492D01*
X758491D01*
X757491D01*
Y-62530D01*
X758491Y-63530D01*
X761490Y-57532D02*
Y-63530D01*
Y-60531D01*
X762490Y-59531D01*
X764489D01*
X765489Y-60531D01*
Y-63530D01*
X770487D02*
X768488D01*
X767488Y-62530D01*
Y-60531D01*
X768488Y-59531D01*
X770487D01*
X771487Y-60531D01*
Y-61530D01*
X767488D01*
X779484Y-63530D02*
Y-57532D01*
X782483D01*
X783483Y-58531D01*
Y-60531D01*
X782483Y-61530D01*
X779484D01*
X789481Y-58531D02*
X788481Y-57532D01*
X786482D01*
X785482Y-58531D01*
Y-62530D01*
X786482Y-63530D01*
X788481D01*
X789481Y-62530D01*
X791480Y-57532D02*
Y-63530D01*
X794479D01*
X795479Y-62530D01*
Y-61530D01*
X794479Y-60531D01*
X791480D01*
X794479D01*
X795479Y-59531D01*
Y-58531D01*
X794479Y-57532D01*
X791480D01*
X803476Y-63530D02*
X805476D01*
X804476D01*
Y-57532D01*
X803476D01*
X809474Y-59531D02*
X811474D01*
X812473Y-60531D01*
Y-63530D01*
X809474D01*
X808475Y-62530D01*
X809474Y-61530D01*
X812473D01*
X814473Y-59531D02*
Y-62530D01*
X815472Y-63530D01*
X818472D01*
Y-64530D01*
X817472Y-65529D01*
X816472D01*
X818472Y-63530D02*
Y-59531D01*
X821471Y-63530D02*
X823470D01*
X824469Y-62530D01*
Y-60531D01*
X823470Y-59531D01*
X821471D01*
X820471Y-60531D01*
Y-62530D01*
X821471Y-63530D01*
X826469Y-59531D02*
Y-62530D01*
X827468Y-63530D01*
X830468D01*
Y-59531D01*
X833467Y-58531D02*
Y-59531D01*
X832467D01*
X834466D01*
X833467D01*
Y-62530D01*
X834466Y-63530D01*
X437595Y-51533D02*
X441593D01*
X437595Y-49534D02*
X441593D01*
X453589Y-48534D02*
X452590Y-47534D01*
X450591D01*
X449591Y-48534D01*
Y-52533D01*
X450591Y-53532D01*
X452590D01*
X453589Y-52533D01*
X456589Y-49534D02*
X458588D01*
X459588Y-50533D01*
Y-53532D01*
X456589D01*
X455589Y-52533D01*
X456589Y-51533D01*
X459588D01*
X461587Y-53532D02*
X463586D01*
X462587D01*
Y-47534D01*
X461587D01*
X470584Y-49534D02*
X467585D01*
X466585Y-50533D01*
Y-52533D01*
X467585Y-53532D01*
X470584D01*
X472583Y-49534D02*
Y-52533D01*
X473583Y-53532D01*
X476582D01*
Y-49534D01*
X478581Y-53532D02*
X480581D01*
X479581D01*
Y-47534D01*
X478581D01*
X484580Y-49534D02*
X486579D01*
X487578Y-50533D01*
Y-53532D01*
X484580D01*
X483580Y-52533D01*
X484580Y-51533D01*
X487578D01*
X490578Y-48534D02*
Y-49534D01*
X489578D01*
X491577D01*
X490578D01*
Y-52533D01*
X491577Y-53532D01*
X497575D02*
X495576D01*
X494576Y-52533D01*
Y-50533D01*
X495576Y-49534D01*
X497575D01*
X498575Y-50533D01*
Y-51533D01*
X494576D01*
X504573Y-47534D02*
Y-53532D01*
X501574D01*
X500574Y-52533D01*
Y-50533D01*
X501574Y-49534D01*
X504573D01*
X513570Y-53532D02*
Y-48534D01*
Y-50533D01*
X512570D01*
X514570D01*
X513570D01*
Y-48534D01*
X514570Y-47534D01*
X517569Y-49534D02*
Y-53532D01*
Y-51533D01*
X518569Y-50533D01*
X519568Y-49534D01*
X520568D01*
X524567Y-53532D02*
X526566D01*
X527566Y-52533D01*
Y-50533D01*
X526566Y-49534D01*
X524567D01*
X523567Y-50533D01*
Y-52533D01*
X524567Y-53532D01*
X529565D02*
Y-49534D01*
X530565D01*
X531564Y-50533D01*
Y-53532D01*
Y-50533D01*
X532564Y-49534D01*
X533564Y-50533D01*
Y-53532D01*
X542561Y-48534D02*
Y-49534D01*
X541561D01*
X543560D01*
X542561D01*
Y-52533D01*
X543560Y-53532D01*
X547559D02*
X549558D01*
X550558Y-52533D01*
Y-50533D01*
X549558Y-49534D01*
X547559D01*
X546559Y-50533D01*
Y-52533D01*
X547559Y-53532D01*
X553557D02*
X555556D01*
X556556Y-52533D01*
Y-50533D01*
X555556Y-49534D01*
X553557D01*
X552558Y-50533D01*
Y-52533D01*
X553557Y-53532D01*
X558556D02*
X560555D01*
X559555D01*
Y-47534D01*
X558556D01*
X569552Y-53532D02*
X572551D01*
X573551Y-52533D01*
X572551Y-51533D01*
X570552D01*
X569552Y-50533D01*
X570552Y-49534D01*
X573551D01*
X576550Y-48534D02*
Y-49534D01*
X575550D01*
X577549D01*
X576550D01*
Y-52533D01*
X577549Y-53532D01*
X581548Y-49534D02*
X583547D01*
X584547Y-50533D01*
Y-53532D01*
X581548D01*
X580548Y-52533D01*
X581548Y-51533D01*
X584547D01*
X586547Y-49534D02*
Y-53532D01*
Y-51533D01*
X587546Y-50533D01*
X588546Y-49534D01*
X589545D01*
X593544Y-48534D02*
Y-49534D01*
X592545D01*
X594544D01*
X593544D01*
Y-52533D01*
X594544Y-53532D01*
X607540Y-49534D02*
X604541D01*
X603541Y-50533D01*
Y-52533D01*
X604541Y-53532D01*
X607540D01*
X612538D02*
X610539D01*
X609539Y-52533D01*
Y-50533D01*
X610539Y-49534D01*
X612538D01*
X613538Y-50533D01*
Y-51533D01*
X609539D01*
X615537Y-53532D02*
Y-49534D01*
X618536D01*
X619536Y-50533D01*
Y-53532D01*
X622535Y-48534D02*
Y-49534D01*
X621535D01*
X623534D01*
X622535D01*
Y-52533D01*
X623534Y-53532D01*
X626534Y-49534D02*
Y-53532D01*
Y-51533D01*
X627533Y-50533D01*
X628533Y-49534D01*
X629533D01*
X635531Y-53532D02*
X633531D01*
X632532Y-52533D01*
Y-50533D01*
X633531Y-49534D01*
X635531D01*
X636530Y-50533D01*
Y-51533D01*
X632532D01*
X644528Y-55532D02*
Y-49534D01*
X647527D01*
X648526Y-50533D01*
Y-52533D01*
X647527Y-53532D01*
X644528D01*
X651525D02*
X653525D01*
X654525Y-52533D01*
Y-50533D01*
X653525Y-49534D01*
X651525D01*
X650526Y-50533D01*
Y-52533D01*
X651525Y-53532D01*
X656524D02*
X659523D01*
X660523Y-52533D01*
X659523Y-51533D01*
X657523D01*
X656524Y-50533D01*
X657523Y-49534D01*
X660523D01*
X662522Y-53532D02*
X664521D01*
X663522D01*
Y-49534D01*
X662522D01*
X668520Y-48534D02*
Y-49534D01*
X667520D01*
X669520D01*
X668520D01*
Y-52533D01*
X669520Y-53532D01*
X672519D02*
X674518D01*
X673518D01*
Y-49534D01*
X672519D01*
X678517Y-53532D02*
X680516D01*
X681516Y-52533D01*
Y-50533D01*
X680516Y-49534D01*
X678517D01*
X677517Y-50533D01*
Y-52533D01*
X678517Y-53532D01*
X683515D02*
Y-49534D01*
X686514D01*
X687514Y-50533D01*
Y-53532D01*
X696511Y-48534D02*
Y-49534D01*
X695511D01*
X697511D01*
X696511D01*
Y-52533D01*
X697511Y-53532D01*
X701509D02*
X703509D01*
X704508Y-52533D01*
Y-50533D01*
X703509Y-49534D01*
X701509D01*
X700510Y-50533D01*
Y-52533D01*
X701509Y-53532D01*
X713505Y-48534D02*
Y-49534D01*
X712506D01*
X714505D01*
X713505D01*
Y-52533D01*
X714505Y-53532D01*
X718504D02*
X720503D01*
X721503Y-52533D01*
Y-50533D01*
X720503Y-49534D01*
X718504D01*
X717504Y-50533D01*
Y-52533D01*
X718504Y-53532D01*
X724502D02*
X726501D01*
X727501Y-52533D01*
Y-50533D01*
X726501Y-49534D01*
X724502D01*
X723502Y-50533D01*
Y-52533D01*
X724502Y-53532D01*
X729500D02*
X731500D01*
X730500D01*
Y-47534D01*
X729500D01*
X743496Y-53532D02*
X741496D01*
X740497Y-52533D01*
Y-50533D01*
X741496Y-49534D01*
X743496D01*
X744495Y-50533D01*
Y-51533D01*
X740497D01*
X746495Y-53532D02*
Y-49534D01*
X749494D01*
X750493Y-50533D01*
Y-53532D01*
X756492Y-47534D02*
Y-53532D01*
X753492D01*
X752493Y-52533D01*
Y-50533D01*
X753492Y-49534D01*
X756492D01*
X768488D02*
X765489D01*
X764489Y-50533D01*
Y-52533D01*
X765489Y-53532D01*
X768488D01*
X773486D02*
X771487D01*
X770487Y-52533D01*
Y-50533D01*
X771487Y-49534D01*
X773486D01*
X774486Y-50533D01*
Y-51533D01*
X770487D01*
X776485Y-53532D02*
Y-49534D01*
X779484D01*
X780484Y-50533D01*
Y-53532D01*
X783483Y-48534D02*
Y-49534D01*
X782483D01*
X784482D01*
X783483D01*
Y-52533D01*
X784482Y-53532D01*
X787481Y-49534D02*
Y-53532D01*
Y-51533D01*
X788481Y-50533D01*
X789481Y-49534D01*
X790481D01*
X796479Y-53532D02*
X794479D01*
X793479Y-52533D01*
Y-50533D01*
X794479Y-49534D01*
X796479D01*
X797478Y-50533D01*
Y-51533D01*
X793479D01*
X805476Y-55532D02*
Y-49534D01*
X808475D01*
X809474Y-50533D01*
Y-52533D01*
X808475Y-53532D01*
X805476D01*
X812473D02*
X814473D01*
X815472Y-52533D01*
Y-50533D01*
X814473Y-49534D01*
X812473D01*
X811474Y-50533D01*
Y-52533D01*
X812473Y-53532D01*
X817472D02*
X820471D01*
X821471Y-52533D01*
X820471Y-51533D01*
X818471D01*
X817472Y-50533D01*
X818471Y-49534D01*
X821471D01*
X823470Y-53532D02*
X825469D01*
X824469D01*
Y-49534D01*
X823470D01*
X829468Y-48534D02*
Y-49534D01*
X828468D01*
X830468D01*
X829468D01*
Y-52533D01*
X830468Y-53532D01*
X833467D02*
X835466D01*
X834466D01*
Y-49534D01*
X833467D01*
X839465Y-53532D02*
X841464D01*
X842464Y-52533D01*
Y-50533D01*
X841464Y-49534D01*
X839465D01*
X838465Y-50533D01*
Y-52533D01*
X839465Y-53532D01*
X844463D02*
Y-49534D01*
X847462D01*
X848462Y-50533D01*
Y-53532D01*
X850461D02*
Y-52533D01*
X851461D01*
Y-53532D01*
X850461D01*
D113*
X107724Y176802D02*
X109724D01*
Y178802D01*
X107724D02*
X109724D01*
X107724Y176802D02*
Y178802D01*
X118430Y176818D02*
X120430D01*
Y178818D01*
X118430D02*
X120430D01*
X118430Y176818D02*
Y178818D01*
X111042Y195616D02*
X113042D01*
Y197616D01*
X111042D02*
X113042D01*
X111042Y195616D02*
Y197616D01*
X121096Y191939D02*
X123096D01*
Y193939D01*
X121096D02*
X123096D01*
X121096Y191939D02*
Y193939D01*
X103285Y187284D02*
X105285D01*
Y189284D01*
X103285D02*
X105285D01*
X103285Y187284D02*
Y189284D01*
X114513Y211289D02*
X116513D01*
Y213289D01*
X114513D02*
X116513D01*
X114513Y211289D02*
Y213289D01*
X105455Y159916D02*
X107455D01*
Y161916D01*
X105455D02*
X107455D01*
X105455Y159916D02*
Y161916D01*
X106343Y168356D02*
X108343D01*
Y170356D01*
X106343D02*
X108343D01*
X106343Y168356D02*
Y170356D01*
X101782Y165162D02*
X103782D01*
Y167162D01*
X101782D02*
X103782D01*
X101782Y165162D02*
Y167162D01*
X100700Y156757D02*
X102700D01*
Y158757D01*
X100700D02*
X102700D01*
X100700Y156757D02*
Y158757D01*
X-6034Y41345D02*
X-4034D01*
Y43345D01*
X-6034D02*
X-4034D01*
X-6034Y41345D02*
Y43345D01*
X-4957Y44305D02*
X-2957D01*
Y46305D01*
X-4957D02*
X-2957D01*
X-4957Y44305D02*
Y46305D01*
X-57496Y79709D02*
X-55496D01*
Y81709D01*
X-57496D02*
X-55496D01*
X-57496Y79709D02*
Y81709D01*
X-25409Y76165D02*
X-23410D01*
Y78165D01*
X-25409D02*
X-23410D01*
X-25409Y76165D02*
Y78165D01*
X-34465Y72031D02*
X-32465D01*
Y74032D01*
X-34465D02*
X-32465D01*
X-34465Y72031D02*
Y74032D01*
X-5331Y72638D02*
X-3331D01*
Y74638D01*
X-5331D02*
X-3331D01*
X-5331Y72638D02*
Y74638D01*
X1362Y79709D02*
X3362D01*
Y81709D01*
X1362D02*
X3362D01*
X1362Y79709D02*
Y81709D01*
X-51134Y61321D02*
X-49134D01*
Y63321D01*
X-51134D02*
X-49134D01*
X-51134Y61321D02*
Y63321D01*
X-19687Y49876D02*
X-17687D01*
Y51876D01*
X-19687D02*
X-17687D01*
X-19687Y49876D02*
Y51876D01*
X21614Y31457D02*
X23614D01*
Y33457D01*
X21614D02*
X23614D01*
X21614Y31457D02*
Y33457D01*
X14354Y28528D02*
X16354D01*
Y30528D01*
X14354D02*
X16354D01*
X14354Y28528D02*
Y30528D01*
X-48776Y56288D02*
X-46776D01*
Y58288D01*
X-48776D02*
X-46776D01*
X-48776Y56288D02*
Y58288D01*
X-61039Y241126D02*
X-59039D01*
Y243126D01*
X-61039D02*
X-59039D01*
X-61039Y241126D02*
Y243126D01*
Y228224D02*
X-59039D01*
Y230224D01*
X-61039D02*
X-59039D01*
X-61039Y228224D02*
Y230224D01*
X-53457Y228224D02*
X-51457D01*
Y230224D01*
X-53457D02*
X-51457D01*
X-53457Y228224D02*
Y230224D01*
X47107Y228769D02*
X49107D01*
Y230769D01*
X47107D02*
X49107D01*
X47107Y228769D02*
Y230769D01*
X-113910Y166323D02*
X-111910D01*
Y168323D01*
X-113910D02*
X-111910D01*
X-113910Y166323D02*
Y168323D01*
X-108913Y161326D02*
X-106913D01*
Y163326D01*
X-108913D02*
X-106913D01*
X-108913Y161326D02*
Y163326D01*
X18710Y318681D02*
X20710D01*
Y320680D01*
X18710D02*
X20710D01*
X18710Y318681D02*
Y320680D01*
X39888Y315747D02*
X41888D01*
Y317747D01*
X39888D02*
X41888D01*
X39888Y315747D02*
Y317747D01*
X-118364Y161869D02*
X-116364D01*
Y163869D01*
X-118364D02*
X-116364D01*
X-118364Y161869D02*
Y163869D01*
X25936Y311226D02*
X27936D01*
Y313226D01*
X25936D02*
X27936D01*
X25936Y311226D02*
Y313226D01*
X77740Y71835D02*
X79740D01*
Y73835D01*
X77740D02*
X79740D01*
X77740Y71835D02*
Y73835D01*
X23840Y304585D02*
X25840D01*
Y306585D01*
X23840D02*
X25840D01*
X23840Y304585D02*
Y306585D01*
X22130Y309284D02*
X24130D01*
Y311284D01*
X22130D02*
X24130D01*
X22130Y309284D02*
Y311284D01*
X20420Y313982D02*
X22420D01*
Y315982D01*
X20420D02*
X22420D01*
X20420Y313982D02*
Y315982D01*
X23016Y279905D02*
X25016D01*
Y281905D01*
X23016D02*
X25016D01*
X23016Y279905D02*
Y281905D01*
X16999Y323379D02*
X19000D01*
Y325379D01*
X16999D02*
X19000D01*
X16999Y323379D02*
Y325379D01*
X23659Y325803D02*
X25659D01*
Y327803D01*
X23659D02*
X25659D01*
X23659Y325803D02*
Y327803D01*
X34531Y329760D02*
X36531D01*
Y331760D01*
X34531D02*
X36531D01*
X34531Y329760D02*
Y331760D01*
X25369Y321104D02*
X27369D01*
Y323104D01*
X25369D02*
X27369D01*
X25369Y321104D02*
Y323104D01*
X48197Y315632D02*
X50197D01*
Y317632D01*
X48197D02*
X50197D01*
X48197Y315632D02*
Y317632D01*
X28528Y254118D02*
X30528D01*
Y256118D01*
X28528D02*
X30528D01*
X28528Y254118D02*
Y256118D01*
X28175Y338717D02*
X30175D01*
Y340717D01*
X28175D02*
X30175D01*
X28175Y338717D02*
Y340717D01*
X5238Y330368D02*
X7238D01*
Y332368D01*
X5238D02*
X7238D01*
X5238Y330368D02*
Y332368D01*
X28921Y30102D02*
X30921D01*
Y32102D01*
X28921D02*
X30921D01*
X28921Y30102D02*
Y32102D01*
X21886Y336427D02*
X23886D01*
Y338427D01*
X21886D02*
X23886D01*
X21886Y336427D02*
Y338427D01*
X-88402Y81283D02*
X-86402D01*
Y83284D01*
X-88402D02*
X-86402D01*
X-88402Y81283D02*
Y83284D01*
X-77125Y61685D02*
X-75125D01*
Y63685D01*
X-77125D02*
X-75125D01*
X-77125Y61685D02*
Y63685D01*
X-58267Y37189D02*
X-56267D01*
Y39189D01*
X-58267D02*
X-56267D01*
X-58267Y37189D02*
Y39189D01*
X-61626Y95086D02*
X-59626D01*
Y97085D01*
X-61626D02*
X-59626D01*
X-61626Y95086D02*
Y97085D01*
X-86039Y118291D02*
X-84039D01*
Y120291D01*
X-86039D02*
X-84039D01*
X-86039Y118291D02*
Y120291D01*
X-103583Y126953D02*
X-101583D01*
Y128953D01*
X-103583D02*
X-101583D01*
X-103583Y126953D02*
Y128953D01*
X-97457Y99394D02*
X-95457D01*
Y101394D01*
X-97457D02*
X-95457D01*
X-97457Y99394D02*
Y101394D01*
X-71472Y113961D02*
X-69472D01*
Y115961D01*
X-71472D02*
X-69472D01*
X-71472Y113961D02*
Y115961D01*
X15843Y91126D02*
X17843D01*
Y93126D01*
X15843D02*
X17843D01*
X15843Y91126D02*
Y93126D01*
X4600Y67898D02*
X6600D01*
Y69898D01*
X4600D02*
X6600D01*
X4600Y67898D02*
Y69898D01*
X-10101Y62386D02*
X-8101D01*
Y64386D01*
X-10101D02*
X-8101D01*
X-10101Y62386D02*
Y64386D01*
X8449Y50181D02*
X10449D01*
Y52181D01*
X8449D02*
X10449D01*
X8449Y50181D02*
Y52181D01*
X20260Y74197D02*
X22260D01*
Y76197D01*
X20260D02*
X22260D01*
X20260Y74197D02*
Y76197D01*
X44513Y96638D02*
X46513D01*
Y98638D01*
X44513D02*
X46513D01*
X44513Y96638D02*
Y98638D01*
X50394Y71441D02*
X52394D01*
Y73441D01*
X50394D02*
X52394D01*
X50394Y71441D02*
Y73441D01*
X23410Y56480D02*
X25409D01*
Y58480D01*
X23410D02*
X25409D01*
X23410Y56480D02*
Y58480D01*
X61992Y111992D02*
X63992D01*
Y113992D01*
X61992D02*
X63992D01*
X61992Y111992D02*
Y113992D01*
X52150Y108449D02*
X54150D01*
Y110449D01*
X52150D02*
X54150D01*
X52150Y108449D02*
Y110449D01*
X58752Y86628D02*
X60752D01*
Y88628D01*
X58752D02*
X60752D01*
X58752Y86628D02*
Y88628D01*
X83646Y71047D02*
X85646D01*
Y73047D01*
X83646D02*
X85646D01*
X83646Y71047D02*
Y73047D01*
X83506Y58055D02*
X85506D01*
Y60055D01*
X83506D02*
X85506D01*
X83506Y58055D02*
Y60055D01*
X34581Y287183D02*
X36581D01*
Y289183D01*
X34581D02*
X36581D01*
X34581Y287183D02*
Y289183D01*
X27260Y295188D02*
X29260D01*
Y297188D01*
X27260D02*
X29260D01*
X27260Y295188D02*
Y297188D01*
X33919Y297612D02*
X35919D01*
Y299612D01*
X33919D02*
X35919D01*
X33919Y297612D02*
Y299612D01*
X-8874Y416323D02*
Y416823D01*
X-8374Y417323D01*
X-8874Y417823D02*
X-8374Y417323D01*
X-8874Y417823D02*
Y418323D01*
X-8374D01*
X-7874Y417823D01*
X-7374Y418323D01*
X-6874D01*
Y417823D02*
Y418323D01*
X-7374Y417323D02*
X-6874Y417823D01*
X-7374Y417323D02*
X-6874Y416823D01*
Y416323D02*
Y416823D01*
X-7374Y416323D02*
X-6874D01*
X-7874Y416823D02*
X-7374Y416323D01*
X-8374D02*
X-7874Y416823D01*
X-8874Y416323D02*
X-8374D01*
X120652Y201992D02*
X121152D01*
X120652D02*
Y202992D01*
X121152D01*
Y203492D01*
X122152D01*
Y202992D02*
Y203492D01*
Y202992D02*
X122652D01*
Y201992D02*
Y202992D01*
X122152Y201992D02*
X122652D01*
X122152Y201492D02*
Y201992D01*
X121152Y201492D02*
X122152D01*
X121152D02*
Y201992D01*
X114745Y168493D02*
X115245D01*
X114745D02*
Y169493D01*
X115245D01*
Y169993D01*
X116245D01*
Y169493D02*
Y169993D01*
Y169493D02*
X116745D01*
Y168493D02*
Y169493D01*
X116245Y168493D02*
X116745D01*
X116245Y167993D02*
Y168493D01*
X115245Y167993D02*
X116245D01*
X115245D02*
Y168493D01*
X136858Y198635D02*
X137858Y199135D01*
X138858Y198635D01*
X138358Y199635D02*
X138858Y198635D01*
X138358Y199635D02*
X138858Y200635D01*
X137858Y200134D02*
X138858Y200635D01*
X136858D02*
X137858Y200134D01*
X136858Y200635D02*
X137358Y199635D01*
X136858Y198635D02*
X137358Y199635D01*
X130952Y165136D02*
X131952Y165636D01*
X132952Y165136D01*
X132452Y166136D02*
X132952Y165136D01*
X132452Y166136D02*
X132952Y167136D01*
X131952Y166636D02*
X132952Y167136D01*
X130952D02*
X131952Y166636D01*
X130952Y167136D02*
X131452Y166136D01*
X130952Y165136D02*
X131452Y166136D01*
X122231Y196085D02*
X122731Y195585D01*
X121731Y196085D02*
X122231D01*
X121731D02*
X122231Y196585D01*
X121731Y197085D02*
X122231Y196585D01*
X121731Y197085D02*
X122231D01*
X122731Y197585D01*
X123231Y197085D01*
X123731D01*
X123231Y196585D02*
X123731Y197085D01*
X123231Y196585D02*
X123731Y196085D01*
X123231D02*
X123731D01*
X122731Y195585D02*
X123231Y196085D01*
X118279Y173675D02*
X118779Y173175D01*
X117779Y173675D02*
X118279D01*
X117779D02*
X118279Y174175D01*
X117779Y174675D02*
X118279Y174175D01*
X117779Y174675D02*
X118279D01*
X118779Y175175D01*
X119279Y174675D01*
X119779D01*
X119279Y174175D02*
X119779Y174675D01*
X119279Y174175D02*
X119779Y173675D01*
X119279D02*
X119779D01*
X118779Y173175D02*
X119279Y173675D01*
X91705Y80573D02*
X92705Y82573D01*
X90705D02*
X92705D01*
X90705D02*
X91705Y80573D01*
X93097Y90475D02*
X94096Y92475D01*
X92097D02*
X94096D01*
X92097D02*
X93097Y90475D01*
X94488Y100378D02*
X95488Y102378D01*
X93488D02*
X95488D01*
X93488D02*
X94488Y100378D01*
X95880Y110281D02*
X96880Y112281D01*
X94880D02*
X96880D01*
X94880D02*
X95880Y110281D01*
X97272Y120183D02*
X98272Y122183D01*
X96272D02*
X98272D01*
X96272D02*
X97272Y120183D01*
X98663Y130086D02*
X99663Y132086D01*
X97663D02*
X99663D01*
X97663D02*
X98663Y130086D01*
X62919Y43955D02*
X63919Y45956D01*
X61919D02*
X63919D01*
X61919D02*
X62919Y43955D01*
X30974Y19883D02*
X31974Y21883D01*
X29974D02*
X31974D01*
X29974D02*
X30974Y19883D01*
X70906Y49974D02*
X71905Y51974D01*
X69906D02*
X71905D01*
X69906D02*
X70906Y49974D01*
X46946Y31919D02*
X47946Y33919D01*
X45946D02*
X47946D01*
X45946D02*
X46946Y31919D01*
X38960Y25901D02*
X39960Y27901D01*
X37960D02*
X39960D01*
X37960D02*
X38960Y25901D01*
X54933Y37937D02*
X55933Y39937D01*
X53933D02*
X55933D01*
X53933D02*
X54933Y37937D01*
D114*
X1083019Y65965D02*
Y73163D01*
X1086617D01*
X1087817Y71963D01*
Y69564D01*
X1086617Y68364D01*
X1083019D01*
X1085418D02*
X1087817Y65965D01*
X1091416D02*
X1093815D01*
X1095015Y67165D01*
Y69564D01*
X1093815Y70763D01*
X1091416D01*
X1090216Y69564D01*
Y67165D01*
X1091416Y65965D01*
X1097414Y70763D02*
Y67165D01*
X1098614Y65965D01*
X1102212D01*
Y70763D01*
X1105811Y71963D02*
Y70763D01*
X1104612D01*
X1107011D01*
X1105811D01*
Y67165D01*
X1107011Y65965D01*
X1114209D02*
X1111809D01*
X1110610Y67165D01*
Y69564D01*
X1111809Y70763D01*
X1114209D01*
X1115408Y69564D01*
Y68364D01*
X1110610D01*
X1122606Y73163D02*
Y65965D01*
X1119007D01*
X1117807Y67165D01*
Y69564D01*
X1119007Y70763D01*
X1122606D01*
X1132203Y65965D02*
Y73163D01*
X1135802D01*
X1137001Y71963D01*
Y69564D01*
X1135802Y68364D01*
X1132203D01*
X1140600Y70763D02*
X1142999D01*
X1144199Y69564D01*
Y65965D01*
X1140600D01*
X1139400Y67165D01*
X1140600Y68364D01*
X1144199D01*
X1147798Y71963D02*
Y70763D01*
X1146598D01*
X1148997D01*
X1147798D01*
Y67165D01*
X1148997Y65965D01*
X1152596Y73163D02*
Y65965D01*
Y69564D01*
X1153796Y70763D01*
X1156195D01*
X1157395Y69564D01*
Y65965D01*
X1166992Y73163D02*
Y65965D01*
X1171790D01*
X1177788D02*
X1175389D01*
X1174189Y67165D01*
Y69564D01*
X1175389Y70763D01*
X1177788D01*
X1178988Y69564D01*
Y68364D01*
X1174189D01*
X1181387Y65965D02*
Y70763D01*
X1184986D01*
X1186185Y69564D01*
Y65965D01*
X1190984Y63566D02*
X1192183D01*
X1193383Y64765D01*
Y70763D01*
X1189784D01*
X1188585Y69564D01*
Y67165D01*
X1189784Y65965D01*
X1193383D01*
X1196982Y71963D02*
Y70763D01*
X1195782D01*
X1198181D01*
X1196982D01*
Y67165D01*
X1198181Y65965D01*
X1201780Y73163D02*
Y65965D01*
Y69564D01*
X1202980Y70763D01*
X1205379D01*
X1206579Y69564D01*
Y65965D01*
X972051Y73163D02*
Y65965D01*
Y69564D01*
X976849D01*
Y73163D01*
Y65965D01*
X980448D02*
X982847D01*
X984047Y67165D01*
Y69564D01*
X982847Y70763D01*
X980448D01*
X979249Y69564D01*
Y67165D01*
X980448Y65965D01*
X986446D02*
X988846D01*
X987646D01*
Y73163D01*
X986446D01*
X996043Y65965D02*
X993644D01*
X992444Y67165D01*
Y69564D01*
X993644Y70763D01*
X996043D01*
X997243Y69564D01*
Y68364D01*
X992444D01*
X1006840Y73163D02*
Y65965D01*
X1011638D01*
X1017636D02*
X1015237D01*
X1014037Y67165D01*
Y69564D01*
X1015237Y70763D01*
X1017636D01*
X1018836Y69564D01*
Y68364D01*
X1014037D01*
X1021235Y65965D02*
Y70763D01*
X1024834D01*
X1026033Y69564D01*
Y65965D01*
X1030832Y63566D02*
X1032032D01*
X1033231Y64765D01*
Y70763D01*
X1029632D01*
X1028433Y69564D01*
Y67165D01*
X1029632Y65965D01*
X1033231D01*
X1036830Y71963D02*
Y70763D01*
X1035630D01*
X1038030D01*
X1036830D01*
Y67165D01*
X1038030Y65965D01*
X1041628Y73163D02*
Y65965D01*
Y69564D01*
X1042828Y70763D01*
X1045227D01*
X1046427Y69564D01*
Y65965D01*
X853086Y73163D02*
X857884D01*
X855485D01*
Y65965D01*
X863882D02*
X861483D01*
X860284Y67165D01*
Y69564D01*
X861483Y70763D01*
X863882D01*
X865082Y69564D01*
Y68364D01*
X860284D01*
X867481Y65965D02*
Y70763D01*
X868681D01*
X869880Y69564D01*
Y65965D01*
Y69564D01*
X871080Y70763D01*
X872280Y69564D01*
Y65965D01*
X874679Y63566D02*
Y70763D01*
X878278D01*
X879477Y69564D01*
Y67165D01*
X878278Y65965D01*
X874679D01*
X881877D02*
X884276D01*
X883076D01*
Y73163D01*
X881877D01*
X889074Y70763D02*
X891473D01*
X892673Y69564D01*
Y65965D01*
X889074D01*
X887875Y67165D01*
X889074Y68364D01*
X892673D01*
X896272Y71963D02*
Y70763D01*
X895072D01*
X897472D01*
X896272D01*
Y67165D01*
X897472Y65965D01*
X904669D02*
X902270D01*
X901070Y67165D01*
Y69564D01*
X902270Y70763D01*
X904669D01*
X905869Y69564D01*
Y68364D01*
X901070D01*
X778506Y65965D02*
Y73163D01*
X782105D01*
X783305Y71963D01*
Y69564D01*
X782105Y68364D01*
X778506D01*
X786903Y70763D02*
X789303D01*
X790502Y69564D01*
Y65965D01*
X786903D01*
X785704Y67165D01*
X786903Y68364D01*
X790502D01*
X797700Y73163D02*
Y65965D01*
X794101D01*
X792902Y67165D01*
Y69564D01*
X794101Y70763D01*
X797700D01*
X812095Y71963D02*
X810896Y73163D01*
X808496D01*
X807297Y71963D01*
Y70763D01*
X808496Y69564D01*
X810896D01*
X812095Y68364D01*
Y67165D01*
X810896Y65965D01*
X808496D01*
X807297Y67165D01*
X814495Y73163D02*
Y65965D01*
Y69564D01*
X815694Y70763D01*
X818093D01*
X819293Y69564D01*
Y65965D01*
X822892Y70763D02*
X825291D01*
X826491Y69564D01*
Y65965D01*
X822892D01*
X821692Y67165D01*
X822892Y68364D01*
X826491D01*
X828890Y63566D02*
Y70763D01*
X832489D01*
X833688Y69564D01*
Y67165D01*
X832489Y65965D01*
X828890D01*
X839686D02*
X837287D01*
X836088Y67165D01*
Y69564D01*
X837287Y70763D01*
X839686D01*
X840886Y69564D01*
Y68364D01*
X836088D01*
X719521Y73163D02*
Y68364D01*
X721920Y65965D01*
X724320Y68364D01*
Y73163D01*
X726719Y65965D02*
X729118D01*
X727918D01*
Y70763D01*
X726719D01*
X733917D02*
X736316D01*
X737515Y69564D01*
Y65965D01*
X733917D01*
X732717Y67165D01*
X733917Y68364D01*
X737515D01*
X739915Y65965D02*
X744713Y70763D01*
X747112Y65965D02*
Y73163D01*
X750711D01*
X751911Y71963D01*
Y69564D01*
X750711Y68364D01*
X747112D01*
X755510Y70763D02*
X757909D01*
X759108Y69564D01*
Y65965D01*
X755510D01*
X754310Y67165D01*
X755510Y68364D01*
X759108D01*
X766306Y73163D02*
Y65965D01*
X762707D01*
X761508Y67165D01*
Y69564D01*
X762707Y70763D01*
X766306D01*
X569566Y73163D02*
Y65965D01*
X573165D01*
X574365Y67165D01*
Y71963D01*
X573165Y73163D01*
X569566D01*
X576764Y70763D02*
Y65965D01*
Y68364D01*
X577963Y69564D01*
X579163Y70763D01*
X580363D01*
X583961Y65965D02*
X586361D01*
X585161D01*
Y70763D01*
X583961D01*
X589960Y65965D02*
X592359D01*
X591159D01*
Y73163D01*
X589960D01*
X595958Y65965D02*
X598357D01*
X597157D01*
Y73163D01*
X595958D01*
X609153D02*
Y65965D01*
X613952D01*
X617551Y70763D02*
X619950D01*
X621149Y69564D01*
Y65965D01*
X617551D01*
X616351Y67165D01*
X617551Y68364D01*
X621149D01*
X623549Y70763D02*
Y67165D01*
X624748Y65965D01*
X628347D01*
Y64765D01*
X627148Y63566D01*
X625948D01*
X628347Y65965D02*
Y70763D01*
X634345Y65965D02*
X631946D01*
X630746Y67165D01*
Y69564D01*
X631946Y70763D01*
X634345D01*
X635545Y69564D01*
Y68364D01*
X630746D01*
X637944Y70763D02*
Y65965D01*
Y68364D01*
X639144Y69564D01*
X640343Y70763D01*
X641543D01*
X652339Y65965D02*
Y73163D01*
X655938D01*
X657138Y71963D01*
Y69564D01*
X655938Y68364D01*
X652339D01*
X660737Y70763D02*
X663136D01*
X664335Y69564D01*
Y65965D01*
X660737D01*
X659537Y67165D01*
X660737Y68364D01*
X664335D01*
X666735Y65965D02*
X669134D01*
X667934D01*
Y70763D01*
X666735D01*
X672733D02*
Y65965D01*
Y68364D01*
X673932Y69564D01*
X675132Y70763D01*
X676332D01*
X496186Y73163D02*
Y65965D01*
Y69564D01*
X500984D01*
Y73163D01*
Y65965D01*
X504583D02*
X506983D01*
X508182Y67165D01*
Y69564D01*
X506983Y70763D01*
X504583D01*
X503384Y69564D01*
Y67165D01*
X504583Y65965D01*
X510581D02*
X512981D01*
X511781D01*
Y73163D01*
X510581D01*
X520178Y65965D02*
X517779D01*
X516579Y67165D01*
Y69564D01*
X517779Y70763D01*
X520178D01*
X521378Y69564D01*
Y68364D01*
X516579D01*
X530975Y73163D02*
X535773D01*
X533374D01*
Y65965D01*
X538172Y70763D02*
Y67165D01*
X539372Y65965D01*
X542971D01*
Y64765D01*
X541771Y63566D01*
X540572D01*
X542971Y65965D02*
Y70763D01*
X545370Y63566D02*
Y70763D01*
X548969D01*
X550169Y69564D01*
Y67165D01*
X548969Y65965D01*
X545370D01*
X556167D02*
X553767D01*
X552568Y67165D01*
Y69564D01*
X553767Y70763D01*
X556167D01*
X557366Y69564D01*
Y68364D01*
X552568D01*
X445598Y65965D02*
Y73163D01*
X449197D01*
X450397Y71963D01*
Y69564D01*
X449197Y68364D01*
X445598D01*
X452796Y65965D02*
X455195D01*
X453996D01*
Y73163D01*
X452796D01*
X459994Y70763D02*
X462393D01*
X463593Y69564D01*
Y65965D01*
X459994D01*
X458794Y67165D01*
X459994Y68364D01*
X463593D01*
X467191Y71963D02*
Y70763D01*
X465992D01*
X468391D01*
X467191D01*
Y67165D01*
X468391Y65965D01*
X475589D02*
X473189D01*
X471990Y67165D01*
Y69564D01*
X473189Y70763D01*
X475589D01*
X476788Y69564D01*
Y68364D01*
X471990D01*
X483986Y73163D02*
Y65965D01*
X480387D01*
X479188Y67165D01*
Y69564D01*
X480387Y70763D01*
X483986D01*
X328633Y73163D02*
Y65965D01*
Y69564D01*
X333431D01*
Y73163D01*
Y65965D01*
X337030D02*
X339429D01*
X340629Y67165D01*
Y69564D01*
X339429Y70763D01*
X337030D01*
X335830Y69564D01*
Y67165D01*
X337030Y65965D01*
X343028D02*
X345427D01*
X344228D01*
Y73163D01*
X343028D01*
X352625Y65965D02*
X350226D01*
X349026Y67165D01*
Y69564D01*
X350226Y70763D01*
X352625D01*
X353825Y69564D01*
Y68364D01*
X349026D01*
X368220Y71963D02*
X367020Y73163D01*
X364621D01*
X363422Y71963D01*
Y70763D01*
X364621Y69564D01*
X367020D01*
X368220Y68364D01*
Y67165D01*
X367020Y65965D01*
X364621D01*
X363422Y67165D01*
X370619Y65965D02*
X373018D01*
X371819D01*
Y70763D01*
X370619D01*
X376617D02*
X381416D01*
X376617Y65965D01*
X381416D01*
X387414D02*
X385015D01*
X383815Y67165D01*
Y69564D01*
X385015Y70763D01*
X387414D01*
X388613Y69564D01*
Y68364D01*
X383815D01*
X279445Y71963D02*
X278245Y73163D01*
X275846D01*
X274647Y71963D01*
Y67165D01*
X275846Y65965D01*
X278245D01*
X279445Y67165D01*
X283044Y65965D02*
X285443D01*
X286643Y67165D01*
Y69564D01*
X285443Y70763D01*
X283044D01*
X281844Y69564D01*
Y67165D01*
X283044Y65965D01*
X289042Y70763D02*
Y67165D01*
X290242Y65965D01*
X293840D01*
Y70763D01*
X296240Y65965D02*
Y70763D01*
X299838D01*
X301038Y69564D01*
Y65965D01*
X304637Y71963D02*
Y70763D01*
X303437D01*
X305837D01*
X304637D01*
Y67165D01*
X305837Y65965D01*
X228857Y71963D02*
X227658Y73163D01*
X225259D01*
X224059Y71963D01*
Y70763D01*
X225259Y69564D01*
X227658D01*
X228857Y68364D01*
Y67165D01*
X227658Y65965D01*
X225259D01*
X224059Y67165D01*
X231257Y70763D02*
Y67165D01*
X232456Y65965D01*
X236055D01*
Y64765D01*
X234856Y63566D01*
X233656D01*
X236055Y65965D02*
Y70763D01*
X238454Y65965D02*
Y70763D01*
X239654D01*
X240854Y69564D01*
Y65965D01*
Y69564D01*
X242053Y70763D01*
X243253Y69564D01*
Y65965D01*
X245652Y73163D02*
Y65965D01*
X249251D01*
X250450Y67165D01*
Y68364D01*
Y69564D01*
X249251Y70763D01*
X245652D01*
X254049Y65965D02*
X256449D01*
X257648Y67165D01*
Y69564D01*
X256449Y70763D01*
X254049D01*
X252850Y69564D01*
Y67165D01*
X254049Y65965D01*
X260047D02*
X262447D01*
X261247D01*
Y73163D01*
X260047D01*
D115*
X327328Y-57532D02*
Y-63530D01*
Y-60531D01*
X331327D01*
Y-57532D01*
Y-63530D01*
X334326D02*
X336325D01*
X337325Y-62530D01*
Y-60531D01*
X336325Y-59531D01*
X334326D01*
X333326Y-60531D01*
Y-62530D01*
X334326Y-63530D01*
X339324D02*
X341323D01*
X340324D01*
Y-57532D01*
X339324D01*
X347322Y-63530D02*
X345322D01*
X344322Y-62530D01*
Y-60531D01*
X345322Y-59531D01*
X347322D01*
X348321Y-60531D01*
Y-61530D01*
X344322D01*
X356319Y-57532D02*
Y-63530D01*
X360317D01*
X365316D02*
X363316D01*
X362317Y-62530D01*
Y-60531D01*
X363316Y-59531D01*
X365316D01*
X366315Y-60531D01*
Y-61530D01*
X362317D01*
X368315Y-63530D02*
Y-59531D01*
X371314D01*
X372313Y-60531D01*
Y-63530D01*
X376312Y-65529D02*
X377312D01*
X378311Y-64530D01*
Y-59531D01*
X375312D01*
X374313Y-60531D01*
Y-62530D01*
X375312Y-63530D01*
X378311D01*
X381311Y-58531D02*
Y-59531D01*
X380311D01*
X382310D01*
X381311D01*
Y-62530D01*
X382310Y-63530D01*
X385309Y-57532D02*
Y-63530D01*
Y-60531D01*
X386309Y-59531D01*
X388308D01*
X389308Y-60531D01*
Y-63530D01*
X327328Y-53532D02*
Y-47534D01*
X330327D01*
X331327Y-48534D01*
Y-50533D01*
X330327Y-51533D01*
X327328D01*
X329327D02*
X331327Y-53532D01*
X334326D02*
X336325D01*
X337325Y-52533D01*
Y-50533D01*
X336325Y-49534D01*
X334326D01*
X333326Y-50533D01*
Y-52533D01*
X334326Y-53532D01*
X339324Y-49534D02*
Y-52533D01*
X340324Y-53532D01*
X343323D01*
Y-49534D01*
X346322Y-48534D02*
Y-49534D01*
X345322D01*
X347322D01*
X346322D01*
Y-52533D01*
X347322Y-53532D01*
X353320D02*
X351320D01*
X350321Y-52533D01*
Y-50533D01*
X351320Y-49534D01*
X353320D01*
X354319Y-50533D01*
Y-51533D01*
X350321D01*
X360317Y-47534D02*
Y-53532D01*
X357318D01*
X356319Y-52533D01*
Y-50533D01*
X357318Y-49534D01*
X360317D01*
X368315Y-53532D02*
Y-47534D01*
X371314D01*
X372313Y-48534D01*
Y-50533D01*
X371314Y-51533D01*
X368315D01*
X375312Y-49534D02*
X377312D01*
X378311Y-50533D01*
Y-53532D01*
X375312D01*
X374313Y-52533D01*
X375312Y-51533D01*
X378311D01*
X381311Y-48534D02*
Y-49534D01*
X380311D01*
X382310D01*
X381311D01*
Y-52533D01*
X382310Y-53532D01*
X385309Y-47534D02*
Y-53532D01*
Y-50533D01*
X386309Y-49534D01*
X388308D01*
X389308Y-50533D01*
Y-53532D01*
X397305Y-47534D02*
Y-53532D01*
X401304D01*
X406302D02*
X404303D01*
X403303Y-52533D01*
Y-50533D01*
X404303Y-49534D01*
X406302D01*
X407302Y-50533D01*
Y-51533D01*
X403303D01*
X409302Y-53532D02*
Y-49534D01*
X412300D01*
X413300Y-50533D01*
Y-53532D01*
X417299Y-55532D02*
X418299D01*
X419298Y-54532D01*
Y-49534D01*
X416299D01*
X415300Y-50533D01*
Y-52533D01*
X416299Y-53532D01*
X419298D01*
X422297Y-48534D02*
Y-49534D01*
X421298D01*
X423297D01*
X422297D01*
Y-52533D01*
X423297Y-53532D01*
X426296Y-47534D02*
Y-53532D01*
Y-50533D01*
X427296Y-49534D01*
X429295D01*
X430295Y-50533D01*
Y-53532D01*
X228058Y-48534D02*
X227058Y-47534D01*
X225059D01*
X224059Y-48534D01*
Y-49534D01*
X225059Y-50533D01*
X227058D01*
X228058Y-51533D01*
Y-52533D01*
X227058Y-53532D01*
X225059D01*
X224059Y-52533D01*
X230057Y-53532D02*
X232056D01*
X231057D01*
Y-47534D01*
X230057D01*
X236055Y-53532D02*
X238054D01*
X239054Y-52533D01*
Y-50533D01*
X238054Y-49534D01*
X236055D01*
X235055Y-50533D01*
Y-52533D01*
X236055Y-53532D01*
X242053Y-48534D02*
Y-49534D01*
X241054D01*
X243053D01*
X242053D01*
Y-52533D01*
X243053Y-53532D01*
X256049Y-47534D02*
Y-53532D01*
X253050D01*
X252050Y-52533D01*
Y-50533D01*
X253050Y-49534D01*
X256049D01*
X261047Y-53532D02*
X259048D01*
X258048Y-52533D01*
Y-50533D01*
X259048Y-49534D01*
X261047D01*
X262047Y-50533D01*
Y-51533D01*
X258048D01*
X265046Y-53532D02*
Y-48534D01*
Y-50533D01*
X264046D01*
X266045D01*
X265046D01*
Y-48534D01*
X266045Y-47534D01*
X269044Y-53532D02*
X271044D01*
X270044D01*
Y-49534D01*
X269044D01*
X274043Y-53532D02*
Y-49534D01*
X277042D01*
X278042Y-50533D01*
Y-53532D01*
X280041D02*
X282040D01*
X281041D01*
Y-49534D01*
X280041D01*
X286039Y-48534D02*
Y-49534D01*
X285039D01*
X287039D01*
X286039D01*
Y-52533D01*
X287039Y-53532D01*
X290038D02*
X292037D01*
X291037D01*
Y-49534D01*
X290038D01*
X296036Y-53532D02*
X298035D01*
X299035Y-52533D01*
Y-50533D01*
X298035Y-49534D01*
X296036D01*
X295036Y-50533D01*
Y-52533D01*
X296036Y-53532D01*
X301034D02*
Y-49534D01*
X304033D01*
X305033Y-50533D01*
Y-53532D01*
X307032D02*
X310031D01*
X311031Y-52533D01*
X310031Y-51533D01*
X308032D01*
X307032Y-50533D01*
X308032Y-49534D01*
X311031D01*
X319028D02*
X320028D01*
Y-50533D01*
X319028D01*
Y-49534D01*
Y-52533D02*
X320028D01*
Y-53532D01*
X319028D01*
Y-52533D01*
M02*
