M48
;Layer_Color=9474304
;FILE_FORMAT=2:5
INCH,LZ
;TYPE=PLATED
T1F00S00C0.00984
T3F00S00C0.03543
;TYPE=NON_PLATED
T4F00S00C0.02559
T5F00S00C0.12598
%
T01
X0015354Y0029528
X0022614Y0032456
X0029921Y0031102
X0024409Y005748
X002126Y0075197
X0016843Y0092126
X0002362Y0080709
X-0004331Y0073638
X00056Y0068898
X-0009101Y0063386
X-0018687Y0050876
X-0003957Y0045305
X-0005034Y0042345
X0009449Y0051181
X-0024409Y0077165
X-0033465Y0073032
X-0050134Y0062321
X-0047776Y0057288
X-0057267Y0038189
X-0056496Y0080709
X-0060626Y0096086
X-0070472Y0114961
X-0085039Y0119291
X-0102583Y0127953
X-0096457Y0100394
X-0087402Y0082284
X-0076125Y0062685
X-0107913Y0162326
X-0117364Y0162869
X-011291Y0167323
X0102782Y0166162
X0107343Y0169356
X0106455Y0160916
X01017Y0157757
X0108724Y0177802
X011943Y0177818
X0104285Y0188284
X0062992Y0112992
X005315Y0109449
X0045513Y0097638
X0059752Y0087628
X0051394Y0072441
X007874Y0072835
X0084646Y0072047
X0084506Y0059055
X0112042Y0196616
X0122096Y0192939
X0115513Y0212289
X0048107Y0229769
X0035581Y0288183
X0034919Y0298612
X0040888Y0316747
X0049197Y0316632
X0035531Y033076
X0024659Y0326803
X0026369Y0322104
X001971Y0319681
X002142Y0314982
X002313Y0310284
X0026936Y0312226
X002484Y0305585
X002826Y0296188
X0024016Y0280905
X0029528Y0255118
X0018Y0324379
X0022886Y0337427
X0029175Y0339717
X0006238Y0331368
X-0060039Y0242126
Y0229224
X-0052457
T03
X003896Y0026901
X0046946Y0032919
X0030974Y0020883
X0054933Y0038937
X0062919Y0044956
X0070906Y0050974
X0091705Y0081573
X0093097Y0091475
X0094488Y0101378
X009588Y0111281
X0097272Y0121183
X0098663Y0131086
T04
X0118779Y0174175
X0122731Y0196585
T05
X-0007874Y0417323
M30
