G04*
G04 #@! TF.GenerationSoftware,Altium Limited,Altium Designer,18.1.11 (251)*
G04*
G04 Layer_Color=8388736*
%FSLAX25Y25*%
%MOIN*%
G70*
G01*
G75*
%ADD10C,0.00394*%
%ADD12C,0.00984*%
%ADD13C,0.00787*%
%ADD15C,0.01575*%
%ADD111C,0.01000*%
%ADD112C,0.00600*%
G36*
X933611Y-168112D02*
X935329D01*
Y-168399D01*
X936188D01*
Y-168685D01*
X937047D01*
Y-168971D01*
X937905D01*
Y-169258D01*
X938478D01*
Y-169544D01*
X938764D01*
Y-169830D01*
X939337D01*
Y-170117D01*
X939623D01*
Y-170403D01*
X940196D01*
Y-170689D01*
X940482D01*
Y-170975D01*
X940769D01*
Y-171262D01*
X941055D01*
Y-171548D01*
X941341D01*
Y-171834D01*
X941628D01*
Y-172121D01*
X941914D01*
Y-172407D01*
Y-172693D01*
X942200D01*
Y-172980D01*
X942486D01*
Y-173266D01*
Y-173552D01*
X942773D01*
Y-173839D01*
X943059D01*
Y-174125D01*
Y-174411D01*
X943345D01*
Y-174698D01*
Y-174984D01*
Y-175270D01*
X943632D01*
Y-175557D01*
Y-175843D01*
Y-176129D01*
X943918D01*
Y-176415D01*
Y-176702D01*
Y-176988D01*
Y-177274D01*
X944204D01*
Y-177561D01*
Y-177847D01*
Y-178133D01*
Y-178420D01*
Y-178706D01*
X944491D01*
Y-178992D01*
Y-179279D01*
Y-179565D01*
Y-179851D01*
Y-180138D01*
Y-180424D01*
Y-180710D01*
Y-180997D01*
Y-181283D01*
Y-181569D01*
Y-181855D01*
Y-182142D01*
Y-182428D01*
Y-182714D01*
Y-183001D01*
Y-183287D01*
Y-183573D01*
Y-183860D01*
Y-184146D01*
Y-184432D01*
X944204D01*
Y-184719D01*
Y-185005D01*
Y-185291D01*
Y-185577D01*
Y-185864D01*
Y-186150D01*
Y-186436D01*
X943918D01*
Y-186723D01*
Y-187009D01*
Y-187295D01*
Y-187582D01*
Y-187868D01*
X943632D01*
Y-188154D01*
Y-188441D01*
Y-188727D01*
Y-189013D01*
Y-189299D01*
X943345D01*
Y-189586D01*
Y-189872D01*
Y-190158D01*
X943059D01*
Y-190445D01*
Y-190731D01*
Y-191017D01*
Y-191304D01*
X942773D01*
Y-191590D01*
Y-191876D01*
Y-192163D01*
X942486D01*
Y-192449D01*
Y-192735D01*
X942200D01*
Y-193022D01*
Y-193308D01*
Y-193594D01*
X941914D01*
Y-193880D01*
Y-194167D01*
X941628D01*
Y-194453D01*
Y-194739D01*
X941341D01*
Y-195026D01*
Y-195312D01*
X941055D01*
Y-195598D01*
X940769D01*
Y-195885D01*
Y-196171D01*
X940482D01*
Y-196457D01*
X940196D01*
Y-196744D01*
X939910D01*
Y-197030D01*
Y-197316D01*
X939623D01*
Y-197603D01*
X939337D01*
Y-197889D01*
X939051D01*
Y-198175D01*
X938764D01*
Y-198461D01*
X938478D01*
Y-198748D01*
X937905D01*
Y-199034D01*
X937619D01*
Y-199320D01*
X937047D01*
Y-199607D01*
X936760D01*
Y-199893D01*
X936188D01*
Y-200179D01*
X935329D01*
Y-200466D01*
X934470D01*
Y-200752D01*
X933611D01*
Y-201038D01*
X931893D01*
Y-201325D01*
X926739D01*
Y-201038D01*
X924162D01*
Y-200752D01*
X922158D01*
Y-200466D01*
X920727D01*
Y-200179D01*
X919295D01*
Y-199893D01*
X917863D01*
Y-200179D01*
Y-200466D01*
Y-200752D01*
Y-201038D01*
Y-201325D01*
Y-201611D01*
Y-201897D01*
X917577D01*
Y-202184D01*
Y-202470D01*
Y-202756D01*
Y-203043D01*
Y-203329D01*
Y-203615D01*
X917291D01*
Y-203902D01*
Y-204188D01*
Y-204474D01*
Y-204760D01*
Y-205047D01*
Y-205333D01*
X917005D01*
Y-205619D01*
Y-205906D01*
Y-206192D01*
Y-206478D01*
Y-206765D01*
Y-207051D01*
Y-207337D01*
X916718D01*
Y-207624D01*
Y-207910D01*
Y-208196D01*
Y-208483D01*
Y-208769D01*
Y-209055D01*
X916432D01*
Y-209341D01*
Y-209628D01*
Y-209914D01*
Y-210200D01*
Y-210487D01*
Y-210773D01*
X916146D01*
Y-211059D01*
Y-211346D01*
Y-211632D01*
Y-211918D01*
Y-212205D01*
Y-212491D01*
Y-212777D01*
X915859D01*
Y-213064D01*
Y-213350D01*
Y-213636D01*
Y-213922D01*
Y-214209D01*
Y-214495D01*
X915573D01*
Y-214781D01*
Y-215068D01*
Y-215354D01*
Y-215640D01*
Y-215927D01*
Y-216213D01*
X915287D01*
Y-216499D01*
Y-216786D01*
Y-217072D01*
Y-217358D01*
Y-217645D01*
Y-217931D01*
Y-218217D01*
X901830D01*
Y-217931D01*
X902116D01*
Y-217645D01*
Y-217358D01*
Y-217072D01*
Y-216786D01*
Y-216499D01*
X902403D01*
Y-216213D01*
Y-215927D01*
Y-215640D01*
Y-215354D01*
Y-215068D01*
Y-214781D01*
Y-214495D01*
X902689D01*
Y-214209D01*
Y-213922D01*
Y-213636D01*
Y-213350D01*
Y-213064D01*
Y-212777D01*
X902975D01*
Y-212491D01*
Y-212205D01*
Y-211918D01*
Y-211632D01*
Y-211346D01*
Y-211059D01*
X903262D01*
Y-210773D01*
Y-210487D01*
Y-210200D01*
Y-209914D01*
Y-209628D01*
Y-209341D01*
Y-209055D01*
X903548D01*
Y-208769D01*
Y-208483D01*
Y-208196D01*
Y-207910D01*
Y-207624D01*
Y-207337D01*
X903834D01*
Y-207051D01*
Y-206765D01*
Y-206478D01*
Y-206192D01*
Y-205906D01*
Y-205619D01*
X904121D01*
Y-205333D01*
Y-205047D01*
Y-204760D01*
Y-204474D01*
Y-204188D01*
Y-203902D01*
X904407D01*
Y-203615D01*
Y-203329D01*
Y-203043D01*
Y-202756D01*
Y-202470D01*
Y-202184D01*
Y-201897D01*
X904693D01*
Y-201611D01*
Y-201325D01*
Y-201038D01*
Y-200752D01*
Y-200466D01*
Y-200179D01*
X904979D01*
Y-199893D01*
Y-199607D01*
Y-199320D01*
Y-199034D01*
Y-198748D01*
Y-198461D01*
X905266D01*
Y-198175D01*
Y-197889D01*
Y-197603D01*
Y-197316D01*
Y-197030D01*
Y-196744D01*
X905552D01*
Y-196457D01*
Y-196171D01*
Y-195885D01*
Y-195598D01*
Y-195312D01*
Y-195026D01*
Y-194739D01*
X905838D01*
Y-194453D01*
Y-194167D01*
Y-193880D01*
Y-193594D01*
Y-193308D01*
Y-193022D01*
X906125D01*
Y-192735D01*
Y-192449D01*
Y-192163D01*
Y-191876D01*
Y-191590D01*
Y-191304D01*
X906411D01*
Y-191017D01*
Y-190731D01*
Y-190445D01*
Y-190158D01*
Y-189872D01*
Y-189586D01*
Y-189299D01*
X906697D01*
Y-189013D01*
Y-188727D01*
Y-188441D01*
Y-188154D01*
Y-187868D01*
Y-187582D01*
X906984D01*
Y-187295D01*
Y-187009D01*
Y-186723D01*
Y-186436D01*
Y-186150D01*
Y-185864D01*
X907270D01*
Y-185577D01*
Y-185291D01*
Y-185005D01*
Y-184719D01*
Y-184432D01*
Y-184146D01*
X907556D01*
Y-183860D01*
Y-183573D01*
Y-183287D01*
Y-183001D01*
Y-182714D01*
Y-182428D01*
Y-182142D01*
X907843D01*
Y-181855D01*
Y-181569D01*
Y-181283D01*
Y-180997D01*
Y-180710D01*
Y-180424D01*
X908129D01*
Y-180138D01*
Y-179851D01*
Y-179565D01*
Y-179279D01*
Y-178992D01*
Y-178706D01*
X908415D01*
Y-178420D01*
Y-178133D01*
Y-177847D01*
Y-177561D01*
Y-177274D01*
Y-176988D01*
Y-176702D01*
X908702D01*
Y-176415D01*
Y-176129D01*
Y-175843D01*
Y-175557D01*
Y-175270D01*
Y-174984D01*
X908988D01*
Y-174698D01*
Y-174411D01*
Y-174125D01*
Y-173839D01*
Y-173552D01*
Y-173266D01*
X909274D01*
Y-172980D01*
Y-172693D01*
Y-172407D01*
Y-172121D01*
Y-171834D01*
Y-171548D01*
Y-171262D01*
X909560D01*
Y-170975D01*
Y-170689D01*
Y-170403D01*
Y-170117D01*
Y-169830D01*
Y-169544D01*
X909847D01*
Y-169258D01*
Y-168971D01*
Y-168685D01*
Y-168399D01*
Y-168112D01*
Y-167826D01*
X933611D01*
Y-168112D01*
D02*
G37*
G36*
X964819Y-164677D02*
Y-164963D01*
X964532D01*
Y-165249D01*
Y-165535D01*
Y-165822D01*
Y-166108D01*
Y-166394D01*
Y-166681D01*
X964246D01*
Y-166967D01*
Y-167253D01*
Y-167540D01*
Y-167826D01*
Y-168112D01*
Y-168399D01*
X963960D01*
Y-168685D01*
Y-168971D01*
Y-169258D01*
Y-169544D01*
Y-169830D01*
Y-170117D01*
Y-170403D01*
X963674D01*
Y-170689D01*
Y-170975D01*
Y-171262D01*
Y-171548D01*
Y-171834D01*
Y-172121D01*
X963387D01*
Y-172407D01*
Y-172693D01*
Y-172980D01*
Y-173266D01*
Y-173552D01*
Y-173839D01*
X963101D01*
Y-174125D01*
Y-174411D01*
Y-174698D01*
Y-174984D01*
Y-175270D01*
Y-175557D01*
Y-175843D01*
X962815D01*
Y-176129D01*
Y-176415D01*
Y-176702D01*
Y-176988D01*
Y-177274D01*
Y-177561D01*
X962528D01*
Y-177847D01*
Y-178133D01*
Y-178420D01*
Y-178706D01*
Y-178992D01*
Y-179279D01*
X962242D01*
Y-179565D01*
Y-179851D01*
Y-180138D01*
Y-180424D01*
Y-180710D01*
Y-180997D01*
X961956D01*
Y-181283D01*
Y-181569D01*
Y-181855D01*
Y-182142D01*
Y-182428D01*
Y-182714D01*
Y-183001D01*
X961669D01*
Y-183287D01*
Y-183573D01*
Y-183860D01*
Y-184146D01*
Y-184432D01*
Y-184719D01*
X961383D01*
Y-185005D01*
Y-185291D01*
X961956D01*
Y-185005D01*
X962242D01*
Y-184719D01*
X962528D01*
Y-184432D01*
X963101D01*
Y-184146D01*
X963387D01*
Y-183860D01*
X963674D01*
Y-183573D01*
X964246D01*
Y-183287D01*
X964819D01*
Y-183001D01*
X965105D01*
Y-182714D01*
X965678D01*
Y-182428D01*
X966537D01*
Y-182142D01*
X967109D01*
Y-181855D01*
X967968D01*
Y-181569D01*
X969400D01*
Y-181283D01*
X975699D01*
Y-181569D01*
X976844D01*
Y-181855D01*
X977703D01*
Y-182142D01*
X978275D01*
Y-182428D01*
X978562D01*
Y-182714D01*
X979134D01*
Y-183001D01*
X979421D01*
Y-183287D01*
X979707D01*
Y-183573D01*
X979993D01*
Y-183860D01*
X980280D01*
Y-184146D01*
Y-184432D01*
X980566D01*
Y-184719D01*
Y-185005D01*
X980852D01*
Y-185291D01*
Y-185577D01*
Y-185864D01*
X981139D01*
Y-186150D01*
Y-186436D01*
Y-186723D01*
Y-187009D01*
X981425D01*
Y-187295D01*
Y-187582D01*
Y-187868D01*
Y-188154D01*
Y-188441D01*
Y-188727D01*
Y-189013D01*
Y-189299D01*
Y-189586D01*
Y-189872D01*
Y-190158D01*
Y-190445D01*
Y-190731D01*
Y-191017D01*
Y-191304D01*
Y-191590D01*
Y-191876D01*
Y-192163D01*
X981139D01*
Y-192449D01*
Y-192735D01*
Y-193022D01*
Y-193308D01*
Y-193594D01*
Y-193880D01*
Y-194167D01*
X980852D01*
Y-194453D01*
Y-194739D01*
Y-195026D01*
Y-195312D01*
Y-195598D01*
Y-195885D01*
Y-196171D01*
X980566D01*
Y-196457D01*
Y-196744D01*
Y-197030D01*
Y-197316D01*
Y-197603D01*
Y-197889D01*
X980280D01*
Y-198175D01*
Y-198461D01*
Y-198748D01*
Y-199034D01*
Y-199320D01*
Y-199607D01*
X979993D01*
Y-199893D01*
Y-200179D01*
Y-200466D01*
Y-200752D01*
Y-201038D01*
Y-201325D01*
X979707D01*
Y-201611D01*
Y-201897D01*
Y-202184D01*
Y-202470D01*
Y-202756D01*
Y-203043D01*
Y-203329D01*
X979421D01*
Y-203615D01*
Y-203902D01*
Y-204188D01*
Y-204474D01*
Y-204760D01*
Y-205047D01*
X979134D01*
Y-205333D01*
Y-205619D01*
Y-205906D01*
Y-206192D01*
Y-206478D01*
Y-206765D01*
X978848D01*
Y-207051D01*
Y-207337D01*
Y-207624D01*
Y-207910D01*
Y-208196D01*
Y-208483D01*
Y-208769D01*
X978562D01*
Y-209055D01*
Y-209341D01*
Y-209628D01*
Y-209914D01*
Y-210200D01*
Y-210487D01*
X978275D01*
Y-210773D01*
Y-211059D01*
Y-211346D01*
Y-211632D01*
Y-211918D01*
Y-212205D01*
X977989D01*
Y-212491D01*
Y-212777D01*
Y-213064D01*
Y-213350D01*
Y-213636D01*
Y-213922D01*
X977703D01*
Y-214209D01*
Y-214495D01*
Y-214781D01*
Y-215068D01*
Y-215354D01*
Y-215640D01*
Y-215927D01*
X977417D01*
Y-216213D01*
Y-216499D01*
Y-216786D01*
Y-217072D01*
Y-217358D01*
Y-217645D01*
X977130D01*
Y-217931D01*
Y-218217D01*
X963960D01*
Y-217931D01*
Y-217645D01*
X964246D01*
Y-217358D01*
Y-217072D01*
Y-216786D01*
Y-216499D01*
Y-216213D01*
Y-215927D01*
X964532D01*
Y-215640D01*
Y-215354D01*
Y-215068D01*
Y-214781D01*
Y-214495D01*
Y-214209D01*
Y-213922D01*
X964819D01*
Y-213636D01*
Y-213350D01*
Y-213064D01*
Y-212777D01*
Y-212491D01*
Y-212205D01*
X965105D01*
Y-211918D01*
Y-211632D01*
Y-211346D01*
Y-211059D01*
Y-210773D01*
Y-210487D01*
X965392D01*
Y-210200D01*
Y-209914D01*
Y-209628D01*
Y-209341D01*
Y-209055D01*
Y-208769D01*
Y-208483D01*
X965678D01*
Y-208196D01*
Y-207910D01*
Y-207624D01*
Y-207337D01*
Y-207051D01*
Y-206765D01*
X965964D01*
Y-206478D01*
Y-206192D01*
Y-205906D01*
Y-205619D01*
Y-205333D01*
Y-205047D01*
Y-204760D01*
X966250D01*
Y-204474D01*
Y-204188D01*
Y-203902D01*
Y-203615D01*
Y-203329D01*
Y-203043D01*
X966537D01*
Y-202756D01*
Y-202470D01*
Y-202184D01*
Y-201897D01*
Y-201611D01*
Y-201325D01*
X966823D01*
Y-201038D01*
Y-200752D01*
Y-200466D01*
Y-200179D01*
Y-199893D01*
Y-199607D01*
X967109D01*
Y-199320D01*
Y-199034D01*
Y-198748D01*
Y-198461D01*
Y-198175D01*
Y-197889D01*
Y-197603D01*
X967396D01*
Y-197316D01*
Y-197030D01*
Y-196744D01*
Y-196457D01*
Y-196171D01*
Y-195885D01*
X967682D01*
Y-195598D01*
Y-195312D01*
Y-195026D01*
Y-194739D01*
Y-194453D01*
Y-194167D01*
Y-193880D01*
X967968D01*
Y-193594D01*
Y-193308D01*
Y-193022D01*
Y-192735D01*
Y-192449D01*
Y-192163D01*
X967682D01*
Y-191876D01*
Y-191590D01*
X967396D01*
Y-191304D01*
X967109D01*
Y-191017D01*
X966537D01*
Y-190731D01*
X964819D01*
Y-191017D01*
X963387D01*
Y-191304D01*
X962528D01*
Y-191590D01*
X961956D01*
Y-191876D01*
X961669D01*
Y-192163D01*
X961097D01*
Y-192449D01*
X960810D01*
Y-192735D01*
X960524D01*
Y-193022D01*
Y-193308D01*
X960238D01*
Y-193594D01*
Y-193880D01*
Y-194167D01*
X959951D01*
Y-194453D01*
Y-194739D01*
Y-195026D01*
Y-195312D01*
Y-195598D01*
Y-195885D01*
X959665D01*
Y-196171D01*
Y-196457D01*
Y-196744D01*
Y-197030D01*
Y-197316D01*
Y-197603D01*
Y-197889D01*
X959379D01*
Y-198175D01*
Y-198461D01*
Y-198748D01*
Y-199034D01*
Y-199320D01*
Y-199607D01*
X959093D01*
Y-199893D01*
Y-200179D01*
Y-200466D01*
Y-200752D01*
Y-201038D01*
Y-201325D01*
X958806D01*
Y-201611D01*
Y-201897D01*
Y-202184D01*
Y-202470D01*
Y-202756D01*
Y-203043D01*
X958520D01*
Y-203329D01*
Y-203615D01*
Y-203902D01*
Y-204188D01*
Y-204474D01*
Y-204760D01*
Y-205047D01*
X958234D01*
Y-205333D01*
Y-205619D01*
Y-205906D01*
Y-206192D01*
Y-206478D01*
Y-206765D01*
X957947D01*
Y-207051D01*
Y-207337D01*
Y-207624D01*
Y-207910D01*
Y-208196D01*
Y-208483D01*
X957661D01*
Y-208769D01*
Y-209055D01*
Y-209341D01*
Y-209628D01*
Y-209914D01*
Y-210200D01*
Y-210487D01*
X957375D01*
Y-210773D01*
Y-211059D01*
Y-211346D01*
Y-211632D01*
Y-211918D01*
Y-212205D01*
X957088D01*
Y-212491D01*
Y-212777D01*
Y-213064D01*
Y-213350D01*
Y-213636D01*
Y-213922D01*
X956802D01*
Y-214209D01*
Y-214495D01*
Y-214781D01*
Y-215068D01*
Y-215354D01*
Y-215640D01*
X956516D01*
Y-215927D01*
Y-216213D01*
Y-216499D01*
Y-216786D01*
Y-217072D01*
Y-217358D01*
Y-217645D01*
X956229D01*
Y-217931D01*
Y-218217D01*
X943059D01*
Y-217931D01*
Y-217645D01*
X943345D01*
Y-217358D01*
Y-217072D01*
Y-216786D01*
Y-216499D01*
Y-216213D01*
Y-215927D01*
Y-215640D01*
X943632D01*
Y-215354D01*
Y-215068D01*
Y-214781D01*
Y-214495D01*
Y-214209D01*
Y-213922D01*
X943918D01*
Y-213636D01*
Y-213350D01*
Y-213064D01*
Y-212777D01*
Y-212491D01*
Y-212205D01*
X944204D01*
Y-211918D01*
Y-211632D01*
Y-211346D01*
Y-211059D01*
Y-210773D01*
Y-210487D01*
Y-210200D01*
X944491D01*
Y-209914D01*
Y-209628D01*
Y-209341D01*
Y-209055D01*
Y-208769D01*
Y-208483D01*
X944777D01*
Y-208196D01*
Y-207910D01*
Y-207624D01*
Y-207337D01*
Y-207051D01*
Y-206765D01*
X945063D01*
Y-206478D01*
Y-206192D01*
Y-205906D01*
Y-205619D01*
Y-205333D01*
Y-205047D01*
X945350D01*
Y-204760D01*
Y-204474D01*
Y-204188D01*
Y-203902D01*
Y-203615D01*
Y-203329D01*
Y-203043D01*
X945636D01*
Y-202756D01*
Y-202470D01*
Y-202184D01*
Y-201897D01*
Y-201611D01*
Y-201325D01*
X945922D01*
Y-201038D01*
Y-200752D01*
Y-200466D01*
Y-200179D01*
Y-199893D01*
Y-199607D01*
X946208D01*
Y-199320D01*
Y-199034D01*
Y-198748D01*
Y-198461D01*
Y-198175D01*
Y-197889D01*
Y-197603D01*
X946495D01*
Y-197316D01*
Y-197030D01*
Y-196744D01*
Y-196457D01*
Y-196171D01*
Y-195885D01*
X946781D01*
Y-195598D01*
Y-195312D01*
Y-195026D01*
Y-194739D01*
Y-194453D01*
Y-194167D01*
X947067D01*
Y-193880D01*
Y-193594D01*
Y-193308D01*
Y-193022D01*
Y-192735D01*
Y-192449D01*
X947354D01*
Y-192163D01*
Y-191876D01*
Y-191590D01*
Y-191304D01*
Y-191017D01*
Y-190731D01*
Y-190445D01*
X947640D01*
Y-190158D01*
Y-189872D01*
Y-189586D01*
Y-189299D01*
Y-189013D01*
Y-188727D01*
X947926D01*
Y-188441D01*
Y-188154D01*
Y-187868D01*
Y-187582D01*
Y-187295D01*
Y-187009D01*
X948213D01*
Y-186723D01*
Y-186436D01*
Y-186150D01*
Y-185864D01*
Y-185577D01*
Y-185291D01*
X948499D01*
Y-185005D01*
Y-184719D01*
Y-184432D01*
Y-184146D01*
Y-183860D01*
Y-183573D01*
Y-183287D01*
X948785D01*
Y-183001D01*
Y-182714D01*
Y-182428D01*
Y-182142D01*
Y-181855D01*
Y-181569D01*
X949072D01*
Y-181283D01*
Y-180997D01*
Y-180710D01*
Y-180424D01*
Y-180138D01*
Y-179851D01*
X949358D01*
Y-179565D01*
Y-179279D01*
Y-178992D01*
Y-178706D01*
Y-178420D01*
Y-178133D01*
Y-177847D01*
X949644D01*
Y-177561D01*
Y-177274D01*
Y-176988D01*
Y-176702D01*
Y-176415D01*
Y-176129D01*
X949931D01*
Y-175843D01*
Y-175557D01*
Y-175270D01*
Y-174984D01*
Y-174698D01*
Y-174411D01*
X950217D01*
Y-174125D01*
Y-173839D01*
Y-173552D01*
Y-173266D01*
Y-172980D01*
Y-172693D01*
X950503D01*
Y-172407D01*
Y-172121D01*
Y-171834D01*
Y-171548D01*
Y-171262D01*
Y-170975D01*
Y-170689D01*
X950790D01*
Y-170403D01*
Y-170117D01*
Y-169830D01*
Y-169544D01*
Y-169258D01*
Y-168971D01*
X951076D01*
Y-168685D01*
Y-168399D01*
Y-168112D01*
Y-167826D01*
Y-167540D01*
Y-167253D01*
X951362D01*
Y-166967D01*
Y-166681D01*
Y-166394D01*
Y-166108D01*
Y-165822D01*
Y-165535D01*
Y-165249D01*
X951648D01*
Y-164963D01*
Y-164677D01*
Y-164390D01*
X964819D01*
Y-164677D01*
D02*
G37*
G36*
X1066746Y-182142D02*
X1066460D01*
Y-182428D01*
X1066174D01*
Y-182714D01*
Y-183001D01*
X1065887D01*
Y-183287D01*
X1065601D01*
Y-183573D01*
X1065315D01*
Y-183860D01*
Y-184146D01*
X1065028D01*
Y-184432D01*
X1064742D01*
Y-184719D01*
X1064456D01*
Y-185005D01*
X1064169D01*
Y-185291D01*
Y-185577D01*
X1063883D01*
Y-185864D01*
X1063597D01*
Y-186150D01*
X1063310D01*
Y-186436D01*
Y-186723D01*
X1063024D01*
Y-187009D01*
X1062738D01*
Y-187295D01*
X1062451D01*
Y-187582D01*
X1062165D01*
Y-187868D01*
Y-188154D01*
X1061879D01*
Y-188441D01*
X1061593D01*
Y-188727D01*
X1061306D01*
Y-189013D01*
Y-189299D01*
X1061020D01*
Y-189586D01*
X1060734D01*
Y-189872D01*
X1060447D01*
Y-190158D01*
Y-190445D01*
X1060161D01*
Y-190731D01*
X1059875D01*
Y-191017D01*
X1059588D01*
Y-191304D01*
X1059302D01*
Y-191590D01*
Y-191876D01*
X1059016D01*
Y-192163D01*
X1058729D01*
Y-192449D01*
X1058443D01*
Y-192735D01*
Y-193022D01*
X1058157D01*
Y-193308D01*
X1057870D01*
Y-193594D01*
X1057584D01*
Y-193880D01*
Y-194167D01*
X1057298D01*
Y-194453D01*
X1057012D01*
Y-194739D01*
X1056725D01*
Y-195026D01*
X1056439D01*
Y-195312D01*
Y-195598D01*
X1056153D01*
Y-195885D01*
X1055866D01*
Y-196171D01*
X1055580D01*
Y-196457D01*
Y-196744D01*
X1055294D01*
Y-197030D01*
X1055007D01*
Y-197316D01*
X1054721D01*
Y-197603D01*
Y-197889D01*
X1054435D01*
Y-198175D01*
X1054148D01*
Y-198461D01*
X1053862D01*
Y-198748D01*
X1053576D01*
Y-199034D01*
Y-199320D01*
X1053290D01*
Y-199607D01*
X1053003D01*
Y-199893D01*
X1052717D01*
Y-200179D01*
Y-200466D01*
X1052431D01*
Y-200752D01*
X1052144D01*
Y-201038D01*
X1051858D01*
Y-201325D01*
X1051572D01*
Y-201611D01*
Y-201897D01*
X1051858D01*
Y-202184D01*
Y-202470D01*
X1052144D01*
Y-202756D01*
Y-203043D01*
X1052431D01*
Y-203329D01*
X1052717D01*
Y-203615D01*
Y-203902D01*
X1053003D01*
Y-204188D01*
Y-204474D01*
X1053290D01*
Y-204760D01*
Y-205047D01*
X1053576D01*
Y-205333D01*
Y-205619D01*
X1053862D01*
Y-205906D01*
Y-206192D01*
X1054148D01*
Y-206478D01*
Y-206765D01*
X1054435D01*
Y-207051D01*
Y-207337D01*
X1054721D01*
Y-207624D01*
Y-207910D01*
X1055007D01*
Y-208196D01*
X1055294D01*
Y-208483D01*
Y-208769D01*
X1055580D01*
Y-209055D01*
Y-209341D01*
X1055866D01*
Y-209628D01*
Y-209914D01*
X1056153D01*
Y-210200D01*
Y-210487D01*
X1056439D01*
Y-210773D01*
Y-211059D01*
X1056725D01*
Y-211346D01*
Y-211632D01*
X1057012D01*
Y-211918D01*
Y-212205D01*
X1057298D01*
Y-212491D01*
X1057584D01*
Y-212777D01*
Y-213064D01*
X1057870D01*
Y-213350D01*
Y-213636D01*
X1058157D01*
Y-213922D01*
Y-214209D01*
X1058443D01*
Y-214495D01*
Y-214781D01*
X1058729D01*
Y-215068D01*
Y-215354D01*
X1059016D01*
Y-215640D01*
Y-215927D01*
X1059302D01*
Y-216213D01*
Y-216499D01*
X1059588D01*
Y-216786D01*
X1059875D01*
Y-217072D01*
Y-217358D01*
X1060161D01*
Y-217645D01*
Y-217931D01*
X1060447D01*
Y-218217D01*
X1045273D01*
Y-217931D01*
X1044986D01*
Y-217645D01*
Y-217358D01*
Y-217072D01*
X1044700D01*
Y-216786D01*
Y-216499D01*
Y-216213D01*
X1044414D01*
Y-215927D01*
Y-215640D01*
X1044127D01*
Y-215354D01*
Y-215068D01*
Y-214781D01*
X1043841D01*
Y-214495D01*
Y-214209D01*
Y-213922D01*
X1043555D01*
Y-213636D01*
Y-213350D01*
X1043268D01*
Y-213064D01*
Y-212777D01*
Y-212491D01*
X1042982D01*
Y-212205D01*
Y-211918D01*
Y-211632D01*
X1042696D01*
Y-211346D01*
Y-211059D01*
Y-210773D01*
X1042410D01*
Y-210487D01*
X1041837D01*
Y-210773D01*
Y-211059D01*
X1041551D01*
Y-211346D01*
X1041264D01*
Y-211632D01*
Y-211918D01*
X1040978D01*
Y-212205D01*
X1040692D01*
Y-212491D01*
Y-212777D01*
X1040405D01*
Y-213064D01*
X1040119D01*
Y-213350D01*
Y-213636D01*
X1039833D01*
Y-213922D01*
X1039546D01*
Y-214209D01*
X1039260D01*
Y-214495D01*
Y-214781D01*
X1038974D01*
Y-215068D01*
X1038688D01*
Y-215354D01*
Y-215640D01*
X1038401D01*
Y-215927D01*
X1038115D01*
Y-216213D01*
Y-216499D01*
X1037829D01*
Y-216786D01*
X1037542D01*
Y-217072D01*
Y-217358D01*
X1037256D01*
Y-217645D01*
X1036970D01*
Y-217931D01*
Y-218217D01*
X1020936D01*
Y-217931D01*
X1021222D01*
Y-217645D01*
X1021509D01*
Y-217358D01*
X1021795D01*
Y-217072D01*
X1022081D01*
Y-216786D01*
Y-216499D01*
X1022368D01*
Y-216213D01*
X1022654D01*
Y-215927D01*
X1022940D01*
Y-215640D01*
X1023227D01*
Y-215354D01*
Y-215068D01*
X1023513D01*
Y-214781D01*
X1023799D01*
Y-214495D01*
X1024086D01*
Y-214209D01*
Y-213922D01*
X1024372D01*
Y-213636D01*
X1024658D01*
Y-213350D01*
X1024944D01*
Y-213064D01*
X1025231D01*
Y-212777D01*
Y-212491D01*
X1025517D01*
Y-212205D01*
X1025803D01*
Y-211918D01*
X1026090D01*
Y-211632D01*
X1026376D01*
Y-211346D01*
Y-211059D01*
X1026662D01*
Y-210773D01*
X1026949D01*
Y-210487D01*
X1027235D01*
Y-210200D01*
Y-209914D01*
X1027521D01*
Y-209628D01*
X1027808D01*
Y-209341D01*
X1028094D01*
Y-209055D01*
X1028380D01*
Y-208769D01*
Y-208483D01*
X1028667D01*
Y-208196D01*
X1028953D01*
Y-207910D01*
X1029239D01*
Y-207624D01*
Y-207337D01*
X1029525D01*
Y-207051D01*
X1029812D01*
Y-206765D01*
X1030098D01*
Y-206478D01*
X1030385D01*
Y-206192D01*
Y-205906D01*
X1030671D01*
Y-205619D01*
X1030957D01*
Y-205333D01*
X1031243D01*
Y-205047D01*
Y-204760D01*
X1031530D01*
Y-204474D01*
X1031816D01*
Y-204188D01*
X1032102D01*
Y-203902D01*
X1032389D01*
Y-203615D01*
Y-203329D01*
X1032675D01*
Y-203043D01*
X1032961D01*
Y-202756D01*
X1033248D01*
Y-202470D01*
X1033534D01*
Y-202184D01*
Y-201897D01*
X1033820D01*
Y-201611D01*
X1034107D01*
Y-201325D01*
X1034393D01*
Y-201038D01*
Y-200752D01*
X1034679D01*
Y-200466D01*
X1034966D01*
Y-200179D01*
X1035252D01*
Y-199893D01*
X1035538D01*
Y-199607D01*
Y-199320D01*
X1035824D01*
Y-199034D01*
Y-198748D01*
Y-198461D01*
X1035538D01*
Y-198175D01*
X1035252D01*
Y-197889D01*
Y-197603D01*
X1034966D01*
Y-197316D01*
Y-197030D01*
X1034679D01*
Y-196744D01*
Y-196457D01*
X1034393D01*
Y-196171D01*
Y-195885D01*
X1034107D01*
Y-195598D01*
Y-195312D01*
X1033820D01*
Y-195026D01*
Y-194739D01*
X1033534D01*
Y-194453D01*
X1033248D01*
Y-194167D01*
Y-193880D01*
X1032961D01*
Y-193594D01*
Y-193308D01*
X1032675D01*
Y-193022D01*
Y-192735D01*
X1032389D01*
Y-192449D01*
Y-192163D01*
X1032102D01*
Y-191876D01*
Y-191590D01*
X1031816D01*
Y-191304D01*
Y-191017D01*
X1031530D01*
Y-190731D01*
X1031243D01*
Y-190445D01*
Y-190158D01*
X1030957D01*
Y-189872D01*
Y-189586D01*
X1030671D01*
Y-189299D01*
Y-189013D01*
X1030385D01*
Y-188727D01*
Y-188441D01*
X1030098D01*
Y-188154D01*
Y-187868D01*
X1029812D01*
Y-187582D01*
Y-187295D01*
X1029525D01*
Y-187009D01*
Y-186723D01*
X1029239D01*
Y-186436D01*
X1028953D01*
Y-186150D01*
Y-185864D01*
X1028667D01*
Y-185577D01*
Y-185291D01*
X1028380D01*
Y-185005D01*
Y-184719D01*
X1028094D01*
Y-184432D01*
Y-184146D01*
X1027808D01*
Y-183860D01*
Y-183573D01*
X1027521D01*
Y-183287D01*
Y-183001D01*
X1027235D01*
Y-182714D01*
X1026949D01*
Y-182428D01*
Y-182142D01*
X1026662D01*
Y-181855D01*
X1042410D01*
Y-182142D01*
X1042696D01*
Y-182428D01*
Y-182714D01*
Y-183001D01*
X1042982D01*
Y-183287D01*
Y-183573D01*
Y-183860D01*
X1043268D01*
Y-184146D01*
Y-184432D01*
Y-184719D01*
X1043555D01*
Y-185005D01*
Y-185291D01*
Y-185577D01*
X1043841D01*
Y-185864D01*
Y-186150D01*
Y-186436D01*
X1044127D01*
Y-186723D01*
Y-187009D01*
Y-187295D01*
X1044414D01*
Y-187582D01*
Y-187868D01*
Y-188154D01*
X1044700D01*
Y-188441D01*
Y-188727D01*
Y-189013D01*
X1044986D01*
Y-189299D01*
Y-189586D01*
Y-189872D01*
Y-190158D01*
X1045559D01*
Y-189872D01*
X1045845D01*
Y-189586D01*
X1046132D01*
Y-189299D01*
Y-189013D01*
X1046418D01*
Y-188727D01*
X1046704D01*
Y-188441D01*
Y-188154D01*
X1046991D01*
Y-187868D01*
X1047277D01*
Y-187582D01*
Y-187295D01*
X1047563D01*
Y-187009D01*
X1047850D01*
Y-186723D01*
Y-186436D01*
X1048136D01*
Y-186150D01*
X1048422D01*
Y-185864D01*
Y-185577D01*
X1048709D01*
Y-185291D01*
X1048995D01*
Y-185005D01*
Y-184719D01*
X1049281D01*
Y-184432D01*
X1049567D01*
Y-184146D01*
Y-183860D01*
X1049854D01*
Y-183573D01*
X1050140D01*
Y-183287D01*
Y-183001D01*
X1050426D01*
Y-182714D01*
X1050713D01*
Y-182428D01*
Y-182142D01*
X1050999D01*
Y-181855D01*
X1066746D01*
Y-182142D01*
D02*
G37*
G36*
X1022654D02*
Y-182428D01*
Y-182714D01*
Y-183001D01*
Y-183287D01*
Y-183573D01*
Y-183860D01*
Y-184146D01*
Y-184432D01*
Y-184719D01*
Y-185005D01*
Y-185291D01*
Y-185577D01*
Y-185864D01*
Y-186150D01*
Y-186436D01*
Y-186723D01*
Y-187009D01*
Y-187295D01*
Y-187582D01*
Y-187868D01*
X1022368D01*
Y-188154D01*
Y-188441D01*
Y-188727D01*
Y-189013D01*
Y-189299D01*
X1022081D01*
Y-189586D01*
Y-189872D01*
Y-190158D01*
Y-190445D01*
X1021795D01*
Y-190731D01*
Y-191017D01*
Y-191304D01*
Y-191590D01*
X1021509D01*
Y-191876D01*
Y-192163D01*
Y-192449D01*
X1021222D01*
Y-192735D01*
Y-193022D01*
Y-193308D01*
X1020936D01*
Y-193594D01*
Y-193880D01*
Y-194167D01*
X1020650D01*
Y-194453D01*
Y-194739D01*
Y-195026D01*
X1020364D01*
Y-195312D01*
Y-195598D01*
X1020077D01*
Y-195885D01*
Y-196171D01*
X1019791D01*
Y-196457D01*
Y-196744D01*
Y-197030D01*
X1019505D01*
Y-197316D01*
Y-197603D01*
X1019218D01*
Y-197889D01*
Y-198175D01*
Y-198461D01*
X1018932D01*
Y-198748D01*
Y-199034D01*
X1018646D01*
Y-199320D01*
Y-199607D01*
Y-199893D01*
X1018359D01*
Y-200179D01*
Y-200466D01*
X1018073D01*
Y-200752D01*
Y-201038D01*
Y-201325D01*
X1017787D01*
Y-201611D01*
Y-201897D01*
X1017500D01*
Y-202184D01*
Y-202470D01*
Y-202756D01*
X1017214D01*
Y-203043D01*
Y-203329D01*
X1016928D01*
Y-203615D01*
Y-203902D01*
Y-204188D01*
X1016642D01*
Y-204474D01*
Y-204760D01*
X1016355D01*
Y-205047D01*
Y-205333D01*
Y-205619D01*
X1016069D01*
Y-205906D01*
Y-206192D01*
X1015783D01*
Y-206478D01*
Y-206765D01*
Y-207051D01*
X1015496D01*
Y-207337D01*
Y-207624D01*
X1015210D01*
Y-207910D01*
Y-208196D01*
Y-208483D01*
X1014924D01*
Y-208769D01*
Y-209055D01*
X1014637D01*
Y-209341D01*
Y-209628D01*
Y-209914D01*
X1014351D01*
Y-210200D01*
Y-210487D01*
X1014065D01*
Y-210773D01*
Y-211059D01*
Y-211346D01*
X1013778D01*
Y-211632D01*
Y-211918D01*
X1013492D01*
Y-212205D01*
Y-212491D01*
Y-212777D01*
X1013206D01*
Y-213064D01*
Y-213350D01*
X1012919D01*
Y-213636D01*
Y-213922D01*
Y-214209D01*
X1012633D01*
Y-214495D01*
Y-214781D01*
X1012347D01*
Y-215068D01*
Y-215354D01*
Y-215640D01*
X1012060D01*
Y-215927D01*
Y-216213D01*
X1011774D01*
Y-216499D01*
Y-216786D01*
Y-217072D01*
X1011488D01*
Y-217358D01*
Y-217645D01*
X1011201D01*
Y-217931D01*
Y-218217D01*
Y-218503D01*
X1010915D01*
Y-218790D01*
Y-219076D01*
X1010629D01*
Y-219362D01*
Y-219649D01*
X1010343D01*
Y-219935D01*
Y-220221D01*
X1010056D01*
Y-220508D01*
Y-220794D01*
Y-221080D01*
X1009770D01*
Y-221367D01*
X1009484D01*
Y-221653D01*
Y-221939D01*
Y-222225D01*
X1009197D01*
Y-222512D01*
X1008911D01*
Y-222798D01*
Y-223084D01*
X1008625D01*
Y-223371D01*
Y-223657D01*
X1008338D01*
Y-223943D01*
Y-224230D01*
X1008052D01*
Y-224516D01*
Y-224802D01*
X1007766D01*
Y-225089D01*
X1007479D01*
Y-225375D01*
Y-225661D01*
X1007193D01*
Y-225948D01*
Y-226234D01*
X1006907D01*
Y-226520D01*
X1006621D01*
Y-226806D01*
X1006334D01*
Y-227093D01*
Y-227379D01*
X1006048D01*
Y-227665D01*
X1005762D01*
Y-227952D01*
Y-228238D01*
X1005475D01*
Y-228524D01*
X1005189D01*
Y-228811D01*
X1004903D01*
Y-229097D01*
Y-229383D01*
X1004616D01*
Y-229670D01*
X1004330D01*
Y-229956D01*
X1004044D01*
Y-230242D01*
X1003757D01*
Y-230529D01*
X1003471D01*
Y-230815D01*
Y-231101D01*
X1003185D01*
Y-231387D01*
X1002898D01*
Y-231674D01*
X1002612D01*
Y-231960D01*
X1002326D01*
Y-232246D01*
X1002040D01*
Y-232533D01*
X1001753D01*
Y-232819D01*
X1001467D01*
Y-233105D01*
X1000894D01*
Y-233392D01*
X1000608D01*
Y-233678D01*
X1000322D01*
Y-233964D01*
X1000035D01*
Y-234251D01*
X999749D01*
Y-234537D01*
X999176D01*
Y-234823D01*
X998890D01*
Y-235110D01*
X998317D01*
Y-235396D01*
X998031D01*
Y-235682D01*
X997458D01*
Y-235968D01*
X997172D01*
Y-236255D01*
X996600D01*
Y-236541D01*
X996027D01*
Y-236827D01*
X995454D01*
Y-237114D01*
X994882D01*
Y-237400D01*
X994309D01*
Y-237686D01*
X993450D01*
Y-237973D01*
X992877D01*
Y-238259D01*
X992019D01*
Y-238545D01*
X990873D01*
Y-238832D01*
X989728D01*
Y-239118D01*
X988010D01*
Y-239404D01*
X986006D01*
Y-239691D01*
X985720D01*
Y-239404D01*
Y-239118D01*
Y-238832D01*
Y-238545D01*
Y-238259D01*
Y-237973D01*
Y-237686D01*
Y-237400D01*
Y-237114D01*
Y-236827D01*
Y-236541D01*
Y-236255D01*
Y-235968D01*
Y-235682D01*
Y-235396D01*
Y-235110D01*
Y-234823D01*
Y-234537D01*
Y-234251D01*
Y-233964D01*
Y-233678D01*
Y-233392D01*
Y-233105D01*
Y-232819D01*
Y-232533D01*
Y-232246D01*
Y-231960D01*
Y-231674D01*
Y-231387D01*
Y-231101D01*
Y-230815D01*
Y-230529D01*
Y-230242D01*
X986292D01*
Y-229956D01*
X986865D01*
Y-229670D01*
X987438D01*
Y-229383D01*
X988010D01*
Y-229097D01*
X988583D01*
Y-228811D01*
X989155D01*
Y-228524D01*
X989442D01*
Y-228238D01*
X990014D01*
Y-227952D01*
X990301D01*
Y-227665D01*
X990873D01*
Y-227379D01*
X991160D01*
Y-227093D01*
X991446D01*
Y-226806D01*
X992019D01*
Y-226520D01*
X992305D01*
Y-226234D01*
X992591D01*
Y-225948D01*
X992877D01*
Y-225661D01*
X993164D01*
Y-225375D01*
X993450D01*
Y-225089D01*
X993736D01*
Y-224802D01*
X994023D01*
Y-224516D01*
X994309D01*
Y-224230D01*
X994595D01*
Y-223943D01*
X994882D01*
Y-223657D01*
X995168D01*
Y-223371D01*
Y-223084D01*
X995454D01*
Y-222798D01*
X995741D01*
Y-222512D01*
X996027D01*
Y-222225D01*
Y-221939D01*
X996313D01*
Y-221653D01*
X996600D01*
Y-221367D01*
Y-221080D01*
X996886D01*
Y-220794D01*
Y-220508D01*
X997172D01*
Y-220221D01*
X997458D01*
Y-219935D01*
Y-219649D01*
X997745D01*
Y-219362D01*
Y-219076D01*
X998031D01*
Y-218790D01*
Y-218503D01*
X996313D01*
Y-218217D01*
X994309D01*
Y-217931D01*
X993164D01*
Y-217645D01*
X992591D01*
Y-217358D01*
X991732D01*
Y-217072D01*
X991160D01*
Y-216786D01*
X990873D01*
Y-216499D01*
X990301D01*
Y-216213D01*
X990014D01*
Y-215927D01*
X989728D01*
Y-215640D01*
X989442D01*
Y-215354D01*
X989155D01*
Y-215068D01*
X988869D01*
Y-214781D01*
Y-214495D01*
X988583D01*
Y-214209D01*
X988297D01*
Y-213922D01*
Y-213636D01*
X988010D01*
Y-213350D01*
Y-213064D01*
X987724D01*
Y-212777D01*
Y-212491D01*
X987438D01*
Y-212205D01*
Y-211918D01*
Y-211632D01*
X987151D01*
Y-211346D01*
Y-211059D01*
Y-210773D01*
Y-210487D01*
X986865D01*
Y-210200D01*
Y-209914D01*
Y-209628D01*
Y-209341D01*
Y-209055D01*
Y-208769D01*
Y-208483D01*
X986579D01*
Y-208196D01*
Y-207910D01*
Y-207624D01*
Y-207337D01*
Y-207051D01*
Y-206765D01*
Y-206478D01*
Y-206192D01*
Y-205906D01*
Y-205619D01*
Y-205333D01*
Y-205047D01*
Y-204760D01*
Y-204474D01*
Y-204188D01*
X986292D01*
Y-203902D01*
Y-203615D01*
Y-203329D01*
Y-203043D01*
Y-202756D01*
Y-202470D01*
Y-202184D01*
Y-201897D01*
Y-201611D01*
Y-201325D01*
Y-201038D01*
Y-200752D01*
Y-200466D01*
Y-200179D01*
Y-199893D01*
X986006D01*
Y-199607D01*
Y-199320D01*
Y-199034D01*
Y-198748D01*
Y-198461D01*
Y-198175D01*
Y-197889D01*
Y-197603D01*
Y-197316D01*
Y-197030D01*
Y-196744D01*
Y-196457D01*
Y-196171D01*
Y-195885D01*
Y-195598D01*
Y-195312D01*
X985720D01*
Y-195026D01*
Y-194739D01*
Y-194453D01*
Y-194167D01*
Y-193880D01*
Y-193594D01*
Y-193308D01*
Y-193022D01*
Y-192735D01*
Y-192449D01*
Y-192163D01*
Y-191876D01*
Y-191590D01*
Y-191304D01*
Y-191017D01*
Y-190731D01*
X985433D01*
Y-190445D01*
Y-190158D01*
Y-189872D01*
Y-189586D01*
Y-189299D01*
Y-189013D01*
Y-188727D01*
Y-188441D01*
Y-188154D01*
Y-187868D01*
Y-187582D01*
Y-187295D01*
Y-187009D01*
Y-186723D01*
X985147D01*
Y-186436D01*
Y-186150D01*
Y-185864D01*
Y-185577D01*
Y-185291D01*
Y-185005D01*
Y-184719D01*
Y-184432D01*
Y-184146D01*
Y-183860D01*
Y-183573D01*
Y-183287D01*
Y-183001D01*
Y-182714D01*
Y-182428D01*
Y-182142D01*
X984861D01*
Y-181855D01*
X998604D01*
Y-182142D01*
Y-182428D01*
Y-182714D01*
Y-183001D01*
Y-183287D01*
Y-183573D01*
Y-183860D01*
Y-184146D01*
Y-184432D01*
Y-184719D01*
Y-185005D01*
Y-185291D01*
Y-185577D01*
Y-185864D01*
X998890D01*
Y-186150D01*
Y-186436D01*
Y-186723D01*
Y-187009D01*
Y-187295D01*
Y-187582D01*
Y-187868D01*
Y-188154D01*
Y-188441D01*
Y-188727D01*
Y-189013D01*
Y-189299D01*
Y-189586D01*
Y-189872D01*
Y-190158D01*
Y-190445D01*
Y-190731D01*
Y-191017D01*
Y-191304D01*
Y-191590D01*
Y-191876D01*
Y-192163D01*
Y-192449D01*
Y-192735D01*
Y-193022D01*
Y-193308D01*
Y-193594D01*
Y-193880D01*
Y-194167D01*
Y-194453D01*
Y-194739D01*
Y-195026D01*
Y-195312D01*
Y-195598D01*
Y-195885D01*
Y-196171D01*
Y-196457D01*
Y-196744D01*
Y-197030D01*
Y-197316D01*
Y-197603D01*
X999176D01*
Y-197889D01*
X998890D01*
Y-198175D01*
Y-198461D01*
X999176D01*
Y-198748D01*
Y-199034D01*
Y-199320D01*
Y-199607D01*
Y-199893D01*
Y-200179D01*
Y-200466D01*
Y-200752D01*
Y-201038D01*
Y-201325D01*
Y-201611D01*
Y-201897D01*
Y-202184D01*
Y-202470D01*
Y-202756D01*
Y-203043D01*
Y-203329D01*
Y-203615D01*
Y-203902D01*
Y-204188D01*
Y-204474D01*
Y-204760D01*
Y-205047D01*
Y-205333D01*
Y-205619D01*
Y-205906D01*
X999463D01*
Y-206192D01*
Y-206478D01*
Y-206765D01*
X999749D01*
Y-207051D01*
X1000035D01*
Y-207337D01*
X1000322D01*
Y-207624D01*
X1001181D01*
Y-207910D01*
X1002040D01*
Y-207624D01*
X1002326D01*
Y-207337D01*
Y-207051D01*
Y-206765D01*
X1002612D01*
Y-206478D01*
Y-206192D01*
X1002898D01*
Y-205906D01*
Y-205619D01*
Y-205333D01*
X1003185D01*
Y-205047D01*
Y-204760D01*
Y-204474D01*
X1003471D01*
Y-204188D01*
Y-203902D01*
Y-203615D01*
X1003757D01*
Y-203329D01*
Y-203043D01*
Y-202756D01*
X1004044D01*
Y-202470D01*
Y-202184D01*
X1004330D01*
Y-201897D01*
Y-201611D01*
Y-201325D01*
X1004616D01*
Y-201038D01*
Y-200752D01*
Y-200466D01*
X1004903D01*
Y-200179D01*
Y-199893D01*
Y-199607D01*
X1005189D01*
Y-199320D01*
Y-199034D01*
X1005475D01*
Y-198748D01*
Y-198461D01*
Y-198175D01*
X1005762D01*
Y-197889D01*
Y-197603D01*
Y-197316D01*
X1006048D01*
Y-197030D01*
Y-196744D01*
Y-196457D01*
X1006334D01*
Y-196171D01*
Y-195885D01*
X1006621D01*
Y-195598D01*
Y-195312D01*
Y-195026D01*
X1006907D01*
Y-194739D01*
Y-194453D01*
Y-194167D01*
X1007193D01*
Y-193880D01*
Y-193594D01*
Y-193308D01*
X1007479D01*
Y-193022D01*
Y-192735D01*
X1007766D01*
Y-192449D01*
Y-192163D01*
Y-191876D01*
X1008052D01*
Y-191590D01*
Y-191304D01*
Y-191017D01*
X1008338D01*
Y-190731D01*
Y-190445D01*
Y-190158D01*
X1008625D01*
Y-189872D01*
Y-189586D01*
Y-189299D01*
Y-189013D01*
X1008911D01*
Y-188727D01*
Y-188441D01*
Y-188154D01*
Y-187868D01*
X1009197D01*
Y-187582D01*
Y-187295D01*
Y-187009D01*
Y-186723D01*
Y-186436D01*
X1009484D01*
Y-186150D01*
Y-185864D01*
Y-185577D01*
Y-185291D01*
Y-185005D01*
Y-184719D01*
X1009770D01*
Y-184432D01*
Y-184146D01*
Y-183860D01*
Y-183573D01*
Y-183287D01*
Y-183001D01*
Y-182714D01*
Y-182428D01*
Y-182142D01*
Y-181855D01*
X1022654D01*
Y-182142D01*
D02*
G37*
%LPC*%
G36*
X929316Y-178992D02*
X921299D01*
Y-179279D01*
Y-179565D01*
Y-179851D01*
Y-180138D01*
Y-180424D01*
X921013D01*
Y-180710D01*
Y-180997D01*
Y-181283D01*
Y-181569D01*
Y-181855D01*
Y-182142D01*
X920727D01*
Y-182428D01*
Y-182714D01*
Y-183001D01*
Y-183287D01*
Y-183573D01*
Y-183860D01*
X920440D01*
Y-184146D01*
Y-184432D01*
Y-184719D01*
Y-185005D01*
Y-185291D01*
Y-185577D01*
X920154D01*
Y-185864D01*
Y-186150D01*
Y-186436D01*
Y-186723D01*
Y-187009D01*
Y-187295D01*
Y-187582D01*
X919868D01*
Y-187868D01*
Y-188154D01*
Y-188441D01*
Y-188727D01*
Y-189013D01*
Y-189299D01*
X919581D01*
Y-189586D01*
Y-189872D01*
Y-190158D01*
X926739D01*
Y-189872D01*
X927884D01*
Y-189586D01*
X928457D01*
Y-189299D01*
X928743D01*
Y-189013D01*
X929030D01*
Y-188727D01*
X929316D01*
Y-188441D01*
X929602D01*
Y-188154D01*
Y-187868D01*
X929889D01*
Y-187582D01*
Y-187295D01*
X930175D01*
Y-187009D01*
Y-186723D01*
X930461D01*
Y-186436D01*
Y-186150D01*
Y-185864D01*
Y-185577D01*
X930748D01*
Y-185291D01*
Y-185005D01*
Y-184719D01*
Y-184432D01*
Y-184146D01*
X931034D01*
Y-183860D01*
Y-183573D01*
Y-183287D01*
Y-183001D01*
Y-182714D01*
Y-182428D01*
Y-182142D01*
Y-181855D01*
Y-181569D01*
Y-181283D01*
Y-180997D01*
X930748D01*
Y-180710D01*
Y-180424D01*
X930461D01*
Y-180138D01*
Y-179851D01*
X930175D01*
Y-179565D01*
X929889D01*
Y-179279D01*
X929316D01*
Y-178992D01*
D02*
G37*
%LPD*%
D10*
X4938Y422655D02*
G03*
X7921Y421420I2983J2983D01*
G01*
X-22103Y419182D02*
G03*
X-21931Y419597I-415J415D01*
G01*
X120916Y246516D02*
G03*
X120793Y246217I299J-299D01*
G01*
X-115903Y234867D02*
G03*
X-115779Y235167I-299J299D01*
G01*
X4938Y422655D02*
G03*
X264Y428354I-8630J-2312D01*
G01*
X264Y428354D02*
G03*
X-3501Y429820I-7411J-13464D01*
G01*
D02*
G03*
X-7709Y430394I-4775J-19267D01*
G01*
D02*
G03*
X-15916Y428916I-768J-19255D01*
G01*
Y428916D02*
G03*
X-19146Y426885I4789J-11197D01*
G01*
X-19146Y426885D02*
G03*
X-21279Y424007I5567J-6357D01*
G01*
X-21279D02*
G03*
X-21931Y420296I7362J-3207D01*
G01*
X120916Y246516D02*
G03*
X128159Y249360I-2895J18017D01*
G01*
D02*
G03*
X132808Y254212I-9920J14159D01*
G01*
D02*
G03*
X134486Y257166I-23157J15102D01*
G01*
X134486D02*
G03*
X135905Y260353I-43285J21190D01*
G01*
D02*
G03*
X137196Y263681I-125866J50741D01*
G01*
X139915Y270405D02*
G03*
X138489Y267062I56119J-25901D01*
G01*
X141602Y273620D02*
G03*
X139915Y270405I30697J-18160D01*
G01*
X141602Y273620D02*
G03*
X149366Y315092I-52539J31299D01*
G01*
X149366D02*
G03*
X145827Y328974I-75451J-11845D01*
G01*
X145827Y328974D02*
G03*
X139767Y342309I-82811J-29587D01*
G01*
Y342309D02*
G03*
X127177Y360796I-112363J-62993D01*
G01*
X127177Y360796D02*
G03*
X117156Y371934I-117577J-95713D01*
G01*
D02*
G03*
X106123Y382116I-122641J-121804D01*
G01*
D02*
G03*
X94330Y391339I-125918J-148862D01*
G01*
X94330Y391339D02*
G03*
X88225Y395590I-123558J-170956D01*
G01*
D02*
G03*
X43594Y415409I-77680J-114764D01*
G01*
X43594Y415409D02*
G03*
X37493Y416858I-46996J-184318D01*
G01*
X37493Y416858D02*
G03*
X31185Y418151I-47890J-217564D01*
G01*
D02*
G03*
X20808Y419992I-67172J-348460D01*
G01*
X20808D02*
G03*
X15433Y420783I-33210J-207101D01*
G01*
D02*
G03*
X9985Y421420I-21683J-161898D01*
G01*
X-22103Y419182D02*
G03*
X-28792Y416838I39729J-124062D01*
G01*
D02*
G03*
X-32114Y415535I60441J-159018D01*
G01*
X-70331Y398238D02*
G03*
X-80463Y393243I226237J-471658D01*
G01*
Y393243D02*
G03*
X-90471Y388013I201132J-397094D01*
G01*
X-90471D02*
G03*
X-100330Y382514I183691J-340920D01*
G01*
X-105196Y379653D02*
G03*
X-113312Y374705I236951J-397826D01*
G01*
Y374705D02*
G03*
X-117398Y372088I123983J-198009D01*
G01*
Y372088D02*
G03*
X-121444Y369354I95944J-146385D01*
G01*
Y369354D02*
G03*
X-125409Y366489I79036J-113555D01*
G01*
X-125409D02*
G03*
X-129250Y363477I67645J-90220D01*
G01*
D02*
G03*
X-132924Y360303I59440J-72520D01*
G01*
Y360303D02*
G03*
X-136389Y356952I53303J-58572D01*
G01*
D02*
G03*
X-139601Y353408I48662J-47339D01*
G01*
X-139601D02*
G03*
X-142519Y349655I45225J-38180D01*
G01*
D02*
G03*
X-145023Y345526I24115J-17447D01*
G01*
X-145023Y345526D02*
G03*
X-145897Y343534I21074J-10428D01*
G01*
X-145897D02*
G03*
X-147310Y337519I21903J-8320D01*
G01*
X-147310Y337519D02*
G03*
X-147464Y335410I33018J-3466D01*
G01*
X-147464D02*
G03*
X-147501Y333205I46194J-1889D01*
G01*
X-147501Y333205D02*
G03*
X-147448Y330874I72707J491D01*
G01*
X-147448Y330874D02*
G03*
X-147330Y328392I138839J5369D01*
G01*
X-147067Y320280D02*
G03*
X-147330Y328392I-173867J-1575D01*
G01*
X-147042Y312106D02*
G03*
X-147033Y308012I624323J-603D01*
G01*
X-146979Y303922D02*
G03*
X-146847Y299842I172911J3564D01*
G01*
D02*
G03*
X-146601Y295779I125907J5569D01*
G01*
D02*
G03*
X-146208Y291739I98475J7547D01*
G01*
X-146208Y291739D02*
G03*
X-145632Y287729I80618J9525D01*
G01*
X-145632D02*
G03*
X-145070Y284850I52848J8831D01*
G01*
X-145070Y284850D02*
G03*
X-144723Y283423I41945J9442D01*
G01*
D02*
G03*
X-144325Y282012I36467J9527D01*
G01*
X-144325Y282012D02*
G03*
X-143870Y280621I31939J9686D01*
G01*
X-143870Y280621D02*
G03*
X-143352Y279257I28143J9900D01*
G01*
X-143352D02*
G03*
X-142766Y277924I24935J10168D01*
G01*
D02*
G03*
X-141365Y275372I21339J10047D01*
G01*
Y275372D02*
G03*
X-140540Y274163I17965J11384D01*
G01*
X-140540Y274163D02*
G03*
X-138638Y272197I8877J6681D01*
G01*
Y272196D02*
G03*
X-137496Y271317I13397J16219D01*
G01*
D02*
G03*
X-136286Y270484I21967J30626D01*
G01*
X-132689Y268092D02*
G03*
X-133838Y268889I-18856J-25958D01*
G01*
X-131649Y267273D02*
G03*
X-132689Y268092I-10781J-12612D01*
G01*
X-130762Y266413D02*
G03*
X-131649Y267273I-7195J-6537D01*
G01*
X-130073Y265497D02*
G03*
X-130762Y266413I-5213J-3202D01*
G01*
X-129367Y263847D02*
G03*
X-130073Y265497I-6985J-2012D01*
G01*
X-129113Y262893D02*
G03*
X-129367Y263847I-14317J-3307D01*
G01*
X-128901Y261884D02*
G03*
X-129113Y262893I-25401J-4823D01*
G01*
X-128529Y259791D02*
G03*
X-128333Y258752I43134J7583D01*
G01*
D02*
G03*
X-128107Y257747I21311J4273D01*
G01*
X-128107D02*
G03*
X-127831Y256799I12668J3164D01*
G01*
Y256799D02*
G03*
X-127489Y255931I7951J2631D01*
G01*
D02*
G03*
X-125987Y253181I21258J9830D01*
G01*
Y253181D02*
G03*
X-125100Y251908I16521J10563D01*
G01*
X-125100D02*
G03*
X-124120Y250726I13812J10455D01*
G01*
Y250726D02*
G03*
X-123043Y249651I11381J10321D01*
G01*
X-123043D02*
G03*
X-121868Y248699I9251J10232D01*
G01*
D02*
G03*
X-119209Y247236I7212J9952D01*
G01*
X-119209Y247236D02*
G03*
X-116123Y246468I4415J11162D01*
G01*
X125827Y238622D02*
G03*
X120793Y236056I12475J-30698D01*
G01*
X128424Y239504D02*
G03*
X125827Y238622I6596J-23675D01*
G01*
X130987Y240029D02*
G03*
X128424Y239504I2418J-18342D01*
G01*
X133452Y240128D02*
G03*
X130987Y240029I-694J-13429D01*
G01*
X135756Y239734D02*
G03*
X133452Y240128I-2812J-9513D01*
G01*
X137832Y238779D02*
G03*
X135756Y239734I-4386J-6802D01*
G01*
X139617Y237196D02*
G03*
X137832Y238779I-6180J-5169D01*
G01*
X141047Y234916D02*
G03*
X139617Y237196I-9225J-4194D01*
G01*
X142055Y231871D02*
G03*
X141047Y234916I-14774J-3207D01*
G01*
X143155Y225053D02*
G03*
X142055Y231871I-58500J-5938D01*
G01*
X143438Y221547D02*
G03*
X143155Y225053I-75922J-4358D01*
G01*
X143573Y218000D02*
G03*
X143438Y221547I-91411J-1697D01*
G01*
X143582Y214432D02*
G03*
X143573Y218000I-111523J1493D01*
G01*
X143488Y210860D02*
G03*
X143582Y214432I-139115J5431D01*
G01*
X143315Y207302D02*
G03*
X143488Y210860I-180521J10607D01*
G01*
X141881Y189653D02*
G03*
X142537Y196905I-362447J36400D01*
G01*
X141465Y185946D02*
G03*
X141881Y189653I-182671J22402D01*
G01*
X140957Y182222D02*
G03*
X141465Y185946I-136468J20519D01*
G01*
X140332Y178506D02*
G03*
X140957Y182222I-107189J19923D01*
G01*
X139567Y174825D02*
G03*
X140332Y178506I-86395J19876D01*
G01*
X138637Y171206D02*
G03*
X139567Y174825I-70599J20071D01*
G01*
X137518Y167675D02*
G03*
X138637Y171206I-58119J20369D01*
G01*
X136184Y164259D02*
G03*
X137518Y167675I-48048J20720D01*
G01*
X134613Y160983D02*
G03*
X136184Y164259I-39849J21136D01*
G01*
X132675Y157914D02*
G03*
X134613Y160983I-20164J14878D01*
G01*
X131543Y156470D02*
G03*
X132675Y157914I-22696J18955D01*
G01*
X130321Y155086D02*
G03*
X131543Y156470I-24242J22649D01*
G01*
X129021Y153763D02*
G03*
X130321Y155086I-25920J26751D01*
G01*
X127658Y152500D02*
G03*
X129021Y153763I-27709J31265D01*
G01*
X126245Y151297D02*
G03*
X127658Y152500I-29596J36189D01*
G01*
X124795Y150153D02*
G03*
X126245Y151296I-31574J41522D01*
G01*
X121837Y148043D02*
G03*
X124795Y150153I-33972J50751D01*
G01*
X118876Y146493D02*
G03*
X121837Y148043I-4674J12535D01*
G01*
X117562Y146151D02*
G03*
X118876Y146493I-1284J7625D01*
G01*
X113910Y146574D02*
G03*
X117562Y146151I2585J6351D01*
G01*
X112685Y147120D02*
G03*
X113910Y146574I5699J11140D01*
G01*
X111405Y147829D02*
G03*
X112685Y147120I11201J18708D01*
G01*
X110038Y148678D02*
G03*
X111405Y147829I25549J39599D01*
G01*
X108655Y118357D02*
G03*
X108553Y149644I-239327J14865D01*
G01*
X107039Y102648D02*
G03*
X108655Y118357I-200264J28536D01*
G01*
X104132Y87214D02*
G03*
X107039Y102648I-170507J40109D01*
G01*
X99798Y72297D02*
G03*
X104132Y87214I-141474J49189D01*
G01*
X91783Y55847D02*
G03*
X99798Y72297I-62049J40409D01*
G01*
X84891Y46991D02*
G03*
X91783Y55847I-52867J48253D01*
G01*
X80986Y42972D02*
G03*
X84891Y46991I-59740J61952D01*
G01*
X76777Y39126D02*
G03*
X80986Y42972I-69933J80751D01*
G01*
X72267Y35379D02*
G03*
X76777Y39126I-89617J112442D01*
G01*
X67458Y31655D02*
G03*
X72267Y35379I-129119J171747D01*
G01*
X47306Y16944D02*
G03*
X52389Y20573I-184156J263335D01*
G01*
X42127Y13446D02*
G03*
X47306Y16944I-104860J160840D01*
G01*
X36831Y10165D02*
G03*
X42127Y13446I-68489J116445D01*
G01*
X31398Y7186D02*
G03*
X36831Y10165I-46703J91612D01*
G01*
X25807Y4594D02*
G03*
X31398Y7186I-31807J75949D01*
G01*
X20036Y2475D02*
G03*
X25807Y4594I-20796J65564D01*
G01*
X14065Y915D02*
G03*
X20036Y2475I-12160J58751D01*
G01*
X7874Y0D02*
G03*
X14065Y916I-4929J54724D01*
G01*
X-9534Y742D02*
G03*
X7874Y0I11568J66842D01*
G01*
X-20721Y3464D02*
G03*
X-9534Y742I25310J79671D01*
G01*
X-26182Y5362D02*
G03*
X-20721Y3464I35629J93689D01*
G01*
X-31554Y7561D02*
G03*
X-26182Y5362I46316J105474D01*
G01*
X-36832Y10017D02*
G03*
X-31554Y7561I59246J120453D01*
G01*
X-42017Y12686D02*
G03*
X-36832Y10017I75318J139928D01*
G01*
X-47104Y15525D02*
G03*
X-42017Y12686I96123J166299D01*
G01*
X-63120Y25721D02*
G03*
X-47104Y15525I122836J175261D01*
G01*
X-73318Y33440D02*
G03*
X-63120Y25721I112595J138165D01*
G01*
X-82868Y41913D02*
G03*
X-73318Y33440I105372J109149D01*
G01*
X-91545Y51156D02*
G03*
X-82868Y41913I97916J83223D01*
G01*
X-95485Y56071D02*
G03*
X-91545Y51156I90701J68675D01*
G01*
X-103962Y72231D02*
G03*
X-95485Y56071I54262J18159D01*
G01*
X-105669Y77979D02*
G03*
X-103962Y72231I71691J18163D01*
G01*
X-106953Y83861D02*
G03*
X-105669Y77979I89583J16485D01*
G01*
X-107898Y89849D02*
G03*
X-106953Y83861I117631J15486D01*
G01*
X-108584Y95915D02*
G03*
X-107898Y89849I166548J15777D01*
G01*
X-109095Y102031D02*
G03*
X-108584Y95915I273515J19756D01*
G01*
X-111340Y142937D02*
G03*
X-109917Y114300I686176J19733D01*
G01*
X-111391Y144727D02*
G03*
X-111424Y145424I-25703J-864D01*
G01*
Y145424D02*
G03*
X-111475Y146020I-11232J-675D01*
G01*
Y146020D02*
G03*
X-111556Y146536I-6105J-692D01*
G01*
Y146536D02*
G03*
X-111677Y146996I-4050J-815D01*
G01*
D02*
G03*
X-112078Y147837I-3487J-1148D01*
G01*
Y147837D02*
G03*
X-112379Y148263I-4690J-2999D01*
G01*
Y148263D02*
G03*
X-112762Y148723I-7526J-5872D01*
G01*
D02*
G03*
X-113427Y149248I-2166J-2062D01*
G01*
Y149248D02*
G03*
X-113866Y149497I-4005J-6552D01*
G01*
X-113866D02*
G03*
X-114351Y149740I-6833J-13001D01*
G01*
X-115893Y150465D02*
G03*
X-115383Y150222I11607J23665D01*
G01*
X-116374Y150714D02*
G03*
X-115893Y150465I5945J10904D01*
G01*
X-116807Y150971D02*
G03*
X-116374Y150714I3692J5734D01*
G01*
X-117174Y151239D02*
G03*
X-116807Y150971I2415J2925D01*
G01*
X-118801Y152837D02*
G03*
X-117174Y151239I11385J9957D01*
G01*
X-119535Y153727D02*
G03*
X-118801Y152837I14782J11459D01*
G01*
X-120222Y154663D02*
G03*
X-119535Y153727I17995J12481D01*
G01*
X-120866Y155638D02*
G03*
X-120222Y154663I21970J13818D01*
G01*
X-121471Y156640D02*
G03*
X-120866Y155638I27018J15612D01*
G01*
X-122041Y157662D02*
G03*
X-121471Y156640I33727J18140D01*
G01*
X-122579Y158692D02*
G03*
X-122041Y157662I43347J21995D01*
G01*
X-123091Y159722D02*
G03*
X-122579Y158692I59053J28675D01*
G01*
X-126893Y169272D02*
G03*
X-123579Y160743I71857J23014D01*
G01*
X-128205Y173712D02*
G03*
X-126893Y169272I90130J24207D01*
G01*
X-129317Y178236D02*
G03*
X-128205Y173712I106287J23728D01*
G01*
X-130253Y182819D02*
G03*
X-129317Y178236I126392J23428D01*
G01*
X-131037Y187438D02*
G03*
X-130253Y182819I152236J23459D01*
G01*
X-131692Y192068D02*
G03*
X-131037Y187438I187237J24127D01*
G01*
X-132241Y196684D02*
G03*
X-131692Y192068I238721J26078D01*
G01*
X-134042Y215501D02*
G03*
X-133731Y212002I199613J15982D01*
G01*
X-134279Y219145D02*
G03*
X-134042Y215501I121450J6065D01*
G01*
X-134383Y222847D02*
G03*
X-134279Y219145I84860J544D01*
G01*
X-134298Y226523D02*
G03*
X-134383Y222847I61135J-3265D01*
G01*
X-133964Y230086D02*
G03*
X-134298Y226523I43716J-5895D01*
G01*
X-133323Y233453D02*
G03*
X-133964Y230086I30472J-7541D01*
G01*
X-132318Y236537D02*
G03*
X-133323Y233453I20527J-8394D01*
G01*
X-130891Y239252D02*
G03*
X-132318Y236537I13353J-8750D01*
G01*
X-127884Y241927D02*
G03*
X-130891Y239252I2981J-6379D01*
G01*
X-124431Y242322D02*
G03*
X-127884Y241927I-1068J-5954D01*
G01*
X-122678Y241822D02*
G03*
X-124431Y242322I-3121J-7618D01*
G01*
X-120983Y240941D02*
G03*
X-122678Y241822I-5651J-8802D01*
G01*
X-119401Y239742D02*
G03*
X-120983Y240941I-8355J-9377D01*
G01*
X-115903Y234867D02*
G03*
X-119401Y239742I-12433J-5230D01*
G01*
X-116059Y237345D02*
G03*
X-115779Y236232I7387J1264D01*
G01*
X-116210Y238593D02*
G03*
X-116059Y237345I12433J878D01*
G01*
X-116262Y239931D02*
G03*
X-116210Y238593I20340J117D01*
G01*
X-116242Y241316D02*
G03*
X-116262Y239931I33820J-1171D01*
G01*
X-116180Y242706D02*
G03*
X-116242Y241316I65697J-3650D01*
G01*
X-116103Y244056D02*
G03*
X-116040Y245325I-69766J4094D01*
G01*
D02*
G03*
X-116020Y246468I-24131J1003D01*
G01*
X7921Y421420D02*
X9985D01*
X-21931Y419597D02*
Y420296D01*
X120793Y236056D02*
Y246217D01*
X-115779Y235167D02*
Y236232D01*
X137196Y263681D02*
X138489Y267062D01*
X-35423Y414165D02*
X-32114Y415535D01*
X-38716Y412742D02*
X-35423Y414165D01*
X-41994Y411282D02*
X-38716Y412742D01*
X-45257Y409800D02*
X-41994Y411282D01*
X-48505Y408310D02*
X-45257Y409800D01*
X-51736Y406828D02*
X-48505Y408310D01*
X-54953Y405369D02*
X-51736Y406828D01*
X-65225Y400659D02*
X-54953Y405369D01*
X-70331Y398238D02*
X-65225Y400659D01*
X-105196Y379653D02*
X-100330Y382514D01*
X-147067Y320280D02*
X-147042Y316197D01*
X-147042Y312106D02*
X-147042Y316197D01*
X-147033Y308012D02*
X-146979Y303922D01*
X-136286Y270484D02*
X-135052Y269681D01*
X-133838Y268889D01*
X-128901Y261884D02*
X-128712Y260843D01*
X-128529Y259791D01*
X143083Y203779D02*
X143315Y207302D01*
X142816Y200307D02*
X143083Y203779D01*
X142537Y196905D02*
X142816Y200307D01*
X108553Y149644D02*
X110038Y148678D01*
X62351Y27881D02*
X67458Y31655D01*
X52389Y20573D02*
X62351Y27881D01*
X-109512Y108168D02*
X-109095Y102031D01*
X-109917Y114300D02*
X-109512Y108168D01*
X-111391Y144727D02*
X-111340Y142937D01*
X-114863Y149981D02*
X-114351Y149740D01*
X-115383Y150222D02*
X-114863Y149981D01*
X-123579Y160743D02*
X-123091Y159722D01*
X-132709Y201262D02*
X-132241Y196684D01*
X-133118Y205777D02*
X-132709Y201262D01*
X-133731Y212002D02*
X-133118Y205777D01*
X-116180Y242706D02*
X-116103Y244056D01*
D12*
X1244094Y-228346D02*
Y-220475D01*
X1248030D01*
X1249342Y-221786D01*
Y-224410D01*
X1248030Y-225722D01*
X1244094D01*
X1246718D02*
X1249342Y-228346D01*
X1255901D02*
X1253277D01*
X1251966Y-227034D01*
Y-224410D01*
X1253277Y-223098D01*
X1255901D01*
X1257213Y-224410D01*
Y-225722D01*
X1251966D01*
X1259837Y-223098D02*
X1262461Y-228346D01*
X1265085Y-223098D01*
X889763Y-259844D02*
Y-267716D01*
X893699D01*
X895011Y-266404D01*
Y-261157D01*
X893699Y-259844D01*
X889763D01*
X901571Y-267716D02*
X898947D01*
X897635Y-266404D01*
Y-263780D01*
X898947Y-262468D01*
X901571D01*
X902882Y-263780D01*
Y-265092D01*
X897635D01*
X905506Y-267716D02*
X909442D01*
X910754Y-266404D01*
X909442Y-265092D01*
X906818D01*
X905506Y-263780D01*
X906818Y-262468D01*
X910754D01*
X916002Y-270340D02*
X917314D01*
X918626Y-269028D01*
Y-262468D01*
X914690D01*
X913378Y-263780D01*
Y-266404D01*
X914690Y-267716D01*
X918626D01*
X921249D02*
X923873D01*
X922561D01*
Y-262468D01*
X921249D01*
X927809Y-267716D02*
Y-262468D01*
X931745D01*
X933057Y-263780D01*
Y-267716D01*
X939616D02*
X936992D01*
X935680Y-266404D01*
Y-263780D01*
X936992Y-262468D01*
X939616D01*
X940928Y-263780D01*
Y-265092D01*
X935680D01*
X943552Y-262468D02*
Y-267716D01*
Y-265092D01*
X944864Y-263780D01*
X946176Y-262468D01*
X947488D01*
X1086614Y-141734D02*
Y-149606D01*
X1090549D01*
X1091861Y-148294D01*
Y-143046D01*
X1090549Y-141734D01*
X1086614D01*
X1095797Y-149606D02*
X1098421D01*
X1099733Y-148294D01*
Y-145670D01*
X1098421Y-144358D01*
X1095797D01*
X1094485Y-145670D01*
Y-148294D01*
X1095797Y-149606D01*
X1107604Y-144358D02*
X1103669D01*
X1102357Y-145670D01*
Y-148294D01*
X1103669Y-149606D01*
X1107604D01*
X1110228Y-144358D02*
Y-148294D01*
X1111540Y-149606D01*
X1115476D01*
Y-144358D01*
X1118100Y-149606D02*
Y-144358D01*
X1119412D01*
X1120724Y-145670D01*
Y-149606D01*
Y-145670D01*
X1122036Y-144358D01*
X1123347Y-145670D01*
Y-149606D01*
X1129907D02*
X1127283D01*
X1125971Y-148294D01*
Y-145670D01*
X1127283Y-144358D01*
X1129907D01*
X1131219Y-145670D01*
Y-146982D01*
X1125971D01*
X1133843Y-149606D02*
Y-144358D01*
X1137778D01*
X1139090Y-145670D01*
Y-149606D01*
X1143026Y-143046D02*
Y-144358D01*
X1141714D01*
X1144338D01*
X1143026D01*
Y-148294D01*
X1144338Y-149606D01*
X1086614Y-181104D02*
Y-188976D01*
X1091861D01*
X1095797Y-183728D02*
X1098421D01*
X1099733Y-185040D01*
Y-188976D01*
X1095797D01*
X1094485Y-187664D01*
X1095797Y-186352D01*
X1099733D01*
X1102357Y-183728D02*
Y-187664D01*
X1103669Y-188976D01*
X1107604D01*
Y-190288D01*
X1106293Y-191600D01*
X1104981D01*
X1107604Y-188976D02*
Y-183728D01*
X1114164Y-188976D02*
X1111540D01*
X1110228Y-187664D01*
Y-185040D01*
X1111540Y-183728D01*
X1114164D01*
X1115476Y-185040D01*
Y-186352D01*
X1110228D01*
X1118100Y-183728D02*
Y-188976D01*
Y-186352D01*
X1119412Y-185040D01*
X1120724Y-183728D01*
X1122036D01*
X1133843Y-188976D02*
Y-181104D01*
X1139090Y-188976D01*
Y-181104D01*
X1143026Y-183728D02*
X1145650D01*
X1146962Y-185040D01*
Y-188976D01*
X1143026D01*
X1141714Y-187664D01*
X1143026Y-186352D01*
X1146962D01*
X1149586Y-188976D02*
Y-183728D01*
X1150898D01*
X1152209Y-185040D01*
Y-188976D01*
Y-185040D01*
X1153521Y-183728D01*
X1154833Y-185040D01*
Y-188976D01*
X1161393D02*
X1158769D01*
X1157457Y-187664D01*
Y-185040D01*
X1158769Y-183728D01*
X1161393D01*
X1162705Y-185040D01*
Y-186352D01*
X1157457D01*
X1086614Y-220475D02*
Y-228346D01*
X1090549D01*
X1091861Y-227034D01*
Y-221786D01*
X1090549Y-220475D01*
X1086614D01*
X1095797Y-223098D02*
X1098421D01*
X1099733Y-224410D01*
Y-228346D01*
X1095797D01*
X1094485Y-227034D01*
X1095797Y-225722D01*
X1099733D01*
X1103669Y-221786D02*
Y-223098D01*
X1102357D01*
X1104981D01*
X1103669D01*
Y-227034D01*
X1104981Y-228346D01*
X1112852D02*
X1110228D01*
X1108916Y-227034D01*
Y-224410D01*
X1110228Y-223098D01*
X1112852D01*
X1114164Y-224410D01*
Y-225722D01*
X1108916D01*
X1086614Y-259844D02*
Y-267716D01*
X1090549D01*
X1091861Y-266404D01*
Y-261157D01*
X1090549Y-259844D01*
X1086614D01*
X1095797Y-267716D02*
X1098421D01*
X1099733Y-266404D01*
Y-263780D01*
X1098421Y-262468D01*
X1095797D01*
X1094485Y-263780D01*
Y-266404D01*
X1095797Y-267716D01*
X1107604Y-262468D02*
X1103669D01*
X1102357Y-263780D01*
Y-266404D01*
X1103669Y-267716D01*
X1107604D01*
X1110228Y-262468D02*
Y-266404D01*
X1111540Y-267716D01*
X1115476D01*
Y-262468D01*
X1118100Y-267716D02*
Y-262468D01*
X1119412D01*
X1120724Y-263780D01*
Y-267716D01*
Y-263780D01*
X1122036Y-262468D01*
X1123347Y-263780D01*
Y-267716D01*
X1129907D02*
X1127283D01*
X1125971Y-266404D01*
Y-263780D01*
X1127283Y-262468D01*
X1129907D01*
X1131219Y-263780D01*
Y-265092D01*
X1125971D01*
X1133843Y-267716D02*
Y-262468D01*
X1137778D01*
X1139090Y-263780D01*
Y-267716D01*
X1143026Y-261157D02*
Y-262468D01*
X1141714D01*
X1144338D01*
X1143026D01*
Y-266404D01*
X1144338Y-267716D01*
D13*
X1240157Y-255905D02*
Y-216535D01*
X1082677Y-177165D02*
X1358267D01*
X1082677Y-216535D02*
X1358267D01*
X885826Y-255905D02*
X1358267D01*
X885826Y-137795D02*
X1358267D01*
X885826Y-295275D02*
Y-137795D01*
X1082677Y-295275D02*
Y-137795D01*
X-295276Y874016D02*
X1358267D01*
Y-295275D02*
Y874016D01*
X-295276Y-295275D02*
Y874016D01*
Y-295275D02*
X1358267D01*
X1092519Y-281498D02*
X1096455D01*
X1094487D01*
Y-287401D01*
X1101375D02*
X1099407D01*
X1098423Y-286417D01*
Y-284449D01*
X1099407Y-283465D01*
X1101375D01*
X1102359Y-284449D01*
Y-285433D01*
X1098423D01*
X1105310Y-283465D02*
X1107278D01*
X1108262Y-284449D01*
Y-287401D01*
X1105310D01*
X1104327Y-286417D01*
X1105310Y-285433D01*
X1108262D01*
X1110230Y-287401D02*
Y-283465D01*
X1111214D01*
X1112198Y-284449D01*
Y-287401D01*
Y-284449D01*
X1113182Y-283465D01*
X1114166Y-284449D01*
Y-287401D01*
X1116134Y-288385D02*
X1120069D01*
X1125973Y-282481D02*
X1124989Y-281498D01*
X1123021D01*
X1122037Y-282481D01*
Y-283465D01*
X1123021Y-284449D01*
X1124989D01*
X1125973Y-285433D01*
Y-286417D01*
X1124989Y-287401D01*
X1123021D01*
X1122037Y-286417D01*
X1131877Y-283465D02*
X1128925D01*
X1127941Y-284449D01*
Y-286417D01*
X1128925Y-287401D01*
X1131877D01*
X1133844Y-281498D02*
Y-287401D01*
Y-284449D01*
X1134828Y-283465D01*
X1136796D01*
X1137780Y-284449D01*
Y-287401D01*
X1142700D02*
X1140732D01*
X1139748Y-286417D01*
Y-284449D01*
X1140732Y-283465D01*
X1142700D01*
X1143684Y-284449D01*
Y-285433D01*
X1139748D01*
X1145652Y-287401D02*
X1147620D01*
X1146636D01*
Y-283465D01*
X1145652D01*
X1150571D02*
Y-287401D01*
Y-285433D01*
X1151555Y-284449D01*
X1152539Y-283465D01*
X1153523D01*
X1159427Y-287401D02*
X1157459D01*
X1156475Y-286417D01*
Y-284449D01*
X1157459Y-283465D01*
X1159427D01*
X1160411Y-284449D01*
Y-285433D01*
X1156475D01*
X1162379Y-288385D02*
X1166314D01*
X1168282Y-287401D02*
Y-281498D01*
X1170250Y-283465D01*
X1172218Y-281498D01*
Y-287401D01*
X1175170Y-283465D02*
X1177138D01*
X1178121Y-284449D01*
Y-287401D01*
X1175170D01*
X1174186Y-286417D01*
X1175170Y-285433D01*
X1178121D01*
X1181073Y-283465D02*
X1183041D01*
X1184025Y-284449D01*
Y-287401D01*
X1181073D01*
X1180089Y-286417D01*
X1181073Y-285433D01*
X1184025D01*
X1185993Y-283465D02*
Y-287401D01*
Y-285433D01*
X1186977Y-284449D01*
X1187961Y-283465D01*
X1188945D01*
X1192881Y-282481D02*
Y-283465D01*
X1191897D01*
X1193865D01*
X1192881D01*
Y-286417D01*
X1193865Y-287401D01*
X1199768D02*
X1197800D01*
X1196816Y-286417D01*
Y-284449D01*
X1197800Y-283465D01*
X1199768D01*
X1200752Y-284449D01*
Y-285433D01*
X1196816D01*
X1202720Y-287401D02*
Y-283465D01*
X1205672D01*
X1206656Y-284449D01*
Y-287401D01*
X1208624Y-288385D02*
X1212559D01*
X1214527Y-282481D02*
X1215511Y-281498D01*
X1217479D01*
X1218463Y-282481D01*
Y-286417D01*
X1217479Y-287401D01*
X1215511D01*
X1214527Y-286417D01*
Y-282481D01*
X1220431D02*
X1221415Y-281498D01*
X1223382D01*
X1224366Y-282481D01*
Y-286417D01*
X1223382Y-287401D01*
X1221415D01*
X1220431Y-286417D01*
Y-282481D01*
X1226334Y-287401D02*
Y-286417D01*
X1227318D01*
Y-287401D01*
X1226334D01*
X1231254D02*
Y-281498D01*
X1234206D01*
X1235190Y-282481D01*
Y-284449D01*
X1234206Y-285433D01*
X1231254D01*
X1241093Y-283465D02*
X1238142D01*
X1237158Y-284449D01*
Y-286417D01*
X1238142Y-287401D01*
X1241093D01*
X1243061Y-281498D02*
Y-287401D01*
X1246013D01*
X1246997Y-286417D01*
Y-285433D01*
Y-284449D01*
X1246013Y-283465D01*
X1243061D01*
X1248965Y-281498D02*
Y-287401D01*
X1251917D01*
X1252900Y-286417D01*
Y-282481D01*
X1251917Y-281498D01*
X1248965D01*
X1255852Y-287401D02*
X1257820D01*
X1258804Y-286417D01*
Y-284449D01*
X1257820Y-283465D01*
X1255852D01*
X1254868Y-284449D01*
Y-286417D01*
X1255852Y-287401D01*
X1264708Y-283465D02*
X1261756D01*
X1260772Y-284449D01*
Y-286417D01*
X1261756Y-287401D01*
X1264708D01*
D15*
X1113514Y-194886D02*
X1104330D01*
Y-201773D01*
X1108922D01*
X1104330D01*
Y-208661D01*
X1120401Y-199478D02*
X1124993D01*
X1127289Y-201773D01*
Y-208661D01*
X1120401D01*
X1118105Y-206365D01*
X1120401Y-204069D01*
X1127289D01*
X1131880Y-194886D02*
Y-208661D01*
X1138768D01*
X1141064Y-206365D01*
Y-204069D01*
Y-201773D01*
X1138768Y-199478D01*
X1131880D01*
X1145656D02*
Y-208661D01*
Y-204069D01*
X1147951Y-201773D01*
X1150247Y-199478D01*
X1152543D01*
X1159431Y-208661D02*
X1164022D01*
X1161726D01*
Y-199478D01*
X1159431D01*
X1180093D02*
X1173206D01*
X1170910Y-201773D01*
Y-206365D01*
X1173206Y-208661D01*
X1180093D01*
X1186981Y-199478D02*
X1191572D01*
X1193868Y-201773D01*
Y-208661D01*
X1186981D01*
X1184685Y-206365D01*
X1186981Y-204069D01*
X1193868D01*
X1200756Y-197182D02*
Y-199478D01*
X1198460D01*
X1203052D01*
X1200756D01*
Y-206365D01*
X1203052Y-208661D01*
X1209939D02*
X1214531D01*
X1212235D01*
Y-199478D01*
X1209939D01*
X1223714Y-208661D02*
X1228306D01*
X1230602Y-206365D01*
Y-201773D01*
X1228306Y-199478D01*
X1223714D01*
X1221418Y-201773D01*
Y-206365D01*
X1223714Y-208661D01*
X1235194D02*
Y-199478D01*
X1242081D01*
X1244377Y-201773D01*
Y-208661D01*
X907480Y-273627D02*
Y-289370D01*
X912728Y-284122D01*
X917975Y-289370D01*
Y-273627D01*
X923223Y-289370D02*
X928471D01*
X925847D01*
Y-278874D01*
X923223D01*
X936342Y-289370D02*
Y-278874D01*
X938966D01*
X941590Y-281498D01*
Y-289370D01*
Y-281498D01*
X944213Y-278874D01*
X946837Y-281498D01*
Y-289370D01*
X952085Y-273627D02*
Y-284122D01*
X957333Y-289370D01*
X962580Y-284122D01*
Y-273627D01*
X978323Y-276251D02*
X975699Y-273627D01*
X970452D01*
X967828Y-276251D01*
Y-286746D01*
X970452Y-289370D01*
X975699D01*
X978323Y-286746D01*
Y-281498D01*
X973075D01*
X1261811Y-236880D02*
X1264435Y-234257D01*
X1269682D01*
X1272306Y-236880D01*
Y-247376D01*
X1269682Y-249999D01*
X1264435D01*
X1261811Y-247376D01*
Y-236880D01*
X1277554D02*
X1280177Y-234257D01*
X1285425D01*
X1288049Y-236880D01*
Y-247376D01*
X1285425Y-249999D01*
X1280177D01*
X1277554Y-247376D01*
Y-236880D01*
X1098425Y-238520D02*
X1100721Y-236224D01*
X1105312D01*
X1107608Y-238520D01*
Y-240816D01*
X1105312Y-243112D01*
X1103016D01*
X1105312D01*
X1107608Y-245408D01*
Y-247704D01*
X1105312Y-249999D01*
X1100721D01*
X1098425Y-247704D01*
X1112200Y-238520D02*
X1114496Y-236224D01*
X1119087D01*
X1121383Y-238520D01*
Y-247704D01*
X1119087Y-249999D01*
X1114496D01*
X1112200Y-247704D01*
Y-238520D01*
X1125975Y-249999D02*
X1135158Y-240816D01*
X1139750Y-238520D02*
X1142046Y-236224D01*
X1146638D01*
X1148933Y-238520D01*
Y-247704D01*
X1146638Y-249999D01*
X1142046D01*
X1139750Y-247704D01*
Y-238520D01*
X1162708Y-236224D02*
X1158117Y-238520D01*
X1153525Y-243112D01*
Y-247704D01*
X1155821Y-249999D01*
X1160413D01*
X1162708Y-247704D01*
Y-245408D01*
X1160413Y-243112D01*
X1153525D01*
X1167300Y-249999D02*
X1176484Y-240816D01*
X1190259Y-249999D02*
X1181075D01*
X1190259Y-240816D01*
Y-238520D01*
X1187963Y-236224D01*
X1183371D01*
X1181075Y-238520D01*
X1194850D02*
X1197146Y-236224D01*
X1201738D01*
X1204034Y-238520D01*
Y-247704D01*
X1201738Y-249999D01*
X1197146D01*
X1194850Y-247704D01*
Y-238520D01*
X1208626Y-249999D02*
X1213217D01*
X1210921D01*
Y-236224D01*
X1208626Y-238520D01*
X1220105Y-247704D02*
X1222400Y-249999D01*
X1226992D01*
X1229288Y-247704D01*
Y-238520D01*
X1226992Y-236224D01*
X1222400D01*
X1220105Y-238520D01*
Y-240816D01*
X1222400Y-243112D01*
X1229288D01*
X1092519Y-157484D02*
X1101703D01*
X1097111D01*
Y-171259D01*
X1113182D02*
X1108590D01*
X1106294Y-168964D01*
Y-164372D01*
X1108590Y-162076D01*
X1113182D01*
X1115478Y-164372D01*
Y-166668D01*
X1106294D01*
X1122365Y-162076D02*
X1126957D01*
X1129253Y-164372D01*
Y-171259D01*
X1122365D01*
X1120070Y-168964D01*
X1122365Y-166668D01*
X1129253D01*
X1133844Y-171259D02*
Y-162076D01*
X1136140D01*
X1138436Y-164372D01*
Y-171259D01*
Y-164372D01*
X1140732Y-162076D01*
X1143028Y-164372D01*
Y-171259D01*
X1147620Y-173555D02*
X1156803D01*
X1170578Y-159780D02*
X1168282Y-157484D01*
X1163691D01*
X1161395Y-159780D01*
Y-162076D01*
X1163691Y-164372D01*
X1168282D01*
X1170578Y-166668D01*
Y-168964D01*
X1168282Y-171259D01*
X1163691D01*
X1161395Y-168964D01*
X1184353Y-162076D02*
X1177466D01*
X1175170Y-164372D01*
Y-168964D01*
X1177466Y-171259D01*
X1184353D01*
X1188945Y-157484D02*
Y-171259D01*
Y-164372D01*
X1191241Y-162076D01*
X1195832D01*
X1198128Y-164372D01*
Y-171259D01*
X1209608D02*
X1205016D01*
X1202720Y-168964D01*
Y-164372D01*
X1205016Y-162076D01*
X1209608D01*
X1211903Y-164372D01*
Y-166668D01*
X1202720D01*
X1216495Y-171259D02*
X1221087D01*
X1218791D01*
Y-162076D01*
X1216495D01*
X1227974D02*
Y-171259D01*
Y-166668D01*
X1230270Y-164372D01*
X1232566Y-162076D01*
X1234862D01*
X1248637Y-171259D02*
X1244045D01*
X1241749Y-168964D01*
Y-164372D01*
X1244045Y-162076D01*
X1248637D01*
X1250933Y-164372D01*
Y-166668D01*
X1241749D01*
X1255524Y-173555D02*
X1264708D01*
X1269300Y-171259D02*
Y-157484D01*
X1273891Y-162076D01*
X1278483Y-157484D01*
Y-171259D01*
X1285370Y-162076D02*
X1289962D01*
X1292258Y-164372D01*
Y-171259D01*
X1285370D01*
X1283075Y-168964D01*
X1285370Y-166668D01*
X1292258D01*
X1299146Y-162076D02*
X1303737D01*
X1306033Y-164372D01*
Y-171259D01*
X1299146D01*
X1296850Y-168964D01*
X1299146Y-166668D01*
X1306033D01*
X1310625Y-162076D02*
Y-171259D01*
Y-166668D01*
X1312921Y-164372D01*
X1315216Y-162076D01*
X1317512D01*
X1326696Y-159780D02*
Y-162076D01*
X1324400D01*
X1328992D01*
X1326696D01*
Y-168964D01*
X1328992Y-171259D01*
X1342767D02*
X1338175D01*
X1335879Y-168964D01*
Y-164372D01*
X1338175Y-162076D01*
X1342767D01*
X1345062Y-164372D01*
Y-166668D01*
X1335879D01*
X1349654Y-171259D02*
Y-162076D01*
X1356542D01*
X1358838Y-164372D01*
Y-171259D01*
D111*
X-147177Y-25984D02*
X-141177Y-23984D01*
X-147177Y-25984D02*
X-141177Y-27984D01*
X144416D02*
X150416Y-25984D01*
X144416Y-23984D02*
X150416Y-25984D01*
X-147177D02*
X-15576D01*
X15615D02*
X150416D01*
X-147177Y-26984D02*
Y302918D01*
X150416Y-26984D02*
Y303919D01*
X-172835Y433868D02*
X-170835Y427868D01*
X-174835D02*
X-172835Y433868D01*
X-174835Y8372D02*
X-172835Y2372D01*
X-170835Y8372D01*
X-172835Y234614D02*
Y433868D01*
Y2372D02*
Y198425D01*
X-173835Y433868D02*
X-70078D01*
X-173835Y2372D02*
X-59055D01*
D112*
X-13976Y-24585D02*
X-9977D01*
Y-25585D01*
X-13976Y-29583D01*
Y-30583D01*
X-3979Y-24585D02*
X-7978D01*
Y-27584D01*
X-5979Y-26584D01*
X-4979D01*
X-3979Y-27584D01*
Y-29583D01*
X-4979Y-30583D01*
X-6978D01*
X-7978Y-29583D01*
X-980Y-31583D02*
X20Y-30583D01*
Y-29583D01*
X-980D01*
Y-30583D01*
X20D01*
X-980Y-31583D01*
X-1980Y-32582D01*
X8017Y-24585D02*
X4018D01*
Y-27584D01*
X6018Y-26584D01*
X7017D01*
X8017Y-27584D01*
Y-29583D01*
X7017Y-30583D01*
X5018D01*
X4018Y-29583D01*
X10016D02*
X11016Y-30583D01*
X13015D01*
X14015Y-29583D01*
Y-25585D01*
X13015Y-24585D01*
X11016D01*
X10016Y-25585D01*
Y-26584D01*
X11016Y-27584D01*
X14015D01*
X-168236Y200025D02*
Y202025D01*
Y201025D01*
X-174234D01*
X-173234Y200025D01*
Y205024D02*
X-174234Y206023D01*
Y208023D01*
X-173234Y209022D01*
X-169236D01*
X-168236Y208023D01*
Y206023D01*
X-169236Y205024D01*
X-173234D01*
X-169236Y211022D02*
X-168236Y212021D01*
Y214021D01*
X-169236Y215020D01*
X-173234D01*
X-174234Y214021D01*
Y212021D01*
X-173234Y211022D01*
X-172235D01*
X-171235Y212021D01*
Y215020D01*
X-167236Y218019D02*
X-168236Y219019D01*
X-169236D01*
Y218019D01*
X-168236D01*
Y219019D01*
X-167236Y218019D01*
X-166237Y217020D01*
X-174234Y227016D02*
X-173234Y225017D01*
X-171235Y223018D01*
X-169236D01*
X-168236Y224017D01*
Y226017D01*
X-169236Y227016D01*
X-170235D01*
X-171235Y226017D01*
Y223018D01*
X-173234Y229016D02*
X-174234Y230015D01*
Y232015D01*
X-173234Y233014D01*
X-169236D01*
X-168236Y232015D01*
Y230015D01*
X-169236Y229016D01*
X-173234D01*
M02*
